<?xml version="1.0" encoding="UTF-8" standalone="no"?>
<svg
   xmlns:dc="http://purl.org/dc/elements/1.1/"
   xmlns:cc="http://creativecommons.org/ns#"
   xmlns:rdf="http://www.w3.org/1999/02/22-rdf-syntax-ns#"
   xmlns:svg="http://www.w3.org/2000/svg"
   xmlns="http://www.w3.org/2000/svg"
   xmlns:xlink="http://www.w3.org/1999/xlink"
   xmlns:sodipodi="http://sodipodi.sourceforge.net/DTD/sodipodi-0.dtd"
   xmlns:inkscape="http://www.inkscape.org/namespaces/inkscape"
   viewBox="0 0 24 24"
   version="1.1"
   id="svg24"
   sodipodi:docname="lc_aligncenter.svg"
   inkscape:version="0.92.3 (unknown)">
  <metadata
     id="metadata30">
    <rdf:RDF>
      <cc:Work
         rdf:about="">
        <dc:format>image/svg+xml</dc:format>
        <dc:type
           rdf:resource="http://purl.org/dc/dcmitype/StillImage" />
        <dc:title />
      </cc:Work>
    </rdf:RDF>
  </metadata>
  <defs
     id="defs28">
    <linearGradient
       gradientTransform="translate(75,-7)"
       id="a-367"
       gradientUnits="userSpaceOnUse"
       x1="14"
       x2="13.79661"
       y1="22"
       y2="2.1355929">
      <stop
         offset="0"
         stop-color="#0040dd"
         id="stop2206" />
      <stop
         offset="1"
         stop-color="#0a84ff"
         id="stop2208" />
    </linearGradient>
    <linearGradient
       inkscape:collect="always"
       xlink:href="#a-367"
       id="linearGradient851"
       x1="5.5"
       y1="12.340992"
       x2="5.3710938"
       y2="6.5597415"
       gradientUnits="userSpaceOnUse"
       gradientTransform="matrix(0,-1,-1,0,30.005054,12.992879)" />
    <linearGradient
       inkscape:collect="always"
       xlink:href="#a-367"
       id="linearGradient899"
       gradientUnits="userSpaceOnUse"
       gradientTransform="rotate(90,9.0063018,20.998752)"
       x1="5.5"
       y1="12.340992"
       x2="5.3710938"
       y2="6.5597415" />
  </defs>
  <sodipodi:namedview
     pagecolor="#ffffff"
     bordercolor="#666666"
     borderopacity="1"
     objecttolerance="10"
     gridtolerance="10"
     guidetolerance="10"
     inkscape:pageopacity="0"
     inkscape:pageshadow="2"
     inkscape:window-width="1366"
     inkscape:window-height="706"
     id="namedview26"
     showgrid="true"
     inkscape:snap-smooth-nodes="true"
     inkscape:zoom="9.8333333"
     inkscape:cx="1.3087495"
     inkscape:cy="12.423035"
     inkscape:window-x="0"
     inkscape:window-y="0"
     inkscape:window-maximized="1"
     inkscape:current-layer="g22">
    <inkscape:grid
       type="xygrid"
       id="grid840"
       spacingx="0.5"
       spacingy="0.5"
       empspacing="2" />
  </sodipodi:namedview>
  <g
     transform="matrix(0 -1 1 0 -.992879 24)"
     id="g22">
    <g
       id="g828">
      <path
         inkscape:connector-curvature="0"
         style="fill:url(#linearGradient899);fill-opacity:1;stroke:none;stroke-linecap:round;stroke-linejoin:round"
         d="m 24,17.476826 c -0.0041,-0.127146 -0.05652,-0.24795 -0.146484,-0.33789 l -3,-3.000001 c -0.195448,-0.194741 -0.511583,-0.194741 -0.707031,0 l -3,3.000001 C 16.833731,17.454333 17.05583,17.990562 17.5,17.992451 H 19 v 4.5 c 0,0.276999 0.223,0.5 0.5,0.5 h 2 c 0.277,0 0.5,-0.223001 0.5,-0.5 v -4.5 h 1.5 c 0.282151,-3.59e-4 0.50832,-0.233597 0.5,-0.515625 z"
         id="path897"
         sodipodi:nodetypes="cccccccssssccc" />
      <path
         sodipodi:nodetypes="cccccccssssccc"
         id="path4-6"
         d="m 24,7.508504 c -0.0041,0.127146 -0.05652,0.2479505 -0.146484,0.3378906 l -3,3.0000004 c -0.195448,0.194741 -0.511583,0.194741 -0.707031,0 l -3,-3.0000004 C 16.833731,7.5309973 17.05583,6.9947685 17.5,6.992879 H 19 v -4.5 c 0,-0.276999 0.223,-0.5 0.5,-0.5 h 2 c 0.277,0 0.5,0.223001 0.5,0.5 v 4.5 h 1.5 c 0.282151,3.592e-4 0.50832,0.2335968 0.5,0.515625 z"
         style="fill:url(#linearGradient851);fill-opacity:1;stroke:none;stroke-linecap:round;stroke-linejoin:round"
         inkscape:connector-curvature="0" />
      <path
         d="m 15.5,7.5 v 10 h -5 v -10 z"
         id="path2"
         inkscape:connector-curvature="0"
         style="fill:#ffffff;stroke:#98989d;stroke-linecap:round;stroke-linejoin:round;stroke-opacity:1" />
      <path
         d="m 7.5,4.5 v 16 h -5 v -16 z"
         id="path10"
         inkscape:connector-curvature="0"
         style="fill:#ffcc00;stroke:#e4b500;stroke-linecap:round;stroke-linejoin:round;stroke-opacity:1;fill-opacity:1" />
      <rect
         style="fill:#69696e;fill-opacity:1"
         id="rect14"
         y="-13"
         x="1"
         width="21"
         transform="scale(1 -1)"
         ry=".474576"
         height="1"
         fill="#4d82b8" />
    </g>
  </g>
</svg>
