<svg viewBox="0 0 24 24" xmlns="http://www.w3.org/2000/svg" xmlns:xlink="http://www.w3.org/1999/xlink"><linearGradient id="a" gradientUnits="userSpaceOnUse" x1="-15.949153" x2="-15.949153" y1="10.3653" y2="-3.6347"><stop offset="0" stop-color="#f5f5f5"/><stop offset=".08333334" stop-color="#fdfdfd"/><stop offset="1" stop-color="#fff"/></linearGradient><path d="m3 2c-.554 0-1 .446-1 1v18c0 .554.446 1 1 1h18c.554 0 1-.446 1-1v-18c0-.554-.446-1-1-1zm0 3h18v14h-18z" fill="#98989d"/><g fill="#fff"><path d="m4 3v1h1v-1zm3 0v1h1v-1zm3 0v1h1v-1zm3 0v1h1v-1zm3 0v1h1v-1zm3 0v1h1v-1z"/><path d="m3 5h18v14h-18z" fill="url(#a)"/><path d="m4 20v1h1v-1zm3 0v1h1v-1zm3 0v1h1v-1zm3 0v1h1v-1zm3 0v1h1v-1zm3 0v1h1v-1z"/></g></svg>