<?xml version="1.0" encoding="UTF-8" standalone="no"?>
<svg
   xmlns:dc="http://purl.org/dc/elements/1.1/"
   xmlns:cc="http://creativecommons.org/ns#"
   xmlns:rdf="http://www.w3.org/1999/02/22-rdf-syntax-ns#"
   xmlns:svg="http://www.w3.org/2000/svg"
   xmlns="http://www.w3.org/2000/svg"
   xmlns:xlink="http://www.w3.org/1999/xlink"
   xmlns:sodipodi="http://sodipodi.sourceforge.net/DTD/sodipodi-0.dtd"
   xmlns:inkscape="http://www.inkscape.org/namespaces/inkscape"
   viewBox="0 0 24 24"
   version="1.1"
   id="svg16"
   sodipodi:docname="lc_bezierappend.svg"
   inkscape:version="0.92.3 (unknown)">
  <metadata
     id="metadata22">
    <rdf:RDF>
      <cc:Work
         rdf:about="">
        <dc:format>image/svg+xml</dc:format>
        <dc:type
           rdf:resource="http://purl.org/dc/dcmitype/StillImage" />
      </cc:Work>
    </rdf:RDF>
  </metadata>
  <defs
     id="defs20">
    <linearGradient
       id="d"
       gradientUnits="userSpaceOnUse"
       x1="-19.897808"
       x2="-19.579052"
       y1="17.182213"
       y2="1.9957711">
      <stop
         offset="0"
         stop-color="#0040dd"
         id="stop9" />
      <stop
         offset="1"
         stop-color="#0a84ff"
         id="stop11" />
    </linearGradient>
    <linearGradient
       id="b"
       gradientUnits="userSpaceOnUse"
       x1="1.355932"
       x2="1.644068"
       xlink:href="#a"
       y1="15.720339"
       y2="13.076271" />
    <linearGradient
       id="a"
       gradientTransform="matrix(0.26458333,0,0,0.26458333,101.6,307.58333)"
       gradientUnits="userSpaceOnUse"
       x1="18.5"
       x2="18.5"
       y1="23"
       y2="14.5">
      <stop
         offset="0"
         stop-color="#d70015"
         id="stop2" />
      <stop
         offset="1"
         stop-color="#ff453a"
         id="stop4" />
    </linearGradient>
    <linearGradient
       id="c"
       gradientUnits="userSpaceOnUse"
       x1="14.559322"
       x2="14.576271"
       xlink:href="#a"
       y1="4.7203388"
       y2="2.144068" />
    <linearGradient
       gradientTransform="translate(-20.305085,-6.5042458)"
       id="e"
       gradientUnits="userSpaceOnUse"
       x1="5.1694908"
       x2="5.1016951"
       xlink:href="#a"
       y1="6.5593219"
       y2="3.169492" />
    <linearGradient
       inkscape:collect="always"
       xlink:href="#a"
       id="linearGradient885"
       x1="10.830508"
       y1="12.932203"
       x2="10.515625"
       y2="10"
       gradientUnits="userSpaceOnUse" />
    <linearGradient
       inkscape:collect="always"
       xlink:href="#a"
       id="linearGradient893"
       x1="5.0169492"
       y1="21.923729"
       x2="5.2711864"
       y2="18.771187"
       gradientUnits="userSpaceOnUse" />
    <linearGradient
       inkscape:collect="always"
       xlink:href="#a"
       id="linearGradient895"
       x1="20.068359"
       y1="7.8242188"
       x2="20.576271"
       y2="5.2796612"
       gradientUnits="userSpaceOnUse" />
    <linearGradient
       inkscape:collect="always"
       xlink:href="#d"
       id="linearGradient903"
       x1="14.024398"
       y1="22.067587"
       x2="14.3125"
       y2="2"
       gradientUnits="userSpaceOnUse" />
  </defs>
  <sodipodi:namedview
     pagecolor="#ffffff"
     bordercolor="#666666"
     borderopacity="1"
     objecttolerance="10"
     gridtolerance="10"
     guidetolerance="10"
     inkscape:pageopacity="0"
     inkscape:pageshadow="2"
     inkscape:window-width="1366"
     inkscape:window-height="706"
     id="namedview18"
     showgrid="false"
     inkscape:zoom="9.8333333"
     inkscape:cx="-1.0677966"
     inkscape:cy="12"
     inkscape:window-x="0"
     inkscape:window-y="0"
     inkscape:window-maximized="1"
     inkscape:current-layer="svg16" />
  <g
     fill="#808080"
     id="g8">
    <path
       d="m14.3125 2c-.877347-.00987-1.732209.1575871-2.503906.484375-1.543395.6535757-2.7779504 1.9438309-3.1699221 3.6484375-.3617109 1.5730082.0225975 3.4482339 1.3613281 5.4062495v-1.539062h.515625c-.7457286-1.3845485-.8859388-2.5955606-.6582031-3.5859375.2951731-1.2836494 1.2123661-2.2604943 2.4375001-2.7792969 2.450267-1.0376052 6.04363-.2463222 7.773437 4.1894532l1.164063-.453125c-1.448578-3.7146136-4.287881-5.3414952-6.919922-5.3710938zm-3.990234 10c.007883.010409.013546.020837.021484.03125.843712 1.106738 1.392807 2.089378 1.751953 2.96875h1.351563c-.32134-.923136-.847304-1.924877-1.589844-3zm1.839843 7c-.13738.226647-.294158.437724-.480468.621094-1.280556 1.260341-3.7642334 1.433476-5.2031254.476562l-.6914062 1.041016c2.001894 1.33133 4.9951316 1.117483 6.7695316-.628906.419843-.413217.757577-.924002.986328-1.509766z"
       id="path2"
       style="fill-opacity:1;fill:url(#linearGradient903)" />
    <path
       d="m4 19h3v3h-3z"
       id="path4"
       style="fill-opacity:1;fill:url(#linearGradient893)" />
    <path
       d="m19 5h3v3h-3z"
       id="path6"
       style="fill-opacity:1;fill:url(#linearGradient895)" />
  </g>
  <path
     d="m9 9v4h4v-4zm1 1h2v2h-2z"
     fill="#4d82b8"
     id="path10"
     style="fill-opacity:1;fill:url(#linearGradient885)" />
  <rect
     fill="#4d82b8"
     height="12"
     ry="1"
     transform="rotate(90)"
     width="2"
     x="16"
     y="-23"
     id="rect12"
     style="fill-opacity:1;fill:#32d74b" />
  <rect
     fill="#4d82b8"
     height="12"
     ry="1"
     width="2"
     x="16"
     y="11"
     id="rect14"
     style="fill-opacity:1;fill:#32d74b" />
</svg>
