<?xml version="1.0" encoding="UTF-8" standalone="no"?>
<svg
   xmlns:dc="http://purl.org/dc/elements/1.1/"
   xmlns:cc="http://creativecommons.org/ns#"
   xmlns:rdf="http://www.w3.org/1999/02/22-rdf-syntax-ns#"
   xmlns:svg="http://www.w3.org/2000/svg"
   xmlns="http://www.w3.org/2000/svg"
   xmlns:xlink="http://www.w3.org/1999/xlink"
   xmlns:sodipodi="http://sodipodi.sourceforge.net/DTD/sodipodi-0.dtd"
   xmlns:inkscape="http://www.inkscape.org/namespaces/inkscape"
   viewBox="0 0 24 24"
   version="1.1"
   id="svg8"
   sodipodi:docname="lc_beziersmooth.svg"
   inkscape:version="0.92.3 (unknown)">
  <metadata
     id="metadata14">
    <rdf:RDF>
      <cc:Work
         rdf:about="">
        <dc:format>image/svg+xml</dc:format>
        <dc:type
           rdf:resource="http://purl.org/dc/dcmitype/StillImage" />
      </cc:Work>
    </rdf:RDF>
  </metadata>
  <defs
     id="defs12">
    <linearGradient
       id="d"
       gradientUnits="userSpaceOnUse"
       x1="-19.897808"
       x2="-19.579052"
       y1="17.182213"
       y2="1.9957711">
      <stop
         offset="0"
         stop-color="#0040dd"
         id="stop9" />
      <stop
         offset="1"
         stop-color="#0a84ff"
         id="stop11" />
    </linearGradient>
    <linearGradient
       id="c"
       gradientUnits="userSpaceOnUse"
       x1="14.559322"
       x2="14.576271"
       xlink:href="#a"
       y1="4.7203388"
       y2="2.144068"
       gradientTransform="translate(-26.120746,-6.4128374)" />
    <linearGradient
       id="a"
       gradientTransform="matrix(0.26458333,0,0,0.26458333,101.6,307.58333)"
       gradientUnits="userSpaceOnUse"
       x1="18.5"
       x2="18.5"
       y1="23"
       y2="14.5">
      <stop
         offset="0"
         stop-color="#d70015"
         id="stop2" />
      <stop
         offset="1"
         stop-color="#ff453a"
         id="stop4" />
    </linearGradient>
    <linearGradient
       inkscape:collect="always"
       xlink:href="#a"
       id="linearGradient851"
       x1="11.745763"
       y1="7.9491525"
       x2="11.949153"
       y2="2.1525424"
       gradientUnits="userSpaceOnUse" />
    <linearGradient
       inkscape:collect="always"
       xlink:href="#a"
       id="linearGradient853"
       x1="14"
       y1="5"
       x2="14"
       y2="4.2675781"
       gradientUnits="userSpaceOnUse" />
    <linearGradient
       inkscape:collect="always"
       xlink:href="#d"
       id="linearGradient861"
       x1="12.059322"
       y1="21.981247"
       x2="11.940678"
       y2="4.5914164"
       gradientUnits="userSpaceOnUse" />
  </defs>
  <sodipodi:namedview
     pagecolor="#ffffff"
     bordercolor="#666666"
     borderopacity="1"
     objecttolerance="10"
     gridtolerance="10"
     guidetolerance="10"
     inkscape:pageopacity="0"
     inkscape:pageshadow="2"
     inkscape:window-width="1366"
     inkscape:window-height="706"
     id="namedview10"
     showgrid="false"
     inkscape:zoom="4.9166667"
     inkscape:cx="-17.505041"
     inkscape:cy="-2.8667474"
     inkscape:window-x="0"
     inkscape:window-y="0"
     inkscape:window-maximized="1"
     inkscape:current-layer="svg8" />
  <path
     d="m3.5 4c-.277 0-.5.223-.5.5s.223.5.5.5h6.5v-1zm10.5 0v1h6.5c.277 0 .5-.223.5-.5s-.223-.5-.5-.5z"
     fill="#4d82b8"
     id="path2"
     style="fill-opacity:1;fill:url(#linearGradient853)" />
  <path
     d="m10 4.2675781c-4.2837632 1.7584283-7.5 9.0228759-7.5 17.7324219h1.1875c0-7.947696 2.6895231-14.5976154 6.3125-16.4238281zm4 0v1.3085938c3.622977 1.8262127 6.3125 8.4761321 6.3125 16.4238281h1.1875c0-8.709546-3.216237-15.9739936-7.5-17.7324219z"
     fill="#808080"
     id="path4"
     style="fill-opacity:1;fill:url(#linearGradient861)" />
  <path
     d="m10 2c-.554 0-1 .446-1 1v4c0 .554.446 1 1 1h4c.554 0 1-.446 1-1v-4c0-.554-.446-1-1-1zm0 1h4v4h-4z"
     fill="#4d82b8"
     id="path6"
     style="fill-opacity:1;fill:url(#linearGradient851)" />
</svg>
