<?xml version="1.0" encoding="UTF-8" standalone="no"?>
<svg
   xmlns:dc="http://purl.org/dc/elements/1.1/"
   xmlns:cc="http://creativecommons.org/ns#"
   xmlns:rdf="http://www.w3.org/1999/02/22-rdf-syntax-ns#"
   xmlns:svg="http://www.w3.org/2000/svg"
   xmlns="http://www.w3.org/2000/svg"
   xmlns:xlink="http://www.w3.org/1999/xlink"
   xmlns:sodipodi="http://sodipodi.sourceforge.net/DTD/sodipodi-0.dtd"
   xmlns:inkscape="http://www.inkscape.org/namespaces/inkscape"
   viewBox="0 0 24 24"
   version="1.1"
   id="svg22"
   sodipodi:docname="lc_bulletsandnumberingdialog.svg"
   inkscape:version="0.92.3 (unknown)"
   inkscape:export-filename="/home/rizmut/Dokumen/Rizmut/Github/libreoffice-style-sukapura/images_sukapura/cmd/lc_bulletsandnumberingdialog.png"
   inkscape:export-xdpi="96"
   inkscape:export-ydpi="96">
  <metadata
     id="metadata28">
    <rdf:RDF>
      <cc:Work
         rdf:about="">
        <dc:format>image/svg+xml</dc:format>
        <dc:type
           rdf:resource="http://purl.org/dc/dcmitype/StillImage" />
        <dc:title></dc:title>
      </cc:Work>
    </rdf:RDF>
  </metadata>
  <defs
     id="defs26">
    <linearGradient
       gradientTransform="translate(-25.830508,-3.5932203)"
       id="a"
       gradientUnits="userSpaceOnUse"
       x1="14"
       x2="13.79661"
       y1="22"
       y2="2.1355929">
      <stop
         offset="0"
         stop-color="#0040dd"
         id="stop2" />
      <stop
         offset="1"
         stop-color="#0a84ff"
         id="stop4" />
    </linearGradient>
    <linearGradient
       inkscape:collect="always"
       xlink:href="#a"
       id="linearGradient1194"
       gradientUnits="userSpaceOnUse"
       gradientTransform="matrix(-1,0,0,1,-29.010942,26.95119)"
       x1="-31.010942"
       y1="-4.95119"
       x2="-31.010942"
       y2="-16.951191" />
    <linearGradient
       inkscape:collect="always"
       xlink:href="#a"
       id="linearGradient860"
       x1="4.6965938"
       y1="8.0201845"
       x2="4.4179983"
       y2="2.2314973"
       gradientUnits="userSpaceOnUse" />
    <linearGradient
       inkscape:collect="always"
       xlink:href="#a"
       id="linearGradient868"
       x1="4.1864409"
       y1="15.796609"
       x2="4.0890865"
       y2="10"
       gradientUnits="userSpaceOnUse" />
    <linearGradient
       id="a-3"
       gradientUnits="userSpaceOnUse"
       x1="11"
       x2="11"
       y1="21"
       y2="3"
       gradientTransform="translate(2,2)">
      <stop
         offset="0"
         stop-color="#f7f7f7"
         id="stop2-6" />
      <stop
         offset=".22222222"
         stop-color="#fff"
         id="stop4-7" />
      <stop
         offset=".83333331"
         stop-color="#fff"
         id="stop6-5" />
      <stop
         offset="1"
         stop-color="#f7f7f7"
         id="stop8" />
    </linearGradient>
    <linearGradient
       id="b-3"
       gradientUnits="userSpaceOnUse"
       x1="12.117647"
       x2="12.117647"
       y1="17.352942"
       y2="5.8235288"
       gradientTransform="matrix(0.60714286,0,0,0.60714286,12.142857,10.964286)">
      <stop
         offset="0"
         stop-color="#cfcfcf"
         id="stop11-5" />
      <stop
         offset="0.07142864"
         stop-color="#e7e7e7"
         id="stop13-6" />
      <stop
         offset="0.07142864"
         stop-color="#fff"
         id="stop15" />
      <stop
         offset=".5"
         stop-color="#f3f3f3"
         id="stop17" />
      <stop
         offset="0.93333334"
         stop-color="#f9f9f9"
         id="stop19" />
      <stop
         offset="0.93333334"
         stop-color="#fcfcfc"
         id="stop21" />
      <stop
         offset="1"
         stop-color="#fff"
         id="stop23" />
    </linearGradient>
    <linearGradient
       id="c"
       gradientUnits="userSpaceOnUse"
       x1="12"
       x2="12"
       y1="12"
       y2="17"
       gradientTransform="matrix(0.60714286,0,0,0.60714286,12.142857,10.964286)">
      <stop
         offset="0"
         stop-color="#f8f8f8"
         id="stop26" />
      <stop
         offset="1"
         stop-color="#fff"
         id="stop28" />
    </linearGradient>
  </defs>
  <sodipodi:namedview
     pagecolor="#ffffff"
     bordercolor="#666666"
     borderopacity="1"
     objecttolerance="10"
     gridtolerance="10"
     guidetolerance="10"
     inkscape:pageopacity="0"
     inkscape:pageshadow="2"
     inkscape:window-width="1366"
     inkscape:window-height="699"
     id="namedview24"
     showgrid="false"
     inkscape:zoom="9.8333335"
     inkscape:cx="6.2580385"
     inkscape:cy="17.92611"
     inkscape:window-x="0"
     inkscape:window-y="0"
     inkscape:window-maximized="1"
     inkscape:current-layer="svg22" />
  <g
     fill="#69696e"
     transform="scale(-1 1)"
     id="g14">
    <rect
       height="1"
       ry=".5"
       width="14.999998"
       x="-22"
       y="2"
       id="rect2" />
    <rect
       height="1"
       ry=".392136"
       width="15.000005"
       x="-22"
       y="10"
       id="rect4" />
    <rect
       height="1"
       ry=".436441"
       width="15.000001"
       x="-22"
       y="18"
       id="rect6" />
    <rect
       height="1"
       ry=".5"
       width="8.999999"
       x="-16"
       y="21"
       id="rect8" />
    <rect
       height="1"
       ry=".5"
       width="8.999999"
       x="-16"
       y="13"
       id="rect10" />
    <rect
       height="1"
       ry=".5"
       width="9.000002"
       x="-16"
       y="5"
       id="rect12" />
  </g>
  <g
     fill="#0a84ff"
     id="g20">
    <path
       d="m2.4805826 7h1.2475728v-3.168421c0-.1383459.00485-.2827068.014563-.4330828l-.8398058.6721804c-.055016.042105-.1100322.067669-.1650486.076692-.055016.00902-.1067959.00902-.1553397 0-.048543-.00902-.092233-.02406-.1310679-.045113-.035599-.02406-.063107-.04812-.082524-.072181l-.3689324-.4691724 1.9368932-1.5609022h1.0631068v5h1v1h-3.5194174z"
       id="path16"
       style="fill-opacity:1;fill:url(#linearGradient860)" />
    <path
       d="m4.0890866 10q.4097995 0 .7438753.125093.3385299.120625.5746101.344006.2405345.223381.3697104.540581.1336303.312732.1336303.692479 0 .326136-.093541.607595-.093541.276992-.2494431.531646-.155902.250186-.3652561.491437-.2093542.236784-.44098.478035l-1.2561245 1.317944q.2004453-.06254.4008908-.09382.2004455-.03574.3741648-.03574h1.340757q.1692651 0 .2717149.09829.1069045.098283.1069045.259116v.643336h-3.9999996v-.361876q0-.102755.040089-.218913.044543-.120625.1514477-.22338l1.7193762-1.773642q.2182627-.227848.3830734-.433358.169265-.20551.2806235-.406552.115813-.20551.1737195-.411021.057907-.209977.057907-.437825 0-.411021-.2048997-.620998-.2048999-.209978-.5790646-.209978-.1603563 0-.2939866.04915-.1336303.04915-.2405345.134028-.1069042.08488-.1826281.201043-.075724.116158-.1158128.250186-.07127.205509-.1959911.268056-.1202672.06254-.3340757.0268l-.5701567-.098285q.0668152-.433358.2405345-.755027.1737193-.326134.4320712-.54058.2628062-.218913.6013362-.326136.3385301-.11169.7260578-.11169z"
       id="path18"
       style="fill-opacity:1;fill:url(#linearGradient868)" />
  </g>
  <g
     id="g882"
     transform="matrix(-1,0,0,1,0,1)"
     style="fill:#e9e9e9;fill-opacity:0.99215686">
    <rect
       id="rect870"
       y="2"
       x="-22"
       width="14.999998"
       ry="0.5"
       height="1"
       style="fill:#e9e9e9;fill-opacity:0.99215686" />
    <rect
       id="rect872"
       y="10"
       x="-22"
       width="15.000005"
       ry="0.39213601"
       height="1"
       style="fill:#e9e9e9;fill-opacity:0.99215686" />
    <rect
       id="rect874"
       y="18"
       x="-22"
       width="15.000001"
       ry="0.436441"
       height="1"
       style="fill:#e9e9e9;fill-opacity:0.99215686" />
    <rect
       id="rect876"
       y="21"
       x="-16"
       width="8.999999"
       ry="0.5"
       height="1"
       style="fill:#e9e9e9;fill-opacity:0.99215686" />
    <rect
       id="rect878"
       y="13"
       x="-16"
       width="8.999999"
       ry="0.5"
       height="1"
       style="fill:#e9e9e9;fill-opacity:0.99215686" />
    <rect
       id="rect880"
       y="5"
       x="-16"
       width="9.0000019"
       ry="0.5"
       height="1"
       style="fill:#e9e9e9;fill-opacity:0.99215686" />
  </g>
  <g
     id="g895"
     transform="translate(-1)">
    <path
       id="path31"
       d="m 16,13 h 7 v 10 h -7 z"
       style="fill:url(#a-3)"
       inkscape:connector-curvature="0"
       sodipodi:nodetypes="ccccc" />
    <path
       id="path33"
       d="m 16,12 c -0.554,0 -1,0.446 -1,1 v 10 c 0,0.554 0.446,1 1,1 h 7 c 0.554,0 1,-0.446 1,-1 V 13 c 0,-0.554 -0.446,-1 -1,-1 z m 0,1 h 7 v 10 h -7 z"
       style="fill:#848489"
       inkscape:connector-curvature="0"
       sodipodi:nodetypes="sssssssssccccc" />
    <path
       id="path35"
       d="m 17,14 h 5 v 8 h -5 z"
       style="fill:#626262;stroke-width:0.60714287"
       inkscape:connector-curvature="0"
       sodipodi:nodetypes="ccccc" />
    <path
       id="path37"
       d="m 17.5,14.5 h 4 v 7 h -4 z"
       style="fill:url(#b-3);stroke-width:0.60714287"
       inkscape:connector-curvature="0"
       sodipodi:nodetypes="ccccc" />
    <path
       id="path39"
       d="m 18,16 h 3 v 2 h -3 z"
       style="fill:#dadada;stroke-width:0.60714287"
       inkscape:connector-curvature="0"
       sodipodi:nodetypes="ccccc" />
    <path
       id="path41"
       d="m 18,18 h 3 v 3 h -3 z"
       style="fill:url(#c);stroke-width:0.60714287"
       inkscape:connector-curvature="0"
       sodipodi:nodetypes="ccccc" />
  </g>
</svg>
