<?xml version="1.0" encoding="UTF-8" standalone="no"?>
<svg
   xmlns:dc="http://purl.org/dc/elements/1.1/"
   xmlns:cc="http://creativecommons.org/ns#"
   xmlns:rdf="http://www.w3.org/1999/02/22-rdf-syntax-ns#"
   xmlns:svg="http://www.w3.org/2000/svg"
   xmlns="http://www.w3.org/2000/svg"
   xmlns:xlink="http://www.w3.org/1999/xlink"
   xmlns:sodipodi="http://sodipodi.sourceforge.net/DTD/sodipodi-0.dtd"
   xmlns:inkscape="http://www.inkscape.org/namespaces/inkscape"
   viewBox="0 0 24 24"
   version="1.1"
   id="svg20"
   sodipodi:docname="lc_beziersymmetric.svg"
   inkscape:export-filename="/home/rizmut/Dokumen/Rizmut/Github/libreoffice-style-sukapura/images_sukapura/cmd/lc_beziersymmetric.png"
   inkscape:export-xdpi="96"
   inkscape:export-ydpi="96"
   inkscape:version="0.92.4 (unknown)">
  <metadata
     id="metadata26">
    <rdf:RDF>
      <cc:Work
         rdf:about="">
        <dc:format>image/svg+xml</dc:format>
        <dc:type
           rdf:resource="http://purl.org/dc/dcmitype/StillImage" />
      </cc:Work>
    </rdf:RDF>
  </metadata>
  <defs
     id="defs24">
    <linearGradient
       inkscape:collect="always"
       xlink:href="#a"
       id="linearGradient867"
       x1="2"
       y1="4.5"
       x2="22"
       y2="4.5"
       gradientUnits="userSpaceOnUse" />
    <linearGradient
       inkscape:collect="always"
       xlink:href="#a"
       id="linearGradient883"
       x1="10"
       y1="5"
       x2="10"
       y2="4"
       gradientUnits="userSpaceOnUse" />
    <linearGradient
       inkscape:collect="always"
       xlink:href="#a"
       id="linearGradient885"
       gradientUnits="userSpaceOnUse"
       x1="3.797729"
       y1="6.5853658"
       x2="4.1665273"
       y2="2.1989067" />
    <linearGradient
       inkscape:collect="always"
       xlink:href="#a"
       id="linearGradient887"
       gradientUnits="userSpaceOnUse"
       x1="4.4449115"
       y1="6.6572747"
       x2="4.8137097"
       y2="2.4865434" />
  </defs>
  <sodipodi:namedview
     pagecolor="#ffffff"
     bordercolor="#666666"
     borderopacity="1"
     objecttolerance="10"
     gridtolerance="10"
     guidetolerance="10"
     inkscape:pageopacity="0"
     inkscape:pageshadow="2"
     inkscape:window-width="1366"
     inkscape:window-height="706"
     id="namedview22"
     showgrid="false"
     inkscape:zoom="6.9532167"
     inkscape:cx="31.858743"
     inkscape:cy="3.0572753"
     inkscape:window-x="0"
     inkscape:window-y="0"
     inkscape:window-maximized="1"
     inkscape:current-layer="svg20" />
  <linearGradient
     id="a"
     gradientTransform="matrix(.26458333 0 0 .26458333 101.6 307.58333)"
     gradientUnits="userSpaceOnUse"
     x1="18.5"
     x2="18.5"
     y1="23"
     y2="14.5">
    <stop
       offset="0"
       stop-color="#d70015"
       id="stop2" />
    <stop
       offset="1"
       stop-color="#ff453a"
       id="stop4" />
  </linearGradient>
  <linearGradient
     id="b"
     gradientUnits="userSpaceOnUse"
     x1="11.745763"
     x2="11.949153"
     xlink:href="#a"
     y1="7.949153"
     y2="2.152542" />
  <linearGradient
     id="c"
     gradientUnits="userSpaceOnUse"
     x1="14"
     x2="14"
     xlink:href="#a"
     y1="5"
     y2="4.267578" />
  <linearGradient
     id="d"
     gradientUnits="userSpaceOnUse"
     x1="12.059322"
     x2="11.940678"
     y1="21.981247"
     y2="4.591416">
    <stop
       offset="0"
       stop-color="#0040dd"
       id="stop9" />
    <stop
       offset="1"
       stop-color="#0a84ff"
       id="stop11" />
  </linearGradient>
  <path
     d="m10 4.2675781c-4.2837632 1.7584283-7.5 9.0228759-7.5 17.7324219h1.1875c0-7.947696 2.6895231-14.5976154 6.3125-16.4238281zm4 0v1.3085938c3.622977 1.8262127 6.3125 8.4761321 6.3125 16.4238281h1.1875c0-8.709546-3.216237-15.9739936-7.5-17.7324219z"
     fill="url(#d)"
     id="path16" />
  <path
     d="m10 2c-.554 0-1 .446-1 1v4c0 .554.446 1 1 1h4c.554 0 1-.446 1-1v-4c0-.554-.446-1-1-1zm0 1h4v4h-4z"
     fill="url(#b)"
     id="path18" />
  <path
     inkscape:connector-curvature="0"
     style="fill:url(#linearGradient883);stroke:none;fill-opacity:1"
     d="M 5.9121094,4 A 1.5,1.5 0 0 1 6,4.5 1.5,1.5 0 0 1 5.9121094,5 H 10 V 4 Z M 14,4 v 1 h 4.087891 A 1.5,1.5 0 0 1 18,4.5 1.5,1.5 0 0 1 18.087891,4 Z"
     id="path2" />
  <g
     style="fill:none;stroke:url(#linearGradient867);stroke-linecap:round;stroke-linejoin:round"
     id="g12">
    <path
       style="stroke:url(#linearGradient887)"
       d="m 6.5,4.5 a 2,2 0 0 1 -2,2 2,2 0 0 1 -2,-2 2,2 0 0 1 2,-2 2,2 0 0 1 2,2 z"
       id="circle8" />
    <path
       style="stroke:url(#linearGradient885)"
       d="m 21.5,4.5 a 2,2 0 0 1 -2,2 2,2 0 0 1 -2,-2 2,2 0 0 1 2,-2 2,2 0 0 1 2,2 z"
       id="circle10" />
  </g>
</svg>
