<svg viewBox="0 0 16 16" xmlns="http://www.w3.org/2000/svg" xmlns:xlink="http://www.w3.org/1999/xlink"><linearGradient id="a" gradientUnits="userSpaceOnUse" x1="8" x2="8" y1="13" y2="3"><stop offset="0" stop-color="#fff"/><stop offset="1" stop-color="#fff" stop-opacity="0"/></linearGradient><linearGradient id="b" gradientUnits="userSpaceOnUse" x1="-11.40678" x2="-11.457627" y1="13.355932" y2="-.627119"><stop offset="0" stop-color="#e9e9e9"/><stop offset=".2857143" stop-color="#f2f2f2"/><stop offset="1" stop-color="#fbfbfb"/></linearGradient>




     /&amp;amp;amp;gt;
 <path d="m8 1c3.865993 0 7 3.1340068 7 7 0 3.865993-3.134007 7-7 7-3.8659932 0-7-3.134007-7-7 0-3.8659932 3.1340068-7 7-7z" fill="url(#b)"/><path d="m8 0a8 8 0 0 0 -8 8 8 8 0 0 0 8 8 8 8 0 0 0 8-8 8 8 0 0 0 -8-8zm0 1a7 7 0 0 1 7 7 7 7 0 0 1 -7 7 7 7 0 0 1 -7-7 7 7 0 0 1 7-7z" fill="#98989d"/><path d="m4.5 3c-.8350007 0-1.5.7150749-1.5 1.5195312v6.9609378c0 .804456.665 1.519531 1.5 1.519531h7c.835 0 1.5-.715075 1.5-1.519531v-6.9609378c0-.8044563-.664999-1.5195312-1.5-1.5195312z" fill="url(#a)"/><rect fill="#69696e" height="8" rx=".5" ry=".519282" width="8" x="4" y="4"/></svg>