<?xml version="1.0" encoding="UTF-8" standalone="no"?>
<svg
   xmlns:dc="http://purl.org/dc/elements/1.1/"
   xmlns:cc="http://creativecommons.org/ns#"
   xmlns:rdf="http://www.w3.org/1999/02/22-rdf-syntax-ns#"
   xmlns:svg="http://www.w3.org/2000/svg"
   xmlns="http://www.w3.org/2000/svg"
   xmlns:xlink="http://www.w3.org/1999/xlink"
   xmlns:sodipodi="http://sodipodi.sourceforge.net/DTD/sodipodi-0.dtd"
   xmlns:inkscape="http://www.inkscape.org/namespaces/inkscape"
   viewBox="0 0 24 24"
   version="1.1"
   id="svg1198"
   sodipodi:docname="lc_bulletsandnumberingdialog.svg"
   inkscape:version="0.92.3 (2405546, 2018-03-11)">
  <metadata
     id="metadata1204">
    <rdf:RDF>
      <cc:Work
         rdf:about="">
        <dc:format>image/svg+xml</dc:format>
        <dc:type
           rdf:resource="http://purl.org/dc/dcmitype/StillImage" />
      </cc:Work>
    </rdf:RDF>
  </metadata>
  <defs
     id="defs1202" />
  <sodipodi:namedview
     pagecolor="#ffffff"
     bordercolor="#666666"
     borderopacity="1"
     objecttolerance="10"
     gridtolerance="10"
     guidetolerance="10"
     inkscape:pageopacity="0"
     inkscape:pageshadow="2"
     inkscape:window-width="1366"
     inkscape:window-height="716"
     id="namedview1200"
     showgrid="false"
     inkscape:zoom="9.8333333"
     inkscape:cx="-6.7627119"
     inkscape:cy="12"
     inkscape:window-x="-8"
     inkscape:window-y="-8"
     inkscape:window-maximized="1"
     inkscape:current-layer="svg1198" />
  <linearGradient
     id="a"
     gradientUnits="userSpaceOnUse"
     x1="3.627119"
     x2="3.576271"
     xlink:href="#c"
     y1="12.381356"
     y2="9.940678" />
  <linearGradient
     id="b"
     gradientUnits="userSpaceOnUse"
     x1="3.830509"
     x2="3.677966"
     xlink:href="#c"
     y1="4.90678"
     y2="2.059322" />
  <linearGradient
     id="c"
     gradientTransform="translate(-25.830508 -3.59322)"
     gradientUnits="userSpaceOnUse"
     x1="14"
     x2="13.79661"
     y1="22"
     y2="2.135593">
    <stop
       offset="0"
       stop-color="#0040dd"
       id="stop1114" />
    <stop
       offset="1"
       stop-color="#0a84ff"
       id="stop1116" />
  </linearGradient>
  <linearGradient
     id="d"
     gradientUnits="userSpaceOnUse"
     x1="13"
     x2="13"
     y1="23"
     y2="5">
    <stop
       offset="0"
       stop-color="#f7f7f7"
       id="stop1119" />
    <stop
       offset=".22222222"
       stop-color="#fff"
       id="stop1121" />
    <stop
       offset=".83333331"
       stop-color="#fff"
       id="stop1123" />
    <stop
       offset="1"
       stop-color="#f7f7f7"
       id="stop1125" />
  </linearGradient>
  <linearGradient
     id="e"
     gradientUnits="userSpaceOnUse"
     x1="19.5"
     x2="19.5"
     y1="21.500001"
     y2="14.5">
    <stop
       offset="0"
       stop-color="#cfcfcf"
       id="stop1128" />
    <stop
       offset=".07142864"
       stop-color="#e7e7e7"
       id="stop1130" />
    <stop
       offset=".07142864"
       stop-color="#fff"
       id="stop1132" />
    <stop
       offset=".5"
       stop-color="#f3f3f3"
       id="stop1134" />
    <stop
       offset=".93333334"
       stop-color="#f9f9f9"
       id="stop1136" />
    <stop
       offset=".93333334"
       stop-color="#fcfcfc"
       id="stop1138" />
    <stop
       offset="1"
       stop-color="#fff"
       id="stop1140" />
  </linearGradient>
  <linearGradient
     id="f"
     gradientUnits="userSpaceOnUse"
     x1="19.428571"
     x2="19.428571"
     y1="18.25"
     y2="21.285715">
    <stop
       offset="0"
       stop-color="#f8f8f8"
       id="stop1143" />
    <stop
       offset="1"
       stop-color="#fff"
       id="stop1145" />
  </linearGradient>
  <g
     fill="#69696e"
     transform="scale(-1 1)"
     id="g1160"
     style="fill:#4b4b4f;fill-opacity:1">
    <rect
       height="1"
       ry=".5"
       width="14.999998"
       x="-22"
       y="2"
       id="rect1148"
       style="fill:#4b4b4f;fill-opacity:1" />
    <rect
       height="1"
       ry=".392136"
       width="15.000005"
       x="-22"
       y="10"
       id="rect1150"
       style="fill:#4b4b4f;fill-opacity:1" />
    <rect
       height="1"
       ry=".436441"
       width="15.000001"
       x="-22"
       y="18"
       id="rect1152"
       style="fill:#4b4b4f;fill-opacity:1" />
    <rect
       height="1"
       ry=".5"
       width="8.999999"
       x="-16"
       y="21"
       id="rect1154"
       style="fill:#4b4b4f;fill-opacity:1" />
    <rect
       height="1"
       ry=".5"
       width="8.999999"
       x="-16"
       y="13"
       id="rect1156"
       style="fill:#4b4b4f;fill-opacity:1" />
    <rect
       height="1"
       ry=".5"
       width="9.000002"
       x="-16"
       y="5"
       id="rect1158"
       style="fill:#4b4b4f;fill-opacity:1" />
  </g>
  <g
     fill="#e9e9e9"
     fill-opacity=".992157"
     transform="matrix(-1 0 0 1 0 1)"
     id="g1174">
    <rect
       height="1"
       ry=".5"
       width="14.999998"
       x="-22"
       y="2"
       id="rect1162" />
    <rect
       height="1"
       ry=".392136"
       width="15.000005"
       x="-22"
       y="10"
       id="rect1164" />
    <rect
       height="1"
       ry=".436441"
       width="15.000001"
       x="-22"
       y="18"
       id="rect1166" />
    <rect
       height="1"
       ry=".5"
       width="8.999999"
       x="-16"
       y="21"
       id="rect1168" />
    <rect
       height="1"
       ry=".5"
       width="8.999999"
       x="-16"
       y="13"
       id="rect1170" />
    <rect
       height="1"
       ry=".5"
       width="9.000002"
       x="-16"
       y="5"
       id="rect1172" />
  </g>
  <g
     transform="translate(-1)"
     id="g1190">
    <path
       d="m16 13h7v10h-7z"
       fill="url(#d)"
       id="path1176" />
    <path
       d="m16 12c-.554 0-1 .446-1 1v10c0 .554.446 1 1 1h7c.554 0 1-.446 1-1v-10c0-.554-.446-1-1-1zm0 1h7v10h-7z"
       fill="#848489"
       id="path1178" />
    <g
       stroke-width=".607143"
       id="g1188">
      <path
         d="m17 14h5v8h-5z"
         fill="#626262"
         id="path1180" />
      <path
         d="m17.5 14.5h4v7h-4z"
         fill="url(#e)"
         id="path1182" />
      <path
         d="m18 16h3v2h-3z"
         fill="#dadada"
         id="path1184" />
      <path
         d="m18 18h3v3h-3z"
         fill="url(#f)"
         id="path1186" />
    </g>
  </g>
  <g
     fill="url(#a)"
     id="g1196">
    <path
       d="m5 3.5a1.5 1.5 0 0 1 -1.5 1.5 1.5 1.5 0 0 1 -1.5-1.5 1.5 1.5 0 0 1 1.5-1.5 1.5 1.5 0 0 1 1.5 1.5z"
       fill="url(#b)"
       id="path1192" />
    <path
       d="m5 11.5a1.5 1.5 0 0 1 -1.5 1.5 1.5 1.5 0 0 1 -1.5-1.5 1.5 1.5 0 0 1 1.5-1.5 1.5 1.5 0 0 1 1.5 1.5z"
       fill="url(#a)"
       id="path1194" />
  </g>
</svg>
