<?xml version="1.0" encoding="UTF-8" standalone="no"?>
<svg
   xmlns:dc="http://purl.org/dc/elements/1.1/"
   xmlns:cc="http://creativecommons.org/ns#"
   xmlns:rdf="http://www.w3.org/1999/02/22-rdf-syntax-ns#"
   xmlns:svg="http://www.w3.org/2000/svg"
   xmlns="http://www.w3.org/2000/svg"
   xmlns:sodipodi="http://sodipodi.sourceforge.net/DTD/sodipodi-0.dtd"
   xmlns:inkscape="http://www.inkscape.org/namespaces/inkscape"
   viewBox="0 0 24 24"
   version="1.1"
   id="svg16"
   sodipodi:docname="lc_bmpmask.svg"
   inkscape:version="0.92.3 (2405546, 2018-03-11)">
  <metadata
     id="metadata22">
    <rdf:RDF>
      <cc:Work
         rdf:about="">
        <dc:format>image/svg+xml</dc:format>
        <dc:type
           rdf:resource="http://purl.org/dc/dcmitype/StillImage" />
        <dc:title></dc:title>
      </cc:Work>
    </rdf:RDF>
  </metadata>
  <defs
     id="defs20" />
  <sodipodi:namedview
     pagecolor="#ffffff"
     bordercolor="#666666"
     borderopacity="1"
     objecttolerance="10"
     gridtolerance="10"
     guidetolerance="10"
     inkscape:pageopacity="0"
     inkscape:pageshadow="2"
     inkscape:window-width="1366"
     inkscape:window-height="716"
     id="namedview18"
     showgrid="false"
     inkscape:zoom="6.9532167"
     inkscape:cx="-17.893854"
     inkscape:cy="11.250422"
     inkscape:window-x="-8"
     inkscape:window-y="-8"
     inkscape:window-maximized="1"
     inkscape:current-layer="svg16" />
  <path
     d="m12 3c-4.9705627 0-9 4.0294373-9 9 0 4.970563 4.0294373 9 9 9 .94039 0 1.91977-.03537 3.044922-.371094.631082-.311201.927812-.73617.982422-1.564453.04044-.613349-.185321-1.33877-.445313-2.179687s-.543091-1.797923-.488281-2.884766c.03988-.790717.575375-1.536269 1.447266-1.748047.871891-.211777 1.994283.021 3.416015.802735.486157.281574.758175.39657.859375-.898438.02713-.91049.05434-1.888574-.220703-2.8300781-1.138735-3.6648919-4.556213-6.3261719-8.595703-6.3261719zm0 13c1.104569 0 2 .895431 2 2s-.895431 2-2 2-2-.895431-2-2 .895431-2 2-2z"
     fill="#fff"
     id="path2"
     style="fill:#e2b96c;fill-opacity:1" />
  <path
     d="m12 16a2 2 0 0 0 -2 2 2 2 0 0 0 2 2 2 2 0 0 0 2-2 2 2 0 0 0 -2-2zm0 1a1 1 0 0 1 1 1 1 1 0 0 1 -1 1 1 1 0 0 1 -1-1 1 1 0 0 1 1-1z"
     fill="#808080"
     id="path4"
     style="fill:#bc974c;fill-opacity:1" />
  <path
     d="m12 2c-5.5228475 0-10 4.4771525-10 10 0 5.522847 4.4771525 10 10 10 1.173607 0 2.52429-.01826 3.488281-.474609.899559-.443594 1.464864-1.298697 1.53711-2.394532.05844-.886477-.232209-1.712774-.488282-2.541015s-.489813-1.656605-.445312-2.539063c.0221-.438185.190376-.705897.685547-.826172.49517-.120274 1.404293-.005 2.699218.707032.320994.176496.632933.27357.947266.257812.314333-.01576.60831-.164867.806641-.371094.396662-.412452.514762-.970033.580078-1.550781.111293-1.042978-.059685-2.162225-.228511-3.1347681-1.232681-4.1253554-5.055806-7.1328099-9.582036-7.1328099zm0 1c4.03949 0 7.456968 2.66128 8.595703 6.3261719.275039.9415041.2478 1.9195881.220669 2.8300781-.05427.482558-.201669.8596-.30664.96875-.05249.05457-.0683.06307-.134766.06641-.06646.0033-.20521-.01973-.417969-.136718-1.421732-.781732-2.544124-1.014512-3.416015-.802735-.871891.211778-1.407391.95733-1.447266 1.748047-.05481 1.086843.228289 2.043849.488281 2.884766s.485749 1.566338.445313 2.179687c-.05461.828283-.35134 1.253252-.982422 1.564453-1.125152.335719-2.104498.37109-3.044888.37109-4.9705627 0-9-4.029437-9-9 0-4.9705627 4.0294373-9 9-9z"
     fill="#808080"
     id="path6"
     style="fill:#bc974c;fill-opacity:1" />
  <circle
     cx="8.5"
     cy="7.5"
     fill="#e68497"
     r="1.5"
     id="circle8"
     style="fill:#ff2d55;fill-opacity:1" />
  <circle
     cx="13.5"
     cy="6.5"
     fill="#76a797"
     r="1.5"
     id="circle10"
     style="fill:#28cd41;fill-opacity:1" />
  <circle
     cx="17.5"
     cy="9.5"
     fill="#eac282"
     r="1.5"
     id="circle12"
     style="fill:#ffcc00;fill-opacity:1" />
  <circle
     cx="6.5"
     cy="12.5"
     fill="#4d82b8"
     r="1.5"
     id="circle14"
     style="fill:#007aff;fill-opacity:1" />
</svg>
