<?xml version="1.0" encoding="UTF-8" standalone="no"?>
<svg
   xmlns:dc="http://purl.org/dc/elements/1.1/"
   xmlns:cc="http://creativecommons.org/ns#"
   xmlns:rdf="http://www.w3.org/1999/02/22-rdf-syntax-ns#"
   xmlns:svg="http://www.w3.org/2000/svg"
   xmlns="http://www.w3.org/2000/svg"
   xmlns:sodipodi="http://sodipodi.sourceforge.net/DTD/sodipodi-0.dtd"
   xmlns:inkscape="http://www.inkscape.org/namespaces/inkscape"
   viewBox="0 0 24 24"
   version="1.1"
   id="svg5059"
   sodipodi:docname="lc_bold.svg"
   inkscape:version="0.92.3 (2405546, 2018-03-11)">
  <metadata
     id="metadata5065">
    <rdf:RDF>
      <cc:Work
         rdf:about="">
        <dc:format>image/svg+xml</dc:format>
        <dc:type
           rdf:resource="http://purl.org/dc/dcmitype/StillImage" />
      </cc:Work>
    </rdf:RDF>
  </metadata>
  <defs
     id="defs5063" />
  <sodipodi:namedview
     pagecolor="#ffffff"
     bordercolor="#666666"
     borderopacity="1"
     objecttolerance="10"
     gridtolerance="10"
     guidetolerance="10"
     inkscape:pageopacity="0"
     inkscape:pageshadow="2"
     inkscape:window-width="1366"
     inkscape:window-height="716"
     id="namedview5061"
     showgrid="true"
     inkscape:zoom="6.9532167"
     inkscape:cx="-42.148862"
     inkscape:cy="15.319121"
     inkscape:window-x="-8"
     inkscape:window-y="-8"
     inkscape:window-maximized="1"
     inkscape:current-layer="svg5059">
    <inkscape:grid
       type="xygrid"
       id="grid5610" />
  </sodipodi:namedview>
  <g
     aria-label="B"
     style="font-size:28.15752602px;font-family:sans-serif;letter-spacing:0;word-spacing:0;fill:#4b4b4f;fill-opacity:1;stroke-width:0.70393801"
     id="text5057">
    <path
       d="M 5.0838511,21.903181 V 1.9969311 h 6.7265629 q 3.513671,0 5.482421,1.3671875 1.96875,1.3671875 1.96875,4.0878906 0,1.3808594 -0.738281,2.4746094 -0.724609,1.0800784 -2.11914,1.6269534 1.791015,0.382812 2.679687,1.640625 0.902344,1.257812 0.902344,2.912109 0,2.857422 -1.886719,4.333984 -1.886719,1.462891 -5.345703,1.462891 z m 3.9921875,-8.804687 v 5.742187 h 3.6777344 q 1.585937,0 2.419922,-0.683594 0.833984,-0.697265 0.833984,-2.050781 0,-1.462891 -0.710937,-2.228516 -0.710938,-0.779296 -2.242188,-0.779296 z m 0,-2.761719 h 2.8710934 q 1.59961,0 2.460938,-0.6562502 0.861328,-0.65625 0.861328,-1.9140625 0,-1.3808593 -0.875,-2.0371093 -0.861328,-0.65625 -2.583984,-0.65625 H 9.0760386 Z"
       style="font-weight:bold;font-size:28px;font-family:Roboto;fill:#4b4b4f;fill-opacity:1;stroke-width:0.70393801"
       id="path16370" />
  </g>
</svg>
