<?xml version="1.0" encoding="UTF-8" standalone="no"?>
<svg
   xmlns:dc="http://purl.org/dc/elements/1.1/"
   xmlns:cc="http://creativecommons.org/ns#"
   xmlns:rdf="http://www.w3.org/1999/02/22-rdf-syntax-ns#"
   xmlns:svg="http://www.w3.org/2000/svg"
   xmlns="http://www.w3.org/2000/svg"
   xmlns:sodipodi="http://sodipodi.sourceforge.net/DTD/sodipodi-0.dtd"
   xmlns:inkscape="http://www.inkscape.org/namespaces/inkscape"
   viewBox="0 0 24 24"
   version="1.1"
   id="svg14"
   sodipodi:docname="lc_backcolor.svg"
   inkscape:export-filename="/home/rizmut/Dokumen/Rizmut/Github/libreoffice-style-colibrex/images_colibrex/cmd/lc_backcolor.png"
   inkscape:export-xdpi="96"
   inkscape:export-ydpi="96"
   inkscape:version="0.92.3 (unknown)">
  <metadata
     id="metadata20">
    <rdf:RDF>
      <cc:Work
         rdf:about="">
        <dc:format>image/svg+xml</dc:format>
        <dc:type
           rdf:resource="http://purl.org/dc/dcmitype/StillImage" />
      </cc:Work>
    </rdf:RDF>
  </metadata>
  <defs
     id="defs18">
    <clipPath
       clipPathUnits="userSpaceOnUse"
       id="clipPath840">
      <rect
         style="opacity:1;fill:#69696e;fill-opacity:1;stroke:#1ec337;stroke-width:7;stroke-miterlimit:4;stroke-dasharray:none;stroke-opacity:1"
         id="rect842"
         width="48.32296"
         height="44.296043"
         x="133.46341"
         y="223.04457" />
    </clipPath>
  </defs>
  <sodipodi:namedview
     pagecolor="#ffffff"
     bordercolor="#666666"
     borderopacity="1"
     objecttolerance="10"
     gridtolerance="10"
     guidetolerance="10"
     inkscape:pageopacity="0"
     inkscape:pageshadow="2"
     inkscape:window-width="1366"
     inkscape:window-height="706"
     id="namedview16"
     showgrid="false"
     inkscape:zoom="55.625733"
     inkscape:cx="9.0601972"
     inkscape:cy="7.9963956"
     inkscape:window-x="0"
     inkscape:window-y="0"
     inkscape:window-maximized="1"
     inkscape:current-layer="svg14" />
  <path
     d="m2 1c-.554 0-1 .446-1 1v10c0 .554.446 1 1 1h8.378906l5.546875-5.5410156c.155441-.1558722.357966-.2561053.576172-.2851563.032665-.2084602.130426-.4012479.279297-.5507812l.21875-.21875v-4.4042969c0-.554-.446-1-1-1z"
     fill="#eac282"
     id="path2"
     style="fill:#fbe35a;fill-opacity:1" />
  <path
     d="m7.0754431 11.896694q-.2551898 0-.3898733-.06887-.1346836-.07576-.2126582-.296144l-.1559494-.454545q-.2693671.227272-.5174685.399449-.2481012.172176-.5174683.289256-.2622785.11708-.5670886.172177-.2977215.06198-.6663292.06198-.4536708 0-.829367-.117079-.3756962-.123968-.6521519-.358128-.2693672-.234159-.4182279-.578512-.1488607-.35124-.1488607-.805785 0-.3787882.198481-.7575761.198481-.378785.6734177-.6818152.4820253-.3099174 1.2759494-.509642.8010127-.2066114 1.9918987-.2341597v-.3650137q0-.661157-.2835442-.9710744-.2835444-.3099174-.8151899-.3099174-.3969621 0-.6592406.089531-.2551898.089531-.4536708.1997245-.1984811.1033057-.3686077.1928375-.1701266.089531-.3827848.089531-.1843037 0-.3189873-.089531-.127595-.0964181-.2055696-.227272l-.326076-.5509643q.6096202-.5509641 1.3468355-.8195592.7372152-.268595 1.5949367-.268595.6167089 0 1.1058228.1997245.4891139.1928375.8293671.5509642.3402531.3512396.5174683.8402204.1772153.4889807.1772153 1.0743802v4.3044077zm-2.4668354-1.088154q.4820253 0 .8293671-.16529.3544303-.172175.7017721-.523416v-1.101928q-.7017721.0275483-1.1696202.11708-.4607596.0826446-.7372152.2203856-.2764557.1308541-.3969621.3099173-.1134177.1790634-.1134177.3856751 0 .413223.2339241.585399.2410126.172177.6521519.172177z"
     fill="#fff"
     id="path4" />
  <path
     d="m9.5351562 2v9.896484h1.1972658c.113417 0 .206457-.022446.277344-.068359.070881-.050505.118944-.137751.142578-.261719l.076172-.441406c.113417.133149.229513.255041.347656.365234.056469.048534.124087.084239.185547.126954l.953125-.951172c-.044149.003097-.085117.011718-.13086.011718-.236287 0-.460036-.043623-.667968-.130859-.207933-.087236-.4005-.239283-.580078-.455078v-3.0156251c.203207-.247934.416561-.435895.638671-.5644531.22211-.1331498.48271-.2011719.785157-.2011719.222109 0 .419717.0391342.589843.1171875.174853.0780532.318224.1999451.431641.3652344.118145.1652891.208099.378917.269531.640625.061434.2571166.091797.5701906.091797.9375 0 .372516-.034255.689342-.095703.9648437l1.882813-1.8808594c-.029808-.1883675-.062419-.3738637-.113282-.5449219-.122869-.4132231-.298555-.7634781-.52539-1.0527343-.226836-.2938476-.500916-.5196747-.822266-.6757813-.32135-.1561065-.682296-.234375-1.083984-.234375-.420591 0-.799239.0859788-1.134766.2558594-.335528.1652893-.63997.3846742-.914062.6601562v-3.8632812z"
     fill="#fff"
     id="path6" />
  <g
     fill="#696969"
     transform="matrix(1.1539234 0 0 1.1539234 -4.693158 -8.694162)"
     id="g12">
    <path
       d="m 18.480469,14.611328 -4.824259,5.038725 2.855469,2.72132 4.804727,-4.928014 z"
       id="path8"
       style="fill:#fbe35a;fill-opacity:1;stroke:#f5c200;stroke-opacity:1"
       inkscape:connector-curvature="0"
       sodipodi:nodetypes="ccccc" />
    <path
       d="m 20.666016,12.707031 c -0.189562,0 -0.378184,0.07172 -0.523438,0.216797 l -1.673828,1.669922 2.847656,2.849609 1.710938,-1.638672 c 0.290506,-0.290127 0.290506,-0.756747 0,-1.046875 l -1.835938,-1.833984 c -0.145254,-0.145064 -0.335828,-0.216797 -0.52539,-0.216797 z"
       id="path10"
       style="fill:#fbe35a;fill-opacity:1;stroke:#f5c200;stroke-opacity:1"
       inkscape:connector-curvature="0"
       sodipodi:nodetypes="sccccccs" />
    <path
       style="fill:#98989d;fill-opacity:1;stroke:#616165;stroke-opacity:1"
       id="path844"
       d="m 12.655166,20.882571 -2.21602,2.98461 1,0.631356 3.60411,-1.229829 z"
       inkscape:connector-curvature="0"
       sodipodi:nodetypes="ccccc" />
  </g>
</svg>
