<svg viewBox="0 0 24 24" xmlns="http://www.w3.org/2000/svg" xmlns:xlink="http://www.w3.org/1999/xlink"><linearGradient id="a" gradientTransform="matrix(.26458333 0 0 .26458333 101.6 307.58333)" gradientUnits="userSpaceOnUse" x1="18.5" x2="18.5" y1="23" y2="14.5"><stop offset="0" stop-color="#d70015"/><stop offset="1" stop-color="#ff453a"/></linearGradient><linearGradient id="b" gradientUnits="userSpaceOnUse" x1="11.745763" x2="11.949153" xlink:href="#a" y1="7.949153" y2="2.152542"/><linearGradient id="c" gradientUnits="userSpaceOnUse" x1="14" x2="14" xlink:href="#a" y1="5" y2="4.267578"/><linearGradient id="d" gradientUnits="userSpaceOnUse" x1="12.059322" x2="11.940678" y1="21.981247" y2="4.591416"><stop offset="0" stop-color="#0040dd"/><stop offset="1" stop-color="#0a84ff"/></linearGradient><path d="m3.5 4c-.277 0-.5.223-.5.5s.223.5.5.5h6.5v-1zm10.5 0v1h6.5c.277 0 .5-.223.5-.5s-.223-.5-.5-.5z" fill="url(#c)"/><path d="m10 4.2675781c-4.2837632 1.7584283-7.5 9.0228759-7.5 17.7324219h1.1875c0-7.947696 2.6895231-14.5976154 6.3125-16.4238281zm4 0v1.3085938c3.622977 1.8262127 6.3125 8.4761321 6.3125 16.4238281h1.1875c0-8.709546-3.216237-15.9739936-7.5-17.7324219z" fill="url(#d)"/><path d="m10 2c-.554 0-1 .446-1 1v4c0 .554.446 1 1 1h4c.554 0 1-.446 1-1v-4c0-.554-.446-1-1-1zm0 1h4v4h-4z" fill="url(#b)"/></svg>