<?xml version="1.0" encoding="UTF-8" standalone="no"?>
<svg
   xmlns:dc="http://purl.org/dc/elements/1.1/"
   xmlns:cc="http://creativecommons.org/ns#"
   xmlns:rdf="http://www.w3.org/1999/02/22-rdf-syntax-ns#"
   xmlns:svg="http://www.w3.org/2000/svg"
   xmlns="http://www.w3.org/2000/svg"
   xmlns:sodipodi="http://sodipodi.sourceforge.net/DTD/sodipodi-0.dtd"
   xmlns:inkscape="http://www.inkscape.org/namespaces/inkscape"
   viewBox="0 0 24 24"
   version="1.1"
   id="svg42"
   sodipodi:docname="lc_crop.svg"
   inkscape:version="0.92.3 (2405546, 2018-03-11)">
  <metadata
     id="metadata48">
    <rdf:RDF>
      <cc:Work
         rdf:about="">
        <dc:format>image/svg+xml</dc:format>
        <dc:type
           rdf:resource="http://purl.org/dc/dcmitype/StillImage" />
      </cc:Work>
    </rdf:RDF>
  </metadata>
  <defs
     id="defs46" />
  <sodipodi:namedview
     pagecolor="#ffffff"
     bordercolor="#666666"
     borderopacity="1"
     objecttolerance="10"
     gridtolerance="10"
     guidetolerance="10"
     inkscape:pageopacity="0"
     inkscape:pageshadow="2"
     inkscape:window-width="1366"
     inkscape:window-height="716"
     id="namedview44"
     showgrid="false"
     inkscape:zoom="9.8333333"
     inkscape:cx="-6.7627119"
     inkscape:cy="12"
     inkscape:window-x="-8"
     inkscape:window-y="-8"
     inkscape:window-maximized="1"
     inkscape:current-layer="svg42" />
  <path
     d="m3 3v12h10v-1c0-.554.446-1 1-1v-10z"
     fill="#fff"
     id="path2" />
  <path
     d="m11.5 8-3.5 3.5-1-1-3.5332031 2.402344.0332031.597656h9v-1h1v-.5z"
     fill="#32d74b"
     fill-rule="evenodd"
     stroke="#28cd41"
     id="path4" />
  <g
     fill="#69696e"
     id="g22">
    <path
       d="m2 2v13h11v-1h-10v-11h11v10h1v-11z"
       fill="#69696e"
       id="path6" />
    <circle
       cx="6.5"
       cy="6.5"
       fill="#ffd60a"
       r="2.005997"
       stroke="#fc0"
       id="circle8" />
    <g
       fill="#69696e"
       id="g20">
      <rect
         height="1"
         ry=".5"
         width="3"
         x="19"
         y="2"
         id="rect10" />
      <rect
         height="1"
         ry=".5"
         width="3"
         x="15"
         y="2"
         id="rect12" />
      <rect
         height="1"
         ry=".5"
         width="3"
         x="7"
         y="21"
         id="rect14" />
      <rect
         height="1"
         ry=".5"
         width="3"
         x="2"
         y="21"
         id="rect16" />
      <rect
         height="1"
         ry=".5"
         width="3"
         x="18"
         y="21"
         id="rect18" />
    </g>
  </g>
  <rect
     height="2"
     ry="1"
     width="10"
     x="12"
     y="20"
     id="rect24"
     style="fill:#4b4b4f;fill-opacity:1" />
  <rect
     height="2"
     ry="1"
     transform="rotate(90)"
     width="10"
     x="12"
     y="-22"
     id="rect26"
     style="fill:#4b4b4f;fill-opacity:1" />
  <path
     d="m14.875 14c-.484284 0-.875.390716-.875.875v.25c0 .484284.390716.875.875.875h4.125v-2zm5.125 0v2h3.125c.484284 0 .875-.390716.875-.875v-.25c0-.484284-.390716-.875-.875-.875z"
     id="path28"
     style="fill:#4b4b4f;fill-opacity:1" />
  <path
     d="m14.982422 14c-.544041 0-.982422.438381-.982422.982422v4.017578h2v-4.017578c0-.544041-.438381-.982422-.982422-.982422zm-.982422 6v3.017578c0 .544041.438381.982422.982422.982422h.035156c.544041 0 .982422-.438381.982422-.982422v-3.017578z"
     id="path30"
     style="fill:#4b4b4f;fill-opacity:1" />
  <rect
     fill="#808080"
     height="3"
     ry=".5"
     width="1"
     x="2"
     y="19"
     id="rect32" />
  <rect
     fill="#808080"
     height="3"
     ry=".5"
     width="1"
     x="2"
     y="15"
     id="rect34" />
  <g
     fill="#69696e"
     id="g40">
    <rect
       height="3"
       ry=".5"
       width="1"
       x="21"
       y="7"
       id="rect36" />
    <rect
       height="3"
       ry=".5"
       width="1"
       x="21"
       y="2"
       id="rect38" />
  </g>
</svg>
