<?xml version="1.0" encoding="UTF-8" standalone="no"?>
<svg
   xmlns:dc="http://purl.org/dc/elements/1.1/"
   xmlns:cc="http://creativecommons.org/ns#"
   xmlns:rdf="http://www.w3.org/1999/02/22-rdf-syntax-ns#"
   xmlns:svg="http://www.w3.org/2000/svg"
   xmlns="http://www.w3.org/2000/svg"
   xmlns:xlink="http://www.w3.org/1999/xlink"
   xmlns:sodipodi="http://sodipodi.sourceforge.net/DTD/sodipodi-0.dtd"
   xmlns:inkscape="http://www.inkscape.org/namespaces/inkscape"
   viewBox="0 0 24 24"
   version="1.1"
   id="svg18"
   sodipodi:docname="lc_connectorcurvecircleend.svg"
   inkscape:version="0.92.3 (2405546, 2018-03-11)"
   inkscape:export-filename="D:\Rizmut\libreoffice-style-sukapura-master\images_sukapura\cmd\lc_connectorcurvearrowstart.png"
   inkscape:export-xdpi="96"
   inkscape:export-ydpi="96">
  <metadata
     id="metadata24">
    <rdf:RDF>
      <cc:Work
         rdf:about="">
        <dc:format>image/svg+xml</dc:format>
        <dc:type
           rdf:resource="http://purl.org/dc/dcmitype/StillImage" />
        <dc:title></dc:title>
      </cc:Work>
    </rdf:RDF>
  </metadata>
  <defs
     id="defs22">
    <linearGradient
       gradientTransform="translate(-29.694915,1.220339)"
       id="a-6"
       gradientUnits="userSpaceOnUse"
       x1="14"
       x2="13.79661"
       y1="22"
       y2="2.1355929">
      <stop
         offset="0"
         stop-color="#0040dd"
         id="stop2" />
      <stop
         offset="1"
         stop-color="#0a84ff"
         id="stop4" />
    </linearGradient>
    <linearGradient
       inkscape:collect="always"
       xlink:href="#a-6"
       id="linearGradient854"
       x1="19.033897"
       y1="20.805084"
       x2="18.991526"
       y2="17.194916"
       gradientUnits="userSpaceOnUse" />
    <linearGradient
       inkscape:collect="always"
       xlink:href="#a-6"
       id="linearGradient856"
       x1="5.1572747"
       y1="6.8696384"
       x2="4.9865432"
       y2="3.0584526"
       gradientUnits="userSpaceOnUse" />
    <linearGradient
       inkscape:collect="always"
       xlink:href="#a-6"
       id="linearGradient864"
       x1="13.525424"
       y1="19.533897"
       x2="13.355932"
       y2="5.237288"
       gradientUnits="userSpaceOnUse" />
    <linearGradient
       inkscape:collect="always"
       xlink:href="#a-6"
       id="linearGradient866"
       x1="13.525424"
       y1="19.533897"
       x2="13.355932"
       y2="5.237288"
       gradientUnits="userSpaceOnUse" />
    <linearGradient
       inkscape:collect="always"
       xlink:href="#a-6"
       id="linearGradient868"
       x1="13.525424"
       y1="19.533897"
       x2="13.355932"
       y2="5.237288"
       gradientUnits="userSpaceOnUse" />
    <linearGradient
       inkscape:collect="always"
       xlink:href="#a-6"
       id="linearGradient870"
       x1="13.525424"
       y1="19.533897"
       x2="13.355932"
       y2="5.237288"
       gradientUnits="userSpaceOnUse" />
    <linearGradient
       inkscape:collect="always"
       xlink:href="#a-6"
       id="linearGradient872"
       x1="13.525424"
       y1="19.533897"
       x2="13.355932"
       y2="5.237288"
       gradientUnits="userSpaceOnUse" />
    <linearGradient
       inkscape:collect="always"
       xlink:href="#a-6"
       id="linearGradient1427"
       x1="17"
       y1="19"
       x2="21"
       y2="19"
       gradientUnits="userSpaceOnUse" />
  </defs>
  <sodipodi:namedview
     pagecolor="#ffffff"
     bordercolor="#666666"
     borderopacity="1"
     objecttolerance="10"
     gridtolerance="10"
     guidetolerance="10"
     inkscape:pageopacity="0"
     inkscape:pageshadow="2"
     inkscape:window-width="1366"
     inkscape:window-height="716"
     id="namedview20"
     showgrid="false"
     inkscape:zoom="13.906433"
     inkscape:cx="14.997084"
     inkscape:cy="8.1798045"
     inkscape:window-x="-8"
     inkscape:window-y="-8"
     inkscape:window-maximized="1"
     inkscape:current-layer="g16" />
  <g
     fill="#4d82b8"
     id="g16">
    <path
       d="m6 5h12v1h-12z"
       id="path2"
       style="fill-opacity:1;fill:url(#linearGradient870)" />
    <path
       d="m6 19h12v1h-12z"
       id="path4"
       style="fill-opacity:1;fill:url(#linearGradient864)" />
    <path
       d="m6 12h12v1h-12z"
       id="path6"
       style="fill-opacity:1;fill:url(#linearGradient868)" />
    <path
       d="m18 5v1a3 3 0 0 1 3 3 3 3 0 0 1 -3 3v1a4 4 0 0 0 4-4 4 4 0 0 0 -4-4z"
       id="path8"
       style="fill-opacity:1;fill:url(#linearGradient872)" />
    <path
       d="m6 12v1a3 3 0 0 0 -3 3 3 3 0 0 0 3 3v1a4 4 0 0 1 -4-4 4 4 0 0 1 4-4z"
       id="path10"
       style="fill-opacity:1;fill:url(#linearGradient866)" />
    <path
       id="circle12"
       style="fill-opacity:1;fill:url(#linearGradient856)"
       r="2"
       cy="5"
       cx="5" />
    <path
       id="circle14"
       style="fill-opacity:1;fill:url(#linearGradient854)"
       r="2"
       cy="19"
       cx="19" />
    <path
       style="fill:url(#linearGradient1427);fill-opacity:1"
       d="m 21,19 a 2,2 0 0 1 -2,2 2,2 0 0 1 -2,-2 2,2 0 0 1 2,-2 2,2 0 0 1 2,2 z"
       id="circle14-8" />
  </g>
</svg>
