<svg viewBox="0 0 24 24" xmlns="http://www.w3.org/2000/svg" xmlns:xlink="http://www.w3.org/1999/xlink"><linearGradient id="a" gradientUnits="userSpaceOnUse" x1="19.750689" x2="19.686811" y1="6.062372" y2="2.062372"><stop offset="0" stop-color="#0040dd"/><stop offset="1" stop-color="#0a84ff"/></linearGradient><path d="m22.190676 16.348817q0 2.546255-1.192549 4.104091-1.181806 1.547091-3.341288 1.547091-1.085113 0-1.89089-.440491-.795033-.440492-1.332218-1.289243l-.257848 1.504117h-2.191714v-16.7601592h2.610718v6.4569582q.537184-.741314 1.289243-1.138831.752058-.3975165 1.751221-.3975165 2.18097 0 3.362776 1.6975035 1.192549 1.697503 1.192549 4.490863zm-2.610717-.225617q0-1.815684-.623134-2.933028-.623134-1.117344-1.976839-1.117344-.870239 0-1.461142.386773-.580159.386773-.923957 1.074369v4.877636q.333054.69834.923957 1.085113.590903.376029 1.482629.376029 1.353706 0 1.966096-.945445.61239-.956188.61239-2.578486z" fill="#4b4b4f"/><path d="m8.488353 21.774382q-.139668-.440492-.2363612-.859496-.08595-.419004-.1181806-.838008-.5371846.816521-1.4181673 1.375193-.870239.547928-1.9553519.547928-1.8156839 0-2.7933598-.934701-.96693225-.934701-.96693225-2.567742 0-1.68676 1.33221775-2.621461 1.3322178-.945445 3.7495484-.945445h2.0305577v-1.020651q0-.913213-.5371846-1.428911-.5371846-.515697-1.5363479-.515697-.8917264 0-1.4181673.429748-.5264409.429748-.5264409 1.1066h-2.5140238l-.010744-.06446q-.075206-1.375193 1.2247808-2.438818 1.3107304-1.0636255 3.4057503-1.0636255 2.0305577 0 3.2768259 1.0313945 1.2462687 1.031394 1.2462687 2.965259v5.167715q0 .719828.09669 1.385937.09669.655365.311567 1.289243zm-3.2016201-1.869403q.9884196 0 1.7727091-.49421.7950332-.494209 1.0528818-1.128087v-1.718991h-2.0735325q-1.1388313 0-1.7834528.569416-.6446215.558672-.6446215 1.321474 0 .666109.4297477 1.063625.4404913.386773 1.2462682.386773z" fill="#4b4b4f"/><path d="m16.5 2a.50043556.50043556 0 0 0 -.353516.8535156l3 3.0000004a.50043556.50043556 0 0 0 .707032 0l3-3.0000004a.50043556.50043556 0 0 0 -.353516-.8535156z" fill="url(#a)"/></svg>