<svg viewBox="0 0 24 24" xmlns="http://www.w3.org/2000/svg" xmlns:xlink="http://www.w3.org/1999/xlink"><linearGradient id="a" gradientUnits="userSpaceOnUse" x1="-14" x2="-14" xlink:href="#c" y1="16" y2="10"/><linearGradient id="b" gradientUnits="userSpaceOnUse" x1="-13" x2="-13" xlink:href="#c" y1="23" y2="17"/><linearGradient id="c" gradientUnits="userSpaceOnUse" x1="-14.24444" x2="-14.24444" y1="12.428188" y2="-.571812"><stop offset="0" stop-color="#2a9240"/><stop offset="1" stop-color="#32d74b"/></linearGradient><path d="m5 3c-.554 0-1 .446-1 1v13c0 .554.446 1 1 1h4v-1h-4v-13h10v3h1v-3c0-.554-.446-1-1-1z" fill="#98989d"/><path d="m5 4v13h4a8 8 0 0 1 6-7.7402344v-5.2597656z" fill="#fff"/><path d="m9 8v9 2.734375 1.265625h1 8 1v-9-2.734375-1.265625h-1-8z" fill="#fff"/><path d="m9 7c-.554 0-1 .446-1 1v11.410156 1.589844c0 .554.446 1 1 1h1 9c.554 0 1-.446 1-1v-11.4101562-1.5898438c0-.554-.446-1-1-1h-1zm0 1h9 1v1.265625 2.734375 9h-9-1v-1.265625-2.734375z" fill="#98989d"/><path d="m17 9a7 7.75 0 0 0 -6.966797 7h-.033203v.75 5.25h1.859375 7.140625c.554 0 1-.446 1-1v-11.2441406a7 7.75 0 0 0 -3-.7558594z" fill="#fff" fill-opacity=".784314"/><g fill="none" stroke="url(#c)" stroke-linecap="round" stroke-width="2"><g stroke="url(#a)"><path d="m22 14.985758v-4" stroke-linecap="square"/><path d="m18.014242 14.985658h4" stroke-linecap="square"/><path d="m22 14.985758c-2.453409-4.923729-8.144068-5.6165863-10 0"/></g><g stroke="url(#b)"><path d="m12.021791 18v4" stroke-linecap="square"/><path d="m16.007549 18.0001h-4" stroke-linecap="square"/><path d="m12.021791 18c3.139849 4.949153 8.016949 5.413196 10 0"/></g></g></svg>