<svg viewBox="0 0 24 24" xmlns="http://www.w3.org/2000/svg" xmlns:xlink="http://www.w3.org/1999/xlink"><filter id="a" color-interpolation-filters="sRGB" height="1.072" width="1.072" x="-.036" y="-.036"><feGaussianBlur stdDeviation=".30000179"/></filter><linearGradient id="b" gradientUnits="userSpaceOnUse" x1="28" x2="10" xlink:href="#e" y1="16" y2="14"/><linearGradient id="c" gradientUnits="userSpaceOnUse" x1="16" x2="17" xlink:href="#e" y1="0" y2="8"/><clipPath id="d"><path d="m12.292969 2.0019531c-5.6353575-.0825847-10.2931868 2.1791582-10.292969 4.9980469v10c0 2.761375 4.4771525 5 10 5 5.522847 0 10-2.238625 10-5v-10c.000209-2.7044568-4.300439-4.9188147-9.707031-4.9980469z"/></clipPath><radialGradient id="e" cx="24.803049" cy="16.542116" gradientTransform="matrix(1.1999999 -.0000001 .00000012 1.3164549 -7.763659 -5.776946)" gradientUnits="userSpaceOnUse" r="10"><stop offset="0" stop-color="#51cdfb"/><stop offset="1" stop-color="#0078f6"/></radialGradient><path d="m12.292969 2.0019531c-5.6353575-.0825847-10.2931868 2.1791582-10.292969 4.9980469v10c0 2.761375 4.4771525 5 10 5 5.522847 0 10-2.238625 10-5v-10c.000209-2.7044568-4.300439-4.9188147-9.707031-4.9980469z" fill="url(#b)" opacity=".986928"/><ellipse cx="12" cy="6.5" fill="url(#c)" rx="10" ry="4.5"/><path clip-path="url(#d)" d="m12.289062 2.2421875c-2.785701-.0408237-5.3258872.4998304-7.1523432 1.3867187-1.8235471.8854757-2.8965843 2.0795899-2.8964844 3.3710938v10c0 1.264073 1.0304111 2.43805 2.7949218 3.320312 1.767613.883812 4.2348117 1.439454 6.9648438 1.439454 2.730032 0 5.19723-.555642 6.964844-1.439454 1.764511-.882262 2.794922-2.056239 2.794922-3.320312v-10c.000097-1.2374736-.991613-2.3893563-2.697266-3.2675781-1.708964-.8799282-4.10078-1.4510674-6.773438-1.4902344z" fill="none" filter="url(#a)" opacity=".986928" stroke="#004792"/></svg>