<svg viewBox="0 0 24 24" xmlns="http://www.w3.org/2000/svg" xmlns:xlink="http://www.w3.org/1999/xlink"><linearGradient id="a" gradientTransform="matrix(1 0 0 -1 0 13.999745)" gradientUnits="userSpaceOnUse" x1="19" x2="19" y1="7.999745" y2="11.999745"><stop offset="0" stop-color="#0040dd"/><stop offset="1" stop-color="#0a84ff"/></linearGradient><path d="m14 21.999093v-14.999093l4.159082-.033146c1.661935-.013245 2.959986.3433858 3.893996 1.0301575.934009.6799039 1.401014 1.6997597 1.401014 3.0595671 0 .679904-.19573 1.287697-.58719 1.823379s-.93401.93401-1.627649 1.194983c.892803.199164 1.579575.628396 2.060315 1.287696.480741.659302.721111 1.425052.721111 2.297252 0 1.407882-.460137 2.479246-1.380412 3.214091-.920274.727978-2.190839 1.080842-3.811582 1.091967zm2.503283-6.819643v4.821137l2.325402-.03315c.865244-.01233 1.5315-.195729 1.998505-.587189.467005-.398328.700507-.971782.700507-1.720363 0-.796655-.19573-1.41475-.587189-1.854284-.39146-.439534-1.002754-.669879-1.833681-.659301zm0-1.864585 1.933942-.03315c.775938-.0133 1.387279-.181994 1.83368-.545983.453269-.370856.679904-.892803.679904-1.56584 0-.741713-.236936-1.2911301-.710809-1.648251-.473872-.363985-1.167694-.5642604-2.080918-.5459795l-1.655799.033146z" fill="#4b4b4f"/><path d="m9.3623375 18.497464h-5.7258931l-1.1652695 3.502536h-2.4711749l5.3743032-14.9990933h2.310448l5.3140308 14.9990933h-2.481221zm-5.0227133-2.091219h4.3295788l-2.119585-6.40758h-.060272z" fill="#4b4b4f"/><path d="m16.5 5.9997451a.50043556.50043556 0 0 1 -.353516-.8535156l3-3.0000004a.50043556.50043556 0 0 1 .707032 0l3 3.0000004a.50043556.50043556 0 0 1 -.353516.8535156z" fill="url(#a)"/></svg>