<svg viewBox="0 0 24 24" xmlns="http://www.w3.org/2000/svg" xmlns:xlink="http://www.w3.org/1999/xlink"><linearGradient id="a" gradientTransform="translate(-24.609541 .881356)" gradientUnits="userSpaceOnUse" x1="103.59709" x2="103.62025" y1="311.52966" y2="307.87033"><stop offset="0" stop-color="#d70015"/><stop offset="1" stop-color="#ff453a"/></linearGradient><linearGradient id="b" gradientTransform="translate(-27.593221 -8.525402)" gradientUnits="userSpaceOnUse" x1="-13.118644" x2="-13.118644" y1="29.61017" y2="17.61017"><stop offset="0" stop-color="#2a9240"/><stop offset="1" stop-color="#32d74b"/></linearGradient><linearGradient id="c" gradientUnits="userSpaceOnUse" x1="9" x2="9" xlink:href="#b" y1="6" y2="3"/><linearGradient id="d" gradientUnits="userSpaceOnUse" x1="3" x2="3" xlink:href="#a" y1="18" y2="15"/><linearGradient id="e" gradientUnits="userSpaceOnUse" x1="3" x2="3" xlink:href="#b" y1="14" y2="11"/><linearGradient id="f" gradientUnits="userSpaceOnUse" x1="8" x2="8" xlink:href="#a" y1="10" y2="7"/><linearGradient id="g" gradientUnits="userSpaceOnUse" x1="16.5" x2="16.5" xlink:href="#a" y1="21" y2="13"/><linearGradient id="h" gradientUnits="userSpaceOnUse" x1="17" x2="17" xlink:href="#a" y1="23" y2="11"/><path d="m3 3v15h7 10v-15z" fill="#fff"/><path d="m2 2v1 7 8c0 .554.446 1 1 1h7 3 4 3c.554 0 1-.446 1-1v-8-7-1zm1 1h8v3h-2-1-5zm9 0h8v3h-8zm-9 4h5 1 2v3h-1-1-1-5zm9 0h8v3h-8zm-9 4h5 1 1 1v3h-1-1-1-5zm9 0h8v3h-8zm-9 4h5 1 1 1v3h-1-1-1-5zm9 0h8v3h-3-4-1z" fill="#98989d"/><path d="m12 12h10v10h-10z" fill="#fff"/><path d="m11 10c-.554 0-1 .446-1 1v8h11v-9z" fill="#fff" fill-opacity=".784314"/><g fill="#0040dd"><path d="m3 3h6v3h-6z" fill="url(#c)"/><path d="m3 7h5v3h-5z" fill="url(#f)"/><path d="m3 11h6v3h-6z" fill="url(#e)"/><path d="m3 15h4v3h-4z" fill="url(#d)"/><path d="m18.498047 12.994141a.50005.50005 0 0 0 -.457031.308593l-.728516 1.697266h-3.8125c-.277 0-.5.223-.5.5s.223.5.5.5h3.384766l-.857422 2h-2.527344c-.277 0-.5.223-.5.5s.223.5.5.5h2.099609l-.558593 1.302734a.50005.50005 0 1 0 .917968.394532l.726563-1.697266h3.814453c.277 0 .5-.223.5-.5s-.223-.5-.5-.5h-3.384766l.857422-2h2.527344c.277 0 .5-.223.5-.5s-.223-.5-.5-.5h-2.099609l.558593-1.302734a.50005.50005 0 0 0 -.460937-.703125z" fill="url(#g)"/><path d="m12 11c-.554 0-1 .446-1 1v10c0 .554.446 1 1 1h10c.554 0 1-.446 1-1v-10c0-.554-.446-1-1-1zm0 1h10v10h-10z" fill="url(#h)"/></g></svg>