<?xml version="1.0" encoding="UTF-8" standalone="no"?>
<svg
   xmlns:dc="http://purl.org/dc/elements/1.1/"
   xmlns:cc="http://creativecommons.org/ns#"
   xmlns:rdf="http://www.w3.org/1999/02/22-rdf-syntax-ns#"
   xmlns:svg="http://www.w3.org/2000/svg"
   xmlns="http://www.w3.org/2000/svg"
   xmlns:xlink="http://www.w3.org/1999/xlink"
   xmlns:sodipodi="http://sodipodi.sourceforge.net/DTD/sodipodi-0.dtd"
   xmlns:inkscape="http://www.inkscape.org/namespaces/inkscape"
   viewBox="0 0 24 24"
   version="1.1"
   id="svg8"
   sodipodi:docname="lc_crookrotate.svg"
   inkscape:version="0.92.3 (unknown)">
  <metadata
     id="metadata14">
    <rdf:RDF>
      <cc:Work
         rdf:about="">
        <dc:format>image/svg+xml</dc:format>
        <dc:type
           rdf:resource="http://purl.org/dc/dcmitype/StillImage" />
        <dc:title></dc:title>
      </cc:Work>
    </rdf:RDF>
  </metadata>
  <defs
     id="defs12">
    <linearGradient
       gradientTransform="translate(-29.694915,1.220339)"
       id="a"
       gradientUnits="userSpaceOnUse"
       x1="14"
       x2="13.79661"
       y1="22"
       y2="2.1355929">
      <stop
         offset="0"
         stop-color="#0040dd"
         id="stop2" />
      <stop
         offset="1"
         stop-color="#0a84ff"
         id="stop4" />
    </linearGradient>
    <linearGradient
       inkscape:collect="always"
       xlink:href="#a"
       id="linearGradient841"
       x1="10.101695"
       y1="15.262712"
       x2="9.9661016"
       y2="8.2457628"
       gradientUnits="userSpaceOnUse" />
  </defs>
  <sodipodi:namedview
     pagecolor="#ffffff"
     bordercolor="#666666"
     borderopacity="1"
     objecttolerance="10"
     gridtolerance="10"
     guidetolerance="10"
     inkscape:pageopacity="0"
     inkscape:pageshadow="2"
     inkscape:window-width="1366"
     inkscape:window-height="706"
     id="namedview10"
     showgrid="false"
     inkscape:zoom="9.8333333"
     inkscape:cx="-2.2372881"
     inkscape:cy="12"
     inkscape:window-x="0"
     inkscape:window-y="0"
     inkscape:window-maximized="1"
     inkscape:current-layer="svg8" />
  <path
     d="m3 3.0527344c5.2776256.063492 10.804378.905688 17.625313 2.7353441l-3.519844 15.0654375c-5.024457-1.18661-9.2286611-1.888753-14.105469-1.853516z"
     fill="#fff"
     id="path2" />
  <path
     d="m7 8-3 2.986668 3 2.986665v-1.493333c3.528502 0 5.021014.165688 7.537939.861581l-.537939 1.658419 4-2.1-2-3.9-.541372 1.53288c-2.606886-.6903672-5.107686-1.0395467-8.458628-1.0395467z"
     fill="#4d82b8"
     id="path4"
     style="fill-opacity:1;fill:url(#linearGradient841)" />
  <path
     d="m2 2v18c5.6331795-.09222 10.264954.54261 16 2l4-17c-7.921679-2.2535205-14.1121066-2.9697029-20-3zm1 1.0527344c5.2776256.063492 10.804378.905688 17.625313 2.7353441l-3.519844 15.0654375c-5.024457-1.18661-9.2286611-1.888753-14.105469-1.853516z"
     fill="#808080"
     id="path6"
     style="fill:#69696e;fill-opacity:1" />
</svg>
