<?xml version="1.0" encoding="UTF-8" standalone="no"?>
<svg
   xmlns:dc="http://purl.org/dc/elements/1.1/"
   xmlns:cc="http://creativecommons.org/ns#"
   xmlns:rdf="http://www.w3.org/1999/02/22-rdf-syntax-ns#"
   xmlns:svg="http://www.w3.org/2000/svg"
   xmlns="http://www.w3.org/2000/svg"
   xmlns:xlink="http://www.w3.org/1999/xlink"
   xmlns:sodipodi="http://sodipodi.sourceforge.net/DTD/sodipodi-0.dtd"
   xmlns:inkscape="http://www.inkscape.org/namespaces/inkscape"
   viewBox="0 0 24 24"
   version="1.1"
   id="svg8"
   sodipodi:docname="lc_crookslant.svg"
   inkscape:version="0.92.3 (2405546, 2018-03-11)">
  <metadata
     id="metadata14">
    <rdf:RDF>
      <cc:Work
         rdf:about="">
        <dc:format>image/svg+xml</dc:format>
        <dc:type
           rdf:resource="http://purl.org/dc/dcmitype/StillImage" />
        <dc:title></dc:title>
      </cc:Work>
    </rdf:RDF>
  </metadata>
  <defs
     id="defs12">
    <linearGradient
       id="a"
       gradientUnits="userSpaceOnUse"
       x1="-22.196609"
       x2="-22.250847"
       y1="10.98983"
       y2="6.1084738"
       gradientTransform="translate(-23.59322,-4.3389831)">
      <stop
         offset="0"
         stop-color="#0040dd"
         id="stop2" />
      <stop
         offset="1"
         stop-color="#0a84ff"
         id="stop4" />
    </linearGradient>
    <linearGradient
       inkscape:collect="always"
       xlink:href="#a"
       id="linearGradient846"
       x1="11.728813"
       y1="13.440678"
       x2="11.966102"
       y2="8.3559322"
       gradientUnits="userSpaceOnUse" />
  </defs>
  <sodipodi:namedview
     pagecolor="#ffffff"
     bordercolor="#666666"
     borderopacity="1"
     objecttolerance="10"
     gridtolerance="10"
     guidetolerance="10"
     inkscape:pageopacity="0"
     inkscape:pageshadow="2"
     inkscape:window-width="1366"
     inkscape:window-height="716"
     id="namedview10"
     showgrid="false"
     inkscape:zoom="9.8333333"
     inkscape:cx="1.2317816"
     inkscape:cy="14.670746"
     inkscape:window-x="-8"
     inkscape:window-y="-8"
     inkscape:window-maximized="1"
     inkscape:current-layer="svg8" />
  <path
     d="m2 2v15.931641c9.264151.171972 15.329296 1.802315 20 4.068359v-15.9316406c-5.45368-3.1546856-12.6068417-3.7894514-20-4.0683594z"
     fill="#fff"
     id="path2" />
  <path
     d="m7 8-3 2.4 3 2.6v-1c4.423354 0 6.789194.07252 10 1v1l3-2.4-3-2.6v1c-2.737332-.8049597-6.000001-1-10-1z"
     fill="#4d82b8"
     id="path4"
     style="fill-opacity:1;fill:url(#linearGradient846)" />
  <path
     d="m2 2v15.931641c9.264151.171972 15.329296 1.802315 20 4.068359v-15.9316406c-5.45368-3.1546856-12.6068417-3.7894514-20-4.0683594zm1 1.09375c6.7451221.2948813 13.132734.9890028 18 3.6210938v13.7929682c-4.424113-1.915829-10.049404-3.267095-18-3.515624z"
     fill="#808080"
     id="path6"
     style="fill:#69696e;fill-opacity:1" />
</svg>
