<?xml version="1.0" encoding="UTF-8" standalone="no"?>
<svg
   xmlns:dc="http://purl.org/dc/elements/1.1/"
   xmlns:cc="http://creativecommons.org/ns#"
   xmlns:rdf="http://www.w3.org/1999/02/22-rdf-syntax-ns#"
   xmlns:svg="http://www.w3.org/2000/svg"
   xmlns="http://www.w3.org/2000/svg"
   xmlns:sodipodi="http://sodipodi.sourceforge.net/DTD/sodipodi-0.dtd"
   xmlns:inkscape="http://www.inkscape.org/namespaces/inkscape"
   viewBox="0 0 24 24"
   version="1.1"
   id="svg38"
   sodipodi:docname="lc_crop.svg"
   inkscape:version="0.92.3 (unknown)">
  <metadata
     id="metadata44">
    <rdf:RDF>
      <cc:Work
         rdf:about="">
        <dc:format>image/svg+xml</dc:format>
        <dc:type
           rdf:resource="http://purl.org/dc/dcmitype/StillImage" />
        <dc:title></dc:title>
      </cc:Work>
    </rdf:RDF>
  </metadata>
  <defs
     id="defs42" />
  <sodipodi:namedview
     pagecolor="#ffffff"
     bordercolor="#666666"
     borderopacity="1"
     objecttolerance="10"
     gridtolerance="10"
     guidetolerance="10"
     inkscape:pageopacity="0"
     inkscape:pageshadow="2"
     inkscape:window-width="1366"
     inkscape:window-height="706"
     id="namedview40"
     showgrid="true"
     inkscape:zoom="9.8333333"
     inkscape:cx="7.9183782"
     inkscape:cy="0.37316621"
     inkscape:window-x="0"
     inkscape:window-y="0"
     inkscape:window-maximized="1"
     inkscape:current-layer="svg38">
    <inkscape:grid
       type="xygrid"
       id="grid870"
       spacingx="0.5"
       spacingy="0.5"
       empspacing="2" />
  </sodipodi:namedview>
  <path
     d="m3 3v12h10v-1c0-.554.446-1 1-1v-10z"
     fill="#fff"
     id="path2" />
  <path
     style="fill:#32d74b;fill-rule:evenodd;stroke:#28cd41"
     d="M 11.5,8 8,11.5 7,10.5 3.4667969,12.902344 3.5,13.5 h 9 v -1 h 1 V 12 Z"
     id="path2376"
     inkscape:connector-curvature="0"
     sodipodi:nodetypes="cccccccccc" />
  <g
     id="g18"
     fill="#808080"
     style="fill:#69696e;fill-opacity:1">
    <path
       d="m2 2v13h11v-1h-10v-11h11v10h1v-11z"
       id="path4"
       style="fill:#69696e;fill-opacity:1" />
    <circle
       style="fill:#ffd60a;stroke:#ffcc00"
       cx="6.5"
       cy="6.5"
       r="2.0059969"
       id="circle2374" />
    <rect
       height="1"
       ry=".5"
       width="3"
       x="19"
       y="2"
       id="rect8"
       style="fill:#69696e;fill-opacity:1" />
    <rect
       height="1"
       ry=".5"
       width="3"
       x="15"
       y="2"
       id="rect10"
       style="fill:#69696e;fill-opacity:1" />
    <rect
       height="1"
       ry=".5"
       width="3"
       x="7"
       y="21"
       id="rect12"
       style="fill:#69696e;fill-opacity:1" />
    <rect
       height="1"
       ry=".5"
       width="3"
       x="2"
       y="21"
       id="rect14"
       style="fill:#69696e;fill-opacity:1" />
    <rect
       height="1"
       ry=".5"
       width="3"
       x="18"
       y="21"
       id="rect16"
       style="fill:#69696e;fill-opacity:1" />
  </g>
  <rect
     fill="#4d82b8"
     height="2"
     ry="1"
     width="10"
     x="12"
     y="20"
     id="rect20"
     style="fill:#000000;fill-opacity:1" />
  <rect
     fill="#4d82b8"
     height="2"
     ry="1"
     transform="rotate(90)"
     width="10"
     x="12"
     y="-22"
     id="rect22"
     style="fill:#000000;fill-opacity:1" />
  <path
     style="fill:#000000;fill-opacity:1"
     d="M 14.875 14 C 14.390716 14 14 14.390716 14 14.875 L 14 15.125 C 14 15.609284 14.390716 16 14.875 16 L 19 16 L 19 14 L 14.875 14 z M 20 14 L 20 16 L 23.125 16 C 23.609284 16 24 15.609284 24 15.125 L 24 14.875 C 24 14.390716 23.609284 14 23.125 14 L 20 14 z "
     id="rect24" />
  <path
     style="fill:#000000;fill-opacity:1"
     d="M 14.982422 14 C 14.438381 14 14 14.438381 14 14.982422 L 14 19 L 16 19 L 16 14.982422 C 16 14.438381 15.561619 14 15.017578 14 L 14.982422 14 z M 14 20 L 14 23.017578 C 14 23.561619 14.438381 24 14.982422 24 L 15.017578 24 C 15.561619 24 16 23.561619 16 23.017578 L 16 20 L 14 20 z "
     id="rect26" />
  <rect
     fill="#808080"
     height="3"
     ry=".5"
     width="1"
     x="2"
     y="19"
     id="rect30" />
  <rect
     fill="#808080"
     height="3"
     ry=".5"
     width="1"
     x="2"
     y="15"
     id="rect32" />
  <rect
     fill="#808080"
     height="3"
     ry=".5"
     width="1"
     x="21"
     y="7"
     id="rect34"
     style="fill:#69696e;fill-opacity:1" />
  <rect
     fill="#808080"
     height="3"
     ry=".5"
     width="1"
     x="21"
     y="2"
     id="rect36"
     style="fill:#69696e;fill-opacity:1" />
</svg>
