<?xml version="1.0" encoding="UTF-8" standalone="no"?>
<svg
   xmlns:dc="http://purl.org/dc/elements/1.1/"
   xmlns:cc="http://creativecommons.org/ns#"
   xmlns:rdf="http://www.w3.org/1999/02/22-rdf-syntax-ns#"
   xmlns:svg="http://www.w3.org/2000/svg"
   xmlns="http://www.w3.org/2000/svg"
   xmlns:xlink="http://www.w3.org/1999/xlink"
   xmlns:sodipodi="http://sodipodi.sourceforge.net/DTD/sodipodi-0.dtd"
   xmlns:inkscape="http://www.inkscape.org/namespaces/inkscape"
   viewBox="0 0 24 24"
   version="1.1"
   id="svg8"
   sodipodi:docname="lc_changecasetolower.svg"
   inkscape:version="0.92.3 (2405546, 2018-03-11)">
  <metadata
     id="metadata14">
    <rdf:RDF>
      <cc:Work
         rdf:about="">
        <dc:format>image/svg+xml</dc:format>
        <dc:type
           rdf:resource="http://purl.org/dc/dcmitype/StillImage" />
        <dc:title></dc:title>
      </cc:Work>
    </rdf:RDF>
  </metadata>
  <defs
     id="defs12">
    <linearGradient
       gradientTransform="translate(-29.694915,1.220339)"
       id="a-6"
       gradientUnits="userSpaceOnUse"
       x1="14"
       x2="13.79661"
       y1="22"
       y2="2.1355929">
      <stop
         offset="0"
         stop-color="#0040dd"
         id="stop2" />
      <stop
         offset="1"
         stop-color="#0a84ff"
         id="stop4" />
    </linearGradient>
    <linearGradient
       inkscape:collect="always"
       xlink:href="#a-6"
       id="linearGradient859"
       x1="19.750689"
       y1="12.062372"
       x2="19.686811"
       y2="8.0623722"
       gradientUnits="userSpaceOnUse"
       gradientTransform="translate(0,-6)" />
  </defs>
  <sodipodi:namedview
     pagecolor="#ffffff"
     bordercolor="#666666"
     borderopacity="1"
     objecttolerance="10"
     gridtolerance="10"
     guidetolerance="10"
     inkscape:pageopacity="0"
     inkscape:pageshadow="2"
     inkscape:window-width="1366"
     inkscape:window-height="716"
     id="namedview10"
     showgrid="true"
     inkscape:snap-global="false"
     inkscape:zoom="11.313709"
     inkscape:cx="8.3293311"
     inkscape:cy="9.7177309"
     inkscape:window-x="-8"
     inkscape:window-y="-8"
     inkscape:window-maximized="1"
     inkscape:current-layer="svg8">
    <inkscape:grid
       type="xygrid"
       id="grid821" />
  </sodipodi:namedview>
  <path
     inkscape:connector-curvature="0"
     id="path829"
     style="font-style:normal;font-variant:normal;font-weight:500;font-stretch:normal;font-size:medium;line-height:1.25;font-family:Roboto;-inkscape-font-specification:'Roboto Medium';letter-spacing:0px;word-spacing:0px;fill:#4b4b4f;fill-opacity:1;stroke:none;stroke-width:0.55007702"
     d="m 22.190676,16.348817 q 0,2.546255 -1.192549,4.104091 -1.181806,1.547091 -3.341288,1.547091 -1.085113,0 -1.89089,-0.440491 -0.795033,-0.440492 -1.332218,-1.289243 l -0.257848,1.504117 H 11.984169 V 5.0142228 h 2.610718 v 6.4569582 q 0.537184,-0.741314 1.289243,-1.138831 0.752058,-0.3975165 1.751221,-0.3975165 2.18097,0 3.362776,1.6975035 1.192549,1.697503 1.192549,4.490863 z M 19.579959,16.1232 q 0,-1.815684 -0.623134,-2.933028 -0.623134,-1.117344 -1.976839,-1.117344 -0.870239,0 -1.461142,0.386773 -0.580159,0.386773 -0.923957,1.074369 v 4.877636 q 0.333054,0.69834 0.923957,1.085113 0.590903,0.376029 1.482629,0.376029 1.353706,0 1.966096,-0.945445 0.61239,-0.956188 0.61239,-2.578486 z" />
  <path
     inkscape:connector-curvature="0"
     id="path827"
     style="font-style:normal;font-variant:normal;font-weight:500;font-stretch:normal;font-size:medium;line-height:1.25;font-family:Roboto;-inkscape-font-specification:'Roboto Medium';letter-spacing:0px;word-spacing:0px;fill:#4b4b4f;fill-opacity:1;stroke:none;stroke-width:0.55007702"
     d="M 8.488353,21.774382 Q 8.348685,21.33389 8.2519918,20.914886 q -0.08595,-0.419004 -0.1181806,-0.838008 -0.5371846,0.816521 -1.4181673,1.375193 -0.870239,0.547928 -1.9553519,0.547928 -1.8156839,0 -2.7933598,-0.934701 -0.96693225,-0.934701 -0.96693225,-2.567742 0,-1.68676 1.33221775,-2.621461 1.3322178,-0.945445 3.7495484,-0.945445 h 2.0305577 v -1.020651 q 0,-0.913213 -0.5371846,-1.428911 -0.5371846,-0.515697 -1.5363479,-0.515697 -0.8917264,0 -1.4181673,0.429748 -0.5264409,0.429748 -0.5264409,1.1066 H 1.5801593 l -0.010744,-0.06446 q -0.075206,-1.375193 1.2247808,-2.438818 1.3107304,-1.0636255 3.4057503,-1.0636255 2.0305577,0 3.2768259,1.0313945 1.2462687,1.031394 1.2462687,2.965259 v 5.167715 q 0,0.719828 0.09669,1.385937 0.09669,0.655365 0.311567,1.289243 z M 5.2867329,19.904979 q 0.9884196,0 1.7727091,-0.49421 0.7950332,-0.494209 1.0528818,-1.128087 V 16.563691 H 6.0387913 q -1.1388313,0 -1.7834528,0.569416 -0.6446215,0.558672 -0.6446215,1.321474 0,0.666109 0.4297477,1.063625 0.4404913,0.386773 1.2462682,0.386773 z" />
  <path
     style="fill:url(#linearGradient859);fill-opacity:1;stroke:none;stroke-width:1px;stroke-linecap:butt;stroke-linejoin:miter;stroke-opacity:1"
     d="m 16.5,2 a 0.50043556,0.50043556 0 0 0 -0.353516,0.8535156 l 3,3.0000004 a 0.50043556,0.50043556 0 0 0 0.707032,0 l 3,-3.0000004 A 0.50043556,0.50043556 0 0 0 22.5,2 Z"
     id="path834"
     inkscape:connector-curvature="0" />
</svg>
