<?xml version="1.0" encoding="UTF-8" standalone="no"?>
<svg
   xmlns:dc="http://purl.org/dc/elements/1.1/"
   xmlns:cc="http://creativecommons.org/ns#"
   xmlns:rdf="http://www.w3.org/1999/02/22-rdf-syntax-ns#"
   xmlns:svg="http://www.w3.org/2000/svg"
   xmlns="http://www.w3.org/2000/svg"
   xmlns:sodipodi="http://sodipodi.sourceforge.net/DTD/sodipodi-0.dtd"
   xmlns:inkscape="http://www.inkscape.org/namespaces/inkscape"
   viewBox="0 0 24 24"
   version="1.1"
   id="svg4"
   sodipodi:docname="lc_color.svg"
   inkscape:version="0.92.3 (2405546, 2018-03-11)">
  <metadata
     id="metadata10">
    <rdf:RDF>
      <cc:Work
         rdf:about="">
        <dc:format>image/svg+xml</dc:format>
        <dc:type
           rdf:resource="http://purl.org/dc/dcmitype/StillImage" />
        <dc:title></dc:title>
      </cc:Work>
    </rdf:RDF>
  </metadata>
  <defs
     id="defs8" />
  <sodipodi:namedview
     pagecolor="#ffffff"
     bordercolor="#666666"
     borderopacity="1"
     objecttolerance="10"
     gridtolerance="10"
     guidetolerance="10"
     inkscape:pageopacity="0"
     inkscape:pageshadow="2"
     inkscape:window-width="1366"
     inkscape:window-height="692"
     id="namedview6"
     showgrid="false"
     inkscape:zoom="9.8333333"
     inkscape:cx="-3.1525424"
     inkscape:cy="11.186441"
     inkscape:window-x="0"
     inkscape:window-y="0"
     inkscape:window-maximized="1"
     inkscape:current-layer="svg4" />
  <path
     d="m19 17.999998h-2.288026c-.264293 0-.475727-.06426-.634303-.19277-.158576-.136546-.27562-.305221-.351133-.506024l-.951457-3.301204h-5.5388345l-.9401293 3.289156c-.06041.176707-.1774542.341365-.3511327.493975-.1661273.144578-.3737864.216867-.6229774.216867h-2.3220064l5.4822003-15.9999979h3.035599zm-9.0954691-5.999998h4.1909391l-1.529127-5.1204822c-.090614-.248996-.185004-.5381526-.283171-.8674698-.098166-.3373494-.196332-.7028112-.294498-1.0963855-.090615.3935743-.185005.7590361-.283172 1.0963855-.098166.3373493-.188781.630522-.271845.8795179z"
     fill="#696969"
     id="path2"
     style="fill:#69696e;fill-opacity:1" />
</svg>
