<?xml version="1.0" encoding="UTF-8" standalone="no"?>
<svg
   xmlns:dc="http://purl.org/dc/elements/1.1/"
   xmlns:cc="http://creativecommons.org/ns#"
   xmlns:rdf="http://www.w3.org/1999/02/22-rdf-syntax-ns#"
   xmlns:svg="http://www.w3.org/2000/svg"
   xmlns="http://www.w3.org/2000/svg"
   xmlns:xlink="http://www.w3.org/1999/xlink"
   xmlns:sodipodi="http://sodipodi.sourceforge.net/DTD/sodipodi-0.dtd"
   xmlns:inkscape="http://www.inkscape.org/namespaces/inkscape"
   viewBox="0 0 24 24"
   version="1.1"
   id="svg4"
   sodipodi:docname="lc_calloutshapes.cloud-callout.svg"
   inkscape:version="0.92.3 (2405546, 2018-03-11)">
  <metadata
     id="metadata10">
    <rdf:RDF>
      <cc:Work
         rdf:about="">
        <dc:format>image/svg+xml</dc:format>
        <dc:type
           rdf:resource="http://purl.org/dc/dcmitype/StillImage" />
        <dc:title></dc:title>
      </cc:Work>
    </rdf:RDF>
  </metadata>
  <defs
     id="defs8">
    <linearGradient
       gradientTransform="translate(-38.338983,-13.220339)"
       id="a"
       gradientUnits="userSpaceOnUse"
       x1="12"
       x2="12"
       y1="21.5"
       y2="2.5">
      <stop
         offset="0"
         stop-color="#e5eefc"
         id="stop1020" />
      <stop
         offset="1"
         stop-color="#fcfdff"
         id="stop1022" />
    </linearGradient>
    <linearGradient
       inkscape:collect="always"
       xlink:href="#a"
       id="linearGradient835"
       x1="13.491526"
       y1="20.644068"
       x2="13.864407"
       y2="2.5423729"
       gradientUnits="userSpaceOnUse" />
  </defs>
  <sodipodi:namedview
     pagecolor="#ffffff"
     bordercolor="#666666"
     borderopacity="1"
     objecttolerance="10"
     gridtolerance="10"
     guidetolerance="10"
     inkscape:pageopacity="0"
     inkscape:pageshadow="2"
     inkscape:window-width="1366"
     inkscape:window-height="716"
     id="namedview6"
     showgrid="false"
     inkscape:zoom="9.8333333"
     inkscape:cx="-2.4915254"
     inkscape:cy="12"
     inkscape:window-x="-8"
     inkscape:window-y="-8"
     inkscape:window-maximized="1"
     inkscape:current-layer="svg4" />
  <path
     d="m12 2.5a9.5 5.9375119 0 0 0 -9.5 5.9375 9.5 5.9375119 0 0 0 9.5 5.9375 9.5 5.9375119 0 0 0 9.5-5.9375 9.5 5.9375119 0 0 0 -9.5-5.9375zm-3.5625 11.875a3.5625021 1.7812501 0 0 0 -3.5625 1.78125 3.5625021 1.7812501 0 0 0 3.5625 1.78125 3.5625021 1.7812501 0 0 0 3.5625-1.78125 3.5625021 1.7812501 0 0 0 -3.5625-1.78125zm-2.375 3.5625a2.3749969 1.1875 0 0 0 -2.375 1.1875 2.3749969 1.1875 0 0 0 2.375 1.1875 2.3749969 1.1875 0 0 0 2.375-1.1875 2.3749969 1.1875 0 0 0 -2.375-1.1875zm-2.375 2.375a1.1875.59375 0 0 0 -1.1875.59375 1.1875.59375 0 0 0 1.1875.59375 1.1875.59375 0 0 0 1.1875-.59375 1.1875.59375 0 0 0 -1.1875-.59375z"
     fill="#fff"
     stroke="#808080"
     stroke-linecap="round"
     stroke-linejoin="round"
     id="path2"
     style="fill-opacity:1;fill:url(#linearGradient835);stroke:#0a84ff;stroke-opacity:1" />
</svg>
