<svg viewBox="0 0 24 24" xmlns="http://www.w3.org/2000/svg" xmlns:xlink="http://www.w3.org/1999/xlink"><linearGradient id="a" gradientTransform="translate(-29.694915 1.220339)" gradientUnits="userSpaceOnUse" x1="14" x2="13.79661" y1="22" y2="2.135593"><stop offset="0" stop-color="#0040dd"/><stop offset="1" stop-color="#0a84ff"/></linearGradient><linearGradient id="b" gradientUnits="userSpaceOnUse" x1="1" x2="1" xlink:href="#a" y1="5" y2="3"/><linearGradient id="c" gradientUnits="userSpaceOnUse" x1="18.5" x2="18.5" xlink:href="#a" y1="22" y2="13"/><path d="m2 6v15h11.128906 7.871094.5.5v-8h-.029297l.029297-7zm1 1h18v6.064453 6.935547h-7.513672-10.486328z" fill="#98989d"/><path d="m21.970703 13-.007812 2.142578c-.083929-.801013-.426762-1.528025-.962891-2.078125v6.935547h-7.513672c-.160636.313939-.275062.65045-.357422 1h7.871094.5.5v-8z" fill="#fff" fill-opacity=".784314"/><path d="m3 7v13h10.486328 7.513672v-6.935547-6.064453z" fill="#f3f3f3"/><path d="m1 3h22v2h-22z" fill="url(#b)"/><path d="m5 9h14v2h-14z" fill="#ff9500"/><path d="m18.5 12c-1.921152 0-3.5 1.578848-3.5 3.5 0 .847865.344773 1.600756.853516 2.208984-1.023471.524358-1.868499 1.316403-2.367188 2.291016h7.513672v-6.935547c-.637299-.653907-1.523094-1.064453-2.5-1.064453z" fill="#fff" fill-opacity=".784314"/><g fill="url(#c)"><path d="m21 15.5a2.5 2.5 0 0 1 -2.5 2.5 2.5 2.5 0 0 1 -2.5-2.5 2.5 2.5 0 0 1 2.5-2.5 2.5 2.5 0 0 1 2.5 2.5z"/><path d="m18.5 18a4.5 4 0 0 0 -4.5 4h1a3.5 3 0 0 1 3.5-3 3.5 3 0 0 1 3.5 3h1a4.5 4 0 0 0 -4.5-4z"/></g><path d="m18.5 19a3.5 2.75 0 0 0 -3.5 2.75 3.5 2.75 0 0 0 .015625.25h6.96875a3.5 2.75 0 0 0 .015625-.25 3.5 2.75 0 0 0 -3.5-2.75z" fill="#fff"/></svg>