<?xml version="1.0" encoding="UTF-8" standalone="no"?>
<svg
   xmlns:dc="http://purl.org/dc/elements/1.1/"
   xmlns:cc="http://creativecommons.org/ns#"
   xmlns:rdf="http://www.w3.org/1999/02/22-rdf-syntax-ns#"
   xmlns:svg="http://www.w3.org/2000/svg"
   xmlns="http://www.w3.org/2000/svg"
   xmlns:xlink="http://www.w3.org/1999/xlink"
   xmlns:sodipodi="http://sodipodi.sourceforge.net/DTD/sodipodi-0.dtd"
   xmlns:inkscape="http://www.inkscape.org/namespaces/inkscape"
   viewBox="0 0 24 24"
   version="1.1"
   id="svg8"
   sodipodi:docname="lc_cut.svg"
   inkscape:version="0.92.3 (2405546, 2018-03-11)">
  <metadata
     id="metadata14">
    <rdf:RDF>
      <cc:Work
         rdf:about="">
        <dc:format>image/svg+xml</dc:format>
        <dc:type
           rdf:resource="http://purl.org/dc/dcmitype/StillImage" />
      </cc:Work>
    </rdf:RDF>
  </metadata>
  <defs
     id="defs12">
    <linearGradient
       gradientTransform="translate(-29.694915,1.220339)"
       id="a"
       gradientUnits="userSpaceOnUse"
       x1="14"
       x2="13.79661"
       y1="22"
       y2="2.1355929">
      <stop
         offset="0"
         stop-color="#0040dd"
         id="stop2" />
      <stop
         offset="1"
         stop-color="#0a84ff"
         id="stop4" />
    </linearGradient>
    <linearGradient
       inkscape:collect="always"
       xlink:href="#a"
       id="linearGradient841"
       x1="18.067797"
       y1="23.915255"
       x2="18"
       y2="16"
       gradientUnits="userSpaceOnUse" />
    <linearGradient
       inkscape:collect="always"
       xlink:href="#a"
       id="linearGradient843"
       x1="6.9152541"
       y1="23.966103"
       x2="7"
       y2="16"
       gradientUnits="userSpaceOnUse" />
  </defs>
  <sodipodi:namedview
     pagecolor="#ffffff"
     bordercolor="#666666"
     borderopacity="1"
     objecttolerance="10"
     gridtolerance="10"
     guidetolerance="10"
     inkscape:pageopacity="0"
     inkscape:pageshadow="2"
     inkscape:window-width="1366"
     inkscape:window-height="685"
     id="namedview10"
     showgrid="false"
     inkscape:zoom="6.9532167"
     inkscape:cx="7.3123525"
     inkscape:cy="9.4979969"
     inkscape:window-x="0"
     inkscape:window-y="0"
     inkscape:window-maximized="1"
     inkscape:current-layer="svg8" />
  <path
     d="m18 16a4 4 0 0 0 -4 4 4 4 0 0 0 4 4 4 4 0 0 0 4-4 4 4 0 0 0 -4-4zm0 2a2 2 0 0 1 2 2 2 2 0 0 1 -2 2 2 2 0 0 1 -2-2 2 2 0 0 1 2-2z"
     fill="#0a84ff"
     id="path2"
     style="fill-opacity:1;fill:url(#linearGradient841)" />
  <path
     d="m6.8769531 1.59375c-.1439037-.00403-.2859341.0754-.359375.1992188-.3611918.608225-.64201.8543031-.7910156 1.3359374-.066044.2134753-.065838.5012497.00391.7421876.074168.2562356.205409.5076003.4003906.8359374l4.3496096 7.3339848c.04875.08272.048.185573-.002.267578l-1.8457035 3.072265c.6233561-.09562 1.1388776.26341 1.8574215 1.658203.01097.02227.02098.04397.0293.06055l.556641-.9375c.03444-.05746.0897-.09944.154297-.117187.422112-.118242.775817-.345743.929687-.507813.117978-.130778.329067-.109077.417969.04297l.892578 1.503906c.543316-1.327534 1.345557-1.672894 1.890625-1.71289l-1.839844-3.0625c-.04996-.082-.05071-.184853-.002-.267578l4.34961-7.3339848c.194981-.328337.326222-.5797015.40039-.8359374.06973-.2409108.06994-.5286611.0039-.7421876-.1490217-.4815367-.4297337-.7277229-.7909217-1.3359414-.071231-.1203166-.207836-.1987416-.347656-.1992188-.139821-.0004772-.277559.077438-.34961.1972656l-4.5625 7.6054688c-.101299.1672971-.344013.1672971-.445312 0l-4.5625002-7.6054688c-.0699595-.1161266-.2023687-.1935886-.3378907-.1972656zm5.1230469 10.226562c.412175-.000288.746382.333919.746094.746094.000288.412175-.333919.746382-.746094.746094-.412175.000288-.746382-.333919-.746094-.746094-.000288-.412175.333919-.746382.746094-.746094z"
     fill="#98989d"
     id="path4" />
  <path
     d="m7 16a4 4 0 0 0 -4 4 4 4 0 0 0 4 4 4 4 0 0 0 4-4 4 4 0 0 0 -4-4zm0 2a2 2 0 0 1 2 2 2 2 0 0 1 -2 2 2 2 0 0 1 -2-2 2 2 0 0 1 2-2z"
     fill="#0a84ff"
     id="path6"
     style="fill-opacity:1;fill:url(#linearGradient843)" />
</svg>
