<svg viewBox="0 0 24 24" xmlns="http://www.w3.org/2000/svg" xmlns:xlink="http://www.w3.org/1999/xlink"><linearGradient id="a" gradientUnits="userSpaceOnUse" x1="12" x2="12" y1="3" y2="21"><stop offset="0" stop-color="#efefef"/><stop offset=".33333334" stop-color="#fff"/><stop offset=".8888889" stop-color="#fff"/><stop offset="1" stop-color="#f5f5f5"/></linearGradient><filter id="b" color-interpolation-filters="sRGB" height="1.094553" width="1.097492" x="-.048746" y="-.047277"><feGaussianBlur stdDeviation=".36559322"/></filter><path d="m3 4h18v18.559322h-18z" filter="url(#b)" opacity=".15" stroke-width="1.015418"/><path d="m3 3h18v18h-18z" fill="url(#a)"/><path d="m3 2c-.554 0-1 .446-1 1v18c0 .554.446 1 1 1h18c.554 0 1-.446 1-1v-18c0-.554-.446-1-1-1zm0 1h5v6h-5zm6 0h6v6h-6zm7 0h5v6h-5zm-13 7h5v3h-5zm6 0h6v3h-6zm7 0h5v3h-5zm-13 4h5v3h-5zm6 0h6v3h-6zm7 0h5v3h-5zm-13 4h5v3h-5zm6 0h6v3h-6zm7 0h5v3h-5z" fill="#bababa"/><path d="m2 2h20v4h-20z" fill="#0a84ff"/><path d="m3 2c-.554 0-1 .446-1 1v18c0 .554.446 1 1 1h18c.554 0 1-.446 1-1v-18c0-.554-.446-1-1-1zm0 1h5 1 6 1 5v6 1 3 1 3 1 3h-5-1-6-1-5v-3-1-3-1-3-1z" fill="#69696e"/><path d="m3 2c-.554 0-1 .446-1 1v2 1h1 18 1v-1-2c0-.554-.446-1-1-1zm0 1h5v2h-5zm6 0h6v2h-6zm7 0h5v2h-5z" fill="#0040dd"/><path d="m15.078125 11.996094a1.0041282 1.0041282 0 0 0 -.679687.27539l-2.089844 1.982422a1.0041282 1.0041282 0 0 0 -.027344 1.429688l2.238281 2.296875-2.232422 2.253906a1.0041282 1.0041282 0 0 0 .007813 1.421875l.349609.34375h4.771485l.595703-.628906.595703.628906h3.392578v-3.505859l-.515625-.525391.515625-.572266v-4.71875l-.423828-.404296a1.0041282 1.0041282 0 0 0 -1.41211.02539l-2.15625 2.210938-2.207031-2.21875a1.0041282 1.0041282 0 0 0 -.722656-.294922z" fill="#fff" fill-opacity=".784314"/><path d="m23 20.944338-2.895447-2.946153 2.7861-3.086414-2.008392-1.911762-2.867282 2.941173-2.925406-2.941173-2.089573 1.98208 2.925403 3.003525-2.925403 2.955562 2.089573 2.058824 2.922011-3.088233 2.928799 3.088233z" fill="#c20618"/></svg>