<svg viewBox="0 0 24 24" xmlns="http://www.w3.org/2000/svg" xmlns:xlink="http://www.w3.org/1999/xlink"><linearGradient id="a" gradientTransform="translate(-11 -1)" gradientUnits="userSpaceOnUse" x1="14" x2="13.79661" y1="22" y2="2.135593"><stop offset="0" stop-color="#0040dd"/><stop offset="1" stop-color="#0a84ff"/></linearGradient><linearGradient id="b" gradientUnits="userSpaceOnUse" x1="18" x2="18" xlink:href="#a" y1="22" y2="12"/><linearGradient id="c" gradientUnits="userSpaceOnUse" x1="7" x2="7" xlink:href="#a" y1="22" y2="2"/><path d="m3.5031599 22.000338 2.1038424-12.0457809h-2.1423273l.3207077-1.8344479h2.129499l.2309095-1.6420233q.333536-2.0910141 1.6163667-3.2712184 1.3469723-1.2315175 3.4379861-1.2058609.654244 0 1.654852.2180813l-.282223 1.9370743q-.615759-.128283-1.244346-.1539396-1.205861 0-1.9627307.7568701-.7440418.7440418-.9236381 1.9883876l-.2052529 1.3726289h2.8735407l-.320708 1.8344479h-2.8735404l-2.0910141 12.0457809z" fill="url(#c)"/><path d="m17.145363 15.648702 2.720749-3.646173h2.054443l-4.016344 5.034311 2.443122 4.978785h-1.823087l-1.656511-3.738716-2.822545 3.738716h-2.045189l4.136649-5.145362-2.369088-4.867734h1.832341z" fill="url(#b)"/></svg>