<svg viewBox="0 0 24 24" xmlns="http://www.w3.org/2000/svg" xmlns:xlink="http://www.w3.org/1999/xlink"><linearGradient id="a" gradientUnits="userSpaceOnUse" x1="13" x2="13" y1="23" y2="5"><stop offset="0" stop-color="#f7f7f7"/><stop offset=".22222222" stop-color="#fff"/><stop offset=".83333331" stop-color="#fff"/><stop offset="1" stop-color="#f7f7f7"/></linearGradient><linearGradient id="b" gradientUnits="userSpaceOnUse" x1="19.5" x2="19.5" y1="21.500002" y2="14.5"><stop offset="0" stop-color="#cfcfcf"/><stop offset=".07142864" stop-color="#e7e7e7"/><stop offset=".07142864" stop-color="#fff"/><stop offset=".5" stop-color="#f3f3f3"/><stop offset=".93333334" stop-color="#f9f9f9"/><stop offset=".93333334" stop-color="#fcfcfc"/><stop offset="1" stop-color="#fff"/></linearGradient><linearGradient id="c" gradientUnits="userSpaceOnUse" x1="19.428572" x2="19.428572" y1="18.25" y2="21.285715"><stop offset="0" stop-color="#f8f8f8"/><stop offset="1" stop-color="#fff"/></linearGradient><linearGradient id="d" gradientUnits="userSpaceOnUse" x1="-28.694915" x2="-28.694915" y1="6.220339" y2="4.220339"><stop offset="0" stop-color="#0040dd"/><stop offset="1" stop-color="#0a84ff"/></linearGradient><path d="m2 6v15h11.128906 7.871094.5.5v-8h-.029297l.029297-7zm1 1h18v6.064453 6.935547h-7.513672-10.486328z" fill="#98989d"/><path d="m3 7v13h10.486328 7.513672v-6.935547-6.064453z" fill="#f3f3f3"/><path d="m1 3h22v2h-22z" fill="url(#d)"/><path d="m5 9h14v2h-14z" fill="#ff9500"/><g transform="translate(-2 -1)"><path d="m16 13h7v10h-7z" fill="url(#a)"/><path d="m16 12c-.554 0-1 .446-1 1v10c0 .554.446 1 1 1h7c.554 0 1-.446 1-1v-10c0-.554-.446-1-1-1zm0 1h7v10h-7z" fill="#848489"/><g stroke-width=".607143"><path d="m17 14h5v8h-5z" fill="#626262"/><path d="m17.5 14.5h4v7h-4z" fill="url(#b)"/><path d="m18 16h3v2h-3z" fill="#dadada"/><path d="m18 18h3v3h-3z" fill="url(#c)"/></g></g></svg>