<svg viewBox="0 0 24 24" xmlns="http://www.w3.org/2000/svg" xmlns:xlink="http://www.w3.org/1999/xlink"><linearGradient id="a" gradientUnits="userSpaceOnUse" x1="84" x2="84" y1="2" y2="-4"><stop offset="0" stop-color="#0040dd"/><stop offset="1" stop-color="#0a84ff"/></linearGradient><linearGradient id="b" gradientUnits="userSpaceOnUse" x1="-14.24444" x2="-14.24444" y1="12.428188" y2="-.571812"><stop offset="0" stop-color="#2a9240"/><stop offset="1" stop-color="#32d74b"/></linearGradient><path d="m3 9h5v11h-5z" fill="#fff"/><path d="m3 4h18v4h-18z" fill="#fff"/><path d="m2 9v11c0 .554.446 1 1 1h6v-1-3-1-3-1-3h-1v3h-5v-3zm1 4h5v3h-5zm0 4h5v3h-5z" fill="#98989d"/><path d="m3 3c-.554 0-1 .446-1 1v5h1 5 1 13v-5c0-.554-.446-1-1-1zm0 1h5v4h-5zm6 0h6v4h-6zm7 0h5v4h-5z" fill="url(#a)"/><g fill="none" stroke="url(#b)" stroke-linecap="round" stroke-width="2"><path d="m22 14.985758v-4" stroke-linecap="square"/><path d="m18.014242 14.985658h4" stroke-linecap="square"/><path d="m22 14.985758c-2.453409-4.923729-8.144068-5.6165863-10 0"/><path d="m12.021791 18v4" stroke-linecap="square"/><path d="m16.007549 18.0001h-4" stroke-linecap="square"/><path d="m12.021791 18c3.139849 4.949153 8.016949 5.413196 10 0"/></g></svg>