<svg viewBox="0 0 24 24" xmlns="http://www.w3.org/2000/svg" xmlns:xlink="http://www.w3.org/1999/xlink"><linearGradient id="a" gradientUnits="userSpaceOnUse" x1="-14.24444" x2="-14.24444" y1="12.428188" y2="-.571812"><stop offset="0" stop-color="#2a9240"/><stop offset="1" stop-color="#32d74b"/></linearGradient><linearGradient id="b" gradientTransform="matrix(.70710679 .70710677 -.70710677 .70710679 -36 6)" gradientUnits="userSpaceOnUse" x1="2.5" x2="2.5" y1="17" y2="13"><stop offset="0" stop-color="#0040dd"/><stop offset="1" stop-color="#0a84ff"/></linearGradient><path d="m5 3v5 4 9h14v-1.728516-2.285156-7.4121092-1.5742188-1.2714844l-4-3.7285156z" fill="#fff"/><path d="m5 2c-.554 0-1 .446-1 1v6 3 9c0 .554.446 1 1 1h14c.554 0 1-.446 1-1v-3.349609-.664063-4.519531-.042969-2.33789-1.085938-1.75-.2089844c0-.4506799.098038-.4254121-.605469-1.0664062l-3.30664-3.2382813c-.709525-.7368575-.710169-.7363281-1.09375-.7363281h-.332032-.662109zm0 1h9v4c0 .554.446 1 1 1h4v1.5742188 7.4121092 2.285156 1.728516h-14v-9-4z" fill="#98989d"/><path d="m15 7h4l-4-4z" fill="#fff"/><path d="m4 12h9v10h-9z" fill="#fff" fill-opacity=".784314"/><path d="m2 16c-.554 0-1 .446-1 1v.964844.035156 4c0 .554.446 1 1 1h.7167969 7.5664061.716797c.554 0 1-.446 1-1v-4-.035156-.964844c0-.554-.446-1-1-1h-.771484-7.4570316z" fill="#98989d"/><path d="m1 13v4h1.7285156 7.5429684 1.728516v-4h-1.318359-8.3632816z" fill="url(#b)"/><path d="m2 14v2h.7714844 3.2285156v-2h-3.25zm5 0v2h3.228516.771484v-2h-.75zm-5 3v2h.9785156 3.0214844v-2h-3.2714844zm5 0v2h3.021484.978516v-2h-.728516zm-5 3v2h.9765625 3.0234375v-2h-3.0214844zm5 0v2h3.023438.976562v-2h-.978516z" fill="#fff"/><path d="m16.865234 8.984375c-2.875533-.1269755-5.680742 1.932396-6.8125 5.357422a2.0519267 2.0519267 0 0 0 .570313 2.160156 2.0519267 2.0519267 0 0 0 -.333985 2.597656c.724491 1.14197 1.559763 2.119925 2.476563 2.900391h6.234375c.543612 0 .977846-.431181.994141-.970703.814406-.638356 1.51717-1.636661 2.027343-3.029297h-2.021484v-.349609-.664063-2h2c-.535329-1.074348-1.229885-1.934096-2-2.583984v-2.316406-.1875005c-.97404-.5424028-2.033786-.8654463-3.134766-.9140625z" fill="#fff" fill-opacity=".784314"/><g fill="none" stroke="url(#a)" stroke-linecap="round" stroke-width="2"><path d="m22 14.985758v-4" stroke-linecap="square"/><path d="m18.014242 14.985658h4" stroke-linecap="square"/><path d="m22 14.985758c-2.453409-4.923729-8.144068-5.6165863-10 0"/><path d="m12.021791 18v4" stroke-linecap="square"/><path d="m16.007549 18.0001h-4" stroke-linecap="square"/><path d="m12.021791 18c3.139849 4.949153 8.016949 5.413196 10 0"/></g></svg>