<?xml version="1.0" encoding="UTF-8" standalone="no"?>
<svg
   xmlns:dc="http://purl.org/dc/elements/1.1/"
   xmlns:cc="http://creativecommons.org/ns#"
   xmlns:rdf="http://www.w3.org/1999/02/22-rdf-syntax-ns#"
   xmlns:svg="http://www.w3.org/2000/svg"
   xmlns="http://www.w3.org/2000/svg"
   xmlns:sodipodi="http://sodipodi.sourceforge.net/DTD/sodipodi-0.dtd"
   xmlns:inkscape="http://www.inkscape.org/namespaces/inkscape"
   viewBox="0 0 24 24"
   version="1.1"
   id="svg12"
   sodipodi:docname="lc_deleterows.svg"
   inkscape:export-filename="/home/rizmut/Dokumen/Rizmut/Github/libreoffice-style-sukapura/images_sukapura/cmd/lc_deleterows.png"
   inkscape:export-xdpi="96"
   inkscape:export-ydpi="96"
   inkscape:version="0.92.3 (unknown)">
  <metadata
     id="metadata18">
    <rdf:RDF>
      <cc:Work
         rdf:about="">
        <dc:format>image/svg+xml</dc:format>
        <dc:type
           rdf:resource="http://purl.org/dc/dcmitype/StillImage" />
        <dc:title></dc:title>
      </cc:Work>
    </rdf:RDF>
  </metadata>
  <defs
     id="defs16" />
  <sodipodi:namedview
     pagecolor="#ffffff"
     bordercolor="#666666"
     borderopacity="1"
     objecttolerance="10"
     gridtolerance="10"
     guidetolerance="10"
     inkscape:pageopacity="0"
     inkscape:pageshadow="2"
     inkscape:window-width="1366"
     inkscape:window-height="699"
     id="namedview14"
     showgrid="true"
     inkscape:zoom="22.627417"
     inkscape:cx="11.681554"
     inkscape:cy="8.2249662"
     inkscape:window-x="0"
     inkscape:window-y="0"
     inkscape:window-maximized="1"
     inkscape:current-layer="g1749">
    <inkscape:grid
       type="xygrid"
       id="grid828"
       spacingx="0.5"
       spacingy="0.5"
       empspacing="2" />
  </sodipodi:namedview>
  <path
     style="fill:#ffffff;fill-opacity:1"
     d="M 3 3 L 3 8 L 15 8 L 15 3 L 3 3 z M 3 13 L 3 21 L 12 21 L 15 21 L 15 19 L 15 15 L 15 13 L 3 13 z "
     id="path2" />
  <path
     style="fill:#bababa;fill-opacity:1"
     d="M 8,4 V 7 H 3 V 8 H 15 V 7 H 9 V 4 Z m -5,9 v 1 h 5 v 3 H 3 v 1 h 5 v 3 H 9 V 18 H 10.283203 15 V 17 H 10 9 v -3 h 1 5 V 13 H 9 8 Z"
     id="path4"
     inkscape:connector-curvature="0"
     sodipodi:nodetypes="ccccccccccccccccccccccccccccccc" />
  <path
     style="fill:#69696e;fill-opacity:1"
     d="M 2,3 V 8 H 3 V 7 4 h 5 1 6 v 3 1 h 1 V 3 Z m 0,10 v 8 c 0,0.554 0.446,1 1,1 h 12 c 0.554,0 1,-0.446 1,-1 v -2 -1 -1 -2 -2 h -1 v 1 1 2 1 1 1.5 0.5 H 3 V 20.5 18 17 14 13 Z"
     id="path1653"
     inkscape:connector-curvature="0"
     sodipodi:nodetypes="ccccccccccccccsssscccccccccccccccccccc" />
  <g
     id="g1749">
    <rect
       y="9"
       x="9"
       height="3"
       width="12"
       id="rect1686"
       style="opacity:1;fill:#fe665f;fill-opacity:0.96862745;stroke:none;stroke-width:2;stroke-linecap:round;stroke-linejoin:round;stroke-miterlimit:4;stroke-dasharray:none;stroke-opacity:1" />
    <path
       style="fill:#c20618;fill-opacity:1"
       d="m 8,8 v 5 H 22 V 8 Z m 1,1 h 5 v 3 H 9 Z m 6,0 h 6 v 3 h -6 z"
       id="path1648"
       inkscape:connector-curvature="0"
       sodipodi:nodetypes="ccccccccccccccc" />
    <path
       style="fill:#ffffff;fill-opacity:0.78431374;stroke-width:0.5551526"
       d="M 3.0332031 7 A 1.0050113 1.0050113 0 0 0 2.3535156 7.2753906 L 2 7.6113281 L 2 8 L 4.4589844 8 L 3.7578125 7.2949219 A 1.0050113 1.0050113 0 0 0 3.0332031 7 z M 5.8984375 7 A 1.0050113 1.0050113 0 0 0 5.21875 7.3027344 L 4.5390625 8 L 5.5 8 L 7.3925781 8 L 6.6308594 7.2753906 A 1.0050113 1.0050113 0 0 0 5.8984375 7 z M 2 13 L 2 13.34375 L 2 13.382812 L 2.3398438 13.716797 A 1.0050113 1.0050113 0 0 0 3.7753906 13.689453 L 4.4277344 13 L 2 13 z M 4.5839844 13 L 5.2382812 13.691406 A 1.0050113 1.0050113 0 0 0 6.6757812 13.710938 L 7.3886719 13 L 5.5 13 L 4.5839844 13 z "
       id="path1602" />
    <path
       inkscape:connector-curvature="0"
       style="fill:#c20618;stroke-width:0.5551526;fill-opacity:1"
       d="M 6.9963736,11.972914 5.5497003,10.500907 6.9417399,8.9588189 5.9382716,8.0036322 4.5056702,9.4731512 3.0440289,8.0036322 2,8.9939523 3.4616413,10.494626 2,11.971334 3.0440289,13 4.5039748,11.457003 5.9673127,13 Z"
       id="path6" />
  </g>
</svg>
