<?xml version="1.0" encoding="UTF-8" standalone="no"?>
<svg
   xmlns:dc="http://purl.org/dc/elements/1.1/"
   xmlns:cc="http://creativecommons.org/ns#"
   xmlns:rdf="http://www.w3.org/1999/02/22-rdf-syntax-ns#"
   xmlns:svg="http://www.w3.org/2000/svg"
   xmlns="http://www.w3.org/2000/svg"
   xmlns:sodipodi="http://sodipodi.sourceforge.net/DTD/sodipodi-0.dtd"
   xmlns:inkscape="http://www.inkscape.org/namespaces/inkscape"
   viewBox="0 0 24 24"
   version="1.1"
   id="svg6"
   sodipodi:docname="lc_datafilterstandardfilter.svg"
   inkscape:export-filename="/home/rizmut/Dokumen/Rizmut/Github/libreoffice-style-sukapura/images_sukapura/cmd/lc_datafilterstandardfilter.png"
   inkscape:export-xdpi="96"
   inkscape:export-ydpi="96"
   inkscape:version="0.92.3 (unknown)">
  <metadata
     id="metadata12">
    <rdf:RDF>
      <cc:Work
         rdf:about="">
        <dc:format>image/svg+xml</dc:format>
        <dc:type
           rdf:resource="http://purl.org/dc/dcmitype/StillImage" />
        <dc:title></dc:title>
      </cc:Work>
    </rdf:RDF>
  </metadata>
  <defs
     id="defs10" />
  <sodipodi:namedview
     pagecolor="#ffffff"
     bordercolor="#666666"
     borderopacity="1"
     objecttolerance="10"
     gridtolerance="10"
     guidetolerance="10"
     inkscape:pageopacity="0"
     inkscape:pageshadow="2"
     inkscape:window-width="1366"
     inkscape:window-height="706"
     id="namedview8"
     showgrid="true"
     inkscape:zoom="13.906433"
     inkscape:cx="7.7390986"
     inkscape:cy="15.509772"
     inkscape:window-x="0"
     inkscape:window-y="0"
     inkscape:window-maximized="1"
     inkscape:current-layer="svg6">
    <inkscape:grid
       type="xygrid"
       id="grid822"
       spacingx="0.5"
       spacingy="0.5"
       empspacing="2" />
  </sodipodi:namedview>
  <g
     id="g873">
    <path
       id="path4"
       d="M 4.9609375 3.5 L 4.0097656 3.9042969 L 4.0097656 4.8789062 L 4.0097656 5.078125 L 9.9101562 13.328125 C 9.9721722 13.413976 10.005647 13.51714 10.005859 13.623047 L 10.005859 17.5 L 10.005859 21 C 10.009545 21.003145 10.011949 21.004685 10.015625 21.007812 C 11.506508 21.771475 12.505486 21.756637 14 21 L 14 20.529297 L 14 18.951172 L 14 17.5 L 13.994141 17.5 L 13.994141 13.623047 C 13.994351 13.51714 14.027834 13.413975 14.089844 13.328125 L 19.990234 5.078125 L 19.990234 4.8789062 L 19.990234 3.9042969 L 19.039062 3.5 L 4.9609375 3.5 z "
       style="fill:#848489;fill-opacity:1" />
    <path
       sodipodi:nodetypes="cccccccccccccccccccccccccccccccccccccccccccccccccccc"
       inkscape:connector-curvature="0"
       id="path2"
       d="M 4.871557,2.125841 C 4.7393495,2.1259216 4.6124379,2.1778081 4.5180414,2.2703722 L 3.1523438,3.3300781 c -0.048282,0.046622 -0.086791,0.1023955 -0.1132813,0.1640625 v 0.00195 C 3.0132136,3.557965 2.9999349,3.6243554 3,3.6914062 v 1.1875 0.3613282 C 2.9996406,5.3459265 3.032428,5.4490715 3.09375,5.5351562 L 6.9980469,11 8.9882812,13.785156 v 5.427735 0.179687 2.101563 C 8.9880044,21.773634 9.2011646,21.923874 9.4941406,22 11,22.5 13,22.5 14.505861,22 c 0.279493,2.77e-4 0.506136,-0.226366 0.50586,-0.505859 V 19.392578 19.212891 13.785156 L 17.001953,11 20.90625,5.5351562 C 20.967572,5.4490714 21.000359,5.3459265 21,5.2402344 V 3.6914062 C 21.000065,3.6243552 20.98679,3.5579618 20.96094,3.4960938 20.93468,3.4337288 20.89615,3.3772741 20.847658,3.3300781 L 19.5,2.5 C 19.405603,2.4074359 19.278692,2.3555493 19.146484,2.3554688 14.46511,1.2611158 9.957857,0.65566306 4.871557,2.125841 Z M 4.9609375,3.5 C 9.3054396,1.787987 13.884399,1.2287243 19.039062,3.5 l 0.951172,0.4042969 V 4.8789062 5.078125 l -5.90039,8.25 c -0.06201,0.08585 -0.09549,0.189015 -0.0957,0.294922 V 17.5 H 14 V 18.951172 20.529297 21 c -1.5,0.759415 -2.5,0.772208 -4,0 V 20.529297 18.951172 17.5 h 0.0059 V 13.623047 C 10.005688,13.51714 9.972213,13.413976 9.910197,13.328125 l -5.9003906,-8.25 V 4.8789062 3.9042969 Z"
       style="fill:#69696e;fill-opacity:1" />
    <ellipse
       style="opacity:1;fill:#cdcdd0;fill-opacity:1;stroke:#69696e;stroke-width:1.00230575;stroke-linecap:round;stroke-linejoin:round;stroke-miterlimit:4;stroke-dasharray:none;stroke-opacity:1"
       id="path832"
       ry="2.2630322"
       rx="8.4937992"
       cy="3.764185"
       cx="11.994952" />
  </g>
</svg>
