<svg viewBox="0 0 24 24" xmlns="http://www.w3.org/2000/svg" xmlns:xlink="http://www.w3.org/1999/xlink"><linearGradient id="a" gradientUnits="userSpaceOnUse" x1="-28.694915" x2="-28.694915" y1="6.220339" y2="4.220339"><stop offset="0" stop-color="#0040dd"/><stop offset="1" stop-color="#0a84ff"/></linearGradient><path d="m2 6v15h11.128906 7.871094.5.5v-8h-.029297l.029297-7zm1 1h18v6.064453 6.935547h-7.513672-10.486328z" fill="#98989d"/><path d="m3 7v13h10.486328 7.513672v-6.935547-6.064453z" fill="#f3f3f3"/><path d="m1 3h22v2h-22z" fill="url(#a)"/><path d="m9 6.4999996-1.5 5.0000004h-5l4 3-1 5 3.5-3 4.5 3-1.5-5 3.5-3h-4.5z" fill="#ffe014" stroke="#e4b500" stroke-linecap="round" stroke-linejoin="round"/><g fill="#e4b500"><path d="m11 7 .5 1h6.5v-1z"/><path d="m12 9 .5 1h6.5v-1z"/><path d="m17 11 .5 1h2.5v-1z"/><path d="m15 14 1-1h4v1z"/><path d="m14 16 1-1h4v1z"/><path d="m15 17 .5 1h4.5v-1z"/></g></svg>