<svg viewBox="0 0 24 24" xmlns="http://www.w3.org/2000/svg" xmlns:xlink="http://www.w3.org/1999/xlink"><linearGradient id="a" gradientTransform="matrix(-1 0 0 1 33.006499 0)" gradientUnits="userSpaceOnUse" x1="-9.694915" x2="-9.694915" y1="23.220339" y2="16.220339"><stop offset="0" stop-color="#0040dd"/><stop offset="1" stop-color="#0a84ff"/></linearGradient><linearGradient id="b" gradientUnits="userSpaceOnUse" x1="15" x2="17.000001" y1="7" y2="4.999999"><stop offset="0" stop-color="#fff"/><stop offset=".77967989" stop-color="#f1f1f1"/><stop offset="1" stop-color="#d5d5d5"/></linearGradient><radialGradient id="c" cx="17" cy="6.555555" gradientTransform="matrix(1.4285714 -.00000006 .00000006 1.4285714 -7.285714 -4.365078)" gradientUnits="userSpaceOnUse" r="7"><stop offset="0" stop-color="#d7d7d7"/><stop offset=".29999998" stop-color="#f7f7f7"/><stop offset="1" stop-color="#fff"/></radialGradient><path d="m5 3v18h14v-14.2705905l-4-3.7294095z" fill="url(#c)"/><path d="m5 2c-.554 0-1 .446-1 1v18c0 .554.446 1 1 1h14c.554 0 1-.446 1-1v-10.109375-3.6412209-.2079239c0-.4506799.09887-.4265951-.604637-1.0675892l-3.307389-3.2370335c-.709525-.7368575-.711223-.7368575-1.094804-.7368575h-.331557-.661613zm0 1h9v4c0 .554.446 1 1 1h4v13h-14z" fill="#98989d"/><path d="m15 7h4l-4-4z" fill="#fff" fill-rule="evenodd"/><path d="m15 3 4 4h-4z" fill="url(#b)"/><path d="m14.513672 14c-.396927-.000987-.790805.163502-1.06836.447266l-2.945312 2.941406.105469-.091797c-.7326263.549931-.7389162 1.819864-.011719 2.376953l-.099609-.08789 2.412109 2.414062h3.003906c.102803-.289871.133304-.606418.046875-.902344l.039063.277344v-.384766h4.003906v-4.980468h-4.003906v-.445313l-.011719.146485c.126573-.843881-.617539-1.709057-1.470703-1.710938z" fill="#fff" fill-opacity=".784314"/><path d="m14.512358 14.990234a.50005.50005 0 0 1 .494141.574219v1.435547h6.5c.277 0 .5.223.5.5v.998047 1.001953c0 .277-.223.5-.5.5h-6.5v1.375a.50005.50005 0 0 1 -.853516.472656l-2.957031-2.960937a.50005.50005 0 0 1 .0039-.796875l2.953125-2.949219a.50005.50005 0 0 1 .359375-.150391z" fill="url(#a)"/></svg>