<svg viewBox="0 0 24 24" xmlns="http://www.w3.org/2000/svg"><path d="m2 5v8.259766 6.740234h8.398438 3.203124 8.398438v-6.740234-8.259766zm1 1h18v6.607422 6.392578h-7.789062-2.421876-7.789062v-6.392578z" fill="#98989d"/><path d="m3 6v6.607422 6.392578h7.789062 2.421876 7.789062v-6.392578-6.607422z" fill="#fff"/><path d="m1 3h22v2h-22z" fill="#69696e"/><path d="m9 6.4999996-1.5 5.0000004h-5l4 3-1 5 3.5-3 4.5 3-1.5-5 3.5-3h-4.5z" fill="#ffe014" stroke="#e4b500" stroke-linecap="round" stroke-linejoin="round"/><g fill="#e4b500"><path d="m11 7 .5 1h6.5v-1z"/><path d="m12 9 .5 1h6.5v-1z"/><path d="m17 11 .5 1h2.5v-1z"/><path d="m15 14 1-1h4v1z"/><path d="m14 16 1-1h4v1z"/><path d="m15 17 .5 1h4.5v-1z"/></g></svg>