<?xml version="1.0" encoding="UTF-8" standalone="no"?>
<svg
   xmlns:dc="http://purl.org/dc/elements/1.1/"
   xmlns:cc="http://creativecommons.org/ns#"
   xmlns:rdf="http://www.w3.org/1999/02/22-rdf-syntax-ns#"
   xmlns:svg="http://www.w3.org/2000/svg"
   xmlns="http://www.w3.org/2000/svg"
   xmlns:xlink="http://www.w3.org/1999/xlink"
   xmlns:sodipodi="http://sodipodi.sourceforge.net/DTD/sodipodi-0.dtd"
   xmlns:inkscape="http://www.inkscape.org/namespaces/inkscape"
   viewBox="0 0 24 24"
   version="1.1"
   id="svg43"
   sodipodi:docname="lc_defaultnumbering.svg"
   inkscape:version="0.92.3 (2405546, 2018-03-11)">
  <metadata
     id="metadata49">
    <rdf:RDF>
      <cc:Work
         rdf:about="">
        <dc:format>image/svg+xml</dc:format>
        <dc:type
           rdf:resource="http://purl.org/dc/dcmitype/StillImage" />
      </cc:Work>
    </rdf:RDF>
  </metadata>
  <defs
     id="defs47" />
  <sodipodi:namedview
     pagecolor="#ffffff"
     bordercolor="#666666"
     borderopacity="1"
     objecttolerance="10"
     gridtolerance="10"
     guidetolerance="10"
     inkscape:pageopacity="0"
     inkscape:pageshadow="2"
     inkscape:window-width="1366"
     inkscape:window-height="716"
     id="namedview45"
     showgrid="false"
     inkscape:zoom="9.8333333"
     inkscape:cx="-6.7627119"
     inkscape:cy="12"
     inkscape:window-x="-8"
     inkscape:window-y="-8"
     inkscape:window-maximized="1"
     inkscape:current-layer="svg43" />
  <linearGradient
     id="a"
     gradientTransform="translate(-25.830508 -3.59322)"
     gradientUnits="userSpaceOnUse"
     x1="14"
     x2="13.79661"
     y1="22"
     y2="2.135593">
    <stop
       offset="0"
       stop-color="#0040dd"
       id="stop2" />
    <stop
       offset="1"
       stop-color="#0a84ff"
       id="stop4" />
  </linearGradient>
  <linearGradient
     id="b"
     gradientUnits="userSpaceOnUse"
     x1="4.696594"
     x2="4.417998"
     xlink:href="#a"
     y1="8.020184"
     y2="2.231497" />
  <linearGradient
     id="c"
     gradientUnits="userSpaceOnUse"
     x1="4.186441"
     x2="4.089086"
     xlink:href="#a"
     y1="15.796609"
     y2="10" />
  <g
     fill="#69696e"
     transform="scale(-1 1)"
     id="g21"
     style="fill:#4b4b4f;fill-opacity:1">
    <rect
       height="1"
       ry=".5"
       width="14.999998"
       x="-22"
       y="2"
       id="rect9"
       style="fill:#4b4b4f;fill-opacity:1" />
    <rect
       height="1"
       ry=".392136"
       width="15.000005"
       x="-22"
       y="10"
       id="rect11"
       style="fill:#4b4b4f;fill-opacity:1" />
    <rect
       height="1"
       ry=".436441"
       width="15.000001"
       x="-22"
       y="18"
       id="rect13"
       style="fill:#4b4b4f;fill-opacity:1" />
    <rect
       height="1"
       ry=".5"
       width="8.999999"
       x="-16"
       y="21"
       id="rect15"
       style="fill:#4b4b4f;fill-opacity:1" />
    <rect
       height="1"
       ry=".5"
       width="8.999999"
       x="-16"
       y="13"
       id="rect17"
       style="fill:#4b4b4f;fill-opacity:1" />
    <rect
       height="1"
       ry=".5"
       width="9.000002"
       x="-16"
       y="5"
       id="rect19"
       style="fill:#4b4b4f;fill-opacity:1" />
  </g>
  <g
     fill="#0a84ff"
     id="g27">
    <path
       d="m2.4805826 7h1.2475728v-3.168421c0-.1383459.00485-.2827068.014563-.4330828l-.8398058.6721804c-.055016.042105-.1100322.067669-.1650486.076692-.055016.00902-.1067959.00902-.1553397 0-.048543-.00902-.092233-.02406-.1310679-.045113-.035599-.02406-.063107-.04812-.082524-.072181l-.3689324-.4691724 1.9368932-1.5609022h1.0631068v5h1v1h-3.5194174z"
       fill="url(#b)"
       id="path23" />
    <path
       d="m4.0890866 10q.4097995 0 .7438753.125093.3385299.120625.5746101.344006.2405345.223381.3697104.540581.1336303.312732.1336303.692479 0 .326136-.093541.607595-.093541.276992-.2494431.531646-.155902.250186-.3652561.491437-.2093542.236784-.44098.478035l-1.2561245 1.317944q.2004453-.06254.4008908-.09382.2004455-.03574.3741648-.03574h1.340757q.1692651 0 .2717149.09829.1069045.098283.1069045.259116v.643336h-3.9999996v-.361876q0-.102755.040089-.218913.044543-.120625.1514477-.22338l1.7193762-1.773642q.2182627-.227848.3830734-.433358.169265-.20551.2806235-.406552.115813-.20551.1737195-.411021.057907-.209977.057907-.437825 0-.411021-.2048997-.620998-.2048999-.209978-.5790646-.209978-.1603563 0-.2939866.04915-.1336303.04915-.2405345.134028-.1069042.08488-.1826281.201043-.075724.116158-.1158128.250186-.07127.205509-.1959911.268056-.1202672.06254-.3340757.0268l-.5701567-.098285q.0668152-.433358.2405345-.755027.1737193-.326134.4320712-.54058.2628062-.218913.6013362-.326136.3385301-.11169.7260578-.11169z"
       fill="url(#c)"
       id="path25" />
  </g>
  <g
     fill="#e9e9e9"
     fill-opacity=".992157"
     transform="matrix(-1 0 0 1 0 1)"
     id="g41">
    <rect
       height="1"
       ry=".5"
       width="14.999998"
       x="-22"
       y="2"
       id="rect29" />
    <rect
       height="1"
       ry=".392136"
       width="15.000005"
       x="-22"
       y="10"
       id="rect31" />
    <rect
       height="1"
       ry=".436441"
       width="15.000001"
       x="-22"
       y="18"
       id="rect33" />
    <rect
       height="1"
       ry=".5"
       width="8.999999"
       x="-16"
       y="21"
       id="rect35" />
    <rect
       height="1"
       ry=".5"
       width="8.999999"
       x="-16"
       y="13"
       id="rect37" />
    <rect
       height="1"
       ry=".5"
       width="9.000002"
       x="-16"
       y="5"
       id="rect39" />
  </g>
</svg>
