<?xml version="1.0" encoding="UTF-8" standalone="no"?>
<svg
   xmlns:dc="http://purl.org/dc/elements/1.1/"
   xmlns:cc="http://creativecommons.org/ns#"
   xmlns:rdf="http://www.w3.org/1999/02/22-rdf-syntax-ns#"
   xmlns:svg="http://www.w3.org/2000/svg"
   xmlns="http://www.w3.org/2000/svg"
   xmlns:sodipodi="http://sodipodi.sourceforge.net/DTD/sodipodi-0.dtd"
   xmlns:inkscape="http://www.inkscape.org/namespaces/inkscape"
   viewBox="0 0 24 24"
   version="1.1"
   id="svg30"
   sodipodi:docname="lc_dbformedit.svg"
   inkscape:version="0.92.4 (unknown)">
  <metadata
     id="metadata36">
    <rdf:RDF>
      <cc:Work
         rdf:about="">
        <dc:format>image/svg+xml</dc:format>
        <dc:type
           rdf:resource="http://purl.org/dc/dcmitype/StillImage" />
        <dc:title></dc:title>
      </cc:Work>
    </rdf:RDF>
  </metadata>
  <defs
     id="defs34" />
  <sodipodi:namedview
     pagecolor="#ffffff"
     bordercolor="#666666"
     borderopacity="1"
     objecttolerance="10"
     gridtolerance="10"
     guidetolerance="10"
     inkscape:pageopacity="0"
     inkscape:pageshadow="2"
     inkscape:window-width="1360"
     inkscape:window-height="714"
     id="namedview32"
     showgrid="false"
     inkscape:zoom="13.906433"
     inkscape:cx="5.5727475"
     inkscape:cy="10.391569"
     inkscape:window-x="0"
     inkscape:window-y="28"
     inkscape:window-maximized="1"
     inkscape:current-layer="svg30" />
  <linearGradient
     id="a"
     gradientUnits="userSpaceOnUse"
     x1="12"
     x2="12"
     y1="2"
     y2="22">
    <stop
       offset="0"
       stop-color="#848489"
       id="stop2" />
    <stop
       offset="1"
       stop-color="#616165"
       id="stop4" />
  </linearGradient>
  <linearGradient
     id="b"
     gradientUnits="userSpaceOnUse"
     x1="63"
     x2="63"
     y1="35"
     y2="20">
    <stop
       offset="0"
       stop-color="#e9e9e9"
       id="stop7" />
    <stop
       offset=".2857143"
       stop-color="#f2f2f2"
       id="stop9" />
    <stop
       offset="1"
       stop-color="#fbfbfb"
       id="stop11" />
  </linearGradient>
  <path
     d="m3 6h18v15h-18z"
     fill="url(#b)"
     id="path14" />
  <path
     d="m3 2c-.554 0-1 .446-1 1v18c0 .554.446 1 1 1h18c.554 0 1-.446 1-1v-18c0-.554-.446-1-1-1zm0 4h18v15h-18z"
     fill="url(#a)"
     id="path16" />
  <g
     fill="#98989d"
     id="g26">
    <path
       d="m10.5 10c-.277 0-.5.223-.5.5v2c0 .277.223.5.5.5h7c.277 0 .5-.223.5-.5v-2c0-.277-.223-.5-.5-.5zm.5 1h6v1h-6z"
       id="path18" />
    <path
       d="m6.5 10c-.277 0-.5.223-.5.5v2c0 .277.223.5.5.5h2c.277 0 .5-.223.5-.5v-2c0-.277-.223-.5-.5-.5zm.5 1h1v1h-1z"
       id="path20" />
    <path
       d="m10.5 15c-.277 0-.5.223-.5.5v2c0 .277.223.5.5.5h7c.277 0 .5-.223.5-.5v-2c0-.277-.223-.5-.5-.5zm.5 1h6v1h-6z"
       id="path22" />
    <path
       d="m6.5 15c-.277 0-.5.223-.5.5v2c0 .277.223.5.5.5h2c.277 0 .5-.223.5-.5v-2c0-.277-.223-.5-.5-.5zm.5 1h1v1h-1z"
       id="path24" />
  </g>
  <g
     style="fill:#eac282"
     transform="translate(-1.602597,-1.200058)"
     id="g1011">
    <path
       style="fill:#a2a2a7;stroke:#848489"
       inkscape:connector-curvature="0"
       d="M 11.794252,19.654584 11,23 13.979799,22.04521 Z"
       transform="translate(1,1)"
       id="path1001" />
    <path
       style="fill:#e68497;stroke:#b6496c"
       inkscape:connector-curvature="0"
       d="m 21.527817,11.706205 c -0.189562,0 -0.378184,0.07172 -0.523438,0.216797 l -1.673828,1.669922 2.847656,2.849609 1.710938,-1.638672 c 0.290506,-0.290127 0.290506,-0.756747 0,-1.046875 l -1.835938,-1.833984 c -0.145254,-0.145064 -0.335828,-0.216797 -0.52539,-0.216797 z"
       id="path1003" />
    <path
       style="fill:#ffcc00;stroke:#c89e00"
       inkscape:connector-curvature="0"
       d="m 17.588364,13.317533 -5.439453,5.433594 c 0.648096,0.793958 1.89093,2.102781 2.714843,2.957031 l 0.05078,-0.01367 5.509765,-5.544922 z"
       transform="translate(1,1)"
       id="path1005" />
    <path
       style="fill:#ffe014"
       inkscape:connector-curvature="0"
       d="m 21.093491,16.135775 -1.284233,-1.373643 -6.299585,6.125687 1.263119,1.338035 z"
       id="path1007" />
    <path
       style="fill:none;stroke:#f398b3"
       inkscape:connector-curvature="0"
       d="m 20.379082,13.977391 1.118644,-1.067797 1.703389,1.677967"
       id="path1009" />
  </g>
</svg>
