<svg viewBox="0 0 24 24" xmlns="http://www.w3.org/2000/svg" xmlns:xlink="http://www.w3.org/1999/xlink"><linearGradient id="a" gradientUnits="userSpaceOnUse" x1="-28.694915" x2="-28.694915" y1="6.220339" y2="4.220339"><stop offset="0" stop-color="#0040dd"/><stop offset="1" stop-color="#0a84ff"/></linearGradient><path d="m2 6v15h11.128906 7.871094.5.5v-8h-.029297l.029297-7zm1 1h18v6.064453 6.935547h-7.513672-10.486328z" fill="#98989d"/><path d="m3 7v13h10.486328 7.513672v-6.935547-6.064453z" fill="#f3f3f3"/><path d="m1 3h22v2h-22z" fill="url(#a)"/><path d="m5 9h14v2h-14z" fill="#ff9500"/><path d="m18.5 13a5.5 5.5 0 0 0 -5.5 5.5 5.5 5.5 0 0 0 .601562 2.5h8.398438v-6.740234a5.5 5.5 0 0 0 -3.5-1.259766z" fill="#fff" fill-opacity=".784314"/><path d="m18.5 14a4.5 4.5 0 0 0 -4.5 4.5 4.5 4.5 0 0 0 4.5 4.5 4.5 4.5 0 0 0 4.5-4.5 4.5 4.5 0 0 0 -4.5-4.5zm0 1a3.5 3.5 0 0 1 3.5 3.5 3.5 3.5 0 0 1 -3.5 3.5 3.5 3.5 0 0 1 -3.5-3.5 3.5 3.5 0 0 1 3.5-3.5z" fill="#98989d"/><circle cx="18.5" cy="18.5" fill="#fff" r="3.5"/><g fill="#98989d"><path d="m18 16h1v3h-1z"/><path d="m19 18h1v1h-1z"/></g></svg>