<svg viewBox="0 0 24 24" xmlns="http://www.w3.org/2000/svg" xmlns:xlink="http://www.w3.org/1999/xlink"><linearGradient id="a" gradientUnits="userSpaceOnUse" x1="15" x2="17.0000008" y1="8" y2="5.9999992"><stop offset="0" stop-color="#fff"/><stop offset=".77967989" stop-color="#f1f1f1"/><stop offset="1" stop-color="#d5d5d5"/></linearGradient><radialGradient id="b" cx="17" cy="6.555555" gradientTransform="matrix(1.4285714 -.00000006 .00000006 1.4285714 -7.285714 -4.365078)" gradientUnits="userSpaceOnUse" r="7"><stop offset="0" stop-color="#d7d7d7"/><stop offset=".29999998" stop-color="#f7f7f7"/><stop offset="1" stop-color="#fff"/></radialGradient><path d="m5 4v17h14v-13.2705905l-4-3.7294095z" fill="url(#b)"/><path d="m5 3c-.554 0-1 .446-1 1v17c0 .554.446 1 1 1h5.183594a1.0001 1.0001 0 0 1 .228515-.488281c.003-.0032.000907-.0085.0039-.01172a1.0001 1.0001 0 0 1 .0078-.0078c.07109-.07214.01823-.01806.01953-.01758a1.0001 1.0001 0 0 1 .08594-.08008c.16118-.134766.298595-.263285.447283-.394539h-5.976562v-17h9v4c0 .554.446 1 1 1h4v7.623047c.281406.183398.615707.347736 1 .494141v-8.867188-.2089844c0-.4506799.098038-.4254121-.605469-1.0664062l-3.30664-3.2382813c-.709525-.7368575-.710169-.7363281-1.09375-.7363281h-.332032-.662109zm14 17.121094v.878906h-3.181641c-.490395.259154-1.00132.591845-1.535156 1h5.716797v-.753906-.246094-.830078c-.05069-.01448-.105973-.02633-.15625-.04102-.281796-.02259-.5625-.01731-.84375-.0078z" fill="#98989d"/><path d="m16.138672 10c-.560047-.00967-.987812.358845-1.244141.832031a1.0001 1.0001 0 0 0 -.216797.390625c-.0033.01839-.02279.028255-.02539.046875a1.0001 1.0001 0 0 0 0 .001953c-.0039.02821.0016.030121 0 .056641-.000108.0018.000098.002106 0 .003906a1.0001 1.0001 0 0 0 -.011719.216797c.00894.177004.008931.386536.019531.625-.04586.686373-.022071 1.319488.042969 1.910156-.021967.732878-.095538 1.423899-.300781 2.123047-.409255 1.394077-1.305759 2.921529-3.425782 4.792969h4.841797c.658703-.348098 1.283219-.579695 1.876953-.71875.366843-.085919.725672-.138359 1.082032-.162109.074404-.0049.148436.004453.222656.001953v-3.498047c-.204451-.133245-.391278-.272988-.537109-.425781-.39176-.410462-.678257-1.097367-.835938-2.03711.03089-.960922.001001-1.889816-.042969-2.761718a1.0001 1.0001 0 0 0 0-.001954c-.040222-.762545-.680095-1.381424-1.443359-1.396484z" fill="#fff"/><path d="m15 4 4 4h-4z" fill="url(#a)"/><path d="m11.473603 22.526341c5.226938-4.370563 4.807709-7.688322 4.637891-11.052586-.748906 5.401898 2.038932 7.334389 6.414603 7.709274-3.299738-1.04046-6.796542-.976274-11.052494 3.343312z" fill="none" stroke="#ff453a" stroke-linecap="round" stroke-linejoin="round" stroke-width=".948529"/></svg>