<svg viewBox="0 0 24 24" xmlns="http://www.w3.org/2000/svg"><path d="m7.8984375 2-5.8984375 16h1.6875c.1834758 0 .3391616-.05267.4667969-.158203.1356125-.10553.2275274-.227232.2753906-.365235l1.328125-3.835937h6.4843755l.472656 1.359375h1.960937l.16211-.162109-4.72461-12.837891zm1.1015625 2.09375c.071795.3003551.1467904.5800771.2265625.8398438.079772.2597666.1604623.4887687.2402344.6835937l2.2246091 6.4414065h-5.3828122l2.2246093-6.4296878c.0717949-.1948249.1467904-.421874.2265625-.6816406s.1604623-.5450428.2402344-.8535156z" fill="#69696e"/><g fill="#eac282" transform="translate(-2.602597 -1.200058)"><path d="m11.794252 19.654584-.794252 3.345416 2.979799-.95479z" fill="#a2a2a7" stroke="#848489" transform="translate(1 1)"/><path d="m21.527817 11.706205c-.189562 0-.378184.07172-.523438.216797l-1.673828 1.669922 2.847656 2.849609 1.710938-1.638672c.290506-.290127.290506-.756747 0-1.046875l-1.835938-1.833984c-.145254-.145064-.335828-.216797-.52539-.216797z" fill="#e68497" stroke="#b6496c"/><path d="m17.588364 13.317533-5.439453 5.433594c.648096.793958 1.89093 2.102781 2.714843 2.957031l.05078-.01367 5.509765-5.544922z" fill="#fc0" stroke="#c89e00" transform="translate(1 1)"/><path d="m21.093491 16.135775-1.284233-1.373643-6.299585 6.125687 1.263119 1.338035z" fill="#ffe014"/><path d="m20.379082 13.977391 1.118644-1.067797 1.703389 1.677967" fill="none" stroke="#f398b3"/></g></svg>