<?xml version="1.0" encoding="UTF-8" standalone="no"?>
<svg
   xmlns:dc="http://purl.org/dc/elements/1.1/"
   xmlns:cc="http://creativecommons.org/ns#"
   xmlns:rdf="http://www.w3.org/1999/02/22-rdf-syntax-ns#"
   xmlns:svg="http://www.w3.org/2000/svg"
   xmlns="http://www.w3.org/2000/svg"
   xmlns:sodipodi="http://sodipodi.sourceforge.net/DTD/sodipodi-0.dtd"
   xmlns:inkscape="http://www.inkscape.org/namespaces/inkscape"
   viewBox="0 0 24 24"
   version="1.1"
   id="svg30"
   sodipodi:docname="lc_entirerow.svg"
   inkscape:export-filename="/home/rizmut/Documents/Rizmut/Github/libreoffice-style-sukapura/images_sukapura/cmd/lc_entirecolumn.png"
   inkscape:export-xdpi="96"
   inkscape:export-ydpi="96"
   inkscape:version="0.92.3 (2405546, 2018-03-11)">
  <metadata
     id="metadata36">
    <rdf:RDF>
      <cc:Work
         rdf:about="">
        <dc:format>image/svg+xml</dc:format>
        <dc:type
           rdf:resource="http://purl.org/dc/dcmitype/StillImage" />
        <dc:title></dc:title>
      </cc:Work>
    </rdf:RDF>
  </metadata>
  <defs
     id="defs34" />
  <sodipodi:namedview
     pagecolor="#ffffff"
     bordercolor="#666666"
     borderopacity="1"
     objecttolerance="10"
     gridtolerance="10"
     guidetolerance="10"
     inkscape:pageopacity="0"
     inkscape:pageshadow="2"
     inkscape:window-width="1366"
     inkscape:window-height="685"
     id="namedview32"
     showgrid="true"
     inkscape:zoom="9.8333333"
     inkscape:cx="18.793495"
     inkscape:cy="4.1237808"
     inkscape:window-x="0"
     inkscape:window-y="0"
     inkscape:window-maximized="1"
     inkscape:current-layer="svg30">
    <inkscape:grid
       type="xygrid"
       id="grid843" />
  </sodipodi:namedview>
  <g
     transform="translate(-20)"
     id="g28">
    <path
       d="m33.950043 17.837242 2.950147 2.950148 5.162758-5.162758c.451264-.371629 0-.737537 0-.737537l-2.212611-2.21261s-.339362-.398175-.737537 0z"
       fill="none"
       stroke="#808080"
       stroke-linejoin="round"
       stroke-width="1.475074"
       id="path10"
       style="stroke:#f5c200;stroke-opacity:1;stroke-width:2;stroke-miterlimit:4;stroke-dasharray:none" />
    <path
       d="m33.950043 17.837242 2.950147 2.950148 5.162758-5.162758c.504354-.371629 0-.737537 0-.737537l-2.212611-2.21261s-.365907-.42472-.737537 0z"
       fill="#eac282"
       fill-rule="evenodd"
       id="path12"
       style="fill:#fbe35a;fill-opacity:1" />
    <path
       d="m33.950043 17.837242v1.475074l1.475073 1.475074h1.475074z"
       fill="none"
       stroke="#808080"
       stroke-linejoin="round"
       stroke-width="1.475074"
       id="path14"
       style="stroke:#616165;stroke-opacity:1;stroke-width:2;stroke-miterlimit:4;stroke-dasharray:none" />
    <path
       d="m33.950043 17.837242v1.475074l1.475073 1.475074h1.475074z"
       fill="#fff"
       fill-rule="evenodd"
       id="path16"
       style="fill:#98989d;fill-opacity:1" />
    <path
       d="m31.737432 22.262463h1.475074l.737537-.737537-.737537-.737536z"
       id="path18"
       style="stroke:#f5c200;stroke-opacity:1;stroke-width:2;stroke-miterlimit:4;stroke-dasharray:none"
       stroke-linejoin="round"
       stroke-width="1.475074"
       stroke="#808080"
       fill="none" />
    <path
       d="m 33.765659,20.118997 -0.248068,0.299749 0.76207,0.784396 0.292678,-0.162224 z"
       id="path20"
       style="fill:none;stroke:#616165;stroke-width:2;stroke-miterlimit:4;stroke-dasharray:none;stroke-opacity:1"
       inkscape:connector-curvature="0"
       sodipodi:nodetypes="ccccc" />
    <g
       fill-rule="evenodd"
       id="g26">
      <path
         d="m33.765659 20.118997-.553153.668393.737537.737536.622296-.484008z"
         fill="#fff"
         id="path22"
         style="fill:#98989d;fill-opacity:1" />
      <path
         d="m31.737432 22.262463h1.475074l.737537-.737537-.737537-.737536z"
         fill="#eac282"
         id="path24"
         style="fill:#fbe35a;fill-opacity:1" />
    </g>
  </g>
  <path
     inkscape:connector-curvature="0"
     style="fill:#ffffff"
     d="M 3,3 V 8 H 21 V 3 Z m 0,6 v 12 h 7.542969 l 1.382812,-1.382812 0.285157,-0.345704 v -1.433593 a 1.0001,1.0001 0 0 0 0,-0.002 c 5.22e-4,-0.460018 0.184394,-0.901432 0.509765,-1.226563 l 5.130859,-5.128906 -0.04492,0.04883 c 0.304121,-0.347566 0.691446,-0.612471 1.1875,-0.726563 0.926697,-0.213127 1.650012,0.262938 1.917968,0.490235 l -0.002,-0.0039 c 0.05419,0.0456 0.058,0.05493 0.08984,0.08594 V 9 Z M 21,19.144531 19.144531,21 H 21 Z"
     id="path2-9" />
  <path
     style="fill:#bababa;fill-opacity:1"
     d="M 8 10 L 8 13 L 3 13 L 3 14 L 8 14 L 8 17 L 3 17 L 3 18 L 8 18 L 8 21 L 9 21 L 9 18 L 10.283203 18 L 12.210938 18 L 12.210938 17.837891 A 1.0001 1.0001 0 0 0 12.210938 17.835938 C 12.211099 17.694544 12.233988 17.556917 12.267578 17.421875 C 12.272278 17.403975 12.277933 17.386871 12.283203 17.369141 C 12.319353 17.241253 12.369363 17.118283 12.433594 17.001953 C 12.433594 17.001953 12.435547 17 12.435547 17 L 10 17 L 9 17 L 9 14 L 15 14 L 15 14.330078 L 15.798828 13.53125 L 16.332031 13 L 16 13 L 16 10.283203 L 16 10 L 15 10 L 15 12 L 15 13 L 9 13 L 9 10 L 8 10 z "
     id="path4-1" />
  <path
     inkscape:connector-curvature="0"
     style="fill:#fbe35a;fill-opacity:1"
     d="M 3,4 H 21 V 7 H 3 Z"
     id="path6-2" />
  <path
     inkscape:connector-curvature="0"
     style="fill:#69696e;stroke:none;stroke-opacity:1;fill-opacity:1"
     d="M 2,3 V 8 H 22 V 3 Z M 3,4 H 8 V 7 H 3 Z m 6,0 h 6 V 7 H 9 Z m 7,0 h 5 v 3 h -5 z"
     id="path8-8" />
  <path
     style="fill:#69696e;fill-opacity:1"
     d="M 2 9 L 2 10 L 2 21 C 2 21.554 2.446 22 3 22 L 10.033203 22 C 10.058883 21.830643 10.108433 21.666378 10.183594 21.507812 C 10.187094 21.500212 10.187806 21.491965 10.191406 21.484375 C 10.271316 21.321939 10.375035 21.167631 10.509766 21.033203 L 10.542969 21 L 9 21 L 8 21 L 3 21 L 3 18 L 3 17 L 3 14 L 3 13 L 3 10 L 8 10 L 9 10 L 15 10 L 16 10 L 21 10 L 21 11.375 C 21.03999 11.41393 21.102081 11.47005 21.113281 11.482422 L 21.142578 11.511719 L 22 12.369141 L 22 10 L 22 9 L 2 9 z M 22 18.144531 L 21 19.144531 L 21 21 L 19.144531 21 L 18.144531 22 L 19 22 L 20 22 L 21 22 C 21.554 22 22 21.554 22 21 L 22 19 L 22 18.144531 z "
     id="path2736" />
  <rect
     style="opacity:1;fill:#bababa;fill-opacity:1;stroke:none;stroke-width:2;stroke-linecap:round;stroke-linejoin:round;stroke-miterlimit:4;stroke-dasharray:none;stroke-opacity:1"
     id="rect2770"
     width="1"
     height="3"
     x="8"
     y="4" />
  <rect
     style="opacity:1;fill:#bababa;fill-opacity:1;stroke:none;stroke-width:2;stroke-linecap:round;stroke-linejoin:round;stroke-miterlimit:4;stroke-dasharray:none;stroke-opacity:1"
     id="rect2772"
     width="1"
     height="3"
     x="15"
     y="4" />
</svg>
