<?xml version="1.0" encoding="UTF-8" standalone="no"?>
<svg
   xmlns:dc="http://purl.org/dc/elements/1.1/"
   xmlns:cc="http://creativecommons.org/ns#"
   xmlns:rdf="http://www.w3.org/1999/02/22-rdf-syntax-ns#"
   xmlns:svg="http://www.w3.org/2000/svg"
   xmlns="http://www.w3.org/2000/svg"
   xmlns:sodipodi="http://sodipodi.sourceforge.net/DTD/sodipodi-0.dtd"
   xmlns:inkscape="http://www.inkscape.org/namespaces/inkscape"
   viewBox="0 0 24 24"
   version="1.1"
   id="svg30"
   sodipodi:docname="lc_entirecolumn.svg"
   inkscape:export-filename="/home/rizmut/Documents/Rizmut/Github/libreoffice-style-sukapura/images_sukapura/cmd/lc_entirecolumn.png"
   inkscape:export-xdpi="96"
   inkscape:export-ydpi="96"
   inkscape:version="0.92.3 (2405546, 2018-03-11)">
  <metadata
     id="metadata36">
    <rdf:RDF>
      <cc:Work
         rdf:about="">
        <dc:format>image/svg+xml</dc:format>
        <dc:type
           rdf:resource="http://purl.org/dc/dcmitype/StillImage" />
      </cc:Work>
    </rdf:RDF>
  </metadata>
  <defs
     id="defs34" />
  <sodipodi:namedview
     pagecolor="#ffffff"
     bordercolor="#666666"
     borderopacity="1"
     objecttolerance="10"
     gridtolerance="10"
     guidetolerance="10"
     inkscape:pageopacity="0"
     inkscape:pageshadow="2"
     inkscape:window-width="1366"
     inkscape:window-height="685"
     id="namedview32"
     showgrid="true"
     inkscape:zoom="19.666667"
     inkscape:cx="7.7678062"
     inkscape:cy="-3.9326026"
     inkscape:window-x="0"
     inkscape:window-y="0"
     inkscape:window-maximized="1"
     inkscape:current-layer="svg30">
    <inkscape:grid
       type="xygrid"
       id="grid843" />
  </sodipodi:namedview>
  <path
     d="m3 3v18h7v-18zm8 0v17.542969l.925781-.925781.285157-.345704v-1.433593-.001953c.000522-.460019.184394-.901432.509765-1.226563l5.130859-5.128906-.044921.048828c.304121-.347566.691446-.612471 1.1875-.726563.926697-.213127 1.650012.262938 1.917968.490235l-.001953-.003907c.05419.045601.058004.054928.089844.085938v-8.375zm10 16.144531-1.855469 1.855469h1.855469z"
     fill="#fff"
     id="path2" />
  <path
     d="m3 3v18h6v-18z"
     fill="#eac282"
     id="path4"
     style="fill:#fbe35a;fill-opacity:1" />
  <path
     d="m11 2v4h4v3h-4v1h4v3h-4v1h4v.330078l.798828-.798828.533203-.53125h-.332031v-3h5v1.375c.039986.038934.102081.095047.113281.107422l.029297.029297.857422.857422v-6.369141-3-1h-1zm5 4h5v3h-5zm-5 11v1h1.210938v-.162109a1.0001 1.0001 0 0 0 0-.001953c.000161-.141394.023051-.279021.05664-.414063.004697-.017903.010359-.035001.015625-.052734.03615-.127888.086158-.250858.150391-.367188.000412-.000746.001539-.001207.001953-.001953zm11 1.144531-1 1v1.855469h-1.855469l-1 1h2.855469c.554 0 1-.446 1-1z"
     fill="#808080"
     id="path6"
     style="fill:#69696e;fill-opacity:1" />
  <path
     d="m2 2v18.5.5.5c0 .277.223.5.5.5h6.5.5.5v-.5-.5-19zm1 4h6v3h-6zm0 4h6v3h-6zm0 4h6v3h-6zm0 4h6v3h-6v-.5z"
     fill="#808080"
     id="path8"
     style="fill:#69696e;fill-opacity:1" />
  <g
     transform="translate(-20)"
     id="g28">
    <path
       d="m33.950043 17.837242 2.950147 2.950148 5.162758-5.162758c.451264-.371629 0-.737537 0-.737537l-2.212611-2.21261s-.339362-.398175-.737537 0z"
       fill="none"
       stroke="#808080"
       stroke-linejoin="round"
       stroke-width="1.475074"
       id="path10"
       style="stroke:#f5c200;stroke-opacity:1;stroke-width:2;stroke-miterlimit:4;stroke-dasharray:none" />
    <path
       d="m33.950043 17.837242 2.950147 2.950148 5.162758-5.162758c.504354-.371629 0-.737537 0-.737537l-2.212611-2.21261s-.365907-.42472-.737537 0z"
       fill="#eac282"
       fill-rule="evenodd"
       id="path12"
       style="fill:#fbe35a;fill-opacity:1" />
    <path
       d="m33.950043 17.837242v1.475074l1.475073 1.475074h1.475074z"
       fill="none"
       stroke="#808080"
       stroke-linejoin="round"
       stroke-width="1.475074"
       id="path14"
       style="stroke:#616165;stroke-opacity:1;stroke-width:2;stroke-miterlimit:4;stroke-dasharray:none" />
    <path
       d="m33.950043 17.837242v1.475074l1.475073 1.475074h1.475074z"
       fill="#fff"
       fill-rule="evenodd"
       id="path16"
       style="fill:#98989d;fill-opacity:1" />
    <path
       d="m31.737432 22.262463h1.475074l.737537-.737537-.737537-.737536z"
       id="path18"
       style="stroke:#f5c200;stroke-opacity:1;stroke-width:2;stroke-miterlimit:4;stroke-dasharray:none"
       stroke-linejoin="round"
       stroke-width="1.475074"
       stroke="#808080"
       fill="none" />
    <path
       d="m 33.765659,20.118997 -0.248068,0.299749 0.76207,0.784396 0.292678,-0.162224 z"
       id="path20"
       style="fill:none;stroke:#616165;stroke-width:2;stroke-miterlimit:4;stroke-dasharray:none;stroke-opacity:1"
       inkscape:connector-curvature="0"
       sodipodi:nodetypes="ccccc" />
    <g
       fill-rule="evenodd"
       id="g26">
      <path
         d="m33.765659 20.118997-.553153.668393.737537.737536.622296-.484008z"
         fill="#fff"
         id="path22"
         style="fill:#98989d;fill-opacity:1" />
      <path
         d="m31.737432 22.262463h1.475074l.737537-.737537-.737537-.737536z"
         fill="#eac282"
         id="path24"
         style="fill:#fbe35a;fill-opacity:1" />
    </g>
  </g>
  <path
     style="fill:#0a84ff"
     d="M 2 2 L 2 6 L 10 6 L 10 2 L 2 2 z M 11 2 L 11 6 L 22 6 L 22 2 L 11 2 z "
     id="path20-5" />
  <path
     style="fill:#0040dd"
     d="M 3,2 C 2.446,2 2,2.446 2,3 v 2 1 h 1 7 V 5 3 2 Z m 8,0 v 1 h 4 v 2 h -4 v 1 h 10 1 V 5 3 C 22,2.446 21.554,2 21,2 Z M 3,3 H 9 V 5 H 3 Z m 13,0 h 5 v 2 h -5 z"
     id="path24-4"
     inkscape:connector-curvature="0"
     sodipodi:nodetypes="sscccccccscccccccccssccccccccccc" />
  <path
     style="fill:#bababa;fill-opacity:1"
     d="M 9 6 L 9 9 L 3 9 L 3 10 L 9 10 L 9 13 L 3 13 L 3 14 L 9 14 L 9 17 L 3 17 L 3 18 L 9 18 L 9 21 L 10 21 L 10 6 L 9 6 z M 15 6 L 15 9 L 11 9 L 11 10 L 15 10 L 15 13 L 11 13 L 11 14 L 15 14 L 15 14.330078 L 15.798828 13.53125 L 16.332031 13 L 16 13 L 16 10 L 21 10 L 21 9 L 16 9 L 16 6 L 15 6 z M 11 17 L 11 18 L 12.210938 18 L 12.210938 17.837891 A 1.0001 1.0001 0 0 0 12.210938 17.835938 C 12.211099 17.694544 12.233989 17.556917 12.267578 17.421875 C 12.272275 17.403972 12.277937 17.386874 12.283203 17.369141 C 12.319353 17.241253 12.369361 17.118283 12.433594 17.001953 L 12.435547 17 L 11 17 z "
     id="path2697" />
</svg>
