<svg viewBox="0 0 24 24" xmlns="http://www.w3.org/2000/svg"><g transform="matrix(.94175124 0 0 .90782823 .174746 2.027779)"><path d="m11.003207 6.0051156 6.213682 4.3062984c.907371.545594 1.173892 1.818531.117811 2.523559l-1.3347 2.165027-9-6 1.6257994-2.4333933c.4973822-.8952347 1.238349-1.2182456 2.3773916-.5614919z" fill="#dadada" stroke="#848489" stroke-width="1.081509"/><path d="m6.559322 10 8.79661 6-1.934816 3.436078c-.333999.408747-.200397.966114.133618 1.189061l1.436197 1.374861h-8.1162173c-3.3110346 0-4.8320423-3.471719-3.2398121-6.539903z" fill="#ffa914" stroke="#f58b00"/><path d="m17.120086-.6690851-4.968365 7.2476655 2.995984 2.2030599 4.769333-7.6397132z" fill="#dadada" stroke="#848489" stroke-linecap="round" stroke-width="1.081509"/><path d="m3.0039062 18.207031c-.0633258 2.043711 1.321638 3.792969 3.6445313 3.792969h7.6445315l-1.353516-1.248047c-.157779-.10152-.267773-.27957-.298828-.478515z" fill="#148eff" stroke="#0070f5" transform="matrix(1.0618515 0 0 1.10153 -.185554 -2.233659)"/></g><g fill="none" stroke="#fff"><path d="m8.3813559 9.7584746 1.0254238-1.7584746h.5932203l6.341569 4.436566" stroke-linecap="square" stroke-linejoin="round"/><path d="m12.694915 8 3.944915-5.4449153 1.36017.9533899"/></g></svg>