<?xml version="1.0" encoding="UTF-8" standalone="no"?>
<svg
   xmlns:dc="http://purl.org/dc/elements/1.1/"
   xmlns:cc="http://creativecommons.org/ns#"
   xmlns:rdf="http://www.w3.org/1999/02/22-rdf-syntax-ns#"
   xmlns:svg="http://www.w3.org/2000/svg"
   xmlns="http://www.w3.org/2000/svg"
   xmlns:sodipodi="http://sodipodi.sourceforge.net/DTD/sodipodi-0.dtd"
   xmlns:inkscape="http://www.inkscape.org/namespaces/inkscape"
   viewBox="0 0 24 24"
   version="1.1"
   id="svg6"
   sodipodi:docname="lc_fontwork.svg"
   inkscape:version="0.92.3 (unknown)">
  <metadata
     id="metadata12">
    <rdf:RDF>
      <cc:Work
         rdf:about="">
        <dc:format>image/svg+xml</dc:format>
        <dc:type
           rdf:resource="http://purl.org/dc/dcmitype/StillImage" />
        <dc:title></dc:title>
      </cc:Work>
    </rdf:RDF>
  </metadata>
  <defs
     id="defs10">
    <filter
       inkscape:collect="always"
       style="color-interpolation-filters:sRGB"
       id="filter846"
       x="-0.096492728"
       width="1.1929855"
       y="-0.057424063"
       height="1.1148481">
      <feGaussianBlur
         inkscape:collect="always"
         stdDeviation="0.48002933"
         id="feGaussianBlur848" />
    </filter>
  </defs>
  <sodipodi:namedview
     pagecolor="#ffffff"
     bordercolor="#666666"
     borderopacity="1"
     objecttolerance="10"
     gridtolerance="10"
     guidetolerance="10"
     inkscape:pageopacity="0"
     inkscape:pageshadow="2"
     inkscape:window-width="1366"
     inkscape:window-height="706"
     id="namedview8"
     showgrid="false"
     inkscape:zoom="13.906433"
     inkscape:cx="7.3938367"
     inkscape:cy="15.827119"
     inkscape:window-x="0"
     inkscape:window-y="0"
     inkscape:window-maximized="1"
     inkscape:current-layer="svg6" />
  <path
     d="m7 3v2 16h4v-7.618644l4 .02542.457627-2.81356-4.457627-.025419v-5.1355936l6-.4322034v-2z"
     fill="#fff"
     id="path2" />
  <path
     d="m6.515625 2c-.2683149-.0008702-.4862765.2302216-.4863281.515625v19c.0000516.285403.2180132.516495.4863281.515625h3.970703c.267552-.000279.513619-.231034.513672-.515625v-7.515625l4.515835-.0078c.267552-.000279.484322-.231034.484375-.515625v-2.992187c-.000053-.284604-.216823-.484109-.484375-.484388h-4.515835v-4l6.484375-.00977c.267552-.0002787.484322-.2310339.484375-.515625v-2.9902344c-.000053-.2845867-.216823-.5153419-.484375-.5156206zm.484375 1.03125 10-.03125v1.9589844l-6.513672.03125c-.268315-.0008701-.486276.2302216-.486328.515625l.0293 5.0097656c.000052.285403.218013.516495.486328.515625l4.484372-.03125v1.960937l-4.484375.0078c-.268315-.00087-.486276.230222-.486328.515625l-.029297 7.515638h-3z"
     fill="#4d82b8"
     id="path4"
     style="fill:#0040dd;fill-opacity:1;filter:url(#filter846)" />
  <path
     style="fill:#ffffff;fill-opacity:1;"
     id="path850"
     d="m 11,10 c -7.3333333,9.333333 -3.6666667,4.666667 0,0 z M 7,3.03125 17,3 v 1.9589844 l -6.513672,0.03125 C 10.218013,4.9893643 10.000052,5.220456 10,5.5058594 l 0.0293,5.0097656 c 5.2e-5,0.285403 0.218013,0.516495 0.486328,0.515625 L 15,11 v 1.960937 l -4.484375,0.0078 c -0.268315,-8.7e-4 -0.486276,0.230222 -0.486328,0.515625 L 10,21 H 7 Z"
     inkscape:connector-curvature="0"
     sodipodi:nodetypes="cccccccccccccccc" />
</svg>
