<svg viewBox="0 0 24 24" xmlns="http://www.w3.org/2000/svg" xmlns:xlink="http://www.w3.org/1999/xlink"><linearGradient id="a" gradientUnits="userSpaceOnUse" x1="13.79661" x2="13.864407" y1="3.711865" y2="2.389831"><stop offset="0" stop-color="#0040dd"/><stop offset="1" stop-color="#0a84ff"/></linearGradient><rect fill="url(#a)" height="2" ry="1" width="20" x="2" y="2"/><g fill="#4b4b4f" stroke-width=".485847"><path d="m9.967287 16.204322h-5.7884075l-1.3000194 3.605893h-1.87886013l5.27599113-13.8162645h1.5941843l5.2854806 13.8162645h-1.869371zm-5.2380343-1.499293h4.6971503l-2.3533197-6.4621398z"/><path d="m21.079132 19.810215q-.151827-.303654-.246719-1.081768-1.224106 1.271552-2.922671 1.271552-1.518271 0-2.495658-.854027-.967898-.863517-.967898-2.182515 0-1.603673 1.214617-2.486168 1.224106-.891984 3.435088-.891984h1.708054v-.806582q0-.920451-.550373-1.461335-.550373-.550374-1.622652-.550374-.93943 0-1.575206.47446-.635776.47446-.635776 1.148192h-1.764989q0-.768624.540884-1.480314.550373-.721178 1.480314-1.1387028.93943-.4175245 2.059154-.4175245 1.774479 0 2.780334.8919843 1.005854.882495 1.043811 2.438722v4.725618q0 1.41389.360589 2.248939v.151827zm-2.913182-1.337976q.82556 0 1.565717-.427014.740157-.427014 1.072278-1.110235v-2.106601h-1.375933q-3.226325 0-3.226325 1.888349 0 .82556.550373 1.29053.550373.464971 1.41389.464971z"/></g></svg>