<?xml version="1.0" encoding="UTF-8" standalone="no"?>
<svg
   xmlns:dc="http://purl.org/dc/elements/1.1/"
   xmlns:cc="http://creativecommons.org/ns#"
   xmlns:rdf="http://www.w3.org/1999/02/22-rdf-syntax-ns#"
   xmlns:svg="http://www.w3.org/2000/svg"
   xmlns="http://www.w3.org/2000/svg"
   xmlns:sodipodi="http://sodipodi.sourceforge.net/DTD/sodipodi-0.dtd"
   xmlns:inkscape="http://www.inkscape.org/namespaces/inkscape"
   viewBox="0 0 24 24"
   version="1.1"
   id="svg30"
   sodipodi:docname="lc_formdesigntools.svg"
   inkscape:version="0.92.4 (unknown)">
  <metadata
     id="metadata36">
    <rdf:RDF>
      <cc:Work
         rdf:about="">
        <dc:format>image/svg+xml</dc:format>
        <dc:type
           rdf:resource="http://purl.org/dc/dcmitype/StillImage" />
        <dc:title></dc:title>
      </cc:Work>
    </rdf:RDF>
  </metadata>
  <defs
     id="defs34" />
  <sodipodi:namedview
     pagecolor="#ffffff"
     bordercolor="#666666"
     borderopacity="1"
     objecttolerance="10"
     gridtolerance="10"
     guidetolerance="10"
     inkscape:pageopacity="0"
     inkscape:pageshadow="2"
     inkscape:window-width="1360"
     inkscape:window-height="714"
     id="namedview32"
     showgrid="true"
     inkscape:zoom="13.906433"
     inkscape:cx="6.055916"
     inkscape:cy="9.1845954"
     inkscape:window-x="0"
     inkscape:window-y="28"
     inkscape:window-maximized="1"
     inkscape:current-layer="svg30">
    <inkscape:grid
       type="xygrid"
       id="grid1613" />
  </sodipodi:namedview>
  <linearGradient
     id="a"
     gradientUnits="userSpaceOnUse"
     x1="12"
     x2="12"
     y1="2"
     y2="22">
    <stop
       offset="0"
       stop-color="#848489"
       id="stop2" />
    <stop
       offset="1"
       stop-color="#616165"
       id="stop4" />
  </linearGradient>
  <linearGradient
     id="b"
     gradientUnits="userSpaceOnUse"
     x1="63"
     x2="63"
     y1="35"
     y2="20">
    <stop
       offset="0"
       stop-color="#e9e9e9"
       id="stop7" />
    <stop
       offset=".2857143"
       stop-color="#f2f2f2"
       id="stop9" />
    <stop
       offset="1"
       stop-color="#fbfbfb"
       id="stop11" />
  </linearGradient>
  <path
     d="m3 6h18v15h-18z"
     fill="url(#b)"
     id="path14" />
  <path
     d="m3 2c-.554 0-1 .446-1 1v18c0 .554.446 1 1 1h18c.554 0 1-.446 1-1v-18c0-.554-.446-1-1-1zm0 4h18v15h-18z"
     fill="url(#a)"
     id="path16" />
  <g
     fill="#98989d"
     id="g26">
    <path
       d="m10.5 10c-.277 0-.5.223-.5.5v2c0 .277.223.5.5.5h7c.277 0 .5-.223.5-.5v-2c0-.277-.223-.5-.5-.5zm.5 1h6v1h-6z"
       id="path18" />
    <path
       d="m6.5 10c-.277 0-.5.223-.5.5v2c0 .277.223.5.5.5h2c.277 0 .5-.223.5-.5v-2c0-.277-.223-.5-.5-.5zm.5 1h1v1h-1z"
       id="path20" />
    <path
       d="m10.5 15c-.277 0-.5.223-.5.5v2c0 .277.223.5.5.5h7c.277 0 .5-.223.5-.5v-2c0-.277-.223-.5-.5-.5zm.5 1h6v1h-6z"
       id="path22" />
    <path
       d="m6.5 15c-.277 0-.5.223-.5.5v2c0 .277.223.5.5.5h2c.277 0 .5-.223.5-.5v-2c0-.277-.223-.5-.5-.5zm.5 1h1v1h-1z"
       id="path24" />
  </g>
  <path
     d="M 22.5,11.5 12,22.5 h 10.5 z m -2,5 v 4 h -4 z"
     id="path28"
     inkscape:connector-curvature="0"
     style="fill:#ffcc00;fill-rule:evenodd;stroke:#c89e00;stroke-linecap:round;stroke-linejoin:round" />
</svg>
