<?xml version="1.0" encoding="UTF-8" standalone="no"?>
<svg
   xmlns:dc="http://purl.org/dc/elements/1.1/"
   xmlns:cc="http://creativecommons.org/ns#"
   xmlns:rdf="http://www.w3.org/1999/02/22-rdf-syntax-ns#"
   xmlns:svg="http://www.w3.org/2000/svg"
   xmlns="http://www.w3.org/2000/svg"
   xmlns:sodipodi="http://sodipodi.sourceforge.net/DTD/sodipodi-0.dtd"
   xmlns:inkscape="http://www.inkscape.org/namespaces/inkscape"
   viewBox="0 0 24 24"
   version="1.1"
   id="svg1816"
   sodipodi:docname="lc_goalseekdialog.svg"
   inkscape:version="0.92.3 (unknown)">
  <metadata
     id="metadata1822">
    <rdf:RDF>
      <cc:Work
         rdf:about="">
        <dc:format>image/svg+xml</dc:format>
        <dc:type
           rdf:resource="http://purl.org/dc/dcmitype/StillImage" />
        <dc:title></dc:title>
      </cc:Work>
    </rdf:RDF>
  </metadata>
  <defs
     id="defs1820" />
  <sodipodi:namedview
     pagecolor="#ffffff"
     bordercolor="#666666"
     borderopacity="1"
     objecttolerance="10"
     gridtolerance="10"
     guidetolerance="10"
     inkscape:pageopacity="0"
     inkscape:pageshadow="2"
     inkscape:window-width="1366"
     inkscape:window-height="706"
     id="namedview1818"
     showgrid="true"
     inkscape:zoom="39.333333"
     inkscape:cx="14.763315"
     inkscape:cy="5.9907623"
     inkscape:window-x="0"
     inkscape:window-y="0"
     inkscape:window-maximized="1"
     inkscape:current-layer="svg1816">
    <inkscape:grid
       type="xygrid"
       id="grid2370" />
  </sodipodi:namedview>
  <path
     d="m4.9609375 3.5-.9511719.4042969v.9746093.1992188l5.9003906 8.25c.062016.085851.0954908.189015.0957028.294922v3.876953 3.5c.003686.003145.00609.004685.009766.007812 1.490883.763663 2.489861.748825 3.984375-.007812v-.470703-1.578125-1.451172h-.005859v-3.876953c.00021-.105907.033693-.209072.095703-.294922l5.90039-8.25v-.1992188-.9746093l-.951172-.4042969z"
     fill="#848489"
     id="path1810" />
  <path
     d="m4.871557 2.125841c-.1322075.0000806-.2591191.0519671-.3535156.1445312l-1.3656976 1.0597059c-.048282.046622-.086791.1023955-.1132813.1640625v.00195c-.0258489.0618744-.0391276.1282648-.0390625.1953156v1.1875.3613282c-.0003594.1056921.032428.2088371.09375.2949218l3.9042969 5.4648438 1.9902343 2.785156v5.427735.179687 2.101563c-.0002768.279493.2128834.429733.5058594.505859 1.5058594.5 3.5058594.5 5.0117204 0 .279493.000277.506136-.226366.50586-.505859v-2.101563-.179687-5.427735l1.990232-2.785156 3.904297-5.4648438c.061322-.0860848.094109-.1892297.09375-.2949218v-1.5488282c.000065-.067051-.01321-.1334444-.03906-.1953124-.02626-.062365-.06479-.1188197-.113282-.1660157l-1.347658-.8300781c-.094397-.0925641-.221308-.1444507-.353516-.1445312-4.681374-1.094353-9.188627-1.69980574-14.274927-.2296278zm.0893805 1.374159c4.3445021-1.712013 8.9234615-2.2712757 14.0781245 0l.951172.4042969v.9746093.1992188l-5.90039 8.25c-.06201.08585-.09549.189015-.0957.294922v3.876953h.005856v1.451172 1.578125.470703c-1.5.759415-2.5.772208-4 0v-.470703-1.578125-1.451172h.0059v-3.876953c-.000212-.105907-.033687-.209071-.095703-.294922l-5.9003906-8.25v-.1992188-.9746093z"
     fill="#69696e"
     id="path1812" />
  <ellipse
     cx="11.994952"
     cy="3.764185"
     fill="#cdcdd0"
     rx="8.493799"
     ry="2.263032"
     stroke="#69696e"
     stroke-linecap="round"
     stroke-linejoin="round"
     stroke-width="1.002306"
     id="ellipse1814" />
  <g
     transform="translate(7,12)"
     id="g10">
    <rect
       style="fill:#98989d"
       height="7"
       rx="1.5"
       width="13"
       x="2"
       y="3"
       id="rect2" />
    <path
       style="fill:#ffffff;stroke-width:1.30930698"
       inkscape:connector-curvature="0"
       d="M 3,4 V 9 H 14 V 4 Z"
       id="path4"
       sodipodi:nodetypes="ccccc" />
    <path
       style="fill:#bababa"
       inkscape:connector-curvature="0"
       d="m 5,-9 h 3 v 0.5 H 5 Z"
       transform="rotate(90)"
       id="path6"
       sodipodi:nodetypes="ccccc" />
    <path
       style="fill:#69696e"
       inkscape:connector-curvature="0"
       d="m 13,5 h -3 l 1.5,2 z"
       id="path8"
       sodipodi:nodetypes="cccc" />
  </g>
</svg>
