<?xml version="1.0" encoding="UTF-8" standalone="no"?>
<svg
   xmlns:dc="http://purl.org/dc/elements/1.1/"
   xmlns:cc="http://creativecommons.org/ns#"
   xmlns:rdf="http://www.w3.org/1999/02/22-rdf-syntax-ns#"
   xmlns:svg="http://www.w3.org/2000/svg"
   xmlns="http://www.w3.org/2000/svg"
   xmlns:sodipodi="http://sodipodi.sourceforge.net/DTD/sodipodi-0.dtd"
   xmlns:inkscape="http://www.inkscape.org/namespaces/inkscape"
   viewBox="0 0 24 24"
   version="1.1"
   id="svg26"
   sodipodi:docname="lc_grid.svg"
   inkscape:version="0.92.3 (2405546, 2018-03-11)">
  <metadata
     id="metadata32">
    <rdf:RDF>
      <cc:Work
         rdf:about="">
        <dc:format>image/svg+xml</dc:format>
        <dc:type
           rdf:resource="http://purl.org/dc/dcmitype/StillImage" />
        <dc:title></dc:title>
      </cc:Work>
    </rdf:RDF>
  </metadata>
  <defs
     id="defs30" />
  <sodipodi:namedview
     pagecolor="#ffffff"
     bordercolor="#666666"
     borderopacity="1"
     objecttolerance="10"
     gridtolerance="10"
     guidetolerance="10"
     inkscape:pageopacity="0"
     inkscape:pageshadow="2"
     inkscape:window-width="1366"
     inkscape:window-height="716"
     id="namedview28"
     showgrid="false"
     inkscape:zoom="6.9532167"
     inkscape:cx="-16.308838"
     inkscape:cy="15.128469"
     inkscape:window-x="-8"
     inkscape:window-y="-8"
     inkscape:window-maximized="1"
     inkscape:current-layer="svg26" />
  <linearGradient
     id="a"
     gradientUnits="userSpaceOnUse"
     x1="12"
     x2="12"
     y1="3"
     y2="21">
    <stop
       offset="0"
       stop-color="#efefef"
       id="stop2" />
    <stop
       offset=".33333334"
       stop-color="#fff"
       id="stop4" />
    <stop
       offset=".8888889"
       stop-color="#fff"
       id="stop6" />
    <stop
       offset="1"
       stop-color="#f5f5f5"
       id="stop8" />
  </linearGradient>
  <filter
     id="b"
     color-interpolation-filters="sRGB"
     height="1.094553"
     width="1.097492"
     x="-.048746"
     y="-.047277">
    <feGaussianBlur
       stdDeviation=".36559322"
       id="feGaussianBlur11" />
  </filter>
  <path
     d="m3 4h18v18.559322h-18z"
     filter="url(#b)"
     opacity=".15"
     stroke-width="1.015418"
     id="path14" />
  <path
     d="m3 3h18v18h-18z"
     fill="url(#a)"
     id="path16" />
  <path
     d="m3 2c-.554 0-1 .446-1 1v18c0 .554.446 1 1 1h18c.554 0 1-.446 1-1v-18c0-.554-.446-1-1-1zm0 1h5v6h-5zm6 0h6v6h-6zm7 0h5v6h-5zm-13 7h5v3h-5zm6 0h6v3h-6zm7 0h5v3h-5zm-13 4h5v3h-5zm6 0h6v3h-6zm7 0h5v3h-5zm-13 4h5v3h-5zm6 0h6v3h-6zm7 0h5v3h-5z"
     fill="#bababa"
     id="path18" />
  <path
     d="m2 2h20v4h-20z"
     fill="#0a84ff"
     id="path20"
     style="fill:#fcfcfc;fill-opacity:1" />
  <path
     d="m3 2c-.554 0-1 .446-1 1v18c0 .554.446 1 1 1h18c.554 0 1-.446 1-1v-18c0-.554-.446-1-1-1zm0 1h5 1 6 1 5v6 1 3 1 3 1 3h-5-1-6-1-5v-3-1-3-1-3-1z"
     fill="#69696e"
     id="path22" />
  <path
     d="m3 2c-.554 0-1 .446-1 1v2 1h1 18 1v-1-2c0-.554-.446-1-1-1zm0 1h5v2h-5zm6 0h6v2h-6zm7 0h5v2h-5z"
     fill="#0040dd"
     id="path24"
     style="fill:#6b6b70;fill-opacity:0.99803919" />
</svg>
