<?xml version="1.0" encoding="UTF-8" standalone="no"?>
<svg
   xmlns:dc="http://purl.org/dc/elements/1.1/"
   xmlns:cc="http://creativecommons.org/ns#"
   xmlns:rdf="http://www.w3.org/1999/02/22-rdf-syntax-ns#"
   xmlns:svg="http://www.w3.org/2000/svg"
   xmlns="http://www.w3.org/2000/svg"
   xmlns:sodipodi="http://sodipodi.sourceforge.net/DTD/sodipodi-0.dtd"
   xmlns:inkscape="http://www.inkscape.org/namespaces/inkscape"
   viewBox="0 0 24 24"
   version="1.1"
   id="svg24"
   sodipodi:docname="lc_graphicfiltersolarize.svg"
   inkscape:version="0.92.3 (unknown)"
   inkscape:export-filename="/home/rizmut/Dokumen/Rizmut/Github/libreoffice-style-sukapura/images_sukapura/cmd/lc_graphicfiltersolarize.png"
   inkscape:export-xdpi="96"
   inkscape:export-ydpi="96">
  <metadata
     id="metadata30">
    <rdf:RDF>
      <cc:Work
         rdf:about="">
        <dc:format>image/svg+xml</dc:format>
        <dc:type
           rdf:resource="http://purl.org/dc/dcmitype/StillImage" />
        <dc:title></dc:title>
      </cc:Work>
    </rdf:RDF>
  </metadata>
  <defs
     id="defs28" />
  <sodipodi:namedview
     pagecolor="#ffffff"
     bordercolor="#666666"
     borderopacity="1"
     objecttolerance="10"
     gridtolerance="10"
     guidetolerance="10"
     inkscape:pageopacity="0"
     inkscape:pageshadow="2"
     inkscape:window-width="1366"
     inkscape:window-height="706"
     id="namedview26"
     showgrid="true"
     inkscape:zoom="19.666667"
     inkscape:cx="21.072535"
     inkscape:cy="13.309458"
     inkscape:window-x="0"
     inkscape:window-y="0"
     inkscape:window-maximized="1"
     inkscape:current-layer="g22">
    <inkscape:grid
       type="xygrid"
       id="grid1490" />
  </sodipodi:namedview>
  <g
     fill="#eac282"
     id="g22"
     style="fill:#ffcc00;fill-opacity:1">
    <path
       d="m12 6a6 6 0 0 0 -6 6 6 6 0 0 0 6 6 6 6 0 0 0 6-6 6 6 0 0 0 -6-6zm0 1a5 5 0 0 1 5 5 5 5 0 0 1 -5 5 5 5 0 0 1 -5-5 5 5 0 0 1 5-5z"
       id="path2"
       style="fill:#f5c200;fill-opacity:1" />
    <rect
       height="3"
       ry="1"
       width="2"
       x="11"
       y="2"
       id="rect4"
       style="fill:#ffcc00;fill-opacity:1" />
    <rect
       height="2"
       ry="1"
       width="3"
       x="19"
       y="11"
       id="rect6"
       style="fill:#ffcc00;fill-opacity:1" />
    <rect
       height="2"
       ry="1"
       width="3"
       x="2"
       y="11"
       id="rect8"
       style="fill:#ffcc00;fill-opacity:1" />
    <rect
       height="4"
       ry="1"
       width="2"
       x="11"
       y="19"
       id="rect10"
       style="fill:#ffcc00;fill-opacity:1" />
    <g
       transform="matrix(.70710678 .70710678 -.70710678 .70710678 0 0)"
       id="g20"
       style="fill:#ffcc00;fill-opacity:1">
      <rect
         height="3"
         ry="1"
         width="2"
         x="16.324116"
         y="-10.146446"
         id="rect12"
         style="fill:#ffcc00;fill-opacity:1" />
      <rect
         height="2"
         ry="1"
         width="3"
         x="24.324116"
         y="-1.146446"
         id="rect14"
         style="fill:#ffcc00;fill-opacity:1" />
      <rect
         height="2"
         ry="1"
         width="3"
         x="7.324116"
         y="-1.146446"
         id="rect16"
         style="fill:#ffcc00;fill-opacity:1" />
      <rect
         height="4"
         ry="1"
         width="2"
         x="16.324116"
         y="6.853554"
         id="rect18"
         style="fill:#ffcc00;fill-opacity:1" />
    </g>
    <path
       style="fill:#ffcc00;fill-opacity:1"
       id="path1492"
       d="m 12,7 c 2.761424,0 5,2.2385763 5,5 0,2.761424 -2.238576,5 -5,5 C 9.2385763,17 7,14.761424 7,12 7,9.2385763 9.2385763,7 12,7 Z"
       inkscape:connector-curvature="0"
       sodipodi:nodetypes="sssss" />
  </g>
</svg>
