<?xml version="1.0" encoding="UTF-8" standalone="no"?>
<svg
   xmlns:dc="http://purl.org/dc/elements/1.1/"
   xmlns:cc="http://creativecommons.org/ns#"
   xmlns:rdf="http://www.w3.org/1999/02/22-rdf-syntax-ns#"
   xmlns:svg="http://www.w3.org/2000/svg"
   xmlns="http://www.w3.org/2000/svg"
   xmlns:xlink="http://www.w3.org/1999/xlink"
   xmlns:sodipodi="http://sodipodi.sourceforge.net/DTD/sodipodi-0.dtd"
   xmlns:inkscape="http://www.inkscape.org/namespaces/inkscape"
   viewBox="0 0 24 24"
   version="1.1"
   id="svg12"
   sodipodi:docname="lc_hyphenate.svg"
   inkscape:export-filename="D:\Rizmut\libreoffice-style-sukapura-master\images_sukapura\cmd\lc_hyphenate.png"
   inkscape:export-xdpi="96"
   inkscape:export-ydpi="96"
   inkscape:version="0.92.3 (2405546, 2018-03-11)">
  <metadata
     id="metadata18">
    <rdf:RDF>
      <cc:Work
         rdf:about="">
        <dc:format>image/svg+xml</dc:format>
        <dc:type
           rdf:resource="http://purl.org/dc/dcmitype/StillImage" />
      </cc:Work>
    </rdf:RDF>
  </metadata>
  <defs
     id="defs16">
    <linearGradient
       gradientTransform="translate(-29.694915,1.220339)"
       id="a-6"
       gradientUnits="userSpaceOnUse"
       x1="14"
       x2="13.79661"
       y1="22"
       y2="2.1355929">
      <stop
         offset="0"
         stop-color="#0040dd"
         id="stop2" />
      <stop
         offset="1"
         stop-color="#0a84ff"
         id="stop4" />
    </linearGradient>
    <linearGradient
       inkscape:collect="always"
       xlink:href="#a-6"
       id="linearGradient875"
       x1="14"
       y1="22"
       x2="14"
       y2="13"
       gradientUnits="userSpaceOnUse" />
    <linearGradient
       inkscape:collect="always"
       xlink:href="#a-6"
       id="linearGradient901"
       x1="18.96101"
       y1="21.996544"
       x2="19"
       y2="13"
       gradientUnits="userSpaceOnUse" />
  </defs>
  <sodipodi:namedview
     pagecolor="#ffffff"
     bordercolor="#666666"
     borderopacity="1"
     objecttolerance="10"
     gridtolerance="10"
     guidetolerance="10"
     inkscape:pageopacity="0"
     inkscape:pageshadow="2"
     inkscape:window-width="1366"
     inkscape:window-height="716"
     id="namedview14"
     showgrid="true"
     inkscape:snap-global="true"
     inkscape:zoom="22.627417"
     inkscape:cx="15.501454"
     inkscape:cy="6.8912953"
     inkscape:window-x="-8"
     inkscape:window-y="-8"
     inkscape:window-maximized="1"
     inkscape:current-layer="svg12">
    <inkscape:grid
       type="xygrid"
       id="grid828" />
  </sodipodi:namedview>
  <path
     style="stroke:none;fill-opacity:1;fill:url(#linearGradient901)"
     d="m 21,13 v 2 c 0,1.104569 -0.895431,2 -2,2 l -3,-0.002 v 1 L 19,18 c 1.656854,0 3,-1.343146 3,-3 v -2 z"
     id="path10"
     inkscape:connector-curvature="0"
     sodipodi:nodetypes="csccccscc" />
  <path
     inkscape:connector-curvature="0"
     id="path846"
     style="font-style:normal;font-variant:normal;font-weight:500;font-stretch:normal;font-size:medium;line-height:1.25;font-family:Roboto;-inkscape-font-specification:'Roboto Medium';letter-spacing:0px;word-spacing:0px;fill:#4b4b4f;fill-opacity:1;stroke:none;stroke-width:0.31644115"
     d="m 7.7602178,8.8974294 h -3.52288 L 3.5204008,10.998796 H 1.9999999 L 5.3065628,2.0000011 h 1.421513 L 9.9975557,10.998796 H 8.4709743 Z M 4.6699722,7.6427897 H 7.3337639 L 6.0296803,3.7985241 h -0.037083 z" />
  <path
     inkscape:connector-curvature="0"
     id="path848"
     style="font-style:normal;font-variant:normal;font-weight:500;font-stretch:normal;font-size:medium;line-height:1.25;font-family:Roboto;-inkscape-font-specification:'Roboto Medium';letter-spacing:0px;word-spacing:0px;fill:#4b4b4f;fill-opacity:1;stroke:none;stroke-width:0.31644115"
     d="M 11.042059,10.998796 V 2.0000011 h 2.991358 q 1.495679,0 2.336226,0.6180492 0.840546,0.6118686 0.840546,1.8356059 0,0.6118686 -0.352288,1.0939469 -0.352288,0.4820784 -0.976517,0.716937 0.803464,0.1792343 1.236098,0.7725614 0.432634,0.5933272 0.432634,1.3782496 0,1.2670007 -0.828185,1.9283129 -0.828186,0.655132 -2.286782,0.655132 z m 1.501859,-4.0914848 v 2.89247 h 1.891231 q 0.778742,0 1.199015,-0.3522881 0.420274,-0.3584684 0.420274,-1.032142 0,-0.716937 -0.352288,-1.1124884 -0.352288,-0.3955515 -1.100128,-0.3955515 z m 0,-1.1186689 h 1.656372 q 0.698396,0 1.100128,-0.327566 0.407912,-0.3337466 0.407912,-0.9394347 0,-0.6674931 -0.426454,-0.9888786 -0.426454,-0.3275661 -1.248459,-0.3275661 h -1.489499 z" />
  <g
     aria-label="C"
     style="font-style:normal;font-weight:normal;font-size:12.65764618px;line-height:1.25;font-family:sans-serif;letter-spacing:0px;word-spacing:0px;fill:#4b4b4f;fill-opacity:1;stroke:none;stroke-width:0.31644115"
     id="text841">
    <path
       d="m 8.8912478,18.885031 0.012361,0.03708 q 0.024722,1.365889 -0.8899907,2.224977 -0.9085323,0.852908 -2.4660161,0.852908 -1.5760253,0 -2.5649039,-1.056864 Q 2,19.880091 2,18.229899 v -1.711996 q 0,-1.64401 0.9703372,-2.707055 0.9765176,-1.069225 2.5340014,-1.069225 1.5945667,0 2.5092795,0.840547 0.9208932,0.834366 0.8961712,2.249699 l -0.012361,0.03708 H 7.4450129 q 0,-0.908533 -0.4944393,-1.415333 -0.4882589,-0.5068 -1.446235,-0.5068 -0.9208932,0 -1.4647764,0.729298 -0.5377028,0.729298 -0.5377028,1.829425 v 1.724357 q 0,1.112489 0.5500637,1.841787 0.5562443,0.729298 1.4956789,0.729298 0.9332542,0 1.4153325,-0.50062 0.4820784,-0.50062 0.4820784,-1.415333 z"
       style="font-style:normal;font-variant:normal;font-weight:500;font-stretch:normal;font-family:Roboto;-inkscape-font-specification:'Roboto Medium';fill:#4b4b4f;fill-opacity:1;stroke-width:0.31644115"
       id="path843" />
  </g>
  <path
     style="fill:url(#linearGradient875);fill-opacity:1;stroke:none;stroke-width:1px;stroke-linecap:butt;stroke-linejoin:miter;stroke-opacity:1"
     d="m 15.484375,13.003906 a 0.49723417,0.49723417 0 0 0 -0.335937,0.144532 l -4,4 a 0.49723417,0.49723417 0 0 0 0,0.703124 l 4,4 A 0.49723417,0.49723417 0 0 0 15.998047,21.5 v -8 a 0.49723417,0.49723417 0 0 0 -0.513672,-0.496094 z"
     id="path867" />
</svg>
