<?xml version="1.0" encoding="UTF-8" standalone="no"?>
<svg
   xmlns:dc="http://purl.org/dc/elements/1.1/"
   xmlns:cc="http://creativecommons.org/ns#"
   xmlns:rdf="http://www.w3.org/1999/02/22-rdf-syntax-ns#"
   xmlns:svg="http://www.w3.org/2000/svg"
   xmlns="http://www.w3.org/2000/svg"
   xmlns:xlink="http://www.w3.org/1999/xlink"
   xmlns:sodipodi="http://sodipodi.sourceforge.net/DTD/sodipodi-0.dtd"
   xmlns:inkscape="http://www.inkscape.org/namespaces/inkscape"
   viewBox="0 0 24 24"
   version="1.1"
   id="svg8"
   sodipodi:docname="lc_heading6parastyle.svg"
   inkscape:version="0.92.3 (unknown)"
   inkscape:export-filename="/home/rizmut/Dokumen/Rizmut/Github/libreoffice-style-sukapura/images_sukapura/cmd/lc_heading6parastyle.png"
   inkscape:export-xdpi="96"
   inkscape:export-ydpi="96">
  <metadata
     id="metadata14">
    <rdf:RDF>
      <cc:Work
         rdf:about="">
        <dc:format>image/svg+xml</dc:format>
        <dc:type
           rdf:resource="http://purl.org/dc/dcmitype/StillImage" />
        <dc:title></dc:title>
      </cc:Work>
    </rdf:RDF>
  </metadata>
  <defs
     id="defs12">
    <linearGradient
       gradientTransform="translate(75,-7)"
       id="a-367"
       gradientUnits="userSpaceOnUse"
       x1="14"
       x2="13.79661"
       y1="22"
       y2="2.1355929">
      <stop
         offset="0"
         stop-color="#0040dd"
         id="stop2206" />
      <stop
         offset="1"
         stop-color="#0a84ff"
         id="stop2208" />
    </linearGradient>
    <linearGradient
       inkscape:collect="always"
       xlink:href="#a-367"
       id="linearGradient1700"
       x1="19.372881"
       y1="23.101698"
       x2="19.237286"
       y2="11.203394"
       gradientUnits="userSpaceOnUse" />
  </defs>
  <sodipodi:namedview
     pagecolor="#ffffff"
     bordercolor="#666666"
     borderopacity="1"
     objecttolerance="10"
     gridtolerance="10"
     guidetolerance="10"
     inkscape:pageopacity="0"
     inkscape:pageshadow="2"
     inkscape:window-width="1366"
     inkscape:window-height="706"
     id="namedview10"
     showgrid="false"
     inkscape:zoom="9.8333333"
     inkscape:cx="24.09136"
     inkscape:cy="-0.17456901"
     inkscape:window-x="0"
     inkscape:window-y="0"
     inkscape:window-maximized="1"
     inkscape:current-layer="svg8" />
  <path
     inkscape:connector-curvature="0"
     style="fill:#69696e;fill-opacity:1"
     d="m 2,2 v 20 h 3 v -9 h 8 v 9 h 1.916016 c -0.241127,-0.352267 -0.441477,-0.737591 -0.589844,-1.152344 a 1.0001,1.0001 0 0 1 -0.0039,-0.0078 C 14.102901,20.206838 14,19.523038 14,18.804688 c 0,-0.691635 0.131994,-1.3853 0.380859,-2.066407 a 1.0001,1.0001 0 0 1 0.002,-0.0059 c 0.25324,-0.681304 0.619954,-1.361297 1.089844,-2.044922 L 16,13.923828 V 2 h -3 v 8 H 5 V 2 Z"
     id="path2" />
  <path
     inkscape:connector-curvature="0"
     style="fill:url(#linearGradient1700);fill-opacity:1"
     d="m 18.360691,15.696391 q 0.293736,-0.127388 0.62203,-0.195329 0.328293,-0.07643 0.708423,-0.07643 0.613391,0 1.209503,0.220806 0.596112,0.220807 1.062635,0.662421 0.466523,0.441613 0.75162,1.112526 0.285097,0.670913 0.285097,1.562632 0,0.832273 -0.293736,1.562633 -0.293736,0.730361 -0.829374,1.273886 -0.526997,0.543524 -1.269978,0.866242 -0.742981,0.314225 -1.650108,0.314225 -0.924406,0 -1.658747,-0.305733 Q 16.572354,22.388536 16.053995,21.836519 15.544276,21.284502 15.267818,20.511678 15,19.738854 15,18.804671 q 0,-0.849256 0.319654,-1.72399 0.328294,-0.883227 0.976243,-1.825903 l 2.591792,-3.753716 q 0.164147,-0.212313 0.475161,-0.356687 0.311016,-0.144373 0.699785,-0.144373 h 1.952483 l -3.326133,4.271762 z m -1.2527,3.43949 q 0,0.475584 0.112311,0.866242 0.112312,0.390658 0.336933,0.670913 0.233262,0.271762 0.570195,0.424628 0.336932,0.152866 0.786177,0.152866 0.406047,0 0.751619,-0.161359 0.345573,-0.161359 0.596113,-0.441613 0.259179,-0.280255 0.397408,-0.66242 0.146868,-0.390659 0.146868,-0.840765 0,-0.492569 -0.138229,-0.883227 -0.138229,-0.390657 -0.388769,-0.66242 -0.2419,-0.271762 -0.596112,-0.416136 -0.345573,-0.144373 -0.768898,-0.144373 -0.397409,0 -0.734341,0.161358 -0.328294,0.152867 -0.570195,0.433121 -0.233261,0.271762 -0.37149,0.662421 -0.12959,0.382165 -0.12959,0.840764 z"
     id="path4" />
</svg>
