<svg viewBox="0 0 24 24" xmlns="http://www.w3.org/2000/svg" xmlns:xlink="http://www.w3.org/1999/xlink"><linearGradient id="a" gradientUnits="userSpaceOnUse" x1="-28.694915" x2="-28.694915" y1="6.220339" y2="4.220339"><stop offset="0" stop-color="#0040dd"/><stop offset="1" stop-color="#0a84ff"/></linearGradient><path d="m2 6v15h11.128906 7.871094.5.5v-8h-.029297l.029297-7zm1 1h18v6.064453 6.935547h-7.513672-10.486328z" fill="#98989d"/><path d="m3 7v13h10.486328 7.513672v-6.935547-6.064453z" fill="#f3f3f3"/><path d="m1 3h22v2h-22z" fill="url(#a)"/><path d="m5 9h14v2h-14z" fill="#ff9500"/><g fill="#98989d"><path d="m5 12h6v1h-6z"/><path d="m5 16h6v1h-6z"/><path d="m5 14h6v1h-6z"/><path d="m5 18h6v1h-6z"/><path d="m13 12h6v1h-6z"/><path d="m13 16h6v1h-6z"/><path d="m13 14h6v1h-6z"/><path d="m13 18h6v1h-6z"/></g><g fill="#98989d"><path d="m5 12h6v1h-6z"/><path d="m5 16h6v1h-6z"/><path d="m5 14h6v1h-6z"/><path d="m5 18h6v1h-6z"/><path d="m13 12h6v1h-6z"/><path d="m13 16h6v1h-6z"/><path d="m13 14h6v1h-6z"/><path d="m13 18h6v1h-6z"/><path d="m2 6v15l20-15zm1 1h16l-16 12z" fill-rule="evenodd"/></g><path d="m3 7h16l-16 12z" fill="#fff" fill-rule="evenodd"/></svg>