<?xml version="1.0" encoding="UTF-8" standalone="no"?>
<svg
   xmlns:dc="http://purl.org/dc/elements/1.1/"
   xmlns:cc="http://creativecommons.org/ns#"
   xmlns:rdf="http://www.w3.org/1999/02/22-rdf-syntax-ns#"
   xmlns:svg="http://www.w3.org/2000/svg"
   xmlns="http://www.w3.org/2000/svg"
   xmlns:xlink="http://www.w3.org/1999/xlink"
   xmlns:sodipodi="http://sodipodi.sourceforge.net/DTD/sodipodi-0.dtd"
   xmlns:inkscape="http://www.inkscape.org/namespaces/inkscape"
   viewBox="0 0 24 24"
   version="1.1"
   id="svg8"
   sodipodi:docname="lc_heading2parastyle.svg"
   inkscape:version="0.92.3 (unknown)"
   inkscape:export-filename="/home/rizmut/Dokumen/Rizmut/Github/libreoffice-style-sukapura/images_sukapura/cmd/lc_heading2parastyle.png"
   inkscape:export-xdpi="96"
   inkscape:export-ydpi="96">
  <metadata
     id="metadata14">
    <rdf:RDF>
      <cc:Work
         rdf:about="">
        <dc:format>image/svg+xml</dc:format>
        <dc:type
           rdf:resource="http://purl.org/dc/dcmitype/StillImage" />
        <dc:title></dc:title>
      </cc:Work>
    </rdf:RDF>
  </metadata>
  <defs
     id="defs12">
    <linearGradient
       gradientTransform="translate(75,-7)"
       id="a-367"
       gradientUnits="userSpaceOnUse"
       x1="14"
       x2="13.79661"
       y1="22"
       y2="2.1355929">
      <stop
         offset="0"
         stop-color="#0040dd"
         id="stop2206" />
      <stop
         offset="1"
         stop-color="#0a84ff"
         id="stop2208" />
    </linearGradient>
    <linearGradient
       inkscape:collect="always"
       xlink:href="#a-367"
       id="linearGradient1558"
       x1="23"
       y1="23"
       x2="22.928091"
       y2="11.103449"
       gradientUnits="userSpaceOnUse" />
  </defs>
  <sodipodi:namedview
     pagecolor="#ffffff"
     bordercolor="#666666"
     borderopacity="1"
     objecttolerance="10"
     gridtolerance="10"
     guidetolerance="10"
     inkscape:pageopacity="0"
     inkscape:pageshadow="2"
     inkscape:window-width="1366"
     inkscape:window-height="706"
     id="namedview10"
     showgrid="false"
     inkscape:zoom="6.9532167"
     inkscape:cx="23.168743"
     inkscape:cy="-1.9744514"
     inkscape:window-x="0"
     inkscape:window-y="0"
     inkscape:window-maximized="1"
     inkscape:current-layer="svg8" />
  <path
     inkscape:connector-curvature="0"
     style="fill:#69696e;fill-opacity:1"
     d="m 2,2 v 20 h 3 v -9 h 8 v 9 h 1.025391 c 0.02196,-0.167508 0.05554,-0.332458 0.109375,-0.488281 a 1.0001,1.0001 0 0 1 0.0078,-0.01953 c 0.117955,-0.319418 0.315689,-0.598097 0.546875,-0.820313 L 16,19.318359 V 15.625 l -0.992188,-0.171875 a 1.0001,1.0001 0 0 1 -0.818359,-1.138672 c 0.103306,-0.670027 0.294491,-1.283693 0.587891,-1.828125 0,0 0.002,-0.002 0.002,-0.002 v -0.002 c 0.284549,-0.53313 0.653749,-1.002004 1.105469,-1.376953 0.03576,-0.02975 0.07858,-0.04956 0.115234,-0.07813 V 2 h -3 v 8 H 5 V 2 Z"
     id="path2-3" />
  <path
     inkscape:connector-curvature="0"
     style="fill:url(#linearGradient1558);fill-opacity:1"
     d="m 19.177734,11 c -0.516704,0 -0.999798,0.07374 -1.451172,0.222656 -0.451372,0.142963 -0.852716,0.36046 -1.203124,0.652344 -0.34447,0.285927 -0.631656,0.647184 -0.863282,1.082031 -0.231626,0.42889 -0.393334,0.931955 -0.482422,1.509766 l 1.140625,0.197265 c 0.285078,0.04766 0.507613,0.02871 0.667969,-0.05469 0.166295,-0.08339 0.297552,-0.261142 0.392578,-0.535156 0.05345,-0.178704 0.129504,-0.345123 0.230469,-0.5 0.100965,-0.154878 0.222695,-0.289165 0.365234,-0.402344 0.142539,-0.113177 0.304248,-0.204005 0.482422,-0.269531 0.178174,-0.06553 0.374082,-0.09766 0.587891,-0.09766 0.498886,0 0.885003,0.139951 1.158203,0.419921 0.2732,0.27997 0.410156,0.694161 0.410156,1.242188 0,0.303797 -0.03998,0.59503 -0.117187,0.875 -0.07721,0.274014 -0.19324,0.548252 -0.347656,0.822265 -0.148478,0.268056 -0.33486,0.54044 -0.560547,0.814454 -0.219748,0.274013 -0.474608,0.561437 -0.765625,0.865234 l -3.439454,3.548828 C 15.240275,21.529578 15.139471,21.67705 15.080078,21.837884 15.026625,21.992768 15,22.138384 15,22.275391 V 23 h 8 v -1.287109 c 0,-0.214446 -0.07035,-0.386527 -0.212891,-0.517579 -0.1366,-0.13105 -0.319235,-0.197265 -0.544921,-0.197265 h -2.681641 c -0.231625,0 -0.480786,0.02461 -0.748047,0.07227 -0.267261,0.0417 -0.533521,0.104106 -0.800781,0.1875 l 2.511719,-2.636718 c 0.308834,-0.321668 0.603673,-0.639367 0.882812,-0.955078 0.279139,-0.321668 0.522599,-0.648842 0.730469,-0.982422 0.207869,-0.339539 0.373325,-0.695131 0.498047,-1.064453 0.124721,-0.37528 0.1875,-0.779997 0.1875,-1.214844 0,-0.506329 -0.0894,-0.967788 -0.267578,-1.384766 C 22.382453,12.596598 22.135166,12.235341 21.814453,11.9375 21.49968,11.639659 21.11739,11.410833 20.666016,11.25 20.220582,11.083209 19.724134,11 19.177734,11 Z"
     id="path4" />
</svg>
