<?xml version="1.0" encoding="UTF-8" standalone="no"?>
<svg
   xmlns:dc="http://purl.org/dc/elements/1.1/"
   xmlns:cc="http://creativecommons.org/ns#"
   xmlns:rdf="http://www.w3.org/1999/02/22-rdf-syntax-ns#"
   xmlns:svg="http://www.w3.org/2000/svg"
   xmlns="http://www.w3.org/2000/svg"
   xmlns:xlink="http://www.w3.org/1999/xlink"
   xmlns:sodipodi="http://sodipodi.sourceforge.net/DTD/sodipodi-0.dtd"
   xmlns:inkscape="http://www.inkscape.org/namespaces/inkscape"
   viewBox="0 0 24 24"
   version="1.1"
   id="svg8"
   sodipodi:docname="lc_heading3parastyle.svg"
   inkscape:version="0.92.3 (unknown)"
   inkscape:export-filename="/home/rizmut/Dokumen/Rizmut/Github/libreoffice-style-sukapura/images_sukapura/cmd/lc_heading3parastyle.png"
   inkscape:export-xdpi="96"
   inkscape:export-ydpi="96">
  <metadata
     id="metadata14">
    <rdf:RDF>
      <cc:Work
         rdf:about="">
        <dc:format>image/svg+xml</dc:format>
        <dc:type
           rdf:resource="http://purl.org/dc/dcmitype/StillImage" />
        <dc:title></dc:title>
      </cc:Work>
    </rdf:RDF>
  </metadata>
  <defs
     id="defs12">
    <linearGradient
       gradientTransform="translate(75,-7)"
       id="a-367"
       gradientUnits="userSpaceOnUse"
       x1="14"
       x2="13.79661"
       y1="22"
       y2="2.1355929">
      <stop
         offset="0"
         stop-color="#0040dd"
         id="stop2206" />
      <stop
         offset="1"
         stop-color="#0a84ff"
         id="stop2208" />
    </linearGradient>
    <linearGradient
       inkscape:collect="always"
       xlink:href="#a-367"
       id="linearGradient1593"
       x1="19.271187"
       y1="23.20339"
       x2="19.287109"
       y2="11"
       gradientUnits="userSpaceOnUse" />
  </defs>
  <sodipodi:namedview
     pagecolor="#ffffff"
     bordercolor="#666666"
     borderopacity="1"
     objecttolerance="10"
     gridtolerance="10"
     guidetolerance="10"
     inkscape:pageopacity="0"
     inkscape:pageshadow="2"
     inkscape:window-width="1366"
     inkscape:window-height="706"
     id="namedview10"
     showgrid="false"
     inkscape:zoom="9.8333333"
     inkscape:cx="24.09136"
     inkscape:cy="-0.17456901"
     inkscape:window-x="0"
     inkscape:window-y="0"
     inkscape:window-maximized="1"
     inkscape:current-layer="svg8" />
  <path
     inkscape:connector-curvature="0"
     style="fill:#69696e;fill-opacity:1"
     d="m 2,2 v 20 h 3 v -9 h 8 v 9 h 1.910156 c -0.05634,-0.08228 -0.121619,-0.15601 -0.173828,-0.242188 l -0.002,-0.0039 -0.0039,-0.0059 c -0.27486,-0.465352 -0.497945,-0.983801 -0.6816,-1.554653 l -0.28125,-0.871093 1.78711,-0.75586 0.0078,-0.0039 C 15.698765,18.507326 15.85014,18.481553 16,18.453125 V 15.5625 l -1.802734,-0.310547 0.138672,-0.962891 c 0.0962,-0.666811 0.28531,-1.281261 0.580078,-1.826171 v -0.002 C 15.194475,11.94134 15.560929,11.488239 16,11.123047 V 2 h -3 v 8 H 5 V 2 Z"
     id="path2" />
  <path
     inkscape:connector-curvature="0"
     style="fill:url(#linearGradient1593);fill-opacity:1"
     d="m 19.287109,11 c -0.512707,0 -0.99352,0.07332 -1.441406,0.220703 -0.441989,0.141489 -0.835896,0.357613 -1.183594,0.646485 -0.347698,0.282978 -0.637352,0.639952 -0.867187,1.070312 -0.229834,0.424467 -0.386245,0.922291 -0.46875,1.494141 L 16.449219,14.625 c 0.288766,0.04716 0.510839,0.0298 0.664062,-0.05273 0.159116,-0.08254 0.284616,-0.258111 0.378907,-0.529297 0.11197,-0.353722 0.312796,-0.652822 0.601562,-0.894531 0.288766,-0.24171 0.647922,-0.361329 1.078125,-0.361329 0.483241,0 0.857854,0.135064 1.123047,0.40625 0.271087,0.271187 0.40625,0.674461 0.40625,1.210938 0,0.253501 -0.03283,0.483116 -0.09766,0.689453 -0.06483,0.206337 -0.184533,0.385783 -0.361328,0.539062 -0.176796,0.147385 -0.422036,0.263168 -0.734376,0.345704 -0.306445,0.08256 -0.700352,0.126945 -1.183593,0.132812 v 1.511719 c 0.577532,0 1.033228,0.04438 1.36914,0.132812 0.335912,0.08843 0.590816,0.211919 0.761719,0.371094 0.176794,0.159175 0.288791,0.352149 0.335938,0.576172 0.05304,0.224024 0.07813,0.471002 0.07813,0.742187 0,0.212234 -0.03862,0.424487 -0.115235,0.636719 -0.07661,0.212233 -0.190527,0.403254 -0.34375,0.574219 -0.153222,0.165071 -0.348257,0.300134 -0.583984,0.40625 -0.229835,0.100221 -0.500161,0.150391 -0.8125,0.150391 -0.253407,0 -0.477399,-0.03664 -0.671875,-0.113282 -0.194475,-0.07664 -0.368262,-0.180849 -0.521485,-0.310547 -0.147329,-0.135593 -0.280574,-0.288019 -0.398437,-0.458984 -0.117864,-0.176861 -0.22986,-0.365964 -0.335937,-0.566406 -0.0884,-0.182759 -0.240937,-0.298543 -0.458985,-0.345703 -0.212154,-0.05306 -0.441938,-0.02795 -0.689453,0.07227 L 15,19.886719 c 0.165009,0.512895 0.361962,0.964421 0.591797,1.353515 0.235727,0.389094 0.513799,0.717131 0.832031,0.982422 0.324125,0.259396 0.696784,0.452334 1.121094,0.582032 C 17.975124,22.934386 18.471397,23 19.03125,23 c 0.530387,0 1.034371,-0.07719 1.511719,-0.230469 0.48324,-0.153279 0.904187,-0.382894 1.263672,-0.689453 0.365377,-0.306558 0.655032,-0.682812 0.867187,-1.130859 C 22.891875,20.495276 23,19.970431 23,19.375 c 0,-1.355932 -0.668107,-2.260901 -2.005859,-2.714844 0.282872,-0.09433 0.535824,-0.215897 0.759765,-0.363281 0.223941,-0.147383 0.413183,-0.326829 0.566406,-0.539063 0.153222,-0.212232 0.267139,-0.45921 0.34375,-0.742187 0.0825,-0.282977 0.123047,-0.611014 0.123047,-0.982422 0,-0.41857 -0.08109,-0.810269 -0.246093,-1.175781 C 22.3819,12.486014 22.152115,12.163765 21.851562,11.892578 21.55101,11.615497 21.182189,11.397456 20.746094,11.238281 20.31589,11.079107 19.829282,11 19.287109,11 Z"
     id="path4-6" />
</svg>
