<?xml version="1.0" encoding="UTF-8" standalone="no"?>
<svg
   xmlns:dc="http://purl.org/dc/elements/1.1/"
   xmlns:cc="http://creativecommons.org/ns#"
   xmlns:rdf="http://www.w3.org/1999/02/22-rdf-syntax-ns#"
   xmlns:svg="http://www.w3.org/2000/svg"
   xmlns="http://www.w3.org/2000/svg"
   xmlns:xlink="http://www.w3.org/1999/xlink"
   xmlns:sodipodi="http://sodipodi.sourceforge.net/DTD/sodipodi-0.dtd"
   xmlns:inkscape="http://www.inkscape.org/namespaces/inkscape"
   viewBox="0 0 24 24"
   version="1.1"
   id="svg22"
   sodipodi:docname="lc_inserthyperlink.svg"
   inkscape:version="0.92.3 (unknown)">
  <metadata
     id="metadata28">
    <rdf:RDF>
      <cc:Work
         rdf:about="">
        <dc:format>image/svg+xml</dc:format>
        <dc:type
           rdf:resource="http://purl.org/dc/dcmitype/StillImage" />
      </cc:Work>
    </rdf:RDF>
  </metadata>
  <defs
     id="defs26">
    <linearGradient
       inkscape:collect="always"
       id="linearGradient834">
      <stop
         style="stop-color:#e5eefc;stop-opacity:1;"
         offset="0"
         id="stop830" />
      <stop
         style="stop-color:#fcfdff;stop-opacity:1"
         offset="1"
         id="stop832" />
    </linearGradient>
    <linearGradient
       inkscape:collect="always"
       xlink:href="#linearGradient834"
       id="linearGradient871"
       x1="11.135593"
       y1="13.889831"
       x2="10.576271"
       y2="5.2457628"
       gradientUnits="userSpaceOnUse" />
  </defs>
  <sodipodi:namedview
     pagecolor="#ffffff"
     bordercolor="#666666"
     borderopacity="1"
     objecttolerance="10"
     gridtolerance="10"
     guidetolerance="10"
     inkscape:pageopacity="0"
     inkscape:pageshadow="2"
     inkscape:window-width="1366"
     inkscape:window-height="706"
     id="namedview24"
     showgrid="false"
     inkscape:zoom="1.7383042"
     inkscape:cx="4.3066416"
     inkscape:cy="-22.924085"
     inkscape:window-x="0"
     inkscape:window-y="0"
     inkscape:window-maximized="1"
     inkscape:current-layer="svg22" />
  <path
     d="m10.5 3a7.5 7.5 0 0 0 -7.5 7.5 7.5 7.5 0 0 0 .8730469 3.5h13.2558591a7.5 7.5 0 0 0 .871094-3.5 7.5 7.5 0 0 0 -7.5-7.5z"
     fill="#fff"
     id="path2"
     style="fill-opacity:1;fill:url(#linearGradient871)" />
  <g
     fill="#808080"
     id="g12">
    <path
       d="m10.5 2a8.5 8.5 0 0 0 -8.5 8.5 8.5 8.5 0 0 0 .7636719 3.5h1.109375a7.5 7.5 0 0 1 -.8730469-3.5 7.5 7.5 0 0 1 7.5-7.5 7.5 7.5 0 0 1 7.5 7.5 7.5 7.5 0 0 1 -.871094 3.5h1.105469a8.5 8.5 0 0 0 .765625-3.5 8.5 8.5 0 0 0 -8.5-8.5z"
       id="path4"
       style="fill:#0a84ff;fill-opacity:1" />
    <path
       d="m2.637553 10h15.845709v1h-15.845709z"
       id="path6"
       style="fill:#0a84ff;fill-opacity:1" />
    <path
       d="m9.5410156 2.2128906c-2.4584665 3.9164445-3.0789627 7.8785134-2.078125 11.7871094h1.015625c-1.0472131-3.729976-.482262-7.4446328 1.9101564-11.2558594z"
       fill-rule="evenodd"
       id="path8"
       style="fill:#0a84ff;fill-opacity:1" />
    <path
       d="m11.458984 2.2128906-.847656.53125c2.392419 3.8112266 2.957367 7.5258834 1.910156 11.2558594h1.015625c1.000838-3.908596.380337-7.8706648-2.078125-11.7871094z"
       fill-rule="evenodd"
       id="path10"
       style="fill:#0a84ff;fill-opacity:1" />
  </g>
  <path
     d="m4 5.5017908c4.2087338 1.1063541 8.492323 1.5417482 13 0"
     fill="none"
     stroke="#808080"
     id="path14"
     style="stroke:#0a84ff;stroke-opacity:1" />
  <path
     d="m17.061525 15.008214c-.853771.129397-1.567844.693907-1.905351 1.467242-.070974.162553-.118148.345055-.156174.530704h8c-.02609-.124991-.05348-.26222-.09367-.374615-.346295-.966556-1.268692-1.623331-2.342634-1.623331h-3.12732c-.126904 0-.252859-.01848-.374815 0zm-2.061525 5.99384c.235196 1.130787 1.239282 1.997946 2.43634 1.997946h3.12732c1.197048 0 2.201154-.867159 2.43634-1.997946z"
     fill="#4d82b8"
     id="path16"
     style="fill:#98989d;fill-opacity:1" />
  <path
     d="m7.061525 15.008214c-.853771.129397-1.567844.693907-1.905351 1.467242-.070974.162553-.118148.345055-.156174.530704h8c-.02609-.124991-.05348-.26222-.09367-.374615-.346295-.966556-1.268692-1.623331-2.342634-1.623331h-3.12732c-.126904 0-.252859-.01848-.374815 0zm-2.061525 5.99384c.235196 1.130787 1.239282 1.997946 2.43634 1.997946h3.12732c1.197048 0 2.201154-.867159 2.43634-1.997946z"
     fill="#4d82b8"
     id="path18"
     style="fill:#98989d;fill-opacity:1" />
  <rect
     fill="#4d82b8"
     height="2"
     ry=".988609"
     width="8"
     x="10"
     y="18"
     id="rect20"
     style="fill:#98989d;fill-opacity:1;stroke:none" />
</svg>
