<?xml version="1.0" encoding="UTF-8" standalone="no"?>
<svg
   xmlns:dc="http://purl.org/dc/elements/1.1/"
   xmlns:cc="http://creativecommons.org/ns#"
   xmlns:rdf="http://www.w3.org/1999/02/22-rdf-syntax-ns#"
   xmlns:svg="http://www.w3.org/2000/svg"
   xmlns="http://www.w3.org/2000/svg"
   xmlns:sodipodi="http://sodipodi.sourceforge.net/DTD/sodipodi-0.dtd"
   xmlns:inkscape="http://www.inkscape.org/namespaces/inkscape"
   viewBox="0 0 24 24"
   version="1.1"
   id="svg9"
   sodipodi:docname="lc_insertsymbol.svg"
   inkscape:version="0.92.3 (2405546, 2018-03-11)">
  <metadata
     id="metadata15">
    <rdf:RDF>
      <cc:Work
         rdf:about="">
        <dc:format>image/svg+xml</dc:format>
        <dc:type
           rdf:resource="http://purl.org/dc/dcmitype/StillImage" />
        <dc:title></dc:title>
      </cc:Work>
    </rdf:RDF>
  </metadata>
  <defs
     id="defs13" />
  <sodipodi:namedview
     pagecolor="#ffffff"
     bordercolor="#666666"
     borderopacity="1"
     objecttolerance="10"
     gridtolerance="10"
     guidetolerance="10"
     inkscape:pageopacity="0"
     inkscape:pageshadow="2"
     inkscape:window-width="1366"
     inkscape:window-height="692"
     id="namedview11"
     showgrid="false"
     inkscape:zoom="9.8333333"
     inkscape:cx="-1.0677966"
     inkscape:cy="11.186441"
     inkscape:window-x="0"
     inkscape:window-y="0"
     inkscape:window-maximized="1"
     inkscape:current-layer="svg9" />
  <linearGradient
     id="a"
     gradientUnits="userSpaceOnUse"
     x1="12.169492"
     x2="12"
     y1="21.966103"
     y2="2">
    <stop
       offset="0"
       stop-color="#0040dd"
       id="stop2" />
    <stop
       offset="1"
       stop-color="#0a84ff"
       id="stop4" />
  </linearGradient>
  <path
     d="m12 2c-5.5228488 0-9.0000019 3.9175089-9 8.75 0 4.25 1.8908055 6.695601 5 8.25v1h-4.75c-.992825-.26605-1.2087-1.27845-1.25-1.546875v3.546875h8.007812v-2.5-.507812l-.664062-.273438c-2.1905344-1.337018-3.3404919-4.072801-3.34375-7.21875-.0000099-4.4873253 2-7.5 6-7.5s6.00001 3.0126747 6 7.5c-.0033 3.145949-1.153216 5.881732-3.34375 7.21875l-.664062.273438v.507812 2.5h8.007812v-3.546875c-.0413.268425-.257175 1.280825-1.25 1.546875h-4.75v-1c3.109194-1.554399 5-4 5-8.25.000002-4.8324911-3.477151-8.75-9-8.75z"
     fill="url(#a)"
     id="path7" />
</svg>
