<?xml version="1.0" encoding="UTF-8" standalone="no"?>
<svg
   xmlns:dc="http://purl.org/dc/elements/1.1/"
   xmlns:cc="http://creativecommons.org/ns#"
   xmlns:rdf="http://www.w3.org/1999/02/22-rdf-syntax-ns#"
   xmlns:svg="http://www.w3.org/2000/svg"
   xmlns="http://www.w3.org/2000/svg"
   xmlns:xlink="http://www.w3.org/1999/xlink"
   xmlns:sodipodi="http://sodipodi.sourceforge.net/DTD/sodipodi-0.dtd"
   xmlns:inkscape="http://www.inkscape.org/namespaces/inkscape"
   viewBox="0 0 24 24"
   version="1.1"
   id="svg35"
   sodipodi:docname="lc_insertendnote.svg"
   inkscape:version="0.92.3 (2405546, 2018-03-11)">
  <metadata
     id="metadata41">
    <rdf:RDF>
      <cc:Work
         rdf:about="">
        <dc:format>image/svg+xml</dc:format>
        <dc:type
           rdf:resource="http://purl.org/dc/dcmitype/StillImage" />
      </cc:Work>
    </rdf:RDF>
  </metadata>
  <defs
     id="defs39" />
  <sodipodi:namedview
     pagecolor="#ffffff"
     bordercolor="#666666"
     borderopacity="1"
     objecttolerance="10"
     gridtolerance="10"
     guidetolerance="10"
     inkscape:pageopacity="0"
     inkscape:pageshadow="2"
     inkscape:window-width="1366"
     inkscape:window-height="685"
     id="namedview37"
     showgrid="false"
     inkscape:zoom="9.8333333"
     inkscape:cx="-3.1525424"
     inkscape:cy="11.186441"
     inkscape:window-x="0"
     inkscape:window-y="0"
     inkscape:window-maximized="1"
     inkscape:current-layer="svg35" />
  <linearGradient
     id="a">
    <stop
       offset="0"
       stop-color="#fff"
       id="stop2" />
    <stop
       offset=".5"
       stop-color="#fff"
       id="stop4" />
    <stop
       offset=".75"
       stop-color="#fff"
       id="stop6" />
    <stop
       offset="1"
       stop-color="#fbfbfb"
       id="stop8" />
  </linearGradient>
  <linearGradient
     id="b"
     gradientUnits="userSpaceOnUse"
     x1="11"
     x2="19.084745"
     xlink:href="#a"
     y1="14.5"
     y2="7.686441" />
  <linearGradient
     id="c"
     gradientUnits="userSpaceOnUse"
     x1="11"
     x2="20"
     xlink:href="#a"
     y1="14.5"
     y2="7" />
  <g
     transform="translate(-8 -4)"
     id="g17">
    <path
       d="m11 6c-.554 0-1 .446-1 1v15c0 .554.446 1 1 1h9c.554 0 1-.446 1-1v-15c0-.554-.446-1-1-1zm0 1h9v15h-9z"
       fill="#98989d"
       id="path13" />
    <path
       d="m11 7h9v15h-9z"
       fill="url(#c)"
       id="path15" />
  </g>
  <g
     transform="translate(-4 -2)"
     id="g23">
    <path
       d="m11 6c-.554 0-1 .446-1 1v15c0 .554.446 1 1 1h9c.554 0 1-.446 1-1v-15c0-.554-.446-1-1-1zm0 1h9v15h-9z"
       fill="#98989d"
       id="path19" />
    <path
       d="m11 7h9v15h-9z"
       fill="url(#c)"
       id="path21" />
  </g>
  <path
     d="m11 6c-.554 0-1 .446-1 1v15c0 .554.446 1 1 1h8v-1h-8v-15h9v3.283203c.296519-.175464.636031-.283203 1-.283203v-3c0-.554-.446-1-1-1z"
     fill="#98989d"
     id="path25" />
  <path
     d="m11 7v15h8v-8a1.0001 1.0001 0 0 1 .482422-.853516c-.252344-.334808-.482422-.702403-.482422-1.146484 0-.726734.407943-1.366449 1-1.716797v-3.283203z"
     fill="url(#b)"
     id="path27" />
  <g
     fill="#0a84ff"
     id="g33"
     style="fill:#d70015;fill-opacity:1">
    <rect
       height="2"
       ry="1"
       width="2"
       x="20"
       y="11"
       id="rect29"
       style="fill:#d70015;fill-opacity:1" />
    <path
       d="m20 14h2v9h-2z"
       id="path31"
       style="fill:#d70015;fill-opacity:1" />
  </g>
</svg>
