<?xml version="1.0" encoding="UTF-8" standalone="no"?>
<svg
   xmlns:dc="http://purl.org/dc/elements/1.1/"
   xmlns:cc="http://creativecommons.org/ns#"
   xmlns:rdf="http://www.w3.org/1999/02/22-rdf-syntax-ns#"
   xmlns:svg="http://www.w3.org/2000/svg"
   xmlns="http://www.w3.org/2000/svg"
   xmlns:sodipodi="http://sodipodi.sourceforge.net/DTD/sodipodi-0.dtd"
   xmlns:inkscape="http://www.inkscape.org/namespaces/inkscape"
   viewBox="0 0 24 24"
   version="1.1"
   id="svg18"
   sodipodi:docname="lc_insertreferencefield.svg"
   inkscape:export-filename="/home/rizmut/Dokumen/Rizmut/Github/libreoffice-style-sukapura/images_sukapura/cmd/lc_insertreferencefield.png"
   inkscape:export-xdpi="96"
   inkscape:export-ydpi="96"
   inkscape:version="0.92.3 (unknown)">
  <metadata
     id="metadata24">
    <rdf:RDF>
      <cc:Work
         rdf:about="">
        <dc:format>image/svg+xml</dc:format>
        <dc:type
           rdf:resource="http://purl.org/dc/dcmitype/StillImage" />
      </cc:Work>
    </rdf:RDF>
  </metadata>
  <defs
     id="defs22" />
  <sodipodi:namedview
     pagecolor="#ffffff"
     bordercolor="#666666"
     borderopacity="1"
     objecttolerance="10"
     gridtolerance="10"
     guidetolerance="10"
     inkscape:pageopacity="0"
     inkscape:pageshadow="2"
     inkscape:window-width="1366"
     inkscape:window-height="697"
     id="namedview20"
     showgrid="true"
     inkscape:zoom="19.666667"
     inkscape:cx="25.122529"
     inkscape:cy="11.850387"
     inkscape:window-x="0"
     inkscape:window-y="0"
     inkscape:window-maximized="1"
     inkscape:current-layer="svg18"
     showguides="false">
    <inkscape:grid
       type="xygrid"
       id="grid833" />
  </sodipodi:namedview>
  <path
     d="M 11 8 L 11 9.4648438 L 11 10.5 L 11 18.535156 L 11 21 L 21 21 L 21 18.535156 L 21 14.734375 L 21 14.277344 L 21 9.4648438 L 21 8 L 11 8 z "
     id="path2"
     style="fill:#ffffff" />
  <rect
     fill="#bf5af2"
     height="1"
     ry=".482023"
     width="5"
     x="15"
     y="18"
     id="rect4"
     style="fill:#d70015;fill-opacity:1" />
  <path
     d="m11 7c-.554 0-1 .446-1 1v13c0 .554.446 1 1 1h10c.554 0 1-.446 1-1v-13c0-.554-.446-1-1-1zm0 1h10v6.277344c.007435.048949.018875.095307.021484.146484.005185.101687-.002278.206452-.021484.310547v6.265625h-10v-10.5z"
     fill="#98989d"
     id="path6"
     style="fill:#98989d;fill-opacity:1" />
  <path
     d="M 3,3 V 16 H 13 V 12.535156 12 3 Z"
     id="path8"
     style="fill:#ffffff"
     inkscape:connector-curvature="0"
     sodipodi:nodetypes="ccccccc" />
  <path
     style="fill:#98989d;fill-opacity:1"
     d="M 3 2 C 2.446 2 2 2.446 2 3 L 2 16 C 2 16.554 2.446 17 3 17 L 13 17 C 13.554 17 14 16.554 14 16 L 14 12.535156 L 14 12 L 14 11.535156 L 14 11.464844 L 14 9 L 14 8.4648438 L 14 3 C 14 2.446 13.554 2 13 2 L 3 2 z M 3 3 L 13 3 L 13 8.4648438 L 13 9 L 13 11.464844 L 13 11.535156 L 13 12 L 13 12.535156 L 13 16 L 3 16 L 3 3 z "
     id="path12" />
  <rect
     fill="#bf5af2"
     height="1"
     ry=".410114"
     width="7"
     x="4"
     y="10"
     id="rect10"
     style="fill:#d70015;fill-opacity:1" />
  <path
     style="fill:#ffffff;fill-opacity:0.78431374"
     d="M 12.5 9 C 11.686297 9 11 9.6862972 11 10.5 C 11 11.313703 11.686297 12 12.5 12 L 14 12 L 16 12 L 16 13.207031 C 15.827698 13.139731 15.688414 12.99414 15.5 12.994141 C 14.869795 12.994269 14.317803 13.416424 14.109375 13.931641 C 13.900947 14.446857 14.00418 15.133992 14.457031 15.572266 L 16.445312 17.560547 C 17.022703 18.137697 17.989017 18.137697 18.566406 17.560547 L 20.552734 15.574219 C 20.780898 15.355144 20.94238 15.046661 21 14.734375 C 21.01918 14.63028 21.026684 14.525515 21.021484 14.423828 C 21.018884 14.372654 21.0074 14.326294 21 14.277344 C 20.948342 13.937258 20.790818 13.648239 20.574219 13.431641 C 20.326444 13.183866 19.98878 13.005115 19.582031 12.984375 C 19.376343 12.973888 19.202228 13.137033 19 13.220703 L 19 12 C 19 10.35499 17.64501 9 16 9 L 14 9 L 12.5 9 z "
     id="path844" />
  <path
     style="fill:#98989d;fill-rule:evenodd"
     inkscape:connector-curvature="0"
     id="path14"
     d="m 12.5,10 c -0.277,0 -0.5,0.223 -0.5,0.5 0,0.277 0.223,0.5 0.5,0.5 H 16 a 1,1 0 0 1 1,1 v 3.287109 L 15.859375,14.146484 A 0.50005,0.50005 0 0 0 15.5,13.994141 0.50005,0.50005 0 0 0 15.152344,14.853516 l 2,2 a 0.50005,0.50005 0 0 0 0.707031,0 l 2,-2 A 0.50005,0.50005 0 1 0 19.152344,14.146484 L 18,15.298828 V 12 a 2,2 0 0 0 -2,-2 z" />
</svg>
