<svg viewBox="0 0 24 24" xmlns="http://www.w3.org/2000/svg" xmlns:xlink="http://www.w3.org/1999/xlink"><linearGradient id="a"><stop offset="0" stop-color="#fff"/><stop offset=".5" stop-color="#fff"/><stop offset=".75" stop-color="#fff"/><stop offset="1" stop-color="#fbfbfb"/></linearGradient><linearGradient id="b" gradientUnits="userSpaceOnUse" x1="11" x2="19.084745" xlink:href="#a" y1="14.5" y2="7.686441"/><linearGradient id="c" gradientUnits="userSpaceOnUse" x1="11" x2="20" xlink:href="#a" y1="14.5" y2="7"/><g transform="translate(-8 -4)"><path d="m11 6c-.554 0-1 .446-1 1v15c0 .554.446 1 1 1h9c.554 0 1-.446 1-1v-15c0-.554-.446-1-1-1zm0 1h9v15h-9z" fill="#98989d"/><path d="m11 7h9v15h-9z" fill="url(#c)"/></g><g transform="translate(-4 -2)"><path d="m11 6c-.554 0-1 .446-1 1v15c0 .554.446 1 1 1h9c.554 0 1-.446 1-1v-15c0-.554-.446-1-1-1zm0 1h9v15h-9z" fill="#98989d"/><path d="m11 7h9v15h-9z" fill="url(#c)"/></g><path d="m11 6c-.554 0-1 .446-1 1v15c0 .554.446 1 1 1h8v-1h-8v-15h9v3.283203c.296519-.175464.636031-.283203 1-.283203v-3c0-.554-.446-1-1-1z" fill="#98989d"/><path d="m11 7v15h8v-8a1.0001 1.0001 0 0 1 .482422-.853516c-.252344-.334808-.482422-.702403-.482422-1.146484 0-.726734.407943-1.366449 1-1.716797v-3.283203z" fill="url(#b)"/><g fill="#d70015"><rect height="2" ry="1" width="2" x="20" y="11"/><path d="m20 14h2v9h-2z"/></g></svg>