<svg viewBox="0 0 24 24" xmlns="http://www.w3.org/2000/svg" xmlns:xlink="http://www.w3.org/1999/xlink"><linearGradient id="a" gradientUnits="userSpaceOnUse" x1="15" x2="17.0000008" y1="7" y2="4.9999992"><stop offset="0" stop-color="#fff"/><stop offset=".77967989" stop-color="#f1f1f1"/><stop offset="1" stop-color="#d5d5d5"/></linearGradient><radialGradient id="b" cx="16.169491" cy="7.175141" gradientTransform="matrix(1 0 0 1.2857143 0 -3.428571)" gradientUnits="userSpaceOnUse" r="7"><stop offset="0" stop-color="#d7d7d7"/><stop offset=".29999998" stop-color="#f7f7f7"/><stop offset="1" stop-color="#fff"/></radialGradient><path d="m5 3v18h5v-10c0-1.0907028.909297-2 2-2 .545351 0 1.044541.2281347 1.408203.5917969.262983-.343382.627453-.5976924 1.111328-.5917969.211155.0024613.417984.0532845.605469.1445312h.001953l3.873047 1.8847658v-4.3007814l-4-3.7285156zm10.044922 8.328125v5.427734l3.955078-1.492187v-2.009766zm3.955078 6.074219-3.996094 1.505859c-.360204.136249-.687987-.020578-1.003906-.164062v2.255859h5z" fill="url(#b)"/><path d="m5 2c-.554 0-1 .446-1 1v18c0 .554.446 1 1 1h5v-1h-5v-18h9v4c0 .554.446 1 1 1h4v3.029297l1 .486328v-.625-3.640625-.2089844c0-.4506799.098038-.4254121-.605469-1.0664062l-3.30664-3.2382813c-.709525-.7368575-.710169-.7363281-1.09375-.7363281h-.332032-.662109zm14 11.253906v2.009766l1-.376953v-1.146485zm1 3.771485-1 .376953v3.597656h-5v1h5c.554 0 1-.446 1-1z" fill="#98989d"/><path d="m15 7h4l-4-4z" fill="#fff" fill-rule="evenodd"/><path d="m14.507927 10.000201c-.254427-.0030999-.462142.225115-.462277.507799v6.9842c.000328.347953.308173.592601.604651.480457l8.087202-3.048752c.393157-.150748.415773-.75902.03515-.945289l-8.085442-3.935448c-.05655-.02763-.117518-.04225-.179286-.04297z" fill="#0a84ff"/><path d="m12 10c-.554 0-1 .446-1 1v11c0 .554.446 1 1 1s1-.446 1-1v-11c0-.554-.446-1-1-1z" fill="#98989d"/><path d="m15 3 4 4h-4z" fill="url(#a)"/></svg>