<?xml version="1.0" encoding="UTF-8" standalone="no"?>
<svg
   xmlns:dc="http://purl.org/dc/elements/1.1/"
   xmlns:cc="http://creativecommons.org/ns#"
   xmlns:rdf="http://www.w3.org/1999/02/22-rdf-syntax-ns#"
   xmlns:svg="http://www.w3.org/2000/svg"
   xmlns="http://www.w3.org/2000/svg"
   xmlns:xlink="http://www.w3.org/1999/xlink"
   xmlns:sodipodi="http://sodipodi.sourceforge.net/DTD/sodipodi-0.dtd"
   xmlns:inkscape="http://www.inkscape.org/namespaces/inkscape"
   viewBox="0 0 24 24"
   version="1.1"
   id="svg31"
   sodipodi:docname="lc_inserthyperlink.svg"
   inkscape:version="0.92.3 (2405546, 2018-03-11)">
  <metadata
     id="metadata37">
    <rdf:RDF>
      <cc:Work
         rdf:about="">
        <dc:format>image/svg+xml</dc:format>
        <dc:type
           rdf:resource="http://purl.org/dc/dcmitype/StillImage" />
      </cc:Work>
    </rdf:RDF>
  </metadata>
  <defs
     id="defs35">
    <linearGradient
       gradientTransform="translate(-50.237288,-0.30508475)"
       id="a-2"
       gradientUnits="userSpaceOnUse"
       x1="14"
       x2="13.79661"
       y1="22"
       y2="2.1355929">
      <stop
         offset="0"
         stop-color="#0040dd"
         id="stop2-0" />
      <stop
         offset="1"
         stop-color="#0a84ff"
         id="stop4-2" />
    </linearGradient>
    <linearGradient
       inkscape:collect="always"
       xlink:href="#a-2"
       id="linearGradient862"
       x1="3.8730469"
       y1="14"
       x2="3.7966101"
       y2="2.1016948"
       gradientUnits="userSpaceOnUse" />
    <linearGradient
       inkscape:collect="always"
       xlink:href="#a-2"
       id="linearGradient864"
       x1="8.4785156"
       y1="14"
       x2="8.2493744"
       y2="2.155962"
       gradientUnits="userSpaceOnUse" />
    <linearGradient
       inkscape:collect="always"
       xlink:href="#a-2"
       id="linearGradient866"
       x1="13.537109"
       y1="14"
       x2="13.419011"
       y2="1.9941664"
       gradientUnits="userSpaceOnUse" />
    <linearGradient
       inkscape:collect="always"
       xlink:href="#a-2"
       id="linearGradient874"
       x1="11.194743"
       y1="13.95164"
       x2="10.611328"
       y2="2.7441406"
       gradientUnits="userSpaceOnUse" />
    <linearGradient
       inkscape:collect="always"
       xlink:href="#a-2"
       id="linearGradient882"
       x1="10.632344"
       y1="13.70339"
       x2="10.611328"
       y2="2.7441406"
       gradientUnits="userSpaceOnUse" />
  </defs>
  <sodipodi:namedview
     pagecolor="#ffffff"
     bordercolor="#666666"
     borderopacity="1"
     objecttolerance="10"
     gridtolerance="10"
     guidetolerance="10"
     inkscape:pageopacity="0"
     inkscape:pageshadow="2"
     inkscape:window-width="1366"
     inkscape:window-height="685"
     id="namedview33"
     showgrid="false"
     inkscape:zoom="9.8333333"
     inkscape:cx="15.536668"
     inkscape:cy="3.5860732"
     inkscape:window-x="0"
     inkscape:window-y="0"
     inkscape:window-maximized="1"
     inkscape:current-layer="svg31" />
  <linearGradient
     id="a"
     gradientUnits="userSpaceOnUse"
     x1="11.135593"
     x2="10.576271"
     y1="13.889831"
     y2="5.245763">
    <stop
       offset="0"
       stop-color="#e5eefc"
       id="stop2" />
    <stop
       offset="1"
       stop-color="#fcfdff"
       id="stop4" />
  </linearGradient>
  <path
     d="m10.5 3a7.5 7.5 0 0 0 -7.5 7.5 7.5 7.5 0 0 0 .8730469 3.5h13.2558591a7.5 7.5 0 0 0 .871094-3.5 7.5 7.5 0 0 0 -7.5-7.5z"
     fill="url(#a)"
     id="path7" />
  <g
     fill="#0a84ff"
     id="g19">
    <path
       d="m10.5 2a8.5 8.5 0 0 0 -8.5 8.5 8.5 8.5 0 0 0 .7636719 3.5h1.109375a7.5 7.5 0 0 1 -.8730469-3.5 7.5 7.5 0 0 1 7.5-7.5 7.5 7.5 0 0 1 7.5 7.5 7.5 7.5 0 0 1 -.871094 3.5h1.105469a8.5 8.5 0 0 0 .765625-3.5 8.5 8.5 0 0 0 -8.5-8.5z"
       id="path9"
       style="fill-opacity:1;fill:url(#linearGradient862)" />
    <path
       d="m2.637553 10h15.845709v1h-15.845709z"
       id="path11"
       style="fill-opacity:1;fill:url(#linearGradient874)" />
    <g
       fill-rule="evenodd"
       id="g17">
      <path
         d="m9.5410156 2.2128906c-2.4584665 3.9164445-3.0789627 7.8785134-2.078125 11.7871094h1.015625c-1.0472131-3.729976-.482262-7.4446328 1.9101564-11.2558594z"
         id="path13"
         style="fill-opacity:1;fill:url(#linearGradient864)" />
      <path
         d="m11.458984 2.2128906-.847656.53125c2.392419 3.8112266 2.957367 7.5258834 1.910156 11.2558594h1.015625c1.000838-3.908596.380337-7.8706648-2.078125-11.7871094z"
         id="path15"
         style="fill-opacity:1;fill:url(#linearGradient866)" />
    </g>
  </g>
  <path
     d="m4 5.5017908c4.2087338 1.1063541 8.492323 1.5417482 13 0"
     fill="none"
     stroke="#0a84ff"
     id="path21"
     style="stroke:url(#linearGradient882)" />
  <g
     fill="#98989d"
     id="g29">
    <path
       d="m17.061525 15.008214c-.853771.129397-1.567844.693907-1.905351 1.467242-.070974.162553-.118148.345055-.156174.530704h8c-.02609-.124991-.05348-.26222-.09367-.374615-.346295-.966556-1.268692-1.623331-2.342634-1.623331h-3.12732c-.126904 0-.252859-.01848-.374815 0zm-2.061525 5.99384c.235196 1.130787 1.239282 1.997946 2.43634 1.997946h3.12732c1.197048 0 2.201154-.867159 2.43634-1.997946z"
       id="path23" />
    <path
       d="m7.061525 15.008214c-.853771.129397-1.567844.693907-1.905351 1.467242-.070974.162553-.118148.345055-.156174.530704h8c-.02609-.124991-.05348-.26222-.09367-.374615-.346295-.966556-1.268692-1.623331-2.342634-1.623331h-3.12732c-.126904 0-.252859-.01848-.374815 0zm-2.061525 5.99384c.235196 1.130787 1.239282 1.997946 2.43634 1.997946h3.12732c1.197048 0 2.201154-.867159 2.43634-1.997946z"
       id="path25" />
    <rect
       height="2"
       ry=".988609"
       width="8"
       x="10"
       y="18"
       id="rect27" />
  </g>
  <path
     inkscape:connector-curvature="0"
     style="fill:url(#a-2)"
     d="m -40.237288,1.6949153 c -3.313709,0 -6,2.6862915 -6,6 0,3.3137077 2.686291,5.9999997 6,5.9999997 v 8 h 2 V 3.6949153 h 2 V 21.694915 h 2 V 3.6949153 l 4,-1 v -1 z"
     id="path7-3" />
</svg>
