<?xml version="1.0" encoding="UTF-8" standalone="no"?>
<svg
   xmlns:dc="http://purl.org/dc/elements/1.1/"
   xmlns:cc="http://creativecommons.org/ns#"
   xmlns:rdf="http://www.w3.org/1999/02/22-rdf-syntax-ns#"
   xmlns:svg="http://www.w3.org/2000/svg"
   xmlns="http://www.w3.org/2000/svg"
   xmlns:sodipodi="http://sodipodi.sourceforge.net/DTD/sodipodi-0.dtd"
   xmlns:inkscape="http://www.inkscape.org/namespaces/inkscape"
   viewBox="0 0 24 24"
   version="1.1"
   id="svg18"
   sodipodi:docname="lc_insertreferencefield.svg"
   inkscape:export-filename="/home/rizmut/Documents/Rizmut/Github/libreoffice-style-sukapura/images_sukapura/cmd/lc_insertreferencefield.png"
   inkscape:export-xdpi="96"
   inkscape:export-ydpi="96"
   inkscape:version="0.92.3 (2405546, 2018-03-11)">
  <metadata
     id="metadata24">
    <rdf:RDF>
      <cc:Work
         rdf:about="">
        <dc:format>image/svg+xml</dc:format>
        <dc:type
           rdf:resource="http://purl.org/dc/dcmitype/StillImage" />
      </cc:Work>
    </rdf:RDF>
  </metadata>
  <defs
     id="defs22" />
  <sodipodi:namedview
     pagecolor="#ffffff"
     bordercolor="#666666"
     borderopacity="1"
     objecttolerance="10"
     gridtolerance="10"
     guidetolerance="10"
     inkscape:pageopacity="0"
     inkscape:pageshadow="2"
     inkscape:window-width="1366"
     inkscape:window-height="685"
     id="namedview20"
     showgrid="false"
     inkscape:zoom="19.666667"
     inkscape:cx="2.8466872"
     inkscape:cy="17.640516"
     inkscape:window-x="0"
     inkscape:window-y="0"
     inkscape:window-maximized="1"
     inkscape:current-layer="g16" />
  <path
     d="m11 8v2.5c0-.8137028.686297-1.5 1.5-1.5h3.5c1.64501 0 3 1.35499 3 3v1.220703c.202228-.08367.376343-.246815.582031-.236328.406749.020739.744413.199491.992188.447266.216599.216598.374123.505617.425781.845703v-6.277344zm0 2.5v10.5h10v-6.265625c-.057618.312286-.219102.620769-.447266.839844l-1.986328 1.986328c-.577389.57715-1.543703.57715-2.121094 0l-1.988281-1.988281c-.452851-.438274-.556084-1.125409-.347656-1.640625.208428-.515217.76042-.937372 1.390625-.9375.188414-.000001.327698.14559.5.21289v-1.207031h-3.5c-.813703 0-1.5-.686297-1.5-1.5z"
     fill="#fff"
     id="path2" />
  <rect
     fill="#bf5af2"
     height="1"
     ry=".482023"
     width="5"
     x="15"
     y="18"
     id="rect4"
     style="fill:#d70015;fill-opacity:1" />
  <path
     d="m11 7c-.554 0-1 .446-1 1v13c0 .554.446 1 1 1h10c.554 0 1-.446 1-1v-13c0-.554-.446-1-1-1zm0 1h10v6.277344c.007435.048949.018875.095307.021484.146484.005185.101687-.002278.206452-.021484.310547v6.265625h-10v-10.5z"
     fill="#98989d"
     id="path6"
     style="fill:#98989d;fill-opacity:1" />
  <path
     d="m3 3v13h10v-4h-.5c-.813703 0-1.5-.686297-1.5-1.5 0-.8137028.686297-1.5 1.5-1.5h.5v-6z"
     fill="#fff"
     id="path8" />
  <rect
     fill="#bf5af2"
     height="1"
     ry=".410114"
     width="7"
     x="4"
     y="10"
     id="rect10"
     style="fill:#d70015;fill-opacity:1" />
  <g
     fill="#98989d"
     id="g16">
    <path
       d="m3 2c-.554 0-1 .446-1 1v13c0 .554.446 1 1 1h10c.554 0 1-.446 1-1v-4h-1v4h-10v-13h10v6h1v-6c0-.554-.446-1-1-1z"
       id="path12"
       style="fill:#98989d;fill-opacity:1" />
    <path
       d="m12.5 10c-.277 0-.5.223-.5.5s.223.5.5.5h3.5a1 1 0 0 1 1 1v3.287109l-1.140625-1.140625a.50005.50005 0 0 0 -.359375-.152343.50005.50005 0 0 0 -.347656.859375l2 2a.50005.50005 0 0 0 .707031 0l2-2a.50005.50005 0 1 0 -.707031-.707032l-1.152344 1.152344v-3.298828a2 2 0 0 0 -2-2z"
       fill-rule="evenodd"
       id="path14" />
  </g>
</svg>
