<?xml version="1.0" encoding="UTF-8" standalone="no"?>
<svg
   xmlns:dc="http://purl.org/dc/elements/1.1/"
   xmlns:cc="http://creativecommons.org/ns#"
   xmlns:rdf="http://www.w3.org/1999/02/22-rdf-syntax-ns#"
   xmlns:svg="http://www.w3.org/2000/svg"
   xmlns="http://www.w3.org/2000/svg"
   xmlns:xlink="http://www.w3.org/1999/xlink"
   xmlns:sodipodi="http://sodipodi.sourceforge.net/DTD/sodipodi-0.dtd"
   xmlns:inkscape="http://www.inkscape.org/namespaces/inkscape"
   viewBox="0 0 24 24"
   version="1.1"
   id="svg24"
   sodipodi:docname="lc_insertobject.svg"
   inkscape:version="0.92.3 (unknown)"
   inkscape:export-filename="/home/rizmut/Dokumen/Rizmut/Github/libreoffice-style-sukapura/images_sukapura/cmd/lc_insertobject.png"
   inkscape:export-xdpi="96"
   inkscape:export-ydpi="96">
  <metadata
     id="metadata30">
    <rdf:RDF>
      <cc:Work
         rdf:about="">
        <dc:format>image/svg+xml</dc:format>
        <dc:type
           rdf:resource="http://purl.org/dc/dcmitype/StillImage" />
        <dc:title></dc:title>
      </cc:Work>
    </rdf:RDF>
  </metadata>
  <defs
     id="defs28">
    <linearGradient
       gradientTransform="translate(75,-7)"
       id="a-367"
       gradientUnits="userSpaceOnUse"
       x1="14"
       x2="13.79661"
       y1="22"
       y2="2.1355929">
      <stop
         offset="0"
         stop-color="#0040dd"
         id="stop2206" />
      <stop
         offset="1"
         stop-color="#0a84ff"
         id="stop2208" />
    </linearGradient>
    <linearGradient
       inkscape:collect="always"
       xlink:href="#a-367"
       id="linearGradient2220"
       x1="6"
       y1="15.5"
       x2="23.003702"
       y2="15.5"
       gradientUnits="userSpaceOnUse" />
    <linearGradient
       inkscape:collect="always"
       xlink:href="#a-367"
       id="linearGradient2226"
       gradientUnits="userSpaceOnUse"
       x1="13"
       y1="20"
       x2="13"
       y2="11" />
    <linearGradient
       inkscape:collect="always"
       xlink:href="#a-367"
       id="linearGradient2228"
       gradientUnits="userSpaceOnUse"
       x1="13"
       y1="20"
       x2="13"
       y2="11" />
    <linearGradient
       inkscape:collect="always"
       xlink:href="#a-367"
       id="linearGradient2230"
       gradientUnits="userSpaceOnUse"
       x1="13"
       y1="20"
       x2="13"
       y2="11" />
  </defs>
  <sodipodi:namedview
     pagecolor="#ffffff"
     bordercolor="#666666"
     borderopacity="1"
     objecttolerance="10"
     gridtolerance="10"
     guidetolerance="10"
     inkscape:pageopacity="0"
     inkscape:pageshadow="2"
     inkscape:window-width="1366"
     inkscape:window-height="706"
     id="namedview26"
     showgrid="true"
     inkscape:zoom="9.8333333"
     inkscape:cx="18.438418"
     inkscape:cy="8.023351"
     inkscape:window-x="0"
     inkscape:window-y="0"
     inkscape:window-maximized="1"
     inkscape:current-layer="svg24">
    <inkscape:grid
       type="xygrid"
       id="grid2222" />
  </sodipodi:namedview>
  <linearGradient
     id="a"
     gradientUnits="userSpaceOnUse"
     x1="15"
     x2="17.0000008"
     y1="7"
     y2="4.9999992">
    <stop
       offset="0"
       stop-color="#fff"
       id="stop2" />
    <stop
       offset=".77967989"
       stop-color="#f1f1f1"
       id="stop4" />
    <stop
       offset="1"
       stop-color="#d5d5d5"
       id="stop6" />
  </linearGradient>
  <radialGradient
     id="b"
     cx="17"
     cy="6.555555"
     gradientTransform="matrix(1.4285714 -.00000006 .00000006 1.4285714 -7.285714 -4.365078)"
     gradientUnits="userSpaceOnUse"
     r="7">
    <stop
       offset="0"
       stop-color="#d7d7d7"
       id="stop9" />
    <stop
       offset=".29999998"
       stop-color="#f7f7f7"
       id="stop11" />
    <stop
       offset="1"
       stop-color="#fff"
       id="stop13" />
  </radialGradient>
  <g
     id="g844">
    <path
       id="path16"
       fill="url(#b)"
       d="m5 3v18h14v-14.2705905l-4-3.7294095z" />
    <path
       id="path18"
       fill="#98989d"
       d="m5 2c-.554 0-1 .446-1 1v18c0 .554.446 1 1 1h14c.554 0 1-.446 1-1v-10.109375-3.6412209-.2079239c0-.4506799.09887-.4265951-.604637-1.0675892l-3.307389-3.2370335c-.709525-.7368575-.711223-.7368575-1.094804-.7368575h-.331557-.661613zm0 1h9v4c0 .554.446 1 1 1h4v13h-14z" />
    <path
       id="path20"
       fill-rule="evenodd"
       fill="#fff"
       d="m15 7h4l-4-4z" />
    <path
       id="path22"
       fill="url(#a)"
       d="m15 3 4 4h-4z" />
  </g>
  <path
     style="fill:#ffffff;fill-opacity:0.78431374"
     d="M 9.0058594 10 C 8.3925343 10 7.7873838 10.165577 7.265625 10.480469 C 6.7591568 10.782023 6.3303214 11.207802 5.9960938 11.716797 C 5.6611052 12.222271 5.4194009 12.800652 5.2519531 13.439453 C 5.0821008 14.082912 5 14.773201 5 15.503906 C 5 16.239255 5.081671 16.931796 5.2519531 17.576172 C 5.4200852 18.212412 5.6632789 18.788818 5.9980469 19.292969 C 6.3324149 19.79652 6.7584135 20.222047 7.2636719 20.527344 A 1.0001 1.0001 0 0 0 7.2714844 20.533203 C 7.7942307 20.842751 8.3969013 21 9.0058594 21 C 9.6169161 21 10.221267 20.842538 10.742188 20.53125 A 1.0001 1.0001 0 0 0 10.746094 20.527344 C 11.247821 20.224135 11.668879 19.800339 12 19.298828 L 12 20 A 1.0001 1.0001 0 0 0 13 21 L 17 21 L 17.023438 21 A 1.0001 1.0001 0 0 0 17.5 20.865234 A 1.0001 1.0001 0 0 0 17.976562 21 L 19 21 L 20 21 L 20 10.890625 L 20 10 L 19 10 L 18 10 A 1.0001 1.0001 0 0 0 17 11 L 17 18 L 15.056641 18 L 15.056641 11 A 1.0001 1.0001 0 0 0 14.056641 10 L 13 10 A 1.0001 1.0001 0 0 0 12 11 L 12 11.707031 C 11.669466 11.202319 11.245506 10.77899 10.744141 10.480469 C 10.225058 10.165344 9.6197863 10 9.0058594 10 z M 10.380859 11.4375 L 10.396484 11.447266 C 10.394184 11.44572 10.390972 11.446813 10.388672 11.445312 C 10.385472 11.443413 10.384059 11.4394 10.380859 11.4375 z M 11.367188 12.453125 L 11.375 12.464844 C 11.3736 12.462444 11.370641 12.461484 11.369141 12.458984 C 11.368094 12.457284 11.368287 12.454825 11.367188 12.453125 z M 9.0058594 13.052734 C 9.155618 13.052734 9.2313729 13.078672 9.3261719 13.138672 A 1.0001 1.0001 0 0 0 9.3417969 13.148438 C 9.4454886 13.211416 9.5478221 13.306169 9.65625 13.488281 A 1.0001 1.0001 0 0 0 9.6640625 13.5 C 9.7732312 13.677336 9.8780582 13.936066 9.9550781 14.28125 A 1.0001 1.0001 0 0 0 9.9570312 14.289062 C 10.034808 14.62245 10.080078 15.029256 10.080078 15.503906 C 10.080078 15.978556 10.035488 16.386685 9.9570312 16.726562 A 1.0001 1.0001 0 0 0 9.9570312 16.730469 C 9.8801023 17.071612 9.7734108 17.332772 9.6601562 17.519531 C 9.5529762 17.696862 9.4508953 17.791152 9.3417969 17.857422 A 1.0001 1.0001 0 0 0 9.3378906 17.861328 C 9.2410596 17.920908 9.158547 17.947266 9.0058594 17.947266 C 8.8531715 17.947266 8.7656819 17.919142 8.6640625 17.857422 C 8.558698 17.791822 8.4549842 17.694979 8.3457031 17.519531 L 8.34375 17.517578 C 8.2298097 17.329253 8.1242239 17.068657 8.0449219 16.732422 L 8.0449219 16.728516 C 7.9692552 16.388055 7.9257812 15.980232 7.9257812 15.503906 C 7.9257814 15.027589 7.9679507 14.621164 8.0429688 14.287109 C 8.122813 13.941234 8.2304286 13.68091 8.3417969 13.5 A 1.0001 1.0001 0 0 0 8.3457031 13.494141 C 8.4592902 13.306831 8.5651465 13.207801 8.6679688 13.144531 A 1.0001 1.0001 0 0 0 8.6738281 13.140625 C 8.7733571 13.078445 8.8561005 13.052734 9.0058594 13.052734 z "
     id="path1494" />
  <g
     style="fill:url(#linearGradient2220);fill-opacity:1.0"
     id="g14">
    <path
       inkscape:connector-curvature="0"
       d="m 12,15.503351 q 0,0.991808 -0.217823,1.816083 -0.21287,0.824274 -0.60891,1.420699 Q 10.782178,19.33656 10.227723,19.67163 9.6782176,20 9.0049504,20 8.3366335,20 7.7821781,19.67163 7.2277228,19.33656 6.8316832,18.740133 6.4356436,18.143708 6.2178218,17.319434 6,16.495159 6,15.503351 6,14.518242 6.2178218,13.693968 6.4356436,12.862993 6.8316832,12.266567 7.2277228,11.66344 7.7821781,11.33507 8.3366335,11 9.0049504,11 q 0.6732672,0 1.2227726,0.33507 0.554455,0.32837 0.945544,0.931497 0.39604,0.596426 0.60891,1.427401 Q 12,14.518242 12,15.503351 Z m -0.920792,0 q 0,-0.804171 -0.148516,-1.440805 -0.143563,-0.643335 -0.415841,-1.085629 -0.267327,-0.448995 -0.6534651,-0.683545 -0.3811881,-0.24125 -0.8564355,-0.24125 -0.4752477,0 -0.8613862,0.24125 -0.3811882,0.23455 -0.6534653,0.683545 -0.2722772,0.442294 -0.4207921,1.085629 -0.1435643,0.636634 -0.1435643,1.440805 0,0.804169 0.1435643,1.447505 0.1485149,0.636635 0.4207921,1.085629 0.2722771,0.442294 0.6534653,0.676843 0.3861385,0.23455 0.8613862,0.23455 0.4752474,0 0.8564355,-0.23455 0.3861381,-0.234549 0.6534651,-0.676843 0.272278,-0.448994 0.415841,-1.085629 0.148516,-0.643336 0.148516,-1.447505 z"
       id="path8"
       style="fill-opacity:1;fill:url(#linearGradient2226)" />
    <path
       inkscape:connector-curvature="0"
       d="M 14.056603,19 H 17 v 1 h -4 v -9 h 1.056603 z"
       id="path10"
       style="fill-opacity:1;fill:url(#linearGradient2228)" />
    <path
       inkscape:connector-curvature="0"
       d="m 22.999979,11 v 1 h -3.810153 v 3 H 22 v 1 h -2.810174 l 4.72e-4,3 h 3.813405 l -0.0069,1 H 18 v -9 h 5.00002 z"
       id="path12"
       style="fill-opacity:1;fill:url(#linearGradient2230)" />
  </g>
</svg>
