<?xml version="1.0" encoding="UTF-8" standalone="no"?>
<svg
   xmlns:dc="http://purl.org/dc/elements/1.1/"
   xmlns:cc="http://creativecommons.org/ns#"
   xmlns:rdf="http://www.w3.org/1999/02/22-rdf-syntax-ns#"
   xmlns:svg="http://www.w3.org/2000/svg"
   xmlns="http://www.w3.org/2000/svg"
   xmlns:sodipodi="http://sodipodi.sourceforge.net/DTD/sodipodi-0.dtd"
   xmlns:inkscape="http://www.inkscape.org/namespaces/inkscape"
   height="24"
   width="24"
   version="1.1"
   id="svg4"
   sodipodi:docname="lc_linestyle.svg"
   inkscape:version="0.92.3 (unknown)">
  <metadata
     id="metadata10">
    <rdf:RDF>
      <cc:Work
         rdf:about="">
        <dc:format>image/svg+xml</dc:format>
        <dc:type
           rdf:resource="http://purl.org/dc/dcmitype/StillImage" />
        <dc:title></dc:title>
      </cc:Work>
    </rdf:RDF>
  </metadata>
  <defs
     id="defs8" />
  <sodipodi:namedview
     pagecolor="#ffffff"
     bordercolor="#666666"
     borderopacity="1"
     objecttolerance="10"
     gridtolerance="10"
     guidetolerance="10"
     inkscape:pageopacity="0"
     inkscape:pageshadow="2"
     inkscape:window-width="1366"
     inkscape:window-height="699"
     id="namedview6"
     showgrid="false"
     inkscape:zoom="9.8333333"
     inkscape:cx="-1.7288136"
     inkscape:cy="12"
     inkscape:window-x="0"
     inkscape:window-y="0"
     inkscape:window-maximized="1"
     inkscape:current-layer="svg4">
    <inkscape:grid
       type="xygrid"
       id="grid817" />
  </sodipodi:namedview>
  <path
     d="m2.5234375 3 .0078125.0078125a.52341432.52341432 0 0 0 -.03125 0 .52341432.52341432 0 0 0 -.1035156.015625.52341432.52341432 0 0 0 -.0976563.0351563.52341432.52341432 0 0 0 -.046875.0234374.52341432.52341432 0 0 0 -.2246093.28125.52341432.52341432 0 0 0 -.0234376.1015626.52341432.52341432 0 0 0 -.0039062.0585937v.9511719.0019531a.52341432.52341432 0 0 0 .5234375.5234375c6.3175168-.0095359 12.6351255-.0139036 18.9531245-.0234375a.52341432.52341432 0 0 0 .523438-.5234375v-.9296875a.52341432.52341432 0 0 0 -.523438-.5234375zm-.0683594 5c-.2522677 0-.4550781.2028104-.4550781.4550781v1.0898438c0 .2522677.2028104.4550781.4550781.4550781h3.0898438c.2522677 0 .4550781-.2028104.4550781-.4550781v-1.0898438c0-.2522677-.2028104-.4550781-.4550781-.4550781zm5 0c-.2522677 0-.4550781.2028104-.4550781.4550781v1.0898438c0 .2522677.2028104.4550781.4550781.4550781h3.0898439c.252268 0 .455078-.2028104.455078-.4550781v-1.0898438c0-.2522677-.20281-.4550781-.455078-.4550781zm4.9999999 0c-.252268 0-.455078.2028104-.455078.4550781v1.0898438c0 .2522677.20281.4550781.455078.4550781h3.089844c.252268 0 .455078-.2028104.455078-.4550781v-1.0898438c0-.2522677-.20281-.4550781-.455078-.4550781zm5 0c-.252268 0-.455078.2028104-.455078.4550781v1.0898438c0 .2522677.20281.4550781.455078.4550781h3.089844c.252268 0 .455078-.2028104.455078-.4550781v-1.0898438c0-.2522677-.20281-.4550781-.455078-.4550781zm-14.9999999 5c-.2522677 0-.4550781.20281-.4550781.455078v1.089844c0 .252268.2028104.455078.4550781.455078h6.0898438c.2522677 0 .4550781-.20281.4550781-.455078v-1.089844c0-.252268-.2028104-.455078-.4550781-.455078zm8.9999999 0c-.252268 0-.455078.20281-.455078.455078v1.089844c0 .252268.20281.455078.455078.455078h1.089844c.252268 0 .455078-.20281.455078-.455078v-1.089844c0-.252268-.20281-.455078-.455078-.455078zm4 0c-.252268 0-.455078.20281-.455078.455078v1.089844c0 .252268.20281.455078.455078.455078h6.089844c.252268 0 .455078-.20281.455078-.455078v-1.089844c0-.252268-.20281-.455078-.455078-.455078zm-12.9999999 5c-.2522677 0-.4550781.20281-.4550781.455078v1.089844c0 .252268.2028104.455078.4550781.455078h1.0898438c.2522677 0 .4550781-.20281.4550781-.455078v-1.089844c0-.252268-.2028104-.455078-.4550781-.455078zm4 0c-.2522677 0-.4550781.20281-.4550781.455078v1.089844c0 .252268.2028104.455078.4550781.455078h1.0898438c.2522677 0 .4550781-.20281.4550781-.455078v-1.089844c0-.252268-.2028104-.455078-.4550781-.455078zm3.9999999 0c-.252268 0-.455078.20281-.455078.455078v1.089844c0 .252268.20281.455078.455078.455078h1.089844c.252268 0 .455078-.20281.455078-.455078v-1.089844c0-.252268-.20281-.455078-.455078-.455078zm4 0c-.252268 0-.455078.20281-.455078.455078v1.089844c0 .252268.20281.455078.455078.455078h1.089844c.252268 0 .455078-.20281.455078-.455078v-1.089844c0-.252268-.20281-.455078-.455078-.455078zm4 0c-.252268 0-.455078.20281-.455078.455078v1.089844c0 .252268.20281.455078.455078.455078h1.089844c.252268 0 .455078-.20281.455078-.455078v-1.089844c0-.252268-.20281-.455078-.455078-.455078z"
     fill="#4d82b8"
     id="path2"
     style="fill:#616165;fill-opacity:1" />
</svg>
