<svg viewBox="0 0 24 24" xmlns="http://www.w3.org/2000/svg" xmlns:xlink="http://www.w3.org/1999/xlink"><filter id="a" color-interpolation-filters="sRGB" height="1.135959" width="1.153052" x="-.076526" y="-.067979"><feGaussianBlur stdDeviation=".44180839"/></filter><radialGradient id="b" cx="55.498295" cy="20.746534" gradientTransform="matrix(1 0 0 .72181261 0 7.10169)" gradientUnits="userSpaceOnUse" r="10.03901"><stop offset="0" stop-color="#ffc765"/><stop offset="1" stop-color="#ffa914"/></radialGradient><radialGradient id="c" cx="55.441967" cy="22.525862" gradientTransform="matrix(1.2258064 0 0 1.0478667 -12.519154 -1.07824)" gradientUnits="userSpaceOnUse" r="2.229184"><stop offset="0" stop-color="#ffe9c3"/><stop offset="1" stop-color="#ffe9c3" stop-opacity="0"/></radialGradient><g fill="#eaeaea" fill-opacity=".992157"><rect height="3" rx="1" width="18" x="3" y="3"/><rect height="2" rx=".5" width="18" x="3" y="9"/><rect height="1" rx=".5" width="7" x="3" y="14"/><rect height="1" rx=".5" width="7" x="11" y="14"/><rect height="1" rx=".5" ry=".428091" width="2" x="19" y="14"/><rect height="1" rx=".5" ry=".428091" width="2" x="3" y="18"/><rect height="1" rx=".5" ry=".428091" width="2" x="7" y="18"/><rect height="1" rx=".5" ry=".428091" width="2" x="11" y="18"/><rect height="1" rx=".5" ry=".428091" width="2" x="15" y="18"/><rect height="1" rx=".5" ry=".428091" width="2" x="19" y="18"/><rect height="2" rx=".5" width="18" x="3" y="21"/></g><g fill="#4b4b4f"><rect height="3" rx="1" width="18" x="3" y="2"/><rect height="2" rx=".5" width="18" x="3" y="8"/><rect height="1" rx=".5" width="7" x="3" y="13"/><rect height="1" rx=".5" width="7" x="11" y="13"/><rect height="1" rx=".5" ry=".428091" width="2" x="19" y="13"/><rect height="1" rx=".5" ry=".428091" width="2" x="3" y="17"/><rect height="1" rx=".5" ry=".428091" width="2" x="7" y="17"/><rect height="1" rx=".5" ry=".428091" width="2" x="11" y="17"/><rect height="1" rx=".5" ry=".428091" width="2" x="15" y="17"/><rect height="1" rx=".5" ry=".428091" width="2" x="19" y="17"/><rect height="2" rx=".5" width="18" x="3" y="20"/></g><path d="m20.787109 4.5878906c-.034112.0234403-.077909.0443281-.109375.0683594a1.2189986 1.2189986 0 0 0 -.080078.0664062l-.222656.203125c.170852-.068854.303616-.192599.412109-.3378906zm-3.580078 3.4121094-2.033203 2h5.326172c.277 0 .5-.223.5-.5v-1c0-.277-.223-.5-.5-.5zm-5.082031 5-.466797.458984a1.2189986 1.2189986 0 0 0 -.230469.314454c-.103497.025275-.203824.031831-.304687.044921.091577.108569.223152.181641.376953.181641h6c.277 0 .5-.223.5-.5s-.223-.5-.5-.5zm7.375 0c-.277 0-.5.190572-.5.427734v.144532c0 .237162.223.427734.5.427734h.689453l.626953-.896484c-.086691-.061876-.194141-.103516-.316406-.103516zm-12 4c-.0818129 0-.1565719.019289-.2246094.048828-.0925792.179088-.1832035.359741-.2714844.541016.0113462.22841.2264048.410156.4960938.410156h1c.277 0 .5-.190572.5-.427734v-.144532c0-.237162-.223-.427734-.5-.427734zm4 0c-.277 0-.5.190572-.5.427734v.144532c0 .237162.223.427734.5.427734h1c.277 0 .5-.190572.5-.427734v-.144532c0-.237162-.223-.427734-.5-.427734zm4 0c-.277 0-.5.190572-.5.427734v.144532c0 .237162.223.427734.5.427734h1c.277 0 .5-.190572.5-.427734v-.144532c0-.237162-.223-.427734-.5-.427734zm-10.2773438 3c-.1747631.138184-.3524577.275846-.5488281.410156a1.2189986 1.2189986 0 0 0 -.0019531.001953c-.4233593.290757-.8769578.581016-1.390625.916016a1.2189986 1.2189986 0 0 0 -.2675781.238281c.0336036.243901.2328997.433594.4863281.433594h12.005859c.397525-.488546.860713-1.046928 1.277344-1.71875.055031-.088737.100494-.186935.150391-.28125z" fill="#fff" fill-opacity=".784314"/><g transform="matrix(.66847283 0 0 .66847283 -26.031719 2.090803)"><path d="m57.661017 18.305085 12.20339-12.0000003 1.118644-1.0169491c.535947-.4093238 1.138074-.6755092 2.338983-.6101695l.813559.6101695c.306849.6596707.152068 1.3286734.101695 2.0338983l-11.694915 16.7796611z" fill="#d6d6d6" stroke="#98989d" stroke-width="1.495947"/><path d="m59.389831 19.322034 12.813559-13.1186442.686441-.5338983.355932.3305085-12.122973 15.267452z" fill="#f9f9f9" filter="url(#a)"/><path d="m54.915254 19.525424c-2.355192 1.12312-2.986044 2.645733-4.067796 4.881356-1.280902 3.099136-3.365034 4.179849-6 5.898305 4.002224 2.208107 12.344829 3.382311 15.355932-1.016949 1.803572-2.317145 5.097789-5.637418 1.932203-8.237289-2.997587-2.267403-4.004437-2.954713-7.220339-1.525423z" fill="url(#b)" stroke="#f58b00" stroke-width="1.495947"/><path d="m49.395592 26.820763c-1.20494 1.428749-2.746668 2.309185-4.547936 3.483925 4.002224 2.208106 12.344366 3.383635 15.355469-1.015626-2.950168-3.198325-8.750083-1.802762-10.807533-2.468299z" fill="#0a84ff" stroke="#0040dd" stroke-width="1.495947"/><ellipse cx="55.441967" cy="22.525862" fill="url(#c)" rx="2.732548" ry="2.335888"/></g></svg>