<?xml version="1.0" encoding="UTF-8" standalone="no"?>
<svg
   xmlns:dc="http://purl.org/dc/elements/1.1/"
   xmlns:cc="http://creativecommons.org/ns#"
   xmlns:rdf="http://www.w3.org/1999/02/22-rdf-syntax-ns#"
   xmlns:svg="http://www.w3.org/2000/svg"
   xmlns="http://www.w3.org/2000/svg"
   xmlns:xlink="http://www.w3.org/1999/xlink"
   xmlns:sodipodi="http://sodipodi.sourceforge.net/DTD/sodipodi-0.dtd"
   xmlns:inkscape="http://www.inkscape.org/namespaces/inkscape"
   viewBox="0 0 24 24"
   version="1.1"
   id="svg10"
   sodipodi:docname="lc_menubar..svg"
   inkscape:export-filename="/home/rizmut/Dokumen/Rizmut/Github/libreoffice-style-sukapura/images_sukapura/cmd/lc_menubar.png"
   inkscape:export-xdpi="96"
   inkscape:export-ydpi="96"
   inkscape:version="0.92.3 (unknown)">
  <metadata
     id="metadata16">
    <rdf:RDF>
      <cc:Work
         rdf:about="">
        <dc:format>image/svg+xml</dc:format>
        <dc:type
           rdf:resource="http://purl.org/dc/dcmitype/StillImage" />
      </cc:Work>
    </rdf:RDF>
  </metadata>
  <defs
     id="defs14">
    <linearGradient
       gradientTransform="translate(-29.694915,1.220339)"
       id="a"
       gradientUnits="userSpaceOnUse"
       x1="14"
       x2="13.79661"
       y1="22"
       y2="2.1355929">
      <stop
         offset="0"
         stop-color="#0040dd"
         id="stop2" />
      <stop
         offset="1"
         stop-color="#0a84ff"
         id="stop4" />
    </linearGradient>
    <linearGradient
       inkscape:collect="always"
       xlink:href="#a"
       id="linearGradient866"
       x1="16.488167"
       y1="14.999939"
       x2="16.556353"
       y2="7"
       gradientUnits="userSpaceOnUse" />
  </defs>
  <sodipodi:namedview
     pagecolor="#ffffff"
     bordercolor="#666666"
     borderopacity="1"
     objecttolerance="10"
     gridtolerance="10"
     guidetolerance="10"
     inkscape:pageopacity="0"
     inkscape:pageshadow="2"
     inkscape:window-width="1366"
     inkscape:window-height="699"
     id="namedview12"
     showgrid="true"
     inkscape:zoom="6.9532167"
     inkscape:cx="8.9277546"
     inkscape:cy="10.614204"
     inkscape:window-x="0"
     inkscape:window-y="0"
     inkscape:window-maximized="1"
     inkscape:current-layer="svg10">
    <inkscape:grid
       type="xygrid"
       id="grid823" />
  </sodipodi:namedview>
  <path
     style="opacity:1;fill:#69696e;fill-opacity:1;stroke:none;stroke-width:1;stroke-linecap:round;stroke-linejoin:round;stroke-miterlimit:4;stroke-dasharray:none;stroke-opacity:1"
     d="M 4 3 C 2.892 3 2 3.892 2 5 L 2 8 L 22 8 L 22 5 C 22 3.892 21.108 3 20 3 L 4 3 z "
     id="rect958" />
  <path
     style="fill:#69696e;fill-opacity:1"
     d="M 2 10 L 2 20 C 2 20.554 2.446 21 3 21 L 21 21 C 21.554 21 22 20.554 22 20 L 22 10 L 21 10 L 21 20 L 3 20 L 3 10 L 2 10 z "
     id="path4" />
  <rect
     style="opacity:1;fill:#ffffff;fill-opacity:1;stroke:none;stroke-width:1;stroke-linecap:round;stroke-linejoin:round;stroke-miterlimit:4;stroke-dasharray:none;stroke-opacity:1"
     id="rect878"
     width="18"
     height="13"
     x="3"
     y="7" />
  <rect
     style="opacity:1;fill:#c8c8cb;fill-opacity:1;stroke:none;stroke-width:1.66659665;stroke-linecap:round;stroke-linejoin:round;stroke-miterlimit:4;stroke-dasharray:none;stroke-opacity:1"
     id="rect886"
     width="18"
     height="3"
     x="3"
     y="4"
     rx="1"
     ry="0.64045417" />
  <path
     style="fill:#c93400;fill-opacity:1"
     d="m 1,5 v 5 h 12.322266 c 0.03374,-0.00426 0.06484,-0.013628 0.09961,-0.015625 C 13.502285,9.979755 13.58554,9.989295 13.667969,10 H 15 15.003906 18 V 9 H 15.003906 15 2 V 6 h 14.460938 c 0.015,-4.128e-4 0.02998,-0.00781 0.04492,-0.00781 0.01495,0 0.02993,0.0074 0.04492,0.00781 H 22 v 3 h -3.996094 v 1 h 1.265625 c 0.104022,-0.018857 0.20889,-0.026957 0.310547,-0.021484 0.04845,0.00261 0.0922,0.014567 0.138672,0.021484 H 23 V 5 Z"
     id="path6"
     inkscape:connector-curvature="0"
     sodipodi:nodetypes="ccccccccccccccsccccccccccc" />
  <path
     style="opacity:1;fill:#ff9500;fill-opacity:1;stroke:none;stroke-width:1;stroke-linecap:round;stroke-linejoin:round;stroke-miterlimit:4;stroke-dasharray:none;stroke-opacity:1"
     d="M 2,6 H 22 V 9 H 2 Z"
     id="rect844"
     inkscape:connector-curvature="0"
     sodipodi:nodetypes="ccccc" />
  <path
     sodipodi:type="inkscape:offset"
     inkscape:radius="1"
     inkscape:original="M 16.513672 6.9921875 A 0.50004318 0.50005 0 0 0 16.414062 7 L 15.511719 7 C 15.227875 7 15 7.2450658 15 7.5488281 L 15 11 L 13.59375 11 A 0.50063114 0.50063797 0 0 0 13.146484 11.845703 L 16.09375 14.796875 A 0.50004318 0.50005 0 0 0 16.488281 15 A 0.50004318 0.50005 0 0 0 16.892578 14.804688 L 19.853516 11.847656 A 0.50004318 0.50005 0 0 0 19.652344 11.007812 L 19.652344 11 L 19.621094 11 A 0.50004318 0.50005 0 0 0 19.392578 11 L 18 11 L 18 7.5488281 C 18 7.2450658 17.772125 7 17.488281 7 L 16.597656 7 A 0.50004318 0.50005 0 0 0 16.513672 6.9921875 z "
     style="fill:#ffffff;fill-opacity:0.78431374;fill-rule:evenodd"
     id="path881"
     d="m 16.527344,5.9921875 c -0.09746,-0.00162 -0.195084,0.00614 -0.291016,0.023437 L 16.414062,6 H 15.511719 C 14.652287,6 14,6.7449489 14,7.5488281 V 10 h -0.40625 l 0.185547,0.01758 c -0.624827,-0.1181954 -1.308177,0.21131 -1.605469,0.773438 -0.297292,0.562128 -0.183749,1.31179 0.265625,1.761718 l 2.947266,2.951172 -0.09766,-0.113281 c 0.272936,0.369966 0.723898,0.602149 1.183594,0.609375 0.465565,0.0073 0.929196,-0.216727 1.212891,-0.585938 l -0.08594,0.09766 2.945313,-2.941407 c 0.376389,-0.360407 0.543266,-0.926816 0.421875,-1.433593 -0.04032,-0.16831 -0.243974,-0.217529 -0.339844,-0.361328 A 1.0001,1.0001 0 0 0 19.652344,10 h -0.03125 l 0.228515,0.02734 c -0.224442,-0.052679 -0.461104,-0.052679 -0.685547,0 L 19.392578,10 H 19 V 7.5488281 C 19,6.7449489 18.347713,6 17.488281,6 h -0.882812 -0.0078 c -0.02356,-0.0014 -0.04671,-0.00752 -0.07031,-0.00781 z" />
  <path
     style="fill:url(#linearGradient866);fill-rule:evenodd;fill-opacity:1"
     d="M 16.513672 6.9921875 A 0.50004318 0.50005 0 0 0 16.414062 7 L 15.511719 7 C 15.227875 7 15 7.2450658 15 7.5488281 L 15 11 L 13.59375 11 A 0.50063114 0.50063797 0 0 0 13.146484 11.845703 L 16.09375 14.796875 A 0.50004318 0.50005 0 0 0 16.488281 15 A 0.50004318 0.50005 0 0 0 16.892578 14.804688 L 19.853516 11.847656 A 0.50004318 0.50005 0 0 0 19.652344 11.007812 L 19.652344 11 L 19.621094 11 A 0.50004318 0.50005 0 0 0 19.392578 11 L 18 11 L 18 7.5488281 C 18 7.2450658 17.772125 7 17.488281 7 L 16.597656 7 A 0.50004318 0.50005 0 0 0 16.513672 6.9921875 z "
     id="path8" />
  <path
     style="opacity:1;fill:#000000;fill-opacity:0;stroke:none;stroke-width:1;stroke-linecap:round;stroke-linejoin:round;stroke-miterlimit:4;stroke-dasharray:none;stroke-opacity:1"
     d="M 4 3 C 2.892 3 2 3.892 2 5 L 2 6 C 2 6.7410699 2.4042011 7.3790485 3 7.7246094 L 3 7 L 3 4.296875 L 3 4 L 16.460938 4 C 16.475932 3.9995872 16.490913 3.9921875 16.505859 3.9921875 C 16.520806 3.9921875 16.535786 3.9995872 16.550781 4 L 21 4 L 21 4.296875 L 21 7 L 21 7.7246094 C 21.595799 7.3790485 22 6.7410699 22 6 L 22 5 C 22 3.892 21.108 3 20 3 L 4 3 z "
     id="rect939" />
  <rect
     style="opacity:1;fill:#000000;fill-opacity:0;stroke:none;stroke-width:1;stroke-linecap:round;stroke-linejoin:round;stroke-miterlimit:4;stroke-dasharray:none;stroke-opacity:1"
     id="rect953"
     width="20"
     height="7"
     x="2"
     y="3" />
</svg>
