<svg viewBox="0 0 24 24" xmlns="http://www.w3.org/2000/svg" xmlns:xlink="http://www.w3.org/1999/xlink"><linearGradient id="a" gradientUnits="userSpaceOnUse" x1="6.507122" x2="6.460937" y1="9.494949" y2="1.65625"><stop offset="0" stop-color="#0040dd"/><stop offset="1" stop-color="#0a84ff"/></linearGradient><g fill="#4b4b4f"><path d="m5 22h2v2h-2z"/><text font-family="Roboto" font-size="15.732811" letter-spacing="0" stroke-width=".39332" word-spacing="0" x="7.207068" y="23.846359"><tspan fill="#4b4b4f" stroke-width=".39332" x="7.207068" y="23.846359">00</tspan></text><text font-family="Roboto" font-size="14.415765" letter-spacing="0" stroke-width=".360394" word-spacing="0" x="16.069971" y="11.833317"><tspan fill="#4b4b4f" font-size="15.706674" stroke-width=".360394" x="16.069971" y="11.833317">0</tspan></text><path d="m14 10h2v2h-2z"/></g><path d="m6.4921875 1.0019531c-.1250061.0043-.2437006.055972-.3320313.1445313l-4 4c-.1913133.1922914-.1913133.5030211 0 .6953125l4 4.0000001c.3103202.307465.8376307.089183.8398438-.347656v-2.501953h.015625l3.984375-.007812c.541284-.00022.992188-.450664.992188-.9921885v-1c0-.5415243-.450425-.992406-.992188-.9921875l-3.984375.00781h-.00781l-.007815-2.5156225c-.0013823-.2771002-.2308355-.4986107-.5078125-.4902344z" fill="url(#a)"/></svg>