<svg viewBox="0 0 24 24" xmlns="http://www.w3.org/2000/svg" xmlns:xlink="http://www.w3.org/1999/xlink"><linearGradient id="a" gradientTransform="matrix(-1 0 0 -1 12.001717 23.012654)" gradientUnits="userSpaceOnUse" x1="3.001717" x2="3.001717" y1=".012654" y2="8.512654"><stop offset="0" stop-color="#0040dd"/><stop offset="1" stop-color="#0a84ff"/></linearGradient><g fill="#4b4b4f"><path d="m5 10h2v2h-2z"/><text font-family="Roboto" font-size="15.732811" letter-spacing="0" stroke-width=".39332" word-spacing="0" x="7.207068" y="11.846359"><tspan fill="#4b4b4f" stroke-width=".39332" x="7.207068" y="11.846359">00</tspan></text><text font-family="Roboto" font-size="14.415765" letter-spacing="0" stroke-width=".360394" word-spacing="0" x="16.069971" y="23.827522"><tspan fill="#4b4b4f" font-size="15.706674" stroke-width=".360394" x="16.069971" y="23.827522">0</tspan></text><path d="m14 21.994205h2v2h-2z"/></g><path d="m7.5166717 23.00572c.1250061-.0043.2437006-.05597.3320313-.144531l4-4c.191313-.192292.191313-.503022 0-.695313l-4-4c-.3103202-.307465-.8376307-.089183-.8398438.347656v2.501953h-.015625l-3.984375.0078c-.541284.00022-.992188.450664-.992188.992188v1c0 .541525.450425.992406.992188.992188l3.984375-.0078h.00781l.00781 2.515612c.00138.277101.2308355.498611.5078125.490235z" fill="url(#a)"/></svg>