<?xml version="1.0" encoding="UTF-8" standalone="no"?>
<svg
   xmlns:dc="http://purl.org/dc/elements/1.1/"
   xmlns:cc="http://creativecommons.org/ns#"
   xmlns:rdf="http://www.w3.org/1999/02/22-rdf-syntax-ns#"
   xmlns:svg="http://www.w3.org/2000/svg"
   xmlns="http://www.w3.org/2000/svg"
   xmlns:sodipodi="http://sodipodi.sourceforge.net/DTD/sodipodi-0.dtd"
   xmlns:inkscape="http://www.inkscape.org/namespaces/inkscape"
   viewBox="0 0 24 24"
   version="1.1"
   id="svg30"
   sodipodi:docname="lc_openremote.svg"
   inkscape:version="0.92.3 (unknown)"
   inkscape:export-filename="/home/rizmut/Dokumen/Rizmut/Github/libreoffice-style-sukapura/images_sukapura_svg/cmd/lc_open.png"
   inkscape:export-xdpi="96"
   inkscape:export-ydpi="96">
  <metadata
     id="metadata36">
    <rdf:RDF>
      <cc:Work
         rdf:about="">
        <dc:format>image/svg+xml</dc:format>
        <dc:type
           rdf:resource="http://purl.org/dc/dcmitype/StillImage" />
        <dc:title></dc:title>
      </cc:Work>
    </rdf:RDF>
  </metadata>
  <defs
     id="defs34" />
  <sodipodi:namedview
     pagecolor="#ffffff"
     bordercolor="#666666"
     borderopacity="1"
     objecttolerance="10"
     gridtolerance="10"
     guidetolerance="10"
     inkscape:pageopacity="0"
     inkscape:pageshadow="2"
     inkscape:window-width="1366"
     inkscape:window-height="706"
     id="namedview32"
     showgrid="true"
     inkscape:zoom="16"
     inkscape:cx="10.061784"
     inkscape:cy="11.896904"
     inkscape:window-x="0"
     inkscape:window-y="0"
     inkscape:window-maximized="1"
     inkscape:current-layer="svg30">
    <inkscape:grid
       type="xygrid"
       id="grid857"
       spacingx="0.5"
       spacingy="0.5"
       empspacing="2" />
  </sodipodi:namedview>
  <linearGradient
     id="a"
     gradientUnits="userSpaceOnUse"
     x1="11"
     x2="11"
     y1="7"
     y2="21">
    <stop
       offset="0"
       stop-color="#68caf8"
       id="stop2" />
    <stop
       offset=".5"
       stop-color="#70cef9"
       id="stop4" />
    <stop
       offset=".71428573"
       stop-color="#79d3fb"
       id="stop6" />
    <stop
       offset=".9285714"
       stop-color="#67c1ed"
       id="stop8" />
    <stop
       offset="1"
       stop-color="#67bfea"
       id="stop10" />
  </linearGradient>
  <clipPath
     id="b">
    <path
       d="m192.5 69.5h62v39h-62z"
       id="path13" />
  </clipPath>
  <g
     id="g26"
     transform="translate(0,-2)"
     style="fill-rule:evenodd">
    <path
       d="m 15,4.5 c -0.265199,5.11e-5 -0.519519,0.1054326 -0.707031,0.2929688 L 10.585938,6.5 H 2.5 c -0.5522619,5.52e-5 -0.9999448,0.4477381 -1,1 v 13 h 1 17 1 v -11 -4 c -5.5e-5,-0.5522619 -0.447738,-0.9999448 -1,-1 z m 5.5,14 c -14,3.333333 -7,1.666667 0,0 z"
       id="path16"
       inkscape:connector-curvature="0"
       style="fill:#94ddff;stroke:#2bbcff"
       sodipodi:nodetypes="ccccccccccccccc" />
    <path
       d="m 1.4785156,20.5 h 1 17.0644534 1 l 2.701172,-9.007812 C 23.541995,10.499341 23.542373,10.5 22.5,10.5 h -17 c -1.0211864,0 -1.0208091,-5.52e-4 -1.2792969,0.990234 l -1.7421875,5.675782 z"
       id="path18"
       inkscape:connector-curvature="0"
       style="fill:url(#a);stroke:#15b0f5"
       sodipodi:nodetypes="cccccssccc" />
    <g
       id="g24"
       style="fill:#3bc1f1">
      <path
         d="M 1.9980469,19 1.5914618,18.997152 1.4648437,19.5 H 2 21.003906 L 21.400831,19.4948 21.539675,18.999214 21.001953,19 Z"
         id="path20"
         inkscape:connector-curvature="0" />
      <path
         d="M 1.2988281,20.003906 1.1484375,20.505859 H 1.6035156 20.767578 l 0.367188,-0.0059 0.134765,-0.496094 -0.503906,0.002 H 1.6015625 Z"
         id="path22"
         inkscape:connector-curvature="0" />
    </g>
  </g>
  <g
     id="g869">
    <path
       id="path6"
       d="m 1,21 h 20 v 1 H 1 Z"
       style="fill:#b3b3b3"
       inkscape:connector-curvature="0" />
    <path
       id="path8"
       d="m 10,19 v 2 H 8 v 1 h 6 v -1 h -2 v -2 z"
       style="fill:#808080"
       inkscape:connector-curvature="0" />
  </g>
</svg>
