<svg viewBox="0 0 24 24" xmlns="http://www.w3.org/2000/svg"><g transform="scale(1.0062435 .99379521)"><path d="m10.376953 1.0058594a1.0065013 1.0065013 0 0 0 -.9453124.6582031l-7.3964844 20.1249995a1.0065013 1.0065013 0 0 0 .9453126 1.353516h3.4003906a1.0065013 1.0065013 0 0 0 .953125-.68164l1.3710937-4.017579h6.4355469l1.359375 4.015625a1.0065013 1.0065013 0 0 0 .953125.683594h3.414063a1.0065013 1.0065013 0 0 0 .945312-1.349609l-7.310547-20.1250002a1.0065013 1.0065013 0 0 0 -.945312-.6621094zm1.568359 8.0175781 1.560547 4.6015625h-3.142578z" fill="#4b4b4f"/><path d="m15.864051 17.437673h-7.8788835l-1.6034219 4.699685h-3.4003601l7.3950925-20.125709h3.179198l7.312157 20.125709h-3.414183zm-6.9113014-2.805988h5.9575414l-2.916569-8.5976587h-.08294z" fill="#fff"/></g></svg>