<svg viewBox="0 0 24 24" xmlns="http://www.w3.org/2000/svg"><path d="m10.376953 1.0058594a1.0065013 1.0065013 0 0 0 -.9453124.6582031l-7.3964844 20.1249995a1.0065013 1.0065013 0 0 0 .9453126 1.353516h3.4003906a1.0065013 1.0065013 0 0 0 .953125-.68164l1.3710937-4.017579h6.4355469l1.359375 4.015625a1.0065013 1.0065013 0 0 0 .953125.683594h3.414063a1.0065013 1.0065013 0 0 0 .945312-1.349609l-7.310547-20.1250002a1.0065013 1.0065013 0 0 0 -.945312-.6621094zm1.568359 8.0175781 1.560547 4.6015625h-3.142578z" fill="#4b4b4f" transform="scale(1.0062435 .99379521)"/><path d="m15.864051 17.437673h-7.8788835l-1.6034219 4.699685h-3.4003601l7.3950925-20.125709h3.179198l7.312157 20.125709h-3.414183zm-6.9113014-2.805988h5.9575414l-2.916569-8.5976587h-.08294z" fill="#fff" transform="scale(1.0062435 .99379521)"/><g fill="#eac282" transform="translate(-2.602597 -1.200058)"><path d="m11.794252 19.654584-.794252 3.345416 2.979799-.95479z" fill="#a2a2a7" stroke="#848489" transform="translate(1 1)"/><path d="m21.527817 11.706205c-.189562 0-.378184.07172-.523438.216797l-1.673828 1.669922 2.847656 2.849609 1.710938-1.638672c.290506-.290127.290506-.756747 0-1.046875l-1.835938-1.833984c-.145254-.145064-.335828-.216797-.52539-.216797z" fill="#e68497" stroke="#b6496c"/><path d="m17.588364 13.317533-5.439453 5.433594c.648096.793958 1.89093 2.102781 2.714843 2.957031l.05078-.01367 5.509765-5.544922z" fill="#fc0" stroke="#c89e00" transform="translate(1 1)"/><path d="m21.093491 16.135775-1.284233-1.373643-6.299585 6.125687 1.263119 1.338035z" fill="#ffe014"/><path d="m20.379082 13.977391 1.118644-1.067797 1.703389 1.677967" fill="none" stroke="#f398b3"/></g></svg>