<svg viewBox="0 0 24 24" xmlns="http://www.w3.org/2000/svg" xmlns:xlink="http://www.w3.org/1999/xlink"><linearGradient id="a" gradientUnits="userSpaceOnUse" x1="18" x2="18" y1="23" y2="16"><stop offset="0" stop-color="#0040dd"/><stop offset="1" stop-color="#0a84ff"/></linearGradient><linearGradient id="b" gradientUnits="userSpaceOnUse" x1="11" x2="11" y1="7" y2="21"><stop offset="0" stop-color="#68caf8"/><stop offset=".5" stop-color="#70cef9"/><stop offset=".71428573" stop-color="#79d3fb"/><stop offset=".9285714" stop-color="#67c1ed"/><stop offset="1" stop-color="#67bfea"/></linearGradient><g transform="translate(0 -2)"><g fill-rule="evenodd" transform="translate(1.021484)"><path d="m15 4.5c-.265199.0000511-.519519.1054326-.707031.2929688l-3.707031 1.7070312h-8.085938c-.5522619.0000552-1.0214292.4477381-1.0214844 1l.0214844 13h1 17 .978516l.021484-11v-4c-.000055-.5522619-.447738-.9999448-1-1z" fill="#94ddff" stroke="#2bbcff"/><path d="m1.4785156 20.5h1 17.0644534.935547v-9c-.021484-.5.298232-.992129-.744141-.992188l-16.7666402-.000948c-1.0211864-.000058-1.2541689.000396-1.5126567.991182z" fill="url(#b)" stroke="#15b0f5"/><g fill="#3bc1f1"><path d="m1.4368875 19.000786-.4583719-.000786v.5l.460325.000834h19.0039064c.132308-.0017 1.023959.01237.535769-.000834v-.5l-.537722.000786z"/><path d="m.9785156 20 .0136715.5059h.4550781 19.1640628l.367188-.0059-.0293-.500041-.503906.002h-19.16406z"/></g></g><path d="m15.5 8a1.0001 1.0001 0 0 0 -.554688 1.8320312c.216636.144423.83481 1.3161938 1.066407 2.7636718.187211 1.170073.11493 2.369576.005859 3.402344h-.515625c-.627858-.001681-1.178383.413848-1.390625.925781s-.116805 1.197596.328125 1.640625l.435547.435547h7.125v-2.90625c-.158165-.05808-.325856-.09619-.501953-.095703h-1.056641c-.045417-1.318197-.258298-2.830797-.818359-4.292969-.355006-.926826-.821674-1.8009406-1.484375-2.4960936-.662701-.695152-1.582919-1.2089844-2.638672-1.2089844zm1.375 13 .5625.5625c.578697.57859 1.549123.577921 2.126953-.001953l.560547-.560547z" fill="#fff" fill-opacity=".784314" transform="translate(0 2)"/><path d="m15.5 18.998047c-.448262-.0012-.673117.541131-.355469.857422l3 3c.196117.196811.514821.196811.710938 0l3-3c.317648-.316291.092793-.858661-.355469-.857422h-2c.171573-2.49449-1-7.998047-4-7.998047 1.5 1 2 5.5 1.5 8z" fill="url(#a)"/></g><path d="m1 21h20v1h-20z" fill="#b3b3b3"/><path d="m10 19v2h-2v1h6v-1h-2v-2z" fill="#808080"/></svg>