<svg viewBox="0 0 24 24" xmlns="http://www.w3.org/2000/svg" xmlns:xlink="http://www.w3.org/1999/xlink"><linearGradient id="a" gradientUnits="userSpaceOnUse" x1="15" x2="15" y1="24" y2="17"><stop offset="0" stop-color="#0040dd"/><stop offset="1" stop-color="#0a84ff"/></linearGradient><linearGradient id="b" gradientUnits="userSpaceOnUse" x1="11" x2="11" y1="7" y2="21"><stop offset="0" stop-color="#68caf8"/><stop offset=".5" stop-color="#70cef9"/><stop offset=".71428573" stop-color="#79d3fb"/><stop offset=".9285714" stop-color="#67c1ed"/><stop offset="1" stop-color="#67bfea"/></linearGradient><g fill-rule="evenodd" transform="translate(1.021484)"><path d="m15 4.5c-.265199.0000511-.519519.1054326-.707031.2929688l-3.707031 1.7070312h-8.085938c-.5522619.0000552-1.0214292.4477381-1.0214844 1l.0214844 13h1 17 .978516l.021484-11v-4c-.000055-.5522619-.447738-.9999448-1-1z" fill="#94ddff" stroke="#2bbcff"/><path d="m1.4785156 20.5h1 17.0644534.935547v-9c-.021484-.5.298232-.992129-.744141-.992188l-16.7666402-.000948c-1.0211864-.000058-1.2541689.000396-1.5126567.991182z" fill="url(#b)" stroke="#15b0f5"/><g fill="#3bc1f1"><path d="m1.4368875 19.000786-.4583719-.000786v.5l.460325.000834h19.0039064c.132308-.0017 1.023959.01237.535769-.000834v-.5l-.537722.000786z"/><path d="m.9785156 20 .0136715.5059h.4550781 19.1640628l.367188-.0059-.0293-.500041-.503906.002h-19.16406z"/></g></g><path d="m12.5 11.005859c-.984045-.000185-1.371064 1.27575-.552734 1.822266.346748.231165.852237 1.119278 1.076172 2.294922.175224.919934.099603 2.935929.001953 3.880859h-.523438c-.625761-.0017-1.175202.411693-1.386719.921875-.134654.32479-.128872.716224-.003906 1.074219h8.777344c.124964-.357994.130746-.749425-.003906-1.074219-.211513-.510186-.760915-.923604-1.386719-.921875h-1.066406c-.052596-1.236194-.267729-3.583956-.835938-4.847656-.365446-.812755-.851882-1.575224-1.527344-2.164062-.675461-.588841-1.569461-.986329-2.568359-.986329z" fill="#f9f9f9" fill-opacity=".784314"/><path d="m12.5 19.998047c-.448262-.0012-.673117.541131-.355469.857422l3 3c.196117.196811.514821.196811.710938 0l3-3c.317648-.316291.092793-.858661-.355469-.857422h-2c.171573-2.49449-1-7.998047-4-7.998047 1.5 1 2 5.5 1.5 8z" fill="url(#a)"/></svg>