<?xml version="1.0" encoding="UTF-8" standalone="no"?>
<svg
   xmlns:dc="http://purl.org/dc/elements/1.1/"
   xmlns:cc="http://creativecommons.org/ns#"
   xmlns:rdf="http://www.w3.org/1999/02/22-rdf-syntax-ns#"
   xmlns:svg="http://www.w3.org/2000/svg"
   xmlns="http://www.w3.org/2000/svg"
   xmlns:xlink="http://www.w3.org/1999/xlink"
   xmlns:sodipodi="http://sodipodi.sourceforge.net/DTD/sodipodi-0.dtd"
   xmlns:inkscape="http://www.inkscape.org/namespaces/inkscape"
   viewBox="0 0 24 24"
   version="1.1"
   id="svg6"
   sodipodi:docname="lc_paralefttoright.svg"
   inkscape:version="0.92.3 (unknown)">
  <metadata
     id="metadata12">
    <rdf:RDF>
      <cc:Work
         rdf:about="">
        <dc:format>image/svg+xml</dc:format>
        <dc:type
           rdf:resource="http://purl.org/dc/dcmitype/StillImage" />
      </cc:Work>
    </rdf:RDF>
  </metadata>
  <defs
     id="defs10">
    <linearGradient
       gradientTransform="translate(-25.830508,-3.5932203)"
       id="a"
       gradientUnits="userSpaceOnUse"
       x1="14"
       x2="13.79661"
       y1="22"
       y2="2.1355929">
      <stop
         offset="0"
         stop-color="#0040dd"
         id="stop2" />
      <stop
         offset="1"
         stop-color="#0a84ff"
         id="stop4" />
    </linearGradient>
    <linearGradient
       inkscape:collect="always"
       xlink:href="#a"
       id="linearGradient1152"
       gradientUnits="userSpaceOnUse"
       gradientTransform="matrix(-1,0,0,1,-29.010942,26.95119)"
       x1="-31.010942"
       y1="-4.95119"
       x2="-31.010942"
       y2="-16.951191" />
    <linearGradient
       inkscape:collect="always"
       xlink:href="#a"
       id="linearGradient847"
       x1="10.254237"
       y1="22.808195"
       x2="10.236279"
       y2="11.214975"
       gradientUnits="userSpaceOnUse" />
  </defs>
  <sodipodi:namedview
     pagecolor="#ffffff"
     bordercolor="#666666"
     borderopacity="1"
     objecttolerance="10"
     gridtolerance="10"
     guidetolerance="10"
     inkscape:pageopacity="0"
     inkscape:pageshadow="2"
     inkscape:window-width="1366"
     inkscape:window-height="706"
     id="namedview8"
     showgrid="false"
     inkscape:zoom="9.8333333"
     inkscape:cx="-2.2372881"
     inkscape:cy="12"
     inkscape:window-x="0"
     inkscape:window-y="0"
     inkscape:window-maximized="1"
     inkscape:current-layer="svg6" />
  <path
     d="m14 2c-3.313709 0-6 2.6862915-6 6 0 .735895.1384451 1.4383837.3808594 2.089844.3014695.087345.5814265.241769.8066406.46875l3.337891 3.251953c.472508.119613.964922.189453 1.474609.189453v1.248047l.435547.423828.001953.001953c.74012.723004.74012 1.944965 0 2.667969l-.001953.001953-.435547.423828v3.232422h2v-18h2v18h2v-18l3-1v-1z"
     fill="#69696e"
     id="path2" />
  <path
     d="m7.8554688 11.007812c-.5660744.00588-.9116141.511514-.84375.992188h-.0117188v3h-5.5c-.277 0-.5.223-.5.5v1.507812 1.492188c0 .277.223.5.5.5h5.5v3h.0214844c-.1163868.714915.7866468 1.40756 1.4570312.753906l5.2597654-5.126953c.347613-.339574.347613-.898707 0-1.238281l-5.2597654-5.125c-.1646193-.16591-.3893378-.258192-.6230468-.25586z"
     fill="#0a84ff"
     fill-rule="evenodd"
     stroke-width=".855908"
     id="path4"
     style="fill-opacity:1;fill:url(#linearGradient847)" />
</svg>
