<?xml version="1.0" encoding="UTF-8" standalone="no"?>
<svg
   xmlns:dc="http://purl.org/dc/elements/1.1/"
   xmlns:cc="http://creativecommons.org/ns#"
   xmlns:rdf="http://www.w3.org/1999/02/22-rdf-syntax-ns#"
   xmlns:svg="http://www.w3.org/2000/svg"
   xmlns="http://www.w3.org/2000/svg"
   xmlns:xlink="http://www.w3.org/1999/xlink"
   xmlns:sodipodi="http://sodipodi.sourceforge.net/DTD/sodipodi-0.dtd"
   xmlns:inkscape="http://www.inkscape.org/namespaces/inkscape"
   viewBox="0 0 24 24"
   version="1.1"
   id="svg18"
   sodipodi:docname="lc_pararighttoleft.svg"
   inkscape:version="0.92.3 (unknown)">
  <metadata
     id="metadata24">
    <rdf:RDF>
      <cc:Work
         rdf:about="">
        <dc:format>image/svg+xml</dc:format>
        <dc:type
           rdf:resource="http://purl.org/dc/dcmitype/StillImage" />
      </cc:Work>
    </rdf:RDF>
  </metadata>
  <defs
     id="defs22">
    <linearGradient
       gradientTransform="translate(-25.830508,-3.5932203)"
       id="a"
       gradientUnits="userSpaceOnUse"
       x1="14"
       x2="13.79661"
       y1="22"
       y2="2.1355929">
      <stop
         offset="0"
         stop-color="#0040dd"
         id="stop2" />
      <stop
         offset="1"
         stop-color="#0a84ff"
         id="stop4" />
    </linearGradient>
    <linearGradient
       inkscape:collect="always"
       xlink:href="#a"
       id="linearGradient1131"
       gradientUnits="userSpaceOnUse"
       gradientTransform="matrix(-1,0,0,1,-29.010942,26.95119)"
       x1="-31.010942"
       y1="-4.95119"
       x2="-31.010942"
       y2="-16.951191" />
    <linearGradient
       inkscape:collect="always"
       xlink:href="#a"
       id="linearGradient1405"
       x1="18.033897"
       y1="22.808195"
       x2="18.321028"
       y2="11.214975"
       gradientUnits="userSpaceOnUse" />
  </defs>
  <sodipodi:namedview
     pagecolor="#ffffff"
     bordercolor="#666666"
     borderopacity="1"
     objecttolerance="10"
     gridtolerance="10"
     guidetolerance="10"
     inkscape:pageopacity="0"
     inkscape:pageshadow="2"
     inkscape:window-width="1366"
     inkscape:window-height="706"
     id="namedview20"
     showgrid="false"
     inkscape:zoom="4.9166667"
     inkscape:cx="-5.7255778"
     inkscape:cy="8.1539804"
     inkscape:window-x="0"
     inkscape:window-y="0"
     inkscape:window-maximized="1"
     inkscape:current-layer="svg18" />
  <path
     d="m16.143522 11.007812c.566074.0059.911614.511514.84375.992188h.01172v3h5.5c.277 0 .5.223.5.5v1.507812 1.492188c0 .277-.223.5-.5.5h-5.5v3h-.02148c.116386.714915-.786647 1.40756-1.457032.753906l-5.25977-5.126953c-.3476134-.339574-.3476134-.898707 0-1.238281l5.259765-5.125c.164619-.16591.389338-.258192.623047-.25586z"
     fill="#0a84ff"
     fill-rule="evenodd"
     stroke-width=".855908"
     id="path14"
     style="fill-opacity:1;fill:url(#linearGradient1405)" />
  <path
     d="m8 2c-3.313709 0-6 2.6862915-6 6 0 3.313708 2.686291 6 6 6v8h2v-3.230469l-.4375-.425781v-.001953c-.7401195-.723004-.7401195-1.944965 0-2.667969v-.001953l.4375-.425781v-11.246094h2v9.296875l2-1.949219v-7.347656l3-1v-1zm4 18.71875v1.28125h1.3125z"
     fill="#69696e"
     id="path16" />
</svg>
