<svg viewBox="0 0 24 24" xmlns="http://www.w3.org/2000/svg"><path d="m3 7h18v13h-18z" fill="#fff"/><path d="m2 6v15h1 8.585938 9.414062 1v-10.414062-2.585938-1-.9570312-.0429688h-9.480469-.519531zm1 1h9 9v.2695312.7304688 3.585938 8.414062h-8.414062-9.585938z" fill="#98989d"/><path d="m1 3v2h12 .320312 8.09375 1.585938v-1.5859375-.4140625h-8.078125-1.921875z" fill="#0040dd"/><path d="m5 9v2h6.882812 4.320313 2.796875v-2h-.224609l-.275391.2148438v-.2148438h-5.617188z" fill="#ff9500"/><g fill="#98989d"><path d="m5 12h6v1h-6z"/><path d="m5 16h6v1h-6z"/><path d="m5 14h6v1h-6z"/><path d="m5 18h6v1h-6z"/><path d="m14.917969 12-1.285157 1h5.367188v-1z"/><path d="m13 16h6v1h-6z"/><path d="m13 14h6v1h-6z"/><path d="m13 18h6v1h-6z"/></g><g fill="#fff" fill-opacity=".784314"><path d="m14.921875 3-1.601563 2h8.09375l1.585938-1.5859375v-.4140625z"/><path d="m12.519531 6-.300781.375a1.0011917 1.0011917 0 0 0 -.21875.625h9v.2695312l.615234-.4785156a1.0011917 1.0011917 0 0 0 .384766-.7480468v-.0429688z"/><path d="m12.882812 9-1 2h4.320313l2.296875-1.7851562v-.2148438z"/></g><path d="m17.004237 2h5.995763l-4 4h2l-9 7 3-6h-2z" fill="#ffd60a"/></svg>