<?xml version="1.0" encoding="UTF-8" standalone="no"?>
<svg
   xmlns:dc="http://purl.org/dc/elements/1.1/"
   xmlns:cc="http://creativecommons.org/ns#"
   xmlns:rdf="http://www.w3.org/1999/02/22-rdf-syntax-ns#"
   xmlns:svg="http://www.w3.org/2000/svg"
   xmlns="http://www.w3.org/2000/svg"
   xmlns:xlink="http://www.w3.org/1999/xlink"
   xmlns:sodipodi="http://sodipodi.sourceforge.net/DTD/sodipodi-0.dtd"
   xmlns:inkscape="http://www.inkscape.org/namespaces/inkscape"
   viewBox="0 0 24 24"
   version="1.1"
   id="svg12"
   sodipodi:docname="lc_paste.svg"
   inkscape:version="0.92.3 (unknown)"
   inkscape:export-filename="/home/rizmut/Dokumen/Rizmut/Github/libreoffice-style-colibrex/images_colibrex/cmd/lc_paste.png"
   inkscape:export-xdpi="96"
   inkscape:export-ydpi="96">
  <metadata
     id="metadata18">
    <rdf:RDF>
      <cc:Work
         rdf:about="">
        <dc:format>image/svg+xml</dc:format>
        <dc:type
           rdf:resource="http://purl.org/dc/dcmitype/StillImage" />
        <dc:title />
      </cc:Work>
    </rdf:RDF>
  </metadata>
  <defs
     id="defs16">
    <linearGradient
       inkscape:collect="always"
       id="linearGradient870">
      <stop
         style="stop-color:#d7d7d7;stop-opacity:1"
         offset="0"
         id="stop866" />
      <stop
         id="stop874"
         offset="0.5"
         style="stop-color:#f7f7f7;stop-opacity:1" />
      <stop
         style="stop-color:#ffffff;stop-opacity:1"
         offset="1"
         id="stop868" />
    </linearGradient>
    <linearGradient
       inkscape:collect="always"
       xlink:href="#linearGradient882"
       id="linearGradient884"
       x1="18"
       y1="11"
       x2="19.35894"
       y2="9.6897497"
       gradientUnits="userSpaceOnUse"
       gradientTransform="translate(2,-2)" />
    <linearGradient
       inkscape:collect="always"
       id="linearGradient882">
      <stop
         style="stop-color:#ffffff;stop-opacity:1;"
         offset="0"
         id="stop878" />
      <stop
         id="stop886"
         offset="0.63984942"
         style="stop-color:#f1f1f1;stop-opacity:1" />
      <stop
         style="stop-color:#d5d5d5;stop-opacity:1"
         offset="1"
         id="stop880" />
    </linearGradient>
    <radialGradient
       inkscape:collect="always"
       xlink:href="#linearGradient870"
       id="radialGradient924"
       cx="21"
       cy="8.6000004"
       fx="21"
       fy="8.6000004"
       r="4"
       gradientTransform="matrix(1.7500001,1.0202105e-7,-1.0202105e-7,1.7500001,-15.750001,-7.0500033)"
       gradientUnits="userSpaceOnUse" />
    <linearGradient
       inkscape:collect="always"
       xlink:href="#linearGradient846"
       id="linearGradient848"
       x1="12"
       y1="11"
       x2="12"
       y2="25"
       gradientUnits="userSpaceOnUse"
       gradientTransform="translate(1,-5)" />
    <linearGradient
       inkscape:collect="always"
       id="linearGradient846">
      <stop
         style="stop-color:#ffffff;stop-opacity:1;"
         offset="0"
         id="stop842" />
      <stop
         id="stop850"
         offset="0"
         style="stop-color:#ffffff;stop-opacity:0.05514706" />
      <stop
         style="stop-color:#ffffff;stop-opacity:0.24705882;"
         offset="1"
         id="stop852" />
      <stop
         style="stop-color:#ffffff;stop-opacity:0.48161766"
         offset="1"
         id="stop844" />
    </linearGradient>
  </defs>
  <sodipodi:namedview
     pagecolor="#ffffff"
     bordercolor="#666666"
     borderopacity="1"
     objecttolerance="10"
     gridtolerance="10"
     guidetolerance="10"
     inkscape:pageopacity="0"
     inkscape:pageshadow="2"
     inkscape:window-width="1366"
     inkscape:window-height="706"
     id="namedview14"
     showgrid="true"
     inkscape:zoom="19.666667"
     inkscape:cx="9.3183068"
     inkscape:cy="7.0234655"
     inkscape:window-x="0"
     inkscape:window-y="0"
     inkscape:window-maximized="1"
     inkscape:current-layer="svg12"
     inkscape:snap-smooth-nodes="true">
    <inkscape:grid
       type="xygrid"
       id="grid828"
       spacingx="0.5"
       spacingy="0.5"
       empspacing="2" />
  </sodipodi:namedview>
  <path
     d="m 4.5,4.5 c -0.554,0 -1,0.446 -1,1 v 15 c 0,0.554 0.446,1 1,1 h 15 c 0.554,0 1,-0.446 1,-1 v -15 c 0,-0.554 -0.446,-1 -1,-1 h -2 v 3 h -11 v -3 z"
     id="path2"
     style="fill:#e2b96c;stroke:#bc974c;stroke-opacity:1;fill-opacity:1"
     inkscape:connector-curvature="0"
     sodipodi:nodetypes="ssssssssccccs" />
  <rect
     style="opacity:1;fill:none;fill-opacity:1;stroke:url(#linearGradient848);stroke-width:1;stroke-miterlimit:4;stroke-dasharray:none;stroke-opacity:0.65808835"
     id="rect838"
     width="15"
     height="15"
     x="4.5"
     y="5.5"
     ry="1"
     rx="0.5" />
  <path
     d="m 12,2.5 c -1.1046,0 -2,0.89543 -2,2 H 6.5 v 3 h 11 v -3 H 14 C 14,4.36193 13.995,4.22395 13.96875,4.09375 13.78226,3.18238 12.9666,2.5 12,2.5 Z m 0,1 c 0.41421,0 0.75444,0.26608 0.90625,0.625 C 12.95685,4.24464 13,4.36193 13,4.5 c 0,0.55228 -0.44771,1 -1,1 -0.55229,0 -1,-0.44772 -1,-1 0,-0.55228 0.44771,-1 1,-1 z"
     id="path4"
     inkscape:connector-curvature="0"
     style="fill:#797979;fill-opacity:1;stroke:#757575;stroke-opacity:1"
     sodipodi:nodetypes="scccccccsscssss" />
  <g
     transform="translate(-1 6)"
     id="g10">
    <path
       d="m15 16h8v-6-1l-3-3h-5z"
       id="path6"
       style="fill-opacity:1;fill:url(#radialGradient924)"
       fill-rule="evenodd"
       fill="#fff" />
    <path
       d="m14.857422 5c-.474857 0-.857422.3825647-.857422.8574219v10.2851561c0 .474857.382565.857422.857422.857422h8.285156c.474857 0 .857422-.382565.857422-.857422v-7.142578l-1-1-2-2-1-1zm.142578 1h4v3.1425781c0 .474857.382565.8574219.857422.8574219h3.142578v6h-8zm5 .4140625 2.585938 2.5859375h-2.585938z"
       id="path8"
       style="stroke:none;fill:#a1a1a1;fill-opacity:1"
       fill="#808080" />
    <path
       inkscape:connector-curvature="0"
       id="path876"
       d="M 20,6.414063 22.585938,9 H 20 Z"
       style="fill:url(#linearGradient884);fill-opacity:1;stroke:none;stroke-width:1px;stroke-linecap:butt;stroke-linejoin:miter;stroke-opacity:1" />
  </g>
</svg>
