<svg viewBox="0 0 24 24" xmlns="http://www.w3.org/2000/svg" xmlns:xlink="http://www.w3.org/1999/xlink"><linearGradient id="a" gradientUnits="userSpaceOnUse" x1="-12.118644" x2="-12.118644" y1="22.61017" y2="27.61017"><stop offset="0" stop-color="#2a9240"/><stop offset="1" stop-color="#32d74b"/></linearGradient><linearGradient id="b" gradientTransform="translate(-29.694915 1.220339)" gradientUnits="userSpaceOnUse" x1="14" x2="13.79661" y1="22" y2="2.135593"><stop offset="0" stop-color="#0040dd"/><stop offset="1" stop-color="#0a84ff"/></linearGradient><linearGradient id="c" gradientUnits="userSpaceOnUse" x1="11" x2="11" xlink:href="#b" y1="4" y2="2"/><linearGradient id="d" gradientUnits="userSpaceOnUse" x1="12" x2="12" xlink:href="#b" y1="19" y2="18"/><linearGradient id="e" gradientUnits="userSpaceOnUse" x1="-41.898305" x2="-41.898305" y1="10.822928" y2="-.177072"><stop offset="0" stop-color="#f5f5f5"/><stop offset=".3888889" stop-color="#fdfdfd"/><stop offset="1" stop-color="#fff"/></linearGradient><path d="m3 4v13h12c-.162507-.319797.09729-.654726 0-1h-11v-11h16v9.607422c.356018.180516.691327.399252 1 .652344v-11.259766z" fill="#98989d"/><path d="m1 2h22v2h-22z" fill="url(#c)"/><path d="m4 5v11h16v-11z" fill="url(#e)"/><path d="m5 6h14v2h-14z" fill="#ff9500"/><path d="m11 19h1v2h-1z" fill="#98989d"/><circle cx="11.5" cy="22.5" fill="#98989d" r="1.5"/><path d="m2 17h20v2h-20z" fill="url(#d)" stroke-width=".683483"/><path d="m18.5 14a4.5 4.5 0 0 0 -4.5 4.5 4.5 4.5 0 0 0 4.5 4.5 4.5 4.5 0 0 0 4.5-4.5 4.5 4.5 0 0 0 -4.5-4.5zm0 1a3.5 3.5 0 0 1 3.5 3.5 3.5 3.5 0 0 1 -3.5 3.5 3.5 3.5 0 0 1 -3.5-3.5 3.5 3.5 0 0 1 3.5-3.5z" fill="#98989d"/><circle cx="18.5" cy="18.5" fill="#fff" r="3.5"/><path d="m17 21 4-2.5-4-2.5z" fill="url(#a)" fill-rule="evenodd"/><circle cx="11.5" cy="22.5" fill="#eee" r=".499149"/><g fill="#98989d" transform="translate(0 -3)"><path d="m5 12h1v1h-1z"/><path d="m5 14h1v1h-1z"/><path d="m5 16h1v1h-1z"/><path d="m7 12h8v1h-8z"/><path d="m7 16h3v1h-3z"/><path d="m7 14h5v1h-5z"/></g></svg>