<?xml version="1.0" encoding="UTF-8" standalone="no"?>
<svg
   xmlns:dc="http://purl.org/dc/elements/1.1/"
   xmlns:cc="http://creativecommons.org/ns#"
   xmlns:rdf="http://www.w3.org/1999/02/22-rdf-syntax-ns#"
   xmlns:svg="http://www.w3.org/2000/svg"
   xmlns="http://www.w3.org/2000/svg"
   xmlns:xlink="http://www.w3.org/1999/xlink"
   xmlns:sodipodi="http://sodipodi.sourceforge.net/DTD/sodipodi-0.dtd"
   xmlns:inkscape="http://www.inkscape.org/namespaces/inkscape"
   viewBox="0 0 24 24"
   version="1.1"
   id="svg26"
   sodipodi:docname="lc_printpreview.svg"
   inkscape:version="0.92.3 (2405546, 2018-03-11)">
  <metadata
     id="metadata32">
    <rdf:RDF>
      <cc:Work
         rdf:about="">
        <dc:format>image/svg+xml</dc:format>
        <dc:type
           rdf:resource="http://purl.org/dc/dcmitype/StillImage" />
      </cc:Work>
    </rdf:RDF>
  </metadata>
  <defs
     id="defs30">
    <linearGradient
       gradientTransform="translate(-41.79661,4.0677966)"
       id="a-3"
       gradientUnits="userSpaceOnUse"
       x1="14"
       x2="13.79661"
       y1="22"
       y2="2.1355929">
      <stop
         offset="0"
         stop-color="#0040dd"
         id="stop2206" />
      <stop
         offset="1"
         stop-color="#0a84ff"
         id="stop2208" />
    </linearGradient>
    <linearGradient
       inkscape:collect="always"
       xlink:href="#a-3"
       id="linearGradient857"
       x1="17.61017"
       y1="23.176067"
       x2="17.427944"
       y2="11.074371"
       gradientUnits="userSpaceOnUse" />
  </defs>
  <sodipodi:namedview
     pagecolor="#ffffff"
     bordercolor="#666666"
     borderopacity="1"
     objecttolerance="10"
     gridtolerance="10"
     guidetolerance="10"
     inkscape:pageopacity="0"
     inkscape:pageshadow="2"
     inkscape:window-width="1366"
     inkscape:window-height="685"
     id="namedview28"
     showgrid="false"
     inkscape:zoom="9.8333333"
     inkscape:cx="-1.0677966"
     inkscape:cy="11.186441"
     inkscape:window-x="0"
     inkscape:window-y="0"
     inkscape:window-maximized="1"
     inkscape:current-layer="svg26" />
  <linearGradient
     id="a"
     gradientUnits="userSpaceOnUse"
     x1="15"
     x2="17.0000008"
     y1="8"
     y2="5.9999992">
    <stop
       offset="0"
       stop-color="#fff"
       id="stop2" />
    <stop
       offset=".77967989"
       stop-color="#f1f1f1"
       id="stop4" />
    <stop
       offset="1"
       stop-color="#d5d5d5"
       id="stop6" />
  </linearGradient>
  <radialGradient
     id="b"
     cx="16.299999"
     cy="7.955555"
     gradientTransform="matrix(1.4285714 -.00000006 .00000006 1.4285714 -7.285714 -4.365078)"
     gradientUnits="userSpaceOnUse"
     r="7">
    <stop
       offset="0"
       stop-color="#d7d7d7"
       id="stop9" />
    <stop
       offset=".29999998"
       stop-color="#f7f7f7"
       id="stop11" />
    <stop
       offset="1"
       stop-color="#fff"
       id="stop13" />
  </radialGradient>
  <path
     d="m5 4v17h10.5c-3.025721 0-5.5-2.474279-5.5-5.5s2.474279-5.5 5.5-5.5c1.326717 0 2.547431.476297 3.5 1.265625v-3.5371094l-4-3.7285156zm13.128906 16.238281c-.810173.44983-1.69034.760419-2.626953.761719h3.388672z"
     fill="url(#b)"
     id="path16" />
  <path
     d="m5 3c-.554 0-1 .446-1 1v17c0 .554.446 1 1 1h14.890625l-1-1h-3.388672-.001953-10.5v-17h9v4c0 .554.446 1 1 1h4v2.265625c.380836.315573.715237.682422 1 1.087891v-4.103516-.2089844c0-.4506799.098038-.4254121-.605469-1.0664062l-3.30664-3.2382813c-.709525-.7368575-.710169-.7363281-1.09375-.7363281h-.332032-.662109z"
     fill="#98989d"
     id="path18" />
  <path
     d="m15.5 11c-2.485281 0-4.5 2.014719-4.5 4.5s2.014719 4.5 4.5 4.5c.693353-.000949 1.36652-.173359 1.980469-.476562.041512.069138.075043.141449.134765.201171l3.535157 3.53711c.391737.391737 1.022325.391737 1.414062 0 .103037-.103037.175775-.224154.224609-.351563.232642-.164361.346669-.504202.070313-.769531l-.294922-.294922-3.535156-3.535156-.007813-.007813c.633813-.796664.978765-1.7847.978516-2.802734 0-2.485281-2.014719-4.5-4.5-4.5zm-.009766 1.990234a2.5125763 2.5125763 0 0 1 2.511719 2.513672 2.5125763 2.5125763 0 0 1 -2.511719 2.511719 2.5125763 2.5125763 0 0 1 -2.513672-2.511719 2.5125763 2.5125763 0 0 1 2.513672-2.513672z"
     fill="#0a84ff"
     id="path20"
     style="fill-opacity:1;fill:url(#linearGradient857)" />
  <circle
     cx="15.5"
     cy="15.5"
     fill="#fff"
     r="2.507813"
     stroke-width=".716518"
     id="circle22" />
  <path
     d="m15 4 4 4h-4z"
     fill="url(#a)"
     id="path24" />
</svg>
