<svg viewBox="0 0 24 24" xmlns="http://www.w3.org/2000/svg"><g fill="#69696e" transform="scale(-1 1)"><rect height=".999999" ry=".5" width="10.000005" x="-13" y="3"/><rect height=".999999" ry=".5" width="10.000002" x="-13" y="17"/><rect height="1" ry=".5" width="10" x="-13" y="19.999998"/><rect height=".999999" ry=".5" width="10" x="-13" y="6"/></g><g fill="#0a84ff" stroke="#0070f5" stroke-linecap="round" stroke-linejoin="round"><path d="m18.501563 1.6851028-4 4h2.994141v.00781.5 3.0000001c0 .277.223.5.5.5h1c.277 0 .5-.223.5-.5v-3.0000001-.4921875-.00781l3.005859-.00781z"/><path d="m18.501563 22.500021-4-4h2.994141v-.0078-.5-3c0-.277.223-.5.5-.5h1c.277 0 .5.223.5.5v3 .492187.0078l3.005859.0078z"/></g></svg>