<?xml version="1.0" encoding="UTF-8" standalone="no"?>
<svg
   xmlns:dc="http://purl.org/dc/elements/1.1/"
   xmlns:cc="http://creativecommons.org/ns#"
   xmlns:rdf="http://www.w3.org/1999/02/22-rdf-syntax-ns#"
   xmlns:svg="http://www.w3.org/2000/svg"
   xmlns="http://www.w3.org/2000/svg"
   xmlns:xlink="http://www.w3.org/1999/xlink"
   xmlns:sodipodi="http://sodipodi.sourceforge.net/DTD/sodipodi-0.dtd"
   xmlns:inkscape="http://www.inkscape.org/namespaces/inkscape"
   viewBox="0 0 24 24"
   version="1.1"
   id="svg18"
   sodipodi:docname="lc_print.svg"
   inkscape:version="0.92.3 (unknown)"
   inkscape:export-filename="/home/rizmut/Dokumen/Rizmut/Github/libreoffice-style-colibrex/images_colibrex/cmd/lc_print.png"
   inkscape:export-xdpi="96"
   inkscape:export-ydpi="96">
  <metadata
     id="metadata24">
    <rdf:RDF>
      <cc:Work
         rdf:about="">
        <dc:format>image/svg+xml</dc:format>
        <dc:type
           rdf:resource="http://purl.org/dc/dcmitype/StillImage" />
        <dc:title></dc:title>
      </cc:Work>
    </rdf:RDF>
  </metadata>
  <defs
     id="defs22">
    <linearGradient
       inkscape:collect="always"
       id="linearGradient846">
      <stop
         style="stop-color:#ffffff;stop-opacity:1;"
         offset="0"
         id="stop842" />
      <stop
         id="stop850"
         offset="0.08333334"
         style="stop-color:#ffffff;stop-opacity:0.05514706" />
      <stop
         style="stop-color:#ffffff;stop-opacity:0.24705882;"
         offset="1"
         id="stop852" />
      <stop
         style="stop-color:#ffffff;stop-opacity:0.48161766"
         offset="1"
         id="stop844" />
    </linearGradient>
    <linearGradient
       inkscape:collect="always"
       xlink:href="#linearGradient846"
       id="linearGradient848"
       x1="11.5"
       y1="11"
       x2="11.5"
       y2="17"
       gradientUnits="userSpaceOnUse" />
  </defs>
  <sodipodi:namedview
     pagecolor="#ffffff"
     bordercolor="#666666"
     borderopacity="1"
     objecttolerance="10"
     gridtolerance="10"
     guidetolerance="10"
     inkscape:pageopacity="0"
     inkscape:pageshadow="2"
     inkscape:window-width="1366"
     inkscape:window-height="706"
     id="namedview20"
     showgrid="true"
     inkscape:zoom="19.666667"
     inkscape:cx="10.550478"
     inkscape:cy="10.741989"
     inkscape:window-x="0"
     inkscape:window-y="0"
     inkscape:window-maximized="1"
     inkscape:current-layer="svg18"
     inkscape:snap-smooth-nodes="true">
    <inkscape:grid
       type="xygrid"
       id="grid834"
       spacingx="0.5"
       spacingy="0.5"
       empspacing="2" />
  </sodipodi:namedview>
  <path
     d="m8 16v5h8v-5z"
     fill="#fff"
     fill-rule="evenodd"
     id="path2" />
  <path
     d="m7 16v5.142578c0 .474857.3825649.857422.8574219.857422h8.2851561c.474857 0 .857422-.382565.857422-.857422v-5.142578h-1v5h-8v-5z"
     fill="#808080"
     id="path4"
     style="fill:#98989d;fill-opacity:1" />
  <path
     d="m 3.5,9.5 c -0.554,0 -1,0.446 -1,1 v 7 c 0,0.554 0.446,1 1,1 h 17 c 0.554,0 1,-0.446 1,-1 v -7 c 0,-0.554 -0.446,-1 -1,-1 H 19 V 12 c 0,0.554 -0.446,1 -1,1 H 6 C 5.446,13 5,12.554 5,12 V 9.5 Z"
     id="path6"
     style="fill:#8e8e93;fill-opacity:1;stroke:#616165;stroke-opacity:1"
     inkscape:connector-curvature="0"
     sodipodi:nodetypes="sssssssscsssscs" />
  <rect
     style="opacity:1;fill:none;fill-opacity:1;stroke:url(#linearGradient848);stroke-width:1;stroke-miterlimit:4;stroke-dasharray:none;stroke-opacity:0.65808821"
     id="rect838"
     width="17"
     height="7"
     x="3.5"
     y="10.5"
     ry="1"
     rx="0.5" />
  <rect
     fill="#4d82b8"
     height="4.29661"
     ry="1"
     width="12"
     x="6"
     y="8"
     id="rect8"
     style="fill:#0a84ff;fill-opacity:1" />
  <path
     d="m7.8574219 4c-.474857 0-.8574219.3825649-.8574219.8574219v5.1425781h1v-5h8v5h1v-5.1425781c0-.474857-.382565-.8574219-.857422-.8574219z"
     fill="#808080"
     id="path10"
     style="fill:#98989d;fill-opacity:1" />
  <g
     fill="#fff"
     id="g16">
    <path
       d="m8 5v5h8v-5z"
       fill-rule="evenodd"
       id="path12" />
    <path
       d="m18 16h2v1h-2z"
       id="path14" />
  </g>
</svg>
