<svg viewBox="0 0 24 24" xmlns="http://www.w3.org/2000/svg"><path d="m2 6v4.585938 10.414062h20v-10.414062-4.585938zm1 1h18v4.585938 8.414062h-18v-8.414062z" fill="#98989d"/><path d="m3 7v4.585938 8.414062h8.414062 1.171876 8.414062v-8.414062-4.585938z" fill="#fff"/><path d="m1 3h22v2h-22z" fill="#0040dd"/><path d="m5 9h14v2h-14z" fill="#ff9500"/><g fill="#98989d"><path d="m5 12h1v1h-1z"/><path d="m5 14h1v1h-1z"/><path d="m5 16h1v1h-1z"/><path d="m7 12h8v1h-8z"/><path d="m7 16h3v1h-3z"/><path d="m7 14h5v1h-5z"/></g><path d="m22.5 11.5-10.5 11h10.5zm-2 5v4h-4z" fill="#fc0" fill-rule="evenodd" stroke="#c89e00" stroke-linecap="round" stroke-linejoin="round"/></svg>