<svg viewBox="0 0 24 24" xmlns="http://www.w3.org/2000/svg" xmlns:xlink="http://www.w3.org/1999/xlink"><linearGradient id="a" gradientTransform="translate(-43.220339 -8.644068)" gradientUnits="userSpaceOnUse" x1="14" x2="13.79661" y1="22" y2="2.135593"><stop offset="0" stop-color="#0040dd"/><stop offset="1" stop-color="#0a84ff"/></linearGradient><linearGradient id="b" gradientUnits="userSpaceOnUse" x1="18.501562" x2="18.730307" xlink:href="#a" y1="22.500021" y2="14.428314"/><linearGradient id="c" gradientUnits="userSpaceOnUse" x1="18.47621" x2="18.501562" xlink:href="#a" y1="9.65512" y2="1.685103"/><g fill="#69696e" transform="scale(-1 1)"><rect height=".999999" ry=".5" width="10.000005" x="-13" y="3"/><rect height=".999999" ry=".5" width="10.000002" x="-13" y="17"/><rect height="1" ry=".5" width="10" x="-13" y="19.999998"/><rect height=".999999" ry=".5" width="10" x="-13" y="6"/></g><g fill="#0a84ff" stroke="#0070f5" stroke-linecap="round" stroke-linejoin="round"><path d="m18.501563 1.6851028-4 4h2.994141v.00781.5 3.0000001c0 .277.223.5.5.5h1c.277 0 .5-.223.5-.5v-3.0000001-.4921875-.00781l3.005859-.00781z" fill="url(#c)" stroke="url(#c)"/><path d="m18.501563 22.500021-4-4h2.994141v-.0078-.5-3c0-.277.223-.5.5-.5h1c.277 0 .5.223.5.5v3 .492187.0078l3.005859.0078z" fill="url(#b)" stroke="url(#b)"/></g><g fill="#e9e9e9" fill-opacity=".992157" transform="matrix(-1 0 0 1 0 1)"><rect height=".999999" ry=".5" width="10.000005" x="-13" y="3"/><rect height=".999999" ry=".5" width="10.000002" x="-13" y="17"/><rect height="1" ry=".5" width="10" x="-13" y="19.999998"/><rect height=".999999" ry=".5" width="10" x="-13" y="6"/></g></svg>