<?xml version="1.0" encoding="UTF-8" standalone="no"?>
<svg
   xmlns:dc="http://purl.org/dc/elements/1.1/"
   xmlns:cc="http://creativecommons.org/ns#"
   xmlns:rdf="http://www.w3.org/1999/02/22-rdf-syntax-ns#"
   xmlns:svg="http://www.w3.org/2000/svg"
   xmlns="http://www.w3.org/2000/svg"
   xmlns:sodipodi="http://sodipodi.sourceforge.net/DTD/sodipodi-0.dtd"
   xmlns:inkscape="http://www.inkscape.org/namespaces/inkscape"
   viewBox="0 0 24 24"
   version="1.1"
   id="svg6"
   sodipodi:docname="lc_polygon_diagonal_unfilled.svg"
   inkscape:version="0.92.3 (2405546, 2018-03-11)">
  <metadata
     id="metadata12">
    <rdf:RDF>
      <cc:Work
         rdf:about="">
        <dc:format>image/svg+xml</dc:format>
        <dc:type
           rdf:resource="http://purl.org/dc/dcmitype/StillImage" />
        <dc:title></dc:title>
      </cc:Work>
    </rdf:RDF>
  </metadata>
  <defs
     id="defs10">
    <linearGradient
       gradientTransform="translate(-37.016949,-8.4406778)"
       id="a"
       gradientUnits="userSpaceOnUse"
       x1="12"
       x2="12"
       y1="21.5"
       y2="2.5">
      <stop
         offset="0"
         stop-color="#e5eefc"
         id="stop1020" />
      <stop
         offset="1"
         stop-color="#fcfdff"
         id="stop1022" />
    </linearGradient>
  </defs>
  <sodipodi:namedview
     pagecolor="#ffffff"
     bordercolor="#666666"
     borderopacity="1"
     objecttolerance="10"
     gridtolerance="10"
     guidetolerance="10"
     inkscape:pageopacity="0"
     inkscape:pageshadow="2"
     inkscape:window-width="1366"
     inkscape:window-height="716"
     id="namedview8"
     showgrid="false"
     inkscape:zoom="9.8333333"
     inkscape:cx="12"
     inkscape:cy="12"
     inkscape:window-x="-8"
     inkscape:window-y="-8"
     inkscape:window-maximized="1"
     inkscape:current-layer="svg6" />
  <path
     d="m4.5 19.5 6-6"
     fill="none"
     stroke="#4d82b8"
     stroke-linecap="round"
     stroke-linejoin="round"
     id="path2"
     style="stroke:#0a84ff;stroke-opacity:1" />
  <path
     d="m2.5 2a.50005.50005 0 0 0 -.5.5v19a.50005.50005 0 0 0 .5.5h8.142578 10.857422a.50005.50005 0 0 0 .5-.5v-8a.50005.50005 0 0 0 -.5-.5h-10.5v-10.5a.50005.50005 0 0 0 -.5-.5zm.5 1h7v10.5a.50005.50005 0 0 0 .5.5h10.5v7h-10.357422-7.642578z"
     fill="#4d82b8"
     id="path4"
     style="fill:#0a84ff;fill-opacity:1" />
</svg>
