<?xml version="1.0" encoding="UTF-8" standalone="no"?>
<svg
   xmlns:dc="http://purl.org/dc/elements/1.1/"
   xmlns:cc="http://creativecommons.org/ns#"
   xmlns:rdf="http://www.w3.org/1999/02/22-rdf-syntax-ns#"
   xmlns:svg="http://www.w3.org/2000/svg"
   xmlns="http://www.w3.org/2000/svg"
   xmlns:xlink="http://www.w3.org/1999/xlink"
   xmlns:sodipodi="http://sodipodi.sourceforge.net/DTD/sodipodi-0.dtd"
   xmlns:inkscape="http://www.inkscape.org/namespaces/inkscape"
   viewBox="0 0 24 24"
   version="1.1"
   id="svg22"
   sodipodi:docname="lc_presentation.svg"
   inkscape:version="0.92.4 (unknown)">
  <metadata
     id="metadata28">
    <rdf:RDF>
      <cc:Work
         rdf:about="">
        <dc:format>image/svg+xml</dc:format>
        <dc:type
           rdf:resource="http://purl.org/dc/dcmitype/StillImage" />
      </cc:Work>
    </rdf:RDF>
  </metadata>
  <defs
     id="defs26" />
  <sodipodi:namedview
     pagecolor="#ffffff"
     bordercolor="#666666"
     borderopacity="1"
     objecttolerance="10"
     gridtolerance="10"
     guidetolerance="10"
     inkscape:pageopacity="0"
     inkscape:pageshadow="2"
     inkscape:window-width="1360"
     inkscape:window-height="714"
     id="namedview24"
     showgrid="false"
     inkscape:zoom="9.8333333"
     inkscape:cx="-5.440678"
     inkscape:cy="12"
     inkscape:window-x="0"
     inkscape:window-y="28"
     inkscape:window-maximized="1"
     inkscape:current-layer="svg22" />
  <linearGradient
     id="a"
     gradientUnits="userSpaceOnUse"
     x1="18.5"
     x2="18.5"
     xlink:href="#b"
     y1="23"
     y2="14" />
  <linearGradient
     id="b"
     gradientUnits="userSpaceOnUse"
     x1="-14.24444"
     x2="-14.24444"
     y1="10.428188"
     y2="5.428188">
    <stop
       offset="0"
       stop-color="#2a9240"
       id="stop3" />
    <stop
       offset="1"
       stop-color="#32d74b"
       id="stop5" />
  </linearGradient>
  <path
     d="m2 5v8.259766 6.740234h8.398438 3.203124 8.398438v-6.740234-8.259766zm1 1h18v6.607422 6.392578h-7.789062-2.421876-7.789062v-6.392578z"
     fill="#98989d"
     id="path8" />
  <path
     d="m3 6v6.607422 6.392578h7.789062 2.421876 7.789062v-6.392578-6.607422z"
     fill="#fff"
     id="path10" />
  <path
     d="m1 3h22v2h-22z"
     fill="#69696e"
     id="path12" />
  <path
     d="m18.5 13a5.5 5.5 0 0 0 -5.5 5.5 5.5 5.5 0 0 0 .601562 2.5h8.398438v-6.740234a5.5 5.5 0 0 0 -3.5-1.259766z"
     fill="#fff"
     fill-opacity=".784314"
     id="path14" />
  <path
     d="m18.5 14a4.5 4.5 0 0 0 -4.5 4.5 4.5 4.5 0 0 0 4.5 4.5 4.5 4.5 0 0 0 4.5-4.5 4.5 4.5 0 0 0 -4.5-4.5z"
     fill="url(#a)"
     id="path16" />
  <path
     d="m17 21 4-2.5-4-2.5z"
     fill="url(#b)"
     fill-rule="evenodd"
     id="path18"
     style="fill:#ffffff" />
  <path
     d="m5 8h14v2h-14z"
     fill="#ff9500"
     id="path20" />
</svg>
