<svg viewBox="0 0 24 24" xmlns="http://www.w3.org/2000/svg" xmlns:xlink="http://www.w3.org/1999/xlink"><linearGradient id="a" gradientTransform="translate(-31.118644 6.61017)" gradientUnits="userSpaceOnUse" x1="14" x2="13.79661" y1="22" y2="2.135593"><stop offset="0" stop-color="#2a9240"/><stop offset="1" stop-color="#32d74b"/></linearGradient><linearGradient id="b" gradientTransform="translate(-29.694915 1.220339)" gradientUnits="userSpaceOnUse" x1="14" x2="13.79661" y1="22" y2="2.135593"><stop offset="0" stop-color="#0040dd"/><stop offset="1" stop-color="#0a84ff"/></linearGradient><linearGradient id="c" gradientUnits="userSpaceOnUse" x1="11" x2="11" xlink:href="#b" y1="4" y2="2"/><linearGradient id="d" gradientUnits="userSpaceOnUse" x1="12" x2="12" xlink:href="#b" y1="19" y2="18"/><linearGradient id="e" gradientUnits="userSpaceOnUse" x1="-41.898305" x2="-41.898305" y1="10.822928" y2="-.177072"><stop offset="0" stop-color="#f5f5f5"/><stop offset=".3888889" stop-color="#fdfdfd"/><stop offset="1" stop-color="#fff"/></linearGradient><linearGradient id="f" gradientUnits="userSpaceOnUse" x1="17.5" x2="17.5" xlink:href="#a" y1="17" y2="21"/><linearGradient id="g" gradientUnits="userSpaceOnUse" x1="19.5" x2="19.5" xlink:href="#a" y1="17" y2="21"/><path d="m3 4v13h17v-1h-16v-11h16v12h1v-13z" fill="#98989d"/><path d="m1 2h22v2h-22z" fill="url(#c)"/><path d="m4 5v11h16v-11z" fill="url(#e)"/><path d="m5 6h14v2h-14z" fill="#ff9500"/><path d="m11 19h1v2h-1z" fill="#98989d"/><circle cx="11.5" cy="22.5" fill="#98989d" r="1.5"/><path d="m2 17h20v2h-20z" fill="url(#d)" stroke-width=".683483"/><circle cx="11.5" cy="22.5" fill="#eee" r=".499149"/><g fill="#98989d" transform="translate(0 -3)"><path d="m5 12h1v1h-1z"/><path d="m5 14h1v1h-1z"/><path d="m5 16h1v1h-1z"/><path d="m7 12h8v1h-8z"/><path d="m7 16h3v1h-3z"/><path d="m7 14h5v1h-5z"/></g><path d="m15 16h7v6h-7z" fill="#fff"/><path d="m17 17h1v4h-1z" fill="url(#f)"/><path d="m19 17h1v4h-1z" fill="url(#g)"/><path d="m15 15c-.554 0-1 .446-1 1v6c0 .554.446 1 1 1h7c.554 0 1-.446 1-1v-6c0-.554-.446-1-1-1zm0 1h7v6h-7z" fill="#98989d"/></svg>