<svg viewBox="0 0 24 24" xmlns="http://www.w3.org/2000/svg" xmlns:xlink="http://www.w3.org/1999/xlink"><linearGradient id="a" gradientUnits="userSpaceOnUse" x1="7" x2="11" y1="2" y2="15"><stop offset="0" stop-color="#fff"/><stop offset="1" stop-color="#fff" stop-opacity="0"/></linearGradient><g transform="matrix(-1 0 0 1 25.5 .5)"><path d="m16.640625 5.34375c-.743479.010596-1.471047.1590109-2.148505.4307978-.745012.298889-1.429422.7469814-2.007745 1.3250616l-4.9492188 4.9511716-3.5351562-3.535156v7.070313 1.414062h1.4140625 7.0703125l-3.5351562-3.535156 4.9511722-4.949219c1.562028-1.5616944 4.094222-1.5616944 5.65625 0 1.561694 1.562028 1.561694 4.094222 0 5.65625-.391737.391738-.391737 1.022326 0 1.414063s1.022325.391736 1.414062 0c2.343844-2.343265 2.343844-6.1430631 0-8.4863286-1.146803-1.146343-2.708755-1.7797192-4.330078-1.7558594z" fill="#0a84ff" stroke="#0a84ff" stroke-linecap="round" stroke-linejoin="round"/><path d="m16.634766 4.8808594c-.801149.011418-1.58503.172209-2.314454.4648437-.802218.3218398-1.54098.8029612-2.164062 1.4257813l-4.6210938 4.6230466-3.2070312-3.207031a.46324775.46324775 0 0 0 -.7910156.328125v7.070313 1.414062a.46324775.46324775 0 0 0 .1484375.339844c4.9235532-4.083196 6.9315241-10.0500063 14.8417971-12.2031252-.609171-.1762933-1.24654-.2653667-1.892578-.2558594z" fill="url(#a)"/></g></svg>