<svg viewBox="0 0 24 24" xmlns="http://www.w3.org/2000/svg" xmlns:xlink="http://www.w3.org/1999/xlink"><linearGradient id="a" gradientUnits="userSpaceOnUse" x1="-19.118644" x2="-19.118644" y1="28.61017" y2="8.61017"><stop offset="0" stop-color="#2a9240"/><stop offset="1" stop-color="#32d74b"/></linearGradient><path d="m12 2a10 10 0 0 0 -5.5078125 1.6621094l1.453125 1.453125a8 8 0 0 1 .9101563-.4550782c-.3123361.1352094-.6171873.2856753-.9082032.4570313l2.0527344 2.0527344v-2.9042969a8 8 0 0 1 2-.265625 8 8 0 0 1 8 8 8 8 0 0 1 -1.113281 4.056641l1.451172 1.451171a10 10 0 0 0 1.662109-5.507812 10 10 0 0 0 -10-10zm-2.1015625 2.296875c-.2858585.078094-.5642474.1725761-.8359375.28125a8 8 0 0 1 .8359375-.28125zm-6.2363281 2.1953125a10 10 0 0 0 -1.6621094 5.5078125 10 10 0 0 0 10 10 10 10 0 0 0 5.507812-1.662109l-1.453124-1.453125a8 8 0 0 1 -.910157.455078c.312336-.13521.617188-.285675.908203-.457032l-2.052734-2.052734v2.904297a8 8 0 0 1 -2 .265625 8 8 0 0 1 -8-8 8 8 0 0 1 1.1132812-4.0566406zm11.2753906 12.9296875a8 8 0 0 1 -.835938.28125c.285859-.078094.564248-.172576.835938-.28125z" fill="url(#a)"/></svg>