<svg viewBox="0 0 24 24" xmlns="http://www.w3.org/2000/svg" xmlns:xlink="http://www.w3.org/1999/xlink"><linearGradient id="a" gradientTransform="translate(-25.830508 -3.59322)" gradientUnits="userSpaceOnUse" x1="14" x2="13.79661" y1="22" y2="2.135593"><stop offset="0" stop-color="#0040dd"/><stop offset="1" stop-color="#0a84ff"/></linearGradient><linearGradient id="b" gradientUnits="userSpaceOnUse" x1="3.627119" x2="3.576271" xlink:href="#a" y1="12.381356" y2="9.940678"/><linearGradient id="c" gradientUnits="userSpaceOnUse" x1="3.830509" x2="3.677966" xlink:href="#a" y1="4.90678" y2="2.059322"/><g fill="#69696e" transform="scale(-1 1)"><rect height="1" ry=".5" width="14.999998" x="-22" y="2"/><rect height="1" ry=".392136" width="15.000005" x="-22" y="10"/><rect height="1" ry=".436441" width="15.000001" x="-22" y="18"/><rect height="1" ry=".5" width="8.999999" x="-16" y="21"/><rect height="1" ry=".5" width="8.999999" x="-16" y="13"/><rect height="1" ry=".5" width="9.000002" x="-16" y="5"/></g><g fill="url(#b)"><path d="m5 3.5a1.5 1.5 0 0 1 -1.5 1.5 1.5 1.5 0 0 1 -1.5-1.5 1.5 1.5 0 0 1 1.5-1.5 1.5 1.5 0 0 1 1.5 1.5z" fill="url(#c)"/><path d="m5 11.5a1.5 1.5 0 0 1 -1.5 1.5 1.5 1.5 0 0 1 -1.5-1.5 1.5 1.5 0 0 1 1.5-1.5 1.5 1.5 0 0 1 1.5 1.5z" fill="url(#b)"/></g><g fill="#e9e9e9" fill-opacity=".992157" transform="matrix(-1 0 0 1 0 1)"><rect height="1" ry=".5" width="14.999998" x="-22" y="2"/><rect height="1" ry=".392136" width="15.000005" x="-22" y="10"/><rect height="1" ry=".436441" width="15.000001" x="-22" y="18"/><rect height="1" ry=".5" width="8.999999" x="-16" y="21"/><rect height="1" ry=".5" width="8.999999" x="-16" y="13"/><rect height="1" ry=".5" width="9.000002" x="-16" y="5"/></g><path d="m15.078125 11.996094a1.0041282 1.0041282 0 0 0 -.066406.003906h.166015a1.0041282 1.0041282 0 0 0 -.099609-.003906zm5.767578 0a1.0041282 1.0041282 0 0 0 -.041015.003906h.15625a1.0041282 1.0041282 0 0 0 -.115235-.003906zm-7.214844 1.003906-1.322265 1.253906a1.0041282 1.0041282 0 0 0 -.310547.746094h4.001953v-2zm.375 5.5-1.486328 1.5h9.480469v-1.5zm-2.005859 2.5a1.0041282 1.0041282 0 0 0 .294922.65625l.349609.34375h3.355469v-1z" fill="#fff" fill-opacity=".784314"/><path d="m22.999998 20.944338-2.895447-2.946153 2.7861-3.086414-2.008392-1.911762-2.867282 2.941173-2.925406-2.941173-2.089573 1.98208 2.925403 3.003525-2.925403 2.955562 2.089573 2.058824 2.922011-3.088233 2.928799 3.088233z" fill="#c20618"/></svg>