<?xml version="1.0" encoding="UTF-8" standalone="no"?>
<svg
   xmlns:dc="http://purl.org/dc/elements/1.1/"
   xmlns:cc="http://creativecommons.org/ns#"
   xmlns:rdf="http://www.w3.org/1999/02/22-rdf-syntax-ns#"
   xmlns:svg="http://www.w3.org/2000/svg"
   xmlns="http://www.w3.org/2000/svg"
   xmlns:sodipodi="http://sodipodi.sourceforge.net/DTD/sodipodi-0.dtd"
   xmlns:inkscape="http://www.inkscape.org/namespaces/inkscape"
   viewBox="0 0 24 24"
   version="1.1"
   id="svg1026"
   sodipodi:docname="lc_resetattributes.svg"
   inkscape:version="0.92.3 (unknown)">
  <metadata
     id="metadata1032">
    <rdf:RDF>
      <cc:Work
         rdf:about="">
        <dc:format>image/svg+xml</dc:format>
        <dc:type
           rdf:resource="http://purl.org/dc/dcmitype/StillImage" />
      </cc:Work>
    </rdf:RDF>
  </metadata>
  <defs
     id="defs1030" />
  <sodipodi:namedview
     pagecolor="#ffffff"
     bordercolor="#666666"
     borderopacity="1"
     objecttolerance="10"
     gridtolerance="10"
     guidetolerance="10"
     inkscape:pageopacity="0"
     inkscape:pageshadow="2"
     inkscape:window-width="1366"
     inkscape:window-height="706"
     id="namedview1028"
     showgrid="false"
     inkscape:zoom="9.8333333"
     inkscape:cx="12"
     inkscape:cy="12"
     inkscape:window-x="0"
     inkscape:window-y="0"
     inkscape:window-maximized="1"
     inkscape:current-layer="svg1026" />
  <g
     id="g1582">
    <path
       id="path1014"
       fill="#69696e"
       d="m10.884766 2-8.884766 18h2.640625c.2756917 0 .5209363-.07685.734375-.230469.2134387-.16265.3689708-.344173.4667969-.542969l1.6816406-3.617187h6.6855465l2.839844-2.857422-2.708984-10.751953zm1.359375 3.1308594c.06225.4427711.125247.8548569.1875 1.234375.07115.3704819.138919.6944889.201171.9746094l1.292969 5.8691402h-5.2949216l2.7207026-5.8417965c.124506-.2891566.262877-.6224351.414063-1.0019531.160079-.3795181.318437-.7916039.478516-1.234375z" />
    <path
       id="path1016"
       fill="#69696e"
       d="m1.5 21c-.277 0-.5.223-.5.5s.223.5.5.5h8.611328c-.1103-.322568-.1242712-.669998-.04297-1z" />
  </g>
  <g
     id="g1589">
    <path
       id="path1012"
       stroke="#b6496c"
       fill="none"
       d="m20.286096 10.297939-7.006293 7.084558-1.129346 2.420883c-.290506.290127-.147295 1.007368.143211 1.297496l1.981695 2.05082c.145253.145064.837068.2705 1.02663.2705s.32448-.19703.469734-.342106l1.873447-.370043 5.076889-5.511248.671356-3.731186z" />
    <path
       id="path1018"
       fill="#e68497"
       d="m16.518661 20.388672 6.495399-6.642082-2.741063-2.75182-6.590273 6.561871z" />
    <path
       id="path1020"
       fill="#e7acbc"
       d="m15.049171 22.865815c.189562 0 .378184-.07172.523438-.216797l.957771-2.242768-2.847656-2.849609-.994881 2.211518c-.290506.290127-.290506.756747 0 1.046875l1.835938 1.833984c.145254.145064.335828.216797.52539.216797z" />
    <path
       id="path1022"
       fill="#ab4263"
       d="m15.572609 22.649018 1.863391-.367556 4.949484-5.279652.628576-3.25522-6.48368 6.65966z" />
    <path
       id="path1024"
       stroke="#f398b3"
       fill="none"
       d="m14.07595 17.924051 6.253163-6.227848 2.278482 2.405063" />
  </g>
</svg>
