<?xml version="1.0" encoding="UTF-8" standalone="no"?>
<svg
   xmlns:dc="http://purl.org/dc/elements/1.1/"
   xmlns:cc="http://creativecommons.org/ns#"
   xmlns:rdf="http://www.w3.org/1999/02/22-rdf-syntax-ns#"
   xmlns:svg="http://www.w3.org/2000/svg"
   xmlns="http://www.w3.org/2000/svg"
   xmlns:sodipodi="http://sodipodi.sourceforge.net/DTD/sodipodi-0.dtd"
   xmlns:inkscape="http://www.inkscape.org/namespaces/inkscape"
   viewBox="0 0 24 24"
   version="1.1"
   id="svg12"
   sodipodi:docname="lc_resetattributes.svg"
   inkscape:version="0.92.3 (unknown)">
  <metadata
     id="metadata18">
    <rdf:RDF>
      <cc:Work
         rdf:about="">
        <dc:format>image/svg+xml</dc:format>
        <dc:type
           rdf:resource="http://purl.org/dc/dcmitype/StillImage" />
      </cc:Work>
    </rdf:RDF>
  </metadata>
  <defs
     id="defs16">
    <clipPath
       clipPathUnits="userSpaceOnUse"
       id="clipPath841">
      <rect
         style="opacity:1;fill:#69696e;fill-opacity:1;stroke:#0a84ff;stroke-width:7;stroke-miterlimit:4;stroke-dasharray:none;stroke-opacity:1"
         id="rect843"
         width="49.627117"
         height="41.491524"
         x="-475.11865"
         y="-677.28815" />
    </clipPath>
  </defs>
  <sodipodi:namedview
     pagecolor="#ffffff"
     bordercolor="#666666"
     borderopacity="1"
     objecttolerance="10"
     gridtolerance="10"
     guidetolerance="10"
     inkscape:pageopacity="0"
     inkscape:pageshadow="2"
     inkscape:window-width="1366"
     inkscape:window-height="706"
     id="namedview14"
     showgrid="false"
     inkscape:zoom="6.9826795"
     inkscape:cx="53.974772"
     inkscape:cy="4.3422607"
     inkscape:window-x="0"
     inkscape:window-y="0"
     inkscape:window-maximized="1"
     inkscape:current-layer="svg12" />
  <path
     style="fill:none;stroke:#b6496c;stroke-opacity:1"
     d="m 20.286096,10.297939 -7.006293,7.084558 -1.129346,2.420883 c -0.290506,0.290127 -0.147295,1.007368 0.143211,1.297496 l 1.981695,2.05082 c 0.145253,0.145064 0.837068,0.2705 1.02663,0.2705 0.189562,0 0.32448,-0.19703 0.469734,-0.342106 l 1.873447,-0.370043 5.076889,-5.511248 0.671356,-3.731186 z"
     id="path845"
     inkscape:connector-curvature="0"
     sodipodi:nodetypes="cccccsccccc" />
  <path
     d="m10.884766 2-8.884766 18h2.640625c.2756917 0 .5209363-.07685.734375-.230469.2134387-.16265.3689708-.344173.4667969-.542969l1.6816406-3.617187h6.6855465l2.839844-2.857422-2.708984-10.751953zm1.359375 3.1308594c.06225.4427711.125247.8548569.1875 1.234375.07115.3704819.138919.6944889.201171.9746094l1.292969 5.8691402h-5.2949216l2.7207026-5.8417965c.124506-.2891566.262877-.6224351.414063-1.0019531.160079-.3795181.318437-.7916039.478516-1.234375z"
     fill="#696969"
     id="path2"
     style="fill:#69696e;fill-opacity:1" />
  <path
     d="m1.5 21c-.277 0-.5.223-.5.5s.223.5.5.5h8.611328c-.1103-.322568-.1242712-.669998-.04297-1z"
     fill="#696969"
     id="path4"
     style="fill:#69696e;fill-opacity:1" />
  <path
     style="fill:#e68497"
     inkscape:connector-curvature="0"
     id="path6"
     d="M 16.518661,20.388672 23.01406,13.74659 20.272997,10.99477 13.682724,17.556641 Z" />
  <path
     style="fill:#e7acbc;fill-opacity:1"
     sodipodi:nodetypes="sccccccs"
     inkscape:connector-curvature="0"
     id="path8"
     d="m 15.049171,22.865815 c 0.189562,0 0.378184,-0.07172 0.523438,-0.216797 l 0.957771,-2.242768 -2.847656,-2.849609 -0.994881,2.211518 c -0.290506,0.290127 -0.290506,0.756747 0,1.046875 l 1.835938,1.833984 c 0.145254,0.145064 0.335828,0.216797 0.52539,0.216797 z" />
  <path
     style="fill:#ab4263;fill-opacity:1;stroke:none;stroke-width:1px;stroke-linecap:butt;stroke-linejoin:miter;stroke-opacity:1"
     d="M 15.572609,22.649018 17.436,22.281462 22.385484,17.00181 23.01406,13.74659 16.53038,20.40625 Z"
     id="path860"
     inkscape:connector-curvature="0"
     sodipodi:nodetypes="cccccc" />
  <path
     style="fill:none;stroke:#f398b3;stroke-width:1px;stroke-linecap:butt;stroke-linejoin:miter;stroke-opacity:1;fill-opacity:1"
     d="m 14.07595,17.924051 6.253163,-6.227848 2.278482,2.405063"
     id="path862"
     inkscape:connector-curvature="0"
     sodipodi:nodetypes="ccc" />
</svg>
