<?xml version="1.0" encoding="UTF-8" standalone="no"?>
<svg
   xmlns:dc="http://purl.org/dc/elements/1.1/"
   xmlns:cc="http://creativecommons.org/ns#"
   xmlns:rdf="http://www.w3.org/1999/02/22-rdf-syntax-ns#"
   xmlns:svg="http://www.w3.org/2000/svg"
   xmlns="http://www.w3.org/2000/svg"
   xmlns:xlink="http://www.w3.org/1999/xlink"
   xmlns:sodipodi="http://sodipodi.sourceforge.net/DTD/sodipodi-0.dtd"
   xmlns:inkscape="http://www.inkscape.org/namespaces/inkscape"
   viewBox="0 0 24 24"
   version="1.1"
   id="svg16"
   sodipodi:docname="lc_reverseorder.svg"
   inkscape:export-filename="/home/rizmut/Dokumen/Rizmut/Github/libreoffice-style-sukapura/images_sukapura/cmd/lc_reverseorder.png"
   inkscape:export-xdpi="96"
   inkscape:export-ydpi="96"
   inkscape:version="0.92.3 (unknown)">
  <metadata
     id="metadata22">
    <rdf:RDF>
      <cc:Work
         rdf:about="">
        <dc:format>image/svg+xml</dc:format>
        <dc:type
           rdf:resource="http://purl.org/dc/dcmitype/StillImage" />
        <dc:title />
      </cc:Work>
    </rdf:RDF>
  </metadata>
  <defs
     id="defs20">
    <linearGradient
       gradientTransform="translate(-12,28)"
       y2="2"
       y1="16"
       x2="10"
       x1="10"
       gradientUnits="userSpaceOnUse"
       id="linearGradient1639">
      <stop
         id="stop1633"
         stop-color="#f5f5f5"
         offset="0" />
      <stop
         id="stop1637"
         stop-color="#fff"
         offset="1" />
    </linearGradient>
    <linearGradient
       gradientTransform="translate(75,-7)"
       id="a-367"
       gradientUnits="userSpaceOnUse"
       x1="14"
       x2="13.79661"
       y1="22"
       y2="2.1355929">
      <stop
         offset="0"
         stop-color="#0040dd"
         id="stop2206" />
      <stop
         offset="1"
         stop-color="#0a84ff"
         id="stop2208" />
    </linearGradient>
    <clipPath
       clipPathUnits="userSpaceOnUse"
       id="clipPath962">
      <path
         id="path964"
         d="m 4,11 h 8 v 3 H 4 Z"
         style="fill:#000000;fill-opacity:1"
         inkscape:connector-curvature="0" />
    </clipPath>
    <linearGradient
       id="a"
       gradientUnits="userSpaceOnUse"
       x1="10"
       x2="10"
       y1="16"
       y2="2"
       gradientTransform="translate(-12,28)">
      <stop
         offset="0"
         stop-color="#f5f5f5"
         id="stop1025" />
      <stop
         offset="0.25"
         stop-color="#fdfdfd"
         id="stop1027" />
      <stop
         offset="1"
         stop-color="#fff"
         id="stop1029" />
    </linearGradient>
    <linearGradient
       inkscape:collect="always"
       xlink:href="#a"
       id="linearGradient1709"
       x1="10"
       y1="13"
       x2="10"
       y2="21"
       gradientUnits="userSpaceOnUse" />
    <linearGradient
       inkscape:collect="always"
       xlink:href="#a-367"
       id="linearGradient2846"
       x1="18"
       y1="1"
       x2="18"
       y2="13"
       gradientUnits="userSpaceOnUse" />
  </defs>
  <sodipodi:namedview
     pagecolor="#ffffff"
     bordercolor="#666666"
     borderopacity="1"
     objecttolerance="10"
     gridtolerance="10"
     guidetolerance="10"
     inkscape:pageopacity="0"
     inkscape:pageshadow="2"
     inkscape:window-width="1366"
     inkscape:window-height="706"
     id="namedview18"
     showgrid="true"
     inkscape:zoom="11.313709"
     inkscape:cx="-9.3741335"
     inkscape:cy="8.2544092"
     inkscape:window-x="0"
     inkscape:window-y="0"
     inkscape:window-maximized="1"
     inkscape:current-layer="g1701">
    <inkscape:grid
       type="xygrid"
       id="grid829"
       spacingx="0.5"
       spacingy="0.5"
       empspacing="2" />
  </sodipodi:namedview>
  <g
     id="g1701"
     transform="matrix(1,0,0,-1,0,24)">
    <g
       id="g857">
      <g
         id="g836">
        <path
           style="fill:#e4b500;fill-opacity:1"
           d="M 5.9492188,2 C 5.4229188,2 5,2.4229187 5,2.9492188 V 11 18.050781 C 5,18.577081 5.4229188,19 5.9492188,19 H 15 21.050781 C 21.577081,19 22,18.577081 22,18.050781 V 10 2.9492188 C 22,2.4229188 21.577081,2 21.050781,2 H 12 Z M 6,3 H 21 V 18 H 6 Z"
           id="path6-5"
           inkscape:connector-curvature="0" />
        <rect
           style="fill:#ffcc00;fill-opacity:1;stroke:none;stroke-opacity:1"
           id="rect1714"
           width="15"
           height="15"
           x="6"
           y="3" />
      </g>
      <g
         id="g832">
        <path
           id="path2"
           d="M 2.9492188,12 C 2.4229188,12 2,12.422919 2,12.949219 v 8.101562 C 2,21.577081 2.4229188,22 2.9492188,22 H 13.050781 C 13.577081,22 14,21.577081 14,21.050781 V 12.949219 C 14,12.422919 13.577081,12 13.050781,12 Z M 3,13 h 10 v 8 H 3 Z"
           style="fill:#98989d;fill-opacity:1;stroke:none"
           inkscape:connector-curvature="0" />
        <path
           id="path4"
           d="m 3,13 v 8 h 10 v -8 z"
           style="fill:url(#linearGradient1709);fill-opacity:1;stroke:none"
           inkscape:connector-curvature="0" />
      </g>
      <path
         sodipodi:nodetypes="cccccsssccccscccccccccccccccccccccccc"
         inkscape:connector-curvature="0"
         transform="matrix(1,0,0,-1,0,24)"
         id="rect846"
         d="m 13.847656,13 c -0.303668,0.437095 -0.211811,1.035449 0.208985,1.361328 l 3.332031,2.574219 c 0.65722,0.50748 1.610859,0.03933 1.611328,-0.791016 v -0.291015 c 0.742861,0.398924 1.332031,1.048264 1.332031,2.001953 0,1.368827 -1.048461,2.429687 -2.332031,2.429687 -1.28357,0 -2.332031,-1.060861 -2.332031,-2.429687 v -0.002 C 15.66608,16.854577 14.846117,15.9978 13.830078,16 h -0.002 C 12.815308,16.002625 12.001889,16.85776 12,17.853516 v 0.002 c 0,0.03129 0.0022,0.0675 0.0039,0.101562 v 0.002 C 12.028771,19.510041 12.628727,20.926492 13.589844,22 H 22 V 13.404297 C 21.170048,12.65943 20.142575,12.129564 19,11.923828 V 11 c 7.2e-5,-0.543981 -0.434662,-0.98826 -0.978516,-1 -0.228626,-0.00473 -0.45197,0.06902 -0.632812,0.208984 L 15,12.050781 Z M 21.050781,5 C 21.577081,5 22,5.4229188 22,5.9492188 V 5 Z m -4.007812,8.001953 c 0.07157,0.238702 0.22968,0.442085 0.443359,0.570313 -0.213679,0.128228 -0.371788,0.33161 -0.443359,0.570312 L 16.304688,13.570312 Z M 5,21.050781 V 22 H 5.9492188 C 5.4229188,22 5,21.577081 5,21.050781 Z"
         style="fill:#ffffff;fill-opacity:0.78431374;stroke:none;stroke-opacity:1" />
      <path
         id="path8"
         d="M 18.000047,12.999998 V 11.285154 C 20.762021,11.285154 23,8.984531 23,6.144531 23,3.304532 20.762021,1 18.000047,1 15.266072,1 13.048,3.258594 13.004,6.058593 13.0012,6.087153 13,6.115833 13,6.144533 c 8.96e-4,0.47224 0.372945,0.854772 0.832024,0.855468 0.460603,0.0015 0.835032,-0.38166 0.835928,-0.855468 0,-1.894 1.492018,-3.429687 3.332001,-3.429687 1.839983,0 3.332,1.535687 3.332,3.429687 0,1.894 -1.492017,3.42578 -3.332,3.42578 V 7.855469 L 14.667952,10.429688 17.999953,13 Z"
         style="fill:url(#linearGradient2846);fill-opacity:1"
         inkscape:connector-curvature="0" />
    </g>
  </g>
</svg>
