<svg viewBox="0 0 24 24" xmlns="http://www.w3.org/2000/svg" xmlns:xlink="http://www.w3.org/1999/xlink"><linearGradient id="a" gradientTransform="matrix(-1 0 0 1 24.006224 0)" gradientUnits="userSpaceOnUse" x1="5.575228" x2="5.577728" xlink:href="#c" y1="21.5" y2="15.5"/><linearGradient id="b" gradientUnits="userSpaceOnUse" x1="11" x2="11" xlink:href="#c" y1="22" y2="15"/><linearGradient id="c" gradientTransform="translate(-25.830508 -3.59322)" gradientUnits="userSpaceOnUse" x1="14" x2="13.79661" y1="22" y2="2.135593"><stop offset="0" stop-color="#0040dd"/><stop offset="1" stop-color="#0a84ff"/></linearGradient><linearGradient id="d" gradientUnits="userSpaceOnUse" x1="5.575228" x2="5.577728" xlink:href="#c" y1="21.5" y2="15.5"/><path d="m5 18h14v1h-14z" fill="url(#b)"/><g fill="#4b4b4f" stroke-width=".42256"><path d="m9.1568003 11.201786h-4.6547596l-.9738681 2.797808h-2.1705706l4.539216-12.0165428h1.8734582l4.5474688 12.0165428h-2.178823zm-4.0687881-1.6836364h3.4828166l-1.7414083-4.9848844z"/><path d="m17.294376 11.383355 3.053655-9.4003038h2.294367l-4.324635 12.0165428h-2.022014l-4.308129-12.0165428h2.286114z"/></g><path d="m5.484375 15a.50074744.50074744 0 0 0 -.3398438.146484l-2.9921874 3a.50074744.50074744 0 0 0 0 .707032l2.9921874 3a.50074744.50074744 0 0 0 .8554688-.353516v-6a.50074744.50074744 0 0 0 -.515625-.5z" fill="url(#d)"/><path d="m18.521849 15a.50074744.50074744 0 0 1 .339843.146484l2.992188 3a.50074744.50074744 0 0 1 0 .707032l-2.992188 3a.50074744.50074744 0 0 1 -.855468-.353516v-6a.50074744.50074744 0 0 1 .515625-.5z" fill="url(#a)"/></svg>