<?xml version="1.0" encoding="UTF-8" standalone="no"?>
<svg
   xmlns:dc="http://purl.org/dc/elements/1.1/"
   xmlns:cc="http://creativecommons.org/ns#"
   xmlns:rdf="http://www.w3.org/1999/02/22-rdf-syntax-ns#"
   xmlns:svg="http://www.w3.org/2000/svg"
   xmlns="http://www.w3.org/2000/svg"
   xmlns:sodipodi="http://sodipodi.sourceforge.net/DTD/sodipodi-0.dtd"
   xmlns:inkscape="http://www.inkscape.org/namespaces/inkscape"
   viewBox="0 0 24 24"
   version="1.1"
   id="svg56"
   sodipodi:docname="lc_saveas.svg"
   inkscape:export-filename="/home/rizmut/Documents/Rizmut/Github/libreoffice-style-sukapura/images_sukapura/cmd/lc_saveas.png"
   inkscape:export-xdpi="96"
   inkscape:export-ydpi="96"
   inkscape:version="0.92.3 (2405546, 2018-03-11)">
  <metadata
     id="metadata62">
    <rdf:RDF>
      <cc:Work
         rdf:about="">
        <dc:format>image/svg+xml</dc:format>
        <dc:type
           rdf:resource="http://purl.org/dc/dcmitype/StillImage" />
        <dc:title></dc:title>
      </cc:Work>
    </rdf:RDF>
  </metadata>
  <defs
     id="defs60" />
  <sodipodi:namedview
     pagecolor="#ffffff"
     bordercolor="#666666"
     borderopacity="1"
     objecttolerance="10"
     gridtolerance="10"
     guidetolerance="10"
     inkscape:pageopacity="0"
     inkscape:pageshadow="2"
     inkscape:window-width="1366"
     inkscape:window-height="685"
     id="namedview58"
     showgrid="true"
     inkscape:zoom="19.666667"
     inkscape:cx="15.779778"
     inkscape:cy="11.627614"
     inkscape:window-x="0"
     inkscape:window-y="0"
     inkscape:window-maximized="1"
     inkscape:current-layer="svg56">
    <inkscape:grid
       type="xygrid"
       id="grid946"
       spacingx="0.5"
       spacingy="0.5"
       empspacing="2" />
  </sodipodi:namedview>
  <linearGradient
     id="a"
     gradientUnits="userSpaceOnUse"
     x1="13"
     x2="13"
     y1="21"
     y2="15">
    <stop
       offset="0"
       stop-color="#dadada"
       id="stop2" />
    <stop
       offset=".5"
       stop-color="#fff"
       id="stop4" />
    <stop
       offset="1"
       stop-color="#fff"
       id="stop6" />
  </linearGradient>
  <filter
     id="b"
     color-interpolation-filters="sRGB"
     height="1.082452"
     width="2.278"
     x="-.639"
     y="-.041226">
    <feGaussianBlur
       stdDeviation=".26625"
       id="feGaussianBlur9" />
  </filter>
  <filter
     id="c"
     color-interpolation-filters="sRGB"
     height="1.071"
     width="2.278"
     x="-.639"
     y="-.0355">
    <feGaussianBlur
       stdDeviation=".26625"
       id="feGaussianBlur12" />
  </filter>
  <filter
     id="d"
     color-interpolation-filters="sRGB"
     height="1.168"
     width="1.126"
     x="-.063"
     y="-.084">
    <feGaussianBlur
       stdDeviation=".1575"
       id="feGaussianBlur15" />
  </filter>
  <linearGradient
     id="e"
     gradientUnits="userSpaceOnUse"
     x1="4"
     x2="4"
     y1="18"
     y2="3">
    <stop
       offset="0"
       stop-color="#4f4f4f"
       id="stop18" />
    <stop
       offset=".80000001"
       stop-color="#4f4f4f"
       stop-opacity=".498039"
       id="stop20" />
    <stop
       offset="1"
       stop-color="#b7b7b7"
       id="stop22" />
  </linearGradient>
  <linearGradient
     id="f"
     gradientUnits="userSpaceOnUse"
     x1="21"
     x2="21"
     y1="20"
     y2="3">
    <stop
       offset="0"
       stop-color="#4f4f4f"
       id="stop25" />
    <stop
       offset=".88235295"
       stop-color="#4f4f4f"
       stop-opacity=".498039"
       id="stop27" />
    <stop
       offset="1"
       stop-color="#b7b7b7"
       id="stop29" />
  </linearGradient>
  <g
     id="g981">
    <g
       id="g916">
      <path
         d="m4 2h17c.554 0 1 .446 1 1v18c0 .554-.446 1-1 1h-15l-3-4v-15c0-.554.446-1 1-1z"
         id="path32"
         fill="#3e3e3e" />
      <g
         id="g38"
         fill="#fff">
        <rect
           height="8"
           ry=".46741"
           width="13"
           x="6"
           y="3"
           id="rect34" />
        <path
           d="m8 15c-.554 0-1 .446-1 1v4c0 .554.446 1 1 1h2v-5h2v5h5c.554 0 1-.446 1-1v-4c0-.554-.446-1-1-1z"
           id="path36"
           fill="url(#a)" />
      </g>
      <rect
         height="15.5"
         rx=".351695"
         width="1"
         x="3.5"
         y="3"
         id="rect40"
         filter="url(#b)"
         fill="url(#e)" />
      <path
         d="m10 16h2v.5h-2z"
         id="path42"
         fill="#2a2a2a" />
      <path
         d="m20 3h1v18h-1z"
         id="path44"
         filter="url(#c)"
         fill="url(#f)" />
      <path
         d="m4.5 12h15.5v4.5c-.332428-1.585337-1.430373-1.690577-3-2.5h-12.5z"
         id="path46"
         filter="url(#d)"
         fill="#3b3b3b" />
      <path
         d="m8 3h9v1h-9z"
         id="path48"
         fill="#0a84ff" />
      <g
         id="g54"
         fill="#bababa">
        <path
           d="m8 6h9v1h-9z"
           id="path50" />
        <path
           d="m8 8h9v1h-9z"
           id="path52" />
      </g>
    </g>
    <g
       id="g941"
       transform="translate(-1.6025969,-1.200058)"
       style="fill:#eac282">
      <path
         sodipodi:nodetypes="cccc"
         style="fill:#a2a2a7;fill-opacity:1;stroke:#848489;stroke-opacity:1"
         id="path925"
         transform="translate(1,1)"
         d="M 11.794252,19.654584 11,23 13.979799,22.04521 Z"
         inkscape:connector-curvature="0" />
      <path
         sodipodi:nodetypes="sccccccs"
         id="path927"
         d="m 21.527817,11.706205 c -0.189562,0 -0.378184,0.07172 -0.523438,0.216797 l -1.673828,1.669922 2.847656,2.849609 1.710938,-1.638672 c 0.290506,-0.290127 0.290506,-0.756747 0,-1.046875 l -1.835938,-1.833984 c -0.145254,-0.145064 -0.335828,-0.216797 -0.52539,-0.216797 z"
         inkscape:connector-curvature="0"
         style="fill:#e68497;stroke:#b6496c" />
      <path
         sodipodi:nodetypes="cccccc"
         id="path929"
         transform="translate(1,1)"
         d="m 17.588364,13.317533 -5.439453,5.433594 c 0.648096,0.793958 1.89093,2.102781 2.714843,2.957031 l 0.05078,-0.01367 5.509765,-5.544922 z"
         inkscape:connector-curvature="0"
         style="fill:#ffcc00;stroke:#c89e00" />
      <path
         sodipodi:nodetypes="ccccc"
         id="path931"
         d="m 21.093491,16.135775 -1.284233,-1.373643 -6.299585,6.125687 1.263119,1.338035 z"
         inkscape:connector-curvature="0"
         style="fill:#ffe014" />
      <path
         sodipodi:nodetypes="ccc"
         id="path933"
         d="m 20.379082,13.977391 1.118644,-1.067797 1.703389,1.677967"
         style="fill:none;stroke:#f398b3"
         inkscape:connector-curvature="0" />
    </g>
  </g>
</svg>
