<?xml version="1.0" encoding="UTF-8" standalone="no"?>
<svg
   xmlns:dc="http://purl.org/dc/elements/1.1/"
   xmlns:cc="http://creativecommons.org/ns#"
   xmlns:rdf="http://www.w3.org/1999/02/22-rdf-syntax-ns#"
   xmlns:svg="http://www.w3.org/2000/svg"
   xmlns="http://www.w3.org/2000/svg"
   xmlns:xlink="http://www.w3.org/1999/xlink"
   xmlns:sodipodi="http://sodipodi.sourceforge.net/DTD/sodipodi-0.dtd"
   xmlns:inkscape="http://www.inkscape.org/namespaces/inkscape"
   viewBox="0 0 24 24"
   version="1.1"
   id="svg8"
   sodipodi:docname="lc_symbolshapes.sun.svg"
   inkscape:version="0.92.3 (2405546, 2018-03-11)">
  <metadata
     id="metadata14">
    <rdf:RDF>
      <cc:Work
         rdf:about="">
        <dc:format>image/svg+xml</dc:format>
        <dc:type
           rdf:resource="http://purl.org/dc/dcmitype/StillImage" />
        <dc:title></dc:title>
      </cc:Work>
    </rdf:RDF>
  </metadata>
  <defs
     id="defs12">
    <linearGradient
       gradientTransform="translate(-37.423729,-13.830508)"
       id="a"
       gradientUnits="userSpaceOnUse"
       x1="12"
       x2="12"
       y1="21.5"
       y2="2.5">
      <stop
         offset="0"
         stop-color="#e5eefc"
         id="stop2" />
      <stop
         offset="1"
         stop-color="#fcfdff"
         id="stop4" />
    </linearGradient>
    <linearGradient
       inkscape:collect="always"
       xlink:href="#a"
       id="linearGradient839"
       x1="11.026914"
       y1="16.746004"
       x2="11.031539"
       y2="7.6135411"
       gradientUnits="userSpaceOnUse" />
    <linearGradient
       inkscape:collect="always"
       xlink:href="#a"
       id="linearGradient841"
       x1="2.0000618"
       y1="12"
       x2="21.999937"
       y2="12"
       gradientUnits="userSpaceOnUse" />
  </defs>
  <sodipodi:namedview
     pagecolor="#ffffff"
     bordercolor="#666666"
     borderopacity="1"
     objecttolerance="10"
     gridtolerance="10"
     guidetolerance="10"
     inkscape:pageopacity="0"
     inkscape:pageshadow="2"
     inkscape:window-width="1366"
     inkscape:window-height="716"
     id="namedview10"
     showgrid="false"
     inkscape:zoom="6.9532167"
     inkscape:cx="3.5445925"
     inkscape:cy="4.6963168"
     inkscape:window-x="-8"
     inkscape:window-y="-8"
     inkscape:window-maximized="1"
     inkscape:current-layer="svg8" />
  <g
     fill="#fff"
     stroke="#808080"
     stroke-linecap="round"
     stroke-linejoin="round"
     id="g6">
    <path
       d="m12 2.5-1.603516 3.2050781a6.5 6.5 0 0 1 1.603516-.2050781 6.5 6.5 0 0 1 1.605469.2089844zm-6.7167969 2.7832031 1.1269531 3.4121094a6.5 6.5 0 0 1 2.2871094-2.2851563zm13.4335939 0-3.412109 1.1269531a6.5 6.5 0 0 1 2.285156 2.2871094zm-13.0078126 5.1113279-3.2089844 1.605469 3.2050781 1.603516a6.5 6.5 0 0 1 -.2050781-1.603516 6.5 6.5 0 0 1 .2089844-1.605469zm12.5859376.001953a6.5 6.5 0 0 1 .205078 1.603516 6.5 6.5 0 0 1 -.208984 1.605469l3.208984-1.605469zm-11.8847658 4.90625-1.1269531 3.414063 3.4121094-1.126953a6.5 6.5 0 0 1 -2.2851563-2.28711zm11.1796878.001954a6.5 6.5 0 0 1 -2.28711 2.285156l3.414063 1.126953zm-7.195313 2.986328 1.605469 3.208984 1.603516-3.205078a6.5 6.5 0 0 1 -1.603516.205078 6.5 6.5 0 0 1 -1.605469-.208984z"
       id="path2"
       style="stroke:#0a84ff;stroke-opacity:1;fill-opacity:1.0;fill:url(#linearGradient841)" />
    <ellipse
       cx="12"
       cy="12"
       id="circle4"
       style="stroke:#0a84ff;stroke-opacity:1;fill-opacity:1;fill:url(#linearGradient839)"
       r="4.5" />
  </g>
</svg>
