<?xml version="1.0" encoding="UTF-8" standalone="no"?>
<svg
   xmlns:dc="http://purl.org/dc/elements/1.1/"
   xmlns:cc="http://creativecommons.org/ns#"
   xmlns:rdf="http://www.w3.org/1999/02/22-rdf-syntax-ns#"
   xmlns:svg="http://www.w3.org/2000/svg"
   xmlns="http://www.w3.org/2000/svg"
   xmlns:sodipodi="http://sodipodi.sourceforge.net/DTD/sodipodi-0.dtd"
   xmlns:inkscape="http://www.inkscape.org/namespaces/inkscape"
   viewBox="0 0 24 24"
   version="1.1"
   id="svg10"
   sodipodi:docname="lc_searchdialog.svg"
   inkscape:version="0.92.3 (2405546, 2018-03-11)"
   inkscape:export-filename="/home/rizmut/Documents/Rizmut/Github/libreoffice-style-sukapura/images_sukapura/cmd/lc_searchdialog.png"
   inkscape:export-xdpi="96"
   inkscape:export-ydpi="96">
  <metadata
     id="metadata16">
    <rdf:RDF>
      <cc:Work
         rdf:about="">
        <dc:format>image/svg+xml</dc:format>
        <dc:type
           rdf:resource="http://purl.org/dc/dcmitype/StillImage" />
      </cc:Work>
    </rdf:RDF>
  </metadata>
  <defs
     id="defs14" />
  <sodipodi:namedview
     pagecolor="#ffffff"
     bordercolor="#666666"
     borderopacity="1"
     objecttolerance="10"
     gridtolerance="10"
     guidetolerance="10"
     inkscape:pageopacity="0"
     inkscape:pageshadow="2"
     inkscape:window-width="1366"
     inkscape:window-height="692"
     id="namedview12"
     showgrid="true"
     inkscape:zoom="27.812867"
     inkscape:cx="19.852988"
     inkscape:cy="12.525931"
     inkscape:window-x="0"
     inkscape:window-y="0"
     inkscape:window-maximized="1"
     inkscape:current-layer="g1477">
    <inkscape:grid
       type="xygrid"
       id="grid1468" />
  </sodipodi:namedview>
  <g
     id="g1477"
     transform="translate(-1)">
    <path
       sodipodi:nodetypes="scccccccsscccs"
       inkscape:connector-curvature="0"
       style="fill:#69696e;fill-opacity:1"
       id="path2"
       d="M 14.5,2 C 10.357864,2 7,5.3578644 7,9.5 c 0.00203,1.642863 0.5434283,3.239616 1.5410156,4.544922 l 1.4160156,1.412109 c 1.2261298,0.937159 2.7120968,1.456598 4.2499998,1.519531 0.03035,-0.120042 0.04591,-0.247053 0.08399,-0.363281 0.190232,-0.605163 0.478978,-1.154831 0.875,-1.613281 0.361654,-0.418669 0.809328,-0.751293 1.308593,-0.990234 V 10.5 c 0,-0.277 0.223,-0.5 0.5,-0.5 h 4.384766 0.609375 C 21.984735,9.8337748 21.995154,9.6669682 22,9.5 22,5.3578644 18.642136,2 14.5,2 Z" />
    <path
       id="path4"
       d="M 14.5,4 A 5.5,5.5 0 0 0 9,9.5 a 5.5,5.5 0 0 0 5.5,5.5 5.5,5.5 0 0 0 0.716797,-0.05273 c 0.385301,-0.429737 0.857361,-0.772821 1.388672,-1.003907 A 1.0001,1.0001 0 0 1 16.75,13.894531 c 0.40752,-0.107322 0.818932,-0.137873 1.230469,-0.138672 A 5.5,5.5 0 0 0 20,9.5 5.5,5.5 0 0 0 14.5,4 Z"
       inkscape:connector-curvature="0"
       style="fill:#ffffff" />
    <rect
       transform="rotate(45)"
       inkscape:transform-center-y="5.2853223"
       inkscape:transform-center-x="8.7369644"
       ry="1"
       rx="1"
       y="2.5429883"
       x="15.841788"
       height="9"
       width="3"
       id="rect1470"
       style="opacity:1;fill:#616165;fill-opacity:1;stroke:none;stroke-width:1;stroke-linecap:round;stroke-linejoin:round;stroke-miterlimit:4;stroke-dasharray:none;stroke-opacity:1" />
    <g
       aria-label="a"
       style="font-style:normal;font-weight:normal;font-size:16.44413185px;line-height:1.25;font-family:sans-serif;letter-spacing:0px;word-spacing:0px;fill:#69696e;fill-opacity:1;stroke:none;stroke-width:0.41110331"
       id="text820">
      <path
         d="m 16.470243,13.830964 q -0.12847,-0.256939 -0.208763,-0.915347 -1.035788,1.075934 -2.473044,1.075934 -1.284697,0 -2.111722,-0.722642 -0.818994,-0.730672 -0.818994,-1.846753 0,-1.356962 1.027758,-2.1036929 1.035787,-0.75476 2.906629,-0.75476 h 1.445285 V 7.8812074 q 0,-0.778848 -0.465703,-1.2365216 -0.465703,-0.465703 -1.373021,-0.465703 -0.794907,0 -1.332874,0.4014681 -0.537967,0.401468 -0.537967,0.9715527 h -1.493462 q 0,-0.6503783 0.457674,-1.2525804 0.465703,-0.6102314 1.25258,-0.9635233 0.794907,-0.3532919 1.742372,-0.3532919 1.50149,0 2.352603,0.7547599 0.851112,0.7467306 0.883229,2.0635459 v 3.9986222 q 0,1.196375 0.305116,1.902958 v 0.12847 z m -2.465014,-1.13214 q 0.698555,0 1.324845,-0.361321 0.62629,-0.361321 0.907318,-0.939435 V 9.6155494 h -1.164258 q -2.729983,0 -2.729983,1.5978426 0,0.698555 0.465703,1.091993 0.465703,0.393439 1.196375,0.393439 z"
         style="font-style:normal;font-variant:normal;font-weight:normal;font-stretch:normal;font-family:Roboto;-inkscape-font-specification:Roboto;fill:#69696e;fill-opacity:1;stroke-width:0.41110331"
         id="path852" />
    </g>
    <g
       aria-label="d"
       style="font-style:normal;font-weight:normal;font-size:16.44413185px;line-height:1.25;font-family:sans-serif;letter-spacing:0px;word-spacing:0px;fill:#0a84ff;fill-opacity:1;stroke:none;stroke-width:0.41110331"
       id="text850">
      <path
         d="m 15.626665,18.767754 q 0,-1.999311 0.947464,-3.211744 0.947465,-1.220463 2.481073,-1.220463 1.525579,0 2.416838,1.043817 v -4.52856 h 1.485432 V 23.183903 H 21.59248 l -0.07226,-0.931406 q -0.891259,1.091993 -2.481073,1.091993 -1.50952,0 -2.465014,-1.236522 -0.947464,-1.236521 -0.947464,-3.227803 z m 1.485432,0.168617 q 0,1.477402 0.610231,2.312456 0.610231,0.835053 1.686166,0.835053 1.413167,0 2.063546,-1.268639 v -3.990592 q -0.666437,-1.228493 -2.047487,-1.228493 -1.091994,0 -1.702225,0.843083 -0.610231,0.843083 -0.610231,2.497132 z"
         style="font-style:normal;font-variant:normal;font-weight:normal;font-stretch:normal;font-family:Roboto;-inkscape-font-specification:Roboto;fill:#0a84ff;fill-opacity:1;stroke-width:0.41110331"
         id="path855" />
    </g>
  </g>
</svg>
