<svg viewBox="0 0 24 24" xmlns="http://www.w3.org/2000/svg" xmlns:xlink="http://www.w3.org/1999/xlink"><linearGradient id="a" gradientTransform="matrix(1 0 0 -1 0 7.999941)" gradientUnits="userSpaceOnUse" x1="19.492188" x2="19.5" y1="2" y2="5.999941"><stop offset="0" stop-color="#0040dd"/><stop offset="1" stop-color="#0a84ff"/></linearGradient><path d="m13.895704 22.53517v-13.54185h4.64106c1.531519 0 2.697209.3069238 3.497071.9207714s1.199793 1.5284186 1.199793 2.7437126c0 .620048-.167413 1.483429-.502239 1.979468-.334826.496038-.824664.880468-1.469514 1.153289.731657.198415 1.2959.573544 1.692731 1.125387.403031.545643.604547.897556.604547 1.666415 0 1.271099-.409232 2.247674-1.227695 2.929727-.812263.682053-1.977953 1.02308-3.497071 1.02308zm2.104296-5.53517v3.656424h2.862289c.737857 0 1.314502-.182914 1.729934-.548743.415432-.365828.727088-.882618.623148-1.525318-.227628-1.407509-1.234027-1.55136-2.157767-1.582363zm0-2h2.555365c.731657 0 1.302101-.164313 1.711333-.492938.415432-.334826.623148-1.111401.623148-1.719048 0-.669652-.192215-1.043956-.576644-1.341579-.378229-.297623-.970375-.446435-1.776438-.446435h-2.536764z" fill="#4b4b4f" stroke-width=".476197"/><text style="font-size:22.464996;font-family:sans-serif;letter-spacing:0;word-spacing:0;fill:#4b4b4f;stroke-width:.561625" transform="scale(.91235989 1.0960587)" x="-.121989" y="20.531673"><tspan fill="#4b4b4f" font-family="Roboto" font-weight="500" stroke-width=".561625" x="-.121989" y="20.531673">A</tspan></text><path d="m19.492188 5.9999414a.50005.50005 0 0 1 -.345704-.1464844l-3-3a.50005.50005 0 0 1 .353516-.8535156h6a.50005.50005 0 0 1 .353516.8535156l-3 3a.50005.50005 0 0 1 -.361328.1464844z" fill="url(#a)"/></svg>