<?xml version="1.0" encoding="UTF-8" standalone="no"?>
<svg
   xmlns:dc="http://purl.org/dc/elements/1.1/"
   xmlns:cc="http://creativecommons.org/ns#"
   xmlns:rdf="http://www.w3.org/1999/02/22-rdf-syntax-ns#"
   xmlns:svg="http://www.w3.org/2000/svg"
   xmlns="http://www.w3.org/2000/svg"
   xmlns:xlink="http://www.w3.org/1999/xlink"
   xmlns:sodipodi="http://sodipodi.sourceforge.net/DTD/sodipodi-0.dtd"
   xmlns:inkscape="http://www.inkscape.org/namespaces/inkscape"
   viewBox="0 0 24 24"
   version="1.1"
   id="svg4"
   sodipodi:docname="lc_starshapes.signet.svg"
   inkscape:version="0.92.3 (2405546, 2018-03-11)">
  <metadata
     id="metadata10">
    <rdf:RDF>
      <cc:Work
         rdf:about="">
        <dc:format>image/svg+xml</dc:format>
        <dc:type
           rdf:resource="http://purl.org/dc/dcmitype/StillImage" />
        <dc:title></dc:title>
      </cc:Work>
    </rdf:RDF>
  </metadata>
  <defs
     id="defs8">
    <linearGradient
       gradientTransform="translate(-21.355932,-21.355932)"
       id="a"
       gradientUnits="userSpaceOnUse"
       x1="12"
       x2="12"
       y1="21.5"
       y2="2.5">
      <stop
         offset="0"
         stop-color="#e5eefc"
         id="stop1020" />
      <stop
         offset="1"
         stop-color="#fcfdff"
         id="stop1022" />
    </linearGradient>
    <linearGradient
       inkscape:collect="always"
       xlink:href="#a"
       id="linearGradient835"
       x1="10.644436"
       y1="21.360544"
       x2="11.40625"
       y2="2.5058594"
       gradientUnits="userSpaceOnUse" />
  </defs>
  <sodipodi:namedview
     pagecolor="#ffffff"
     bordercolor="#666666"
     borderopacity="1"
     objecttolerance="10"
     gridtolerance="10"
     guidetolerance="10"
     inkscape:pageopacity="0"
     inkscape:pageshadow="2"
     inkscape:window-width="1366"
     inkscape:window-height="716"
     id="namedview6"
     showgrid="false"
     inkscape:zoom="9.8333333"
     inkscape:cx="-2.4915254"
     inkscape:cy="12"
     inkscape:window-x="-8"
     inkscape:window-y="-8"
     inkscape:window-maximized="1"
     inkscape:current-layer="svg4" />
  <path
     d="m11.40625 2.5058594c-1.230619 0-1.4743852 2.1000144-2.6113281 2.5625-1.1362354.4621354-2.8198158-.8540349-3.6894531 0-.8696375.8540346.4706438 2.5072016 0 3.6230468-.4709381 1.1163121-2.6093751 1.3558538-2.609375 2.5644528 0 1.208599 2.1384369 1.445955 2.609375 2.5625.4706438 1.115612-.8696375 2.769012 0 3.623047.8696372.853919 2.5532177-.462252 3.6894531 0 1.1369429.462369 1.3807091 2.564453 2.6113281 2.564453 1.230618 0 1.474385-2.102084 2.611328-2.564453.02178-.02139.074248-.053398.105469-.017578l3.818359 3.748047 1.1875-2.332031 2.376953-1.167969c.01523-.03225-2.265258-1.658867-3.832031-2.822266-.06601-.364375-.097337-.721608.033203-1.03125.471035-1.116545 2.609375-1.353901 2.609375-2.5625s-2.138439-1.4481408-2.609375-2.5644528c-.470643-1.1158453.869636-2.7690122 0-3.6230468-.869637-.8540349-2.553217.4621354-3.689453 0-1.136942-.4624856-1.38071-2.5625-2.611328-2.5625zm0 4.6660156c2.296562 0 4.158203 1.8287301 4.158203 4.083984 0 2.255255-1.861641 4.083985-4.158203 4.083985-2.2965622 0-4.1582031-1.82873-4.1582031-4.083985 0-2.2552539 1.8616409-4.083984 4.1582031-4.083984z"
     fill="#fff"
     stroke="#808080"
     stroke-width=".991452"
     id="path2"
     style="fill-opacity:1;fill:url(#linearGradient835);stroke:#0a84ff;stroke-opacity:1" />
</svg>
