<?xml version="1.0" encoding="UTF-8" standalone="no"?>
<svg
   xmlns:dc="http://purl.org/dc/elements/1.1/"
   xmlns:cc="http://creativecommons.org/ns#"
   xmlns:rdf="http://www.w3.org/1999/02/22-rdf-syntax-ns#"
   xmlns:svg="http://www.w3.org/2000/svg"
   xmlns="http://www.w3.org/2000/svg"
   xmlns:xlink="http://www.w3.org/1999/xlink"
   xmlns:sodipodi="http://sodipodi.sourceforge.net/DTD/sodipodi-0.dtd"
   xmlns:inkscape="http://www.inkscape.org/namespaces/inkscape"
   viewBox="0 0 24 24"
   version="1.1"
   id="svg3254"
   sodipodi:docname="lc_styleupdatebyexample.svg"
   inkscape:version="0.92.3 (2405546, 2018-03-11)">
  <metadata
     id="metadata3260">
    <rdf:RDF>
      <cc:Work
         rdf:about="">
        <dc:format>image/svg+xml</dc:format>
        <dc:type
           rdf:resource="http://purl.org/dc/dcmitype/StillImage" />
      </cc:Work>
    </rdf:RDF>
  </metadata>
  <defs
     id="defs3258" />
  <sodipodi:namedview
     pagecolor="#ffffff"
     bordercolor="#666666"
     borderopacity="1"
     objecttolerance="10"
     gridtolerance="10"
     guidetolerance="10"
     inkscape:pageopacity="0"
     inkscape:pageshadow="2"
     inkscape:window-width="1366"
     inkscape:window-height="716"
     id="namedview3256"
     showgrid="false"
     inkscape:zoom="9.8333333"
     inkscape:cx="-6.0639631"
     inkscape:cy="5.1779218"
     inkscape:window-x="-8"
     inkscape:window-y="-8"
     inkscape:window-maximized="1"
     inkscape:current-layer="svg3254" />
  <linearGradient
     id="a"
     gradientTransform="translate(27 -7)"
     gradientUnits="userSpaceOnUse"
     x1="14"
     x2="13.79661"
     y1="22"
     y2="2.135593">
    <stop
       offset="0"
       stop-color="#0040dd"
       id="stop3212" />
    <stop
       offset="1"
       stop-color="#0a84ff"
       id="stop3214" />
  </linearGradient>
  <linearGradient
     id="b"
     gradientUnits="userSpaceOnUse"
     x1="22"
     x2="14"
     xlink:href="#a"
     y1="9"
     y2="-1" />
  <linearGradient
     id="c"
     gradientUnits="userSpaceOnUse"
     x1="12.582002"
     x2="19"
     xlink:href="#a"
     y1="5.361473"
     y2="12" />
  <filter
     id="d"
     color-interpolation-filters="sRGB"
     height="1.135959"
     width="1.153052"
     x="-.076526"
     y="-.067979">
    <feGaussianBlur
       stdDeviation=".44180839"
       id="feGaussianBlur3219" />
  </filter>
  <radialGradient
     id="e"
     cx="55.498295"
     cy="20.746534"
     gradientTransform="matrix(1 0 0 .72181261 0 7.10169)"
     gradientUnits="userSpaceOnUse"
     r="10.03901">
    <stop
       offset="0"
       stop-color="#ffc765"
       id="stop3222" />
    <stop
       offset="1"
       stop-color="#ffa914"
       id="stop3224" />
  </radialGradient>
  <radialGradient
     id="f"
     cx="55.441967"
     cy="22.525862"
     gradientTransform="matrix(1.2258064 0 0 1.0478667 -12.519154 -1.07824)"
     gradientUnits="userSpaceOnUse"
     r="2.229184">
    <stop
       offset="0"
       stop-color="#ffe9c3"
       id="stop3227" />
    <stop
       offset="1"
       stop-color="#ffe9c3"
       stop-opacity="0"
       id="stop3229" />
  </radialGradient>
  <path
     inkscape:connector-curvature="0"
     d="M 11.723339,14.263736 H 5.7766616 L 4.5664607,18 H 2 L 7.5815302,2 H 9.9810664 L 15.5,18 H 12.923107 Z M 6.5069553,12.032967 H 11.003478 L 8.8021637,5.1978022 h -0.062598 z"
     style="font-style:normal;font-variant:normal;font-weight:500;font-stretch:normal;font-size:25.3161602px;line-height:1.25;font-family:Roboto;-inkscape-font-specification:'Roboto Medium';letter-spacing:0px;word-spacing:0px;fill:#4b4b4f;fill-opacity:1;stroke:none;stroke-width:0.54821259"
     id="path15704" />
  <g
     transform="matrix(.66847283 0 0 .66847283 -26.031719 2.090803)"
     id="g3244">
    <path
       d="m57.661017 18.305085 12.20339-12.0000003 1.118644-1.0169491c.535947-.4093238 1.138074-.6755092 2.338983-.6101695l.813559.6101695c.306849.6596707.152068 1.3286734.101695 2.0338983l-11.694915 16.7796611z"
       fill="#d6d6d6"
       stroke="#98989d"
       stroke-width="1.495947"
       id="path3234" />
    <path
       d="m59.389831 19.322034 12.813559-13.1186442.686441-.5338983.355932.3305085-12.122973 15.267452z"
       fill="#f9f9f9"
       filter="url(#d)"
       id="path3236" />
    <path
       d="m54.915254 19.525424c-2.355192 1.12312-2.986044 2.645733-4.067796 4.881356-1.280902 3.099136-3.365034 4.179849-6 5.898305 4.002224 2.208107 12.344829 3.382311 15.355932-1.016949 1.803572-2.317145 5.097789-5.637418 1.932203-8.237289-2.997587-2.267403-4.004437-2.954713-7.220339-1.525423z"
       fill="url(#e)"
       stroke="#f58b00"
       stroke-width="1.495947"
       id="path3238" />
    <path
       d="m49.395592 26.820763c-1.20494 1.428749-2.746668 2.309185-4.547936 3.483925 4.002224 2.208106 12.344366 3.383635 15.355469-1.015626-2.950168-3.198325-8.750083-1.802762-10.807533-2.468299z"
       fill="#0a84ff"
       stroke="#0040dd"
       stroke-width="1.495947"
       id="path3240" />
    <ellipse
       cx="55.441967"
       cy="22.525862"
       fill="url(#f)"
       rx="2.732548"
       ry="2.335888"
       id="ellipse3242" />
  </g>
  <path
     d="m 17.199219,9.0097656 -0.06445,0.091797 -3.314454,2.9707035 -1.027741,-1.673564 c -0.330475,0.219014 0.0079,-0.0053 0,0 -0.325061,0.217649 -0.326746,0.25824 -0.61093,0.527079 -0.199575,0.18896 -0.312592,0.451724 -0.3125,0.726563 v 0.04687 c -0.09507,0.0127 -0.187815,0.03901 -0.275391,0.07813 l 0.09766,0.28125 h -0.464844 c -0.02079,0.02507 -0.04035,0.05114 -0.05859,0.07813 -0.175075,0.263285 -0.320033,0.530123 -0.447266,0.787109 -6.54e-4,0.0013 -0.0013,0.0026 -0.002,0.0039 -0.02733,0.05585 -0.05424,0.111412 -0.08008,0.167969 -0.07828,0.169463 -0.491167,0.982505 -0.559864,1.168033 h 1.644531 l -0.434277,0.07611 -1.185546,0.492187 c -0.01843,0.109686 -0.03539,0.21979 -0.04883,0.330078 -0.02383,0.193965 -0.03183,0.368103 -0.03906,0.523438 v -0.02734 c -0.0076,0.103922 -0.01262,0.208341 -0.01563,0.3125 -1.43e-4,0.0098 -1.43e-4,0.01953 0,0.0293 0,1.832596 0.75494,3.653379 2.050781,4.949219 0.633699,0.633699 1.393986,1.13637 2.21875,1.486328 l 1.345703,-1.638672 c -0.0077,-3.78e-4 -0.111847,-0.03018 -0.07031,-0.01758 0.281498,0.08545 -0.732704,-0.278645 -0.460938,-0.166016 0.271766,0.112631 -0.702775,-0.347714 -0.443359,-0.208984 0.259416,0.138728 -0.664488,-0.415444 -0.419922,-0.251953 0.244567,0.163492 -0.621893,-0.479649 -0.394531,-0.292969 0.227361,0.186679 -0.571248,-0.538147 -0.363281,-0.330078 0.207966,0.208068 -0.516645,-0.590733 -0.330079,-0.363281 0.18657,0.227452 -0.454387,-0.639178 -0.291015,-0.394532 0.163371,0.244646 -0.390555,-0.679404 -0.251953,-0.419922 0.138601,0.259486 -0.323435,-0.71518 -0.210938,-0.443359 0.112497,0.271821 -0.24937,-0.742477 -0.164062,-0.460937 0.08531,0.281539 -0.176439,-0.765109 -0.119141,-0.476563 0.0573,0.288547 -0.101007,-0.777149 -0.07226,-0.484375 0.0094,0.09565 -0.0046,-0.05895 -0.0078,-0.160156 0.01101,-0.119732 0.02192,-0.384058 0.0293,-0.644531 0.01355,-0.125731 0.01972,-0.18619 0.03125,-0.3125 0.02069,-0.120234 0.02983,-0.176991 0.04883,-0.298829 0.03376,-0.141669 0.04993,-0.217109 0.08008,-0.355468 l 0.140625,-0.109375 c 0.0843,0.05162 0.175792,0.09045 0.271485,0.115234 v 0.002 c 0.0013,3e-6 0.0026,3e-6 0.0039,0 0.03092,0.008 0.06221,0.01452 0.09375,0.01953 0.0104,0.0015 0.02081,0.0028 0.03125,0.0039 L 13,15 v -0.246094 h 0.689453 L 13,13.455078 v -0.441406 c 0.134934,-0.168475 0.107187,-0.140546 0.144531,-0.189453 l 0.002,-0.002 c 0.03666,-0.01837 0.373312,-0.355983 0.529297,-0.525391 0.05038,-0.03709 0.108567,-0.08073 0.177735,-0.134766 l -0.002,-0.0039 c 0.108148,-0.08433 0.220756,-0.170441 0.302735,-0.240234 0.150408,-0.08523 0.377238,-0.223444 0.517578,-0.316407 0.157911,-0.06546 0.393073,-0.172675 0.544922,-0.248046 0.163174,-0.04494 0.416303,-0.124689 0.578125,-0.181641 0.170047,-0.02547 0.438189,-0.07437 0.603516,-0.111328 0.233885,-0.0065 0.709256,-0.03777 0.740234,-0.05274 0.192683,0.01355 0.555252,0.036 0.347656,0.01563 -0.292774,-0.02874 0.772922,0.129568 0.484375,0.07226 -0.288546,-0.0573 0.758102,0.204449 0.476563,0.119141 -0.28154,-0.08531 0.732758,0.276559 0.460937,0.164062 -0.271821,-0.112497 0.702844,0.349539 0.443359,0.210938 -0.259482,-0.138602 0.664569,0.415324 0.419922,0.251953 -0.244646,-0.163372 0.621984,0.477584 0.394532,0.291015 -0.12432,-0.101971 0.04234,0.0383 0.199218,0.179688 l 1.16211,-1.648438 c -0.02004,-0.01779 -0.02182,-0.02211 -0.04687,-0.04297 -0.0039,-0.0026 -0.0078,-0.0052 -0.01172,-0.0078 -0.105407,-0.08544 -0.212071,-0.166925 -0.322266,-0.246093 l -0.01172,-0.0078 c -0.04012,-0.02998 -0.101397,-0.07924 -0.197266,-0.144531 -0.0019,-0.0013 -0.0039,-0.0026 -0.0059,-0.0039 -0.153542,-0.103025 -0.311442,-0.20047 -0.472657,-0.2910161 l -0.0059,-0.00391 c 0.02913,0.015987 -0.0092,-0.00946 -0.07813,-0.048828 l -0.01758,-0.00977 c -0.0058,-0.00331 -0.01169,-0.00657 -0.01758,-0.00977 C 19.935101,9.6278965 19.508428,9.4485794 19.068359,9.3125 18.851752,9.2456751 18.632224,9.1880778 18.410156,9.1425781 h -0.002 c -1.2e-5,-2.5e-6 -0.0056,2.96e-5 -0.0059,0 h -0.002 c -0.002,-4.053e-4 -0.0039,-0.00155 -0.0059,-0.00195 -0.191158,-0.038765 -0.384297,-0.067231 -0.578125,-0.089844 l -0.04102,-0.00586 c -0.0067,-9.756e-4 -0.01287,-0.00295 -0.01953,-0.00391 -0.01429,-0.00161 -0.02862,-0.00291 -0.04297,-0.00391 -0.03261,-0.00331 -0.06872,-0.00311 -0.101563,-0.00586 -0.135596,-0.011868 -0.274106,-0.016183 -0.412109,-0.021484 z"
     id="path3246"
     inkscape:connector-curvature="0"
     style="fill:#ffffff;fill-opacity:0.78431396"
     sodipodi:nodetypes="ccccccccccccccccccccccccscccccssscccscccccccccccccccccccccccccccccccccscccccccccccccccccccccccccccc" />
  <g
     transform="translate(0 9)"
     id="g3252">
    <path
       d="m17 1c-.278017 0-.550248.025655-.818359.0625a6 6 0 0 0 -.15625.019531c-.260623.042815-.513416.1044141-.761719.1796876a6 6 0 0 0 -.195313.066406c-.208064.071031-.412224.1517256-.609375.2441406a6 6 0 0 0 -.142578.0625c-.230295.1152879-.44981.2481044-.662109.390625a6 6 0 0 0 -.785156.6269532v2.1015624h.820312a3.9966359 3.9966359 0 0 1 3.306641-1.7539058 3.9966359 3.9966359 0 0 1 3.998047 3.9960938 3.9966359 3.9966359 0 0 1 -.134766 1.0039062h1.140625v2.308594a6 6 0 0 0 .109375-.177735c.07907-.128745.155055-.2597304.224609-.3945309a6 6 0 0 0 .150391-.3164062c.05619-.1264208.104777-.2559424.152344-.3867188a6 6 0 0 0 .171875-.5566406c.03105-.121303.06051-.2430596.08398-.3671875a6 6 0 0 0 .0625-.4082031c.01505-.1280373.02257-.258267.0293-.3886719a6 6 0 0 0 .015626-.3125 6 6 0 0 0 -.648438-2.7128906c-.0013-.00259-.0026-.00523-.0039-.00781a6 6 0 0 0 -.002-.00391 6 6 0 0 0 -.275391-.4785156c-.008-.012514-.01344-.026611-.02148-.039063a6 6 0 0 0 -.0078-.011719 6 6 0 0 0 -.3125-.4355469c-.01036-.013218-.01882-.027886-.0293-.041016a6 6 0 0 0 -.0078-.00977 6 6 0 0 0 -.30664-.3476562c-.03435-.036718-.06631-.075479-.101563-.1113282a6 6 0 0 0 -.267578-.25c-.058794-.0529857-.114892-.1094766-.175766-.1601495a6 6 0 0 0 -.28711-.21875c-.059304-.0436512-.116801-.0893589-.177734-.1308594a6 6 0 0 0 -.410156-.2519531c-.03011-.017152-.05746-.038044-.08789-.054687a6 6 0 0 0 -.01367-.00781 6 6 0 0 0 -1.089843-.4589844 6 6 0 0 0 -.564454-.1445312c-.0019-.000385-.004.0003832-.0059 0-.176343-.035978-.355582-.063861-.537109-.083984a6 6 0 0 0 -.05273-.00781h-.002c-.201077-.0204201-.404814-.0312559-.611248-.0312559z"
       fill="url(#b)"
       id="path3248" />
    <path
       d="m12 3.6914062c-.142904.214906-.26755.4429757-.382812.6757813a6 6 0 0 0 -.06836.1445313c-.10635.2299543-.202198.4646168-.279297.7089843a6 6 0 0 0 -.002.00586 6 6 0 0 0 -.03516.140625c-.05348.1857855-.0974.3756796-.132813.5683594a6 6 0 0 0 -.05273.3476562c-.01815.1477345-.02617.2983215-.0332.4492188a6 6 0 0 0 -.013628.2675775 6 6 0 0 0 6 6 6 6 0 0 0 4.134766-1.65625v-2.078125h-.84961a3.9966359 3.9966359 0 0 1 -3.289062 1.728516 3.9966359 3.9966359 0 0 1 -3.996094-3.9980472 3.9966359 3.9966359 0 0 1 .130859-.9960938h-1.130859z"
       fill="url(#c)"
       id="path3250" />
  </g>
</svg>
