<svg viewBox="0 0 24 24" xmlns="http://www.w3.org/2000/svg"><g fill="#0a84ff" stroke="#0070f5" stroke-linecap="round" stroke-linejoin="round" transform="matrix(0 1 -1 0 15 -.014242)"><path d="m5.5058594 2.4921875-4 4h2.9941406v.0078125.5 3c0 .277.223.5.5.5h1c.277 0 .5-.223.5-.5v-3-.4921875-.0078125l3.0058594-.00781z" transform="matrix(0 -1 1 0 .014242 15)"/><path d="m21.514263 9.4941406-4.000001 4.0000004v-2.994141h-.0078-.5-3c-.277 0-.5-.223-.5-.5v-1c0-.277.223-.5.5-.5h3 .492188.0078l.0078-3.0058594z"/></g><g fill="#69696e" transform="scale(-1 1)"><rect height="1" ry=".5" width="11" x="-22" y="14"/><rect height="1" ry=".5" width="11" x="-22" y="4"/><rect height="1" ry=".5" width="11" x="-22" y="9"/><rect height="1" ry=".5" width="11" x="-22" y="19"/></g></svg>