<?xml version="1.0" encoding="UTF-8" standalone="no"?>
<svg
   xmlns:dc="http://purl.org/dc/elements/1.1/"
   xmlns:cc="http://creativecommons.org/ns#"
   xmlns:rdf="http://www.w3.org/1999/02/22-rdf-syntax-ns#"
   xmlns:svg="http://www.w3.org/2000/svg"
   xmlns="http://www.w3.org/2000/svg"
   xmlns:xlink="http://www.w3.org/1999/xlink"
   xmlns:sodipodi="http://sodipodi.sourceforge.net/DTD/sodipodi-0.dtd"
   xmlns:inkscape="http://www.inkscape.org/namespaces/inkscape"
   viewBox="0 0 24 24"
   version="1.1"
   id="svg4"
   sodipodi:docname="lc_symbolshapes.heart.svg"
   inkscape:version="0.92.3 (2405546, 2018-03-11)">
  <metadata
     id="metadata10">
    <rdf:RDF>
      <cc:Work
         rdf:about="">
        <dc:format>image/svg+xml</dc:format>
        <dc:type
           rdf:resource="http://purl.org/dc/dcmitype/StillImage" />
        <dc:title></dc:title>
      </cc:Work>
    </rdf:RDF>
  </metadata>
  <defs
     id="defs8">
    <linearGradient
       gradientTransform="translate(-50.949152,-5.6949151)"
       id="a"
       gradientUnits="userSpaceOnUse"
       x1="12"
       x2="12"
       y1="21.5"
       y2="2.5">
      <stop
         offset="0"
         stop-color="#e5eefc"
         id="stop2" />
      <stop
         offset="1"
         stop-color="#fcfdff"
         id="stop4" />
    </linearGradient>
    <linearGradient
       inkscape:collect="always"
       xlink:href="#a"
       id="linearGradient835"
       x1="11.962891"
       y1="21.425812"
       x2="12.033898"
       y2="2.6440678"
       gradientUnits="userSpaceOnUse" />
  </defs>
  <sodipodi:namedview
     pagecolor="#ffffff"
     bordercolor="#666666"
     borderopacity="1"
     objecttolerance="10"
     gridtolerance="10"
     guidetolerance="10"
     inkscape:pageopacity="0"
     inkscape:pageshadow="2"
     inkscape:window-width="1366"
     inkscape:window-height="716"
     id="namedview6"
     showgrid="false"
     inkscape:zoom="9.8333333"
     inkscape:cx="-6.7627119"
     inkscape:cy="12"
     inkscape:window-x="-8"
     inkscape:window-y="-8"
     inkscape:window-maximized="1"
     inkscape:current-layer="svg4" />
  <path
     d="m7.84375 2.5000307c-2.9512717 0-5.34375 2.3924563-5.34375 5.34375 0 .62985.068244 1.272525.3339844 1.78125 2.709161 5.0566493 5.9828256 5.5178713 9.1289066 11.8007813v.03711c.0079.01574.02925.0213.03711.03711.01298-.02612.02413-.0483.03711-.07422 3.146079-6.28291 6.419743-6.744132 9.128905-11.8007813.265738-.508725.333984-1.1514.333984-1.78125 0-2.9512937-2.392478-5.34375-5.34375-5.34375-1.670571 0-3.139615.7662502-4.119141 1.9667969-.01074.013168-.02648.023837-.03711.037109-.01062-.013272-.02637-.023942-.03711-.037109-.979524-1.2005467-2.448567-1.9667969-4.119139-1.9667969z"
     fill="#fff"
     stroke="#808080"
     stroke-linecap="round"
     stroke-linejoin="round"
     id="path2"
     style="fill-opacity:1;fill:url(#linearGradient835);stroke:#0a84ff;stroke-opacity:1" />
</svg>
