<?xml version="1.0" encoding="UTF-8" standalone="no"?>
<svg
   xmlns:dc="http://purl.org/dc/elements/1.1/"
   xmlns:cc="http://creativecommons.org/ns#"
   xmlns:rdf="http://www.w3.org/1999/02/22-rdf-syntax-ns#"
   xmlns:svg="http://www.w3.org/2000/svg"
   xmlns="http://www.w3.org/2000/svg"
   xmlns:sodipodi="http://sodipodi.sourceforge.net/DTD/sodipodi-0.dtd"
   xmlns:inkscape="http://www.inkscape.org/namespaces/inkscape"
   viewBox="0 0 24 24"
   version="1.1"
   id="svg8"
   sodipodi:docname="lc_symbolshapes.brace-pair.svg"
   inkscape:version="0.92.3 (2405546, 2018-03-11)">
  <metadata
     id="metadata14">
    <rdf:RDF>
      <cc:Work
         rdf:about="">
        <dc:format>image/svg+xml</dc:format>
        <dc:type
           rdf:resource="http://purl.org/dc/dcmitype/StillImage" />
        <dc:title></dc:title>
      </cc:Work>
    </rdf:RDF>
  </metadata>
  <defs
     id="defs12">
    <pattern
       y="0"
       x="0"
       height="6"
       width="6"
       patternUnits="userSpaceOnUse"
       id="EMFhbasepattern" />
  </defs>
  <sodipodi:namedview
     pagecolor="#ffffff"
     bordercolor="#666666"
     borderopacity="1"
     objecttolerance="10"
     gridtolerance="10"
     guidetolerance="10"
     inkscape:pageopacity="0"
     inkscape:pageshadow="2"
     inkscape:window-width="1366"
     inkscape:window-height="716"
     id="namedview10"
     showgrid="false"
     inkscape:zoom="9.8333333"
     inkscape:cx="-2.4915254"
     inkscape:cy="12"
     inkscape:window-x="-8"
     inkscape:window-y="-8"
     inkscape:window-maximized="1"
     inkscape:current-layer="svg8" />
  <g
     fill="#4d82b8"
     id="g6"
     style="fill:#0a84ff;fill-opacity:1">
    <path
       d="m14 2v1.1875c1.1846 0 2 .48615 2 2.21875v3.6875c0 .831 1.00158 2.39355 2 2.90625-1.682649.268764-2 1.297561-2 2.25v4.34375c0 1.7326-.8155 2.21875-2 2.21875v1.1875c1.77683 0 3.046875-.6966 3.046875-2.5v-4.78125c0-1.739523 1.452593-1.71875 2.953125-1.71875v-2c-1.128954 0-2.953125-.709412-2.953125-2.40625v-4.09375c0-1.8034-1.270045-2.5-3.046875-2.5z"
       id="path2"
       style="fill:#0a84ff;fill-opacity:1" />
    <path
       d="m10 2v1.1875c-1.1846 0-2 .48615-2 2.21875v3.6875c0 .831-1.00158 2.39355-2 2.90625 1.682649.268764 2 1.297561 2 2.25v4.34375c0 1.7326.8155 2.21875 2 2.21875v1.1875c-1.77683 0-3.046875-.6966-3.046875-2.5v-4.78125c0-1.739523-1.452593-1.71875-2.953125-1.71875v-2c1.128954 0 2.953125-.709412 2.953125-2.40625v-4.09375c0-1.8034 1.270045-2.5 3.046875-2.5z"
       id="path4"
       style="fill:#0a84ff;fill-opacity:1" />
  </g>
</svg>
