<svg viewBox="0 0 24 24" xmlns="http://www.w3.org/2000/svg" xmlns:xlink="http://www.w3.org/1999/xlink"><linearGradient id="a" gradientUnits="userSpaceOnUse" x1="6.468759" x2="6.468759" y1="12.031455" y2="3.136892"><stop offset="0" stop-color="#0040dd"/><stop offset="1" stop-color="#0a84ff"/></linearGradient><text style="font-size:17.434738;font-family:sans-serif;letter-spacing:0;word-spacing:0;stroke-width:.435868;fill:url(#a)" x="1.749034" y="11.878452"><tspan fill="url(#a)" font-family="roboto" font-weight="500" stroke-width=".435868" x="1.749034" y="11.878452">a</tspan></text><path d="m17 4v11h-2.496094a.49150121.49150121 0 0 0 -.347656.839844l3.996094 4a.49150121.49150121 0 0 0 .695312 0l3.996094-4a.49150121.49150121 0 0 0 -.347656-.839844h-2.496094v-11z" fill="#69696e"/><path d="m8.7227227 15.06959q0 .16036-.05908.31228-.05064.143479-.1350397.261639l-3.9077122 5.899548h3.9752321v1.156278h-5.6885487v-.616119q0-.109719.05064-.253199.05908-.14348.1519197-.27852l3.9161522-5.950188h-3.8908323v-1.156278h5.5872689z" fill="#808080" transform="scale(1.0317879 .96919142)"/><text style="font-size:15.107571;font-family:sans-serif;letter-spacing:0;word-spacing:0;fill:#69696e;stroke-width:.377689" x="2.327731" y="21.988432"><tspan fill="#69696e" font-family="roboto" font-weight="500" stroke-width=".377689" x="2.327731" y="21.988432">z</tspan></text></svg>