<svg viewBox="0 0 24 24" xmlns="http://www.w3.org/2000/svg" xmlns:xlink="http://www.w3.org/1999/xlink"><linearGradient id="a" gradientUnits="userSpaceOnUse" x1="3.627119" x2="3.576271" xlink:href="#b" y1="12.381356" y2="9.940678"/><linearGradient id="b" gradientTransform="translate(-25.830508 -3.59322)" gradientUnits="userSpaceOnUse" x1="14" x2="13.79661" y1="22" y2="2.135593"><stop offset="0" stop-color="#0040dd"/><stop offset="1" stop-color="#0a84ff"/></linearGradient><linearGradient id="c" gradientUnits="userSpaceOnUse" x1="4.696594" x2="4.417998" xlink:href="#b" y1="8.020184" y2="2.231497"/><g fill="#4b4b4f" transform="scale(-1 1)"><rect height="1" ry=".5" width="14.999998" x="-22" y="2"/><rect height="1" ry=".392136" width="15.000005" x="-22" y="10"/><rect height="1" ry=".436441" width="15.000001" x="-22" y="18"/><rect height="1" ry=".5" width="8.999999" x="-16" y="21"/><rect height="1" ry=".5" width="8.999999" x="-16" y="13"/><rect height="1" ry=".5" width="9.000002" x="-16" y="5"/></g><g fill="#0a84ff"><path d="m2.4805826 7h1.2475728v-3.168421c0-.1383459.00485-.2827068.014563-.4330828l-.8398058.6721804c-.055016.042105-.1100322.067669-.1650486.076692-.055016.00902-.1067959.00902-.1553397 0-.048543-.00902-.092233-.02406-.1310679-.045113-.035599-.02406-.063107-.04812-.082524-.072181l-.3689324-.4691724 1.9368932-1.5609022h1.0631068v5h1v1h-3.5194174z" fill="url(#c)"/><path d="m5 11.5a1.5 1.5 0 0 1 -1.5 1.5 1.5 1.5 0 0 1 -1.5-1.5 1.5 1.5 0 0 1 1.5-1.5 1.5 1.5 0 0 1 1.5 1.5z" fill="url(#a)"/></g><g fill="#e9e9e9" fill-opacity=".992157" transform="matrix(-1 0 0 1 0 1)"><rect height="1" ry=".5" width="14.999998" x="-22" y="2"/><rect height="1" ry=".392136" width="15.000005" x="-22" y="10"/><rect height="1" ry=".436441" width="15.000001" x="-22" y="18"/><rect height="1" ry=".5" width="8.999999" x="-16" y="21"/><rect height="1" ry=".5" width="8.999999" x="-16" y="13"/><rect height="1" ry=".5" width="9.000002" x="-16" y="5"/></g></svg>