<svg viewBox="0 0 24 24" xmlns="http://www.w3.org/2000/svg" xmlns:xlink="http://www.w3.org/1999/xlink"><linearGradient id="a" gradientTransform="translate(-25.830508 -3.59322)" gradientUnits="userSpaceOnUse" x1="14" x2="13.79661" y1="22" y2="2.135593"><stop offset="0" stop-color="#0040dd"/><stop offset="1" stop-color="#0a84ff"/></linearGradient><linearGradient id="b" gradientUnits="userSpaceOnUse" x1="5.507813" x2="5.507813" xlink:href="#a" y1="21.494141" y2="15.494141"/><linearGradient id="c" gradientUnits="userSpaceOnUse" x1="18.500002" x2="18.500002" xlink:href="#a" y1="21.494141" y2="15.494141"/><linearGradient id="d" gradientUnits="userSpaceOnUse" x1="12" x2="12" xlink:href="#a" y1="22" y2="15"/><path d="m18.500001 15.494141 3 3.005859-3 2.994141z" fill="url(#c)" stroke="url(#c)" stroke-linecap="round" stroke-linejoin="round"/><g fill="#696969" stroke-width=".42256"><path d="m9.1568003 11.201786h-4.6547596l-.9738681 2.797808h-2.1705706l4.539216-12.0165428h1.8734582l4.5474688 12.0165428h-2.178823zm-4.0687881-1.6836364h3.4828166l-1.7414083-4.9848844z"/><path d="m17.294376 11.383355 3.053655-9.4003038h2.294367l-4.324635 12.0165428h-2.022014l-4.308129-12.0165428h2.286114z"/></g><g stroke-linecap="round" stroke-linejoin="round"><path d="m5.5078125 15.494141-3 3.005859 3 2.994141z" fill="url(#b)" stroke="url(#b)"/><path d="m2.5071212 18.500004 18.9928788-.000004" fill="none" stroke="url(#d)"/></g></svg>