<?xml version="1.0" encoding="UTF-8" standalone="no"?>
<svg
   xmlns:dc="http://purl.org/dc/elements/1.1/"
   xmlns:cc="http://creativecommons.org/ns#"
   xmlns:rdf="http://www.w3.org/1999/02/22-rdf-syntax-ns#"
   xmlns:svg="http://www.w3.org/2000/svg"
   xmlns="http://www.w3.org/2000/svg"
   xmlns:sodipodi="http://sodipodi.sourceforge.net/DTD/sodipodi-0.dtd"
   xmlns:inkscape="http://www.inkscape.org/namespaces/inkscape"
   viewBox="0 0 24 24"
   version="1.1"
   id="svg1144"
   sodipodi:docname="lc_sidebar.svg"
   inkscape:version="0.92.3 (2405546, 2018-03-11)">
  <metadata
     id="metadata1150">
    <rdf:RDF>
      <cc:Work
         rdf:about="">
        <dc:format>image/svg+xml</dc:format>
        <dc:type
           rdf:resource="http://purl.org/dc/dcmitype/StillImage" />
        <dc:title></dc:title>
      </cc:Work>
    </rdf:RDF>
  </metadata>
  <defs
     id="defs1148" />
  <sodipodi:namedview
     pagecolor="#ffffff"
     bordercolor="#666666"
     borderopacity="1"
     objecttolerance="10"
     gridtolerance="10"
     guidetolerance="10"
     inkscape:pageopacity="0"
     inkscape:pageshadow="2"
     inkscape:window-width="1366"
     inkscape:window-height="716"
     id="namedview1146"
     showgrid="true"
     inkscape:zoom="4.9166667"
     inkscape:cx="41.658482"
     inkscape:cy="-4.221647"
     inkscape:window-x="-8"
     inkscape:window-y="-8"
     inkscape:window-maximized="1"
     inkscape:current-layer="svg1144">
    <inkscape:grid
       type="xygrid"
       id="grid1695" />
  </sodipodi:namedview>
  <linearGradient
     id="a"
     gradientUnits="userSpaceOnUse"
     x1="20.007936"
     x2="13.007937"
     y1="8.9996548"
     y2="8.9996548"
     gradientTransform="rotate(90,13.003796,11.995859)">
    <stop
       offset="0"
       stop-color="#0040dd"
       id="stop1117" />
    <stop
       offset="1"
       stop-color="#0a84ff"
       id="stop1119" />
  </linearGradient>
  <path
     d="m4 3c-1.108 0-2 .892-2 2v3h20v-3c0-1.108-.892-2-2-2z"
     fill="#69696e"
     id="path1122" />
  <path
     d="m2 10v10c0 .554.446 1 1 1h18c.554 0 1-.446 1-1v-10h-1v10h-18v-10z"
     fill="#69696e"
     id="path1124" />
  <path
     d="m3 7h18v13h-18z"
     fill="#fff"
     id="path1126" />
  <path
     d="M 4 4 C 3.446 4 3 4.2858135 3 4.640625 L 3 6 L 3 6.359375 L 3 9 L 21 9 L 21 6.359375 L 21 6 L 21 4.640625 C 21 4.2858135 20.554 4 20 4 L 4 4 z "
     id="rect1128"
     style="fill:#c8c8cb;fill-opacity:1" />
  <g
     fill="none"
     id="g1142">
    <path
       d="m4 3c-1.108 0-2 .892-2 2v1c0 .7410699.4042011 1.3790485 1 1.7246094v-.7246094-2.703125-.296875h13.460938c.014994-.0004128.029975-.0078125.044921-.0078125.014947 0 .029927.0073997.044922.0078125h4.449219v.296875 2.703125.7246094c.595799-.3455609 1-.9835395 1-1.7246094v-1c0-1.108-.892-2-2-2z"
       id="path1138" />
    <path
       d="m2 3h20v7h-20z"
       id="path1140" />
  </g>
  <rect
     style="fill:#69696e;fill-opacity:1;stroke:none;stroke-opacity:0.90980392"
     id="rect1709"
     width="1"
     height="11"
     x="16"
     y="9" />
  <rect
     y="7.7246094"
     x="2"
     height="2.2753906"
     width="1"
     id="rect1711"
     style="fill:#69696e;fill-opacity:1;stroke:none;stroke-width:0.45481172;stroke-opacity:0.90980392" />
  <rect
     style="fill:#69696e;fill-opacity:1;stroke:none;stroke-width:0.45481172;stroke-opacity:0.90980392"
     id="rect1713"
     width="1"
     height="2.2753906"
     x="21"
     y="7.7246094" />
  <path
     style="fill:#a2a2a7;fill-opacity:1;stroke:none;stroke-opacity:0.90980392"
     d="M 17.222656 9 L 17 9.2226562 L 17 10.636719 L 18.636719 9 L 17.222656 9 z M 20.050781 9 L 17 12.050781 L 17 13.464844 L 21 9.4648438 L 21 9 L 20.050781 9 z M 21 10.878906 L 17 14.878906 L 17 16.292969 L 21 12.292969 L 21 10.878906 z M 21 13.707031 L 17 17.707031 L 17 19.121094 L 21 15.121094 L 21 13.707031 z M 21 16.535156 L 17.535156 20 L 18.949219 20 L 21 17.949219 L 21 16.535156 z M 21 19.363281 L 20.363281 20 L 21 20 L 21 19.363281 z "
     id="rect2275" />
  <path
     d="m 18.007467,15.505734 a 0.50005,0.50004318 0 0 0 -0.0078,-0.09961 v -0.902343 c 0,-0.283844 -0.245066,-0.511719 -0.548828,-0.511719 h -3.451172 v -1.40625 a 0.50063797,0.50063114 0 0 0 -0.845716,-0.447266 l -2.951172,2.947266 a 0.50005,0.50004318 0 0 0 -0.2031249,0.394531 0.50005,0.50004318 0 0 0 0.1953119,0.404297 l 2.957032,2.960938 a 0.50005,0.50004318 0 0 0 0.839844,-0.201172 h 0.0078 v -0.03125 a 0.50005,0.50004318 0 0 0 0,-0.228516 v -1.392578 h 3.451172 c 0.303762,0 0.548828,-0.227875 0.548828,-0.511719 v -0.890625 a 0.50005,0.50004318 0 0 0 0.0078,-0.08398 z"
     id="path1136"
     style="fill:url(#a);fill-rule:evenodd"
     inkscape:connector-curvature="0" />
  <rect
     style="fill:#69696e;fill-opacity:1;stroke:none;stroke-opacity:0.90980392"
     id="rect2292"
     width="18"
     height="1"
     x="3"
     y="8" />
</svg>
