<?xml version="1.0" encoding="UTF-8" standalone="no"?>
<svg
   xmlns:dc="http://purl.org/dc/elements/1.1/"
   xmlns:cc="http://creativecommons.org/ns#"
   xmlns:rdf="http://www.w3.org/1999/02/22-rdf-syntax-ns#"
   xmlns:svg="http://www.w3.org/2000/svg"
   xmlns="http://www.w3.org/2000/svg"
   xmlns:sodipodi="http://sodipodi.sourceforge.net/DTD/sodipodi-0.dtd"
   xmlns:inkscape="http://www.inkscape.org/namespaces/inkscape"
   viewBox="0 0 24 24"
   version="1.1"
   id="svg4"
   sodipodi:docname="lc_selectobject.svg"
   inkscape:version="0.92.3 (2405546, 2018-03-11)">
  <metadata
     id="metadata10">
    <rdf:RDF>
      <cc:Work
         rdf:about="">
        <dc:format>image/svg+xml</dc:format>
        <dc:type
           rdf:resource="http://purl.org/dc/dcmitype/StillImage" />
        <dc:title></dc:title>
      </cc:Work>
    </rdf:RDF>
  </metadata>
  <defs
     id="defs8" />
  <sodipodi:namedview
     pagecolor="#ffffff"
     bordercolor="#666666"
     borderopacity="1"
     objecttolerance="10"
     gridtolerance="10"
     guidetolerance="10"
     inkscape:pageopacity="0"
     inkscape:pageshadow="2"
     inkscape:window-width="1366"
     inkscape:window-height="716"
     id="namedview6"
     showgrid="true"
     inkscape:zoom="9.8333333"
     inkscape:cx="-1.4997225"
     inkscape:cy="6.6577505"
     inkscape:window-x="-8"
     inkscape:window-y="-8"
     inkscape:window-maximized="1"
     inkscape:current-layer="svg4">
    <inkscape:grid
       type="xygrid"
       id="grid817" />
  </sodipodi:namedview>
  <path
     sodipodi:type="inkscape:offset"
     inkscape:radius="1.5158492"
     inkscape:original="M 5.5136719 2.5136719 L 5.5136719 20.371094 L 9.6699219 15.876953 L 11.912109 20.646484 C 12.472489 22.236126 15.835067 21.43984 15.087891 19.320312 L 12.492188 13.5 L 18.486328 13.5 L 5.5136719 2.5136719 z "
     style="fill:#98989d;fill-opacity:1;fill-rule:evenodd;stroke:none;stroke-width:1.02683198;stroke-linejoin:round"
     id="path819"
     d="M 5.5175781,0.99804688 A 1.5160008,1.5160008 0 0 0 3.9980469,2.5136719 V 20.371094 a 1.5160008,1.5160008 0 0 0 2.6289062,1.029297 l 2.6289063,-2.84375 1.2851566,2.734375 -0.05859,-0.140625 c 0.311323,0.883137 1.091603,1.48598 1.828125,1.708984 0.736522,0.223004 1.464917,0.178913 2.148437,-0.04297 0.683521,-0.221882 1.357368,-0.643181 1.810547,-1.363281 0.45318,-0.7201 0.563262,-1.742542 0.248047,-2.636719 a 1.5160008,1.5160008 0 0 0 -0.04492,-0.113281 l -1.644531,-3.6875 h 3.658203 A 1.5160008,1.5160008 0 0 0 19.466797,12.34375 L 6.4941406,1.3574219 A 1.5160008,1.5160008 0 0 0 5.5175781,0.99804688 Z" />
  <path
     style="fill:#fefefb;fill-opacity:1;fill-rule:evenodd;stroke:none;stroke-width:1.02683198;stroke-linejoin:round"
     d="M 5.515625,2 A 0.51390517,0.51390517 0 0 0 5,2.5136719 V 20.371094 a 0.51390517,0.51390517 0 0 0 0.890625,0.349609 l 3.6386719,-3.935547 1.9179691,4.080078 -0.01953,-0.04883 c 0.19814,0.562066 0.671405,0.931861 1.173828,1.083985 0.502424,0.152123 1.04505,0.125791 1.546876,-0.03711 0.501825,-0.162901 0.973149,-0.47126 1.271484,-0.945312 0.298335,-0.474053 0.382671,-1.114205 0.152344,-1.767578 a 0.51390517,0.51390517 0 0 0 -0.01563,-0.03906 l -2.273438,-5.097656 h 5.203125 a 0.51390517,0.51390517 0 0 0 0.332031,-0.90625 L 5.8457031,2.1210938 A 0.51390517,0.51390517 0 0 0 5.515625,2 Z"
     id="path2" />
  <path
     style="fill:#000000;fill-opacity:1;fill-rule:evenodd;stroke:none;stroke-width:1.02683198;stroke-linejoin:round"
     d="m 6.0078125,3.578125 v 15.533203 l 3.3007813,-3.568359 a 0.49338121,0.49338121 0 0 1 0.8085942,0.125 l 2.242187,4.769531 a 0.49338121,0.49338121 0 0 1 0.01758,0.04492 c 0.08437,0.239331 0.248513,0.372249 0.515625,0.453125 0.267112,0.08088 0.626122,0.07236 0.945313,-0.03125 0.31919,-0.103614 0.58778,-0.294753 0.730468,-0.521485 0.141333,-0.224577 0.196477,-0.484091 0.05664,-0.888671 l -2.583984,-5.792969 a 0.49338121,0.49338121 0 0 1 0.451172,-0.695313 h 4.646484 z"
     id="path821" />
</svg>
