<?xml version="1.0" encoding="UTF-8" standalone="no"?>
<svg
   xmlns:dc="http://purl.org/dc/elements/1.1/"
   xmlns:cc="http://creativecommons.org/ns#"
   xmlns:rdf="http://www.w3.org/1999/02/22-rdf-syntax-ns#"
   xmlns:svg="http://www.w3.org/2000/svg"
   xmlns="http://www.w3.org/2000/svg"
   xmlns:sodipodi="http://sodipodi.sourceforge.net/DTD/sodipodi-0.dtd"
   xmlns:inkscape="http://www.inkscape.org/namespaces/inkscape"
   viewBox="0 0 24 24"
   version="1.1"
   id="svg10"
   sodipodi:docname="lc_searchdialog.svg"
   inkscape:version="0.92.3 (unknown)"
   inkscape:export-filename="/home/rizmut/Dokumen/Rizmut/Github/libreoffice-style-colibrex/images_colibrex/cmd/lc_searchdialog.png"
   inkscape:export-xdpi="96"
   inkscape:export-ydpi="96">
  <metadata
     id="metadata16">
    <rdf:RDF>
      <cc:Work
         rdf:about="">
        <dc:format>image/svg+xml</dc:format>
        <dc:type
           rdf:resource="http://purl.org/dc/dcmitype/StillImage" />
      </cc:Work>
    </rdf:RDF>
  </metadata>
  <defs
     id="defs14" />
  <sodipodi:namedview
     pagecolor="#ffffff"
     bordercolor="#666666"
     borderopacity="1"
     objecttolerance="10"
     gridtolerance="10"
     guidetolerance="10"
     inkscape:pageopacity="0"
     inkscape:pageshadow="2"
     inkscape:window-width="1366"
     inkscape:window-height="706"
     id="namedview12"
     showgrid="true"
     inkscape:zoom="4.9166667"
     inkscape:cx="40.246265"
     inkscape:cy="18.469366"
     inkscape:window-x="0"
     inkscape:window-y="0"
     inkscape:window-maximized="1"
     inkscape:current-layer="svg10">
    <inkscape:grid
       type="xygrid"
       id="grid1468" />
  </sodipodi:namedview>
  <g
     id="g1477"
     transform="translate(-1)">
    <path
       sodipodi:nodetypes="scccccccsscccs"
       inkscape:connector-curvature="0"
       style="fill:#69696e;fill-opacity:1"
       id="path2"
       d="M 14.5,2 C 10.357864,2 7,5.3578644 7,9.5 c 0.00203,1.642863 0.5434283,3.239616 1.5410156,4.544922 l 1.4160156,1.412109 c 1.2261298,0.937159 2.7120968,1.456598 4.2499998,1.519531 0.03035,-0.120042 0.04591,-0.247053 0.08399,-0.363281 0.190232,-0.605163 0.478978,-1.154831 0.875,-1.613281 0.361654,-0.418669 0.809328,-0.751293 1.308593,-0.990234 V 10.5 c 0,-0.277 0.223,-0.5 0.5,-0.5 h 4.384766 0.609375 C 21.984735,9.8337748 21.995154,9.6669682 22,9.5 22,5.3578644 18.642136,2 14.5,2 Z" />
    <path
       id="path4"
       d="M 14.5,4 A 5.5,5.5 0 0 0 9,9.5 a 5.5,5.5 0 0 0 5.5,5.5 5.5,5.5 0 0 0 0.716797,-0.05273 c 0.385301,-0.429737 0.857361,-0.772821 1.388672,-1.003907 A 1.0001,1.0001 0 0 1 16.75,13.894531 c 0.40752,-0.107322 0.818932,-0.137873 1.230469,-0.138672 A 5.5,5.5 0 0 0 20,9.5 5.5,5.5 0 0 0 14.5,4 Z"
       inkscape:connector-curvature="0"
       style="fill:#ffffff" />
    <path
       style="fill:#69696e;fill-opacity:1"
       id="path6"
       d="m 17.257896,13.866336 q -0.236057,0 -0.363166,-0.07128 -0.127107,-0.07128 -0.172503,-0.29406 l -0.19974,-0.810891 q -0.345007,0.311881 -0.680934,0.561386 -0.326849,0.240594 -0.690013,0.409901 -0.363165,0.169307 -0.780804,0.249505 Q 13.953096,14 13.453745,14 q -0.51751,0 -0.971466,-0.133664 -0.444876,-0.142573 -0.789883,-0.427723 -0.335927,-0.294058 -0.535668,-0.721781 -0.190661,-0.436634 -0.190661,-1.024753 0,-0.516831 0.281453,-0.989109 0.290531,-0.481188 0.935149,-0.8554452 0.644617,-0.3742574 1.679636,-0.6059406 1.03502,-0.2405941 2.542154,-0.2762376 V 8.2970297 q 0,-1.0158416 -0.444878,-1.5237624 -0.435797,-0.5168316 -1.280155,-0.5168316 -0.562905,0 -0.953307,0.1425742 -0.381324,0.1425743 -0.662776,0.3118812 -0.281452,0.169307 -0.490273,0.3118812 -0.19974,0.1425742 -0.408559,0.1425742 -0.163424,0 -0.281454,-0.080198 -0.118028,-0.080198 -0.190661,-0.2049503 l -0.290531,-0.49901 Q 12.137273,5.6861387 12.981631,5.3475248 13.835068,5 14.870088,5 q 0.744487,0 1.32555,0.2405941 0.581064,0.2316832 0.971466,0.6683168 0.390402,0.4366337 0.590143,1.0425743 0.20882,0.6059406 0.20882,1.3455445 V 13.866336 Z M 13.934938,12.90396 q 0.399482,0 0.735409,-0.0802 0.335927,-0.0802 0.635538,-0.222771 0.299611,-0.151486 0.562905,-0.365348 0.272374,-0.222771 0.535669,-0.490099 V 9.9455426 q -1.062258,0.044554 -1.806745,0.1782174 -0.744488,0.124753 -1.216601,0.338614 -0.463036,0.213862 -0.671855,0.507921 -0.208821,0.285149 -0.208821,0.641584 0,0.338614 0.10895,0.588119 0.118029,0.240594 0.30869,0.400991 0.190661,0.151484 0.453957,0.231682 0.263294,0.07128 0.562904,0.07128 z"
       inkscape:connector-curvature="0" />
    <path
       style="fill:#0a84ff;fill-opacity:1"
       id="path8"
       d="M 23,22.883008 V 11 h -1.641025 v 4.871866 c -1.285434,-1.28594 -2.751171,-1.433334 -4.354313,-1.011142 -0.422689,0.183845 -0.783217,0.448468 -1.081584,0.793872 C 15.624709,16 15.397825,16.420612 15.242424,16.916435 15.080808,17.406686 15,17.963789 15,18.587743 c 0,0.662953 0.09014,1.264624 0.270396,1.805015 0.180264,0.54039 0.438229,1.005571 0.773894,1.395543 0.335663,0.384401 0.742812,0.682451 1.221445,0.89415 C 17.744367,22.89415 18.282052,23 18.878789,23 c 0.596735,0 1.097124,-0.100276 1.501165,-0.300835 0.397824,-0.206128 0.752136,-0.490251 1.062936,-0.852369 l 0.09324,0.72702 c 0.02487,0.206129 0.15851,0.309192 0.400933,0.309192 z m -4.018647,-7.13649 c 0.503496,0 0.947939,0.10585 1.333332,0.317548 0.379177,0.2117 0.727273,0.512536 1.04429,0.902508 v 3.94429 c -0.285937,0.350974 -0.599845,0.598885 -0.941725,0.743732 -0.341881,0.139275 -0.717949,0.208913 -1.128205,0.208913 -0.839161,0 -1.482518,-0.270194 -1.930071,-0.810584 -0.447552,-0.540391 -0.671328,-1.345405 -0.671328,-2.415042 0,-0.991644 0.198912,-1.721448 0.596737,-2.189415 0.397824,-0.467967 0.963481,-0.70195 1.69697,-0.70195 z"
       inkscape:connector-curvature="0" />
    <rect
       transform="rotate(45)"
       inkscape:transform-center-y="5.2853223"
       inkscape:transform-center-x="8.7369644"
       ry="1"
       rx="1"
       y="2.5429883"
       x="15.841788"
       height="9"
       width="3"
       id="rect1470"
       style="opacity:1;fill:#616165;fill-opacity:1;stroke:none;stroke-width:1;stroke-linecap:round;stroke-linejoin:round;stroke-miterlimit:4;stroke-dasharray:none;stroke-opacity:1" />
  </g>
</svg>
