<?xml version="1.0" encoding="UTF-8" standalone="no"?>
<svg
   xmlns:dc="http://purl.org/dc/elements/1.1/"
   xmlns:cc="http://creativecommons.org/ns#"
   xmlns:rdf="http://www.w3.org/1999/02/22-rdf-syntax-ns#"
   xmlns:svg="http://www.w3.org/2000/svg"
   xmlns="http://www.w3.org/2000/svg"
   xmlns:sodipodi="http://sodipodi.sourceforge.net/DTD/sodipodi-0.dtd"
   xmlns:inkscape="http://www.inkscape.org/namespaces/inkscape"
   viewBox="0 0 24 24"
   version="1.1"
   id="svg8"
   sodipodi:docname="lc_symbolshapes.bracket-pair.svg"
   inkscape:version="0.92.3 (2405546, 2018-03-11)">
  <metadata
     id="metadata14">
    <rdf:RDF>
      <cc:Work
         rdf:about="">
        <dc:format>image/svg+xml</dc:format>
        <dc:type
           rdf:resource="http://purl.org/dc/dcmitype/StillImage" />
        <dc:title></dc:title>
      </cc:Work>
    </rdf:RDF>
  </metadata>
  <defs
     id="defs12">
    <pattern
       y="0"
       x="0"
       height="6"
       width="6"
       patternUnits="userSpaceOnUse"
       id="EMFhbasepattern" />
  </defs>
  <sodipodi:namedview
     pagecolor="#ffffff"
     bordercolor="#666666"
     borderopacity="1"
     objecttolerance="10"
     gridtolerance="10"
     guidetolerance="10"
     inkscape:pageopacity="0"
     inkscape:pageshadow="2"
     inkscape:window-width="1366"
     inkscape:window-height="716"
     id="namedview10"
     showgrid="false"
     inkscape:zoom="9.8333333"
     inkscape:cx="-2.4915254"
     inkscape:cy="12"
     inkscape:window-x="-8"
     inkscape:window-y="-8"
     inkscape:window-maximized="1"
     inkscape:current-layer="svg8" />
  <g
     fill="#4d82b8"
     id="g6"
     style="fill:#0a84ff;fill-opacity:1">
    <path
       d="m16 2c1.1045 0 2 .8954 2 2v2 13 1c0 1.1045-.748608 2-2 2h-2v-1h2c.5523 0 1-.4477 1-1v-1-10-4.375-.625c0-.5865223-.539319-1-1-1h-1-.71875-.28125v-1h1z"
       id="path2"
       style="fill:#0a84ff;fill-opacity:1" />
    <path
       d="m8 2c-1.1045 0-2 .8954-2 2v2 13 1c0 1.1045.748608 2 2 2h2v-1h-2c-.5523 0-1-.4477-1-1v-1-10-4.375-.625c0-.5865223.539319-1 1-1h1 .71875.28125v-1h-1z"
       id="path4"
       style="fill:#0a84ff;fill-opacity:1" />
  </g>
</svg>
