<svg viewBox="0 0 24 24" xmlns="http://www.w3.org/2000/svg"><g fill="#4b4b4f"><rect height="1" ry=".464045" width="20" x="2" y="11"/><path d="m9.9980469 5.9960938v4.5039062h1.0039061v-.5371094c.125602-.2536456.293438-.4547102.503906-.6035156.213863-.1521874.476244-.2285156.785157-.2285156.47525 0 .827757.2005401 1.058593.5996094.129159.2181872.21544.4803862.273438.7695312h1.019531c-.08137-.5359875-.247541-.9959373-.509766-1.3691406-.3802-.5411106-.908961-.8105469-1.58789-.8105469-.34286 0-.644351.064846-.902344.1933594-.254598.1285138-.467498.3131409-.640625.5566406v-3.0742187zm-3.5429688 2.3242187c-.6314043 0-1.6814628.1646636-2.0820312.4960937-.397174.3314304-.5848213.6966341-.5644531 1.0957032l.00977.03125h.9570313c0-.229972.1004975-.4255575.3007812-.5878906.2036789-.1657154.466571-.2480469.7890625-.2480469.3598326 0 .639048.093814.8359375.2832031.1968895.1860068.318339.4412886.2949219.761719v.347656h1.0039018v-.337891c0-.5952211-.1901119-1.0507134-.5703125-1.365234-.3802005-.3179025-.3499943-.4765625-.9746094-.4765625zm11.9492189 0c-.797742 0-1.410166.2629085-1.837891.7871094-.318616.3910657-.518216.8552267-.597656 1.3925781h1.03125c.0521-.305745.131975-.5891468.273437-.8261719.227442-.3787774.60469-.5664062 1.13086-.5664062.363228 0 .664719.1167837.902343.3535156.237626.233354.355469.5187036.355469.8535155h.90625l.0098-.03125c.013544-.5512565-.184985-1.0157537-.595737-1.3945311-.407358-.3787774-.933142-.5683594-1.578125-.5683594zm-14.8613282 4.1796875c.024528.449863.1674814.812203.4394531 1.080078.3021236.290847 1.2720077.4375 1.8457031.4375.346254 0 .136818-.08781.4355469-.263672.3021236-.179242.5457163-.402223.7324219-.666015.00339.128514.014277.258204.03125.386718.020369.125132.046132.269833.080078.435547h1.0351563c-.0543141-.175861-.0929132-.354484-.1132812-.537109-.0203673-.182625-.0146913-.372753-.0292969-.568359v-.304688h-1.1503906c-.1036951.143474-.2342266.279587-.4238281.400391-.2919396.186006-.6191946.279297-.9824219.279297-.298729 0-.5249752-.07085-.6777344-.212891-.1266815-.117793-.1875048-.279272-.2089843-.466797zm6.4550781 0v1.410156h.8203121l.123047-.724609c.176522.273937.397839.481005.666016.623047.268177.13866.584038.208984.947266.208984.668744 0 1.194018-.242945 1.574218-.726562.180554-.229225.314863-.494721.410156-.791016h-1.072265c-.03514.07003-.07017.140591-.113281.203125-.230836.334812-.580879.501953-1.052735.501953-.319096 0-.584454-.07633-.794922-.228516-.162375-.119336-.293889-.284789-.408203-.476562zm6.1523431 0c.103575.267612.236768.516324.416016.736328.424331.520819 1.036754.78125 1.837891.78125.58388 0 1.095293-.183578 1.533203-.548828.347173-.290002.547721-.613726.611328-.96875h-.951172c-.06021.160136-.160847.305593-.316406.431641-.251204.202916-.544277.304687-.876953.304687-.529565 0-.906812-.186581-1.13086-.558594-.03337-.05591-.0595-.117728-.08789-.177734z"/></g></svg>