<?xml version="1.0" encoding="UTF-8" standalone="no"?>
<svg
   xmlns:dc="http://purl.org/dc/elements/1.1/"
   xmlns:cc="http://creativecommons.org/ns#"
   xmlns:rdf="http://www.w3.org/1999/02/22-rdf-syntax-ns#"
   xmlns:svg="http://www.w3.org/2000/svg"
   xmlns="http://www.w3.org/2000/svg"
   xmlns:xlink="http://www.w3.org/1999/xlink"
   xmlns:sodipodi="http://sodipodi.sourceforge.net/DTD/sodipodi-0.dtd"
   xmlns:inkscape="http://www.inkscape.org/namespaces/inkscape"
   viewBox="0 0 24 24"
   version="1.1"
   id="svg18"
   sodipodi:docname="lc_spacepara1.svg"
   inkscape:version="0.92.3 (2405546, 2018-03-11)">
  <metadata
     id="metadata24">
    <rdf:RDF>
      <cc:Work
         rdf:about="">
        <dc:format>image/svg+xml</dc:format>
        <dc:type
           rdf:resource="http://purl.org/dc/dcmitype/StillImage" />
      </cc:Work>
    </rdf:RDF>
  </metadata>
  <defs
     id="defs22">
    <linearGradient
       gradientTransform="translate(-31.423729,-6.6101695)"
       id="a"
       gradientUnits="userSpaceOnUse"
       x1="14"
       x2="13.79661"
       y1="22"
       y2="2.1355929">
      <stop
         offset="0"
         stop-color="#0040dd"
         id="stop2" />
      <stop
         offset="1"
         stop-color="#0a84ff"
         id="stop4" />
    </linearGradient>
    <linearGradient
       inkscape:collect="always"
       xlink:href="#a"
       id="linearGradient852"
       x1="21.925289"
       y1="11.29187"
       x2="2.1673129"
       y2="11.723325"
       gradientUnits="userSpaceOnUse" />
    <linearGradient
       inkscape:collect="always"
       xlink:href="#a"
       id="linearGradient860"
       x1="21.925289"
       y1="11.29187"
       x2="2.1673129"
       y2="11.723325"
       gradientUnits="userSpaceOnUse" />
  </defs>
  <sodipodi:namedview
     pagecolor="#ffffff"
     bordercolor="#666666"
     borderopacity="1"
     objecttolerance="10"
     gridtolerance="10"
     guidetolerance="10"
     inkscape:pageopacity="0"
     inkscape:pageshadow="2"
     inkscape:window-width="1366"
     inkscape:window-height="685"
     id="namedview20"
     showgrid="false"
     inkscape:zoom="6.9532167"
     inkscape:cx="-8.957983"
     inkscape:cy="18.979324"
     inkscape:window-x="0"
     inkscape:window-y="0"
     inkscape:window-maximized="1"
     inkscape:current-layer="svg18" />
  <g
     fill="#0a84ff"
     stroke="#0070f5"
     stroke-linecap="round"
     stroke-linejoin="round"
     transform="matrix(0 1 -1 0 15 -.014242)"
     id="g6"
     style="fill-opacity:1;fill:url(#linearGradient852);stroke:url(#linearGradient860)">
    <path
       d="m5.5058594 2.4921875-4 4h2.9941406v.0078125.5 3c0 .277.223.5.5.5h1c.277 0 .5-.223.5-.5v-3-.4921875-.0078125l3.0058594-.00781z"
       transform="matrix(0 -1 1 0 .014242 15)"
       id="path2"
       style="fill-opacity:1;fill:url(#linearGradient852);stroke:url(#linearGradient860)" />
    <path
       d="m21.514263 9.4941406-4.000001 4.0000004v-2.994141h-.0078-.5-3c-.277 0-.5-.223-.5-.5v-1c0-.277.223-.5.5-.5h3 .492188.0078l.0078-3.0058594z"
       id="path4"
       style="fill-opacity:1;fill:url(#linearGradient852);stroke:url(#linearGradient860)" />
  </g>
  <g
     fill="#69696e"
     transform="matrix(-1 0 0 1 0 -1)"
     id="g16">
    <rect
       height="1"
       ry=".5"
       width="11"
       x="-22"
       y="14"
       id="rect8" />
    <rect
       height="1"
       ry=".5"
       width="11"
       x="-22"
       y="8"
       id="rect10" />
    <rect
       height="1"
       ry=".5"
       width="11"
       x="-22"
       y="11"
       id="rect12" />
    <rect
       height="1"
       ry=".5"
       width="11"
       x="-22"
       y="17"
       id="rect14" />
  </g>
</svg>
