<?xml version="1.0" encoding="UTF-8" standalone="no"?>
<svg
   xmlns:dc="http://purl.org/dc/elements/1.1/"
   xmlns:cc="http://creativecommons.org/ns#"
   xmlns:rdf="http://www.w3.org/1999/02/22-rdf-syntax-ns#"
   xmlns:svg="http://www.w3.org/2000/svg"
   xmlns="http://www.w3.org/2000/svg"
   xmlns:sodipodi="http://sodipodi.sourceforge.net/DTD/sodipodi-0.dtd"
   xmlns:inkscape="http://www.inkscape.org/namespaces/inkscape"
   viewBox="0 0 24 24"
   version="1.1"
   id="svg8"
   sodipodi:docname="lc_strikeout.svg"
   inkscape:version="0.92.3 (unknown)"
   inkscape:export-filename="/home/rizmut/Dokumen/Rizmut/Github/libreoffice-style-sukapura/images_sukapura/cmd/lc_strikeout.png"
   inkscape:export-xdpi="96"
   inkscape:export-ydpi="96">
  <metadata
     id="metadata14">
    <rdf:RDF>
      <cc:Work
         rdf:about="">
        <dc:format>image/svg+xml</dc:format>
        <dc:type
           rdf:resource="http://purl.org/dc/dcmitype/StillImage" />
        <dc:title></dc:title>
      </cc:Work>
    </rdf:RDF>
  </metadata>
  <defs
     id="defs12" />
  <sodipodi:namedview
     pagecolor="#ffffff"
     bordercolor="#666666"
     borderopacity="1"
     objecttolerance="10"
     gridtolerance="10"
     guidetolerance="10"
     inkscape:pageopacity="0"
     inkscape:pageshadow="2"
     inkscape:window-width="1366"
     inkscape:window-height="699"
     id="namedview10"
     showgrid="true"
     inkscape:zoom="27.812867"
     inkscape:cx="13.874959"
     inkscape:cy="16.603727"
     inkscape:window-x="0"
     inkscape:window-y="0"
     inkscape:window-maximized="1"
     inkscape:current-layer="svg8">
    <inkscape:grid
       type="xygrid"
       id="grid821"
       spacingx="0.5"
       spacingy="0.5"
       empspacing="2" />
  </sodipodi:namedview>
  <g
     fill="#69696e"
     id="g6">
    <rect
       height="1"
       ry=".464045"
       width="20"
       x="2"
       y="11"
       id="rect2" />
    <path
       d="M 8.984375,5.9472656 8.939453,10 h 1.242187 c 0.307929,-0.4414205 0.785867,-0.9993726 1.361329,-0.9993724 0.521658,0 0.876332,0.5192864 1.154297,0.9114818 0.0188,0.026526 0.03131,0.059865 0.04883,0.087891 h 1.158203 C 13.804293,9.7338936 13.728968,9.162953 13.570312,8.9537526 13.143849,8.3864019 12.554807,8.1041432 11.804688,8.1041432 c -0.750123,0 -1.337207,0.2636955 -1.763672,0.7929687 V 5.9472656 Z m 9.792969,2.131487 c -0.563543,0 -1.053708,0.1297468 -1.46875,0.3886718 -0.411234,0.2589251 -0.77134,0.9450853 -0.992188,1.413435 C 16.298934,9.9179113 16.293442,9.962108 16.277344,10 h 1.113281 c 0.03004,-0.049252 0.100774,-0.4274421 0.134766,-0.4720287 0.297002,-0.3883876 0.715064,-0.5820313 1.251953,-0.5820313 0.399811,0 0.735511,0.1297468 1.005859,0.3886719 C 19.892016,9.4358671 19.929557,9.875946 20,10 h 0.955078 0.119141 C 20.956956,9.6232959 20.802753,8.9708152 20.501953,8.6998463 20.045027,8.2848047 19.470349,8.0787526 18.777344,8.0787526 Z M 4.7441406,8.1041432 c -0.4493112,0 -0.8613168,0.08246 -1.2382812,0.25 C 3.1327028,8.5216829 2.8341292,8.7503034 2.6132812,9.03969 2.457052,9.245255 2.3324455,9.7827084 2.2890624,10 H 3.3535155 C 3.4100885,9.8374691 3.563819,9.3681426 3.734375,9.2408619 3.9894924,9.0504759 4.3046762,8.9537525 4.6816406,8.9537526 5.1119131,8.9537524 5.4373553,9.064936 5.6582031,9.2857838 5.7703877,9.3960342 5.8056602,9.8505894 5.8593749,10 H 6.955078 C 6.8718631,9.5775787 6.723366,8.9091954 6.4179688,8.6412526 6.0143502,8.2833265 5.4561845,8.1041432 4.7441406,8.1041432 Z M 2.1621094,13 c -8.9e-6,0.0027 0,0.0051 0,0.0078 0,0.529276 0.1955968,0.967951 0.5839844,1.314454 0.3921953,0.342694 0.8927177,0.513672 1.5019531,0.513672 0.6815822,0 1.2666165,-0.25539 1.7578125,-0.765626 0.038077,0.312236 0.087514,0.528544 0.1484375,0.650391 h 1.109375 v -0.0918 C 7.1189785,14.29383 7.046875,13.842741 7.046875,13.275391 V 13 H 5.9824219 c -0.1336853,0.269005 -0.345737,0.489203 -0.6386719,0.658203 -0.2970022,0.171348 -0.6101346,0.257813 -0.9414062,0.257813 -0.3465028,0 -0.6307146,-0.09272 -0.8515626,-0.279297 C 3.3649899,13.479757 3.2757561,13.259493 3.2460938,13 Z m 6.8222656,0 v 1.720703 h 0.9707031 l 0.050781,-0.712891 c 0.426465,0.552121 1.029965,0.828124 1.810547,0.828126 0.731083,0 1.313967,-0.286264 1.748047,-0.857422 C 13.776682,13.697405 13.93468,13.369491 14.042969,13 h -1.115235 c -0.05425,0.129173 -0.117892,0.247286 -0.191406,0.349609 -0.281771,0.392196 -0.675216,0.589844 -1.18164,0.589844 -0.672056,0 -1.167924,-0.317021 -1.492188,-0.939453 z m 7.240234,0 c 0.123585,0.371831 0.306023,0.696502 0.546875,0.970703 0.498812,0.559734 1.170213,0.839844 2.011719,0.839844 0.41885,-10e-7 0.814344,-0.09477 1.1875,-0.285156 0.376964,-0.190386 0.677688,-0.445776 0.902344,-0.765625 C 21.043242,13.517453 21.1354,13.262196 21.1875,13 H 21 20.191406 c -0.07067,0.233272 -0.210375,0.435568 -0.419922,0.605469 -0.281771,0.228464 -0.611316,0.341797 -0.988281,0.341797 -0.544504,0 -0.964618,-0.191592 -1.257812,-0.576172 C 17.441906,13.261588 17.372174,13.136009 17.3125,13 Z"
       id="path4"
       inkscape:connector-curvature="0"
       sodipodi:nodetypes="cccsccccscccscccccscccccssccccssccccscscsccccscccsccccccccccccscccccccccccsccc" />
  </g>
</svg>
