<svg viewBox="0 0 24 24" xmlns="http://www.w3.org/2000/svg"><g fill="#69696e"><rect height="1" ry=".464045" width="20" x="2" y="11"/><path d="m8.984375 5.9472656v4.0527344h1.242187c.307929-.4414205.740945-.6757814 1.316407-.6757812.521658 0 .921254.1956952 1.199219.5878906.018799.0265264.031307.0598646.048828.0878906h1.158203c-.100004-.2661064-.220251-.5134558-.378907-.7226562-.426463-.5673507-1.015505-.8496094-1.765624-.8496094-.750123 0-1.337207.2636955-1.763672.7929687v-3.2734375zm9.792969 2.4550782c-.563543 0-1.053708.1297468-1.46875.3886718-.411234.2589251-.726418.6214941-.947266 1.0898438-.017472.0370519-.022964.0812486-.039062.1191406h1.113281c.030043-.0492519.055852-.1038509.089844-.1484375.297002-.3883876.715064-.5820313 1.251953-.5820313.399811 0 .735511.1297468 1.005859.3886719.108813.1012552.191276.2177429.261719.3417969h.955078.119141c-.117263-.3767041-.316388-.7055936-.617188-.9765625-.456926-.4150416-1.031604-.6210937-1.724609-.6210937zm-14.0332034.0253906c-.4493112 0-.8613168.08246-1.2382812.25-.3731566.1675397-.6717302.3961602-.8925782.6855468-.1562292.205565-.2359137.4194272-.2792968.6367188h1.0644531c.056573-.1625309.1653815-.3082662.3359375-.4355469.2551174-.190386.5703012-.2871094.9472656-.2871093.4302725-.0000002.7557147.1111834.9765625.3320312.1121846.1102504.1923791.2412144.2460938.390625h1.0957031c-.0832149-.4224213-.276634-.7672134-.5820312-1.0351562-.4036186-.3579261-.9617843-.5371094-1.6738282-.5371094zm-2.5820312 4.5722656c-.0000089.00273 0 .005077 0 .007812 0 .529276.1955968.967951.5839844 1.314454.3921953.342694.8927177.513672 1.5019531.513672.6815822 0 1.2666165-.25539 1.7578125-.765626.038077.312236.087514.528544.1484375.650391h1.109375v-.091797c-.1446934-.335076-.2167969-.786165-.2167969-1.353515v-.275391h-1.0644531c-.1336853.269005-.345737.489203-.6386719.658203-.2970022.171348-.6101346.257813-.9414062.257813-.3465028 0-.6307146-.09272-.8515626-.279297-.1857913-.156962-.2750251-.377226-.3046874-.636719zm6.8222656 0v1.720703h.9707031l.0507809-.712891c.426465.552121 1.029965.828124 1.810547.828126.731083 0 1.313967-.286264 1.748047-.857422.212229-.281111.370227-.609025.478516-.978516h-1.115235c-.054255.129173-.117892.247286-.191406.349609-.281771.392196-.675216.589844-1.18164.589844-.672056 0-1.167924-.317021-1.492188-.939453zm7.240234 0c.123585.371831.306023.696502.546875.970703.498812.559734 1.170213.839844 2.011719.839844.41885-.000001.814344-.094769 1.1875-.285156.376964-.190386.677688-.445776.902344-.765625.170195-.242313.262353-.49757.314453-.759766h-.1875-.808594c-.070672.233272-.210375.435568-.419922.605469-.281771.228464-.611316.341797-.988281.341797-.544504 0-.964618-.191592-1.257812-.576172-.083485-.109506-.153217-.235085-.212891-.371094z"/></g></svg>