<svg viewBox="0 0 24 24" xmlns="http://www.w3.org/2000/svg" xmlns:xlink="http://www.w3.org/1999/xlink"><linearGradient id="a" gradientTransform="translate(27 -7)" gradientUnits="userSpaceOnUse" x1="14" x2="13.79661" y1="22" y2="2.135593"><stop offset="0" stop-color="#0040dd"/><stop offset="1" stop-color="#0a84ff"/></linearGradient><linearGradient id="b" gradientUnits="userSpaceOnUse" x1="22" x2="14" xlink:href="#a" y1="9" y2="-1"/><linearGradient id="c" gradientUnits="userSpaceOnUse" x1="12.582002" x2="19" xlink:href="#a" y1="5.361473" y2="12"/><filter id="d" color-interpolation-filters="sRGB" height="1.135959" width="1.153052" x="-.076526" y="-.067979"><feGaussianBlur stdDeviation=".44180839"/></filter><radialGradient id="e" cx="55.498295" cy="20.746534" gradientTransform="matrix(1 0 0 .72181261 0 7.10169)" gradientUnits="userSpaceOnUse" r="10.03901"><stop offset="0" stop-color="#ffc765"/><stop offset="1" stop-color="#ffa914"/></radialGradient><radialGradient id="f" cx="55.441967" cy="22.525862" gradientTransform="matrix(1.2258064 0 0 1.0478667 -12.519154 -1.07824)" gradientUnits="userSpaceOnUse" r="2.229184"><stop offset="0" stop-color="#ffe9c3"/><stop offset="1" stop-color="#ffe9c3" stop-opacity="0"/></radialGradient><path d="m7.8984375 2-5.8984375 16h1.6875c.1834758 0 .3391616-.05267.4667969-.158203.1356125-.10553.2275274-.227232.2753906-.365235l1.328125-3.835937h6.4843755l.472656 1.359375h1.960937l.16211-.162109-4.72461-12.837891zm1.1015625 2.09375c.071795.3003551.1467904.5800771.2265625.8398438.079772.2597666.1604623.4887687.2402344.6835937l2.2246091 6.4414065h-5.3828122l2.2246093-6.4296878c.0717949-.1948249.1467904-.421874.2265625-.6816406s.1604623-.5450428.2402344-.8535156z" fill="#69696e"/><g transform="matrix(.66847283 0 0 .66847283 -26.031719 2.090803)"><path d="m57.661017 18.305085 12.20339-12.0000003 1.118644-1.0169491c.535947-.4093238 1.138074-.6755092 2.338983-.6101695l.813559.6101695c.306849.6596707.152068 1.3286734.101695 2.0338983l-11.694915 16.7796611z" fill="#d6d6d6" stroke="#98989d" stroke-width="1.495947"/><path d="m59.389831 19.322034 12.813559-13.1186442.686441-.5338983.355932.3305085-12.122973 15.267452z" fill="#f9f9f9" filter="url(#d)"/><path d="m54.915254 19.525424c-2.355192 1.12312-2.986044 2.645733-4.067796 4.881356-1.280902 3.099136-3.365034 4.179849-6 5.898305 4.002224 2.208107 12.344829 3.382311 15.355932-1.016949 1.803572-2.317145 5.097789-5.637418 1.932203-8.237289-2.997587-2.267403-4.004437-2.954713-7.220339-1.525423z" fill="url(#e)" stroke="#f58b00" stroke-width="1.495947"/><path d="m49.395592 26.820763c-1.20494 1.428749-2.746668 2.309185-4.547936 3.483925 4.002224 2.208106 12.344366 3.383635 15.355469-1.015626-2.950168-3.198325-8.750083-1.802762-10.807533-2.468299z" fill="#0a84ff" stroke="#0040dd" stroke-width="1.495947"/><ellipse cx="55.441967" cy="22.525862" fill="url(#f)" rx="2.732548" ry="2.335888"/></g><path d="m17.199219 9.0097656-.064453.0917969-3.314454 2.9707035-.697265-1.892578c-.007973.005316-.017456.010299-.025391.015624-.325061.217649-.631831.46163-.916015.730469a1.0001 1.0001 0 0 0 -.3125.726563v.046875a1.0001 1.0001 0 0 0 -.275391.078125l.097656.28125h-.464844a1.0001 1.0001 0 0 0 -.058593.078125c-.175075.263285-.320033.530123-.447266.787109a1.0001 1.0001 0 0 0 -.001953.003906c-.027332.055849-.054244.111412-.080078.167969-.078283.169463-.144194.359394-.212891.544922h1.644531l-.78125.699219-1.185546.492187c-.01843.109686-.035388.21979-.048828.330078-.023831.193965-.031833.368103-.039063.523438v-.027344c-.0076.103922-.012625.208341-.015625.3125a1.0001 1.0001 0 0 0 0 .029297c0 1.832596.75494 3.653379 2.050781 4.949219.633699.633699 1.393986 1.13637 2.21875 1.486328l1.345703-1.638672c-.0077-.000378-.111847-.030178-.070312-.017578.281498.08545-.732704-.278645-.460938-.166016.271766.112631-.702775-.347714-.443359-.208984.259416.138728-.664488-.415444-.419922-.251953.244567.163492-.621893-.479649-.394531-.292969.227361.186679-.571248-.538147-.363281-.330078.207966.208068-.516645-.590733-.330079-.363281.18657.227452-.454387-.639178-.291015-.394532.163371.244646-.390555-.679404-.251953-.419922.138601.259486-.323435-.71518-.210938-.443359s-.24937-.742477-.164062-.460937c.08531.281539-.176439-.765109-.119141-.476563.0573.288547-.101007-.777149-.072265-.484375.009399.09565-.004613-.05895-.007813-.160156.01101-.119732.021917-.384058.029297-.644531.01355-.125731.01972-.18619.03125-.3125.02069-.120234.029828-.176991.048828-.298829.03376-.141669.049928-.217109.080078-.355468l.140625-.109375a1.0001 1.0001 0 0 0 .271485.115234v.001953a1.0001 1.0001 0 0 0 .003906 0 1.0001 1.0001 0 0 0 .09375.019532 1.0001 1.0001 0 0 0 .03125.003906l.253906.253906v-.246094h.689453l-.689453-1.298828v-.441406c.134934-.168475.107187-.140546.144531-.189453 0 0 .001953-.001953.001953-.001953.036656-.01837.373312-.355983.529297-.525391.050378-.037088.108567-.08073.177735-.134766l-.001954-.003906c.108148-.084333.220756-.170441.302735-.240234.150408-.08523.377238-.223444.517578-.316407.157911-.065459.393073-.172675.544922-.248046.163174-.04494.416303-.124689.578125-.181641.170047-.02547.438189-.07437.603516-.111328.233885-.006525.709256-.037766.740234-.052735.192683.013545.555252.035997.347656.015626-.292774-.028741.772922.129568.484375.072265-.288546-.0573.758102.204449.476563.119141-.28154-.08531.732758.276559.460937.164062s.702844.349539.443359.210938c-.259482-.138602.664569.415324.419922.251953-.244646-.163372.621984.477584.394532.291015-.12432-.101971.04234.0383.199218.179688l1.16211-1.648438c-.02004-.017789-.021825-.022108-.046875-.042968a1.0001 1.0001 0 0 0 -.011719-.007813c-.105407-.08544-.212071-.166925-.322266-.246093l-.011718-.007813c-.04012-.02998-.101397-.07924-.197266-.144531a1.0001 1.0001 0 0 0 -.005859-.003906c-.153542-.103025-.311442-.20047-.472657-.2910161l-.005859-.0039063c.02913.015987-.009195-.0094601-.078125-.0488281l-.017578-.0097656a1.0001 1.0001 0 0 0 -.017578-.0097657c-.404743-.2197597-.831416-.3990768-1.271485-.5351562-.216607-.0668249-.436135-.1244222-.658203-.1699219a1.0001 1.0001 0 0 0 -.001953 0c-.000012-.0000025-.005559.0000296-.005859 0h-.001953c-.002-.0004053-.00386-.0015531-.00586-.0019531-.191158-.038765-.384297-.0672307-.578125-.0898438l-.041015-.0058593c-.0067-.0009756-.012872-.0029463-.019532-.0039063a1.0001 1.0001 0 0 0 -.042968-.0039062c-.03261-.00331-.06872-.0031094-.101563-.0058594-.135596-.011868-.274106-.0161834-.412109-.0214844z" fill="#fff" fill-opacity=".784314"/><g transform="translate(0 9)"><path d="m17 1c-.278017 0-.550248.025655-.818359.0625a6 6 0 0 0 -.15625.019531c-.260623.042815-.513416.1044141-.761719.1796876a6 6 0 0 0 -.195313.066406c-.208064.071031-.412224.1517256-.609375.2441406a6 6 0 0 0 -.142578.0625c-.230295.1152879-.44981.2481044-.662109.390625a6 6 0 0 0 -.785156.6269532v2.1015624h.820312a3.9966359 3.9966359 0 0 1 3.306641-1.7539058 3.9966359 3.9966359 0 0 1 3.998047 3.9960938 3.9966359 3.9966359 0 0 1 -.134766 1.0039062h1.140625v2.308594a6 6 0 0 0 .109375-.177735c.07907-.128745.155055-.2597304.224609-.3945309a6 6 0 0 0 .150391-.3164062c.05619-.1264208.104777-.2559424.152344-.3867188a6 6 0 0 0 .171875-.5566406c.03105-.121303.06051-.2430596.08398-.3671875a6 6 0 0 0 .0625-.4082031c.01505-.1280373.02257-.258267.0293-.3886719a6 6 0 0 0 .015626-.3125 6 6 0 0 0 -.648438-2.7128906c-.0013-.00259-.0026-.00523-.0039-.00781a6 6 0 0 0 -.002-.00391 6 6 0 0 0 -.275391-.4785156c-.008-.012514-.01344-.026611-.02148-.039063a6 6 0 0 0 -.0078-.011719 6 6 0 0 0 -.3125-.4355469c-.01036-.013218-.01882-.027886-.0293-.041016a6 6 0 0 0 -.0078-.00977 6 6 0 0 0 -.30664-.3476562c-.03435-.036718-.06631-.075479-.101563-.1113282a6 6 0 0 0 -.267578-.25c-.058794-.0529857-.114892-.1094766-.175766-.1601495a6 6 0 0 0 -.28711-.21875c-.059304-.0436512-.116801-.0893589-.177734-.1308594a6 6 0 0 0 -.410156-.2519531c-.03011-.017152-.05746-.038044-.08789-.054687a6 6 0 0 0 -.01367-.00781 6 6 0 0 0 -1.089843-.4589844 6 6 0 0 0 -.564454-.1445312c-.0019-.000385-.004.0003832-.0059 0-.176343-.035978-.355582-.063861-.537109-.083984a6 6 0 0 0 -.05273-.00781h-.002c-.201077-.0204201-.404814-.0312559-.611248-.0312559z" fill="url(#b)"/><path d="m12 3.6914062c-.142904.214906-.26755.4429757-.382812.6757813a6 6 0 0 0 -.06836.1445313c-.10635.2299543-.202198.4646168-.279297.7089843a6 6 0 0 0 -.002.00586 6 6 0 0 0 -.03516.140625c-.05348.1857855-.0974.3756796-.132813.5683594a6 6 0 0 0 -.05273.3476562c-.01815.1477345-.02617.2983215-.0332.4492188a6 6 0 0 0 -.013628.2675775 6 6 0 0 0 6 6 6 6 0 0 0 4.134766-1.65625v-2.078125h-.84961a3.9966359 3.9966359 0 0 1 -3.289062 1.728516 3.9966359 3.9966359 0 0 1 -3.996094-3.9980472 3.9966359 3.9966359 0 0 1 .130859-.9960938h-1.130859z" fill="url(#c)"/></g></svg>