<?xml version="1.0" encoding="UTF-8" standalone="no"?>
<svg
   xmlns:dc="http://purl.org/dc/elements/1.1/"
   xmlns:cc="http://creativecommons.org/ns#"
   xmlns:rdf="http://www.w3.org/1999/02/22-rdf-syntax-ns#"
   xmlns:svg="http://www.w3.org/2000/svg"
   xmlns="http://www.w3.org/2000/svg"
   xmlns:sodipodi="http://sodipodi.sourceforge.net/DTD/sodipodi-0.dtd"
   xmlns:inkscape="http://www.inkscape.org/namespaces/inkscape"
   viewBox="0 0 24 24"
   version="1.1"
   id="svg4"
   sodipodi:docname="lc_strongemphasischarstyle.svg"
   inkscape:version="0.92.3 (2405546, 2018-03-11)">
  <metadata
     id="metadata10">
    <rdf:RDF>
      <cc:Work
         rdf:about="">
        <dc:format>image/svg+xml</dc:format>
        <dc:type
           rdf:resource="http://purl.org/dc/dcmitype/StillImage" />
        <dc:title></dc:title>
      </cc:Work>
    </rdf:RDF>
  </metadata>
  <defs
     id="defs8" />
  <sodipodi:namedview
     pagecolor="#ffffff"
     bordercolor="#666666"
     borderopacity="1"
     objecttolerance="10"
     gridtolerance="10"
     guidetolerance="10"
     inkscape:pageopacity="0"
     inkscape:pageshadow="2"
     inkscape:window-width="1366"
     inkscape:window-height="716"
     id="namedview6"
     showgrid="true"
     inkscape:zoom="9.8333333"
     inkscape:cx="-9.3280839"
     inkscape:cy="11.616714"
     inkscape:window-x="-8"
     inkscape:window-y="-8"
     inkscape:window-maximized="1"
     inkscape:current-layer="svg4">
    <inkscape:grid
       type="xygrid"
       id="grid817" />
  </sodipodi:namedview>
  <g
     aria-label="S"
     style="font-style:normal;font-weight:normal;font-size:27.33304596px;line-height:1.25;font-family:sans-serif;letter-spacing:0px;word-spacing:0px;fill:#4b4b4f;fill-opacity:1;stroke:none;stroke-width:0.68332618"
     id="text821">
    <path
       d="m 15.170623,16.568088 q 0,-1.027658 -0.680657,-1.588199 Q 13.809309,14.419348 12.047609,13.792076 8.3640536,12.630955 6.5890072,11.30968 4.8139607,9.9750584 4.8139607,7.4659702 q 0,-2.4423572 2.1087018,-3.9504793 2.122048,-1.5081222 5.3785245,-1.5081222 3.229783,0 5.2851,1.6682767 2.068664,1.6549306 2.001932,4.2707885 l -0.02669,0.080077 h -4.377558 q 0,-1.1611206 -0.787427,-1.8818162 -0.787426,-0.7340418 -2.175433,-0.7340418 -1.361313,0 -2.135394,0.6005797 -0.7740802,0.6005796 -0.7740802,1.4814297 0,0.8541577 0.7740802,1.37466 0.787427,0.5071562 2.936167,1.2812364 3.309861,0.98762 4.978138,2.429011 1.681623,1.441391 1.681623,3.963826 0,2.562473 -2.001932,4.01721 -1.988586,1.441391 -5.285101,1.441391 -3.3098609,0 -5.7255256,-1.65493 Q 4.2534197,18.67679 4.3201508,15.553776 l 0.026692,-0.08008 h 4.3909044 q 0,1.681623 0.9075425,2.402319 0.9075429,0.720696 2.7493199,0.720696 1.401353,0 2.08201,-0.560541 0.694003,-0.560541 0.694003,-1.468084 z"
       style="font-style:normal;font-variant:normal;font-weight:900;font-stretch:normal;font-family:Roboto;-inkscape-font-specification:'Roboto Heavy';stroke-width:0.68332618;fill:#4b4b4f;fill-opacity:1"
       id="path823" />
  </g>
</svg>
