<?xml version="1.0" encoding="UTF-8" standalone="no"?>
<svg
   xmlns:dc="http://purl.org/dc/elements/1.1/"
   xmlns:cc="http://creativecommons.org/ns#"
   xmlns:rdf="http://www.w3.org/1999/02/22-rdf-syntax-ns#"
   xmlns:svg="http://www.w3.org/2000/svg"
   xmlns="http://www.w3.org/2000/svg"
   xmlns:sodipodi="http://sodipodi.sourceforge.net/DTD/sodipodi-0.dtd"
   xmlns:inkscape="http://www.inkscape.org/namespaces/inkscape"
   viewBox="0 0 24 24"
   version="1.1"
   id="svg8"
   sodipodi:docname="lc_strikeout.svg"
   inkscape:version="0.92.3 (2405546, 2018-03-11)">
  <metadata
     id="metadata14">
    <rdf:RDF>
      <cc:Work
         rdf:about="">
        <dc:format>image/svg+xml</dc:format>
        <dc:type
           rdf:resource="http://purl.org/dc/dcmitype/StillImage" />
      </cc:Work>
    </rdf:RDF>
  </metadata>
  <defs
     id="defs12" />
  <sodipodi:namedview
     pagecolor="#ffffff"
     bordercolor="#666666"
     borderopacity="1"
     objecttolerance="10"
     gridtolerance="10"
     guidetolerance="10"
     inkscape:pageopacity="0"
     inkscape:pageshadow="2"
     inkscape:window-width="1366"
     inkscape:window-height="716"
     id="namedview10"
     showgrid="true"
     inkscape:zoom="19.666667"
     inkscape:cx="12.184042"
     inkscape:cy="5.2407319"
     inkscape:window-x="-8"
     inkscape:window-y="-8"
     inkscape:window-maximized="1"
     inkscape:current-layer="svg8">
    <inkscape:grid
       type="xygrid"
       id="grid821" />
  </sodipodi:namedview>
  <rect
     style="fill:#4b4b4f;fill-opacity:1"
     id="rect2"
     y="11"
     x="2"
     width="20"
     ry="0.46404499"
     height="1" />
  <path
     style="font-style:normal;font-variant:normal;font-weight:normal;font-stretch:normal;font-size:medium;line-height:1.25;font-family:Roboto;-inkscape-font-specification:Roboto;letter-spacing:0px;word-spacing:0px;fill:#4b4b4f;fill-opacity:1;stroke:none;stroke-width:0.26022056"
     d="M 9.9980469,5.9960938 V 10.5 H 11.001953 V 9.9628906 c 0.125602,-0.2536456 0.293438,-0.4547102 0.503906,-0.6035156 0.213863,-0.1521874 0.476244,-0.2285156 0.785157,-0.2285156 0.47525,0 0.827757,0.2005401 1.058593,0.5996094 0.129159,0.2181872 0.21544,0.4803862 0.273438,0.7695312 h 1.019531 c -0.08137,-0.5359875 -0.247541,-0.9959373 -0.509766,-1.3691406 -0.3802,-0.5411106 -0.908961,-0.8105469 -1.58789,-0.8105469 -0.34286,0 -0.644351,0.064846 -0.902344,0.1933594 C 11.38798,8.6421857 11.17508,8.8268128 11.001953,9.0703125 V 5.9960938 Z M 6.4550781,8.3203125 c -0.6314043,0 -1.6814628,0.1646636 -2.0820312,0.4960937 -0.397174,0.3314304 -0.5848213,0.6966341 -0.5644531,1.0957032 l 0.00977,0.03125 h 0.9570313 c 0,-0.229972 0.1004975,-0.4255575 0.3007812,-0.5878906 0.2036789,-0.1657154 0.466571,-0.2480469 0.7890625,-0.2480469 0.3598326,0 0.639048,0.093814 0.8359375,0.2832031 0.1968895,0.1860068 0.318339,0.4412886 0.2949219,0.761719 V 10.5 H 8 V 10.162109 C 8,9.5668879 7.8098881,9.1113956 7.4296875,8.796875 7.049487,8.4789725 7.0796932,8.3203125 6.4550781,8.3203125 Z m 11.9492189,0 c -0.797742,0 -1.410166,0.2629085 -1.837891,0.7871094 C 16.24779,9.4984876 16.04819,9.9626486 15.96875,10.5 H 17 c 0.0521,-0.305745 0.131975,-0.5891468 0.273437,-0.8261719 0.227442,-0.3787774 0.60469,-0.5664062 1.13086,-0.5664062 0.363228,0 0.664719,0.1167837 0.902343,0.3535156 0.237626,0.233354 0.355469,0.5187036 0.355469,0.8535155 h 0.90625 l 0.0098,-0.03125 C 20.591703,9.7319465 20.393174,9.2674493 19.982422,8.8886719 19.575064,8.5098945 19.04928,8.3203125 18.404297,8.3203125 Z M 3.5429688,12.5 c 0.024528,0.449863 0.1674814,0.812203 0.4394531,1.080078 0.3021236,0.290847 1.2720077,0.4375 1.8457031,0.4375 0.346254,0 0.136818,-0.08781 0.4355469,-0.263672 0.3021236,-0.179242 0.5457163,-0.402223 0.7324219,-0.666015 0.00339,0.128514 0.014277,0.258204 0.03125,0.386718 0.020369,0.125132 0.046132,0.269833 0.080078,0.435547 H 8.1425781 C 8.088264,13.734295 8.0496649,13.555672 8.0292969,13.373047 8.0089296,13.190422 8.0146056,13.000294 8,12.804688 V 12.5 H 6.8496094 c -0.1036951,0.143474 -0.2342266,0.279587 -0.4238281,0.400391 -0.2919396,0.186006 -0.6191946,0.279297 -0.9824219,0.279297 -0.298729,0 -0.5249752,-0.07085 -0.6777344,-0.212891 C 4.6389435,12.849004 4.5781202,12.687525 4.5566407,12.5 Z m 6.4550781,0 v 1.410156 h 0.8203121 l 0.123047,-0.724609 c 0.176522,0.273937 0.397839,0.481005 0.666016,0.623047 0.268177,0.13866 0.584038,0.208984 0.947266,0.208984 0.668744,0 1.194018,-0.242945 1.574218,-0.726562 C 14.30946,13.061791 14.443769,12.796295 14.539062,12.5 h -1.072265 c -0.03514,0.07003 -0.07017,0.140591 -0.113281,0.203125 -0.230836,0.334812 -0.580879,0.501953 -1.052735,0.501953 -0.319096,0 -0.584454,-0.07633 -0.794922,-0.228516 C 11.343484,12.857226 11.21197,12.691773 11.097656,12.5 Z m 6.1523431,0 c 0.103575,0.267612 0.236768,0.516324 0.416016,0.736328 0.424331,0.520819 1.036754,0.78125 1.837891,0.78125 0.58388,0 1.095293,-0.183578 1.533203,-0.548828 0.347173,-0.290002 0.547721,-0.613726 0.611328,-0.96875 h -0.951172 c -0.06021,0.160136 -0.160847,0.305593 -0.316406,0.431641 -0.251204,0.202916 -0.544277,0.304687 -0.876953,0.304687 -0.529565,0 -0.906812,-0.186581 -1.13086,-0.558594 -0.03337,-0.05591 -0.0595,-0.117728 -0.08789,-0.177734 z"
     id="path829"
     inkscape:connector-curvature="0"
     sodipodi:nodetypes="cccccsccccsccccscccccscsccscssccccscccccsccsccccccscccsccccccccscccsscccccsccccsccc" />
</svg>
