<?xml version="1.0" encoding="UTF-8" standalone="no"?>
<svg
   xmlns:dc="http://purl.org/dc/elements/1.1/"
   xmlns:cc="http://creativecommons.org/ns#"
   xmlns:rdf="http://www.w3.org/1999/02/22-rdf-syntax-ns#"
   xmlns:svg="http://www.w3.org/2000/svg"
   xmlns="http://www.w3.org/2000/svg"
   xmlns:xlink="http://www.w3.org/1999/xlink"
   xmlns:sodipodi="http://sodipodi.sourceforge.net/DTD/sodipodi-0.dtd"
   xmlns:inkscape="http://www.inkscape.org/namespaces/inkscape"
   viewBox="0 0 24 24"
   version="1.1"
   id="svg4"
   sodipodi:docname="lc_symbolshapes.cloud.svg"
   inkscape:version="0.92.3 (2405546, 2018-03-11)">
  <metadata
     id="metadata10">
    <rdf:RDF>
      <cc:Work
         rdf:about="">
        <dc:format>image/svg+xml</dc:format>
        <dc:type
           rdf:resource="http://purl.org/dc/dcmitype/StillImage" />
        <dc:title></dc:title>
      </cc:Work>
    </rdf:RDF>
  </metadata>
  <defs
     id="defs8">
    <linearGradient
       gradientTransform="translate(-28.372881,-2.8474575)"
       id="a"
       gradientUnits="userSpaceOnUse"
       x1="12"
       x2="12"
       y1="21.5"
       y2="2.5">
      <stop
         offset="0"
         stop-color="#e5eefc"
         id="stop2" />
      <stop
         offset="1"
         stop-color="#fcfdff"
         id="stop4" />
    </linearGradient>
    <linearGradient
       inkscape:collect="always"
       xlink:href="#a"
       id="linearGradient856"
       x1="19.389832"
       y1="20.440678"
       x2="19.762712"
       y2="3.3559322"
       gradientUnits="userSpaceOnUse" />
  </defs>
  <sodipodi:namedview
     pagecolor="#ffffff"
     bordercolor="#666666"
     borderopacity="1"
     objecttolerance="10"
     gridtolerance="10"
     guidetolerance="10"
     inkscape:pageopacity="0"
     inkscape:pageshadow="2"
     inkscape:window-width="1366"
     inkscape:window-height="716"
     id="namedview6"
     showgrid="false"
     inkscape:zoom="9.8333333"
     inkscape:cx="-2.4915254"
     inkscape:cy="12"
     inkscape:window-x="-8"
     inkscape:window-y="-8"
     inkscape:window-maximized="1"
     inkscape:current-layer="svg4" />
  <path
     d="m12 3.5053088c-1.708323 0-3.1410886 1.2408975-3.4863316 2.8821275-.5561108-.2825513-1.191318-.4550728-1.8544322-.4550728-2.2941508 0-4.1539275 1.9016015-4.1539275 4.2473455 0 1.46609.7123914 2.763535 1.8173433 3.526814-1.078545.625607-1.8173433 1.789124-1.8173433 3.147586 0 2.010638 1.5940943 3.640582 3.5605093 3.640582.9166965 0 1.7425798-.366188 2.373673-.948067.6310911.581878 1.4569794.948067 2.373673.948067 1.708317 0 3.141089-1.240902 3.486331-2.882127.55611.282552 1.191318.455073 1.854433.455073 2.294151 0 4.153927-1.901601 4.153927-4.247346 0-.837039-.258749-1.61765-.667596-2.275363 1.101927-.618895 1.854432-1.8092484 1.854432-3.1855099 0-2.0106379-1.594094-3.640582-3.560509-3.640582-1.039598 0-1.982357.4490645-2.633294 1.1756046-.505094-1.3823024-1.772819-2.3891319-3.300888-2.3891319z"
     fill="#fff"
     stroke="#808080"
     stroke-linecap="round"
     stroke-linejoin="round"
     stroke-width="1.010617"
     id="path2"
     style="fill-opacity:1;fill:url(#linearGradient856);stroke:#0a84ff;stroke-opacity:1" />
</svg>
