<?xml version="1.0" encoding="UTF-8" standalone="no"?>
<svg
   xmlns:dc="http://purl.org/dc/elements/1.1/"
   xmlns:cc="http://creativecommons.org/ns#"
   xmlns:rdf="http://www.w3.org/1999/02/22-rdf-syntax-ns#"
   xmlns:svg="http://www.w3.org/2000/svg"
   xmlns="http://www.w3.org/2000/svg"
   xmlns:xlink="http://www.w3.org/1999/xlink"
   xmlns:sodipodi="http://sodipodi.sourceforge.net/DTD/sodipodi-0.dtd"
   xmlns:inkscape="http://www.inkscape.org/namespaces/inkscape"
   viewBox="0 0 24 24"
   version="1.1"
   id="svg23887"
   sodipodi:docname="lc_spacing.svg"
   inkscape:version="0.92.3 (2405546, 2018-03-11)">
  <metadata
     id="metadata23893">
    <rdf:RDF>
      <cc:Work
         rdf:about="">
        <dc:format>image/svg+xml</dc:format>
        <dc:type
           rdf:resource="http://purl.org/dc/dcmitype/StillImage" />
      </cc:Work>
    </rdf:RDF>
  </metadata>
  <defs
     id="defs23891">
    <linearGradient
       inkscape:collect="always"
       xlink:href="#a"
       id="linearGradient24445"
       gradientUnits="userSpaceOnUse"
       x1="5.5752277"
       y1="21.5"
       x2="5.5777283"
       y2="15.5"
       gradientTransform="matrix(-1,0,0,1,24.006224,-9.9698843e-8)" />
    <linearGradient
       id="linearGradient24472"
       gradientTransform="translate(-25.830508,-3.59322)"
       gradientUnits="userSpaceOnUse"
       x1="14"
       x2="13.79661"
       y1="22"
       y2="2.1355929">
      <stop
         offset="0"
         stop-color="#0040dd"
         id="stop23865-0" />
      <stop
         offset="1"
         stop-color="#0a84ff"
         id="stop23867-5" />
    </linearGradient>
    <linearGradient
       inkscape:collect="always"
       xlink:href="#a"
       id="linearGradient24483"
       x1="11"
       y1="22"
       x2="11"
       y2="15"
       gradientUnits="userSpaceOnUse" />
  </defs>
  <sodipodi:namedview
     pagecolor="#ffffff"
     bordercolor="#666666"
     borderopacity="1"
     objecttolerance="10"
     gridtolerance="10"
     guidetolerance="10"
     inkscape:pageopacity="0"
     inkscape:pageshadow="2"
     inkscape:window-width="1366"
     inkscape:window-height="716"
     id="namedview23889"
     showgrid="true"
     inkscape:zoom="16"
     inkscape:cx="11.769681"
     inkscape:cy="2.6909524"
     inkscape:window-x="-8"
     inkscape:window-y="-8"
     inkscape:window-maximized="1"
     inkscape:current-layer="svg23887">
    <inkscape:grid
       type="xygrid"
       id="grid24438" />
  </sodipodi:namedview>
  <linearGradient
     id="a"
     gradientTransform="translate(-25.830508 -3.59322)"
     gradientUnits="userSpaceOnUse"
     x1="14"
     x2="13.79661"
     y1="22"
     y2="2.135593">
    <stop
       offset="0"
       stop-color="#0040dd"
       id="stop23865" />
    <stop
       offset="1"
       stop-color="#0a84ff"
       id="stop23867" />
  </linearGradient>
  <linearGradient
     id="b"
     gradientUnits="userSpaceOnUse"
     x1="5.5752277"
     x2="5.5777283"
     xlink:href="#a"
     y1="21.5"
     y2="15.5" />
  <linearGradient
     id="c"
     gradientUnits="userSpaceOnUse"
     x1="18.500002"
     x2="18.500002"
     xlink:href="#a"
     y1="21.494141"
     y2="15.494141" />
  <linearGradient
     id="d"
     gradientUnits="userSpaceOnUse"
     x1="12"
     x2="12"
     xlink:href="#a"
     y1="22"
     y2="15" />
  <rect
     style="fill:url(#linearGradient24483);fill-opacity:1;stroke:none"
     id="rect24475"
     width="14"
     height="1"
     x="5"
     y="18" />
  <g
     fill="#696969"
     stroke-width=".42256"
     id="g23879">
    <path
       d="m9.1568003 11.201786h-4.6547596l-.9738681 2.797808h-2.1705706l4.539216-12.0165428h1.8734582l4.5474688 12.0165428h-2.178823zm-4.0687881-1.6836364h3.4828166l-1.7414083-4.9848844z"
       id="path23875"
       style="fill:#4b4b4f;fill-opacity:1" />
    <path
       d="m17.294376 11.383355 3.053655-9.4003038h2.294367l-4.324635 12.0165428h-2.022014l-4.308129-12.0165428h2.286114z"
       id="path23877"
       style="fill:#4b4b4f;fill-opacity:1" />
  </g>
  <g
     stroke-linecap="round"
     stroke-linejoin="round"
     id="g23885">
    <path
       style="fill:url(#b);stroke:none"
       d="m 5.484375,15 a 0.50074744,0.50074744 0 0 0 -0.3398438,0.146484 l -2.9921874,3 a 0.50074744,0.50074744 0 0 0 0,0.707032 l 2.9921874,3 A 0.50074744,0.50074744 0 0 0 6,21.5 v -6 A 0.50074744,0.50074744 0 0 0 5.484375,15 Z"
       id="path23881" />
  </g>
  <path
     id="path24443"
     d="m 18.521849,15 a 0.50074744,0.50074744 0 0 1 0.339843,0.146484 l 2.992188,3 a 0.50074744,0.50074744 0 0 1 0,0.707032 l -2.992188,3 A 0.50074744,0.50074744 0 0 1 18.006224,21.5 v -6 A 0.50074744,0.50074744 0 0 1 18.521849,15 Z"
     style="fill:url(#linearGradient24445);stroke:none"
     inkscape:connector-curvature="0" />
</svg>
