<?xml version="1.0" encoding="UTF-8" standalone="no"?>
<svg
   xmlns:dc="http://purl.org/dc/elements/1.1/"
   xmlns:cc="http://creativecommons.org/ns#"
   xmlns:rdf="http://www.w3.org/1999/02/22-rdf-syntax-ns#"
   xmlns:svg="http://www.w3.org/2000/svg"
   xmlns="http://www.w3.org/2000/svg"
   xmlns:sodipodi="http://sodipodi.sourceforge.net/DTD/sodipodi-0.dtd"
   xmlns:inkscape="http://www.inkscape.org/namespaces/inkscape"
   viewBox="0 0 24 24"
   version="1.1"
   id="svg8"
   sodipodi:docname="lc_shadowed.svg"
   inkscape:version="0.92.3 (2405546, 2018-03-11)">
  <metadata
     id="metadata14">
    <rdf:RDF>
      <cc:Work
         rdf:about="">
        <dc:format>image/svg+xml</dc:format>
        <dc:type
           rdf:resource="http://purl.org/dc/dcmitype/StillImage" />
        <dc:title></dc:title>
      </cc:Work>
    </rdf:RDF>
  </metadata>
  <defs
     id="defs12" />
  <sodipodi:namedview
     pagecolor="#ffffff"
     bordercolor="#666666"
     borderopacity="1"
     objecttolerance="10"
     gridtolerance="10"
     guidetolerance="10"
     inkscape:pageopacity="0"
     inkscape:pageshadow="2"
     inkscape:window-width="1366"
     inkscape:window-height="692"
     id="namedview10"
     showgrid="false"
     inkscape:zoom="9.8333333"
     inkscape:cx="-3.1525424"
     inkscape:cy="11.186441"
     inkscape:window-x="0"
     inkscape:window-y="0"
     inkscape:window-maximized="1"
     inkscape:current-layer="svg8" />
  <path
     d="m13.582031 2.9160156 5.890625 16.9199224c.112844.325012-.128612.664247-.472656.664062h-2.615234-.0039l1.214844 1.212891c.02292.02232.03974.04937.06445.07031.181226.14458.422556.216799.724606.216799h3.615234l-6.266117-18h-.0098zm-2.583984 4.2011719c-.05618.1799545-.116129.3798898-.167969.5332031l-.0039.013672-1.5429689 5.0175784h2.0917969l.671875-2.183594-.869141-2.8359375c-.058641-.1586056-.119323-.361347-.179693-.544922zm-2.7871095 9.0585935-.9648437 3.169922c-.00182.0065-.00377.01306-.00586.01953-.1031235.296937-.2978614.554144-.546875.769532h-.00195c-.2836662.243012-.6571347.365235-1.0371119.365235h-2.1542969l1.5 1.5h2.6542969c.2847896 0 .5210777-.08149.7109375-.244141.1984897-.171686.3333038-.355892.4023437-.554687l1.0742188-3.525391h4.4218751l-.460938-1.5z"
     fill="#eac282"
     fill-rule="evenodd"
     id="path2"
     style="fill:#98989d;fill-opacity:1" />
  <text
     fill="#696969"
     font-family="sans-serif"
     font-size="27.12801"
     letter-spacing="0"
     transform="scale(.97726768 1.0232611)"
     word-spacing="0"
     x="3.016799"
     y="19.545355"
     id="text6"
     style="fill:#69696e;fill-opacity:1;">
    <tspan
       fill="#696969"
       font-family="Carlito"
       font-weight="bold"
       x="3.016799"
       y="19.545355"
       id="tspan4"
       style="fill:#69696e;fill-opacity:1;">A</tspan>
  </text>
</svg>
