<svg viewBox="0 0 24 24" xmlns="http://www.w3.org/2000/svg" xmlns:xlink="http://www.w3.org/1999/xlink"><linearGradient id="a" gradientTransform="translate(27 -7)" gradientUnits="userSpaceOnUse" x1="14" x2="13.79661" y1="22" y2="2.135593"><stop offset="0" stop-color="#0040dd"/><stop offset="1" stop-color="#0a84ff"/></linearGradient><linearGradient id="b" gradientUnits="userSpaceOnUse" x1="22" x2="14" xlink:href="#a" y1="9" y2="-1"/><linearGradient id="c" gradientUnits="userSpaceOnUse" x1="12.582002" x2="19" xlink:href="#a" y1="5.361473" y2="12"/><filter id="d" color-interpolation-filters="sRGB" height="1.135959" width="1.153052" x="-.076526" y="-.067979"><feGaussianBlur stdDeviation=".44180839"/></filter><radialGradient id="e" cx="55.498295" cy="20.746534" gradientTransform="matrix(1 0 0 .72181261 0 7.10169)" gradientUnits="userSpaceOnUse" r="10.03901"><stop offset="0" stop-color="#ffc765"/><stop offset="1" stop-color="#ffa914"/></radialGradient><radialGradient id="f" cx="55.441967" cy="22.525862" gradientTransform="matrix(1.2258064 0 0 1.0478667 -12.519154 -1.07824)" gradientUnits="userSpaceOnUse" r="2.229184"><stop offset="0" stop-color="#ffe9c3"/><stop offset="1" stop-color="#ffe9c3" stop-opacity="0"/></radialGradient><path d="m11.723339 14.263736h-5.9466774l-1.2102009 3.736264h-2.5664607l5.5815302-16h2.3995362l5.5189336 16h-2.576893zm-5.2163837-2.230769h4.4965227l-2.2013143-6.8351648h-.062598z" fill="#4b4b4f"/><g transform="matrix(.66847283 0 0 .66847283 -26.031719 2.090803)"><path d="m57.661017 18.305085 12.20339-12.0000003 1.118644-1.0169491c.535947-.4093238 1.138074-.6755092 2.338983-.6101695l.813559.6101695c.306849.6596707.152068 1.3286734.101695 2.0338983l-11.694915 16.7796611z" fill="#d6d6d6" stroke="#98989d" stroke-width="1.495947"/><path d="m59.389831 19.322034 12.813559-13.1186442.686441-.5338983.355932.3305085-12.122973 15.267452z" fill="#f9f9f9" filter="url(#d)"/><path d="m54.915254 19.525424c-2.355192 1.12312-2.986044 2.645733-4.067796 4.881356-1.280902 3.099136-3.365034 4.179849-6 5.898305 4.002224 2.208107 12.344829 3.382311 15.355932-1.016949 1.803572-2.317145 5.097789-5.637418 1.932203-8.237289-2.997587-2.267403-4.004437-2.954713-7.220339-1.525423z" fill="url(#e)" stroke="#f58b00" stroke-width="1.495947"/><path d="m49.395592 26.820763c-1.20494 1.428749-2.746668 2.309185-4.547936 3.483925 4.002224 2.208106 12.344366 3.383635 15.355469-1.015626-2.950168-3.198325-8.750083-1.802762-10.807533-2.468299z" fill="#0a84ff" stroke="#0040dd" stroke-width="1.495947"/><ellipse cx="55.441967" cy="22.525862" fill="url(#f)" rx="2.732548" ry="2.335888"/></g><path d="m17.199219 9.0097656-.06445.091797-3.314454 2.9707035-1.027741-1.673564c-.330475.219014.0079-.0053 0 0-.325061.217649-.326746.25824-.61093.527079-.199575.18896-.312592.451724-.3125.726563v.04687c-.09507.0127-.187815.03901-.275391.07813l.09766.28125h-.464844c-.02079.02507-.04035.05114-.05859.07813-.175075.263285-.320033.530123-.447266.787109-.000654.0013-.0013.0026-.002.0039-.02733.05585-.05424.111412-.08008.167969-.07828.169463-.491167.982505-.559864 1.168033h1.644531l-.434277.07611-1.185546.492187c-.01843.109686-.03539.21979-.04883.330078-.02383.193965-.03183.368103-.03906.523438v-.02734c-.0076.103922-.01262.208341-.01563.3125-.000143.0098-.000143.01953 0 .0293 0 1.832596.75494 3.653379 2.050781 4.949219.633699.633699 1.393986 1.13637 2.21875 1.486328l1.345703-1.638672c-.0077-.000378-.111847-.03018-.07031-.01758.281498.08545-.732704-.278645-.460938-.166016.271766.112631-.702775-.347714-.443359-.208984.259416.138728-.664488-.415444-.419922-.251953.244567.163492-.621893-.479649-.394531-.292969.227361.186679-.571248-.538147-.363281-.330078.207966.208068-.516645-.590733-.330079-.363281.18657.227452-.454387-.639178-.291015-.394532.163371.244646-.390555-.679404-.251953-.419922.138601.259486-.323435-.71518-.210938-.443359s-.24937-.742477-.164062-.460937c.08531.281539-.176439-.765109-.119141-.476563.0573.288547-.101007-.777149-.07226-.484375.0094.09565-.0046-.05895-.0078-.160156.01101-.119732.02192-.384058.0293-.644531.01355-.125731.01972-.18619.03125-.3125.02069-.120234.02983-.176991.04883-.298829.03376-.141669.04993-.217109.08008-.355468l.140625-.109375c.0843.05162.175792.09045.271485.115234v.002c.0013.000003.0026.000003.0039 0 .03092.008.06221.01452.09375.01953.0104.0015.02081.0028.03125.0039l.253928.2538609v-.246094h.689453l-.689453-1.298828v-.441406c.134934-.168475.107187-.140546.144531-.189453l.002-.002c.03666-.01837.373312-.355983.529297-.525391.05038-.03709.108567-.08073.177735-.134766l-.002-.0039c.108148-.08433.220756-.170441.302735-.240234.150408-.08523.377238-.223444.517578-.316407.157911-.06546.393073-.172675.544922-.248046.163174-.04494.416303-.124689.578125-.181641.170047-.02547.438189-.07437.603516-.111328.233885-.0065.709256-.03777.740234-.05274.192683.01355.555252.036.347656.01563-.292774-.02874.772922.129568.484375.07226-.288546-.0573.758102.204449.476563.119141-.28154-.08531.732758.276559.460937.164062s.702844.349539.443359.210938c-.259482-.138602.664569.415324.419922.251953-.244646-.163372.621984.477584.394532.291015-.12432-.101971.04234.0383.199218.179688l1.16211-1.648438c-.02004-.01779-.02182-.02211-.04687-.04297-.0039-.0026-.0078-.0052-.01172-.0078-.105407-.08544-.212071-.166925-.322266-.246093l-.01172-.0078c-.04012-.02998-.101397-.07924-.197266-.144531-.0019-.0013-.0039-.0026-.0059-.0039-.153542-.103025-.311442-.20047-.472657-.2910161l-.0059-.00391c.02913.015987-.0092-.00946-.07813-.048828l-.01758-.00977c-.0058-.00331-.01169-.00657-.01758-.00977-.404655-.2197304-.831328-.3990475-1.271397-.5351269-.216607-.0668249-.436135-.1244222-.658203-.1699219h-.002c-.000012-.0000025-.0056.0000296-.0059 0h-.002c-.002-.0004053-.0039-.00155-.0059-.00195-.191158-.038765-.384297-.067231-.578125-.089844l-.04102-.00586c-.0067-.0009756-.01287-.00295-.01953-.00391-.01429-.00161-.02862-.00291-.04297-.00391-.03261-.00331-.06872-.00311-.101563-.00586-.135596-.011868-.274106-.016183-.412109-.021484z" fill="#fff" fill-opacity=".784314"/><g transform="translate(0 9)"><path d="m17 1c-.278017 0-.550248.025655-.818359.0625a6 6 0 0 0 -.15625.019531c-.260623.042815-.513416.1044141-.761719.1796876a6 6 0 0 0 -.195313.066406c-.208064.071031-.412224.1517256-.609375.2441406a6 6 0 0 0 -.142578.0625c-.230295.1152879-.44981.2481044-.662109.390625a6 6 0 0 0 -.785156.6269532v2.1015624h.820312a3.9966359 3.9966359 0 0 1 3.306641-1.7539058 3.9966359 3.9966359 0 0 1 3.998047 3.9960938 3.9966359 3.9966359 0 0 1 -.134766 1.0039062h1.140625v2.308594a6 6 0 0 0 .109375-.177735c.07907-.128745.155055-.2597304.224609-.3945309a6 6 0 0 0 .150391-.3164062c.05619-.1264208.104777-.2559424.152344-.3867188a6 6 0 0 0 .171875-.5566406c.03105-.121303.06051-.2430596.08398-.3671875a6 6 0 0 0 .0625-.4082031c.01505-.1280373.02257-.258267.0293-.3886719a6 6 0 0 0 .015626-.3125 6 6 0 0 0 -.648438-2.7128906c-.0013-.00259-.0026-.00523-.0039-.00781a6 6 0 0 0 -.002-.00391 6 6 0 0 0 -.275391-.4785156c-.008-.012514-.01344-.026611-.02148-.039063a6 6 0 0 0 -.0078-.011719 6 6 0 0 0 -.3125-.4355469c-.01036-.013218-.01882-.027886-.0293-.041016a6 6 0 0 0 -.0078-.00977 6 6 0 0 0 -.30664-.3476562c-.03435-.036718-.06631-.075479-.101563-.1113282a6 6 0 0 0 -.267578-.25c-.058794-.0529857-.114892-.1094766-.175766-.1601495a6 6 0 0 0 -.28711-.21875c-.059304-.0436512-.116801-.0893589-.177734-.1308594a6 6 0 0 0 -.410156-.2519531c-.03011-.017152-.05746-.038044-.08789-.054687a6 6 0 0 0 -.01367-.00781 6 6 0 0 0 -1.089843-.4589844 6 6 0 0 0 -.564454-.1445312c-.0019-.000385-.004.0003832-.0059 0-.176343-.035978-.355582-.063861-.537109-.083984a6 6 0 0 0 -.05273-.00781h-.002c-.201077-.0204201-.404814-.0312559-.611248-.0312559z" fill="url(#b)"/><path d="m12 3.6914062c-.142904.214906-.26755.4429757-.382812.6757813a6 6 0 0 0 -.06836.1445313c-.10635.2299543-.202198.4646168-.279297.7089843a6 6 0 0 0 -.002.00586 6 6 0 0 0 -.03516.140625c-.05348.1857855-.0974.3756796-.132813.5683594a6 6 0 0 0 -.05273.3476562c-.01815.1477345-.02617.2983215-.0332.4492188a6 6 0 0 0 -.013628.2675775 6 6 0 0 0 6 6 6 6 0 0 0 4.134766-1.65625v-2.078125h-.84961a3.9966359 3.9966359 0 0 1 -3.289062 1.728516 3.9966359 3.9966359 0 0 1 -3.996094-3.9980472 3.9966359 3.9966359 0 0 1 .130859-.9960938h-1.130859z" fill="url(#c)"/></g></svg>