<?xml version="1.0" encoding="UTF-8" standalone="no"?>
<svg
   xmlns:dc="http://purl.org/dc/elements/1.1/"
   xmlns:cc="http://creativecommons.org/ns#"
   xmlns:rdf="http://www.w3.org/1999/02/22-rdf-syntax-ns#"
   xmlns:svg="http://www.w3.org/2000/svg"
   xmlns="http://www.w3.org/2000/svg"
   xmlns:xlink="http://www.w3.org/1999/xlink"
   xmlns:sodipodi="http://sodipodi.sourceforge.net/DTD/sodipodi-0.dtd"
   xmlns:inkscape="http://www.inkscape.org/namespaces/inkscape"
   viewBox="0 0 24 24"
   version="1.1"
   id="svg12"
   sodipodi:docname="lc_symbolshapes.svg"
   inkscape:version="0.92.3 (2405546, 2018-03-11)">
  <metadata
     id="metadata18">
    <rdf:RDF>
      <cc:Work
         rdf:about="">
        <dc:format>image/svg+xml</dc:format>
        <dc:type
           rdf:resource="http://purl.org/dc/dcmitype/StillImage" />
        <dc:title></dc:title>
      </cc:Work>
    </rdf:RDF>
  </metadata>
  <defs
     id="defs16">
    <linearGradient
       gradientTransform="translate(-36.40678,-12.813559)"
       id="a"
       gradientUnits="userSpaceOnUse"
       x1="12"
       x2="12"
       y1="21.5"
       y2="2.5">
      <stop
         offset="0"
         stop-color="#e5eefc"
         id="stop2" />
      <stop
         offset="1"
         stop-color="#fcfdff"
         id="stop4" />
    </linearGradient>
    <linearGradient
       inkscape:collect="always"
       xlink:href="#a"
       id="linearGradient846"
       x1="11.966102"
       y1="21.559322"
       x2="12"
       y2="2.5"
       gradientUnits="userSpaceOnUse" />
  </defs>
  <sodipodi:namedview
     pagecolor="#ffffff"
     bordercolor="#666666"
     borderopacity="1"
     objecttolerance="10"
     gridtolerance="10"
     guidetolerance="10"
     inkscape:pageopacity="0"
     inkscape:pageshadow="2"
     inkscape:window-width="1366"
     inkscape:window-height="716"
     id="namedview14"
     showgrid="false"
     inkscape:zoom="3.4766083"
     inkscape:cx="16.289273"
     inkscape:cy="-12.321931"
     inkscape:window-x="-8"
     inkscape:window-y="-8"
     inkscape:window-maximized="1"
     inkscape:current-layer="svg12" />
  <path
     d="m12 2.5c-5.2467051 0-9.5 4.2532949-9.5 9.5 0 5.246705 4.2532949 9.5 9.5 9.5 5.246705 0 9.5-4.253295 9.5-9.5 0-5.2467051-4.253295-9.5-9.5-9.5z"
     fill="#fff"
     stroke="#808080"
     stroke-linecap="round"
     stroke-linejoin="round"
     id="path2"
     style="fill-opacity:1;fill:url(#linearGradient846);stroke:#0a84ff;stroke-opacity:1" />
  <g
     fill="#808080"
     id="g10">
    <path
       d="m8.5 7a1.5 1.5 0 0 0 -1.5 1.5 1.5 1.5 0 0 0 1.5 1.5 1.5 1.5 0 0 0 1.5-1.5 1.5 1.5 0 0 0 -1.5-1.5zm0 1a .5.5 0 0 1  .5.5.5.5 0 0 1 -.5.5.5.5 0 0 1 -.5-.5.5.5 0 0 1  .5-.5z"
       id="path4"
       style="fill:#0a84ff;fill-opacity:1" />
    <path
       d="m15.5 7a1.5 1.5 0 0 0 -1.5 1.5 1.5 1.5 0 0 0 1.5 1.5 1.5 1.5 0 0 0 1.5-1.5 1.5 1.5 0 0 0 -1.5-1.5zm0 1a .5.5 0 0 1  .5.5.5.5 0 0 1 -.5.5.5.5 0 0 1 -.5-.5.5.5 0 0 1  .5-.5z"
       id="path6"
       style="fill:#0a84ff;fill-opacity:1" />
    <path
       d="m6 14a6 4 0 0 0 6 4 6 4 0 0 0 6-4h-1a5 3 0 0 1 -5 3 5 3 0 0 1 -5-3z"
       id="path8"
       style="stroke:none;fill:#0a84ff;fill-opacity:1" />
  </g>
</svg>
