<?xml version="1.0" encoding="UTF-8" standalone="no"?>
<svg
   xmlns:dc="http://purl.org/dc/elements/1.1/"
   xmlns:cc="http://creativecommons.org/ns#"
   xmlns:rdf="http://www.w3.org/1999/02/22-rdf-syntax-ns#"
   xmlns:svg="http://www.w3.org/2000/svg"
   xmlns="http://www.w3.org/2000/svg"
   xmlns:xlink="http://www.w3.org/1999/xlink"
   xmlns:sodipodi="http://sodipodi.sourceforge.net/DTD/sodipodi-0.dtd"
   xmlns:inkscape="http://www.inkscape.org/namespaces/inkscape"
   viewBox="0 0 24 24"
   version="1.1"
   id="svg4"
   sodipodi:docname="lc_symbolshapes.puzzle.svg"
   inkscape:version="0.92.3 (2405546, 2018-03-11)">
  <metadata
     id="metadata10">
    <rdf:RDF>
      <cc:Work
         rdf:about="">
        <dc:format>image/svg+xml</dc:format>
        <dc:type
           rdf:resource="http://purl.org/dc/dcmitype/StillImage" />
        <dc:title></dc:title>
      </cc:Work>
    </rdf:RDF>
  </metadata>
  <defs
     id="defs8">
    <linearGradient
       gradientTransform="translate(-20.033898,-6.8135592)"
       id="a"
       gradientUnits="userSpaceOnUse"
       x1="12"
       x2="12"
       y1="21.5"
       y2="2.5">
      <stop
         offset="0"
         stop-color="#e5eefc"
         id="stop2" />
      <stop
         offset="1"
         stop-color="#fcfdff"
         id="stop4" />
    </linearGradient>
    <linearGradient
       inkscape:collect="always"
       xlink:href="#a"
       id="linearGradient835"
       x1="11.661019"
       y1="21.559322"
       x2="11.830506"
       y2="1.7288135"
       gradientUnits="userSpaceOnUse" />
  </defs>
  <sodipodi:namedview
     pagecolor="#ffffff"
     bordercolor="#666666"
     borderopacity="1"
     objecttolerance="10"
     gridtolerance="10"
     guidetolerance="10"
     inkscape:pageopacity="0"
     inkscape:pageshadow="2"
     inkscape:window-width="1366"
     inkscape:window-height="716"
     id="namedview6"
     showgrid="false"
     inkscape:zoom="9.8333333"
     inkscape:cx="1.779661"
     inkscape:cy="12"
     inkscape:window-x="-8"
     inkscape:window-y="-8"
     inkscape:window-maximized="1"
     inkscape:current-layer="svg4" />
  <path
     d="m7.405234 2.5079811c.036866.3330569.1532452 1.5200537.2271884 2.9998178.042504.8505646.069174 1.7688186.037091 2.5060301-.0160352.3685462-.0658508.6742811-.11359.9504831-.0477386.2762021-.0863381.4905271-.190096.644474-.1756928.2610093-.3225072.4343219-.4937881.4937879-.1712797.060534-.3283944-.012409-.4937868-.076495-.3307849-.1351964-.7553397-.3528943-1.5578651-.3407874-.8016317.0118695-1.3690342.2711832-1.7456434.6838844-.3766093.412819-.5699993.994779-.5702902 1.632049.0002909.637389.1936809 1.182138.5702902 1.594957.3766092.41282.9440117.67166 1.7456434.683884.8025254.01187 1.2270802-.207907 1.5578651-.343101.1653924-.06529.3225071-.133649.4937868-.07418.1712809.06054.3180953.232897.4937881.493789.103751.154064.1423526.368271.1900964.644473.047739.276084.097555.618911.1135905.987576.032083.737329.00546 1.618373-.037091 2.468937-.075134 1.503741-.1933711 2.732934-.2271884 3.03691.2064073-.000712.4202781-.02878.6073822-.0371.3621618-.01543.6878654-.07081.9481647-.115917.2602992-.04392.4354568-.08553.5331973-.150686.242774-.163444.3468524-.290344.3778761-.380196.031034-.08901.024446-.190278-.037097-.340782-.123071-.30101-.3933459-.781548-.3801929-1.634368.013156-.854007.2947711-1.47396.7603857-1.898649.465617-.42457 1.100141-.644117 1.785054-.644473.684911.000356 1.319438.219903 1.785054.644473.465615.424689.747223 1.044642.760387 1.898649.01315.85282-.257123 1.333358-.380193 1.634368-.06154.150504-.06812.250811-.0371.340782.03104.08902.135101.216752.377874.380194.09776.06647.27289.1057.533198.150686.26031.04511.586.100486.948165.115917.187106.01187.400974.03591.607383.0371-.03381-.303976-.152059-1.533169-.227188-3.03691-.04248-.850564-.06916-1.731608-.0371-2.468937.01605-.368665.06584-.711492.113592-.987576.04774-.276202.08635-.490409.190096-.644473.175692-.260892.322507-.434204.493786-.493789.171282-.05934.328395.01009.493788.07418.330785.135194.755341.355207 1.557865.343101.801634-.01187 1.369034-.271064 1.745644-.683884.376607-.412819.57-.957568.57029-1.594957-.00028-.63727-.193673-1.21923-.57028-1.632049-.376601-.4126992-.944002-.6716568-1.745636-.6838824-.802523-.011869-1.227079.205591-1.557864.3407844-.165393.0641-.322507.135967-.493789.07649-.171279-.060529-.318094-.2327737-.493786-.4937831-.10376-.1539468-.142355-.3682718-.190096-.6444739-.047742-.2762022-.097561-.5819369-.113592-.9504833-.03208-.7372114-.0052-1.6554653.0371-2.50603.07394-1.4797641.190325-2.6667609.227187-2.9998177-.206192.0007123-.420459-.011869-.607382 0-.362165.01543-.687856.06849-.948165.1135942-.260308.043916-.435441.087841-.533199.1530046-.242773.1634423-.346844.2902229-.377874.3801932-.03104.089021-.02444.1902785.0371.3407831.123071.3011278.393343.7788732.380193 1.6320492-.01316.8536518-.294776 1.474079-.760392 1.8986491-.465618.4246909-1.100144.6464382-1.785056.6467944-.684919-.0003562-1.319443-.2221035-1.78506-.6467924-.4656149-.4245701-.7472198-1.0449973-.7603859-1.898648-.0131511-.853176.2571218-1.3309213.3801928-1.6320492.061532-.1505046.0681191-.2521182.0370933-.340783-.0310278-.0890209-.1351021-.2167509-.3778764-.3801933-.0977445-.0664689-.2728981-.108019-.5331979-.1530046-.2602994-.0439168-.586003-.0981639-.9481647-.1135942-.1869225-.011869-.4011909.00119-.6073822 0z"
     fill="#fff"
     stroke="#808080"
     stroke-width="1.008903"
     id="path2"
     style="fill-opacity:1;fill:url(#linearGradient835);stroke:#0a84ff;stroke-opacity:1" />
</svg>
