<?xml version="1.0" encoding="UTF-8" standalone="no"?>
<svg
   xmlns:dc="http://purl.org/dc/elements/1.1/"
   xmlns:cc="http://creativecommons.org/ns#"
   xmlns:rdf="http://www.w3.org/1999/02/22-rdf-syntax-ns#"
   xmlns:svg="http://www.w3.org/2000/svg"
   xmlns="http://www.w3.org/2000/svg"
   xmlns:sodipodi="http://sodipodi.sourceforge.net/DTD/sodipodi-0.dtd"
   xmlns:inkscape="http://www.inkscape.org/namespaces/inkscape"
   viewBox="0 0 24 24"
   version="1.1"
   id="svg56"
   sodipodi:docname="lc_saveasremote.svg"
   inkscape:version="0.92.3 (2405546, 2018-03-11)">
  <metadata
     id="metadata62">
    <rdf:RDF>
      <cc:Work
         rdf:about="">
        <dc:format>image/svg+xml</dc:format>
        <dc:type
           rdf:resource="http://purl.org/dc/dcmitype/StillImage" />
        <dc:title></dc:title>
      </cc:Work>
    </rdf:RDF>
  </metadata>
  <defs
     id="defs60" />
  <sodipodi:namedview
     pagecolor="#ffffff"
     bordercolor="#666666"
     borderopacity="1"
     objecttolerance="10"
     gridtolerance="10"
     guidetolerance="10"
     inkscape:pageopacity="0"
     inkscape:pageshadow="2"
     inkscape:window-width="1366"
     inkscape:window-height="685"
     id="namedview58"
     showgrid="true"
     inkscape:zoom="13.906433"
     inkscape:cx="8.4189651"
     inkscape:cy="7.8206508"
     inkscape:window-x="0"
     inkscape:window-y="0"
     inkscape:window-maximized="1"
     inkscape:current-layer="svg56">
    <inkscape:grid
       type="xygrid"
       id="grid869" />
  </sodipodi:namedview>
  <linearGradient
     id="a"
     gradientUnits="userSpaceOnUse"
     x1="13"
     x2="13"
     y1="21"
     y2="15">
    <stop
       offset="0"
       stop-color="#dadada"
       id="stop2" />
    <stop
       offset=".5"
       stop-color="#fff"
       id="stop4" />
    <stop
       offset="1"
       stop-color="#fff"
       id="stop6" />
  </linearGradient>
  <filter
     id="b"
     color-interpolation-filters="sRGB"
     height="1.082452"
     width="2.278"
     x="-.639"
     y="-.041226">
    <feGaussianBlur
       stdDeviation=".26625"
       id="feGaussianBlur9" />
  </filter>
  <filter
     id="c"
     color-interpolation-filters="sRGB"
     height="1.071"
     width="2.278"
     x="-.639"
     y="-.0355">
    <feGaussianBlur
       stdDeviation=".26625"
       id="feGaussianBlur12" />
  </filter>
  <filter
     id="d"
     color-interpolation-filters="sRGB"
     height="1.168"
     width="1.126"
     x="-.063"
     y="-.084">
    <feGaussianBlur
       stdDeviation=".1575"
       id="feGaussianBlur15" />
  </filter>
  <linearGradient
     id="e"
     gradientUnits="userSpaceOnUse"
     x1="4"
     x2="4"
     y1="18"
     y2="3">
    <stop
       offset="0"
       stop-color="#4f4f4f"
       id="stop18" />
    <stop
       offset=".80000001"
       stop-color="#4f4f4f"
       stop-opacity=".498039"
       id="stop20" />
    <stop
       offset="1"
       stop-color="#b7b7b7"
       id="stop22" />
  </linearGradient>
  <linearGradient
     id="f"
     gradientUnits="userSpaceOnUse"
     x1="21"
     x2="21"
     y1="20"
     y2="3">
    <stop
       offset="0"
       stop-color="#4f4f4f"
       id="stop25" />
    <stop
       offset=".88235295"
       stop-color="#4f4f4f"
       stop-opacity=".498039"
       id="stop27" />
    <stop
       offset="1"
       stop-color="#b7b7b7"
       id="stop29" />
  </linearGradient>
  <g
     id="g893"
     transform="translate(0,-1)">
    <path
       id="path32"
       d="m 4,2 h 17 c 0.554,0 1,0.446 1,1 v 18 c 0,0.554 -0.446,1 -1,1 H 6 L 3,18 V 3 C 3,2.446 3.446,2 4,2 Z"
       inkscape:connector-curvature="0"
       style="fill:#3e3e3e" />
    <g
       id="g38"
       style="fill:#ffffff">
      <rect
         id="rect34"
         y="3"
         x="6"
         width="13"
         ry="0.46741"
         height="8" />
      <path
         id="path36"
         d="m 8,15 c -0.554,0 -1,0.446 -1,1 v 4 c 0,0.554 0.446,1 1,1 h 2 v -5 h 2 v 5 h 5 c 0.554,0 1,-0.446 1,-1 v -4 c 0,-0.554 -0.446,-1 -1,-1 z"
         style="fill:url(#a)"
         inkscape:connector-curvature="0" />
    </g>
    <rect
       id="rect40"
       y="3"
       x="3.5"
       width="1"
       rx="0.351695"
       height="15.5"
       style="fill:url(#e);filter:url(#b)" />
    <path
       id="path42"
       d="m 10,16 h 2 v 0.5 h -2 z"
       inkscape:connector-curvature="0"
       style="fill:#2a2a2a" />
    <path
       id="path44"
       d="m 20,3 h 1 v 18 h -1 z"
       style="fill:url(#f);filter:url(#c)"
       inkscape:connector-curvature="0" />
    <path
       id="path46"
       d="M 4.5,12 H 20 v 4.5 C 19.667572,14.914663 18.569627,14.809423 17,14 H 4.5 Z"
       inkscape:connector-curvature="0"
       style="fill:#3b3b3b;filter:url(#d)" />
    <path
       id="path48"
       d="m 8,3 h 9 V 4 H 8 Z"
       inkscape:connector-curvature="0"
       style="fill:#0a84ff" />
    <g
       id="g54"
       style="fill:#bababa">
      <path
         id="path50"
         d="m 8,6 h 9 V 7 H 8 Z"
         inkscape:connector-curvature="0" />
      <path
         id="path52"
         d="m 8,8 h 9 V 9 H 8 Z"
         inkscape:connector-curvature="0" />
    </g>
  </g>
  <g
     transform="translate(1.436757,1)"
     id="g6">
    <path
       style="fill:#b3b3b3"
       inkscape:connector-curvature="0"
       d="m -0.436757,22 h 22 v 1 h -22 z"
       id="path2" />
    <path
       style="fill:#808080"
       inkscape:connector-curvature="0"
       d="m 9.5632427,20 v 2 h -2 v 1 h 6.0000003 v -1 h -2 v -2 z"
       id="path4" />
  </g>
</svg>
