<svg viewBox="0 0 24 24" xmlns="http://www.w3.org/2000/svg"><path d="m9.8964844 4-7.8964844 16h2.3476562c.2450593 0 .4626205-.068532.6523438-.205078.1897233-.144578.327106-.305715.4140625-.482422l1.4941406-3.216797h2.6835938c.1901569-1.154066 1.2082091-2.064453 2.4082031-2.064453h2.052734v-2.53125c0-.515766.170306-.997646.453125-1.396484l-1.537109-6.103516zm1.2109376 2.7832031c.05534.3935744.110681.7583538.166016 1.0957031.06324.3293173.122401.6181916.177734.8671876l1.15039 5.2167972h-4.7089839l2.4199219-5.1914066c.110672-.2570282.232799-.5552287.367188-.8925782.142291-.3373493.285442-.7021287.427734-1.0957031zm2.607422 12.2167969.072265.326172c.045095.190915.134905.345292.265625.470703v-.796875z" fill="#69696e"/><path d="m16.5 10.5c-.554 0-1 .446-1 1v3.978516h-3.5c-.554 0-1 .446-1 1v.021484c0 .554.446 1 1 1h3.5v4c0 .554.446 1 1 1s1-.446 1-1v-4h4.013672c.554 0 1-.446 1-1v-.02148c0-.554-.446-1-1-1h-4.013672v-3.97852c0-.554-.446-1-1-1z" fill="#32d74b" stroke="#1ec337"/></svg>