<?xml version="1.0" encoding="UTF-8" standalone="no"?>
<svg
   xmlns:dc="http://purl.org/dc/elements/1.1/"
   xmlns:cc="http://creativecommons.org/ns#"
   xmlns:rdf="http://www.w3.org/1999/02/22-rdf-syntax-ns#"
   xmlns:svg="http://www.w3.org/2000/svg"
   xmlns="http://www.w3.org/2000/svg"
   xmlns:xlink="http://www.w3.org/1999/xlink"
   xmlns:sodipodi="http://sodipodi.sourceforge.net/DTD/sodipodi-0.dtd"
   xmlns:inkscape="http://www.inkscape.org/namespaces/inkscape"
   viewBox="0 0 24 24"
   version="1.1"
   id="svg10"
   sodipodi:docname="lc_starshapes.star12.svg"
   inkscape:version="0.92.3 (2405546, 2018-03-11)">
  <metadata
     id="metadata16">
    <rdf:RDF>
      <cc:Work
         rdf:about="">
        <dc:format>image/svg+xml</dc:format>
        <dc:type
           rdf:resource="http://purl.org/dc/dcmitype/StillImage" />
        <dc:title></dc:title>
      </cc:Work>
    </rdf:RDF>
  </metadata>
  <defs
     id="defs14">
    <linearGradient
       gradientTransform="translate(-43.016949,-15.762712)"
       id="a"
       gradientUnits="userSpaceOnUse"
       x1="12"
       x2="12"
       y1="21.5"
       y2="2.5">
      <stop
         offset="0"
         stop-color="#e5eefc"
         id="stop1020" />
      <stop
         offset="1"
         stop-color="#fcfdff"
         id="stop1022" />
    </linearGradient>
    <linearGradient
       inkscape:collect="always"
       xlink:href="#a"
       id="linearGradient841"
       x1="2.0001559"
       y1="10.869155"
       x2="20.738153"
       y2="10.869155"
       gradientUnits="userSpaceOnUse" />
    <linearGradient
       gradientTransform="translate(-25.923729,-4.4661017)"
       id="b"
       gradientUnits="userSpaceOnUse"
       x1="18.5"
       x2="18.5"
       y1="23"
       y2="14.5">
      <stop
         offset="0"
         stop-color="#d70015"
         id="stop956" />
      <stop
         offset="1"
         stop-color="#ff453a"
         id="stop958" />
    </linearGradient>
    <linearGradient
       inkscape:collect="always"
       xlink:href="#b"
       id="linearGradient1562"
       x1="16.559322"
       y1="22.389832"
       x2="15.767578"
       y2="11.5"
       gradientUnits="userSpaceOnUse" />
  </defs>
  <sodipodi:namedview
     pagecolor="#ffffff"
     bordercolor="#666666"
     borderopacity="1"
     objecttolerance="10"
     gridtolerance="10"
     guidetolerance="10"
     inkscape:pageopacity="0"
     inkscape:pageshadow="2"
     inkscape:window-width="1366"
     inkscape:window-height="716"
     id="namedview12"
     showgrid="false"
     inkscape:zoom="9.8333333"
     inkscape:cx="-2.4915254"
     inkscape:cy="12"
     inkscape:window-x="-8"
     inkscape:window-y="-8"
     inkscape:window-maximized="1"
     inkscape:current-layer="svg10" />
  <path
     d="m12 2-1.224609 4.8984375-3.525391-3.6367187 1.3730469 4.8613281-4.8613281-1.3730469 3.6367187 3.525391-4.8984375 1.224609 4.7011719 1.175781 2.5410156-2.300781a1.00015 1.00015 0 0 1 .6718745-.259766h1.69336a1.00015 1.00015 0 0 1 1 1v.384766h1.222656.751953.480469.205078c.116523-.129279.226408-.265591.357422-.378906.333926-.289615.71912-.506971 1.125-.683594l-.648438-.162109 3.636719-3.525391-4.861328 1.3730469 1.373047-4.8613281-3.525391 3.6367187zm-1.201172 10.115234-.861328.78125a1.00015 1.00015 0 0 1 .875.322266v-.53125l.294922-.294922v-.277344zm-4.7910155 1.958985-2.2460937 2.175781 2.8769531-.8125-.4589844-.65625a1.00015 1.00015 0 0 1 -.171875-.707031zm2.4453125.46875.015625.021484-.0058594-.011719c-.00634-.00886-.0042856-.002865-.0097656-.009765zm.59375 1.53125c-.1675058.114365-.3338383.236797-.5644531.279297-.0903893.016643-.1867417.023385-.2832031.02539l-.9492188 3.359375 1.796875-1.853515z"
     fill="#fff"
     stroke="#808080"
     stroke-linecap="round"
     stroke-linejoin="round"
     id="path2"
     style="fill-opacity:1;fill:url(#linearGradient841);stroke:#0a84ff;stroke-opacity:1" />
  <g
     fill="#4d82b8"
     id="g8"
     style="fill-opacity:1;fill:url(#linearGradient1562)">
    <path
       d="m7.8470583 21.39166h2.1989307v-6.647803q0-.41102.02567-.857781l-1.4802141 1.331348q-.1454546.125093-.2909092.151898-.1454545.02681-.2737967 0-.1283423-.0268-.2310161-.08935-.094117-.07148-.1454546-.142963l-.6502683-.929263 3.413904-3.091586h1.694117v10.275502h1.942247v1.60834h-6.2032092v-1.60834z"
       id="path4"
       style="fill-opacity:1.0;fill:url(#linearGradient1562)" />
    <path
       d="m19.329412 11q.787165 0 1.428877.250186.650267.241251 1.103743.688012.462032.446761.71016 1.081162.256685.625465.256685 1.384959 0 .652271-.179679 1.21519-.179679.553983-.479144 1.063291-.299466.500372-.701605.982874-.402139.473567-.847059.956068l-2.412834 2.63589q.385027-.125093.770054-.187639.385026-.07148.718716-.07148h2.575401q.325134 0 .521926.196575.205347.196574.205347.518242v1.286672h-7.683423v-.723753q0-.20551.07701-.437826.08556-.24125.290908-.446761l3.302673-3.547282q.419252-.455696.735829-.866716.325134-.41102.539038-.813105.22246-.41102.333689-.82204.11123-.419956.11123-.875652 0-.82204-.393582-1.241995-.393583-.419956-1.112299-.419956-.308022 0-.564707.09829-.256684.09829-.462032.268056-.205347.16977-.350802.402085-.145454.232316-.222459.500373-.136899.41102-.376471.536113-.231016.125093-.641712.05361l-1.095187-.196575q.128343-.866716.462032-1.510052.33369-.652271.829946-1.081161.504813-.437826 1.155081-.652271.650265-.223384 1.39465-.223384z"
       id="path6"
       style="fill-opacity:1.0;fill:url(#linearGradient1562)" />
  </g>
</svg>
