<svg viewBox="0 0 24 24" xmlns="http://www.w3.org/2000/svg"><g fill="#69696e" stroke-width=".332253"><path d="m6.5145855 9.8001163h-3.6599837l-.7657412 2.1998837h-1.7066945l3.569133-9.4484684h1.4730785l3.5756224 9.4484684h-1.7131839zm-3.199241-1.3238238h2.7384984l-1.3692492-3.919557z"/><path d="m16.164866 8.5282688q0 1.6353112-.733295 2.6022222-.726805.96691-2.005203.96691-1.232974 0-1.920843-.889038l-.07787.759252h-1.427655v-9.967615h1.576908v3.6210477q.68138-.8046773 1.836481-.8046773 1.284888 0 2.018182.953932.733295.9539319.733295 2.6671157zm-1.576908-.136276q0-1.1421226-.402339-1.7131839-.402338-.5710612-1.168079-.5710612-1.025315 0-1.440632.8955279v2.8942424q.421806.914996 1.45361.914996.739784 0 1.142123-.551594.402338-.5515927.415317-1.6677579z"/><path d="m20.216797 4.6894531c-.986378 0-1.764876.3221898-2.335938.9667969-.571061.6402809-.857421 1.4939232-.857421 2.5625v.1621094c0 1.1204912.287893 1.9988116.863281 2.6347656.373882.413239.843082.6795 1.388672.824219l.957031-1.070313c.022723-.027119.050386-.048366.074219-.074219-.036393.002094-.065899.015626-.103516.015626-.519147 0-.916481-.186539-1.193359-.558594-.272552-.3763809-.410157-.9436633-.410157-1.7050784v-.2539062c.004326-.7527626.144997-1.3119587.421875-1.6796875.276878-.3720551.671146-.5585938 1.181641-.5585938.398012 0 .725221.1290986.980469.3886719.259571.2595733.396756.5898489.414062.9921875h1.486328c-.025957-.7916986-.302279-1.4295256-.830078-1.9140625-.523472-.4888631-1.202148-.7324219-2.037109-.7324219zm1.380859 4.828125c-.009985.194707-.071465.3647392-.162109.5234379.005289-.001158.010321-.002786.015625-.003907a1.0019101 1.0019101 0 0 1 .009766-.001953c.250297-.0501501.503051-.0453239.728515-.003906.265465.048767.49137.155044.699219.28125.107118-.254996.184313-.5172067.195312-.7949219z"/></g><path d="m22.008379 11.015652c-.11263-.02069-.229582-.02189-.349814.0022-.256226.05414-.492352.195183-.658476.393444l-7.352978 8.22655-2.633903-2.575268c-.440541-.430791-1.2421489-.430757-1.6827719 0-.440564.430768-.440599 1.214497 0 1.645311l3.5118709 3.433689.91455.858422.804804-.929957 8.194364-9.156507c.581205-.618654.04074-1.75309-.747646-1.897919z" fill="#32d74b"/></svg>