<?xml version="1.0" encoding="UTF-8" standalone="no"?>
<svg
   xmlns:dc="http://purl.org/dc/elements/1.1/"
   xmlns:cc="http://creativecommons.org/ns#"
   xmlns:rdf="http://www.w3.org/1999/02/22-rdf-syntax-ns#"
   xmlns:svg="http://www.w3.org/2000/svg"
   xmlns="http://www.w3.org/2000/svg"
   xmlns:xlink="http://www.w3.org/1999/xlink"
   xmlns:sodipodi="http://sodipodi.sourceforge.net/DTD/sodipodi-0.dtd"
   xmlns:inkscape="http://www.inkscape.org/namespaces/inkscape"
   viewBox="0 0 24 24"
   version="1.1"
   id="svg76"
   sodipodi:docname="lc_snappoints.svg"
   inkscape:version="0.92.4 (unknown)">
  <metadata
     id="metadata82">
    <rdf:RDF>
      <cc:Work
         rdf:about="">
        <dc:format>image/svg+xml</dc:format>
        <dc:type
           rdf:resource="http://purl.org/dc/dcmitype/StillImage" />
        <dc:title></dc:title>
      </cc:Work>
    </rdf:RDF>
  </metadata>
  <defs
     id="defs80" />
  <sodipodi:namedview
     pagecolor="#ffffff"
     bordercolor="#666666"
     borderopacity="1"
     objecttolerance="10"
     gridtolerance="10"
     guidetolerance="10"
     inkscape:pageopacity="0"
     inkscape:pageshadow="2"
     inkscape:window-width="1360"
     inkscape:window-height="714"
     id="namedview78"
     showgrid="true"
     inkscape:pagecheckerboard="true"
     inkscape:zoom="9.8333333"
     inkscape:cx="9.6054027"
     inkscape:cy="7.6680341"
     inkscape:window-x="0"
     inkscape:window-y="28"
     inkscape:window-maximized="1"
     inkscape:current-layer="svg76" />
  <linearGradient
     id="a"
     gradientTransform="scale(-1 1)"
     gradientUnits="userSpaceOnUse"
     x1="-19"
     x2="-19"
     xlink:href="#b"
     y1="22"
     y2="23" />
  <linearGradient
     id="b"
     gradientTransform="translate(-50.237288 -.305085)"
     gradientUnits="userSpaceOnUse"
     x1="14"
     x2="13.79661"
     y1="22"
     y2="2.135593">
    <stop
       offset="0"
       stop-color="#0040dd"
       id="stop3" />
    <stop
       offset="1"
       stop-color="#0a84ff"
       id="stop5" />
  </linearGradient>
  <linearGradient
     id="c"
     gradientUnits="userSpaceOnUse"
     x1="-5"
     x2="-5"
     y1="26"
     y2="20">
    <stop
       offset="0"
       stop-color="#d70015"
       id="stop8" />
    <stop
       offset="1"
       stop-color="#ff453a"
       id="stop10" />
  </linearGradient>
  <linearGradient
     id="d"
     gradientUnits="userSpaceOnUse"
     x1="4"
     x2="4"
     xlink:href="#b"
     y1="20"
     y2="3" />
  <linearGradient
     id="e"
     gradientUnits="userSpaceOnUse"
     x1="2"
     x2="2"
     xlink:href="#b"
     y1="16"
     y2="12" />
  <linearGradient
     id="f"
     gradientUnits="userSpaceOnUse"
     x1="6"
     x2="6"
     xlink:href="#b"
     y1="16"
     y2="12" />
  <linearGradient
     id="g"
     gradientUnits="userSpaceOnUse"
     x1="8"
     x2="8"
     xlink:href="#b"
     y1="3"
     y2="1" />
  <linearGradient
     id="h"
     gradientUnits="userSpaceOnUse"
     x1="8"
     x2="8"
     xlink:href="#b"
     y1="7"
     y2="5" />
  <path
     d="m3 1c-.554 0-1 .446-1 1v9 1 5a1.0001 1.0001 0 0 0 .0996094-.005859 1.0001 1.0001 0 0 1 -.0996094.005859v4c0 .554.446 1 1 1h13 2 4c.554 0 1-.446 1-1v-3.611328-15.388672c0-.554-.446-1-1-1h-9-4-2a1.0001 1.0001 0 0 0 .0058594.0996094 1.0001 1.0001 0 0 1 -.0058594-.0996094zm9.982422.1835938a1.0001 1.0001 0 0 1 -.021484.0859374 1.0001 1.0001 0 0 0 .021484-.0859374zm-.056641.1914062a1.0001 1.0001 0 0 1 -.02539.0546875 1.0001 1.0001 0 0 0 .02539-.0546875zm-5.8261716.0546875a1.0001 1.0001 0 0 0 .0234375.0488281 1.0001 1.0001 0 0 1 -.0234375-.0488281zm5.6738286.203125a1.0001 1.0001 0 0 1 -.066407.0742187 1.0001 1.0001 0 0 0 .066407-.0742187zm-9.773438.3671875h4.5859375 1.4140625 3.414062 9.585938v14.560547 4.439453h-4.585938-1.414062-13v-4.585938-4.828124zm-.8164062 9.017578a1.0001 1.0001 0 0 1 .0859374.021484 1.0001 1.0001 0 0 0 -.0859374-.021484zm.1914062.056641a1.0001 1.0001 0 0 1 .0546875.02539 1.0001 1.0001 0 0 0 -.0546875-.02539zm.2578125.152343a1.0001 1.0001 0 0 1 .0742187.066407 1.0001 1.0001 0 0 0 -.0742187-.066407zm-.1542969 5.650391a1.0001 1.0001 0 0 1 -.0488281.023438 1.0001 1.0001 0 0 0 .0488281-.023438z"
     fill="#98989d"
     id="path18" />
  <g
     id="g26"
     fill="#fff">
    <path
       d="m7 1a1.0001 1.0001 0 0 0 .2929688.7070312l.2929687.2929688h1.4140625 3.414062l.292969-.2929688a1.0001 1.0001 0 0 0 .292969-.7070312h-4zm-5 10v1 5a1.0001 1.0001 0 0 0 .7070312-.292969l.2929688-.292969v-4.828124l-.2929688-.292969a1.0001 1.0001 0 0 0 -.7070312-.292969zm20 5.560547v4.439453h-4.585938-1.414062v1h2 4c.554 0 1-.446 1-1v-3.611328c-.286451-.328264-.62231-.606666-1-.828125z"
       id="path20"
       fill-opacity=".784314" />
    <path
       d="m3 2v9.585938 4.828124 4.585938h13 6v-4.439453-14.560547h-9.585938-4.8281245z"
       id="path22" />
    <path
       d="m7.5859375 2 1.7070313 1.7070312c.3905297.3903683 1.0235322.3903683 1.4140622 0l1.707031-1.7070312zm2.3984375 2c-.2597738.0041421-.5077402.1092126-.6914062.2929688l-2 2c-.6295561.6299945-.1836056 1.7066817.7070312 1.7070312h4c.890637-.0003496 1.336587-1.0770367.707031-1.7070312l-2-2c-.191323-.1914119-.452053-.2971088-.722656-.2929688zm-2.0136719 7c-.25501.007637-.4974604.112443-.6777343.292969l-2 2c-.1951841.195265-.2929688.451148-.2929688.707031s.0977847.511766.2929688.707031l2 2c.6299945.629556 1.7066816.183606 1.7070312-.707031v-4c.000184-.563907-.4656305-1.016463-1.0292969-1zm-2.9707031 3c0-.255883-.0977847-.511766-.2929688-.707031l-1.7070312-1.707031v4.828124l1.7070312-1.707031c.1951841-.195265.2929688-.451148.2929688-.707031zm15 2c-2.197294 0-4 1.802706-4 4v1h6v-4.439453c-.59163-.346904-1.269326-.560547-2-.560547zm-.40625 2.041016c.0019-.000376.003959.000371.005859 0-.776313.161655-1.396938.78228-1.558593 1.558593.156268-.788741.764834-1.400171 1.552734-1.558593z"
       id="path24"
       fill-opacity=".784314" />
  </g>
  <path
     d="m20 17c1.656854 0 3 1.343146 3 3v2 1h-2v-1-2c0-.552285-.447715-1-1-1s-1 .447715-1 1v2h-2v-2c0-1.656854 1.343146-3 3-3z"
     fill="url(#c)"
     id="path28" />
  <path
     d="m19 22h-2v1h2z"
     fill="url(#a)"
     id="path30" />
  <g
     fill="url(#d)"
     id="g40">
    <rect
       height="2"
       ry="1"
       width="2"
       x="4"
       y="3"
       id="rect32" />
    <rect
       height="2"
       ry="1"
       width="2"
       x="9"
       y="3"
       id="rect34" />
    <rect
       height="2"
       ry="1"
       width="2"
       x="14"
       y="3"
       id="rect36" />
    <rect
       height="2"
       ry="1"
       width="2"
       x="19"
       y="3"
       id="rect38" />
  </g>
  <g
     fill="url(#d)"
     id="g64">
    <rect
       height="2"
       ry="1"
       width="2"
       x="4"
       y="8"
       id="rect42" />
    <rect
       height="2"
       ry="1"
       width="2"
       x="9"
       y="8"
       id="rect44" />
    <rect
       height="2"
       ry="1"
       width="2"
       x="14"
       y="8"
       id="rect46" />
    <rect
       height="2"
       ry="1"
       width="2"
       x="19"
       y="8"
       id="rect48" />
    <rect
       height="2"
       ry="1"
       width="2"
       x="4"
       y="13"
       id="rect50" />
    <rect
       height="2"
       ry="1"
       width="2"
       x="9"
       y="13"
       id="rect52" />
    <rect
       height="2"
       ry="1"
       width="2"
       x="14"
       y="13"
       id="rect54" />
    <rect
       height="2"
       ry="1"
       width="2"
       x="19"
       y="13"
       id="rect56" />
    <rect
       height="2"
       ry="1"
       width="2"
       x="4"
       y="18"
       id="rect58" />
    <rect
       height="2"
       ry="1"
       width="2"
       x="9"
       y="18"
       id="rect60" />
    <rect
       height="2"
       ry="1"
       width="2"
       x="14"
       y="18"
       id="rect62" />
  </g>
  <g
     fill="#0040dd"
     fill-rule="evenodd"
     id="g74">
    <path
       d="m10 5 2 2h-4z"
       fill="url(#h)"
       id="path66" />
    <path
       d="m10 3 2-2h-4z"
       fill="url(#g)"
       id="path68" />
    <path
       d="m6 14 2-2v4z"
       fill="url(#f)"
       id="path70" />
    <path
       d="m4 14-2-2v4z"
       fill="url(#e)"
       id="path72" />
  </g>
</svg>
