<svg viewBox="0 0 24 24" xmlns="http://www.w3.org/2000/svg"><path d="m5 3v18h5.462891l.517578-2.103516c.04344-.177395.134629-.339507.263672-.46875l5.529297-5.523437.0078-.0078.738281-.720703 1.480481-1.476575v-3.9707034l-4-3.7285156zm14 16.1875-1.802734 1.8125h1.802734z" fill="#fff"/><path d="m5 2c-.554 0-1 .446-1 1v18c0 .554.446 1 1 1h5.216797l.246094-1h-5.462891v-18h9v4c0 .554.446 1 1 1h4v2.699219l.189453-.189453c.228533-.228255.512912-.376302.810547-.451172v-2.808594-.2089844c0-.4506799.098038-.4254121-.605469-1.0664062l-3.30664-3.2382813c-.709525-.7368575-.710169-.7363281-1.09375-.7363281h-.332032-.662109zm15 16.179688-1 1.007812v1.8125h-1.802734l-.992188 1h2.794922c.554 0 1-.446 1-1z" fill="#98989d"/><path d="m15 7h4l-4-4z" fill="#fff" fill-rule="evenodd"/><g fill="#eac282" transform="translate(-1 -1)"><path d="m11.783203 19.820312-.783203 3.179688 2.96875-.789062z" fill="#98989d" stroke="#616165" transform="translate(1 1)"/><path d="m21.419922 12c-.189562 0-.378184.07172-.523438.216797l-1.673828 1.669922 2.847656 2.849609 1.710938-1.638672c.290506-.290127.290506-.756747 0-1.046875l-1.835938-1.833984c-.145254-.145064-.335828-.216797-.52539-.216797z" fill="#e68497" stroke="#b6496c"/><path d="m17.480469 13.611328-5.439453 5.433594c.648096.793958 1.89093 2.102781 2.714843 2.957031l.05078-.01367 5.509765-5.544922z" fill="#fc0" stroke="#c89e00" transform="translate(1 1)"/><path d="m20.985596 16.42957-1.284233-1.373643-6.299585 6.125687 1.263119 1.338035z" fill="#ffe014"/></g><rect fill="#98989d" height="1" ry=".5" width="5" x="7" y="5"/><rect fill="#98989d" height="1" ry=".5" width="3" x="7" y="9"/><rect fill="#ff9f0a" height="1" ry=".5" width="5" x="12" y="9"/><rect fill="#ff9f0a" height="1" ry=".5" width="7" x="7" y="12"/><rect fill="#98989d" height="1" ry=".5" width="4" x="7" y="15"/><path d="m12.474609 15c-.262915 0-.474609.211694-.474609.474609v.050782c0 .262915.211694.474609.474609.474609h1.050782c.065728 0 .128731-.013158.185547-.037109.000848-.000358.001106-.001591.001953-.001953l.248047-.248047c.000362-.000847.001595-.001105.001953-.001953.023951-.056816.037109-.119819.037109-.185547v-.050782c0-.262915-.211694-.474609-.474609-.474609z" fill="#98989d"/><rect fill="#ff9f0a" height="1" ry=".474576" width="2" x="7" y="18"/><path d="m19.271187 13.271186 1.118644-1.067797 1.703389 1.677967" fill="none" stroke="#f398b3"/></svg>