<?xml version="1.0" encoding="UTF-8" standalone="no"?>
<svg
   xmlns:dc="http://purl.org/dc/elements/1.1/"
   xmlns:cc="http://creativecommons.org/ns#"
   xmlns:rdf="http://www.w3.org/1999/02/22-rdf-syntax-ns#"
   xmlns:svg="http://www.w3.org/2000/svg"
   xmlns="http://www.w3.org/2000/svg"
   xmlns:sodipodi="http://sodipodi.sourceforge.net/DTD/sodipodi-0.dtd"
   xmlns:inkscape="http://www.inkscape.org/namespaces/inkscape"
   viewBox="0 0 24 24"
   version="1.1"
   id="svg8"
   sodipodi:docname="lc_underline.svg"
   inkscape:version="0.92.3 (2405546, 2018-03-11)">
  <metadata
     id="metadata14">
    <rdf:RDF>
      <cc:Work
         rdf:about="">
        <dc:format>image/svg+xml</dc:format>
        <dc:type
           rdf:resource="http://purl.org/dc/dcmitype/StillImage" />
      </cc:Work>
    </rdf:RDF>
  </metadata>
  <defs
     id="defs12" />
  <sodipodi:namedview
     pagecolor="#ffffff"
     bordercolor="#666666"
     borderopacity="1"
     objecttolerance="10"
     gridtolerance="10"
     guidetolerance="10"
     inkscape:pageopacity="0"
     inkscape:pageshadow="2"
     inkscape:window-width="1366"
     inkscape:window-height="721"
     id="namedview10"
     showgrid="false"
     inkscape:zoom="9.8333333"
     inkscape:cx="8.440678"
     inkscape:cy="12"
     inkscape:window-x="-4"
     inkscape:window-y="-4"
     inkscape:window-maximized="1"
     inkscape:current-layer="svg8" />
  <g
     fill="#69696e"
     id="g6"
     style="fill:#4b4b4f;fill-opacity:1">
    <path
       d="m18 2v12.089689c-.0081 1.677088-.18044 3.048881-1.230657 4.115379-1.042074 1.066498-2.379899 1.661806-4.170964 1.792065l-.622803.02442c-1.945748 0-3.381268-.522037-4.5373191-1.572253-1.1560511-1.050212-1.4219745-2.495275-1.4382569-4.335188v-12.114112h2v12.040842c0 1.28631.3541424 2.287678 1.0624272 3.004104.7082845.708285 1.6024148 1.059357 2.9131488 1.059357 1.327017 0 2.261853-.351072 2.961996-1.059357.708285-.708284 1.091819-1.705918 1.062428-2.991893v-12.053053z"
       id="path2"
       style="fill:#4b4b4f;fill-opacity:1" />
    <rect
       height="1"
       ry=".464045"
       width="19"
       x="3"
       y="22"
       id="rect4"
       style="fill:#4b4b4f;fill-opacity:1" />
  </g>
</svg>
