<?xml version="1.0" encoding="UTF-8" standalone="no"?>
<svg
   xmlns:dc="http://purl.org/dc/elements/1.1/"
   xmlns:cc="http://creativecommons.org/ns#"
   xmlns:rdf="http://www.w3.org/1999/02/22-rdf-syntax-ns#"
   xmlns:svg="http://www.w3.org/2000/svg"
   xmlns="http://www.w3.org/2000/svg"
   xmlns:sodipodi="http://sodipodi.sourceforge.net/DTD/sodipodi-0.dtd"
   xmlns:inkscape="http://www.inkscape.org/namespaces/inkscape"
   viewBox="0 0 24 24"
   version="1.1"
   id="svg880"
   sodipodi:docname="lc_underlinedouble.svg"
   inkscape:version="0.92.3 (2405546, 2018-03-11)">
  <metadata
     id="metadata886">
    <rdf:RDF>
      <cc:Work
         rdf:about="">
        <dc:format>image/svg+xml</dc:format>
        <dc:type
           rdf:resource="http://purl.org/dc/dcmitype/StillImage" />
        <dc:title></dc:title>
      </cc:Work>
    </rdf:RDF>
  </metadata>
  <defs
     id="defs884" />
  <sodipodi:namedview
     pagecolor="#ffffff"
     bordercolor="#666666"
     borderopacity="1"
     objecttolerance="10"
     gridtolerance="10"
     guidetolerance="10"
     inkscape:pageopacity="0"
     inkscape:pageshadow="2"
     inkscape:window-width="1366"
     inkscape:window-height="716"
     id="namedview882"
     showgrid="true"
     inkscape:zoom="9.8333333"
     inkscape:cx="16.270188"
     inkscape:cy="1.8626345"
     inkscape:window-x="-8"
     inkscape:window-y="-8"
     inkscape:window-maximized="1"
     inkscape:current-layer="svg880">
    <inkscape:grid
       type="xygrid"
       id="grid1440" />
  </sodipodi:namedview>
  <g
     id="g1453">
    <rect
       height="1"
       ry="0.46404499"
       width="19"
       x="3"
       y="22"
       id="rect872"
       style="fill:#4b4b4f;fill-opacity:1" />
    <rect
       height="1"
       ry="0.46404499"
       width="19"
       x="3"
       y="20"
       id="rect874"
       style="fill:#4b4b4f;fill-opacity:1" />
    <path
       sodipodi:nodetypes="ccccccccccscscccc"
       style="fill:#4b4b4f;fill-opacity:1"
       id="path2"
       d="m 18,2 v 11.089689 c -0.0081,1.677088 -0.18044,3.048881 -1.230657,4.115379 -1.042074,1.066498 -2.379899,1.661806 -4.170964,1.792065 l -0.622803,0.02442 c -1.945748,0 -3.381268,-0.522037 -4.5373191,-1.572253 C 6.2822058,16.399088 6.0162824,14.954025 6,13.114112 V 2 h 2 v 10 1.040842 c 0,1.28631 0.3541424,2.287678 1.0624272,3.004104 0.7082845,0.708285 1.6024148,1.059357 2.9131488,1.059357 1.327017,0 2.261853,-0.351072 2.961996,-1.059357 C 15.645857,15.336662 16.029391,14.339028 16,13.053053 V 2 Z"
       inkscape:connector-curvature="0" />
  </g>
</svg>
