<svg viewBox="0 0 24 24" xmlns="http://www.w3.org/2000/svg" xmlns:xlink="http://www.w3.org/1999/xlink"><linearGradient id="a" gradientUnits="userSpaceOnUse" x1="86" x2="86" y1="16" y2="5"><stop offset="0" stop-color="#0040dd"/><stop offset="1" stop-color="#0a84ff"/></linearGradient><g fill="#808080"><path d="m2.0058594 12.000071c-.5577284 0-1.0058594.448131-1.0058594 1.005858v8.988212c0 .557728.448131 1.005859 1.0058594 1.005859h19.9882816c.557728 0 1.005859-.448131 1.005859-1.005859v-8.988212c0-.557727-.448131-1.005858-1.005859-1.005858z" fill="url(#a)"/><g fill="#4b4b4f" transform="translate(2)"><path d="m7.7602178 8.8974293h-3.52288l-.716937 2.1013667h-1.5204009l3.3065629-8.998795h1.421513l3.2694799 8.998795h-1.5265814zm-3.0902456-1.2546397h2.6637917l-1.3040836-3.8442656h-.037083z"/><path d="m11.042059 10.998796v-8.998795h2.991358q1.495679 0 2.336226.6180492.840546.6118686.840546 1.8356059 0 .6118686-.352288 1.0939469-.352288.4820784-.976517.716937.803464.1792343 1.236098.7725614.432634.5933272.432634 1.3782496 0 1.2670007-.828185 1.928313-.828186.655132-2.286782.655132zm1.501859-4.0914849v2.89247h1.891231q.778742 0 1.199015-.3522881.420274-.3584684.420274-1.032142 0-.716937-.352288-1.1124884-.352288-.3955515-1.100128-.3955515zm0-1.1186689h1.656372q.698396 0 1.100128-.327566.407912-.3337466.407912-.9394347 0-.6674931-.426454-.9888786-.426454-.3275661-1.248459-.3275661h-1.489499z"/></g></g><g fill="#fff"><path d="m5.300971 19.833333h1.4555016v-3.696491c0-.161404.00566-.329825.01699-.505263l-.9797731.784211c-.064185.04912-.1283709.07895-.1925567.08947-.064185.0105-.1245952.0105-.1812296 0-.056634-.0105-.1076052-.02806-.1529126-.05263-.041532-.02807-.073625-.05614-.096278-.08421l-.4304213-.547367 2.2597087-1.821053h1.2402913v5.833333h1.1666667v1.166667h-4.105987z"/><path d="m17 14q.478098 0 .867853.145942.394952.140729.670379.40134.280624.260611.431328.630678.155903.364854.155903.807892 0 .380492-.10913.708861-.10913.323158-.291017.620254-.181885.291884-.426132.573343-.244247.276248-.514477.557707l-1.465479 1.537602q.233853-.07297.467707-.109457.233852-.0417.436525-.0417h1.564217q.197476 0 .317.114672.124721.114666.124721.302305v.750559h-4.666667v-.422189q0-.119881.04677-.255399.05196-.140729.176689-.26061l2.005939-2.069248q.25464-.265823.44692-.505585.197475-.239761.327394-.474311.135114-.239761.202673-.479524.06756-.244973.06756-.510796 0-.479524-.23905-.724498-.23905-.244974-.675576-.244974-.187082 0-.342984.05734-.155902.05734-.280623.156366-.124722.09903-.213066.234551-.08834.135518-.135116.291884-.08315.23976-.228656.312732-.140311.07296-.389754.03127l-.665187-.11466q.07795-.505585.280623-.880865.202673-.380491.504084-.630677.306607-.255398.701558-.380492.394955-.130313.847071-.130313z"/></g></svg>