<svg viewBox="0 0 24 24" xmlns="http://www.w3.org/2000/svg" xmlns:xlink="http://www.w3.org/1999/xlink"><linearGradient id="a" gradientUnits="userSpaceOnUse" x1="86" x2="86" y1="16" y2="5"><stop offset="0" stop-color="#0040dd"/><stop offset="1" stop-color="#0a84ff"/></linearGradient><g fill="#808080"><path d="m2.0058594 12.000071c-.5577284 0-1.0058594.448131-1.0058594 1.005858v8.988212c0 .557728.448131 1.005859 1.0058594 1.005859h19.9882816c.557728 0 1.005859-.448131 1.005859-1.005859v-8.988212c0-.557727-.448131-1.005858-1.005859-1.005858z" fill="url(#a)"/><g fill="#4b4b4f" transform="translate(2)"><path d="m7.3066406 2-3.3066406 8.998047h1.5195312l.6855469-1.998047h3.5878907l.6777342 1.998047h1.527344l-3.2695314-8.998047zm.6855469 1.7988281h.0371094l1.4238281 4.2011719h-2.9042969z" transform="translate(-2)"/><path d="m11 10.998795v-8.998795h2.991358c.997119 0 1.775861.2060164 2.336226.6180492.560364.4079124.840546 1.019781.840546 1.8356059 0 .4079124-.117429.9749316-.352288 1.2963171-.234859.3213856-.560364.5603646-.976517.716937.535643.1194895.947675.37701 1.236098.7725614.288423.3955515.432634.6525978.432634 1.1758794 0 .8446671-.276062 1.4874381-.828185 1.928313-.552124.436755-1.314771.68255-2.286782.655132zm1-3.998795v3l2.39309-.00899c.519158-.00195.918833-.1174294 1.199015-.3522881.280183-.2389789.725888-.6896062.725888-1.1387219 0-.477958-.423043-.8497376-.657902-1.1134385-.234859-.263701-.601571-.3973023-1.100128-.3955515zm0-1 2.158231-.00899c.465593-.00194.832307-.1091887 1.100128-.327566.271941-.2224977.741641-.7596519.741641-1.163444 0-.4449954-.47588-.9671669-.760183-1.1814239-.284303-.218376-.701658-.363836-1.248459-.3275647l-1.991358.0089886z"/></g></g><g fill="#fff"><path d="m5.300971 19.833333h1.4555016v-3.696491c0-.161404.00566-.329825.01699-.505263l-.9797731.784211c-.064185.04912-.1283709.07895-.1925567.08947-.064185.0105-.1245952.0105-.1812296 0-.056634-.0105-.1076052-.02806-.1529126-.05263-.041532-.02807-.073625-.05614-.096278-.08421l-.4304213-.547367 2.2597087-1.821053h1.2402913v5.833333h1.1666667v1.166667h-4.105987z"/><path d="m17 14q.478098 0 .867853.145942.394952.140729.670379.40134.280624.260611.431328.630678.155903.364854.155903.807892 0 .380492-.10913.708861-.10913.323158-.291017.620254-.181885.291884-.426132.573343-.244247.276248-.514477.557707l-1.465479 1.537602q.233853-.07297.467707-.109457.233852-.0417.436525-.0417h1.564217q.197476 0 .317.114672.124721.114666.124721.302305v.750559h-4.666667v-.422189q0-.119881.04677-.255399.05196-.140729.176689-.26061l2.005939-2.069248q.25464-.265823.44692-.505585.197475-.239761.327394-.474311.135114-.239761.202673-.479524.06756-.244973.06756-.510796 0-.479524-.23905-.724498-.23905-.244974-.675576-.244974-.187082 0-.342984.05734-.155902.05734-.280623.156366-.124722.09903-.213066.234551-.08834.135518-.135116.291884-.08315.23976-.228656.312732-.140311.07296-.389754.03127l-.665187-.11466q.07795-.505585.280623-.880865.202673-.380491.504084-.630677.306607-.255398.701558-.380492.394955-.130313.847071-.130313z"/></g></svg>