<svg viewBox="0 0 24 24" xmlns="http://www.w3.org/2000/svg" xmlns:xlink="http://www.w3.org/1999/xlink"><linearGradient id="a" gradientUnits="userSpaceOnUse" x1="100.455845" x2="91.970562" y1="-4.171572" y2="-12.656854"><stop offset="0" stop-color="#0040dd"/><stop offset="1" stop-color="#0a84ff"/></linearGradient><g fill="#69696e" transform="scale(-1 1)"><rect height="1" ry=".446068" width="20" x="-22" y="3"/><rect height="1" ry=".446068" width="20" x="-22" y="6"/><rect height="1" ry=".446068" width="20" x="-22" y="21"/><rect height="1" ry=".410114" width="5.999999" x="-8" y="15"/><rect height="1" ry=".423729" width="6.000001" x="-8" y="12"/><rect height="1" ry=".419102" width="9" x="-11" y="9"/><rect height="1" ry=".410114" width="9" x="-11" y="18"/></g><g fill="#ebebeb" fill-opacity=".992157" transform="matrix(-1 0 0 1 0 1)"><rect height="1" ry=".446068" width="20" x="-22" y="3"/><rect height="1" ry=".446068" width="20" x="-22" y="6"/><rect height="1" ry=".446068" width="20" x="-22" y="21"/><rect height="1" ry=".410114" width="5.999999" x="-8" y="15"/><rect height="1" ry=".423729" width="6.000001" x="-8" y="12"/><rect height="1" ry=".419102" width="9" x="-11" y="9"/><rect height="1" ry=".410114" width="9" x="-11" y="18"/></g><rect fill="url(#a)" height="8.919747" ry=".743312" transform="matrix(.70710679 .70710677 -.70710677 .70710679 0 0)" width="8.919747" x="16.75333" y="-5.874086"/></svg>