<?xml version="1.0" encoding="UTF-8" standalone="no"?>
<svg
   xmlns:dc="http://purl.org/dc/elements/1.1/"
   xmlns:cc="http://creativecommons.org/ns#"
   xmlns:rdf="http://www.w3.org/1999/02/22-rdf-syntax-ns#"
   xmlns:svg="http://www.w3.org/2000/svg"
   xmlns="http://www.w3.org/2000/svg"
   xmlns:xlink="http://www.w3.org/1999/xlink"
   xmlns:sodipodi="http://sodipodi.sourceforge.net/DTD/sodipodi-0.dtd"
   xmlns:inkscape="http://www.inkscape.org/namespaces/inkscape"
   viewBox="0 0 24 24"
   version="1.1"
   id="svg16"
   sodipodi:docname="lc_wordcountdialog.svg"
   inkscape:version="0.92.3 (unknown)"
   inkscape:export-filename="/home/rizmut/Dokumen/Rizmut/Github/libreoffice-style-sukapura/images_sukapura/cmd/lc_wordcountdialog.png"
   inkscape:export-xdpi="96"
   inkscape:export-ydpi="96">
  <metadata
     id="metadata22">
    <rdf:RDF>
      <cc:Work
         rdf:about="">
        <dc:format>image/svg+xml</dc:format>
        <dc:type
           rdf:resource="http://purl.org/dc/dcmitype/StillImage" />
        <dc:title></dc:title>
      </cc:Work>
    </rdf:RDF>
  </metadata>
  <defs
     id="defs20">
    <linearGradient
       gradientTransform="translate(75,-7)"
       id="a-367"
       gradientUnits="userSpaceOnUse"
       x1="14"
       x2="13.79661"
       y1="22"
       y2="2.1355929">
      <stop
         offset="0"
         stop-color="#0040dd"
         id="stop2206" />
      <stop
         offset="1"
         stop-color="#0a84ff"
         id="stop2208" />
    </linearGradient>
    <linearGradient
       inkscape:collect="always"
       xlink:href="#a-367"
       id="linearGradient878"
       x1="11"
       y1="23"
       x2="11"
       y2="12"
       gradientUnits="userSpaceOnUse" />
  </defs>
  <sodipodi:namedview
     pagecolor="#ffffff"
     bordercolor="#666666"
     borderopacity="1"
     objecttolerance="10"
     gridtolerance="10"
     guidetolerance="10"
     inkscape:pageopacity="0"
     inkscape:pageshadow="2"
     inkscape:window-width="1366"
     inkscape:window-height="706"
     id="namedview18"
     showgrid="true"
     inkscape:zoom="13.906433"
     inkscape:cx="18.433073"
     inkscape:cy="7.7829329"
     inkscape:window-x="0"
     inkscape:window-y="0"
     inkscape:window-maximized="1"
     inkscape:current-layer="g14">
    <inkscape:grid
       type="xygrid"
       id="grid829" />
  </sodipodi:namedview>
  <g
     fill="#808080"
     id="g14">
    <path
       d="M 2.0058594,12.000071 C 1.448131,12.000071 1,12.448202 1,13.005929 v 8.988212 C 1,22.551869 1.448131,23 2.0058594,23 H 21.994141 C 22.551869,23 23,22.551869 23,21.994141 v -8.988212 c 0,-0.557727 -0.448131,-1.005858 -1.005859,-1.005858 z"
       id="path12"
       style="fill:url(#linearGradient878);fill-opacity:1"
       inkscape:connector-curvature="0"
       sodipodi:nodetypes="sssssssss" />
    <g
       aria-label="AB"
       style="font-style:normal;font-weight:normal;font-size:14.13166618px;line-height:1.25;font-family:sans-serif;letter-spacing:0px;word-spacing:0px;fill:#69696e;fill-opacity:1;stroke:none;stroke-width:0.35329163"
       id="text833">
      <path
         d="M 10.005834,8.4246464 H 5.7966954 L 4.8513642,11.046733 H 3.4851192 L 7.3216457,1.0000015 H 8.480884 L 12.324311,11.046733 H 10.964966 Z M 6.1969086,7.3344104 H 9.6125213 L 7.9012649,2.6353554 Z"
         style="font-style:normal;font-variant:normal;font-weight:normal;font-stretch:normal;font-family:Roboto;-inkscape-font-specification:Roboto;fill:#69696e;fill-opacity:1;stroke-width:0.35329163"
         id="path853" />
      <path
         d="M 13.676755,11.046733 V 1.0000015 h 3.284509 q 1.635354,0 2.456481,0.6762223 0.828027,0.6762223 0.828027,2.001066 0,0.7038232 -0.400213,1.2489412 -0.400213,0.5382178 -1.090236,0.8349275 0.814227,0.2277076 1.283442,0.8694287 0.476116,0.634821 0.476116,1.5180501 0,1.3524446 -0.876329,2.1252697 -0.876329,0.772826 -2.477182,0.772826 z m 1.324844,-4.6990551 v 3.6157193 h 2.187372 q 0.924631,0 1.455948,-0.4761157 0.538218,-0.483016 0.538218,-1.3248437 0,-1.8147599 -1.973465,-1.8147599 z m 0,-1.0626351 h 2.001066 q 0.869429,0 1.386946,-0.4347143 0.524417,-0.4347143 0.524417,-1.1799389 0,-0.8280273 -0.483016,-1.2006396 -0.483016,-0.3795126 -1.469748,-0.3795126 h -1.959665 z"
         style="font-style:normal;font-variant:normal;font-weight:normal;font-stretch:normal;font-family:Roboto;-inkscape-font-specification:Roboto;fill:#69696e;fill-opacity:1;stroke-width:0.35329163"
         id="path855" />
    </g>
  </g>
  <path
     d="m5.300971 19.833333h1.4555016v-3.696491c0-.161404.00566-.329825.01699-.505263l-.9797731.784211c-.064185.04912-.1283709.07895-.1925567.08947-.064185.0105-.1245952.0105-.1812296 0-.056634-.0105-.1076052-.02806-.1529126-.05263-.041532-.02807-.073625-.05614-.096278-.08421l-.4304213-.547367 2.2597087-1.821053h1.2402913v5.833333h1.1666667v1.166667h-4.105987z"
     fill="#4d82b8"
     id="path4"
     style="fill:#ffffff" />
  <path
     d="m17 14q .478098 0 .867853.145942.394952.140729.670379.40134.280624.260611.431328.630678.155903.364854.155903.807892 0 .380492-.10913.708861-.10913.323158-.291017.620254-.181885.291884-.426132.573343-.244247.276248-.514477.557707l-1.465479 1.537602q.233853-.07297.467707-.109457.233852-.0417.436525-.0417h1.564217q.197476 0 .317.114672.124721.114666.124721.302305v.750559h-4.666667v-.422189q0-.119881.04677-.255399.05196-.140729.176689-.26061l2.005939-2.069248q.25464-.265823.44692-.505585.197475-.239761.327394-.474311.135114-.239761.202673-.479524.06756-.244973.06756-.510796 0-.479524-.23905-.724498-.23905-.244974-.675576-.244974-.187082 0-.342984.05734-.155902.05734-.280623.156366-.124722.09903-.213066.234551-.08834.135518-.135116.291884-.08315.23976-.228656.312732-.140311.07296-.389754.03127l-.665187-.11466q.07795-.505585.280623-.880865.202673-.380491.504084-.630677.306607-.255398.701558-.380492.394955-.130313.847071-.130313z"
     fill="#4d82b8"
     id="path6"
     style="fill:#ffffff" />
</svg>
