<?xml version="1.0" encoding="UTF-8" standalone="no"?>
<svg
   xmlns:dc="http://purl.org/dc/elements/1.1/"
   xmlns:cc="http://creativecommons.org/ns#"
   xmlns:rdf="http://www.w3.org/1999/02/22-rdf-syntax-ns#"
   xmlns:svg="http://www.w3.org/2000/svg"
   xmlns="http://www.w3.org/2000/svg"
   xmlns:sodipodi="http://sodipodi.sourceforge.net/DTD/sodipodi-0.dtd"
   xmlns:inkscape="http://www.inkscape.org/namespaces/inkscape"
   viewBox="0 0 24 24"
   version="1.1"
   id="svg23"
   sodipodi:docname="lc_wordcountdialog.svg"
   inkscape:version="0.92.3 (2405546, 2018-03-11)">
  <metadata
     id="metadata29">
    <rdf:RDF>
      <cc:Work
         rdf:about="">
        <dc:format>image/svg+xml</dc:format>
        <dc:type
           rdf:resource="http://purl.org/dc/dcmitype/StillImage" />
      </cc:Work>
    </rdf:RDF>
  </metadata>
  <defs
     id="defs27" />
  <sodipodi:namedview
     pagecolor="#ffffff"
     bordercolor="#666666"
     borderopacity="1"
     objecttolerance="10"
     gridtolerance="10"
     guidetolerance="10"
     inkscape:pageopacity="0"
     inkscape:pageshadow="2"
     inkscape:window-width="1366"
     inkscape:window-height="716"
     id="namedview25"
     showgrid="true"
     inkscape:zoom="13.906433"
     inkscape:cx="4.5868939"
     inkscape:cy="15.449424"
     inkscape:window-x="-8"
     inkscape:window-y="-8"
     inkscape:window-maximized="1"
     inkscape:current-layer="g15">
    <inkscape:grid
       type="xygrid"
       id="grid1405" />
  </sodipodi:namedview>
  <linearGradient
     id="a"
     gradientUnits="userSpaceOnUse"
     x1="86"
     x2="86"
     y1="16"
     y2="5">
    <stop
       offset="0"
       stop-color="#0040dd"
       id="stop2" />
    <stop
       offset="1"
       stop-color="#0a84ff"
       id="stop4" />
  </linearGradient>
  <g
     fill="#808080"
     id="g15">
    <path
       d="m2.0058594 12.000071c-.5577284 0-1.0058594.448131-1.0058594 1.005858v8.988212c0 .557728.448131 1.005859 1.0058594 1.005859h19.9882816c.557728 0 1.005859-.448131 1.005859-1.005859v-8.988212c0-.557727-.448131-1.005858-1.005859-1.005858z"
       fill="url(#a)"
       id="path7" />
    <g
       id="g1417"
       transform="translate(2)">
      <path
         d="m 7.7602178,8.8974293 h -3.52288 L 3.5204008,10.998796 H 1.9999999 L 5.3065628,2.000001 h 1.421513 l 3.2694799,8.998795 H 8.4709743 Z M 4.6699722,7.6427896 H 7.3337639 L 6.0296803,3.798524 h -0.037083 z"
         style="font-style:normal;font-variant:normal;font-weight:500;font-stretch:normal;font-size:medium;line-height:1.25;font-family:Roboto;-inkscape-font-specification:'Roboto Medium';letter-spacing:0px;word-spacing:0px;fill:#4b4b4f;fill-opacity:1;stroke:none;stroke-width:0.31644115"
         id="path846"
         inkscape:connector-curvature="0" />
      <path
         d="M 11.042059,10.998796 V 2.000001 h 2.991358 q 1.495679,0 2.336226,0.6180492 0.840546,0.6118686 0.840546,1.8356059 0,0.6118686 -0.352288,1.0939469 -0.352288,0.4820784 -0.976517,0.716937 0.803464,0.1792343 1.236098,0.7725614 0.432634,0.5933272 0.432634,1.3782496 0,1.2670007 -0.828185,1.928313 -0.828186,0.655132 -2.286782,0.655132 z m 1.501859,-4.0914849 v 2.89247 h 1.891231 q 0.778742,0 1.199015,-0.3522881 0.420274,-0.3584684 0.420274,-1.032142 0,-0.716937 -0.352288,-1.1124884 -0.352288,-0.3955515 -1.100128,-0.3955515 z m 0,-1.1186689 h 1.656372 q 0.698396,0 1.100128,-0.327566 0.407912,-0.3337466 0.407912,-0.9394347 0,-0.6674931 -0.426454,-0.9888786 -0.426454,-0.3275661 -1.248459,-0.3275661 h -1.489499 z"
         style="font-style:normal;font-variant:normal;font-weight:500;font-stretch:normal;font-size:medium;line-height:1.25;font-family:Roboto;-inkscape-font-specification:'Roboto Medium';letter-spacing:0px;word-spacing:0px;fill:#4b4b4f;fill-opacity:1;stroke:none;stroke-width:0.31644115"
         id="path848"
         inkscape:connector-curvature="0" />
    </g>
  </g>
  <g
     fill="#fff"
     id="g21">
    <path
       d="m5.300971 19.833333h1.4555016v-3.696491c0-.161404.00566-.329825.01699-.505263l-.9797731.784211c-.064185.04912-.1283709.07895-.1925567.08947-.064185.0105-.1245952.0105-.1812296 0-.056634-.0105-.1076052-.02806-.1529126-.05263-.041532-.02807-.073625-.05614-.096278-.08421l-.4304213-.547367 2.2597087-1.821053h1.2402913v5.833333h1.1666667v1.166667h-4.105987z"
       id="path17" />
    <path
       d="m17 14q.478098 0 .867853.145942.394952.140729.670379.40134.280624.260611.431328.630678.155903.364854.155903.807892 0 .380492-.10913.708861-.10913.323158-.291017.620254-.181885.291884-.426132.573343-.244247.276248-.514477.557707l-1.465479 1.537602q.233853-.07297.467707-.109457.233852-.0417.436525-.0417h1.564217q.197476 0 .317.114672.124721.114666.124721.302305v.750559h-4.666667v-.422189q0-.119881.04677-.255399.05196-.140729.176689-.26061l2.005939-2.069248q.25464-.265823.44692-.505585.197475-.239761.327394-.474311.135114-.239761.202673-.479524.06756-.244973.06756-.510796 0-.479524-.23905-.724498-.23905-.244974-.675576-.244974-.187082 0-.342984.05734-.155902.05734-.280623.156366-.124722.09903-.213066.234551-.08834.135518-.135116.291884-.08315.23976-.228656.312732-.140311.07296-.389754.03127l-.665187-.11466q.07795-.505585.280623-.880865.202673-.380491.504084-.630677.306607-.255398.701558-.380492.394955-.130313.847071-.130313z"
       id="path19" />
  </g>
</svg>
