<svg viewBox="0 0 24 24" xmlns="http://www.w3.org/2000/svg" xmlns:xlink="http://www.w3.org/1999/xlink"><linearGradient id="a" gradientUnits="userSpaceOnUse" x1="86" x2="86" y1="16" y2="5"><stop offset="0" stop-color="#0040dd"/><stop offset="1" stop-color="#0a84ff"/></linearGradient><g fill="#808080"><path d="m2.0058594 12.000071c-.5577284 0-1.0058594.448131-1.0058594 1.005858v8.988212c0 .557728.448131 1.005859 1.0058594 1.005859h19.9882816c.557728 0 1.005859-.448131 1.005859-1.005859v-8.988212c0-.557727-.448131-1.005858-1.005859-1.005858z" fill="url(#a)"/><g fill="#69696e" stroke-width=".353292"><path d="m10.005834 8.4246464h-4.2091386l-.9453312 2.6220866h-1.366245l3.8365265-10.0467315h1.1592383l3.843427 10.0467315h-1.359345zm-3.8089254-1.090236h3.4156127l-1.7112564-4.699055z"/><path d="m13.676755 11.046733v-10.0467315h3.284509q1.635354 0 2.456481.6762223.828027.6762223.828027 2.001066 0 .7038232-.400213 1.2489412-.400213.5382178-1.090236.8349275.814227.2277076 1.283442.8694287.476116.634821.476116 1.5180501 0 1.3524446-.876329 2.1252697-.876329.772826-2.477182.772826zm1.324844-4.6990551v3.6157193h2.187372q.924631 0 1.455948-.4761157.538218-.483016.538218-1.3248437 0-1.8147599-1.973465-1.8147599zm0-1.0626351h2.001066q.869429 0 1.386946-.4347143.524417-.4347143.524417-1.1799389 0-.8280273-.483016-1.2006396-.483016-.3795126-1.469748-.3795126h-1.959665z"/></g></g><g fill="#fff"><path d="m5.300971 19.833333h1.4555016v-3.696491c0-.161404.00566-.329825.01699-.505263l-.9797731.784211c-.064185.04912-.1283709.07895-.1925567.08947-.064185.0105-.1245952.0105-.1812296 0-.056634-.0105-.1076052-.02806-.1529126-.05263-.041532-.02807-.073625-.05614-.096278-.08421l-.4304213-.547367 2.2597087-1.821053h1.2402913v5.833333h1.1666667v1.166667h-4.105987z"/><path d="m17 14q.478098 0 .867853.145942.394952.140729.670379.40134.280624.260611.431328.630678.155903.364854.155903.807892 0 .380492-.10913.708861-.10913.323158-.291017.620254-.181885.291884-.426132.573343-.244247.276248-.514477.557707l-1.465479 1.537602q.233853-.07297.467707-.109457.233852-.0417.436525-.0417h1.564217q.197476 0 .317.114672.124721.114666.124721.302305v.750559h-4.666667v-.422189q0-.119881.04677-.255399.05196-.140729.176689-.26061l2.005939-2.069248q.25464-.265823.44692-.505585.197475-.239761.327394-.474311.135114-.239761.202673-.479524.06756-.244973.06756-.510796 0-.479524-.23905-.724498-.23905-.244974-.675576-.244974-.187082 0-.342984.05734-.155902.05734-.280623.156366-.124722.09903-.213066.234551-.08834.135518-.135116.291884-.08315.23976-.228656.312732-.140311.07296-.389754.03127l-.665187-.11466q.07795-.505585.280623-.880865.202673-.380491.504084-.630677.306607-.255398.701558-.380492.394955-.130313.847071-.130313z"/></g></svg>