<svg viewBox="0 0 24 24" xmlns="http://www.w3.org/2000/svg" xmlns:xlink="http://www.w3.org/1999/xlink"><linearGradient id="a" gradientUnits="userSpaceOnUse" x1="87" x2="87" y1="9" y2="2"><stop offset="0" stop-color="#0040dd"/><stop offset="1" stop-color="#0a84ff"/></linearGradient><rect fill="url(#a)" height="9" ry="1" width="10" x="7" y="8"/><g fill="#69696e"><rect height="1" ry=".446068" width="20" x="2" y="3"/><rect height="1" ry=".446068" width="20" x="2" y="6"/><rect height="1" ry=".446068" width="20" x="2" y="21"/><rect height="1" ry=".410114" width="4" x="2" y="15"/><rect height="1" ry=".446068" width="4" x="2" y="12"/><rect height="1" ry=".446068" width="4" x="2" y="9"/><rect height="1" ry=".410114" width="4" x="18" y="15"/><rect height="1" ry=".446068" width="4" x="18" y="12"/><rect height="1" ry=".446068" width="4" x="18" y="9"/><rect height="1" ry=".271186" width="20" x="2" y="18"/></g><g fill="#eaeaea" fill-opacity=".992157"><rect height="1" ry=".446068" width="20" x="2" y="4"/><rect height="1" ry=".446068" width="20" x="2" y="7"/><rect height="1" ry=".446068" width="20" x="2" y="22"/><rect height="1" ry=".410114" width="4" x="2" y="16"/><rect height="1" ry=".446068" width="4" x="2" y="13"/><rect height="1" ry=".446068" width="4" x="2" y="10"/><rect height="1" ry=".410114" width="4" x="18" y="16"/><rect height="1" ry=".446068" width="4" x="18" y="13"/><rect height="1" ry=".446068" width="4" x="18" y="10"/><rect height="1" ry=".271186" width="20" x="2" y="19"/></g></svg>