<?xml version="1.0" encoding="UTF-8" standalone="no"?>
<svg
   xmlns:dc="http://purl.org/dc/elements/1.1/"
   xmlns:cc="http://creativecommons.org/ns#"
   xmlns:rdf="http://www.w3.org/1999/02/22-rdf-syntax-ns#"
   xmlns:svg="http://www.w3.org/2000/svg"
   xmlns="http://www.w3.org/2000/svg"
   xmlns:xlink="http://www.w3.org/1999/xlink"
   xmlns:sodipodi="http://sodipodi.sourceforge.net/DTD/sodipodi-0.dtd"
   xmlns:inkscape="http://www.inkscape.org/namespaces/inkscape"
   viewBox="0 0 24 24"
   version="1.1"
   id="svg18"
   sodipodi:docname="lc_wraptext.svg"
   inkscape:version="0.92.3 (2405546, 2018-03-11)">
  <metadata
     id="metadata24">
    <rdf:RDF>
      <cc:Work
         rdf:about="">
        <dc:format>image/svg+xml</dc:format>
        <dc:type
           rdf:resource="http://purl.org/dc/dcmitype/StillImage" />
        <dc:title />
      </cc:Work>
    </rdf:RDF>
  </metadata>
  <defs
     id="defs22">
    <linearGradient
       gradientTransform="translate(-11,-1)"
       id="a"
       gradientUnits="userSpaceOnUse"
       x1="14"
       x2="13.79661"
       y1="22"
       y2="2.1355929">
      <stop
         offset="0"
         stop-color="#0040dd"
         id="stop1492" />
      <stop
         offset="1"
         stop-color="#0a84ff"
         id="stop1494" />
    </linearGradient>
    <linearGradient
       inkscape:collect="always"
       xlink:href="#a"
       id="linearGradient2083"
       x1="17"
       y1="20"
       x2="17"
       y2="12"
       gradientUnits="userSpaceOnUse" />
  </defs>
  <sodipodi:namedview
     pagecolor="#ffffff"
     bordercolor="#666666"
     borderopacity="1"
     objecttolerance="10"
     gridtolerance="10"
     guidetolerance="10"
     inkscape:pageopacity="0"
     inkscape:pageshadow="2"
     inkscape:window-width="1366"
     inkscape:window-height="685"
     id="namedview20"
     showgrid="true"
     inkscape:snap-global="true"
     inkscape:snap-smooth-nodes="true"
     inkscape:zoom="16"
     inkscape:cx="-2.3372412"
     inkscape:cy="9.0868211"
     inkscape:window-x="0"
     inkscape:window-y="0"
     inkscape:window-maximized="1"
     inkscape:current-layer="svg18">
    <inkscape:grid
       type="xygrid"
       id="grid834"
       spacingx="0.5"
       spacingy="0.5"
       empspacing="2" />
  </sodipodi:namedview>
  <g
     id="g842">
    <g
       style="fill:#69696e;fill-opacity:1"
       id="g12"
       transform="scale(-1 1)"
       fill="#808080">
      <rect
         style="fill:#69696e;fill-opacity:1"
         id="rect2"
         y="2"
         x="-21"
         width="18"
         ry=".5"
         height="1" />
      <rect
         style="fill:#69696e;fill-opacity:1"
         id="rect4"
         y="9"
         x="-16"
         width="12.999997"
         ry="0.487288"
         height="1" />
      <rect
         style="fill:#69696e;fill-opacity:1"
         id="rect6"
         y="21"
         x="-22"
         width="19"
         ry=".411017"
         height="1" />
      <rect
         style="fill:#69696e;fill-opacity:1"
         id="rect8"
         y="12"
         x="-9"
         width="6.000001"
         ry="0.46404499"
         height="1" />
      <rect
         style="fill:#69696e;fill-opacity:1"
         id="rect10"
         y="5"
         x="-14"
         width="11"
         ry=".5"
         height="1" />
    </g>
    <path
       id="path14"
       d="M 12 11.984375 C 11.449244 11.984375 10.992186 12.441432 10.992188 12.992188 C 10.992188 13.542943 11.449245 14 12 14 L 15.5 14 C 16.606099 14 17.492188 14.886088 17.492188 15.992188 C 17.492194 15.995437 17.492119 15.998705 17.492188 16.001953 L 15.5 16.001953 A 0.49878026 0.49878026 0 0 0 15.148438 16.853516 L 18.154297 19.845703 A 0.49878026 0.49878026 0 0 0 18.859375 19.845703 L 21.853516 16.853516 A 0.49878026 0.49878026 0 0 0 21.5 16.001953 L 19.513672 16.001953 L 19.513672 15.916016 C 19.513672 15.916016 19.513672 15.914062 19.513672 15.914062 C 19.510272 14.689455 18.959931 13.692127 18.191406 13.029297 C 17.422882 12.366467 16.447923 12.013123 15.515625 11.984375 C 15.510425 11.984295 15.50521 11.984295 15.5 11.984375 L 12 11.984375 z "
       style="fill:url(#linearGradient2083);fill-opacity:1;stroke:none;stroke-linecap:round;stroke-linejoin:round" />
    <g
       transform="matrix(-1,0,0,1,0,1)"
       id="g1483"
       style="fill:#e9e9e9;fill-opacity:0.99215686">
      <rect
         height="1"
         ry="0.5"
         width="18"
         x="-21"
         y="2"
         id="rect1473"
         style="fill:#e9e9e9;fill-opacity:0.99215686" />
      <rect
         height="1"
         ry="0.487288"
         width="12.999997"
         x="-16"
         y="9"
         id="rect1475"
         style="fill:#e9e9e9;fill-opacity:0.99215686" />
      <rect
         height="1"
         ry="0.411017"
         width="19"
         x="-22"
         y="21"
         id="rect1477"
         style="fill:#e9e9e9;fill-opacity:0.99215686" />
      <rect
         height="1"
         ry="0.46404499"
         width="6.000001"
         x="-9"
         y="12"
         id="rect1479"
         style="fill:#e9e9e9;fill-opacity:0.99215686" />
      <rect
         height="1"
         ry="0.5"
         width="11"
         x="-14"
         y="5"
         id="rect1481"
         style="fill:#e9e9e9;fill-opacity:0.99215686" />
    </g>
  </g>
</svg>
