<?xml version="1.0" encoding="UTF-8" standalone="no"?>
<svg
   xmlns:dc="http://purl.org/dc/elements/1.1/"
   xmlns:cc="http://creativecommons.org/ns#"
   xmlns:rdf="http://www.w3.org/1999/02/22-rdf-syntax-ns#"
   xmlns:svg="http://www.w3.org/2000/svg"
   xmlns="http://www.w3.org/2000/svg"
   xmlns:xlink="http://www.w3.org/1999/xlink"
   xmlns:sodipodi="http://sodipodi.sourceforge.net/DTD/sodipodi-0.dtd"
   xmlns:inkscape="http://www.inkscape.org/namespaces/inkscape"
   viewBox="0 0 24 24"
   version="1.1"
   id="svg8"
   sodipodi:docname="lc_zoomprevious.svg"
   inkscape:version="0.92.3 (unknown)"
   inkscape:export-filename="/home/rizmut/Dokumen/Rizmut/Github/libreoffice-style-sukapura/images_sukapura/cmd/lc_zoomprevious.png"
   inkscape:export-xdpi="96"
   inkscape:export-ydpi="96">
  <metadata
     id="metadata14">
    <rdf:RDF>
      <cc:Work
         rdf:about="">
        <dc:format>image/svg+xml</dc:format>
        <dc:type
           rdf:resource="http://purl.org/dc/dcmitype/StillImage" />
        <dc:title></dc:title>
      </cc:Work>
    </rdf:RDF>
  </metadata>
  <defs
     id="defs12">
    <linearGradient
       gradientTransform="translate(75,-7)"
       id="a"
       gradientUnits="userSpaceOnUse"
       x1="14"
       x2="13.79661"
       y1="22"
       y2="2.1355929">
      <stop
         offset="0"
         stop-color="#0040dd"
         id="stop2206" />
      <stop
         offset="1"
         stop-color="#0a84ff"
         id="stop2208" />
    </linearGradient>
    <linearGradient
       inkscape:collect="always"
       xlink:href="#a"
       id="linearGradient1525"
       x1="23"
       y1="13"
       x2="23"
       y2="1"
       gradientUnits="userSpaceOnUse"
       gradientTransform="matrix(-1,0,0,1,23.998992,0)" />
  </defs>
  <sodipodi:namedview
     pagecolor="#ffffff"
     bordercolor="#666666"
     borderopacity="1"
     objecttolerance="10"
     gridtolerance="10"
     guidetolerance="10"
     inkscape:pageopacity="0"
     inkscape:pageshadow="2"
     inkscape:window-width="1366"
     inkscape:window-height="699"
     id="namedview10"
     showgrid="true"
     inkscape:snap-global="false"
     inkscape:zoom="16"
     inkscape:cx="-4.93968"
     inkscape:cy="14.944498"
     inkscape:window-x="0"
     inkscape:window-y="0"
     inkscape:window-maximized="1"
     inkscape:current-layer="svg8">
    <inkscape:grid
       type="xygrid"
       id="grid821"
       spacingx="0.5"
       spacingy="0.5"
       empspacing="2" />
  </sodipodi:namedview>
  <path
     style="fill:#69696e;fill-opacity:1"
     d="M 9.4667969 2 A 7.5 7.5 0 0 0 1.9667969 9.5 A 7.5 7.5 0 0 0 9.4667969 17 A 7.5 7.5 0 0 0 14.009766 15.457031 L 20.259766 21.707031 C 21.202274 22.688698 22.655495 21.235478 21.673828 20.292969 L 15.425781 14.044922 A 7.5 7.5 0 0 0 16.966797 9.5 A 7.5 7.5 0 0 0 16.949219 9 L 11.923828 9 C 11.949675 9.0010285 11.973936 9.0078125 12 9.0078125 L 14.941406 9.0078125 A 5.5 5.5 0 0 1 14.966797 9.5 A 5.5 5.5 0 0 1 9.4667969 15 A 5.5 5.5 0 0 1 3.9667969 9.5 A 5.5 5.5 0 0 1 9.4667969 4 A 5.5 5.5 0 0 1 12.617188 5 L 15.457031 5 A 7.5 7.5 0 0 0 9.4667969 2 z "
     id="path2" />
  <path
     style="fill:#ffffff;fill-opacity:0.78431374"
     d="M 6.859375 2.4785156 A 7.5 7.5 0 0 0 1.9667969 9.5 A 7.5 7.5 0 0 0 2.0878906 10.802734 L 3.8183594 12.478516 C 4.2067532 12.855082 4.7186861 12.996929 5.2089844 12.976562 A 5.5 5.5 0 0 1 3.9667969 9.5 A 5.5 5.5 0 0 1 9.4667969 4 A 5.5 5.5 0 0 1 12.617188 5 L 13.910156 5 C 13.698101 4.4208246 13.140841 3.9921875 12.498047 3.9921875 L 7.0058594 3.9921875 L 7.0058594 3 A 1.0085853 1.0085853 0 0 0 6.859375 2.4785156 z M 11.923828 9 C 11.949675 9.0010285 11.973936 9.0078125 12 9.0078125 L 13.908203 9.0078125 C 13.909135 9.0053098 13.909238 9.0025084 13.910156 9 L 11.923828 9 z "
     id="path1573" />
  <path
     d="m 5.143523,2.0078125 c 0.528794,0.0055 0.929082,0.4797447 0.845703,1.0019531 L 5.998992,3 v 2 h 6.5 c 0.277,0 0.5,0.223 0.5,0.5 V 7.0078125 8.5 c 0,0.277 -0.223,0.5 -0.5,0.5 h -6.5 v 2 l -0.02344,-0.02148 c 0.149292,0.828136 -0.850931,1.36114 -1.455078,0.77539 L 0.260709,7.6269571 c -0.347612,-0.3395737 -0.347612,-0.8987075 0,-1.2382812 l 4.259765,-4.125 C 4.685095,2.0977624 4.909814,2.0054798 5.143523,2.0078125 Z"
     id="path6"
     style="fill:url(#linearGradient1525);fill-opacity:1"
     inkscape:connector-curvature="0"
     sodipodi:nodetypes="ccccsscsscccccccc" />
</svg>
