<?xml version="1.0" encoding="UTF-8" standalone="no"?>
<svg
   xmlns:dc="http://purl.org/dc/elements/1.1/"
   xmlns:cc="http://creativecommons.org/ns#"
   xmlns:rdf="http://www.w3.org/1999/02/22-rdf-syntax-ns#"
   xmlns:svg="http://www.w3.org/2000/svg"
   xmlns="http://www.w3.org/2000/svg"
   xmlns:sodipodi="http://sodipodi.sourceforge.net/DTD/sodipodi-0.dtd"
   xmlns:inkscape="http://www.inkscape.org/namespaces/inkscape"
   viewBox="0 0 24 24"
   version="1.1"
   id="svg8"
   sodipodi:docname="lc_zoomoptimal.svg"
   inkscape:version="0.92.3 (unknown)"
   inkscape:export-filename="/home/rizmut/Dokumen/Rizmut/Github/libreoffice-style-sukapura/images_sukapura/cmd/lc_zoomprevious.png"
   inkscape:export-xdpi="96"
   inkscape:export-ydpi="96">
  <metadata
     id="metadata14">
    <rdf:RDF>
      <cc:Work
         rdf:about="">
        <dc:format>image/svg+xml</dc:format>
        <dc:type
           rdf:resource="http://purl.org/dc/dcmitype/StillImage" />
        <dc:title></dc:title>
      </cc:Work>
    </rdf:RDF>
  </metadata>
  <defs
     id="defs12">
    <linearGradient
       gradientTransform="translate(75,-7)"
       id="a"
       gradientUnits="userSpaceOnUse"
       x1="14"
       x2="13.79661"
       y1="22"
       y2="2.1355929">
      <stop
         offset="0"
         stop-color="#0040dd"
         id="stop2206" />
      <stop
         offset="1"
         stop-color="#0a84ff"
         id="stop2208" />
    </linearGradient>
  </defs>
  <sodipodi:namedview
     pagecolor="#ffffff"
     bordercolor="#666666"
     borderopacity="1"
     objecttolerance="10"
     gridtolerance="10"
     guidetolerance="10"
     inkscape:pageopacity="0"
     inkscape:pageshadow="2"
     inkscape:window-width="1366"
     inkscape:window-height="706"
     id="namedview10"
     showgrid="true"
     inkscape:snap-global="true"
     inkscape:zoom="11.313709"
     inkscape:cx="5.8245495"
     inkscape:cy="7.3912277"
     inkscape:window-x="0"
     inkscape:window-y="0"
     inkscape:window-maximized="1"
     inkscape:current-layer="svg8">
    <inkscape:grid
       type="xygrid"
       id="grid821"
       spacingx="0.5"
       spacingy="0.5"
       empspacing="2" />
  </sodipodi:namedview>
  <path
     style="fill:#69696e;fill-opacity:1"
     d="M 9.5 2 A 7.5 7.5 0 0 0 2 9.5 A 7.5 7.5 0 0 0 9.5 17 A 7.5 7.5 0 0 0 14.023438 15.470703 L 20.259766 21.707031 C 21.202274 22.688698 22.655495 21.235478 21.673828 20.292969 L 15.445312 14.064453 A 7.5 7.5 0 0 0 17 9.5 A 7.5 7.5 0 0 0 9.5 2 z M 9.5 4 A 5.5 5.5 0 0 1 15 9.5 A 5.5 5.5 0 0 1 9.5 15 A 5.5 5.5 0 0 1 4 9.5 A 5.5 5.5 0 0 1 9.5 4 z "
     id="path2" />
  <path
     style="fill:#ffffff;fill-opacity:0.78431374"
     d="M 9.7148438 2.0117188 C 9.6152522 2.1376449 9.1642541 3.0039838 8.6503906 4.0703125 A 5.5 5.5 0 0 1 9.5 4 A 5.5 5.5 0 0 1 14.667969 7.6347656 C 14.993565 7.3391524 15.264039 7.1158686 15.613281 6.7890625 L 16.253906 6.328125 C 16.719632 7.3185842 16.964081 8.4004715 16.966797 9.5 C 16.964769 11.142864 16.423368 12.739616 15.425781 14.044922 L 15.445312 14.064453 A 7.5 7.5 0 0 0 15.847656 13.482422 C 15.875004 13.43891 15.899364 13.393624 15.925781 13.349609 A 7.5 7.5 0 0 0 16.152344 12.939453 C 16.314126 12.627201 16.456092 12.305536 16.572266 11.974609 A 7.5 7.5 0 0 0 16.630859 11.787109 C 16.733993 11.466628 16.817662 11.140941 16.876953 10.808594 A 7.5 7.5 0 0 0 16.904297 10.685547 C 16.913038 10.631268 16.916276 10.575996 16.923828 10.521484 A 7.5 7.5 0 0 0 16.980469 9.9882812 C 16.991207 9.8261578 16.999835 9.6632774 17 9.5 A 7.5 7.5 0 0 0 16.962891 8.7460938 A 7.5 7.5 0 0 0 16.664062 7.2832031 A 7.5 7.5 0 0 0 16.414062 6.59375 C 16.392711 6.5431027 16.366177 6.4953833 16.34375 6.4453125 A 7.5 7.5 0 0 0 16.097656 5.9375 C 16.044766 5.8399572 15.984773 5.7472094 15.927734 5.6523438 A 7.5 7.5 0 0 0 15.732422 5.3359375 C 15.648772 5.2112717 15.557593 5.0918634 15.466797 4.9726562 A 7.5 7.5 0 0 0 15.308594 4.7636719 C 15.199679 4.6305691 15.084471 4.5041447 14.966797 4.3789062 A 7.5 7.5 0 0 0 14.837891 4.2402344 C 14.715075 4.1159479 14.586291 3.9983138 14.455078 3.8828125 A 7.5 7.5 0 0 0 14.304688 3.75 C 14.176622 3.6431911 14.043302 3.5415829 13.908203 3.4433594 A 7.5 7.5 0 0 0 13.722656 3.3105469 C 13.575621 3.2103242 13.423821 3.1171375 13.269531 3.0273438 A 7.5 7.5 0 0 0 13.136719 2.9511719 C 12.973065 2.8603603 12.805644 2.775915 12.634766 2.6972656 A 7.5 7.5 0 0 0 12.480469 2.6269531 C 12.31031 2.5532754 12.137359 2.4850058 11.960938 2.4238281 A 7.5 7.5 0 0 0 11.806641 2.3730469 C 11.619858 2.3128006 11.429193 2.2585956 11.236328 2.2128906 A 7.5 7.5 0 0 0 11.128906 2.1894531 C 10.917402 2.1426109 10.704128 2.1028312 10.486328 2.0742188 A 7.5 7.5 0 0 0 10.431641 2.0683594 C 10.195816 2.0391316 9.9569236 2.0185868 9.7148438 2.0117188 z M 14.691406 7.7050781 A 5.5 5.5 0 0 1 14.757812 7.9023438 A 5.5 5.5 0 0 0 14.691406 7.7050781 z M 14.869141 8.3359375 A 5.5 5.5 0 0 1 14.890625 8.4375 A 5.5 5.5 0 0 0 14.869141 8.3359375 z M 14.953125 8.8359375 A 5.5 5.5 0 0 1 14.974609 9.0078125 A 5.5 5.5 0 0 0 14.953125 8.8359375 z M 15 9.5 A 5.5 5.5 0 0 1 14.978516 9.9335938 A 5.5 5.5 0 0 0 15 9.5 z M 14.9375 10.285156 A 5.5 5.5 0 0 1 14.912109 10.451172 A 5.5 5.5 0 0 0 14.9375 10.285156 z M 14.828125 10.837891 A 5.5 5.5 0 0 1 14.791016 10.984375 A 5.5 5.5 0 0 0 14.828125 10.837891 z M 6.1679688 13.867188 A 5.5 5.5 0 0 0 6.2519531 13.931641 A 5.5 5.5 0 0 1 6.1679688 13.867188 z M 14.009766 15.457031 C 13.89621 15.543894 13.777967 15.623225 13.660156 15.703125 C 13.779712 15.622688 13.908223 15.558288 14.023438 15.470703 L 14.009766 15.457031 z M 12.027344 16.541016 C 11.802146 16.623827 11.572078 16.697052 11.339844 16.757812 A 7.5 7.5 0 0 0 11.375 16.748047 C 11.594816 16.68927 11.814033 16.619932 12.027344 16.541016 z "
     id="path849" />
  <path
     inkscape:connector-curvature="0"
     style="fill:#ff9500;fill-rule:evenodd;fill-opacity:1"
     d="M 11.004237,2 H 17 l -4,4 h 2 L 6,13 9,7 H 7 Z"
     id="path6" />
</svg>
