<svg viewBox="0 0 16 16" xmlns="http://www.w3.org/2000/svg" xmlns:xlink="http://www.w3.org/1999/xlink"><linearGradient id="a" gradientTransform="translate(-24.949153 -8.6347)" gradientUnits="userSpaceOnUse" x1="7" x2="7" y1="20" y2="3"><stop offset="0" stop-color="#f5f5f5"/><stop offset=".3888889" stop-color="#fdfdfd"/><stop offset="1" stop-color="#fff"/></linearGradient><linearGradient id="b" gradientUnits="userSpaceOnUse" x1="1" x2="14" xlink:href="#a" y1="8" y2="8"/><linearGradient id="c" gradientUnits="userSpaceOnUse" x1="6" x2="6" xlink:href="#a" y1="12" y2="4"/>


     /&amp;amp;gt;
 <path d="m1 1c-.554 0-1 .446-1 1v12c0 .554.446 1 1 1h13c.554 0 1-.446 1-1v-12c0-.554-.446-1-1-1zm0 3h13v8h-13z" fill="#98989d"/><g fill="url(#b)"><path d="m1 2v1h1v-1zm3 0v1h1v-1zm3 0v1h1v-1zm3 0v1h1v-1zm3 0v1h1v-1z" fill="url(#b)"/><path d="m1 4h13v8h-13z" fill="url(#c)"/><path d="m1 13v1h1v-1zm3 0v1h1v-1zm3 0v1h1v-1zm3 0v1h1v-1zm3 0v1h1v-1z" fill="url(#b)"/></g></svg>