<?xml version="1.0" encoding="UTF-8" standalone="no"?>
<svg
   xmlns:dc="http://purl.org/dc/elements/1.1/"
   xmlns:cc="http://creativecommons.org/ns#"
   xmlns:rdf="http://www.w3.org/1999/02/22-rdf-syntax-ns#"
   xmlns:svg="http://www.w3.org/2000/svg"
   xmlns="http://www.w3.org/2000/svg"
   xmlns:xlink="http://www.w3.org/1999/xlink"
   xmlns:sodipodi="http://sodipodi.sourceforge.net/DTD/sodipodi-0.dtd"
   xmlns:inkscape="http://www.inkscape.org/namespaces/inkscape"
   viewBox="0 0 16 16"
   version="1.1"
   id="svg8"
   sodipodi:docname="sc_autoformat.svg"
   inkscape:export-filename="/home/rizmut/Dokumen/Rizmut/Github/libreoffice-style-sukapura/images_sukapura/cmd/sc_designerdialog.png"
   inkscape:export-xdpi="96"
   inkscape:export-ydpi="96"
   inkscape:version="0.92.3 (unknown)"><metadata
   id="metadata14">
  <rdf:RDF>
    <cc:Work
       rdf:about="">
      <dc:format>image/svg+xml</dc:format>
      <dc:type
         rdf:resource="http://purl.org/dc/dcmitype/StillImage" />
      <dc:title></dc:title>
    </cc:Work>
  </rdf:RDF>
</metadata>
<defs
   id="defs12">
  <filter
     inkscape:collect="always"
     style="color-interpolation-filters:sRGB"
     id="filter1489"
     x="-0.076526076"
     width="1.1530522"
     y="-0.06797941"
     height="1.1359588">
    <feGaussianBlur
       inkscape:collect="always"
       stdDeviation="0.44180839"
       id="feGaussianBlur1491" />
  </filter>
  <radialGradient
     inkscape:collect="always"
     xlink:href="#linearGradient2152"
     id="radialGradient2154"
     cx="55.498295"
     cy="20.746534"
     fx="55.498295"
     fy="20.746534"
     r="10.03901"
     gradientTransform="matrix(1,0,0,0.72181261,0,7.1016901)"
     gradientUnits="userSpaceOnUse" />
  <linearGradient
     inkscape:collect="always"
     id="linearGradient2152">
    <stop
       style="stop-color:#ffc765;stop-opacity:1"
       offset="0"
       id="stop2148" />
    <stop
       style="stop-color:#ffa914;stop-opacity:1"
       offset="1"
       id="stop2150" />
  </linearGradient>
  <radialGradient
     inkscape:collect="always"
     xlink:href="#linearGradient2226"
     id="radialGradient2228"
     cx="55.441967"
     cy="22.525862"
     fx="55.441967"
     fy="22.525862"
     r="2.2291842"
     gradientTransform="matrix(1.2258064,0,0,1.0478667,-12.519154,-1.0782398)"
     gradientUnits="userSpaceOnUse" />
  <linearGradient
     inkscape:collect="always"
     id="linearGradient2226">
    <stop
       style="stop-color:#ffe9c3;stop-opacity:1;"
       offset="0"
       id="stop2222" />
    <stop
       style="stop-color:#ffe9c3;stop-opacity:0;"
       offset="1"
       id="stop2224" />
  </linearGradient>
</defs>
<sodipodi:namedview
   pagecolor="#ffffff"
   bordercolor="#666666"
   borderopacity="1"
   objecttolerance="10"
   gridtolerance="10"
   guidetolerance="10"
   inkscape:pageopacity="0"
   inkscape:pageshadow="2"
   inkscape:window-width="1366"
   inkscape:window-height="706"
   id="namedview10"
   showgrid="false"
   inkscape:zoom="14.75"
   inkscape:cx="15.094424"
   inkscape:cy="4.97903"
   inkscape:window-x="0"
   inkscape:window-y="0"
   inkscape:window-maximized="1"
   inkscape:current-layer="svg8" />
/&gt;<g
   id="g1511">
  <path
     inkscape:connector-curvature="0"
     style="fill:#69696e;fill-opacity:1"
     id="path823"
     d="m 0,5 v 9.5 c -3.8442e-4,0.276301 0.22369855,0.500384 0.5,0.5 h 15 c 0.276301,3.84e-4 0.500384,-0.223699 0.5,-0.5 V 5 h -0.998047 v 9.001953 H 0.99804688 V 5 Z" />
  <path
     style="fill:#ffffff"
     inkscape:connector-curvature="0"
     id="path2"
     d="m 1,5 h 14 v 9 H 1 Z" />
  <path
     inkscape:connector-curvature="0"
     style="fill:#0a84ff;fill-opacity:1"
     id="path6"
     d="M 0,1 H 16 V 5 H 0 Z" />
  <path
     inkscape:connector-curvature="0"
     id="rect825"
     d="M 5,5 V 9 H 1 v 1 h 4 v 4 h 1 v -4 h 4 v 4 h 1 v -4 h 4 V 9 H 11 V 5 H 10 V 9 H 6 V 5 Z"
     style="opacity:1;fill:#bababa;fill-opacity:1;stroke:none;stroke-width:1;stroke-linecap:round;stroke-linejoin:round;stroke-miterlimit:4;stroke-dasharray:none;stroke-opacity:1" />
  <path
     inkscape:connector-curvature="0"
     id="path831"
     d="m 0.50195312,1.0019531 c -0.27630145,-3.84e-4 -0.50038441,0.223699 -0.49999999,0.5 V 5 H 1 15 V 4 H 11 V 2 h 4.003906 v 3 h 0.998047 V 1.5019531 c 3.84e-4,-0.276301 -0.223699,-0.500384 -0.5,-0.5 z M 1,2 H 5 V 4 H 1 Z m 5,0 h 4 V 4 H 6 Z"
     style="fill:#0040dd;fill-opacity:1" />
</g>
<g
   id="g2235"
   transform="matrix(0.40739216,0,0,0.40739216,-14.782967,2.3514178)">
  <path
     inkscape:connector-curvature="0"
     id="path1455"
     d="M 57.661017,18.305085 69.864407,6.3050847 70.983051,5.2881356 c 0.535947,-0.4093238 1.138074,-0.6755092 2.338983,-0.6101695 l 0.813559,0.6101695 c 0.306849,0.6596707 0.152068,1.3286734 0.101695,2.0338983 L 62.542373,24.101695 Z"
     style="fill:#d6d6d6;fill-opacity:1;stroke:#98989d;stroke-width:2.45463729;stroke-linecap:butt;stroke-linejoin:miter;stroke-miterlimit:4;stroke-dasharray:none;stroke-opacity:1"
     sodipodi:nodetypes="cccccccc" />
  <path
     inkscape:connector-curvature="0"
     id="path1459"
     d="M 59.389831,19.322034 72.20339,6.2033898 72.889831,5.6694915 73.245763,6 61.12279,21.267452 Z"
     style="fill:#f9f9f9;fill-opacity:1;stroke:none;stroke-width:1px;stroke-linecap:butt;stroke-linejoin:miter;stroke-opacity:1;filter:url(#filter1489)" />
  <path
     sodipodi:nodetypes="cccccc"
     inkscape:connector-curvature="0"
     id="path1457"
     d="m 54.915254,19.525424 c -2.355192,1.12312 -2.986044,2.645733 -4.067796,4.881356 -1.280902,3.099136 -3.365034,4.179849 -6,5.898305 4.002224,2.208107 12.344829,3.382311 15.355932,-1.016949 1.803572,-2.317145 5.097789,-5.637418 1.932203,-8.237289 -2.997587,-2.267403 -4.004437,-2.954713 -7.220339,-1.525423 z"
     style="fill:url(#radialGradient2154);fill-opacity:1;stroke:#f58b00;stroke-width:2.45463729;stroke-linecap:butt;stroke-linejoin:miter;stroke-miterlimit:4;stroke-dasharray:none;stroke-opacity:1" />
  <path
     id="path2137"
     d="m 49.395592,26.820763 c -1.20494,1.428749 -2.746668,2.309185 -4.547936,3.483925 4.002224,2.208106 12.344366,3.383635 15.355469,-1.015626 C 57.252957,26.090737 51.453042,27.4863 49.395592,26.820763 Z"
     style="fill:#0a84ff;fill-opacity:1;stroke:#0040dd;stroke-width:2.45463729;stroke-linecap:butt;stroke-linejoin:miter;stroke-miterlimit:4;stroke-dasharray:none;stroke-opacity:1"
     inkscape:connector-curvature="0"
     sodipodi:nodetypes="cccc" />
  <ellipse
     ry="2.3358879"
     rx="2.7325482"
     cy="22.525862"
     cx="55.441967"
     id="path2156"
     style="opacity:1;fill:url(#radialGradient2228);fill-opacity:1;stroke:none;stroke-width:1.22580647;stroke-linecap:round;stroke-linejoin:round;stroke-miterlimit:4;stroke-dasharray:none;stroke-opacity:1" />
</g>
</svg>
