<?xml version="1.0" encoding="UTF-8" standalone="no"?>
<svg
   xmlns:dc="http://purl.org/dc/elements/1.1/"
   xmlns:cc="http://creativecommons.org/ns#"
   xmlns:rdf="http://www.w3.org/1999/02/22-rdf-syntax-ns#"
   xmlns:svg="http://www.w3.org/2000/svg"
   xmlns="http://www.w3.org/2000/svg"
   xmlns:xlink="http://www.w3.org/1999/xlink"
   xmlns:sodipodi="http://sodipodi.sourceforge.net/DTD/sodipodi-0.dtd"
   xmlns:inkscape="http://www.inkscape.org/namespaces/inkscape"
   viewBox="0 0 16 16"
   version="1.1"
   id="svg6"
   sodipodi:docname="sc_arrowshapes.up-down-arrow.svg"
   inkscape:version="0.92.3 (2405546, 2018-03-11)"><metadata
   id="metadata12">
  <rdf:RDF>
    <cc:Work
       rdf:about="">
      <dc:format>image/svg+xml</dc:format>
      <dc:type
         rdf:resource="http://purl.org/dc/dcmitype/StillImage" />
      <dc:title></dc:title>
    </cc:Work>
  </rdf:RDF>
</metadata>
<defs
   id="defs10">
  <linearGradient
     gradientTransform="translate(-31.322034,-15.864407)"
     id="a"
     gradientUnits="userSpaceOnUse"
     x1="12"
     x2="12"
     y1="21.5"
     y2="2.5">
    <stop
       offset="0"
       stop-color="#e5eefc"
       id="stop1020" />
    <stop
       offset="1"
       stop-color="#fcfdff"
       id="stop1022" />
  </linearGradient>
  <linearGradient
     inkscape:collect="always"
     xlink:href="#a"
     id="linearGradient848"
     x1="8.2100716"
     y1="13.238995"
     x2="8.2324524"
     y2="2.1881473"
     gradientUnits="userSpaceOnUse" />
</defs>
<sodipodi:namedview
   pagecolor="#ffffff"
   bordercolor="#666666"
   borderopacity="1"
   objecttolerance="10"
   gridtolerance="10"
   guidetolerance="10"
   inkscape:pageopacity="0"
   inkscape:pageshadow="2"
   inkscape:window-width="1366"
   inkscape:window-height="716"
   id="namedview8"
   showgrid="false"
   inkscape:zoom="14.75"
   inkscape:cx="-1.6610169"
   inkscape:cy="8"
   inkscape:window-x="-8"
   inkscape:window-y="-8"
   inkscape:window-maximized="1"
   inkscape:current-layer="svg6" />




     /&amp;gt;
 <path
   d="m8.0744784.9762829-3.1864409 2.9491526 1.7140405.6271951.05 6.9596654-1.6114974.379241 2.949152 3.305085 3.1579744-3.427726-1.7841424-.522875.454675-6.4939823 1.2392904-.8774507z"
   fill="#fff"
   id="path2"
   style="stroke:none;fill-opacity:1;fill:url(#linearGradient848)" />
<path
   d="m12.500398 4.5121168c.002072-.1353015-.050778-.2656665-.146484-.3613282l-4.0000004-4.00390622c-.1952649-.19518416-.5117663-.19518416-.7070312 0l-4.0000004 4.00390622c-.314778.3149974-.091803.8533412.353516.8535156h2v5.9921878h-2c-.445318.000175-.668293.538518-.353516.853515l4.0000004 4.003907c.1952649.195184.5117663.195184.7070312 0l4.0000004-4.003907c.09571-.09566.148556-.226027.146484-.361328-.0043-.273075-.226891-.492193-.5-.492187h-2c0-1.9973959 0-3.9947919 0-5.9921878h2c.273109.0000065.495706-.2191123.5-.4921874zm-1.707031-.5078126h-1.292969c-.2761309.0000276-.4999724.2238691-.5.5v.3007813 6.3906245.300782c.0000276.276131.2238691.499972.5.5h1.292969l-2.792969 2.796875-2.792969-2.796875h1.292969c.2761309-.000028.4999724-.223869.5-.5v-.300782c0-2.1302082 0-4.2604163 0-6.3906245v-.3007813c-.0000276-.2761309-.2238691-.4999724-.5-.5h-1.292969l2.792969-2.796875z"
   fill="#808080"
   id="path4"
   style="fill:#0a84ff;fill-opacity:1" />
</svg>
