<svg viewBox="0 0 16 16" xmlns="http://www.w3.org/2000/svg">/&amp;amp;amp;gt;<g transform="translate(0 2)"><rect fill="#98989d" height="8" rx="1.5" width="14" x="1" y="1"/><path d="m2 2v6h12v-6z" fill="#fff" stroke-width="1.309307"/><path d="m4 3v4h-1v-4z" fill="#bababa" stroke-width="1.329297"/><g fill-rule="evenodd" stroke-width=".536425"><path d="m9.0097656 4.0000002a1.999888 1.999888 0 0 0 -2.0175781 2v5.4999998a1.999888 1.999888 0 0 0 3.0136715 1.722656c.332514.317979.631709.737488.904297.814453.823281.232458.896549.197686 1.621094-.02148.453673-.13723.647889-.288653.845703-.4375s.338307-.222668.615235-.632813c.184519-.273277.161701-.927334.162109-1.490234a1.999888 1.999888 0 0 0 .416015-3.3066398l-4.277343-3.6660201a1.999888 1.999888 0 0 0 -1.2832034-.4824219z" fill="#98989d"/><path d="m9 5.0058596a.99511465.99511465 0 0 0 -1.0019531.9941406v5.4999998a.99511465.99511465 0 0 0 1.7285156.671875l.3281255-.357422.279296.535156c-.0051-.01073-.01431-.03274-.02148-.05078.137415.359395.581981.689853.871094.771484.468709.132343.626699.115021 1.058594-.01562.261426-.07908.397485-.178645.53125-.279297.133764-.100653.232648-.167285.384765-.392579.160714-.23802.254932-.888141.126953-1.230468a.99511465.99511465 0 0 0 -.06445-.142578l-.197265-.34961h.246093a.99511465.99511465 0 0 0 .648438-1.7499998l-4.277351-3.6660204a.99511465.99511465 0 0 0 -.640625-.2382812z" fill="#fff"/><path d="m8.992188 6.0000002v5.4999998l1.04821-1.147348c.12285-.124089.331217-.09105.409652.06496l.781876 1.503482c.0039.0082.0074.01658.01047.02514.0314.08303.09409.134444.211635.167633.117547.03319.357072.0304.499128-.01257s.324264-.189972.381276-.27441c.05665-.0839.07818-.16821.01886-.326884l-.92308-1.6350158c-.08117-.169569.0425-.198424.230495-.198317h1.609252z"/></g></g></svg>