<svg viewBox="0 0 16 16" xmlns="http://www.w3.org/2000/svg" xmlns:xlink="http://www.w3.org/1999/xlink"><linearGradient id="a" gradientUnits="userSpaceOnUse" x1="1" x2="1" xlink:href="#c" y1="7" y2="1"/><linearGradient id="b" gradientUnits="userSpaceOnUse" x1="1" x2="1" xlink:href="#c" y1="15" y2="9"/><linearGradient id="c" gradientTransform="translate(-32.610169 -7.932203)" gradientUnits="userSpaceOnUse" x1="14" x2="13.79661" y1="22" y2="2.135593"><stop offset="0" stop-color="#0040dd"/><stop offset="1" stop-color="#0a84ff"/></linearGradient><g fill="#69696e" transform="scale(-1 1)"><rect height="1" ry=".5" width="10" x="-15" y="2"/><rect height="1" ry=".5" width="6.000002" x="-11" y="5"/><rect height="1" ry=".5" width="10" x="-14.999999" y="10"/><rect height="1" ry=".5" width="6.000002" x="-11" y="13"/></g><g fill="#eaeaea" fill-opacity=".992157" transform="matrix(-1 0 0 1 0 1)"><rect height="1" ry=".5" width="10" x="-15" y="2"/><rect height="1" ry=".5" width="6.000002" x="-11" y="5"/><rect height="1" ry=".5" width="10" x="-14.999999" y="10"/><rect height="1" ry=".5" width="6.000002" x="-11" y="13"/></g><path d="m5.0000001 7.0000031h-.8171521q-.1415858 0-.2265372-.072289-.084951-.076807-.1254045-.189759l-.3398058-1.179217h-1.9781554l-.3357606 1.1746989q-.032362.099398-.1254045.185241-.088997.081325-.2224919.081325h-.8292881l1.9579289-6h1.0841424zm-3.2483819-2.2725904h1.4967638l-.5461165-1.8975904q-.048544-.1400602-.1011327-.3253012-.052589-.189759-.1051781-.4111445-.048544.2213855-.1011326.4111445-.052589.1897591-.097087.3298193z" fill="url(#a)"/><path d="m.9846978 15v-5.9999993h1.8752599q.5322245 0 .9106029.1129521.3783784.112951.6153846.320783.2411642.207831.3492724.506024.1122661.2936752.1122661.6596382 0 .207832-.054054.402109-.054054.194277-.1663203.361446-.112266.167168-.2910602.307228-.1746361.135543-.4199585.230422 1.0686071.28012 1.0686071 1.323795 0 .384037-.1288981.709337-.1288981.325302-.3783784.56476-.2453222.234939-.6112266.370481-.3617464.131024-.8316008.131024zm1.0935551-2.606927v1.685241h.935551q.2619542 0 .4365904-.07229.1746362-.07229.2744283-.194277.1039501-.121988.1455301-.280121.04158-.16265.04158-.334337 0-.185241-.049896-.334337-.0457381-.149096-.1538461-.253012-.1039501-.103916-.2785864-.158132-.1704781-.058739-.4199583-.058739h-.931393zm0-.817771h.7193347q.4615385 0 .7110187-.189759.2494803-.194277.2494803-.637048 0-.460844-.2162162-.646085-.2162163-.1897582-.6819127-.1897582h-.7817048z" fill="url(#b)"/></svg>