<?xml version="1.0" encoding="UTF-8" standalone="no"?>
<svg
   xmlns:dc="http://purl.org/dc/elements/1.1/"
   xmlns:cc="http://creativecommons.org/ns#"
   xmlns:rdf="http://www.w3.org/1999/02/22-rdf-syntax-ns#"
   xmlns:svg="http://www.w3.org/2000/svg"
   xmlns="http://www.w3.org/2000/svg"
   xmlns:xlink="http://www.w3.org/1999/xlink"
   xmlns:sodipodi="http://sodipodi.sourceforge.net/DTD/sodipodi-0.dtd"
   xmlns:inkscape="http://www.inkscape.org/namespaces/inkscape"
   viewBox="0 0 16 16"
   version="1.1"
   id="svg12"
   sodipodi:docname="sc_avmediaplayer.svg"
   inkscape:version="0.92.3 (unknown)"
   inkscape:export-filename="/home/rizmut/Dokumen/Rizmut/Github/libreoffice-style-sukapura/images_sukapura/cmd/sc_avmediaplayer.png"
   inkscape:export-xdpi="96"
   inkscape:export-ydpi="96"><metadata
   id="metadata18">
  <rdf:RDF>
    <cc:Work
       rdf:about="">
      <dc:format>image/svg+xml</dc:format>
      <dc:type
         rdf:resource="http://purl.org/dc/dcmitype/StillImage" />
      <dc:title></dc:title>
    </cc:Work>
  </rdf:RDF>
</metadata>
<defs
   id="defs16">
  <linearGradient
     gradientTransform="translate(-24.949153,-8.6346995)"
     id="a"
     gradientUnits="userSpaceOnUse"
     x1="7"
     x2="7"
     y1="20"
     y2="3">
    <stop
       offset="0"
       stop-color="#f5f5f5"
       id="stop1565" />
    <stop
       offset=".3888889"
       stop-color="#fdfdfd"
       id="stop1567" />
    <stop
       offset="1"
       stop-color="#fff"
       id="stop1569" />
  </linearGradient>
  <linearGradient
     inkscape:collect="always"
     xlink:href="#a"
     id="linearGradient2163"
     x1="1"
     y1="8"
     x2="14"
     y2="8"
     gradientUnits="userSpaceOnUse" />
  <linearGradient
     inkscape:collect="always"
     xlink:href="#a"
     id="linearGradient2167"
     gradientUnits="userSpaceOnUse"
     x1="6"
     y1="12"
     x2="6"
     y2="4" />
</defs>
<sodipodi:namedview
   pagecolor="#ffffff"
   bordercolor="#666666"
   borderopacity="1"
   objecttolerance="10"
   gridtolerance="10"
   guidetolerance="10"
   inkscape:pageopacity="0"
   inkscape:pageshadow="2"
   inkscape:window-width="1366"
   inkscape:window-height="706"
   id="namedview14"
   showgrid="true"
   inkscape:zoom="5.2149125"
   inkscape:cx="5.6101254"
   inkscape:cy="-13.711047"
   inkscape:window-x="0"
   inkscape:window-y="0"
   inkscape:window-maximized="1"
   inkscape:current-layer="svg12">
  <inkscape:grid
     type="xygrid"
     id="grid2165" />
</sodipodi:namedview>


     /&amp;gt;
 <path
   d="m1 1c-.554 0-1 .446-1 1v12c0 .554.446 1 1 1h13c.554 0 1-.446 1-1v-12c0-.554-.446-1-1-1zm0 3h13v8h-13z"
   fill="#808080"
   id="path2"
   style="fill:#98989d;fill-opacity:1" />
<g
   fill="#fff"
   id="g10"
   style="fill-opacity:1.0;fill:url(#linearGradient2163)">
  <path
     d="m1 2v1h1v-1zm3 0v1h1v-1zm3 0v1h1v-1zm3 0v1h1v-1zm3 0v1h1v-1z"
     id="path4"
     style="fill-opacity:1.0;fill:url(#linearGradient2163)" />
  <path
     d="m1 4h13v8h-13z"
     id="path6"
     style="fill-opacity:1;fill:url(#linearGradient2167)" />
  <path
     d="m1 13v1h1v-1zm3 0v1h1v-1zm3 0v1h1v-1zm3 0v1h1v-1zm3 0v1h1v-1z"
     id="path8"
     style="fill-opacity:1.0;fill:url(#linearGradient2163)" />
</g>
</svg>
