<?xml version="1.0" encoding="UTF-8" standalone="no"?>
<svg
   xmlns:dc="http://purl.org/dc/elements/1.1/"
   xmlns:cc="http://creativecommons.org/ns#"
   xmlns:rdf="http://www.w3.org/1999/02/22-rdf-syntax-ns#"
   xmlns:svg="http://www.w3.org/2000/svg"
   xmlns="http://www.w3.org/2000/svg"
   xmlns:xlink="http://www.w3.org/1999/xlink"
   xmlns:sodipodi="http://sodipodi.sourceforge.net/DTD/sodipodi-0.dtd"
   xmlns:inkscape="http://www.inkscape.org/namespaces/inkscape"
   viewBox="0 0 16 16"
   version="1.1"
   id="svg6"
   sodipodi:docname="sc_arrowshapes.svg"
   inkscape:version="0.92.3 (2405546, 2018-03-11)"><metadata
   id="metadata12">
  <rdf:RDF>
    <cc:Work
       rdf:about="">
      <dc:format>image/svg+xml</dc:format>
      <dc:type
         rdf:resource="http://purl.org/dc/dcmitype/StillImage" />
      <dc:title></dc:title>
    </cc:Work>
  </rdf:RDF>
</metadata>
<defs
   id="defs10">
  <linearGradient
     gradientTransform="translate(-23.322034,-15.118644)"
     id="a"
     gradientUnits="userSpaceOnUse"
     x1="12"
     x2="12"
     y1="21.5"
     y2="2.5">
    <stop
       offset="0"
       stop-color="#e5eefc"
       id="stop1020" />
    <stop
       offset="1"
       stop-color="#fcfdff"
       id="stop1022" />
  </linearGradient>
  <linearGradient
     inkscape:collect="always"
     xlink:href="#a"
     id="linearGradient848"
     x1="6.0847459"
     y1="12.98881"
     x2="5.8644066"
     y2="3.0905044"
     gradientUnits="userSpaceOnUse" />
</defs>
<sodipodi:namedview
   pagecolor="#ffffff"
   bordercolor="#666666"
   borderopacity="1"
   objecttolerance="10"
   gridtolerance="10"
   guidetolerance="10"
   inkscape:pageopacity="0"
   inkscape:pageshadow="2"
   inkscape:window-width="1366"
   inkscape:window-height="716"
   id="namedview8"
   showgrid="false"
   inkscape:zoom="14.75"
   inkscape:cx="-1.6610169"
   inkscape:cy="18.847458"
   inkscape:window-x="-8"
   inkscape:window-y="-8"
   inkscape:window-maximized="1"
   inkscape:current-layer="svg6" />




     /&amp;gt;
 <path
   d="m1.0677966 7.9152542 2.9491526 3.1864408.6271951-1.7140404 6.9596657-.05.379241 1.6114979 3.305085-2.9491525-3.427726-3.1579739-.522875 1.7841421-6.4939826-.4546757-.8774507-1.2392891z"
   fill="#fff"
   id="path2"
   style="fill-opacity:1;fill:url(#linearGradient848)" />
<path
   d="m4.5117188 3.5c-.1353015-.0020722-.2656665.0507785-.3613282.1464844l-4.00390622 4c-.19518416.1952649-.19518416.5117663 0 .7070312l4.00390622 4.0000004c.3149974.314778.8533412.091803.8535156-.353516v-2h5.9921878v2c.000175.445318.538518.668293.853515.353516l4.003907-4.0000004c.195184-.1952649.195184-.5117663 0-.7070312l-4.003907-4c-.095662-.0957059-.226027-.1485566-.361328-.1464844-.273075.0042945-.492193.2268913-.492187.5v2c-1.9973959 0-3.9947919 0-5.9921878 0v-2c.0000065-.2731089-.2191123-.4957057-.4921874-.5zm-.5078126 1.7070312v1.2929688c.0000276.2761309.2238691.4999724.5.5h.3007813 6.3906245.300782c.276131-.0000276.499972-.2238691.5-.5v-1.2929688l2.796875 2.7929688-2.796875 2.792969v-1.292969c-.000028-.2761309-.223869-.4999724-.5-.5h-.300782c-2.1302082 0-4.2604163 0-6.3906245 0h-.3007813c-.2761309.0000276-.4999724.2238691-.5.5v1.292969l-2.796875-2.792969z"
   fill="#808080"
   id="path4"
   style="fill:#0a84ff;fill-opacity:1" />
</svg>
