<?xml version="1.0" encoding="UTF-8" standalone="no"?>
<svg
   xmlns:dc="http://purl.org/dc/elements/1.1/"
   xmlns:cc="http://creativecommons.org/ns#"
   xmlns:rdf="http://www.w3.org/1999/02/22-rdf-syntax-ns#"
   xmlns:svg="http://www.w3.org/2000/svg"
   xmlns="http://www.w3.org/2000/svg"
   xmlns:xlink="http://www.w3.org/1999/xlink"
   xmlns:sodipodi="http://sodipodi.sourceforge.net/DTD/sodipodi-0.dtd"
   xmlns:inkscape="http://www.inkscape.org/namespaces/inkscape"
   viewBox="0 0 16 16"
   version="1.1"
   id="svg10"
   sodipodi:docname="sc_bibliographycomponent.svg"
   inkscape:export-filename="/home/rizmut/Dokumen/Rizmut/Github/libreoffice-style-sukapura/images_sukapura/cmd/sc_bibliographycomponent.png"
   inkscape:export-xdpi="96"
   inkscape:export-ydpi="96"
   inkscape:version="0.92.3 (unknown)">
  <metadata
     id="metadata16">
    <rdf:RDF>
      <cc:Work
         rdf:about="">
        <dc:format>image/svg+xml</dc:format>
        <dc:type
           rdf:resource="http://purl.org/dc/dcmitype/StillImage" />
        <dc:title></dc:title>
      </cc:Work>
    </rdf:RDF>
  </metadata>
  <defs
     id="defs14">
    <linearGradient
       gradientTransform="translate(-26.983051,-6.9830508)"
       id="a"
       gradientUnits="userSpaceOnUse"
       x1="14"
       x2="13.79661"
       y1="22"
       y2="2.1355929">
      <stop
         offset="0"
         stop-color="#0040dd"
         id="stop2" />
      <stop
         offset="1"
         stop-color="#0a84ff"
         id="stop4" />
    </linearGradient>
    <linearGradient
       inkscape:collect="always"
       xlink:href="#a"
       id="linearGradient880"
       x1="7"
       y1="16"
       x2="7"
       y2="1"
       gradientUnits="userSpaceOnUse" />
    <radialGradient
       id="b"
       cx="10.994179"
       cy="4.4284401"
       gradientTransform="matrix(1.4,4e-8,-1e-8,1.2,-4.39185,-2.314129)"
       gradientUnits="userSpaceOnUse"
       r="5">
      <stop
         offset="0"
         stop-color="#d7d7d7"
         id="stop9" />
      <stop
         offset=".49894297"
         stop-color="#f7f7f7"
         id="stop11" />
      <stop
         offset="1"
         stop-color="#fff"
         id="stop13" />
    </radialGradient>
    <linearGradient
       id="a-3"
       gradientUnits="userSpaceOnUse"
       x1="10"
       x2="11.500001"
       y1="4"
       y2="2.4999993">
      <stop
         offset="0"
         stop-color="#fff"
         id="stop2-6" />
      <stop
         offset=".77967989"
         stop-color="#f1f1f1"
         id="stop4-7" />
      <stop
         offset="1"
         stop-color="#d5d5d5"
         id="stop6" />
    </linearGradient>
  </defs>
  <sodipodi:namedview
     pagecolor="#ffffff"
     bordercolor="#666666"
     borderopacity="1"
     objecttolerance="10"
     gridtolerance="10"
     guidetolerance="10"
     inkscape:pageopacity="0"
     inkscape:pageshadow="2"
     inkscape:window-width="1366"
     inkscape:window-height="706"
     id="namedview12"
     showgrid="true"
     inkscape:zoom="20.85965"
     inkscape:cx="8.0143146"
     inkscape:cy="6.4008012"
     inkscape:window-x="0"
     inkscape:window-y="0"
     inkscape:window-maximized="1"
     inkscape:current-layer="g936"
     inkscape:snap-global="true">
    <inkscape:grid
       type="xygrid"
       id="grid823"
       spacingx="0.5"
       spacingy="0.5"
       empspacing="2" />
  </sodipodi:namedview>
  <g
     id="g838"
     transform="translate(-2)">
    <path
       style="fill:url(#b)"
       inkscape:connector-curvature="0"
       id="path16"
       d="M 3,1 V 15 H 13 V 3.7050781 L 10.304688,1 Z" />
    <path
       style="fill:#98989d"
       inkscape:connector-curvature="0"
       id="path18"
       d="M 3,0 C 2.446,0 2,0.446 2,1 v 14 c 0,0.554 0.446,1 1,1 h 10 c 0.554,0 1,-0.446 1,-1 V 4.5 3.6367188 L 10.363281,0 H 9.5 Z M 3,1 H 9 V 4.5 C 9,4.777 9.223,5 9.5,5 H 13 V 15 H 3 Z m 7,0 3,3 h -3 z" />
    <path
       style="fill:url(#a-3)"
       inkscape:connector-curvature="0"
       id="path20"
       d="m 10,1 3,3 h -3 z" />
  </g>
  <g
     id="g936"
     transform="matrix(0.6875,0,0,0.6875,5,5)">
    <rect
       y="2.909091"
       x="-4.3636365"
       height="13.090909"
       width="20.363636"
       id="rect872"
       style="fill:url(#linearGradient880);fill-opacity:1;stroke:none;stroke-opacity:1" />
    <path
       style="fill:#ffffff;fill-opacity:1;stroke:none;stroke-width:1;stroke-opacity:1"
       d="M 4.9101562,5.9941406 C 4.6196584,5.9809893 4.3168465,5.981577 4,6 l -4e-7,8 1.5996094,-0.08008 C 6.2752562,13.958965 8.1155202,14.448295 9,15 9.88448,14.448292 11.724744,13.958965 12.400391,13.919922 L 14,14 14,6 C 11.465228,5.8526157 9.7678545,6.7993809 9,7.5 8.3281275,6.8869582 6.9436413,6.0862002 4.9101562,5.9941406 Z"
       transform="matrix(1.4545455,0,0,1.4545455,-7.2727273,-7.2727273)"
       id="rect2240"
       inkscape:connector-curvature="0"
       sodipodi:nodetypes="sccccccccs" />
    <path
       style="fill:#98989d;fill-opacity:1;stroke:none;stroke-width:0.6875;stroke-opacity:1"
       d="M 10 6.8125 C 9.5811176 7.0386786 9.2400322 7.2809857 9 7.5 C 8.7641208 7.284775 8.4087932 7.0527874 8 6.8300781 L 8 14.648438 C 8.3791595 14.72922 8.735247 14.834857 9 15 C 9.2647531 14.834856 9.6208404 14.72922 10 14.648438 L 10 6.8125 z "
       transform="matrix(1.4545455,0,0,1.4545455,-7.2727273,-7.2727273)"
       id="rect900" />
    <path
       style="fill:#69696e;fill-opacity:1;stroke:none;stroke-width:0.6875"
       d="M 3,5 V 15 H 9 C 8.1155202,14.448295 6.2752562,13.958965 5.599609,13.919922 L 3.9999996,14 4,6 C 6.5347717,5.8526157 8.2321457,6.7993808 9,7.5 9.7678545,6.7993809 11.465228,5.8526157 14,6 l 0,8 -1.599609,-0.08008 C 11.724744,13.958965 9.88448,14.448292 9,15 h 6 V 5 C 12.478062,5.066265 10.019918,5.6342971 9,6.7597656 7.9800827,5.6342971 5.5219381,5.0662647 3,5 Z"
       transform="matrix(1.4545455,0,0,1.4545455,-7.2727273,-7.2727273)"
       id="path2260"
       inkscape:connector-curvature="0"
       sodipodi:nodetypes="ccccccccccccccc" />
  </g>
</svg>
