<?xml version="1.0" encoding="UTF-8" standalone="no"?>
<svg
   xmlns:dc="http://purl.org/dc/elements/1.1/"
   xmlns:cc="http://creativecommons.org/ns#"
   xmlns:rdf="http://www.w3.org/1999/02/22-rdf-syntax-ns#"
   xmlns:svg="http://www.w3.org/2000/svg"
   xmlns="http://www.w3.org/2000/svg"
   xmlns:xlink="http://www.w3.org/1999/xlink"
   xmlns:sodipodi="http://sodipodi.sourceforge.net/DTD/sodipodi-0.dtd"
   xmlns:inkscape="http://www.inkscape.org/namespaces/inkscape"
   viewBox="0 0 16 16"
   version="1.1"
   id="svg14"
   sodipodi:docname="sc_bezierappend.svg"
   inkscape:version="0.92.3 (2405546, 2018-03-11)">
  <metadata
     id="metadata20">
    <rdf:RDF>
      <cc:Work
         rdf:about="">
        <dc:format>image/svg+xml</dc:format>
        <dc:type
           rdf:resource="http://purl.org/dc/dcmitype/StillImage" />
        <dc:title></dc:title>
      </cc:Work>
    </rdf:RDF>
  </metadata>
  <defs
     id="defs18">
    <linearGradient
       gradientTransform="matrix(0.26458333,0,0,0.26458333,101.6,307.58333)"
       id="b"
       gradientUnits="userSpaceOnUse"
       x1="18.5"
       x2="18.5"
       y1="23"
       y2="14.5">
      <stop
         offset="0"
         stop-color="#d70015"
         id="stop956" />
      <stop
         offset="1"
         stop-color="#ff453a"
         id="stop958" />
    </linearGradient>
    <linearGradient
       inkscape:collect="always"
       xlink:href="#b"
       id="linearGradient847"
       x1="1.3559322"
       y1="15.720339"
       x2="1.6440678"
       y2="13.076271"
       gradientUnits="userSpaceOnUse" />
    <linearGradient
       inkscape:collect="always"
       xlink:href="#b"
       id="linearGradient849"
       x1="14.559322"
       y1="4.7203388"
       x2="14.576271"
       y2="2.1440678"
       gradientUnits="userSpaceOnUse" />
    <linearGradient
       gradientTransform="translate(-29.694915,1.220339)"
       id="a-6"
       gradientUnits="userSpaceOnUse"
       x1="14"
       x2="13.79661"
       y1="22"
       y2="2.1355929">
      <stop
         offset="0"
         stop-color="#0040dd"
         id="stop2" />
      <stop
         offset="1"
         stop-color="#0a84ff"
         id="stop4" />
    </linearGradient>
    <linearGradient
       inkscape:collect="always"
       xlink:href="#a-6"
       id="linearGradient871"
       x1="9.7971067"
       y1="15.961873"
       x2="10.115863"
       y2="0.77543247"
       gradientUnits="userSpaceOnUse" />
    <linearGradient
       inkscape:collect="always"
       xlink:href="#b"
       id="linearGradient879"
       x1="5.1694913"
       y1="6.5593219"
       x2="5.1016951"
       y2="3.1694915"
       gradientUnits="userSpaceOnUse" />
  </defs>
  <sodipodi:namedview
     pagecolor="#ffffff"
     bordercolor="#666666"
     borderopacity="1"
     objecttolerance="10"
     gridtolerance="10"
     guidetolerance="10"
     inkscape:pageopacity="0"
     inkscape:pageshadow="2"
     inkscape:window-width="1366"
     inkscape:window-height="716"
     id="namedview16"
     showgrid="false"
     inkscape:zoom="7.375"
     inkscape:cx="18.010756"
     inkscape:cy="14.208393"
     inkscape:window-x="-8"
     inkscape:window-y="-8"
     inkscape:window-maximized="1"
     inkscape:current-layer="svg14" />
  <g
     fill="#808080"
     id="g8">
    <path
       d="m9 .04882813c-.7571642.0347447-1.491064.19018978-2.1523438.44921875-1.3225594.51805792-2.4047058 1.47078842-2.7617187 2.76367192-.113847.4122846-.1375995.8529259-.0859375 1.3085937v-.5703125h.9746094c.012232-.1631366.0347768-.3227484.0761718-.4726562.2513091-.9100888 1.0538869-1.663556 2.1621094-2.0976563 2.2164452-.86820056 5.4638954-.387486 7.0449214 2.46875l.875-.484375c-1.37889-2.49106193-3.861319-3.46946846-6.132812-3.36523437zm-4.5761719 5.95117187c.2613879.5426719.6341764 1.0965908 1.1386719 1.6523438 1.4725638 1.6221782 2.1287138 2.9982502 2.2734375 4.0605472.1447237 1.062296-.1813872 1.820057-.7753906 2.375-1.1880068 1.109885-3.6160578 1.276103-5.3730469.0625l-.5683594.822265c2.1331384 1.473421 5.0045899 1.359557 6.625-.154297.8102051-.756927 1.2649732-1.897409 1.0820313-3.240234s-.9621642-2.8777554-2.5234375-4.5976562c-.3094341-.340873-.5554765-.6679105-.75-.9804688z"
       fill-rule="evenodd"
       id="path2"
       style="fill-opacity:1;fill:url(#linearGradient871);stroke:none" />
    <path
       d="m0 13h3v3h-3z"
       id="path4"
       style="fill-opacity:1;fill:url(#linearGradient847)" />
    <path
       d="m13 1.9999999h3v3h-3z"
       id="path6"
       style="fill-opacity:1;fill:url(#linearGradient849)" />
  </g>
  <path
     d="m3 3v4h4v-4zm1 1h2v2h-2z"
     fill="#4d82b8"
     id="path10"
     style="stroke:none;fill-opacity:1;fill:url(#linearGradient879)" />
  <path
     d="m11 6c-.554 0-1 .446-1 1v3h-3c-.554 0-1 .446-1 1s.446 1 1 1h3v3c0 .554.446 1 1 1s1-.446 1-1v-3h3c.554 0 1-.446 1-1s-.446-1-1-1h-3v-3c0-.554-.446-1-1-1z"
     fill="#4d82b8"
     id="path12"
     style="fill:#32d74b;fill-opacity:1" />
</svg>
