<svg viewBox="0 0 16 16" xmlns="http://www.w3.org/2000/svg" xmlns:xlink="http://www.w3.org/1999/xlink"><linearGradient id="a" gradientUnits="userSpaceOnUse" x1="3.851638" x2="14.387326" y1="8.382507" y2="8.382507"><stop offset="0" stop-color="#fff"/><stop offset="1" stop-color="#f4f3f5"/></linearGradient>


     /&amp;amp;gt;
 <g fill-rule="evenodd"><path d="m7.783 4.0000054-1.8027613.018682-4.0078724.037365h-.00781c-.9356626.0347182-1.53809713.5124437-1.77346668 1.0125727-.23536957.5001291-.18812052 1.0060873-.18554966 1.1134571v4.3921778l.00195313-.04297c-.04403503.459305.18651862.881152.50977324 1.120929.32325462.239778.71366437.341366 1.10157897.347488.3879147.0061.6767804-.08236 1.0077147-.317596.3309345-.235245.4001213-.659978.365629-1.124666l.00195.0355.013672-3.9456741z" fill="#0a84ff"/><g fill="#fff" stroke="#808080" transform="matrix(.8660254 -.5 .5 .8660254 -2.969475 5.682784)"><path d="m4.3457953 3.420073.056726 8.772498c.030961.627735.4037868 1.077412.9958485 1.107916l7.4053542.04753c.588248-.03962 1.09332-.460298 1.092649-1.084497l-.056793-8.7825169z" fill="url(#a)" stroke="#69696e" stroke-width=".981904"/><path d="m4.841884 6.004626h8.533219v1.889495h-8.533219z" fill="#0a84ff" stroke="none"/></g></g></svg>