<svg viewBox="0 0 16 16" xmlns="http://www.w3.org/2000/svg"><path d="m2.0045271 15.96421v-15.96748383h5.5930059q2.90617 0 4.408605 1.11860113 1.502435 1.1076345 1.502435 3.2571035 0 1.1734345-.603168 2.0727021-.603167.888301-1.677902 1.3050347 1.228268.307067 1.930136 1.2392347.712834.9321676.712834 2.2810687 0 2.303003-1.469535 3.487404-1.469535 1.184401-4.189271 1.206335zm3.2900035-6.9528744v4.3099044h2.8184363q1.1624678 0 1.8095019-.548334.6580002-.5593.6580002-1.535335 0-2.1933354-2.2701019-2.2262354zm0-2.3249358h2.4346025q2.4894359-.0438667 2.4894359-1.9849687 0-1.0857011-.6360673-1.5572683-.6251006-.4825338-1.9849687-.4825338h-2.3030024z" fill="#4b4b4f" stroke-width=".561494"/></svg>