<?xml version="1.0" encoding="UTF-8" standalone="no"?>
<svg
   xmlns:dc="http://purl.org/dc/elements/1.1/"
   xmlns:cc="http://creativecommons.org/ns#"
   xmlns:rdf="http://www.w3.org/1999/02/22-rdf-syntax-ns#"
   xmlns:svg="http://www.w3.org/2000/svg"
   xmlns="http://www.w3.org/2000/svg"
   xmlns:xlink="http://www.w3.org/1999/xlink"
   xmlns:sodipodi="http://sodipodi.sourceforge.net/DTD/sodipodi-0.dtd"
   xmlns:inkscape="http://www.inkscape.org/namespaces/inkscape"
   viewBox="0 0 16 16"
   version="1.1"
   id="svg8"
   sodipodi:docname="sc_basicshapes.can.svg"
   inkscape:version="0.92.3 (2405546, 2018-03-11)">
  <metadata
     id="metadata14">
    <rdf:RDF>
      <cc:Work
         rdf:about="">
        <dc:format>image/svg+xml</dc:format>
        <dc:type
           rdf:resource="http://purl.org/dc/dcmitype/StillImage" />
        <dc:title></dc:title>
      </cc:Work>
    </rdf:RDF>
  </metadata>
  <defs
     id="defs12">
    <linearGradient
       gradientTransform="translate(-26.779661,-7.79661)"
       id="a"
       gradientUnits="userSpaceOnUse"
       x1="12"
       x2="12"
       y1="21.5"
       y2="2.5">
      <stop
         offset="0"
         stop-color="#e5eefc"
         id="stop2" />
      <stop
         offset="1"
         stop-color="#fcfdff"
         id="stop4" />
    </linearGradient>
    <linearGradient
       inkscape:collect="always"
       xlink:href="#a"
       id="linearGradient839"
       x1="8.1011753"
       y1="9.0571442"
       x2="7.9825001"
       y2="0.5005675"
       gradientUnits="userSpaceOnUse" />
    <linearGradient
       inkscape:collect="always"
       xlink:href="#a"
       id="linearGradient847"
       x1="7.9655824"
       y1="15.536458"
       x2="7.9316211"
       y2="9.0279837"
       gradientUnits="userSpaceOnUse" />
  </defs>
  <sodipodi:namedview
     pagecolor="#ffffff"
     bordercolor="#666666"
     borderopacity="1"
     objecttolerance="10"
     gridtolerance="10"
     guidetolerance="10"
     inkscape:pageopacity="0"
     inkscape:pageshadow="2"
     inkscape:window-width="1366"
     inkscape:window-height="716"
     id="namedview10"
     showgrid="false"
     inkscape:zoom="14.75"
     inkscape:cx="-1.6610169"
     inkscape:cy="8"
     inkscape:window-x="-8"
     inkscape:window-y="-8"
     inkscape:window-maximized="1"
     inkscape:current-layer="svg8" />
  <path
     d="m7.9824999.50056752a6.5175254 4.28539 0 0 0 -6.5175254 4.28538998 6.5175254 4.28539 0 0 0 6.5175254 4.28539 6.5175254 4.28539 0 0 0 6.5175261-4.28539 6.5175254 4.28539 0 0 0 -6.5175261-4.28538998z"
     fill="#fff"
     stroke="#808080"
     stroke-width=".964886"
     id="path2"
     style="fill-opacity:1;fill:url(#linearGradient839);stroke:#0a84ff;stroke-opacity:1" />
  <path
     d="m1.4649745 4.7859575v2.142695 2.142695 2.1426955c0 2.366755 2.9180031 4.285389 6.5175254 4.285389 3.5995221 0 6.5175261-1.918634 6.5175261-4.285389v-2.1426955-2.142695-2.142695c0 2.3667554-2.918004 4.28539-6.5175261 4.28539-3.5995223 0-6.5175254-1.9186346-6.5175254-4.28539z"
     fill="#fff"
     stroke="#808080"
     stroke-width=".964886"
     id="path4"
     style="fill-opacity:1;fill:url(#linearGradient847);stroke:#0a84ff;stroke-opacity:1" />
  <path
     d="m7.9999998 1.2287913a5.5977438 3.4687489 0 0 0 -5.5977438 3.4687489 5.5977438 3.4687489 0 0 0 5.5977438 3.4687489 5.5977438 3.4687489 0 0 0 5.5977452-3.4687489 5.5977438 3.4687489 0 0 0 -5.5977452-3.4687489z"
     fill="none"
     stroke="#fff"
     stroke-width=".804512"
     id="path6" />
</svg>
