<?xml version="1.0" encoding="UTF-8" standalone="no"?>
<svg
   xmlns:dc="http://purl.org/dc/elements/1.1/"
   xmlns:cc="http://creativecommons.org/ns#"
   xmlns:rdf="http://www.w3.org/1999/02/22-rdf-syntax-ns#"
   xmlns:svg="http://www.w3.org/2000/svg"
   xmlns="http://www.w3.org/2000/svg"
   xmlns:xlink="http://www.w3.org/1999/xlink"
   xmlns:sodipodi="http://sodipodi.sourceforge.net/DTD/sodipodi-0.dtd"
   xmlns:inkscape="http://www.inkscape.org/namespaces/inkscape"
   viewBox="0 0 16 16"
   version="1.1"
   id="svg16"
   sodipodi:docname="sc_bulletsandnumberingdialog.svg"
   inkscape:export-filename="/home/rizmut/Documents/Rizmut/Github/libreoffice-style-sukapura/images_sukapura/cmd/sc_bulletsandnumberingdialog.png"
   inkscape:export-xdpi="96"
   inkscape:export-ydpi="96"
   inkscape:version="0.92.3 (2405546, 2018-03-11)">
  <metadata
     id="metadata22">
    <rdf:RDF>
      <cc:Work
         rdf:about="">
        <dc:format>image/svg+xml</dc:format>
        <dc:type
           rdf:resource="http://purl.org/dc/dcmitype/StillImage" />
        <dc:title></dc:title>
      </cc:Work>
    </rdf:RDF>
  </metadata>
  <defs
     id="defs20">
    <linearGradient
       gradientTransform="translate(-32.610169,-7.9322034)"
       id="a"
       gradientUnits="userSpaceOnUse"
       x1="14"
       x2="13.79661"
       y1="22"
       y2="2.1355929">
      <stop
         offset="0"
         stop-color="#0040dd"
         id="stop829" />
      <stop
         offset="1"
         stop-color="#0a84ff"
         id="stop831" />
    </linearGradient>
    <linearGradient
       inkscape:collect="always"
       xlink:href="#a"
       id="linearGradient847"
       x1="4"
       y1="7"
       x2="3.9661016"
       y2="1.0508474"
       gradientUnits="userSpaceOnUse" />
    <linearGradient
       inkscape:collect="always"
       xlink:href="#a"
       id="linearGradient855"
       x1="4"
       y1="14.999998"
       x2="4.0677967"
       y2="9.1525412"
       gradientUnits="userSpaceOnUse" />
    <linearGradient
       gradientTransform="translate(-1,-5)"
       id="a-2"
       gradientUnits="userSpaceOnUse"
       x1="11"
       x2="11"
       y1="21"
       y2="3">
      <stop
         offset="0"
         stop-color="#f7f7f7"
         id="stop2" />
      <stop
         offset=".22222222"
         stop-color="#fff"
         id="stop4" />
      <stop
         offset=".83333331"
         stop-color="#fff"
         id="stop6" />
      <stop
         offset="1"
         stop-color="#f7f7f7"
         id="stop8" />
    </linearGradient>
    <linearGradient
       gradientTransform="matrix(1,0,0,0.53846154,-6,5.3076923)"
       id="b"
       gradientUnits="userSpaceOnUse"
       x1="12"
       x2="12"
       y1="18"
       y2="5">
      <stop
         offset="0"
         stop-color="#cfcfcf"
         id="stop11" />
      <stop
         offset="0.15476191"
         stop-color="#e7e7e7"
         id="stop13" />
      <stop
         offset="0.15476191"
         stop-color="#fff"
         id="stop15" />
      <stop
         offset=".5"
         stop-color="#f3f3f3"
         id="stop17" />
      <stop
         offset="0.85714287"
         stop-color="#f9f9f9"
         id="stop19" />
      <stop
         offset="0.85714287"
         stop-color="#fcfcfc"
         id="stop21" />
      <stop
         offset="1"
         stop-color="#fff"
         id="stop23" />
    </linearGradient>
    <linearGradient
       gradientTransform="matrix(1,0,0,0.39999999,-6,6.6999997)"
       id="c"
       gradientUnits="userSpaceOnUse"
       x1="12"
       x2="12"
       y1="12"
       y2="18.250002">
      <stop
         offset="0"
         stop-color="#f8f8f8"
         id="stop26" />
      <stop
         offset="1"
         stop-color="#fff"
         id="stop28" />
    </linearGradient>
  </defs>
  <sodipodi:namedview
     pagecolor="#ffffff"
     bordercolor="#666666"
     borderopacity="1"
     objecttolerance="10"
     gridtolerance="10"
     guidetolerance="10"
     inkscape:pageopacity="0"
     inkscape:pageshadow="2"
     inkscape:window-width="1366"
     inkscape:window-height="685"
     id="namedview18"
     showgrid="true"
     inkscape:zoom="20.85965"
     inkscape:cx="7.7729736"
     inkscape:cy="3.6953143"
     inkscape:window-x="0"
     inkscape:window-y="0"
     inkscape:window-maximized="1"
     inkscape:current-layer="g866">
    <inkscape:grid
       type="xygrid"
       id="grid857"
       spacingx="0.5"
       spacingy="0.5"
       empspacing="2" />
  </sodipodi:namedview>
  <g
     id="g866">
    <rect
       id="rect2"
       y="2"
       x="-15"
       width="10"
       transform="scale(-1 1)"
       ry=".5"
       height="1"
       fill="#69696e" />
    <rect
       id="rect4"
       y="5"
       x="-11"
       width="6.000002"
       transform="scale(-1 1)"
       ry=".5"
       height="1"
       fill="#69696e" />
    <path
       style="fill-opacity:1;fill:url(#linearGradient847)"
       id="path6"
       fill="#0a84ff"
       d="m.4805826 6h1.2475728v-3.168421c0-.1383459.00485-.2827068.014563-.4330828l-.8398058.6721804c-.055016.042105-.1100322.067669-.1650486.076692-.055016.00902-.1067959.00902-.1553397 0-.048543-.00902-.092233-.02406-.1310679-.045113-.035599-.02406-.063107-.04812-.082524-.072181l-.3689324-.4691724 1.9368932-1.5609022h1.0631068v5h1v1h-3.5194174z" />
    <path
       style="fill-opacity:1;fill:url(#linearGradient855)"
       id="path8"
       fill="#0a84ff"
       d="m2.0890866 9q.4097995 0 .7438753.125093.3385299.120625.5746101.344006.2405345.223381.3697104.540581.1336303.312732.1336303.692479 0 .326136-.093541.607595-.093541.276992-.2494431.531646-.155902.250186-.3652561.491437-.2093542.236784-.44098.478035l-1.2561245 1.317944q.2004453-.06254.4008908-.09382.2004455-.03574.3741648-.03574h1.340757q.1692651 0 .2717149.09829.1069045.098283.1069045.259116v.643336h-3.9999996v-.361876q0-.102755.040089-.218913.044543-.120625.1514477-.22338l1.7193762-1.773642q.2182627-.227848.3830734-.433358.169265-.20551.2806235-.406552.115813-.20551.1737195-.411021.057907-.209977.057907-.437825 0-.411021-.2048997-.620998-.2048999-.209978-.5790646-.209978-.1603563 0-.2939866.04915-.1336303.04915-.2405345.134028-.1069042.08488-.1826281.201043-.075724.116158-.1158128.250186-.07127.205509-.1959911.268056-.1202672.06254-.3340757.0268l-.5701567-.098285q.0668152-.433358.2405345-.755027.1737193-.326134.4320712-.54058.2628062-.218913.6013362-.326136.3385301-.11169.7260578-.11169z" />
    <path
       style="fill:#69696e"
       d="M 5.5 10 C 5.223 10 5 10.223 5 10.5 C 5 10.777 5.223 11 5.5 11 L 9 11 L 9 10 L 5.5 10 z M 10 10 L 10 11 L 14.5 11 C 14.777 11 15 10.777 15 10.5 C 15 10.223 14.777 10 14.5 10 L 10 10 z "
       id="rect10" />
    <path
       style="fill:#69696e"
       d="M 5.5 13 C 5.223 13 5 13.223 5 13.5 C 5 13.777 5.223 14 5.5 14 L 9 14 L 9 13 L 5.5 13 z M 10 13 L 10 14 L 10.5 14 C 10.777 14 11 13.777 11 13.5 C 11 13.223 10.777 13 10.5 13 L 10 13 z "
       id="rect12" />
  </g>
  <g
     id="g937"
     transform="translate(8)">
    <path
       id="path31"
       d="m 2,8 h 6 v 8 H 2 Z"
       style="fill:url(#a-2)"
       inkscape:connector-curvature="0"
       sodipodi:nodetypes="ccccc" />
    <path
       id="path35"
       d="m 2,7 h 6 v 9 H 2 Z"
       style="fill:#626262;stroke-width:0.77459669"
       inkscape:connector-curvature="0"
       sodipodi:nodetypes="ccccc" />
    <path
       id="path37"
       d="m 3,8 h 4 v 7 H 3 Z"
       style="fill:url(#b);stroke-width:0.7337994"
       inkscape:connector-curvature="0"
       sodipodi:nodetypes="ccccc" />
    <path
       id="path39"
       d="m 4,9 h 2 v 2.5 H 4 Z"
       style="fill:#dadada;stroke-width:0.91287094"
       inkscape:connector-curvature="0"
       sodipodi:nodetypes="ccccc" />
    <path
       id="path41"
       d="M 4,11.5 H 6 V 14 H 4 Z"
       style="fill:url(#c);stroke-width:0.63245553"
       inkscape:connector-curvature="0"
       sodipodi:nodetypes="ccccc" />
    <g
       id="g51"
       style="fill:#a2a2a7"
       transform="translate(-2,-6)" />
  </g>
</svg>
