<?xml version="1.0" encoding="UTF-8" standalone="no"?>
<svg
   xmlns:dc="http://purl.org/dc/elements/1.1/"
   xmlns:cc="http://creativecommons.org/ns#"
   xmlns:rdf="http://www.w3.org/1999/02/22-rdf-syntax-ns#"
   xmlns:svg="http://www.w3.org/2000/svg"
   xmlns="http://www.w3.org/2000/svg"
   xmlns:xlink="http://www.w3.org/1999/xlink"
   xmlns:sodipodi="http://sodipodi.sourceforge.net/DTD/sodipodi-0.dtd"
   xmlns:inkscape="http://www.inkscape.org/namespaces/inkscape"
   viewBox="0 0 16 16"
   version="1.1"
   id="svg1107"
   sodipodi:docname="sc_bulletsandnumberingdialog.svg"
   inkscape:version="0.92.3 (2405546, 2018-03-11)">
  <metadata
     id="metadata1113">
    <rdf:RDF>
      <cc:Work
         rdf:about="">
        <dc:format>image/svg+xml</dc:format>
        <dc:type
           rdf:resource="http://purl.org/dc/dcmitype/StillImage" />
      </cc:Work>
    </rdf:RDF>
  </metadata>
  <defs
     id="defs1111" />
  <sodipodi:namedview
     pagecolor="#ffffff"
     bordercolor="#666666"
     borderopacity="1"
     objecttolerance="10"
     gridtolerance="10"
     guidetolerance="10"
     inkscape:pageopacity="0"
     inkscape:pageshadow="2"
     inkscape:window-width="1366"
     inkscape:window-height="716"
     id="namedview1109"
     showgrid="false"
     inkscape:zoom="14.75"
     inkscape:cx="-4.5084746"
     inkscape:cy="8"
     inkscape:window-x="-8"
     inkscape:window-y="-8"
     inkscape:window-maximized="1"
     inkscape:current-layer="svg1107" />
  <linearGradient
     id="a"
     gradientUnits="userSpaceOnUse"
     x1="2.629941"
     x2="2.753574"
     xlink:href="#b"
     y1="12.938183"
     y2="10.061817" />
  <linearGradient
     id="b"
     gradientTransform="translate(-25.830508 -3.59322)"
     gradientUnits="userSpaceOnUse"
     x1="14"
     x2="13.79661"
     y1="22"
     y2="2.135593">
    <stop
       offset="0"
       stop-color="#0040dd"
       id="stop1036" />
    <stop
       offset="1"
       stop-color="#0a84ff"
       id="stop1038" />
  </linearGradient>
  <linearGradient
     id="c"
     gradientUnits="userSpaceOnUse"
     x1="2.486123"
     x2="2.32212"
     xlink:href="#b"
     y1="4.938183"
     y2="2.061817" />
  <linearGradient
     id="d"
     gradientUnits="userSpaceOnUse"
     x1="10"
     x2="10"
     y1="16"
     y2="-2">
    <stop
       offset="0"
       stop-color="#f7f7f7"
       id="stop1042" />
    <stop
       offset=".22222222"
       stop-color="#fff"
       id="stop1044" />
    <stop
       offset=".83333331"
       stop-color="#fff"
       id="stop1046" />
    <stop
       offset="1"
       stop-color="#f7f7f7"
       id="stop1048" />
  </linearGradient>
  <linearGradient
     id="e"
     gradientTransform="matrix(1 0 0 .53846154 -6 5.307692)"
     gradientUnits="userSpaceOnUse"
     x1="12"
     x2="12"
     y1="18"
     y2="5">
    <stop
       offset="0"
       stop-color="#cfcfcf"
       id="stop1051" />
    <stop
       offset=".15476191"
       stop-color="#e7e7e7"
       id="stop1053" />
    <stop
       offset=".15476191"
       stop-color="#fff"
       id="stop1055" />
    <stop
       offset=".5"
       stop-color="#f3f3f3"
       id="stop1057" />
    <stop
       offset=".85714287"
       stop-color="#f9f9f9"
       id="stop1059" />
    <stop
       offset=".85714287"
       stop-color="#fcfcfc"
       id="stop1061" />
    <stop
       offset="1"
       stop-color="#fff"
       id="stop1063" />
  </linearGradient>
  <linearGradient
     id="f"
     gradientTransform="matrix(1 0 0 .39999999 -6 6.7)"
     gradientUnits="userSpaceOnUse"
     x1="12"
     x2="12"
     y1="12"
     y2="18.250002">
    <stop
       offset="0"
       stop-color="#f8f8f8"
       id="stop1066" />
    <stop
       offset="1"
       stop-color="#fff"
       id="stop1068" />
  </linearGradient>
  <g
     fill="#69696e"
     id="g1079"
     style="fill:#4b4b4f;fill-opacity:1">
    <rect
       height="1"
       ry=".5"
       transform="scale(-1 1)"
       width="10"
       x="-15"
       y="2"
       id="rect1071"
       style="fill:#4b4b4f;fill-opacity:1" />
    <rect
       height="1"
       ry=".5"
       transform="scale(-1 1)"
       width="6.000002"
       x="-11"
       y="5"
       id="rect1073"
       style="fill:#4b4b4f;fill-opacity:1" />
    <path
       d="m5.5 10c-.277 0-.5.223-.5.5s.223.5.5.5h3.5v-1z"
       id="path1075"
       style="fill:#4b4b4f;fill-opacity:1" />
    <path
       d="m5.5 13c-.277 0-.5.223-.5.5s.223.5.5.5h3.5v-1z"
       id="path1077"
       style="fill:#4b4b4f;fill-opacity:1" />
  </g>
  <g
     transform="translate(8)"
     id="g1091">
    <path
       d="m2 8h6v8h-6z"
       fill="url(#d)"
       id="path1081" />
    <path
       d="m2 7h6v9h-6z"
       fill="#626262"
       stroke-width=".774597"
       id="path1083" />
    <path
       d="m3 8h4v7h-4z"
       fill="url(#e)"
       stroke-width=".733799"
       id="path1085" />
    <path
       d="m4 9h2v2.5h-2z"
       fill="#dadada"
       stroke-width=".912871"
       id="path1087" />
    <path
       d="m4 11.5h2v2.5h-2z"
       fill="url(#f)"
       stroke-width=".632456"
       id="path1089" />
  </g>
  <g
     fill="#eaeaea"
     fill-opacity=".992157"
     id="g1101">
    <rect
       height="1"
       ry=".5"
       transform="scale(-1 1)"
       width="10"
       x="-15"
       y="3"
       id="rect1093" />
    <rect
       height="1"
       ry=".5"
       transform="scale(-1 1)"
       width="6.000002"
       x="-11"
       y="6"
       id="rect1095" />
    <path
       d="m5.5 11c-.277 0-.5.223-.5.5s.223.5.5.5h3.5v-1z"
       id="path1097" />
    <path
       d="m5.5 14c-.277 0-.5.223-.5.5s.223.5.5.5h3.5v-1z"
       id="path1099" />
  </g>
  <path
     d="m4 3.5a1.5 1.5 0 0 1 -1.5 1.5 1.5 1.5 0 0 1 -1.5-1.5 1.5 1.5 0 0 1 1.5-1.5 1.5 1.5 0 0 1 1.5 1.5z"
     fill="url(#c)"
     id="path1103" />
  <path
     d="m4 11.5a1.5 1.5 0 0 1 -1.5 1.5 1.5 1.5 0 0 1 -1.5-1.5 1.5 1.5 0 0 1 1.5-1.5 1.5 1.5 0 0 1 1.5 1.5z"
     fill="url(#a)"
     id="path1105" />
</svg>
