<?xml version="1.0" encoding="UTF-8" standalone="no"?>
<svg
   xmlns:dc="http://purl.org/dc/elements/1.1/"
   xmlns:cc="http://creativecommons.org/ns#"
   xmlns:rdf="http://www.w3.org/1999/02/22-rdf-syntax-ns#"
   xmlns:svg="http://www.w3.org/2000/svg"
   xmlns="http://www.w3.org/2000/svg"
   xmlns:xlink="http://www.w3.org/1999/xlink"
   xmlns:sodipodi="http://sodipodi.sourceforge.net/DTD/sodipodi-0.dtd"
   xmlns:inkscape="http://www.inkscape.org/namespaces/inkscape"
   viewBox="0 0 16 16"
   version="1.1"
   id="svg6"
   sodipodi:docname="sc_browseview.svg"
   inkscape:version="0.92.3 (unknown)"><metadata
   id="metadata12">
  <rdf:RDF>
    <cc:Work
       rdf:about="">
      <dc:format>image/svg+xml</dc:format>
      <dc:type
         rdf:resource="http://purl.org/dc/dcmitype/StillImage" />
      <dc:title></dc:title>
    </cc:Work>
  </rdf:RDF>
</metadata>
<defs
   id="defs10">
  <linearGradient
     gradientTransform="translate(-25.830508,-3.5932203)"
     id="a"
     gradientUnits="userSpaceOnUse"
     x1="14"
     x2="13.79661"
     y1="22"
     y2="2.1355929">
    <stop
       offset="0"
       stop-color="#0040dd"
       id="stop2" />
    <stop
       offset="1"
       stop-color="#0a84ff"
       id="stop4" />
  </linearGradient>
  <linearGradient
     inkscape:collect="always"
     xlink:href="#a"
     id="linearGradient1467"
     gradientUnits="userSpaceOnUse"
     gradientTransform="matrix(-1,0,0,1,-29.010942,26.95119)"
     x1="-31.010942"
     y1="-4.95119"
     x2="-31.010942"
     y2="-16.951191" />
  <linearGradient
     inkscape:collect="always"
     xlink:href="#a"
     id="linearGradient847"
     x1="7.6610169"
     y1="15.889831"
     x2="7.5"
     y2="1"
     gradientUnits="userSpaceOnUse" />
  <linearGradient
     gradientTransform="translate(-14.595038,-11.35191)"
     id="a-3"
     gradientUnits="userSpaceOnUse"
     x1="8"
     x2="8.8085938"
     y1="14"
     y2="2.1347661">
    <stop
       offset="0"
       stop-color="#e5eefc"
       id="stop2-6" />
    <stop
       offset="1"
       stop-color="#fcfdff"
       id="stop4-7" />
  </linearGradient>
  <linearGradient
     inkscape:collect="always"
     xlink:href="#a-3"
     id="linearGradient867"
     x1="7.5644531"
     y1="14.996094"
     x2="7.5683632"
     y2="2.0039101"
     gradientUnits="userSpaceOnUse" />
</defs>
<sodipodi:namedview
   pagecolor="#ffffff"
   bordercolor="#666666"
   borderopacity="1"
   objecttolerance="10"
   gridtolerance="10"
   guidetolerance="10"
   inkscape:pageopacity="0"
   inkscape:pageshadow="2"
   inkscape:window-width="1366"
   inkscape:window-height="706"
   id="namedview8"
   showgrid="false"
   inkscape:zoom="10.429825"
   inkscape:cx="-9.6495804"
   inkscape:cy="17.142598"
   inkscape:window-x="0"
   inkscape:window-y="0"
   inkscape:window-maximized="1"
   inkscape:current-layer="svg6" />


     /&amp;gt;
 <path
   style="fill:url(#linearGradient867);fill-opacity:1"
   d="M 14,8.5 A 6.5,6.5 0 0 1 7.5,15 6.5,6.5 0 0 1 1,8.5 6.5,6.5 0 0 1 7.5,2 6.5,6.5 0 0 1 14,8.5 Z"
   id="circle2" />
<path
   d="m7.5 1a7.5 7.5 0 0 0 -7.5 7.5 7.5 7.5 0 0 0 7.5 7.5 7.5 7.5 0 0 0 7.5-7.5 7.5 7.5 0 0 0 -7.5-7.5zm.00391 1a6.5 6.5 0 0 1 .064453.00391.50005.50005 0 0 0 .109375.3027344c.6418609.8229503 1.155164 1.6604336 1.5390589 2.5175744-1.119111.1933347-2.2369139.1905685-3.3574219-.0058594.38362-.8549332.8948701-1.6907884 1.5351562-2.5117188a.50005.50005 0 0 0 .109375-.3066406zm-1.2089881.1152344c-.5843051.8029368-1.0703742 1.6335521-1.4355469 2.4921875-.6380173-.175292-1.2786377-.4302808-1.921875-.7246094a6.5 6.5 0 0 1 3.3574219-1.7675781zm2.4902343.015625a6.5 6.5 0 0 1 3.2890628 1.7597656c-.622233.2970411-1.243129.5483381-1.861328.7207031-.3631219-.8547662-.8473482-1.6808971-1.4277348-2.4804687zm-6.5214843 2.5390625c.7466984.356724 1.4969224.6529085 2.25.8613281-.2528039.7990086-.4037353 1.6213918-.4335938 2.46875h-3.0546875a6.5 6.5 0 0 1 1.2382813-3.3300781zm10.4785161.00586a6.5 6.5 0 0 1 1.236328 3.3242181h-2.988282c-.029784-.8452733-.17997-1.6657312-.43164-2.4628906.730412-.2053967 1.458102-.4993505 2.183594-.8613282zm-7.2460942 1.0683587c1.3593621.2565588 2.7228872.2628052 4.0839843.0078125.2387771.7323459.3778619 1.4799447.4082031 2.2480469h-4.9042968c.0304544-.7709663.1716948-1.5209022.4121094-2.2558594zm-4.4746094 3.2558594h3.0839844c.058298.7851002.2173833 1.58728.484375 2.40625-.7861884.212341-1.5684685.522676-2.3476563.896484a6.5 6.5 0 0 1 -1.2207031-3.302734zm4.0878906 0h4.8535156c-.0583742.7091257-.2047291 1.438748-.4589844 2.193359-.6676061-.120087-1.3353808-.199907-2.0039062-.195312-.6440198.004425-1.2871003.087991-1.9296875.205078-.2562167-.758023-.4023155-1.4909887-.4609375-2.203125zm5.855469 0h3.009765a6.5 6.5 0 0 1 -1.21289 3.294922c-.757185-.379302-1.516921-.687884-2.279297-.896484.265471-.816276.424308-1.6158182.482422-2.398438zm-3.464844 2.976562c.5471575-.0039 1.0949911.05604 1.6425781.146485-.365209.832811-.8525412 1.693877-1.4804687 2.589844a.50005.50005 0 0 0 -.0976563.283203 6.5 6.5 0 0 1 -.0644531.003906.50065925.50065925 0 0 0 -.0898438-.287109c-.6269472-.894568-1.1134883-1.754334-1.4785156-2.585938.5232715-.087786 1.0461235-.146627 1.5683594-.150391zm2.638672.347657c.65114.176538 1.305355.444999 1.960937.759765a6.5 6.5 0 0 1 -3.3515621 1.794922c.5759861-.868856 1.0420029-1.720577 1.3906251-2.554687zm-5.201172.011719c.3490871.832808.8149234 1.683346 1.390625 2.550781a6.5 6.5 0 0 1 -3.4199219-1.794922c.6792215-.312559 1.355858-.576136 2.0292969-.755859z"
   fill="#4e83b9"
   id="path4"
   style="fill-opacity:1;fill:url(#linearGradient847)" />
</svg>
