<?xml version="1.0" encoding="UTF-8" standalone="no"?>
<svg
   xmlns:dc="http://purl.org/dc/elements/1.1/"
   xmlns:cc="http://creativecommons.org/ns#"
   xmlns:rdf="http://www.w3.org/1999/02/22-rdf-syntax-ns#"
   xmlns:svg="http://www.w3.org/2000/svg"
   xmlns="http://www.w3.org/2000/svg"
   xmlns:xlink="http://www.w3.org/1999/xlink"
   xmlns:sodipodi="http://sodipodi.sourceforge.net/DTD/sodipodi-0.dtd"
   xmlns:inkscape="http://www.inkscape.org/namespaces/inkscape"
   viewBox="0 0 16 16"
   version="1.1"
   id="svg10"
   sodipodi:docname="sc_beziersmooth.svg"
   inkscape:version="0.92.3 (unknown)">
  <metadata
     id="metadata16">
    <rdf:RDF>
      <cc:Work
         rdf:about="">
        <dc:format>image/svg+xml</dc:format>
        <dc:type
           rdf:resource="http://purl.org/dc/dcmitype/StillImage" />
      </cc:Work>
    </rdf:RDF>
  </metadata>
  <defs
     id="defs14">
    <linearGradient
       id="d"
       gradientUnits="userSpaceOnUse"
       x1="-19.897808"
       x2="-19.579052"
       y1="17.182213"
       y2="1.9957711">
      <stop
         offset="0"
         stop-color="#0040dd"
         id="stop9" />
      <stop
         offset="1"
         stop-color="#0a84ff"
         id="stop11" />
    </linearGradient>
    <linearGradient
       id="c"
       gradientUnits="userSpaceOnUse"
       x1="14.559322"
       x2="14.576271"
       xlink:href="#a"
       y1="4.7203388"
       y2="2.144068"
       gradientTransform="translate(-31.84956,2.0617388)" />
    <linearGradient
       id="a"
       gradientTransform="matrix(0.26458333,0,0,0.26458333,101.6,307.58333)"
       gradientUnits="userSpaceOnUse"
       x1="18.5"
       x2="18.5"
       y1="23"
       y2="14.5">
      <stop
         offset="0"
         stop-color="#d70015"
         id="stop2" />
      <stop
         offset="1"
         stop-color="#ff453a"
         id="stop4" />
    </linearGradient>
    <linearGradient
       inkscape:collect="always"
       xlink:href="#a"
       id="linearGradient853"
       x1="8.2033901"
       y1="3.8305085"
       x2="7.9322033"
       y2="0.44067797"
       gradientUnits="userSpaceOnUse" />
    <linearGradient
       inkscape:collect="always"
       xlink:href="#d"
       id="linearGradient861"
       x1="7.7118645"
       y1="16.110384"
       x2="8.0847454"
       y2="1.1951305"
       gradientUnits="userSpaceOnUse" />
  </defs>
  <sodipodi:namedview
     pagecolor="#ffffff"
     bordercolor="#666666"
     borderopacity="1"
     objecttolerance="10"
     gridtolerance="10"
     guidetolerance="10"
     inkscape:pageopacity="0"
     inkscape:pageshadow="2"
     inkscape:window-width="1366"
     inkscape:window-height="706"
     id="namedview12"
     showgrid="false"
     inkscape:zoom="14.75"
     inkscape:cx="-0.71186441"
     inkscape:cy="8"
     inkscape:window-x="0"
     inkscape:window-y="0"
     inkscape:window-maximized="1"
     inkscape:current-layer="svg10" />
  <path
     d="m9 1.1699219v1.0410156a6 14 0 0 1 5 13.7890625h1a7 15 0 0 0 -6-14.8300781zm-2 .0019531a7 15 0 0 0 -6 14.828125h1a6 14 0 0 1 5-13.8027344z"
     fill="#808080"
     id="path2"
     style="fill-opacity:1;fill:url(#linearGradient861)" />
  <g
     fill="#4d82b8"
     id="g8"
     style="fill-opacity:1;fill:url(#linearGradient853)">
    <path
       d="m.48242188 1c-.26761018 0-.48242188.2148117-.48242188.4824219v.0351562c0 .2676102.2148117.4824219.48242188.4824219h6.51757812v-1zm8.51757812 0v1h6.517578c.26761 0 .482422-.2148117.482422-.4824219v-.0351562c0-.2676102-.214812-.4824219-.482422-.4824219z"
       id="path4"
       style="fill-opacity:1.0;fill:url(#linearGradient853)" />
    <path
       d="m7 0c-.554 0-1 .446-1 1v2c0 .554.446 1 1 1h2c.554 0 1-.446 1-1v-2c0-.554-.446-1-1-1zm0 1h2v2h-2z"
       id="path6"
       style="fill-opacity:1.0;fill:url(#linearGradient853)" />
  </g>
</svg>
