<?xml version="1.0" encoding="UTF-8" standalone="no"?>
<svg
   xmlns:dc="http://purl.org/dc/elements/1.1/"
   xmlns:cc="http://creativecommons.org/ns#"
   xmlns:rdf="http://www.w3.org/1999/02/22-rdf-syntax-ns#"
   xmlns:svg="http://www.w3.org/2000/svg"
   xmlns="http://www.w3.org/2000/svg"
   xmlns:xlink="http://www.w3.org/1999/xlink"
   xmlns:sodipodi="http://sodipodi.sourceforge.net/DTD/sodipodi-0.dtd"
   xmlns:inkscape="http://www.inkscape.org/namespaces/inkscape"
   viewBox="0 0 16 16"
   version="1.1"
   id="svg17"
   sodipodi:docname="sc_backgroundcolor.svg"
   inkscape:version="0.92.3 (2405546, 2018-03-11)"><metadata
   id="metadata23">
  <rdf:RDF>
    <cc:Work
       rdf:about="">
      <dc:format>image/svg+xml</dc:format>
      <dc:type
         rdf:resource="http://purl.org/dc/dcmitype/StillImage" />
      <dc:title></dc:title>
    </cc:Work>
  </rdf:RDF>
</metadata>
<defs
   id="defs21">
  <linearGradient
     gradientTransform="translate(-25.830508,-3.5932203)"
     id="a-3"
     gradientUnits="userSpaceOnUse"
     x1="14"
     x2="13.79661"
     y1="22"
     y2="2.1355929">
    <stop
       offset="0"
       stop-color="#0040dd"
       id="stop2-6" />
    <stop
       offset="1"
       stop-color="#0a84ff"
       id="stop4-7" />
  </linearGradient>
  <linearGradient
     inkscape:collect="always"
     xlink:href="#a-3"
     id="linearGradient1383"
     gradientUnits="userSpaceOnUse"
     gradientTransform="matrix(-1,0,0,1,-29.010942,26.95119)"
     x1="-31.010942"
     y1="-4.95119"
     x2="-31.010942"
     y2="-16.951191" />
  <linearGradient
     inkscape:collect="always"
     xlink:href="#a-3"
     id="linearGradient863"
     x1="11.373043"
     y1="9.4675837"
     x2="13.375103"
     y2="6.9493737"
     gradientUnits="userSpaceOnUse" />
  <linearGradient
     inkscape:collect="always"
     xlink:href="#a-3"
     id="linearGradient871"
     x1="4.3389831"
     y1="12.0678"
     x2="3.5796101"
     y2="3.3898335"
     gradientUnits="userSpaceOnUse" />
</defs>
<sodipodi:namedview
   pagecolor="#ffffff"
   bordercolor="#666666"
   borderopacity="1"
   objecttolerance="10"
   gridtolerance="10"
   guidetolerance="10"
   inkscape:pageopacity="0"
   inkscape:pageshadow="2"
   inkscape:window-width="1366"
   inkscape:window-height="685"
   id="namedview19"
   showgrid="true"
   inkscape:zoom="41.7193"
   inkscape:cx="5.3601233"
   inkscape:cy="11.478882"
   inkscape:window-x="0"
   inkscape:window-y="0"
   inkscape:window-maximized="1"
   inkscape:current-layer="svg17">
  <inkscape:grid
     type="xygrid"
     id="grid828"
     spacingx="0.5"
     spacingy="0.5"
     empspacing="2" />
</sodipodi:namedview>
<linearGradient
   id="a"
   gradientUnits="userSpaceOnUse"
   x1="3.851638"
   x2="14.387326"
   y1="8.382507"
   y2="8.382507">
  <stop
     offset="0"
     stop-color="#fff"
     id="stop2" />
  <stop
     offset="1"
     stop-color="#f4f3f5"
     id="stop4" />
</linearGradient>




     /&amp;amp;gt;
 <g
   fill-rule="evenodd"
   id="g15">
  <path
     d="m7.783 4.0000054-1.8027613.018682-4.0078724.037365h-.00781c-.9356626.0347182-1.53809713.5124437-1.77346668 1.0125727-.23536957.5001291-.18812052 1.0060873-.18554966 1.1134571v4.3921778l.00195313-.04297c-.04403503.459305.18651862.881152.50977324 1.120929.32325462.239778.71366437.341366 1.10157897.347488.3879147.0061.6767804-.08236 1.0077147-.317596.3309345-.235245.4001213-.659978.365629-1.124666l.00195.0355.013672-3.9456741z"
     fill="#0a84ff"
     id="path7"
     style="fill-opacity:1;fill:url(#linearGradient871)" />
  <g
     fill="#fff"
     stroke="#808080"
     transform="matrix(.8660254 -.5 .5 .8660254 -2.969475 5.682784)"
     id="g13">
    <path
       d="m4.3457953 3.420073.056726 8.772498c.030961.627735.4037868 1.077412.9958485 1.107916l7.4053542.04753c.588248-.03962 1.09332-.460298 1.092649-1.084497l-.056793-8.7825169z"
       fill="url(#a)"
       stroke="#69696e"
       stroke-width=".981904"
       id="path9"
       style="stroke-width:1;stroke-miterlimit:4;stroke-dasharray:none;stroke:#98989d;stroke-opacity:1" />
    <path
       d="m4.841884 6.004626h8.533219v1.889495h-8.533219z"
       fill="#0a84ff"
       stroke="none"
       id="path11"
       style="fill-opacity:1;fill:url(#linearGradient863)" />
  </g>
</g>
<g
   id="g840"
   transform="matrix(0.66667,0,0,0.66667,-0.82553829,3.7957542)">
  <ellipse
     style="fill:#ffffff;fill-opacity:1;stroke:#69696e;stroke-width:1.5000217;stroke-linecap:round;stroke-miterlimit:4;stroke-dasharray:none;stroke-opacity:1"
     id="ellipse8"
     transform="matrix(0.86821741,-0.49618397,0.50382625,0.86380502,0,0)"
     ry="2.309979"
     rx="2.3250091"
     cy="11.735798"
     cx="9.3029718" />
  <path
     sodipodi:nodetypes="cssc"
     inkscape:connector-curvature="0"
     style="fill:none;stroke:#69696e;stroke-width:1.49999249;stroke-linecap:round;stroke-miterlimit:4;stroke-dasharray:none;stroke-opacity:1"
     id="path10"
     d="m 13.988237,2.5563559 v -5.2263907 c 0,-2.7660537 5.99997,-2.9789888 5.99997,-0.1792985 v 3.9056967" />
</g>
</svg>
