<svg viewBox="0 0 16 16" xmlns="http://www.w3.org/2000/svg" xmlns:xlink="http://www.w3.org/1999/xlink"><linearGradient id="a" gradientUnits="userSpaceOnUse" x1="-14.24444" x2="-14.24444" y1="12.428188" y2="-.571812"><stop offset="0" stop-color="#2a9240"/><stop offset="1" stop-color="#32d74b"/></linearGradient><linearGradient id="b" gradientUnits="userSpaceOnUse" x1="11.5" x2="11" xlink:href="#a" y1="16" y2="12"/><linearGradient id="c" gradientUnits="userSpaceOnUse" x1="11" x2="11" xlink:href="#a" y1="12" y2="7"/>
/&amp;amp;gt;<path d="m5 3h9v12h-9z" fill="#fff"/><path d="m2 0c-.554 0-1 .446-1 1v12c0 .554.446 1 1 1h2v-1h-2v-12h9v1h1v-1c0-.554-.446-1-1-1z" fill="#98989d"/><path d="m2 1v12h4.2109375a5.5 5.5 0 0 1 -.2109375-1.5 5.5 5.5 0 0 1 5-5.4726562v-5.0273438z" fill="#fff"/><path d="m5 2c-.554 0-1 .446-1 1v7.740234 4.259766c0 .554.446 1 1 1h2.34375 6.65625c.554 0 1-.446 1-1v-7.7402344-4.2597656c0-.554-.446-1-1-1h-2.34375zm0 1h7.736328 1.263672v3.6074219 8.3925781h-7.7363281-1.2636719v-3.607422z" fill="#98989d"/><path d="m11.5 6c-3.0375661 0-5.5 2.4624339-5.5 5.5.0017764 1.278053-.0003281 3.176608.2636719 3.5.3135945.380221.676873.716566 1.0800781 1h6.65625c.554 0 1-.446 1-1v-7.7402344c-.308674-.2530916-.643982-.471828-1-.6523437-.773593-.3972716-1.630364-.6054419-2.5-.6074219z" fill="#fff" fill-opacity=".784314"/><g fill="#0040dd"><path d="m15.5 8c-.277 0-.5.223-.5.5v1.5h-1.5c-.277 0-.5.223-.5.5s.223.5.5.5h2c.277 0 .5-.223.5-.5v-2c0-.277-.223-.5-.5-.5z" fill="url(#c)"/><path d="m7.5 12c-.277 0-.5.223-.5.5v2c0 .277.223.5.5.5s.5-.223.5-.5v-1.5h1.5c.277 0 .5-.223.5-.5s-.223-.5-.5-.5z" fill="url(#b)"/></g><g fill="none" stroke="#0040dd" stroke-linecap="round"><path d="m7.5 12.5c2.279661 3.5 6.057166 4.190754 8 0" stroke="url(#b)"/><path d="m15.499115 10.493535c-2.279661-3.5000008-6.0571661-4.1907548-8.0000001 0" stroke="url(#c)"/></g></svg>