<?xml version="1.0" encoding="UTF-8" standalone="no"?>
<svg
   xmlns:dc="http://purl.org/dc/elements/1.1/"
   xmlns:cc="http://creativecommons.org/ns#"
   xmlns:rdf="http://www.w3.org/1999/02/22-rdf-syntax-ns#"
   xmlns:svg="http://www.w3.org/2000/svg"
   xmlns="http://www.w3.org/2000/svg"
   xmlns:sodipodi="http://sodipodi.sourceforge.net/DTD/sodipodi-0.dtd"
   xmlns:inkscape="http://www.inkscape.org/namespaces/inkscape"
   viewBox="0 0 16 16"
   version="1.1"
   id="svg6"
   sodipodi:docname="sc_circlecut_unfilled.svg"
   inkscape:version="0.92.3 (2405546, 2018-03-11)"><metadata
   id="metadata12">
  <rdf:RDF>
    <cc:Work
       rdf:about="">
      <dc:format>image/svg+xml</dc:format>
      <dc:type
         rdf:resource="http://purl.org/dc/dcmitype/StillImage" />
      <dc:title></dc:title>
    </cc:Work>
  </rdf:RDF>
</metadata>
<defs
   id="defs10">
  <linearGradient
     gradientTransform="translate(-24.677966,-13.898305)"
     id="a"
     gradientUnits="userSpaceOnUse"
     x1="12"
     x2="12"
     y1="21.5"
     y2="2.5">
    <stop
       offset="0"
       stop-color="#e5eefc"
       id="stop2" />
    <stop
       offset="1"
       stop-color="#fcfdff"
       id="stop4" />
  </linearGradient>
</defs>
<sodipodi:namedview
   pagecolor="#ffffff"
   bordercolor="#666666"
   borderopacity="1"
   objecttolerance="10"
   gridtolerance="10"
   guidetolerance="10"
   inkscape:pageopacity="0"
   inkscape:pageshadow="2"
   inkscape:window-width="1366"
   inkscape:window-height="716"
   id="namedview8"
   showgrid="false"
   inkscape:zoom="14.75"
   inkscape:cx="-1.6610169"
   inkscape:cy="8"
   inkscape:window-x="-8"
   inkscape:window-y="-8"
   inkscape:window-maximized="1"
   inkscape:current-layer="svg6" />




     /&amp;gt;
 <path
   d="m8 0c-4.412355 0-8 3.5876537-8 8 0 4.412346 3.587645 8 8 8s8-3.587654 8-8c0-.2062778-.017507-.3933799-.029297-.5625l-.011719-.1855469-7.2109371-7.21093747-.1855469-.01171875c-.1691116-.01178518-.3562141-.02929688-.5625-.02929688zm0 1c.093698 0 .2033739.00855.3085938.015625l6.6757812 6.6757812c.007074.1052185.015625.2148916.015625.3085938 0 3.871904-3.128087 7-7 7s-7-3.128096-7-7c0-3.8719045 3.128087-7 7-7zm1.9902344 4.4960938a.50005.50005 0 0 0 -.34375.1503906l-5 4.9999996a.50005.50005 0 1 0 .7070312.707032l5.0000004-5.0000004a.50005.50005 0 0 0 -.3632816-.8574218z"
   fill="#4d82b8"
   id="path2"
   style="fill:#0a84ff;fill-opacity:1" />
<path
   d="m8 1 7 7v-7z"
   fill="none"
   id="path4" />
</svg>
