<?xml version="1.0" encoding="UTF-8" standalone="no"?>
<svg
   xmlns:dc="http://purl.org/dc/elements/1.1/"
   xmlns:cc="http://creativecommons.org/ns#"
   xmlns:rdf="http://www.w3.org/1999/02/22-rdf-syntax-ns#"
   xmlns:svg="http://www.w3.org/2000/svg"
   xmlns="http://www.w3.org/2000/svg"
   xmlns:xlink="http://www.w3.org/1999/xlink"
   xmlns:sodipodi="http://sodipodi.sourceforge.net/DTD/sodipodi-0.dtd"
   xmlns:inkscape="http://www.inkscape.org/namespaces/inkscape"
   viewBox="0 0 16 16"
   version="1.1"
   id="svg19"
   sodipodi:docname="sc_closedoc.svg"
   inkscape:version="0.92.3 (2405546, 2018-03-11)"
   inkscape:export-filename="/home/rizmut/Documents/Rizmut/Github/libreoffice-style-sukapura/images_sukapura/cmd/sc_closedoc.png"
   inkscape:export-xdpi="96"
   inkscape:export-ydpi="96"><metadata
   id="metadata25">
  <rdf:RDF>
    <cc:Work
       rdf:about="">
      <dc:format>image/svg+xml</dc:format>
      <dc:type
         rdf:resource="http://purl.org/dc/dcmitype/StillImage" />
      <dc:title></dc:title>
    </cc:Work>
  </rdf:RDF>
</metadata>
<defs
   id="defs23">
  <radialGradient
     id="b"
     cx="10.994179"
     cy="4.4284401"
     gradientTransform="matrix(1.4,4e-8,-1e-8,1.2,-4.39185,-2.314129)"
     gradientUnits="userSpaceOnUse"
     r="5">
    <stop
       offset="0"
       stop-color="#d7d7d7"
       id="stop9" />
    <stop
       offset=".49894297"
       stop-color="#f7f7f7"
       id="stop11" />
    <stop
       offset="1"
       stop-color="#fff"
       id="stop13" />
  </radialGradient>
  <linearGradient
     id="a-6"
     gradientUnits="userSpaceOnUse"
     x1="10"
     x2="11.500001"
     y1="4"
     y2="2.4999993"
     gradientTransform="translate(-1,1.5)">
    <stop
       offset="0"
       stop-color="#fff"
       id="stop2-1" />
    <stop
       offset=".77967989"
       stop-color="#f1f1f1"
       id="stop4-3" />
    <stop
       offset="1"
       stop-color="#d5d5d5"
       id="stop6-2" />
  </linearGradient>
  <linearGradient
     gradientTransform="translate(75,-7)"
     id="a-367"
     gradientUnits="userSpaceOnUse"
     x1="14"
     x2="13.79661"
     y1="22"
     y2="2.1355929">
    <stop
       offset="0"
       stop-color="#0040dd"
       id="stop2206" />
    <stop
       offset="1"
       stop-color="#0a84ff"
       id="stop2208" />
  </linearGradient>
  <linearGradient
     inkscape:collect="always"
     xlink:href="#a-367"
     id="linearGradient2178"
     x1="7.5355339"
     y1="11.207107"
     x2="2.5857866"
     y2="6.2573595"
     gradientUnits="userSpaceOnUse" />
  <linearGradient
     inkscape:collect="always"
     xlink:href="#a-367"
     id="linearGradient2180"
     gradientUnits="userSpaceOnUse"
     x1="0.99963903"
     y1="8.9997416"
     x2="9.0003614"
     y2="8.9997416" />
  <linearGradient
     inkscape:collect="always"
     xlink:href="#a-367"
     id="linearGradient2182"
     gradientUnits="userSpaceOnUse"
     x1="0.99963903"
     y1="8.9997416"
     x2="9.0003614"
     y2="8.9997416" />
</defs>
<sodipodi:namedview
   pagecolor="#ffffff"
   bordercolor="#666666"
   borderopacity="1"
   objecttolerance="10"
   gridtolerance="10"
   guidetolerance="10"
   inkscape:pageopacity="0"
   inkscape:pageshadow="2"
   inkscape:window-width="1366"
   inkscape:window-height="685"
   id="namedview21"
   showgrid="true"
   inkscape:zoom="22.627417"
   inkscape:cx="11.142957"
   inkscape:cy="7.5085766"
   inkscape:window-x="0"
   inkscape:window-y="0"
   inkscape:window-maximized="1"
   inkscape:current-layer="svg19"
   inkscape:snap-smooth-nodes="true">
  <inkscape:grid
     type="xygrid"
     id="grid849"
     spacingx="0.5"
     spacingy="0.5"
     empspacing="2" />
</sodipodi:namedview>
<linearGradient
   id="a"
   gradientUnits="userSpaceOnUse"
   x1="8"
   x2="8"
   y1="4"
   y2="14">
  <stop
     offset="0"
     stop-color="#68caf8"
     id="stop2" />
  <stop
     offset=".5"
     stop-color="#70cef9"
     id="stop4" />
  <stop
     offset=".71428573"
     stop-color="#79d3fb"
     id="stop6" />
  <stop
     offset=".9285714"
     stop-color="#67c1ed"
     id="stop8" />
  <stop
     offset="1"
     stop-color="#67bfea"
     id="stop10" />
</linearGradient>





     /&amp;amp;gt;
 <g
   fill-rule="evenodd"
   id="g17">
  <path
     d="M 10.5,2.5000002 C 10.234801,2.5000513 9.980481,2.6054328 9.792969,2.792969 L 6.585938,4.5000002 1.5,4.4999998 C 0.9477381,4.500055 0.5000552,4.9477379 0.5,5.5 v 9 h 1 12 V 6 3.5 c -5.5e-5,-0.5522619 -0.447738,-0.9999448 -1,-1 z"
     id="path13"
     inkscape:connector-curvature="0"
     style="fill:#94ddff;stroke:#2bbcff"
     sodipodi:nodetypes="cccccccccccc" />
  <path
     d="m 0.5,14.5 h 1 12 v -7 C 13.79761,6.5079636 11.71799,6.5078125 12.757812,6.5078125 h -0.002 -1 -1 -8.9785156 c -1.02113938,0 -1.02076208,-5.516e-4 -1.27924988,0.9902344 z"
     id="path15"
     inkscape:connector-curvature="0"
     style="fill:url(#a);stroke:#15b0f5"
     sodipodi:nodetypes="ccccscccscc" />
</g>
<g
   id="g838"
   transform="matrix(0.4,0,0,0.4,10.4,0)">
  <path
     style="fill:url(#b)"
     inkscape:connector-curvature="0"
     id="path16"
     d="m 1.5,2.5 v 15 h 10 V 3.9550781 L 10.304688,2.5 Z"
     sodipodi:nodetypes="cccccc" />
  <path
     style="fill:#98989d"
     inkscape:connector-curvature="0"
     id="path18"
     d="M 0.5,0 C -0.054,0 -1,0.446 -1,1 V 18.75 C -1,19.304 -0.304,20 0.25,20 h 12.5 C 13.304,20 14,19.304 14,18.75 V 4.5 3.6367188 L 10.363281,0 H 9.5 Z m 1,2.5 h 5 V 7 c 0,0.277 0.223,0.5 0.5,0.5 h 4.5 v 10 h -10 z m 6,0 4,0.25 z"
     sodipodi:nodetypes="ssssssccccsccssccccccc" />
  <path
     style="fill:url(#a-6)"
     inkscape:connector-curvature="0"
     id="path20"
     d="m 9,2.5 3,3 H 9 Z" />
</g>
<g
   id="g2200"
   transform="translate(1,-1)">
  <path
     id="path2184"
     d="m 9.7421875,4.9980469 c -0.37266,0 -0.7548267,0.1474048 -1.0371094,0.4296875 L 6.5625,7.5703125 5.4785156,6.4863281 C 5.070526,6.0781412 4.4098987,5.9465165 3.8769531,6.1679688 3.3440076,6.389421 2.9712252,6.9502216 2.9726562,7.5273438 v 4.9472652 a 0.96696258,0.96696258 0 0 0 0,0.002 c 0.00164,0.766517 0.6983276,1.463205 1.4648438,1.464844 a 0.96696258,0.96696258 0 0 0 0.00195,0 h 4.9472657 c 0.5771212,0.0014 1.1379233,-0.371352 1.3593753,-0.904297 0.221452,-0.532944 0.08983,-1.193572 -0.31836,-1.601562 L 9.34375,10.351562 11.486328,8.2089844 c 0.562713,-0.5627118 0.562713,-1.511507 0,-2.0742188 L 10.779297,5.4277344 C 10.497014,5.1454509 10.114848,4.9980466 9.7421875,4.9980469 Z"
     style="fill:#ffffff;fill-opacity:0.78431373;stroke:none;stroke-width:1px;stroke-linecap:butt;stroke-linejoin:miter;stroke-opacity:1"
     inkscape:connector-curvature="0" />
  <g
     style="fill:url(#linearGradient2178);fill-opacity:1;stroke:none"
     transform="rotate(45,5.3535534,12.06066)"
     id="g1538">
    <path
       inkscape:connector-curvature="0"
       style="fill:url(#linearGradient2180);fill-opacity:1;stroke:none;stroke-width:1px;stroke-linecap:butt;stroke-linejoin:miter;stroke-opacity:1"
       d="M 1.5,8.9980469 A 0.50107274,0.50107274 0 0 0 1.1464844,9.8535156 l 3.5,3.5000004 a 0.50107274,0.50107274 0 0 0 0.7070312,0 l 3.5,-3.5000004 A 0.50107274,0.50107274 0 0 0 8.5,8.9980469 Z"
       id="path1522" />
    <rect
       style="opacity:1;fill:url(#linearGradient2182);fill-opacity:1;stroke:none;stroke-width:1;stroke-linecap:round;stroke-linejoin:round;stroke-miterlimit:4;stroke-dasharray:none;stroke-opacity:1"
       id="rect1524"
       width="2"
       height="6"
       x="4"
       y="4.5"
       ry="0.5" />
  </g>
</g>
</svg>
