<?xml version="1.0" encoding="UTF-8" standalone="no"?>
<svg
   xmlns:dc="http://purl.org/dc/elements/1.1/"
   xmlns:cc="http://creativecommons.org/ns#"
   xmlns:rdf="http://www.w3.org/1999/02/22-rdf-syntax-ns#"
   xmlns:svg="http://www.w3.org/2000/svg"
   xmlns="http://www.w3.org/2000/svg"
   xmlns:xlink="http://www.w3.org/1999/xlink"
   xmlns:sodipodi="http://sodipodi.sourceforge.net/DTD/sodipodi-0.dtd"
   xmlns:inkscape="http://www.inkscape.org/namespaces/inkscape"
   viewBox="0 0 16 16"
   version="1.1"
   id="svg6"
   sodipodi:docname="sc_calloutshapes.cloud-callout.svg"
   inkscape:version="0.92.3 (2405546, 2018-03-11)"><metadata
   id="metadata12">
  <rdf:RDF>
    <cc:Work
       rdf:about="">
      <dc:format>image/svg+xml</dc:format>
      <dc:type
         rdf:resource="http://purl.org/dc/dcmitype/StillImage" />
      <dc:title></dc:title>
    </cc:Work>
  </rdf:RDF>
</metadata>
<defs
   id="defs10">
  <linearGradient
     gradientTransform="translate(-28.338983,-11.79661)"
     id="a"
     gradientUnits="userSpaceOnUse"
     x1="12"
     x2="12"
     y1="21.5"
     y2="2.5">
    <stop
       offset="0"
       stop-color="#e5eefc"
       id="stop1020" />
    <stop
       offset="1"
       stop-color="#fcfdff"
       id="stop1022" />
  </linearGradient>
  <linearGradient
     inkscape:collect="always"
     xlink:href="#a"
     id="linearGradient840"
     x1="8.474576"
     y1="16"
     x2="8"
     y2="0.5"
     gradientUnits="userSpaceOnUse" />
</defs>
<sodipodi:namedview
   pagecolor="#ffffff"
   bordercolor="#666666"
   borderopacity="1"
   objecttolerance="10"
   gridtolerance="10"
   guidetolerance="10"
   inkscape:pageopacity="0"
   inkscape:pageshadow="2"
   inkscape:window-width="1366"
   inkscape:window-height="716"
   id="namedview8"
   showgrid="false"
   inkscape:zoom="14.75"
   inkscape:cx="-1.6610169"
   inkscape:cy="8"
   inkscape:window-x="-8"
   inkscape:window-y="-8"
   inkscape:window-maximized="1"
   inkscape:current-layer="svg6" />
/&gt;<path
   d="m8 .5c-4.142134 0-7.5 1.9587439-7.5 4.375s3.357866 4.375 7.5 4.375 7.5-1.9587439 7.5-4.375-3.357866-4.375-7.5-4.375zm-1.875 8.75c-1.7258899 0-3.125.5596441-3.125 1.25 0 .690356 1.3991101 1.25 3.125 1.25s3.125-.559644 3.125-1.25c0-.6903559-1.3991101-1.25-3.125-1.25zm-2.5 2.8125c-1.0355339 0-1.875.419733-1.875.9375 0 .517768.8394661.9375 1.875.9375s1.875-.419732 1.875-.9375c0-.517767-.8394661-.9375-1.875-.9375zm-1.875 2.1875c-.6903559 0-1.25.279832-1.25.625s.5596441.625 1.25.625 1.25-.279832 1.25-.625-.5596441-.625-1.25-.625z"
   fill="#fff"
   stroke="#808080"
   id="path2"
   style="fill-opacity:1;fill:url(#linearGradient840);stroke:#0a84ff;stroke-opacity:1" />
</svg>
