<?xml version="1.0" encoding="UTF-8" standalone="no"?>
<svg
   xmlns:dc="http://purl.org/dc/elements/1.1/"
   xmlns:cc="http://creativecommons.org/ns#"
   xmlns:rdf="http://www.w3.org/1999/02/22-rdf-syntax-ns#"
   xmlns:svg="http://www.w3.org/2000/svg"
   xmlns="http://www.w3.org/2000/svg"
   xmlns:xlink="http://www.w3.org/1999/xlink"
   xmlns:sodipodi="http://sodipodi.sourceforge.net/DTD/sodipodi-0.dtd"
   xmlns:inkscape="http://www.inkscape.org/namespaces/inkscape"
   viewBox="0 0 16 16"
   version="1.1"
   id="svg8"
   sodipodi:docname="sc_circlecut.svg"
   inkscape:version="0.92.3 (2405546, 2018-03-11)"><metadata
   id="metadata14">
  <rdf:RDF>
    <cc:Work
       rdf:about="">
      <dc:format>image/svg+xml</dc:format>
      <dc:type
         rdf:resource="http://purl.org/dc/dcmitype/StillImage" />
      <dc:title></dc:title>
    </cc:Work>
  </rdf:RDF>
</metadata>
<defs
   id="defs12">
  <linearGradient
     gradientTransform="translate(-23.525424,-7.9999998)"
     id="a"
     gradientUnits="userSpaceOnUse"
     x1="12"
     x2="12"
     y1="21.5"
     y2="2.5">
    <stop
       offset="0"
       stop-color="#e5eefc"
       id="stop2" />
    <stop
       offset="1"
       stop-color="#fcfdff"
       id="stop4" />
  </linearGradient>
  <linearGradient
     inkscape:collect="always"
     xlink:href="#a"
     id="linearGradient839"
     x1="1"
     y1="8"
     x2="15.016949"
     y2="8"
     gradientUnits="userSpaceOnUse" />
  <linearGradient
     inkscape:collect="always"
     xlink:href="#a"
     id="linearGradient847"
     x1="8"
     y1="15.525424"
     x2="8.5273438"
     y2="0.52734375"
     gradientUnits="userSpaceOnUse" />
</defs>
<sodipodi:namedview
   pagecolor="#ffffff"
   bordercolor="#666666"
   borderopacity="1"
   objecttolerance="10"
   gridtolerance="10"
   guidetolerance="10"
   inkscape:pageopacity="0"
   inkscape:pageshadow="2"
   inkscape:window-width="1366"
   inkscape:window-height="716"
   id="namedview10"
   showgrid="false"
   inkscape:zoom="10.429825"
   inkscape:cx="-1.057248"
   inkscape:cy="3.8719055"
   inkscape:window-x="-8"
   inkscape:window-y="-8"
   inkscape:window-maximized="1"
   inkscape:current-layer="svg8" />
/&gt;<path
   d="m8 .5c-4.142134 0-7.5 3.3578746-7.5 7.5 0 4.142125 3.357866 7.5 7.5 7.5s7.5-3.357875 7.5-7.5c0-.1778671-.015164-.3525726-.027344-.5273438l-6.9453122-6.94531245c-.1747715-.0121796-.3494763-.02734375-.5273438-.02734375z"
   fill="#fff"
   stroke="#8c8c8c"
   id="path2"
   style="fill-opacity:1;fill:url(#linearGradient847);stroke:#0a84ff;stroke-opacity:1" />
<path
   d="m8.2372881 1c-4.2372881 0-7.2372881 3.1340068-7.2372881 7 0 3.865993 3.1340068 7 7 7 3.865993 0 7-3.235702 7.016949-7.2881356zm-.2372881 1 6 6c0 3.313708-2.686292 6-6 6-3.3137085 0-6-2.686292-6-6 0-3.3137085 2.6862915-6 6-6z"
   fill="#fff"
   id="path4"
   style="fill-opacity:1.0;fill:url(#linearGradient839)" />
<path
   d="m8 1 7 7v-7z"
   fill="none"
   id="path6" />
</svg>
