<?xml version="1.0" encoding="UTF-8" standalone="no"?>
<svg
   xmlns:dc="http://purl.org/dc/elements/1.1/"
   xmlns:cc="http://creativecommons.org/ns#"
   xmlns:rdf="http://www.w3.org/1999/02/22-rdf-syntax-ns#"
   xmlns:svg="http://www.w3.org/2000/svg"
   xmlns="http://www.w3.org/2000/svg"
   xmlns:sodipodi="http://sodipodi.sourceforge.net/DTD/sodipodi-0.dtd"
   xmlns:inkscape="http://www.inkscape.org/namespaces/inkscape"
   viewBox="0 0 16 16"
   version="1.1"
   id="svg4"
   sodipodi:docname="sc_circlepie_unfilled.svg"
   inkscape:version="0.92.3 (2405546, 2018-03-11)"><metadata
   id="metadata10">
  <rdf:RDF>
    <cc:Work
       rdf:about="">
      <dc:format>image/svg+xml</dc:format>
      <dc:type
         rdf:resource="http://purl.org/dc/dcmitype/StillImage" />
      <dc:title></dc:title>
    </cc:Work>
  </rdf:RDF>
</metadata>
<defs
   id="defs8">
  <linearGradient
     gradientTransform="translate(-31.38983,-15.525424)"
     id="a"
     gradientUnits="userSpaceOnUse"
     x1="12"
     x2="12"
     y1="21.5"
     y2="2.5">
    <stop
       offset="0"
       stop-color="#e5eefc"
       id="stop2" />
    <stop
       offset="1"
       stop-color="#fcfdff"
       id="stop4" />
  </linearGradient>
</defs>
<sodipodi:namedview
   pagecolor="#ffffff"
   bordercolor="#666666"
   borderopacity="1"
   objecttolerance="10"
   gridtolerance="10"
   guidetolerance="10"
   inkscape:pageopacity="0"
   inkscape:pageshadow="2"
   inkscape:window-width="1366"
   inkscape:window-height="716"
   id="namedview6"
   showgrid="false"
   inkscape:zoom="14.75"
   inkscape:cx="-1.6610169"
   inkscape:cy="21.559322"
   inkscape:window-x="-8"
   inkscape:window-y="-8"
   inkscape:window-maximized="1"
   inkscape:current-layer="svg4" />




     /&amp;gt;
 <path
   d="m8.5 0c-5.0686457 0-8.5 3.603356-8.5 8 0 4.412346 3.587645 8 8 8 2.183859 0 4.197112-.745473 5.65625-2.197266 1.459138-1.451792 2.34375-3.596647 2.34375-6.302734v-.5h-7v-7zm-.5 1.0878906v6.9121094h6.914062c-.110557 2.210012-.803751 3.940446-1.96289 5.09375-1.255329 1.249009-2.9928974 1.90625-4.951172 1.90625-3.871913 0-7-3.128096-7-7 0-3.7316089 2.7126418-6.6759627 7-6.9121094zm-.4882812 6.9082032a.50005.50005 0 0 0 -.3125.1035156l-4 2.9999996a.50078167.50078167 0 0 0 .6015624.800782l4-3.0000004a.50005.50005 0 0 0 -.2890624-.9042968z"
   fill="#4d82b8"
   id="path2"
   style="fill:#0a84ff;fill-opacity:1" />
</svg>
