<?xml version="1.0" encoding="UTF-8" standalone="no"?>
<svg
   xmlns:dc="http://purl.org/dc/elements/1.1/"
   xmlns:cc="http://creativecommons.org/ns#"
   xmlns:rdf="http://www.w3.org/1999/02/22-rdf-syntax-ns#"
   xmlns:svg="http://www.w3.org/2000/svg"
   xmlns="http://www.w3.org/2000/svg"
   xmlns:sodipodi="http://sodipodi.sourceforge.net/DTD/sodipodi-0.dtd"
   xmlns:inkscape="http://www.inkscape.org/namespaces/inkscape"
   viewBox="0 0 16 16"
   version="1.1"
   id="svg38"
   sodipodi:docname="sc_crop.svg"
   inkscape:version="0.92.3 (2405546, 2018-03-11)"><metadata
   id="metadata44">
  <rdf:RDF>
    <cc:Work
       rdf:about="">
      <dc:format>image/svg+xml</dc:format>
      <dc:type
         rdf:resource="http://purl.org/dc/dcmitype/StillImage" />
    </cc:Work>
  </rdf:RDF>
</metadata>
<defs
   id="defs42" />
<sodipodi:namedview
   pagecolor="#ffffff"
   bordercolor="#666666"
   borderopacity="1"
   objecttolerance="10"
   gridtolerance="10"
   guidetolerance="10"
   inkscape:pageopacity="0"
   inkscape:pageshadow="2"
   inkscape:window-width="1366"
   inkscape:window-height="716"
   id="namedview40"
   showgrid="false"
   inkscape:zoom="14.75"
   inkscape:cx="-1.6610169"
   inkscape:cy="8"
   inkscape:window-x="-8"
   inkscape:window-y="-8"
   inkscape:window-maximized="1"
   inkscape:current-layer="svg38" />
/&amp;gt;<path
   d="m1 1h11v11h-11z"
   fill="#fff"
   id="path2" />
<circle
   cx="4.5"
   cy="4.5"
   fill="#ffd60a"
   r="2.005997"
   stroke="#fc0"
   id="circle4" />
<path
   d="m1.5 11.5-.0330869-.59841 1.5330869-1.40159 2 1.593356 5-4.593356 1.5 3.5v1.5z"
   fill="#32d74b"
   fill-rule="evenodd"
   stroke="#28cd41"
   id="path6" />
<g
   fill="#69696e"
   id="g14">
  <rect
     height="1"
     ry=".5"
     width="3"
     y="12"
     id="rect8" />
  <rect
     height="1"
     ry=".5"
     width="3"
     id="rect10" />
  <rect
     height="1"
     ry=".5"
     width="3"
     x="10"
     y="12"
     id="rect12" />
</g>
<rect
   height="2"
   ry="1"
   width="10"
   x="4"
   y="12"
   id="rect16"
   style="fill:#4b4b4f;fill-opacity:1" />
<rect
   height="2"
   ry="1"
   transform="rotate(90)"
   width="10"
   x="4"
   y="-14"
   id="rect18"
   style="fill:#4b4b4f;fill-opacity:1" />
<path
   d="m6.875 6c-.4842841 0-.875.3907159-.875.875v.25c0 .4842841.3907159.875.875.875h4.125v-2zm5.125 0v2h3.125c.484284 0 .875-.3907159.875-.875v-.25c0-.4842841-.390716-.875-.875-.875z"
   id="path20"
   style="fill:#4b4b4f;fill-opacity:1" />
<path
   d="m6.9824219 6c-.5440408 0-.9824219.4383811-.9824219.9824219v4.0175781h2v-4.0175781c0-.5440408-.4383811-.9824219-.9824219-.9824219zm-.9824219 6v3.017578c0 .544041.4383811.982422.9824219.982422h.0351562c.5440408 0 .9824219-.438381.9824219-.982422v-3.017578z"
   id="path22"
   style="fill:#4b4b4f;fill-opacity:1" />
<g
   fill="#69696e"
   id="g36">
  <rect
     height="3"
     ry=".5"
     width="1"
     x="12"
     id="rect24" />
  <rect
     height="1"
     ry=".5"
     width="3"
     x="4"
     id="rect26" />
  <rect
     height="1"
     ry=".5"
     width="3"
     x="8"
     id="rect28" />
  <rect
     height="3"
     ry=".5"
     width="1"
     id="rect30" />
  <rect
     height="3"
     ry=".5"
     width="1"
     y="4"
     id="rect32" />
  <rect
     height="3"
     ry=".5"
     width="1"
     y="8"
     id="rect34" />
</g>
</svg>
