<?xml version="1.0" encoding="UTF-8" standalone="no"?>
<svg
   xmlns:dc="http://purl.org/dc/elements/1.1/"
   xmlns:cc="http://creativecommons.org/ns#"
   xmlns:rdf="http://www.w3.org/1999/02/22-rdf-syntax-ns#"
   xmlns:svg="http://www.w3.org/2000/svg"
   xmlns="http://www.w3.org/2000/svg"
   xmlns:sodipodi="http://sodipodi.sourceforge.net/DTD/sodipodi-0.dtd"
   xmlns:inkscape="http://www.inkscape.org/namespaces/inkscape"
   viewBox="0 0 16 16"
   version="1.1"
   id="svg4"
   sodipodi:docname="sc_circle_unfilled.svg"
   inkscape:version="0.92.3 (2405546, 2018-03-11)"><metadata
   id="metadata10">
  <rdf:RDF>
    <cc:Work
       rdf:about="">
      <dc:format>image/svg+xml</dc:format>
      <dc:type
         rdf:resource="http://purl.org/dc/dcmitype/StillImage" />
      <dc:title></dc:title>
    </cc:Work>
  </rdf:RDF>
</metadata>
<defs
   id="defs8">
  <linearGradient
     gradientTransform="translate(-19.457627,-12.067796)"
     id="a"
     gradientUnits="userSpaceOnUse"
     x1="12"
     x2="12"
     y1="21.5"
     y2="2.5">
    <stop
       offset="0"
       stop-color="#e5eefc"
       id="stop2" />
    <stop
       offset="1"
       stop-color="#fcfdff"
       id="stop4" />
  </linearGradient>
</defs>
<sodipodi:namedview
   pagecolor="#ffffff"
   bordercolor="#666666"
   borderopacity="1"
   objecttolerance="10"
   gridtolerance="10"
   guidetolerance="10"
   inkscape:pageopacity="0"
   inkscape:pageshadow="2"
   inkscape:window-width="1366"
   inkscape:window-height="716"
   id="namedview6"
   showgrid="false"
   inkscape:zoom="14.75"
   inkscape:cx="-1.6610169"
   inkscape:cy="8"
   inkscape:window-x="-8"
   inkscape:window-y="-8"
   inkscape:window-maximized="1"
   inkscape:current-layer="svg4" />





     /&amp;gt;
 <path
   d="M 8,0 C 3.587645,0 0,3.5876537 0,8 c 0,4.412346 3.587645,8 8,8 4.412355,0 8,-3.587654 8,-8 C 16,3.5876537 12.412355,0 8,0 Z m 0,1 c 3.871913,0 7,3.1280955 7,7 0,3.871904 -3.128087,7 -7,7 C 4.128087,15 1,11.871904 1,8 1,4.1280955 4.128087,1 8,1 Z"
   id="path2"
   inkscape:connector-curvature="0"
   style="fill:#0a84ff;fill-opacity:1"
   sodipodi:nodetypes="ssssssssss" />
<path
   inkscape:connector-curvature="0"
   d="M 4,10.5 11,6.5000003"
   id="path4"
   style="stroke:#0a84ff;stroke-linecap:round;stroke-opacity:1" />
</svg>
