<?xml version="1.0" encoding="UTF-8" standalone="no"?>
<svg
   xmlns:dc="http://purl.org/dc/elements/1.1/"
   xmlns:cc="http://creativecommons.org/ns#"
   xmlns:rdf="http://www.w3.org/1999/02/22-rdf-syntax-ns#"
   xmlns:svg="http://www.w3.org/2000/svg"
   xmlns="http://www.w3.org/2000/svg"
   xmlns:xlink="http://www.w3.org/1999/xlink"
   xmlns:sodipodi="http://sodipodi.sourceforge.net/DTD/sodipodi-0.dtd"
   xmlns:inkscape="http://www.inkscape.org/namespaces/inkscape"
   viewBox="0 0 16 16"
   version="1.1"
   id="svg20"
   sodipodi:docname="sc_connectorcurvearrowstart.svg"
   inkscape:export-filename="D:\Rizmut\libreoffice-style-sukapura-master\images_sukapura\cmd\sc_connectorcurvearrows.png"
   inkscape:export-xdpi="96"
   inkscape:export-ydpi="96"
   inkscape:version="0.92.3 (2405546, 2018-03-11)"><metadata
   id="metadata26">
  <rdf:RDF>
    <cc:Work
       rdf:about="">
      <dc:format>image/svg+xml</dc:format>
      <dc:type
         rdf:resource="http://purl.org/dc/dcmitype/StillImage" />
      <dc:title></dc:title>
    </cc:Work>
  </rdf:RDF>
</metadata>
<defs
   id="defs24">
  <linearGradient
     gradientTransform="translate(-29.694915,1.220339)"
     id="a-6"
     gradientUnits="userSpaceOnUse"
     x1="14"
     x2="13.79661"
     y1="22"
     y2="2.1355929">
    <stop
       offset="0"
       stop-color="#0040dd"
       id="stop2" />
    <stop
       offset="1"
       stop-color="#0a84ff"
       id="stop4" />
  </linearGradient>
  <linearGradient
     inkscape:collect="always"
     xlink:href="#a-6"
     id="linearGradient853"
     x1="9.2372885"
     y1="13.533898"
     x2="9.0847454"
     y2="3.1440678"
     gradientUnits="userSpaceOnUse" />
  <linearGradient
     inkscape:collect="always"
     xlink:href="#a-6"
     id="linearGradient855"
     x1="9.2372885"
     y1="13.533898"
     x2="9.0847454"
     y2="3.1440678"
     gradientUnits="userSpaceOnUse" />
  <linearGradient
     inkscape:collect="always"
     xlink:href="#a-6"
     id="linearGradient857"
     x1="9.2372885"
     y1="13.533898"
     x2="9.0847454"
     y2="3.1440678"
     gradientUnits="userSpaceOnUse" />
  <linearGradient
     inkscape:collect="always"
     xlink:href="#a-6"
     id="linearGradient859"
     x1="9.2372885"
     y1="13.533898"
     x2="9.0847454"
     y2="3.1440678"
     gradientUnits="userSpaceOnUse" />
  <linearGradient
     inkscape:collect="always"
     xlink:href="#a-6"
     id="linearGradient861"
     x1="9.2372885"
     y1="13.533898"
     x2="9.0847454"
     y2="3.1440678"
     gradientUnits="userSpaceOnUse" />
  <linearGradient
     inkscape:collect="always"
     xlink:href="#a-6"
     id="linearGradient1617"
     x1="2"
     y1="6"
     x2="2"
     y2="1"
     gradientUnits="userSpaceOnUse" />
</defs>
<sodipodi:namedview
   pagecolor="#ffffff"
   bordercolor="#666666"
   borderopacity="1"
   objecttolerance="10"
   gridtolerance="10"
   guidetolerance="10"
   inkscape:pageopacity="0"
   inkscape:pageshadow="2"
   inkscape:window-width="1366"
   inkscape:window-height="716"
   id="namedview22"
   showgrid="true"
   inkscape:zoom="10.429825"
   inkscape:cx="-13.633255"
   inkscape:cy="-1.2484213"
   inkscape:window-x="-8"
   inkscape:window-y="-8"
   inkscape:window-maximized="1"
   inkscape:current-layer="g18">
  <inkscape:grid
     type="xygrid"
     id="grid895" />
</sodipodi:namedview>
/&amp;gt;<g
   fill="#4d82b8"
   id="g18">
  <path
     d="m5 3h7v1h-7z"
     id="path6" />
  <path
     d="m3 3h9v1h-9z"
     id="path8"
     style="fill-opacity:1;fill:url(#linearGradient861)" />
  <path
     d="m5 13h7v1h-7z"
     id="path10"
     style="fill-opacity:1;fill:url(#linearGradient853)" />
  <path
     d="m5 8h7v1h-7z"
     id="path12"
     style="fill-opacity:1;fill:url(#linearGradient857)" />
  <path
     d="m12 3v1a2 2 0 0 1 2 2 2 2 0 0 1 -2 2v1a3 3 0 0 0 3-3 3 3 0 0 0 -3-3z"
     id="path14"
     style="fill-opacity:1;fill:url(#linearGradient859)" />
  <path
     d="m5 8v1a2 2 0 0 0 -2 2 2 2 0 0 0 2 2v1a3 3 0 0 1 -3-3 3 3 0 0 1 3-3z"
     id="path16"
     style="fill-opacity:1;fill:url(#linearGradient855)" />
  <path
     inkscape:connector-curvature="0"
     d="M 5,6 1,3.5 5,1 Z"
     id="path6-4"
     style="fill:url(#linearGradient1617);fill-opacity:1;stroke:none" />
</g>
</svg>
