<?xml version="1.0" encoding="UTF-8" standalone="no"?>
<svg
   xmlns:dc="http://purl.org/dc/elements/1.1/"
   xmlns:cc="http://creativecommons.org/ns#"
   xmlns:rdf="http://www.w3.org/1999/02/22-rdf-syntax-ns#"
   xmlns:svg="http://www.w3.org/2000/svg"
   xmlns="http://www.w3.org/2000/svg"
   xmlns:xlink="http://www.w3.org/1999/xlink"
   xmlns:sodipodi="http://sodipodi.sourceforge.net/DTD/sodipodi-0.dtd"
   xmlns:inkscape="http://www.inkscape.org/namespaces/inkscape"
   viewBox="0 0 16 16"
   version="1.1"
   id="svg8"
   sodipodi:docname="sc_crookrotate.svg"
   inkscape:version="0.92.3 (unknown)"><metadata
   id="metadata14">
  <rdf:RDF>
    <cc:Work
       rdf:about="">
      <dc:format>image/svg+xml</dc:format>
      <dc:type
         rdf:resource="http://purl.org/dc/dcmitype/StillImage" />
      <dc:title></dc:title>
    </cc:Work>
  </rdf:RDF>
</metadata>
<defs
   id="defs12">
  <linearGradient
     gradientTransform="translate(-29.694915,1.220339)"
     id="a"
     gradientUnits="userSpaceOnUse"
     x1="14"
     x2="13.79661"
     y1="22"
     y2="2.1355929">
    <stop
       offset="0"
       stop-color="#0040dd"
       id="stop2" />
    <stop
       offset="1"
       stop-color="#0a84ff"
       id="stop4" />
  </linearGradient>
  <linearGradient
     inkscape:collect="always"
     xlink:href="#a"
     id="linearGradient841"
     x1="7.4983053"
     y1="9.7694912"
     x2="7.444068"
     y2="4.8881354"
     gradientUnits="userSpaceOnUse" />
</defs>
<sodipodi:namedview
   pagecolor="#ffffff"
   bordercolor="#666666"
   borderopacity="1"
   objecttolerance="10"
   gridtolerance="10"
   guidetolerance="10"
   inkscape:pageopacity="0"
   inkscape:pageshadow="2"
   inkscape:window-width="1366"
   inkscape:window-height="706"
   id="namedview10"
   showgrid="false"
   inkscape:zoom="14.75"
   inkscape:cx="-1.4915254"
   inkscape:cy="8"
   inkscape:window-x="0"
   inkscape:window-y="0"
   inkscape:window-maximized="1"
   inkscape:current-layer="svg8" />
/&gt;<path
   d="m .8.84218752c4.2221005.0507936 8.6435024.72455038 14.10025 2.18827528l-2.815875 12.0523502c-4.0195654-.949288-7.3829287-1.511003-11.284375-1.482813z"
   fill="#fff"
   id="path2" />
<path
   d="m4 4.8-2.4 2.3893344 2.4 2.389332v-1.1946664c2.8228016 0 4.0168112.1325504 6.030351.6892648l-.430351 1.3267352 3.2-1.68-1.6-3.12-.433098 1.226304c-2.0855084-.5522938-4.0861484-.8316374-6.766902-.8316374z"
   fill="#4d82b8"
   id="path4"
   style="fill-opacity:1;fill:url(#linearGradient841)" />
<path
   d="m0 0v14.4c4.5065436-.07378 8.2119632.434088 12.8 1.6l3.2-13.6c-6.3373432-1.8028164-11.2896853-2.37576232-16-2.4zm.8.84218752c4.2221005.0507936 8.6435024.72455038 14.10025 2.18827528l-2.815875 12.0523502c-4.0195654-.949288-7.3829287-1.511003-11.284375-1.482813z"
   fill="#808080"
   id="path6"
   style="fill:#69696e;fill-opacity:1" />
</svg>
