<?xml version="1.0" encoding="UTF-8" standalone="no"?>
<svg
   xmlns:dc="http://purl.org/dc/elements/1.1/"
   xmlns:cc="http://creativecommons.org/ns#"
   xmlns:rdf="http://www.w3.org/1999/02/22-rdf-syntax-ns#"
   xmlns:svg="http://www.w3.org/2000/svg"
   xmlns="http://www.w3.org/2000/svg"
   xmlns:xlink="http://www.w3.org/1999/xlink"
   xmlns:sodipodi="http://sodipodi.sourceforge.net/DTD/sodipodi-0.dtd"
   xmlns:inkscape="http://www.inkscape.org/namespaces/inkscape"
   viewBox="0 0 16 16"
   version="1.1"
   id="svg8"
   sodipodi:docname="sc_circlearc.svg"
   inkscape:version="0.92.3 (2405546, 2018-03-11)"><metadata
   id="metadata14">
  <rdf:RDF>
    <cc:Work
       rdf:about="">
      <dc:format>image/svg+xml</dc:format>
      <dc:type
         rdf:resource="http://purl.org/dc/dcmitype/StillImage" />
      <dc:title></dc:title>
    </cc:Work>
  </rdf:RDF>
</metadata>
<defs
   id="defs12">
  <linearGradient
     inkscape:collect="always"
     id="linearGradient837">
    <stop
       style="stop-color:#ffffff;stop-opacity:1;"
       offset="0"
       id="stop833" />
    <stop
       style="stop-color:#ffffff;stop-opacity:0;"
       offset="1"
       id="stop835" />
  </linearGradient>
  <linearGradient
     gradientTransform="translate(-34.169491,-10.372881)"
     id="a"
     gradientUnits="userSpaceOnUse"
     x1="12"
     x2="12"
     y1="21.5"
     y2="2.5">
    <stop
       offset="0"
       stop-color="#e5eefc"
       id="stop2" />
    <stop
       offset="1"
       stop-color="#fcfdff"
       id="stop4" />
  </linearGradient>
  <linearGradient
     inkscape:collect="always"
     xlink:href="#linearGradient837"
     id="linearGradient839"
     x1="1"
     y1="8"
     x2="15"
     y2="8"
     gradientUnits="userSpaceOnUse" />
  <linearGradient
     inkscape:collect="always"
     xlink:href="#a"
     id="linearGradient847"
     x1="8.1864405"
     y1="15.169425"
     x2="8"
     y2="1.1015625"
     gradientUnits="userSpaceOnUse" />
</defs>
<sodipodi:namedview
   pagecolor="#ffffff"
   bordercolor="#666666"
   borderopacity="1"
   objecttolerance="10"
   gridtolerance="10"
   guidetolerance="10"
   inkscape:pageopacity="0"
   inkscape:pageshadow="2"
   inkscape:window-width="1366"
   inkscape:window-height="716"
   id="namedview10"
   showgrid="false"
   inkscape:zoom="10.429825"
   inkscape:cx="-6.4771272"
   inkscape:cy="7.2417786"
   inkscape:window-x="-8"
   inkscape:window-y="-8"
   inkscape:window-maximized="1"
   inkscape:current-layer="svg8" />
/&gt;<path
   d="m8 1.1015625v2.8984375c-2.508969 0-4 1.9739561-4 4 0 2.203217 1.7967833 4 4 4 2.026044 0 3.640965-1.542335 3.898438-3.5l.101562-.5h3c-.268976 3.624452-3.305659 7-7 7-3.871913 0-7-3.128096-7-7 0-3.694333 3.3755408-6.6294622 7-6.8984375z"
   fill="#fff"
   id="path2"
   style="fill-opacity:1;fill:url(#linearGradient847)" />
<path
   d="m8 0c-4.412355 0-8 3.5876537-8 8 0 4.412346 3.587645 8 8 8s8-3.587654 8-8v-1h-5v1c0 1.6627766-1.3372234 3-3 3s-3-1.3372234-3-3 1.3372234-3 3-3h1v-5zm0 1.1015625v2.8984375c-2.508969 0-4 1.9739561-4 4 0 2.203217 1.7967833 4 4 4 2.026044 0 3.640965-1.542335 3.898438-3.5 0 0 .07266-.3577332.101562-.5h3c-.268976 3.624452-3.305659 7-7 7-3.871913 0-7-3.128096-7-7 0-3.694333 3.3755408-6.6294622 7-6.8984375z"
   fill="#8c8c8c"
   id="path4"
   style="fill:#0a84ff;fill-opacity:1" />
<path
   d="m8 1a7 7 0 0 0 -7 7 7 7 0 0 0 7 7 7 7 0 0 0 7-7h-1a6 6 0 0 1 -6 6 6 6 0 0 1 -6-6 6 6 0 0 1 6-6z"
   fill="#fff"
   id="path6"
   style="fill-opacity:1;fill:url(#linearGradient839)" />
</svg>
