<?xml version="1.0" encoding="UTF-8" standalone="no"?>
<svg
   xmlns:dc="http://purl.org/dc/elements/1.1/"
   xmlns:cc="http://creativecommons.org/ns#"
   xmlns:rdf="http://www.w3.org/1999/02/22-rdf-syntax-ns#"
   xmlns:svg="http://www.w3.org/2000/svg"
   xmlns="http://www.w3.org/2000/svg"
   xmlns:sodipodi="http://sodipodi.sourceforge.net/DTD/sodipodi-0.dtd"
   xmlns:inkscape="http://www.inkscape.org/namespaces/inkscape"
   viewBox="0 0 16 16"
   version="1.1"
   id="svg4"
   sodipodi:docname="sc_color.svg"
   inkscape:version="0.92.3 (2405546, 2018-03-11)">
  <metadata
     id="metadata10">
    <rdf:RDF>
      <cc:Work
         rdf:about="">
        <dc:format>image/svg+xml</dc:format>
        <dc:type
           rdf:resource="http://purl.org/dc/dcmitype/StillImage" />
        <dc:title></dc:title>
      </cc:Work>
    </rdf:RDF>
  </metadata>
  <defs
     id="defs8" />
  <sodipodi:namedview
     pagecolor="#ffffff"
     bordercolor="#666666"
     borderopacity="1"
     objecttolerance="10"
     gridtolerance="10"
     guidetolerance="10"
     inkscape:pageopacity="0"
     inkscape:pageshadow="2"
     inkscape:window-width="1366"
     inkscape:window-height="692"
     id="namedview6"
     showgrid="false"
     inkscape:zoom="14.75"
     inkscape:cx="-0.71186441"
     inkscape:cy="7.4576271"
     inkscape:window-x="0"
     inkscape:window-y="0"
     inkscape:window-maximized="1"
     inkscape:current-layer="svg4" />
  <path
     d="m14 13.999999h-1.446154c-.164103 0-.297436-.04262-.399999-.127853-.09573-.08524-.17094-.191781-.225641-.319635l-1.148719-3.552511h-5.5589744l-1.1384617 3.541857c-.041025.120751-.1196578.227295-.2358973.319634-.1094017.09234-.2427351.138508-.4000001.138508h-1.446154l5.0564107-13.99999883h1.897436zm-8.4687094-4.999999h4.8950454l-2.026336-5.8356164c-.068376-.1704718-.1367521-.3693556-.2051282-.5966514s-.1333333-.472349-.1948718-.7351597c-.0683761.2699137-.1367521.5185185-.2051282.7458142s-.1333333.4261796-.1948718.5966515z"
     fill="#696969"
     id="path2"
     style="fill:#69696e;fill-opacity:1" />
</svg>
