<?xml version="1.0" encoding="UTF-8" standalone="no"?>
<svg
   xmlns:dc="http://purl.org/dc/elements/1.1/"
   xmlns:cc="http://creativecommons.org/ns#"
   xmlns:rdf="http://www.w3.org/1999/02/22-rdf-syntax-ns#"
   xmlns:svg="http://www.w3.org/2000/svg"
   xmlns="http://www.w3.org/2000/svg"
   xmlns:xlink="http://www.w3.org/1999/xlink"
   xmlns:sodipodi="http://sodipodi.sourceforge.net/DTD/sodipodi-0.dtd"
   xmlns:inkscape="http://www.inkscape.org/namespaces/inkscape"
   viewBox="0 0 16 16"
   version="1.1"
   id="svg18"
   sodipodi:docname="sc_currencyfield.svg"
   inkscape:version="0.92.3 (2405546, 2018-03-11)">
  <metadata
     id="metadata24">
    <rdf:RDF>
      <cc:Work
         rdf:about="">
        <dc:format>image/svg+xml</dc:format>
        <dc:type
           rdf:resource="http://purl.org/dc/dcmitype/StillImage" />
        <dc:title></dc:title>
      </cc:Work>
    </rdf:RDF>
  </metadata>
  <defs
     id="defs22">
    <linearGradient
       gradientTransform="translate(-29.898305,-2.9397842)"
       id="a-2"
       gradientUnits="userSpaceOnUse"
       x1="7"
       x2="7"
       y1="20"
       y2="3">
      <stop
         offset="0"
         stop-color="#f5f5f5"
         id="stop2344" />
      <stop
         offset=".3888889"
         stop-color="#fdfdfd"
         id="stop2346" />
      <stop
         offset="1"
         stop-color="#fff"
         id="stop2348" />
    </linearGradient>
    <linearGradient
       gradientTransform="translate(-31.118644,6.6101695)"
       id="a"
       gradientUnits="userSpaceOnUse"
       x1="14"
       x2="13.79661"
       y1="22"
       y2="2.1355929">
      <stop
         offset="0"
         stop-color="#0040dd"
         id="stop1586" />
      <stop
         offset="1"
         stop-color="#0a84ff"
         id="stop1588" />
    </linearGradient>
    <linearGradient
       inkscape:collect="always"
       xlink:href="#a"
       id="linearGradient1609"
       x1="8.7457628"
       y1="12.881356"
       x2="8.8135595"
       y2="3.2542372"
       gradientUnits="userSpaceOnUse" />
    <linearGradient
       inkscape:collect="always"
       xlink:href="#a-2"
       id="linearGradient1629"
       x1="7.7118645"
       y1="11.661017"
       x2="7.9491525"
       y2="4.0677967"
       gradientUnits="userSpaceOnUse" />
  </defs>
  <sodipodi:namedview
     pagecolor="#ffffff"
     bordercolor="#666666"
     borderopacity="1"
     objecttolerance="10"
     gridtolerance="10"
     guidetolerance="10"
     inkscape:pageopacity="0"
     inkscape:pageshadow="2"
     inkscape:window-width="1366"
     inkscape:window-height="685"
     id="namedview20"
     showgrid="false"
     inkscape:zoom="7.375"
     inkscape:cx="8.5445692"
     inkscape:cy="6.6546726"
     inkscape:window-x="0"
     inkscape:window-y="0"
     inkscape:window-maximized="1"
     inkscape:current-layer="svg18" />
  <path
     style="fill:url(#linearGradient1629);fill-opacity:1"
     d="m 1,4 v 8 H 15 V 4 Z"
     id="path2" />
  <path
     style="fill:url(#linearGradient1609);fill-opacity:1"
     d="m 0,3 v 10 h 15 1 V 12 4 3 h -1 z m 2,1 h 12 c 0,0.554 0.446,1 1,1 v 6 c -0.552285,0 -1,0.447715 -1,1 H 2 C 2,11.446 1.554,11 1,11 V 5 C 1.554,5 2,4.554 2,4 Z M 8,5 C 6.3431458,5 5,6.3431458 5,8 5,9.6568542 6.3431458,11 8,11 9.6568542,11 11,9.6568542 11,8 11,6.3431458 9.6568542,5 8,5 Z"
     id="path4" />
  <path
     style="fill:#ff9500;fill-opacity:1"
     d="m 6,10 a 3,2 0 0 0 -3,2 v 2 a 3,2 0 0 0 3,2 3,2 0 0 0 3,-2 V 12 A 3,2 0 0 0 6,10 Z m 0,1 A 2,1 0 0 1 8,12 2,1 0 0 1 6,13 2,1 0 0 1 4,12 2,1 0 0 1 6,11 Z M 4,13.488281 A 3,2 0 0 0 6,14 3,2 0 0 0 8,13.488281 v 1 A 3,2 0 0 1 6,15 3,2 0 0 1 4,14.488281 Z"
     id="path6" />
  <path
     style="fill:#ffffff"
     d="m 6,11 a 2,1 0 0 0 -2,1 2,1 0 0 0 2,1 2,1 0 0 0 2,-1 2,1 0 0 0 -2,-1 z m -2,2.488281 v 1 A 3,2 0 0 0 6,15 3,2 0 0 0 8,14.488281 v -1 A 3,2 0 0 1 6,14 3,2 0 0 1 4,13.488281 Z"
     id="path8" />
  <path
     style="fill:#ff9500;fill-opacity:1"
     d="m 13,10 a 3,2 0 0 0 -3,2 v 2 a 3,2 0 0 0 3,2 3,2 0 0 0 3,-2 v -2 a 3,2 0 0 0 -3,-2 z m 0,1 a 2,1 0 0 1 2,1 2,1 0 0 1 -2,1 2,1 0 0 1 -2,-1 2,1 0 0 1 2,-1 z m -2,2.488281 A 3,2 0 0 0 13,14 3,2 0 0 0 15,13.488281 v 1 A 3,2 0 0 1 13,15 3,2 0 0 1 11,14.488281 Z"
     id="path10" />
  <path
     style="fill:#ffffff"
     d="m 13,11 a 2,1 0 0 0 -2,1 2,1 0 0 0 2,1 2,1 0 0 0 2,-1 2,1 0 0 0 -2,-1 z m -2,2.488281 v 1 A 3,2 0 0 0 13,15 3,2 0 0 0 15,14.488281 v -1 A 3,2 0 0 1 13,14 3,2 0 0 1 11,13.488281 Z"
     id="path12" />
  <path
     style="fill:#ff9500;fill-opacity:1"
     d="m 13,8 a 3,2 0 0 0 -3,2 v 2 a 3,2 0 0 0 3,2 3,2 0 0 0 3,-2 V 10 A 3,2 0 0 0 13,8 Z m 0,1 a 2,1 0 0 1 2,1 2,1 0 0 1 -2,1 2,1 0 0 1 -2,-1 2,1 0 0 1 2,-1 z m -2,2.488281 A 3,2 0 0 0 13,12 3,2 0 0 0 15,11.488281 v 1 A 3,2 0 0 1 13,13 3,2 0 0 1 11,12.488281 Z"
     id="path14" />
  <path
     style="fill:#ffffff"
     d="m 13,9 a 2,1 0 0 0 -2,1 2,1 0 0 0 2,1 2,1 0 0 0 2,-1 2,1 0 0 0 -2,-1 z m -2,2.488281 v 1 A 3,2 0 0 0 13,13 3,2 0 0 0 15,12.488281 v -1 A 3,2 0 0 1 13,12 3,2 0 0 1 11,11.488281 Z"
     id="path16" />
</svg>
