<svg viewBox="0 0 16 16" xmlns="http://www.w3.org/2000/svg" xmlns:xlink="http://www.w3.org/1999/xlink"><linearGradient id="a" gradientTransform="matrix(.70710678 .70710678 -.70710678 .70710678 -20.35492 4.500421)" gradientUnits="userSpaceOnUse" x1="17.080925" x2="9.723911" y1="1.860564" y2="-5.169229"><stop offset="0" stop-color="#0040dd"/><stop offset="1" stop-color="#0a84ff"/></linearGradient><linearGradient id="b" gradientUnits="userSpaceOnUse" x1="11.5" x2="11.5" xlink:href="#a" y1="12" y2="7"/><linearGradient id="c" gradientUnits="userSpaceOnUse" x1="11.5" x2="11.5" xlink:href="#a" y1="16" y2="12"/>

/&amp;amp;gt;<path d="m1 4h14v11h-14z" fill="#fff"/><path d="m0 3v13h1 8.585938 5.414062 1v-8.414062-3.585938-1zm1 1h14v4.585938 6.414062h-4.414062-9.585938z" fill="#98989d"/><path d="m0 0h16v2h-16z" fill="#0040dd"/><path d="m2 6h12v2h-12z" fill="#ff9500"/><path d="m11.5 6c-1.921152 0-3.5 1.578848-3.5 3.5 0 .847865.3447729 1.600756.8535156 2.208984-1.3531475.693263-2.3865718 1.856298-2.7246094 3.291016-.0758459.321915-.1289062.652291-.1289062 1h10v-2.783203c-.285566-.360259-.622555-.682941-1-.964844-.268538-.200563-.549429-.387175-.853516-.542969.508743-.608228.853516-1.361119.853516-2.208984 0-1.921152-1.578848-3.5-3.5-3.5z" fill="#fff" fill-opacity=".784314"/><path d="m14 9.5a2.5 2.5 0 0 1 -2.5 2.5 2.5 2.5 0 0 1 -2.5-2.5 2.5 2.5 0 0 1 2.5-2.5 2.5 2.5 0 0 1 2.5 2.5z" fill="url(#b)"/><path d="m11.5 12a4.5 4 0 0 0 -4.5 4h1a3.5 3 0 0 1 3.5-3 3.5 3 0 0 1 3.5 3h1a4.5 4 0 0 0 -4.5-4z" fill="url(#c)"/><path d="m11.5 13a3.5 3.25 0 0 0 -3.4863281 3h6.9765621a3.5 3.25 0 0 0 -3.490234-3z" fill="#fff"/></svg>