<svg viewBox="0 0 16 16" xmlns="http://www.w3.org/2000/svg" xmlns:xlink="http://www.w3.org/1999/xlink"><linearGradient id="a" gradientUnits="userSpaceOnUse" x1="12.751377" x2="12.687499" y1="4.062372" y2=".062372"><stop offset="0" stop-color="#0040dd"/><stop offset="1" stop-color="#0a84ff"/></linearGradient><path d="m9.5006882 0a.50043556.50043556 0 0 0 -.353516.8535156l2.9999998 3.0000004a.50043556.50043556 0 0 0 .707032 0l3-3.0000004a.50043556.50043556 0 0 0 -.353516-.8535156z" fill="url(#a)"/><g fill="#4b4b4f"><path d="m5.62972 15.831591q-.080195-.392958-.1283127-.689681-.040098-.304743-.048117-.609486-.441075.625525-1.1548144 1.050561-.7057199.417016-1.5237134.417016-1.355303 0-2.0690424-.689681-.70572009-.6977-.70572009-1.916671 0-1.243029 1.00244299-1.940729 1.0104626-.70572 2.7346646-.70572h1.7161825v-.8580916q0-.7618567-.4651336-1.2029316-.4651336-.4490945-1.3152052-.4490945-.7618567 0-1.2430294.3929577-.4731531.3849381-.4731531.9302671h-1.50767431l-.01603909-.0481173q-.04811726-.9463062.8901694-1.7322215.9463062-.7859153 2.4379414-.7859153 1.4755962 0 2.3737851.7538371.898189.7458176.898189 2.1572574v4.1781825q0 .465134.048117.898189.048117.433055.17643.850072zm-2.6223909-1.154815q.8580912 0 1.547772-.441075.6896808-.441075.898189-1.010462v-1.41144h-1.7723193q-.9543258 0-1.5317329.481173-.5693877.481172-.5693877 1.130755 0 .577408.3608795.914228.3608795.336821 1.0665994.336821z"/><path d="m15.410059 11.821819q0 1.876573-.906208 3.031387-.898189 1.146795-2.478039 1.146795-.858092 0-1.491636-.328801-.6335444-.336821-1.0505604-.986404l-.192469 1.146795h-1.2911466v-12.5104893h1.5798506v4.8598438q.408996-.5774072 1.0104624-.8821499.609486-.3047426 1.419459-.3047426 1.603909 0 2.502098 1.283127.898189 1.2831271.898189 3.376228zm-1.57985-.168411q0-1.491635-.553349-2.4299218-.545329-.9463062-1.668065-.9463062-.729778 0-1.23501.3608795-.4972114.35286-.7939344.9543258v3.7611657q.304742.641564.7939344 1.002444.497212.360879 1.251049.360879 1.114717 0 1.660046-.793935.545329-.793935.545329-2.10112z"/></g></svg>