<?xml version="1.0" encoding="UTF-8" standalone="no"?>
<svg
   xmlns:dc="http://purl.org/dc/elements/1.1/"
   xmlns:cc="http://creativecommons.org/ns#"
   xmlns:rdf="http://www.w3.org/1999/02/22-rdf-syntax-ns#"
   xmlns:svg="http://www.w3.org/2000/svg"
   xmlns="http://www.w3.org/2000/svg"
   xmlns:xlink="http://www.w3.org/1999/xlink"
   xmlns:sodipodi="http://sodipodi.sourceforge.net/DTD/sodipodi-0.dtd"
   xmlns:inkscape="http://www.inkscape.org/namespaces/inkscape"
   viewBox="0 0 16 16"
   version="1.1"
   id="svg4"
   sodipodi:docname="sc_controlproperties.svg"
   inkscape:export-filename="/home/rizmut/Documents/Rizmut/Github/libreoffice-style-sukapura/images_sukapura/cmd/sc_controlproperties.png"
   inkscape:export-xdpi="96"
   inkscape:export-ydpi="96"
   inkscape:version="0.92.3 (2405546, 2018-03-11)"><metadata
   id="metadata10">
  <rdf:RDF>
    <cc:Work
       rdf:about="">
      <dc:format>image/svg+xml</dc:format>
      <dc:type
         rdf:resource="http://purl.org/dc/dcmitype/StillImage" />
      <dc:title></dc:title>
    </cc:Work>
  </rdf:RDF>
</metadata>
<defs
   id="defs8">
  <linearGradient
     inkscape:collect="always"
     id="linearGradient844">
    <stop
       style="stop-color:#b0b0b3;stop-opacity:1"
       offset="0"
       id="stop840" />
    <stop
       style="stop-color:#e2f0f4;stop-opacity:1"
       offset="1"
       id="stop842" />
  </linearGradient>
  <linearGradient
     inkscape:collect="always"
     id="linearGradient876">
    <stop
       style="stop-color:#808080;stop-opacity:1;"
       offset="0"
       id="stop872" />
    <stop
       style="stop-color:#a6a6a6;stop-opacity:1"
       offset="1"
       id="stop874" />
  </linearGradient>
  <linearGradient
     inkscape:collect="always"
     id="linearGradient907">
    <stop
       style="stop-color:#9fa3aa;stop-opacity:1;"
       offset="0"
       id="stop903" />
    <stop
       style="stop-color:#a3a8a9;stop-opacity:1"
       offset="1"
       id="stop905" />
  </linearGradient>
  <linearGradient
     inkscape:collect="always"
     xlink:href="#linearGradient844"
     id="linearGradient865"
     x1="8"
     y1="16"
     x2="8"
     y2="1"
     gradientUnits="userSpaceOnUse" />
  <linearGradient
     inkscape:collect="always"
     xlink:href="#linearGradient876"
     id="linearGradient877"
     x1="8"
     y1="4.5"
     x2="8"
     y2="11.5"
     gradientUnits="userSpaceOnUse" />
  <linearGradient
     inkscape:collect="always"
     xlink:href="#linearGradient907"
     id="linearGradient885"
     x1="5.5"
     y1="4"
     x2="5.5"
     y2="11.5"
     gradientUnits="userSpaceOnUse" />
</defs>
<sodipodi:namedview
   pagecolor="#ffffff"
   bordercolor="#666666"
   borderopacity="1"
   objecttolerance="10"
   gridtolerance="10"
   guidetolerance="10"
   inkscape:pageopacity="0"
   inkscape:pageshadow="2"
   inkscape:window-width="1366"
   inkscape:window-height="692"
   id="namedview6"
   showgrid="true"
   inkscape:zoom="10.429825"
   inkscape:cx="-8.2987572"
   inkscape:cy="1.3191091"
   inkscape:window-x="0"
   inkscape:window-y="0"
   inkscape:window-maximized="1"
   inkscape:current-layer="svg4">
  <inkscape:grid
     type="xygrid"
     id="grid857"
     spacingx="0.5"
     spacingy="0.5"
     empspacing="2" />
</sodipodi:namedview>


     /&gt;
 <g
   id="g911">
  <path
     d="m6.9375.5c-.2484169 0-.4375.18908218-.4375.4375v1.25c-.5539029.1422005-1.051164.3718783-1.53125.65625l-.90625-.90625c-.1756569-.1756579-.449342-.1756579-.625 0l-1.5 1.5c-.175657.1756579-.175657.4493421 0 .625l.90625.90625c-.2843711.4800856-.514049.9773468-.65625 1.53125h-1.25c-.24841699 0-.4375.1890821-.4375.4375v2.125c.00000001.2484178.189083.4375.4375.4375h1.25c.1422009.553903.371879 1.051164.65625 1.53125l-.90625.90625c-.175657.175658-.175657.449342 0 .625l1.5 1.5c.1756579.175658.449342.175658.625 0l .90625-.90625c.4800861.284372.977347.51405 1.53125.65625v1.25c.0000001.248418.189083.4375.4375.4375h2.125c.2484176 0 .4375-.189082.4375-.4375v-1.25c.553903-.1422 1.051164-.371878 1.53125-.65625l.90625.90625c.175658.175658.449342.175658.625 0l1.5-1.5c.175658-.175658.175658-.449342 0-.625l-.90625-.90625c.284372-.480086.51405-.977347.65625-1.53125h1.25c.248418 0 .4375-.1890826.4375-.4375v-2.125c0-.2484178-.189083-.4375-.4375-.4375h-1.25c-.1422-.5539032-.371878-1.0511644-.65625-1.53125l.90625-.90625c.175658-.1756579.175658-.449342 0-.625l-1.5-1.5c-.175658-.1756579-.449342-.1756579-.625 0l-.90625.90625c-.480086-.2843717-.977347-.5140495-1.53125-.65625v-1.25c-.0000004-.24841782-.189082-.4375-.4375-.4375zm1.0625 5.5c1.104 0 2 .896 2 2s-.896 2-2 2-2-.896-2-2 .896-2 2-2z"
     display="block"
     fill="#fff"
     stroke="#808080"
     stroke-linejoin="round"
     id="path887"
     style="stroke:#98989d;stroke-opacity:1;fill-opacity:1;fill:url(#linearGradient865)" />
  <path
     id="path868"
     d="M 8 4.5 A 3.5 3.5 0 0 0 4.5 8 A 3.5 3.5 0 0 0 8 11.5 A 3.5 3.5 0 0 0 11.5 8 A 3.5 3.5 0 0 0 8 4.5 z M 8 6 C 9.104 6 10 6.896 10 8 C 10 9.104 9.104 10 8 10 C 6.896 10 6 9.104 6 8 C 6 6.896 6.896 6 8 6 z "
     style="opacity:1;fill:url(#linearGradient885);fill-opacity:1;stroke:url(#linearGradient877);stroke-width:1;stroke-linecap:round;stroke-linejoin:round;stroke-miterlimit:4;stroke-dasharray:none;stroke-opacity:1" />
</g>
</svg>
