<svg viewBox="0 0 16 16" xmlns="http://www.w3.org/2000/svg">
/&amp;amp;gt;<path d="m1 4h14v11h-14z" fill="#fff"/><path d="m0 3v13h1 8.585938 5.414062 1v-8.414062-3.585938-1zm1 1h14v4.585938 6.414062h-4.414062-9.585938z" fill="#98989d"/><path d="m0 0h16v2h-16z" fill="#0040dd"/><path d="m2 6h12v2h-12z" fill="#ff9500"/><circle cx="11.5" cy="11.5" fill="#fff" r="3.5"/><path d="m11.5 6a5.5 5.5 0 0 0 -5.5 5.5 5.5 5.5 0 0 0 2.34375 4.5h1.2421875 5.0644535a5.5 5.5 0 0 0 1.349609-1.34375v-6.3066406a5.5 5.5 0 0 0 -4.5-2.3496094z" fill="#fff" fill-opacity=".784314"/><g fill="#98989d"><path d="m11.5 7c-2.493 0-4.5 2.007-4.5 4.5s2.007 4.5 4.5 4.5 4.5-2.007 4.5-4.5-2.007-4.5-4.5-4.5zm0 1a3.5 3.5 0 0 1 3.5 3.5 3.5 3.5 0 0 1 -3.5 3.5 3.5 3.5 0 0 1 -3.5-3.5 3.5 3.5 0 0 1 3.5-3.5z"/><path d="m11 9v3h1 2v-1h-2v-2z"/></g></svg>