<svg viewBox="0 0 16 16" xmlns="http://www.w3.org/2000/svg" xmlns:xlink="http://www.w3.org/1999/xlink"><linearGradient id="a" gradientUnits="userSpaceOnUse" x1="-19.24444" x2="-19.24444" y1="5.428188" y2="-3.571812"><stop offset="0" stop-color="#2a9240"/><stop offset="1" stop-color="#32d74b"/></linearGradient><linearGradient id="b" gradientUnits="userSpaceOnUse" x1="75" x2="75" y1="3" y2="-1"><stop offset="0" stop-color="#0040dd"/><stop offset="1" stop-color="#0a84ff"/></linearGradient><path d="m3 1v14h4.2636719 5.7363281v-11.2949219l-2.695312-2.7050781z" fill="#fff"/><path d="m3 0c-.554 0-1 .446-1 1v8h1v-3-1-4h6v3.5c0 .277.223.5.5.5h3.5v10h-5.7363281-4.2636719c0 .554.446 1 1 1h2 1.9726562 1.0546876 1.9726562 2c.554 0 1-.446 1-1v-8.3925781-.6074219-1.5-.8632812l-3.636719-3.6367188h-.863281zm7 1 3 3h-3z" fill="#98989d"/><path d="m1 9c-.554 0-1 .446-1 1v5c0 .554.446 1 1 1h2 1.9726562 1.0546876 1.9726562 2c.554 0 1-.446 1-1v-5c0-.554-.446-1-1-1h-1-1-1.3925781-2.2148438-1.3925781-1z" fill="#98989d"/><path d="m1 7v2h3.3925781.6074219v-2h-2.3496094zm5 0v2h.6074219 3.3925781v-2h-1.6503906zm-5 3v2h3.9726562.0273438v-.5-1.5h-.2148438zm5 0v1.5.5h.0273438 3.9726562v-2h-3.7851562zm-5 3v2h3.9726562.0273438v-2h-.0273438zm5 0v2h.0273438 3.9726562v-2h-3.9726562z" fill="#fff"/><path d="m0 6v4h6 .2148438 3.7851562 1v-3.9726562-.0273438h-1zm10 .2285156v.0078125h-.0214844c.0073303-.0021316.0141458-.0057075.0214844-.0078125zm-9 .7714844h4v2h-4zm5 0h2 .3554688 1.6445312v2h-3.390625-.609375z" fill="url(#b)"/><path d="m11.5 6c-3.0375661 0-5.5 2.4624339-5.5 5.5.00138 1.792279.8759604 3.471476 2.34375 4.5h.6835938.9726562 1 2c.554 0 1-.446 1-1v-.447266-2.052734-1.5-2.2285156-2.1640625c-.773593-.3972716-1.630364-.6054403-2.5-.6074219zm0 4c.17045.000676.339538.0304.5.08789v.91211l1 1c.05749.160462.08722.32955.08789.5 0 .828427-.759464.5-1.587891.5-.17045-.000676-.339538-.0304-.5-.08789v-1.91211h-.912108c.211634-.598592.777207-.999109 1.412109-1z" fill="#fff" fill-opacity=".784314"/><g fill="url(#a)"><rect height="3" ry=".5" width="1" x="15" y="8"/><rect height="1" ry=".5" width="3" x="13" y="10"/><path d="m7.5 12c-.277 0-.5.223-.5.5v2c0 .277.223.5.5.5s.5-.223.5-.5v-1.5h1.5c.277 0 .5-.223.5-.5s-.223-.5-.5-.5z"/></g><g fill="none" stroke="url(#a)" stroke-linecap="round"><path d="m7.5 12.5c2.279661 3.5 6.057166 4.190754 8 0"/><path d="m15.499115 10.493535c-2.279661-3.5000009-6.0571661-4.1907549-8.0000001 0"/></g></svg>