<svg viewBox="0 0 16 16" xmlns="http://www.w3.org/2000/svg" xmlns:xlink="http://www.w3.org/1999/xlink"><linearGradient id="a" gradientUnits="userSpaceOnUse" x1="81" x2="81" y1="-1" y2="-7"><stop offset="0" stop-color="#0040dd"/><stop offset="1" stop-color="#0a84ff"/></linearGradient><linearGradient id="b" gradientUnits="userSpaceOnUse" x1="-19.24444" x2="-19.24444" y1="5.428188" y2="-3.571812"><stop offset="0" stop-color="#2a9240"/><stop offset="1" stop-color="#32d74b"/></linearGradient><path d="m0 5h6v11h-6z" fill="#98989d"/><path d="m1 1h14v4h-14z" fill="#fff"/><path d="m1 6h4v9h-4z" fill="#fff"/><path d="m1 10h5v1h-5z" fill="#98989d"/><path d="m1 0c-.554 0-1 .446-1 1v4 1h1 14 1v-1-4c0-.554-.446-1-1-1zm0 1h4v4h-4zm5 0h4v4h-4zm5 0h4v4h-4z" fill="url(#a)"/><g fill="url(#b)"><rect height="3" ry=".5" width="1" x="15" y="8"/><rect height="1" ry=".5" width="3" x="13" y="10"/><path d="m7.5 12c-.277 0-.5.223-.5.5v2c0 .277.223.5.5.5s.5-.223.5-.5v-1.5h1.5c.277 0 .5-.223.5-.5s-.223-.5-.5-.5z"/></g><g fill="none" stroke="url(#b)" stroke-linecap="round"><path d="m7.5 12.5c2.279661 3.5 6.057166 4.190754 8 0"/><path d="m15.499115 10.493535c-2.279661-3.5000009-6.0571661-4.1907549-8.0000001 0"/></g></svg>