<?xml version="1.0" encoding="UTF-8" standalone="no"?>
<svg
   xmlns:dc="http://purl.org/dc/elements/1.1/"
   xmlns:cc="http://creativecommons.org/ns#"
   xmlns:rdf="http://www.w3.org/1999/02/22-rdf-syntax-ns#"
   xmlns:svg="http://www.w3.org/2000/svg"
   xmlns="http://www.w3.org/2000/svg"
   xmlns:xlink="http://www.w3.org/1999/xlink"
   xmlns:sodipodi="http://sodipodi.sourceforge.net/DTD/sodipodi-0.dtd"
   xmlns:inkscape="http://www.inkscape.org/namespaces/inkscape"
   viewBox="0 0 16 16"
   version="1.1"
   id="svg10"
   sodipodi:docname="sc_dataconsolidate.svg"
   inkscape:version="0.92.4 (unknown)">
  <metadata
     id="metadata16">
    <rdf:RDF>
      <cc:Work
         rdf:about="">
        <dc:format>image/svg+xml</dc:format>
        <dc:type
           rdf:resource="http://purl.org/dc/dcmitype/StillImage" />
      </cc:Work>
    </rdf:RDF>
  </metadata>
  <defs
     id="defs14">
    <linearGradient
       id="a"
       gradientUnits="userSpaceOnUse"
       x1="91"
       x2="91"
       y1="15"
       y2="-5">
      <stop
         offset="0"
         stop-color="#0040dd"
         id="stop2" />
      <stop
         offset="1"
         stop-color="#0a84ff"
         id="stop4" />
    </linearGradient>
    <linearGradient
       inkscape:collect="always"
       xlink:href="#a"
       id="linearGradient845"
       x1="9"
       y1="14"
       x2="9"
       y2="2"
       gradientUnits="userSpaceOnUse" />
    <linearGradient
       gradientTransform="translate(-20,-9)"
       id="d"
       gradientUnits="userSpaceOnUse"
       x1="9"
       x2="9"
       xlink:href="#a-9"
       y1="15"
       y2="10" />
    <linearGradient
       gradientTransform="translate(-24.609541,0.88135593)"
       id="a-9"
       gradientUnits="userSpaceOnUse"
       x1="103.59709"
       x2="103.62025"
       y1="311.52966"
       y2="307.87033">
      <stop
         offset="0"
         stop-color="#d70015"
         id="stop1088" />
      <stop
         offset="1"
         stop-color="#ff453a"
         id="stop1090" />
    </linearGradient>
    <linearGradient
       inkscape:collect="always"
       xlink:href="#a-9"
       id="linearGradient1459"
       x1="10"
       y1="10"
       x2="10"
       y2="5"
       gradientUnits="userSpaceOnUse" />
  </defs>
  <sodipodi:namedview
     pagecolor="#ffffff"
     bordercolor="#666666"
     borderopacity="1"
     objecttolerance="10"
     gridtolerance="10"
     guidetolerance="10"
     inkscape:pageopacity="0"
     inkscape:pageshadow="2"
     inkscape:window-width="1360"
     inkscape:window-height="714"
     id="namedview12"
     showgrid="true"
     inkscape:zoom="10.429825"
     inkscape:cx="-4.813459"
     inkscape:cy="8.3931519"
     inkscape:window-x="0"
     inkscape:window-y="28"
     inkscape:window-maximized="1"
     inkscape:current-layer="svg10">
    <inkscape:grid
       type="xygrid"
       id="grid837" />
  </sodipodi:namedview>
  <path
     d="m1 1v14h4v-14zm10 5v4h4v-4z"
     fill="#fff"
     id="path2" />
  <path
     d="m0 0v16h6v-16zm1 1h4v3h-4zm0 4h4v6h-4zm0 7h4v3h-4z"
     fill="#98989d"
     id="path4" />
  <path
     d="m10 5v5h6v-5zm1 1h4v3h-4z"
     fill="#d70015"
     id="path6"
     style="fill-opacity:1;fill:url(#linearGradient1459)" />
  <path
     d="m6.5 2c-.277 0-.5.223-.5.5s.223.5.5.5h1.5v10h-1.5c-.277 0-.5.223-.5.5s.223.5.5.5h2c.06925 0 .135453-.01383.195312-.03906.179579-.075706.304688-.25319.304688-.46094v-11c0-.277-.223-.5-.5-.5z"
     fill="#0040dd"
     id="path8"
     style="fill-opacity:1;fill:url(#linearGradient845)" />
</svg>
