<svg viewBox="0 0 16 16" xmlns="http://www.w3.org/2000/svg">/&amp;amp;amp;gt;<path d="m0 5v9.5c-.00038442.276301.22369855.500384.5.5h15c.276301.000384.500384-.223699.5-.5v-9.5h-.998047v9.001953h-14.00390612v-9.001953z" fill="#69696e"/><path d="m1 5h14v9h-14z" fill="#fff"/><path d="m0 1h16v4h-16z" fill="#0a84ff"/><path d="m5 5v4h-4v1h4v4h1v-4h4v4h1v-4h4v-1h-4v-4h-1v4h-4v-4z" fill="#bababa"/><path d="m.50195312 1.0019531c-.27630145-.000384-.50038441.223699-.49999999.5v3.4980469h.99804687 14v-1h-4v-2h4.003906v3h.998047v-3.4980469c.000384-.276301-.223699-.500384-.5-.5zm.49804688.9980469h4v2h-4zm5 0h4v2h-4z" fill="#0040dd"/><path d="m8.8691406 5.9980469a1.0027597 1.0027597 0 0 0 -.6777344.2734375l-1.8808593 1.7832031a1.0027597 1.0027597 0 0 0 -.3105469.6816406v.1347657a1.0027597 1.0027597 0 0 0 .28125.6113281l1.9472656 1.9980471-1.9414062 1.960937a1.0027597 1.0027597 0 0 0 -.2871094.625v.132813a1.0027597 1.0027597 0 0 0 .296875.662109l.140625.138672h4.769531l.304688-.322266.30664.322266h4.181641v-2.28125l-1.228516-1.25 1.228516-1.359375v-2.6796875l-1.214844-1.15625a1.0027597 1.0027597 0 0 0 -1.410156.0273437l-1.869141 1.9160157-1.9140621-1.9238281a1.0027597 1.0027597 0 0 0 -.7226563-.2949219z" fill="#fff" fill-opacity=".784314"/><path d="m16 14.149904-2.605902-2.651537 2.50749-2.7777726-1.807553-1.7205859-2.580554 2.6470558-2.632865-2.6470558-1.880616 1.783872 2.632863 2.7031725-2.632863 2.660005 1.880616 1.852942 2.62981-2.77941 2.635919 2.77941z" fill="#c20618"/></svg>