<svg viewBox="0 0 16 16" xmlns="http://www.w3.org/2000/svg" xmlns:xlink="http://www.w3.org/1999/xlink"><linearGradient id="a" gradientTransform="matrix(.79951909 0 0 .79951909 -1.770074 -1.601914)" gradientUnits="userSpaceOnUse" x1="7" x2="7" xlink:href="#b" y1="22" y2="2"/><linearGradient id="b" gradientTransform="translate(-11 -1)" gradientUnits="userSpaceOnUse" x1="14" x2="13.79661" y1="22" y2="2.135593"><stop offset="0" stop-color="#0040dd"/><stop offset="1" stop-color="#0a84ff"/></linearGradient><linearGradient id="c" gradientTransform="matrix(.79951909 0 0 .79951909 -2.770074 -1.601914)" gradientUnits="userSpaceOnUse" x1="18" x2="18" xlink:href="#b" y1="22" y2="12"/>


     /&amp;amp;gt;
 <path d="m1.0307693 15.987778 1.6820622-9.6308319h-1.71283159l.25641189-1.4666762h1.7025752l.1846165-1.312829q.2666684-1.6718057 1.2923161-2.61540156 1.0769301-.98462176 2.7487358-.96410881.5230803 0 1.3230855.17436011l-.2256425 1.54872796q-.4923109-.1025647-.9948783-.1230777-.9641088 0-1.5692409.6051321-.5948757.5948757-.7384663 1.5897539l-.1641037 1.097443h2.2974508l-.2564119 1.4666762h-2.2974508l-1.6718057 9.6308319z" fill="url(#a)"/><path d="m11.048956 10.613566 1.886732-2.6192278h2.049508l-3.063164 4.0250278 1.783146 3.980634h-1.834939l-1.117241-2.730212-1.9681201 2.730212h-2.0421096l3.1593508-4.143411-1.7239549-3.8622508h1.8349388z" fill="url(#c)"/></svg>