<svg viewBox="0 0 16 16" xmlns="http://www.w3.org/2000/svg">/&amp;amp;amp;gt;<path d="m1 4h14v11h-14z" fill="#fff"/><path d="m0 3v13h1 8.585938 5.414062 1v-8.414062-3.585938-1zm1 1h14v4.585938 6.414062h-4.414062-9.585938z" fill="#98989d"/><path d="m0 0h16v2h-16z" fill="#0040dd"/><path d="m6 5.0000001-1 3.5h-3.5l3 1.9999999-1.5 4 3-2.5 3 2.5-1.5-4 3.5-1.9999999h-4z" fill="#ffe014" stroke="#e4b500" stroke-linecap="round" stroke-linejoin="round"/><g fill="#e4b500"><path d="m8 5 .5 1h5.5v-1z"/><path d="m12 7 .5 1h1.5v-1z"/><path d="m11.5 10 1-1h1.5v1z"/><path d="m9.5 12-.5-1h5v1z"/><path d="m10.5 14-.5-1h4v1z"/></g></svg>