<?xml version="1.0" encoding="UTF-8" standalone="no"?>
<svg
   xmlns:dc="http://purl.org/dc/elements/1.1/"
   xmlns:cc="http://creativecommons.org/ns#"
   xmlns:rdf="http://www.w3.org/1999/02/22-rdf-syntax-ns#"
   xmlns:svg="http://www.w3.org/2000/svg"
   xmlns="http://www.w3.org/2000/svg"
   xmlns:sodipodi="http://sodipodi.sourceforge.net/DTD/sodipodi-0.dtd"
   xmlns:inkscape="http://www.inkscape.org/namespaces/inkscape"
   viewBox="0 0 16 16"
   version="1.1"
   id="svg1732"
   sodipodi:docname="sc_designerdialog.svg"
   inkscape:version="0.92.3 (2405546, 2018-03-11)"><metadata
   id="metadata1738">
  <rdf:RDF>
    <cc:Work
       rdf:about="">
      <dc:format>image/svg+xml</dc:format>
      <dc:type
         rdf:resource="http://purl.org/dc/dcmitype/StillImage" />
    </cc:Work>
  </rdf:RDF>
</metadata>
<defs
   id="defs1736" />
<sodipodi:namedview
   pagecolor="#ffffff"
   bordercolor="#666666"
   borderopacity="1"
   objecttolerance="10"
   gridtolerance="10"
   guidetolerance="10"
   inkscape:pageopacity="0"
   inkscape:pageshadow="2"
   inkscape:window-width="1366"
   inkscape:window-height="716"
   id="namedview1734"
   showgrid="true"
   inkscape:zoom="20.85965"
   inkscape:cx="3.7199588"
   inkscape:cy="4.0769487"
   inkscape:window-x="-8"
   inkscape:window-y="-8"
   inkscape:window-maximized="1"
   inkscape:current-layer="svg1732">
  <inkscape:grid
     type="xygrid"
     id="grid2991" />
</sodipodi:namedview>
<filter
   id="a"
   color-interpolation-filters="sRGB"
   height="1.135959"
   width="1.153052"
   x="-.076526"
   y="-.067979">
  <feGaussianBlur
     stdDeviation=".44180839"
     id="feGaussianBlur1705" />
</filter>
<radialGradient
   id="b"
   cx="55.498295"
   cy="20.746534"
   gradientTransform="matrix(1 0 0 .72181261 0 7.10169)"
   gradientUnits="userSpaceOnUse"
   r="10.03901">
  <stop
     offset="0"
     stop-color="#ffc765"
     id="stop1708" />
  <stop
     offset="1"
     stop-color="#ffa914"
     id="stop1710" />
</radialGradient>
<radialGradient
   id="c"
   cx="55.441967"
   cy="22.525862"
   gradientTransform="matrix(1.2258064 0 0 1.0478667 -12.519154 -1.07824)"
   gradientUnits="userSpaceOnUse"
   r="2.229184">
  <stop
     offset="0"
     stop-color="#ffe9c3"
     id="stop1713" />
  <stop
     offset="1"
     stop-color="#ffe9c3"
     stop-opacity="0"
     id="stop1715" />
</radialGradient>

/&amp;gt;<g
   aria-label="A"
   style="font-style:normal;font-weight:normal;font-size:19.69174194px;line-height:1.25;font-family:sans-serif;letter-spacing:0px;word-spacing:0px;fill:#4b4b4f;fill-opacity:1;stroke:none;stroke-width:0.49229354"
   id="text14271"
   transform="matrix(0.92851552,0,0,0.92851552,-0.51815853,8.267681e-5)">
  <path
     inkscape:connector-curvature="0"
     d="M 9.5193315,10.731618 H 4.0387197 L 2.9233671,14.000754 H 0.55805048 L 5.7021335,0.00115657 H 7.9136084 L 13.000001,14.000754 H 10.625069 Z M 4.7117773,8.7797505 H 8.855889 L 6.8271011,2.7991531 h -0.057691 z"
     style="font-style:normal;font-variant:normal;font-weight:500;font-stretch:normal;font-family:Roboto;-inkscape-font-specification:'Roboto Medium';fill:#4b4b4f;fill-opacity:1;stroke-width:0.49229354"
     id="path14988" />
</g>
<g
   transform="matrix(.40739216 0 0 .40739216 -14.782967 2.351418)"
   id="g1730">
  <path
     d="m57.661017 18.305085 12.20339-12.0000003 1.118644-1.0169491c.535947-.4093238 1.138074-.6755092 2.338983-.6101695l.813559.6101695c.306849.6596707.152068 1.3286734.101695 2.0338983l-11.694915 16.7796611z"
     fill="#d6d6d6"
     stroke="#98989d"
     stroke-width="2.454637"
     id="path1720" />
  <path
     d="m59.389831 19.322034 12.813559-13.1186442.686441-.5338983.355932.3305085-12.122973 15.267452z"
     fill="#f9f9f9"
     filter="url(#a)"
     id="path1722" />
  <path
     d="m54.915254 19.525424c-2.355192 1.12312-2.986044 2.645733-4.067796 4.881356-1.280902 3.099136-3.365034 4.179849-6 5.898305 4.002224 2.208107 12.344829 3.382311 15.355932-1.016949 1.803572-2.317145 5.097789-5.637418 1.932203-8.237289-2.997587-2.267403-4.004437-2.954713-7.220339-1.525423z"
     fill="url(#b)"
     stroke="#f58b00"
     stroke-width="2.454637"
     id="path1724" />
  <path
     d="m49.395592 26.820763c-1.20494 1.428749-2.746668 2.309185-4.547936 3.483925 4.002224 2.208106 12.344366 3.383635 15.355469-1.015626-2.950168-3.198325-8.750083-1.802762-10.807533-2.468299z"
     fill="#0a84ff"
     stroke="#0040dd"
     stroke-width="2.454637"
     id="path1726" />
  <ellipse
     cx="55.441967"
     cy="22.525862"
     fill="url(#c)"
     rx="2.732548"
     ry="2.335888"
     id="ellipse1728" />
</g>
</svg>
