<?xml version="1.0" encoding="UTF-8" standalone="no"?>
<svg
   xmlns:dc="http://purl.org/dc/elements/1.1/"
   xmlns:cc="http://creativecommons.org/ns#"
   xmlns:rdf="http://www.w3.org/1999/02/22-rdf-syntax-ns#"
   xmlns:svg="http://www.w3.org/2000/svg"
   xmlns="http://www.w3.org/2000/svg"
   xmlns:xlink="http://www.w3.org/1999/xlink"
   xmlns:sodipodi="http://sodipodi.sourceforge.net/DTD/sodipodi-0.dtd"
   xmlns:inkscape="http://www.inkscape.org/namespaces/inkscape"
   viewBox="0 0 16 16"
   version="1.1"
   id="svg10"
   sodipodi:docname="sc_distributecolumns.svg"
   inkscape:version="0.92.3 (unknown)"
   inkscape:export-filename="/home/rizmut/Dokumen/Rizmut/Github/libreoffice-style-sukapura/images_sukapura/cmd/sc_setoptimalcolumnwidth.png"
   inkscape:export-xdpi="96"
   inkscape:export-ydpi="96"><metadata
   id="metadata16">
  <rdf:RDF>
    <cc:Work
       rdf:about="">
      <dc:format>image/svg+xml</dc:format>
      <dc:type
         rdf:resource="http://purl.org/dc/dcmitype/StillImage" />
      <dc:title></dc:title>
    </cc:Work>
  </rdf:RDF>
</metadata>
<defs
   id="defs14">
  <linearGradient
     gradientTransform="translate(75,-7)"
     id="a-367"
     gradientUnits="userSpaceOnUse"
     x1="14"
     x2="13.79661"
     y1="22"
     y2="2.1355929">
    <stop
       offset="0"
       stop-color="#0040dd"
       id="stop2206" />
    <stop
       offset="1"
       stop-color="#0a84ff"
       id="stop2208" />
  </linearGradient>
  <linearGradient
     inkscape:collect="always"
     xlink:href="#a-367"
     id="linearGradient2182"
     x1="12.000031"
     y1="0.99996948"
     x2="5.0000305"
     y2="0.99996948"
     gradientUnits="userSpaceOnUse"
     gradientTransform="rotate(90,6.5,8.4999695)" />
</defs>
<sodipodi:namedview
   pagecolor="#ffffff"
   bordercolor="#666666"
   borderopacity="1"
   objecttolerance="10"
   gridtolerance="10"
   guidetolerance="10"
   inkscape:pageopacity="0"
   inkscape:pageshadow="2"
   inkscape:window-width="1366"
   inkscape:window-height="706"
   id="namedview12"
   showgrid="true"
   inkscape:zoom="14.75"
   inkscape:cx="15.49118"
   inkscape:cy="2.6981013"
   inkscape:window-x="0"
   inkscape:window-y="0"
   inkscape:window-maximized="1"
   inkscape:current-layer="svg10"
   inkscape:snap-smooth-nodes="true"
   inkscape:snap-global="true">
  <inkscape:grid
     type="xygrid"
     id="grid823"
     spacingx="0.5"
     spacingy="0.5"
     empspacing="2" />
</sodipodi:namedview>



     /&gt;
 <path
   style="fill:#ffffff"
   d="M 1,2 V 14 H 6 V 2 Z M 7,2 V 11.496094 14 H 10.875 11 V 13.875 12.996094 9.9960938 9.1171875 6.0820312 2 Z"
   id="path2-3"
   inkscape:connector-curvature="0"
   sodipodi:nodetypes="ccccccccccccccccc" />
<path
   style="fill:#69696e;fill-opacity:1"
   d="M 0 1 L 0 5 L 0 14.5 C -0.00038442 14.776301 0.22369855 15.000384 0.5 15 L 6 15 L 6 14.001953 L 0.99804688 14.001953 L 0.99804688 5 L 1 5 L 1 4 L 1 2 L 5 2 L 5 4 L 5 5 L 5 9 L 5 10 L 5 14 L 6 14 L 6 10 L 6 9 L 6 5 L 6 1 L 0 1 z M 7 1 L 7 2 L 7.5 2 L 11 2 L 11 4 L 11 5 L 11 6.0820312 L 11 9 L 11 9.1171875 L 11 9.9960938 L 11 10 L 11 12.996094 L 11 13.875 L 11 14 L 9.5 14 L 9.5 14.001953 L 7 14.001953 L 7 15 L 9.5 15 L 10.105469 15 L 11 15 L 12 15 L 12 6 L 12 5 L 12 1 L 7 1 z M 11.498047 5.9882812 C 11.519638 5.9883627 11.539116 5.9988691 11.560547 6 L 11.435547 6 C 11.457216 5.9989377 11.476079 5.9881963 11.498047 5.9882812 z "
   id="path4-6" />
<path
   style="fill:#c0c0c0;fill-opacity:1;stroke:none"
   d="M 1 4 L 1 5 L 5 5 L 5 4 L 1 4 z M 7 4 L 7 5 L 11 5 L 11 4 L 7 4 z M 1 9 L 1 10 L 5 10 L 5 9 L 1 9 z M 7 9 L 7 10 L 11 10 L 11 9 L 7 9 z "
   id="rect860" />
<path
   style="fill:#ffffff;fill-opacity:0.78431374"
   d="M 11.667969 6.0097656 C 11.334509 5.9708116 10.998162 6.0282231 10.746094 6.1757812 C 10.241956 6.470896 9.8995657 7.0245824 9.9863281 7.6933594 L 9.9765625 7.5625 L 9.9765625 7.9765625 L 8.5 7.9765625 C 7.5351389 7.9765743 6.9765625 8.8419993 6.9765625 9.6269531 L 6.9765625 10.501953 L 6.9765625 11.373047 C 6.9765625 12.158003 7.5351055 13.02345 8.5 13.023438 L 9.9765625 13.023438 L 9.9765625 13.40625 L 9.9980469 13.199219 C 9.8551936 13.891865 10.20014 14.493858 10.712891 14.808594 C 11.055314 15.01878 11.557509 15.041556 12 14.894531 L 12 6.0996094 C 11.890409 6.0636288 11.781844 6.0230682 11.667969 6.0097656 z "
   id="path872" />
<path
   inkscape:connector-curvature="0"
   d="m 14.999969,10.484345 c -0.0025,-0.155822 -0.07769,-0.302014 -0.203125,-0.394532 L 11.847626,7.1464539 c -0.380073,-0.3792086 -0.900869,0.00585 -0.847657,0.4160156 v 1.4375 L 8.5,9 c -0.277,3.4e-6 -0.4999995,0.2795294 -0.4999995,0.6269531 v 0.8749999 0.871093 C 8.0000005,11.72047 8.223001,12.000004 8.5,12 l 2.499969,-3e-5 v 1.406249 c -0.08755,0.4245 0.462775,0.844351 0.84961,0.439453 l 2.955078,-2.957031 c 0.125237,-0.09621 0.197771,-0.246412 0.195312,-0.404296 z"
   id="path6"
   style="fill:url(#linearGradient2182);fill-opacity:1"
   sodipodi:nodetypes="cccccsscssccccc" />
</svg>
