<?xml version="1.0" encoding="UTF-8" standalone="no"?>
<svg
   xmlns:dc="http://purl.org/dc/elements/1.1/"
   xmlns:cc="http://creativecommons.org/ns#"
   xmlns:rdf="http://www.w3.org/1999/02/22-rdf-syntax-ns#"
   xmlns:svg="http://www.w3.org/2000/svg"
   xmlns="http://www.w3.org/2000/svg"
   xmlns:sodipodi="http://sodipodi.sourceforge.net/DTD/sodipodi-0.dtd"
   xmlns:inkscape="http://www.inkscape.org/namespaces/inkscape"
   viewBox="0 0 16 16"
   version="1.1"
   id="svg29"
   sodipodi:docname="sc_editstyle.svg"
   inkscape:version="0.92.3 (unknown)"
   inkscape:export-filename="/home/rizmut/Dokumen/Rizmut/Github/libreoffice-style-sukapura/images_sukapura/cmd/sc_editstyle.png"
   inkscape:export-xdpi="96"
   inkscape:export-ydpi="96"><metadata
   id="metadata35">
  <rdf:RDF>
    <cc:Work
       rdf:about="">
      <dc:format>image/svg+xml</dc:format>
      <dc:type
         rdf:resource="http://purl.org/dc/dcmitype/StillImage" />
      <dc:title></dc:title>
    </cc:Work>
  </rdf:RDF>
</metadata>
<defs
   id="defs33" />
<sodipodi:namedview
   pagecolor="#ffffff"
   bordercolor="#666666"
   borderopacity="1"
   objecttolerance="10"
   gridtolerance="10"
   guidetolerance="10"
   inkscape:pageopacity="0"
   inkscape:pageshadow="2"
   inkscape:window-width="1366"
   inkscape:window-height="699"
   id="namedview31"
   showgrid="false"
   inkscape:zoom="14.75"
   inkscape:cx="-0.71186441"
   inkscape:cy="8"
   inkscape:window-x="0"
   inkscape:window-y="0"
   inkscape:window-maximized="1"
   inkscape:current-layer="svg29" />
<filter
   id="a"
   color-interpolation-filters="sRGB"
   height="1.135959"
   width="1.153052"
   x="-.076526"
   y="-.067979">
  <feGaussianBlur
     stdDeviation=".44180839"
     id="feGaussianBlur2" />
</filter>
<radialGradient
   id="b"
   cx="55.498295"
   cy="20.746534"
   gradientTransform="matrix(1 0 0 .72181261 0 7.10169)"
   gradientUnits="userSpaceOnUse"
   r="10.03901">
  <stop
     offset="0"
     stop-color="#ffc765"
     id="stop5" />
  <stop
     offset="1"
     stop-color="#ffa914"
     id="stop7" />
</radialGradient>
<radialGradient
   id="c"
   cx="55.441967"
   cy="22.525862"
   gradientTransform="matrix(1.2258064 0 0 1.0478667 -12.519154 -1.07824)"
   gradientUnits="userSpaceOnUse"
   r="2.229184">
  <stop
     offset="0"
     stop-color="#ffe9c3"
     id="stop10" />
  <stop
     offset="1"
     stop-color="#ffe9c3"
     stop-opacity="0"
     id="stop12" />
</radialGradient>

/&amp;gt;<path
   d="m4.5945533 0-4.5945533 13h1.3144682c.1429174 0 .264188-.0428.3636087-.12854.1056346-.08574.1772311-.184626.2145139-.296753l1.0345352-3.1166992h5.0509662l.3681726 1.1044922h1.5274606l.1262746-.131713-3.6802074-10.430787zm.8580556 1.7011719c.055924.2440385.1143415.4713126.1764795.682373s.1249911.3971246.1871292.5554199l1.7328462 5.2336428h-4.19291l1.7328464-5.2241213c.0559243-.1582953.1143415-.3427726.1764795-.553833.0621381-.2110604.1249912-.4428473.1871292-.6934814z"
   fill="#69696e"
   id="path15" />
<g
   id="g12"
   transform="translate(-0.49557219,-0.5)"
   style="fill:#eac282">
  <path
     style="fill:#a2a2a7;fill-opacity:1;stroke:#848489;stroke-linecap:square;stroke-linejoin:miter;stroke-opacity:1"
     id="path827"
     d="M 8.0648836,13.101074 6.9955722,15.81356 9.9183494,15.156465 Z"
     inkscape:connector-curvature="0"
     sodipodi:nodetypes="cccc" />
  <path
     d="m 11.861005,8.958496 -3.524935,3.651053 2.158551,2.207933 3.493336,-3.734963 z"
     id="path8"
     style="fill:#ffcc00;fill-opacity:1;stroke:#c89e00;stroke-opacity:1"
     inkscape:connector-curvature="0"
     sodipodi:nodetypes="ccccc" />
  <path
     d="m 14.065594,7 c -0.142171,0 -0.283638,0.05379 -0.392578,0.1625977 l -1.255371,1.2524416 2.135742,2.1372067 1.283203,-1.229004 c 0.21788,-0.2175952 0.21788,-0.5675602 0,-0.7851562 L 14.459637,7.1625977 C 14.350696,7.0537997 14.207766,7 14.065594,7 Z"
     id="path10"
     style="fill:#e68497;fill-opacity:1;stroke:#b6496c;stroke-opacity:1"
     inkscape:connector-curvature="0" />
  <path
     inkscape:connector-curvature="0"
     style="fill:#ffe014"
     d="M 13.411678,10.101871 12.859477,9.5663202 9.2676444,13 9.9955722,13.5 Z"
     id="path14"
     sodipodi:nodetypes="ccccc" />
</g>
</svg>
