<?xml version="1.0" encoding="UTF-8" standalone="no"?>
<svg
   xmlns:dc="http://purl.org/dc/elements/1.1/"
   xmlns:cc="http://creativecommons.org/ns#"
   xmlns:rdf="http://www.w3.org/1999/02/22-rdf-syntax-ns#"
   xmlns:svg="http://www.w3.org/2000/svg"
   xmlns="http://www.w3.org/2000/svg"
   xmlns:sodipodi="http://sodipodi.sourceforge.net/DTD/sodipodi-0.dtd"
   xmlns:inkscape="http://www.inkscape.org/namespaces/inkscape"
   viewBox="0 0 16 16"
   version="1.1"
   id="svg4"
   sodipodi:docname="sc_ellipsecut_unfilled.svg"
   inkscape:version="0.92.3 (2405546, 2018-03-11)"><metadata
   id="metadata10">
  <rdf:RDF>
    <cc:Work
       rdf:about="">
      <dc:format>image/svg+xml</dc:format>
      <dc:type
         rdf:resource="http://purl.org/dc/dcmitype/StillImage" />
      <dc:title></dc:title>
    </cc:Work>
  </rdf:RDF>
</metadata>
<defs
   id="defs8">
  <linearGradient
     gradientTransform="translate(-23.728813,-12.474576)"
     id="a"
     gradientUnits="userSpaceOnUse"
     x1="12"
     x2="12"
     y1="21.5"
     y2="2.5">
    <stop
       offset="0"
       stop-color="#e5eefc"
       id="stop2" />
    <stop
       offset="1"
       stop-color="#fcfdff"
       id="stop4" />
  </linearGradient>
</defs>
<sodipodi:namedview
   pagecolor="#ffffff"
   bordercolor="#666666"
   borderopacity="1"
   objecttolerance="10"
   gridtolerance="10"
   guidetolerance="10"
   inkscape:pageopacity="0"
   inkscape:pageshadow="2"
   inkscape:window-width="1366"
   inkscape:window-height="716"
   id="namedview6"
   showgrid="false"
   inkscape:zoom="14.75"
   inkscape:cx="-1.6610169"
   inkscape:cy="8"
   inkscape:window-x="-8"
   inkscape:window-y="-8"
   inkscape:window-maximized="1"
   inkscape:current-layer="svg4" />





     /&amp;gt;
 <path
   d="m8 1c-4.375029.0002714-7.99962593 3.0980629-8 7 .00037428 3.901937 3.6249712 6.999729 8 7 4.375029-.000272 7.999626-3.098063 8-7v-.0039062-.0039063c-.002824-.1706438-.014207-.3417415-.03125-.5117187l-.019531-.1992188-7.1328128-6.2441406-.1699218-.0117188c-.2146444-.0158631-.4291414-.0247128-.6445313-.0253906zm-.0019531 1.0195312h.0019531c.1367359.0004632.2737176.0082801.4101562.015625l6.5566408 5.7402344c.0047.075647.012332.1508135.013672.2265625-.001545 3.2659139-3.083106 5.9782739-6.980469 5.9785159-3.8981428-.000242-6.9801553-2.71368-6.9804688-5.980469.0003132-3.2662232 3.0813312-5.9792864 6.9785157-5.9804688zm2.9746091 2.6621094a.50005.50005 0 0 0 -.30664.1171875l-6.4375004 5.3183599a.50077174.50077174 0 0 0 .6386719.771484l6.4355465-5.3183595a.50005.50005 0 0 0 -.330078-.8886719z"
   fill="#4d82b8"
   id="path2"
   style="fill:#0a84ff;fill-opacity:1" />
</svg>
