<svg viewBox="0 0 16 16" xmlns="http://www.w3.org/2000/svg">/&amp;amp;gt;<path d="m4.5945533 0-4.5945533 13h1.3144682c.1429174 0 .264188-.0428.3636087-.12854.1056346-.08574.1772311-.184626.2145139-.296753l1.0345352-3.1166992h5.0509662l.3681726 1.1044922h1.5274606l.1262746-.131713-3.6802074-10.430787zm.8580556 1.7011719c.055924.2440385.1143415.4713126.1764795.682373s.1249911.3971246.1871292.5554199l1.7328462 5.2336428h-4.19291l1.7328464-5.2241213c.0559243-.1582953.1143415-.3427726.1764795-.553833.0621381-.2110604.1249912-.4428473.1871292-.6934814z" fill="#69696e"/><g fill="#eac282" transform="translate(-.495572 -.5)"><path d="m8.0648836 13.101074-1.0693114 2.712486 2.9227772-.657095z" fill="#a2a2a7" stroke="#848489" stroke-linecap="square"/><path d="m11.861005 8.958496-3.524935 3.651053 2.158551 2.207933 3.493336-3.734963z" fill="#fc0" stroke="#c89e00"/><path d="m14.065594 7c-.142171 0-.283638.05379-.392578.1625977l-1.255371 1.2524416 2.135742 2.1372067 1.283203-1.229004c.21788-.2175952.21788-.5675602 0-.7851562l-1.376953-1.3754881c-.108941-.108798-.251871-.1625977-.394043-.1625977z" fill="#e68497" stroke="#b6496c"/><path d="m13.411678 10.101871-.552201-.5355508-3.5918326 3.4336798.7279278.5z" fill="#ffe014"/></g></svg>