<?xml version="1.0" encoding="UTF-8" standalone="no"?>
<svg
   xmlns:dc="http://purl.org/dc/elements/1.1/"
   xmlns:cc="http://creativecommons.org/ns#"
   xmlns:rdf="http://www.w3.org/1999/02/22-rdf-syntax-ns#"
   xmlns:svg="http://www.w3.org/2000/svg"
   xmlns="http://www.w3.org/2000/svg"
   xmlns:xlink="http://www.w3.org/1999/xlink"
   xmlns:sodipodi="http://sodipodi.sourceforge.net/DTD/sodipodi-0.dtd"
   xmlns:inkscape="http://www.inkscape.org/namespaces/inkscape"
   viewBox="0 0 16 16"
   version="1.1"
   id="svg8"
   sodipodi:docname="sc_editglossary.svg"
   inkscape:version="0.92.3 (unknown)"
   inkscape:export-filename="/home/rizmut/Dokumen/Rizmut/Github/libreoffice-style-sukapura/images_sukapura/cmd/sc_editglossary.png"
   inkscape:export-xdpi="96"
   inkscape:export-ydpi="96"><metadata
   id="metadata14">
  <rdf:RDF>
    <cc:Work
       rdf:about="">
      <dc:format>image/svg+xml</dc:format>
      <dc:type
         rdf:resource="http://purl.org/dc/dcmitype/StillImage" />
      <dc:title></dc:title>
    </cc:Work>
  </rdf:RDF>
</metadata>
<defs
   id="defs12">
  <linearGradient
     inkscape:collect="always"
     id="linearGradient887">
    <stop
       style="stop-color:#eeeeee;stop-opacity:1;"
       offset="0"
       id="stop883" />
    <stop
       id="stop891"
       offset="0.12832868"
       style="stop-color:#eeeeee;stop-opacity:1;" />
    <stop
       style="stop-color:#ffffff;stop-opacity:1"
       offset="0.2677961"
       id="stop897" />
    <stop
       style="stop-color:#ffffff;stop-opacity:1"
       offset="0.6242128"
       id="stop893" />
    <stop
       id="stop895"
       offset="0.875"
       style="stop-color:#eeeeee;stop-opacity:1;" />
    <stop
       style="stop-color:#eeeeee;stop-opacity:1"
       offset="1"
       id="stop885" />
  </linearGradient>
  <clipPath
     clipPathUnits="userSpaceOnUse"
     id="clipPath834">
    <rect
       style="opacity:1;fill:#98989d;fill-opacity:1;stroke:#c20618;stroke-width:1;stroke-linecap:round;stroke-linejoin:round;stroke-miterlimit:4;stroke-dasharray:none;stroke-opacity:1"
       id="rect836"
       width="69.423729"
       height="65.627121"
       x="-1088.5424"
       y="-635.93219" />
  </clipPath>
  <filter
     inkscape:collect="always"
     style="color-interpolation-filters:sRGB"
     id="filter868"
     x="-0.6315072"
     width="2.2630144"
     y="-0.038176296"
     height="1.0763526">
    <feGaussianBlur
       inkscape:collect="always"
       stdDeviation="0.13498718"
       id="feGaussianBlur870" />
  </filter>
  <linearGradient
     inkscape:collect="always"
     xlink:href="#linearGradient887"
     id="linearGradient889"
     x1="6.4824248"
     y1="3.5000011"
     x2="10.515625"
     y2="3.5000011"
     gradientUnits="userSpaceOnUse" />
</defs>
<sodipodi:namedview
   pagecolor="#ffffff"
   bordercolor="#666666"
   borderopacity="1"
   objecttolerance="10"
   gridtolerance="10"
   guidetolerance="10"
   inkscape:pageopacity="0"
   inkscape:pageshadow="2"
   inkscape:window-width="1366"
   inkscape:window-height="706"
   id="namedview10"
   showgrid="true"
   inkscape:zoom="11.313709"
   inkscape:cx="16.680418"
   inkscape:cy="-1.1961756"
   inkscape:window-x="0"
   inkscape:window-y="0"
   inkscape:window-maximized="1"
   inkscape:current-layer="svg8">
  <inkscape:grid
     type="xygrid"
     id="grid838" />
</sodipodi:namedview>





     /&amp;gt;
 <path
   d="m5 0h4l-3 3h1l-7 6 3-5h-2z"
   fill="#eac282"
   fill-rule="evenodd"
   id="path6"
   style="fill:#ff9500;fill-opacity:1" />
<g
   id="g903"
   transform="rotate(45,8.4984385,8.6035155)">
  <path
     sodipodi:nodetypes="ccsscccsscccccc"
     inkscape:connector-curvature="0"
     id="path4"
     d="m 6,7 v 5.410156 c -2.8e-5,0.0042 -0.00195,0.0076 -0.00195,0.01172 v 3.363281 c 0,0.0042 0.00193,0.0076 0.00195,0.01172 V 16 h 0.03125 c 0.084332,0.680185 0.5280046,1.207031 1.0898438,1.207031 h 2.7558593 c 0.5618389,0 1.0055109,-0.526846 1.0898439,-1.207031 H 11 V 15.785156 12.421875 7 Z"
     style="fill:#0e0f0f;fill-opacity:1" />
  <path
     id="rect846"
     d="M 6.4869905,7.5138645 H 7 V 16.397748 H 6.4869905 Z"
     style="opacity:1;fill:#808080;fill-opacity:1;stroke:none;stroke-width:0.58229345;stroke-linecap:round;stroke-linejoin:round;stroke-miterlimit:4;stroke-dasharray:none;stroke-opacity:1;filter:url(#filter868)"
     inkscape:connector-curvature="0" />
  <path
     id="path873"
     d="M 7.1210938,0 C 6.5592545,0 6.115582,0.52684625 6.03125,1.2070312 H 6 v 0.203125 c -2e-5,0.00412 -0.00195,0.00752 -0.00195,0.011719 v 3.3632812 c 0,0.00412 0.00193,0.00752 0.00195,0.011719 V 7 h 5 V 4.7851562 1.421875 1.2070312 h -0.0332 C 10.882464,0.52684625 10.438792,0 9.8769531,0 Z"
     style="fill:#98989d;fill-opacity:1"
     inkscape:connector-curvature="0" />
  <path
     sodipodi:type="inkscape:offset"
     inkscape:radius="-0.515625"
     inkscape:original="M 7.1210938 0.484375 C 6.8620589 0.484375 6.5742842 0.7629517 6.5117188 1.2675781 A 0.48442344 0.48442344 0 0 1 6.484375 1.3769531 L 6.484375 1.4101562 A 0.48442344 0.48442344 0 0 1 6.484375 1.4121094 C 6.4836258 1.5664427 6.4824219 1.5663332 6.4824219 1.421875 L 6.4824219 4.7851562 C 6.4824219 4.6377679 6.483655 4.6433072 6.484375 4.7949219 A 0.48442344 0.48442344 0 0 1 6.484375 4.796875 L 6.484375 6.515625 L 10.515625 6.515625 L 10.515625 4.7851562 L 10.515625 1.421875 L 10.515625 1.3828125 A 0.48442344 0.48442344 0 0 1 10.486328 1.2675781 C 10.423762 0.76294827 10.135987 0.484375 9.8769531 0.484375 L 7.1210938 0.484375 z "
     style="fill:url(#linearGradient889);fill-opacity:1"
     id="path878"
     d="m 5.9667969,0.82226562 c -4.031e-4,0.0499729 -0.00186,0.25764568 -0.00195,0.44921878 -0.010234,0.032093 -0.00655,0.025225 0,0.011719 -1.6e-6,0.00336 1.4e-6,0.00444 0,0.00781 -0.00462,0.018847 -0.00204,0.01287 0,0.00977 -4e-6,0.010159 3e-6,0.013174 0,0.023438 -6e-7,0.00171 4e-7,0.00219 0,0.00391 -1.4e-4,0.490124 0.00214,0.8829369 0.00391,0.2226562 -1.051e-4,-0.00232 6.53e-5,-0.0022 0,-0.00391 -2.321e-4,-0.00608 -0.00189,-0.01032 -0.00195,-0.013672 -1.654e-4,-0.00859 6.98e-5,-0.017301 0,-0.027344 -1.397e-4,-0.020085 0,-0.047154 0,-0.083984 a 0.51567656,0.51567656 0 0 1 0.00195,-0.011719 0.51567656,0.51567656 0 0 1 0,-0.013672 c -1.413e-4,-0.068238 1.316e-4,-0.025625 0,-0.080078 4.728e-4,4.518e-4 0.00734,-0.029255 0.00977,-0.037109 -0.00811,0.059713 -0.00693,0.065842 0.017578,-0.060547 0.00217,-0.011199 0.00135,-0.00213 0.00391,-0.015625 3.756e-4,-0.00149 -3.826e-4,-4.284e-4 0,-0.00195 3.097e-4,-0.00164 -3.154e-4,-2.832e-4 0,-0.00195 3.161e-4,-0.00167 -3.091e-4,-3.131e-4 0,-0.00195 2.308e-4,-6.091e-4 0.00172,6.141e-4 0.00195,0 5.564e-4,-0.00147 -5.666e-4,-4.551e-4 0,-0.00195 a 0.51567656,0.51567656 0 0 1 0,-0.00195 c 0.00127,-0.00508 7.769e-4,-0.00111 0.00195,-0.00586 0.046483,-0.1494582 0.037566,-0.1332812 0.015625,-0.074219 0.00439,-0.023345 0.00534,-0.034673 -0.00586,0.00195 0.00347,-0.026442 0.00439,-0.033051 -0.00586,0.00977 0.00427,-0.049381 -5.672e-4,-0.025641 -0.013672,0.054687 -4.319e-4,0.00265 -0.00152,0.00319 -0.00195,0.00586 -9.736e-4,0.00344 -9.83e-4,0.00436 -0.00195,0.00781 -1.357e-4,8.476e-4 1.354e-4,0.0011 0,0.00195 -1.354e-4,8.483e-4 1.351e-4,0.0011 0,0.00195 -0.00171,0.00608 -0.00224,0.00766 -0.00391,0.013672 -0.00779,0.022891 -0.011649,0.034384 -0.017578,0.052734 -6.901e-4,-0.253082 -0.00156,-0.49034749 -0.00195,-0.44140628 z M 7.1210938,1 c 0.1106478,0 -0.055995,-0.005947 -0.097656,0.3300781 l -0.027344,-0.00391 A 0.51567656,0.51567656 0 0 1 7,1.3769531 v 0.033203 a 0.51567656,0.51567656 0 0 1 0,0.00391 c -1.906e-4,0.039254 2.399e-4,0.068479 0,0.089844 -1.199e-4,0.010683 -0.00178,0.019055 -0.00195,0.027344 -8.9e-5,0.00414 2.757e-4,0.0086 0,0.015625 -1.379e-4,0.00351 6.508e-4,0.00814 0,0.017578 v 3.0820313 c 4.771e-4,0.00768 -1.196e-4,0.012404 0,0.015625 2.391e-4,0.00644 -8.61e-5,0.00955 0,0.013672 1.722e-4,0.00824 0.00183,0.016631 0.00195,0.027344 2.326e-4,0.020959 -1.806e-4,0.050529 0,0.087891 4e-6,8.303e-4 -4e-6,0.00111 0,0.00195 a 0.51567656,0.51567656 0 0 1 0,0.00391 V 6 h 3 V 4.7851562 1.421875 1.3828125 a 0.51567656,0.51567656 0 0 1 0.002,-0.056641 l -0.027344,0.00391 C 9.9329471,0.9940485 9.7663074,1 9.8769531,1 Z m 3.8359372,0.060547 c -0.0067,-0.013385 0.0029,0.023606 0.03711,0.1308593 a 0.51567656,0.51567656 0 0 1 0.002,0.00195 0.51567656,0.51567656 0 0 1 0,0.00195 c 3.95e-4,0.00156 -4.05e-4,3.59e-4 0,0.00195 9.1e-5,3.593e-4 0.0019,-3.609e-4 0.002,0 3.03e-4,0.0016 -3.1e-4,3.167e-4 0,0.00195 3.1e-4,0.00164 -3.17e-4,2.831e-4 0,0.00195 4.76e-4,0.00148 -4.68e-4,5.024e-4 0,0.00195 0.0031,0.00977 0.0011,0.00326 0.0039,0.011719 0.02824,0.1460963 0.02706,0.1254886 0.01758,0.056641 0.01051,0.035104 0.0129,0.045047 0.0039,0 0.01029,0.027431 0.01721,0.042125 0.0078,0.00586 0.01479,0.031138 0.0062,7.45e-5 -0.02148,-0.078125 -4.24e-4,-0.00268 -0.0015,-0.00318 -0.002,-0.00586 -0.01399,-0.087814 -0.02214,-0.1211019 -0.01758,-0.066406 -0.0105,-0.043266 -0.0093,-0.036368 -0.0059,-0.00977 -0.0122,-0.038941 -0.01031,-0.025277 -0.0039,0.00586 -0.0082,-0.021677 -0.02014,-0.055932 -0.02344,-0.0625 z M 5.9765625,1.2714844 c -0.00258,0.01298 -0.00634,0.028533 -0.00781,0.037109 -2.87e-5,-0.01167 2.82e-5,-0.00654 0,-0.017578 9.647e-4,-0.00214 0.00605,-0.014714 0.00781,-0.019531 z m -0.00977,2.9355468 c -0.00156,0.1935987 -0.00111,2.0689882 0.00195,0.6113282 a 0.51567656,0.51567656 0 0 1 -0.00195,-0.033203 c 0,-0.037566 -1.429e-4,-0.065845 0,-0.085937 7.14e-5,-0.010046 -1.78e-4,-0.016574 0,-0.025391 6.49e-5,-0.00322 0.00172,-0.00969 0.00195,-0.015625 -9.2e-6,-0.00347 9.2e-6,-0.00245 0,-0.00586 -6.988e-4,-0.2587588 -0.00155,-0.4946869 -0.00195,-0.4453126 z" />
</g>
<path
   style="font-style:normal;font-weight:normal;font-size:16.12222672px;line-height:1.25;font-family:sans-serif;letter-spacing:0px;word-spacing:0px;fill:#ff9500;fill-opacity:1;stroke:none;stroke-width:0.40305567"
   d="M 14.125 7.5253906 L 12.955078 8.7382812 C 13.129443 8.8050044 13.27778 8.8987027 13.394531 9.0253906 C 13.641193 9.2877967 13.763672 9.639236 13.763672 10.080078 L 13.763672 10.638672 L 12.591797 10.638672 C 11.97088 10.638672 11.420855 10.700707 10.941406 10.820312 L 8.7207031 13.117188 C 8.7088875 13.230123 8.6875 13.336619 8.6875 13.457031 C 8.6875 14.176024 8.9574904 14.779503 9.4980469 15.267578 C 10.038603 15.755653 10.736353 16 11.591797 16 C 12.473481 16 13.219343 15.681898 13.828125 15.046875 C 13.891102 15.414243 13.962905 15.679105 14.046875 15.841797 L 16 15.841797 L 16 15.708984 C 15.784827 15.252398 15.677734 14.641226 15.677734 13.875 L 15.677734 10.033203 C 15.66199 9.1252782 15.35671 8.4223996 14.763672 7.9238281 C 14.573913 7.7626168 14.356134 7.6350178 14.125 7.5253906 z M 12.732422 11.84375 L 13.763672 11.84375 L 13.763672 13.449219 C 13.595732 13.758858 13.343692 14.005769 13.007812 14.189453 C 12.677181 14.373137 12.323177 14.464844 11.945312 14.464844 C 11.535959 14.464844 11.207599 14.357751 10.960938 14.142578 C 10.719524 13.922157 10.599609 13.627134 10.599609 13.259766 C 10.599609 12.808427 10.777893 12.459552 11.134766 12.212891 C 11.491638 11.966229 12.023926 11.84375 12.732422 11.84375 z "
   id="text838" />
</svg>
