<?xml version="1.0" encoding="UTF-8" standalone="no"?>
<svg
   xmlns:dc="http://purl.org/dc/elements/1.1/"
   xmlns:cc="http://creativecommons.org/ns#"
   xmlns:rdf="http://www.w3.org/1999/02/22-rdf-syntax-ns#"
   xmlns:svg="http://www.w3.org/2000/svg"
   xmlns="http://www.w3.org/2000/svg"
   xmlns:sodipodi="http://sodipodi.sourceforge.net/DTD/sodipodi-0.dtd"
   xmlns:inkscape="http://www.inkscape.org/namespaces/inkscape"
   viewBox="0 0 16 16"
   version="1.1"
   id="svg14"
   sodipodi:docname="sc_editdoc.svg"
   inkscape:export-filename="/home/rizmut/Documents/Rizmut/Github/libreoffice-style-sukapura/images_sukapura/cmd/sc_editdoc.png"
   inkscape:export-xdpi="96"
   inkscape:export-ydpi="96"
   inkscape:version="0.92.3 (2405546, 2018-03-11)">
  <metadata
     id="metadata20">
    <rdf:RDF>
      <cc:Work
         rdf:about="">
        <dc:format>image/svg+xml</dc:format>
        <dc:type
           rdf:resource="http://purl.org/dc/dcmitype/StillImage" />
        <dc:title></dc:title>
      </cc:Work>
    </rdf:RDF>
  </metadata>
  <defs
     id="defs18">
    <linearGradient
       id="a"
       gradientUnits="userSpaceOnUse"
       x1="10"
       x2="11.500001"
       y1="4"
       y2="2.4999993">
      <stop
         offset="0"
         stop-color="#fff"
         id="stop976" />
      <stop
         offset=".77967989"
         stop-color="#f1f1f1"
         id="stop978" />
      <stop
         offset="1"
         stop-color="#d5d5d5"
         id="stop980" />
    </linearGradient>
    <radialGradient
       id="b"
       cx="10.994179"
       cy="4.4284401"
       gradientTransform="matrix(1.4,4e-8,-1e-8,1.2,-4.39185,-2.314129)"
       gradientUnits="userSpaceOnUse"
       r="5">
      <stop
         offset="0"
         stop-color="#d7d7d7"
         id="stop983" />
      <stop
         offset=".49894297"
         stop-color="#f7f7f7"
         id="stop985" />
      <stop
         offset="1"
         stop-color="#fff"
         id="stop987" />
    </radialGradient>
  </defs>
  <sodipodi:namedview
     pagecolor="#ffffff"
     bordercolor="#666666"
     borderopacity="1"
     objecttolerance="10"
     gridtolerance="10"
     guidetolerance="10"
     inkscape:pageopacity="0"
     inkscape:pageshadow="2"
     inkscape:window-width="1366"
     inkscape:window-height="685"
     id="namedview16"
     showgrid="true"
     inkscape:zoom="14.75"
     inkscape:cx="8.9545365"
     inkscape:cy="0.89880432"
     inkscape:window-x="0"
     inkscape:window-y="0"
     inkscape:window-maximized="1"
     inkscape:current-layer="svg14">
    <inkscape:grid
       type="xygrid"
       id="grid831"
       spacingx="0.5"
       spacingy="0.5"
       empspacing="2" />
  </sodipodi:namedview>
  <path
     style="fill:url(#b)"
     d="M 3,1 V 15 H 13 V 5.6367188 3.7050781 L 10.304688,1 Z M 13,13.496094 11.505859,15 H 13 Z"
     id="path990"
     inkscape:connector-curvature="0"
     sodipodi:nodetypes="ccccccccccc" />
  <path
     style="fill:#98989d;fill-opacity:1"
     d="M 3,0 C 2.446,0 2,0.446 2,1 v 14 c 0,0.554 0.446,1 1,1 H 5 5.234375 10.496094 12 13 c 0.554,0 1,-0.446 1,-1 V 12.488281 5.59375 4.5 3.6367188 L 10.363281,0 H 9.5 Z M 3,1 H 9 C 8.7644595,5.3644357 8.8880625,5 13,5 V 5.6367188 13.5 15 H 12 11.505859 5.2246094 5 3 Z m 7,0 3,3 C 9.7919316,4.230437 10,4.0110772 10,1 Z"
     id="path4"
     inkscape:connector-curvature="0"
     sodipodi:nodetypes="ssssccccssccccccsccccccccccccccc" />
  <g
     id="g12"
     transform="translate(-0.49557221,-0.5)"
     style="fill:#eac282">
    <path
       style="fill:#a2a2a7;fill-opacity:1;stroke:#848489;stroke-linecap:square;stroke-linejoin:miter;stroke-opacity:1"
       id="path827"
       d="M 8.0648836,13.101074 6.9955722,15.81356 9.9183494,15.156465 Z"
       inkscape:connector-curvature="0"
       sodipodi:nodetypes="cccc" />
    <path
       d="m 11.861005,8.958496 -3.524935,3.651053 2.158551,2.207933 3.493336,-3.734963 z"
       id="path8"
       style="fill:#ffcc00;fill-opacity:1;stroke:#c89e00;stroke-opacity:1"
       inkscape:connector-curvature="0"
       sodipodi:nodetypes="ccccc" />
    <path
       d="m 14.065594,7 c -0.142171,0 -0.283638,0.05379 -0.392578,0.1625977 l -1.255371,1.2524416 2.135742,2.1372067 1.283203,-1.229004 c 0.21788,-0.2175952 0.21788,-0.5675602 0,-0.7851562 L 14.459637,7.1625977 C 14.350696,7.0537997 14.207766,7 14.065594,7 Z"
       id="path10"
       style="fill:#e68497;fill-opacity:1;stroke:#b6496c;stroke-opacity:1"
       inkscape:connector-curvature="0" />
    <path
       inkscape:connector-curvature="0"
       style="fill:#ffe014"
       d="M 13.411678,10.101871 12.859477,9.5663202 9.2676444,13 9.9955722,13.5 Z"
       id="path14"
       sodipodi:nodetypes="ccccc" />
  </g>
  <path
     inkscape:connector-curvature="0"
     style="fill:url(#a)"
     d="m 10,1 3,3 h -3 z"
     id="path994" />
</svg>
