<?xml version="1.0" encoding="UTF-8" standalone="no"?>
<svg
   xmlns:dc="http://purl.org/dc/elements/1.1/"
   xmlns:cc="http://creativecommons.org/ns#"
   xmlns:rdf="http://www.w3.org/1999/02/22-rdf-syntax-ns#"
   xmlns:svg="http://www.w3.org/2000/svg"
   xmlns="http://www.w3.org/2000/svg"
   xmlns:sodipodi="http://sodipodi.sourceforge.net/DTD/sodipodi-0.dtd"
   xmlns:inkscape="http://www.inkscape.org/namespaces/inkscape"
   viewBox="0 0 16 16"
   version="1.1"
   id="svg22"
   sodipodi:docname="sc_exportdirecttopdf.svg"
   inkscape:version="0.92.3 (unknown)"
   inkscape:export-filename="/home/rizmut/Dokumen/Rizmut/Github/libreoffice-style-sukapura/images_sukapura/cmd/sc_exportdirecttopdf.png"
   inkscape:export-xdpi="96"
   inkscape:export-ydpi="96">
  <metadata
     id="metadata28">
    <rdf:RDF>
      <cc:Work
         rdf:about="">
        <dc:format>image/svg+xml</dc:format>
        <dc:type
           rdf:resource="http://purl.org/dc/dcmitype/StillImage" />
        <dc:title></dc:title>
      </cc:Work>
    </rdf:RDF>
  </metadata>
  <defs
     id="defs26" />
  <sodipodi:namedview
     pagecolor="#ffffff"
     bordercolor="#666666"
     borderopacity="1"
     objecttolerance="10"
     gridtolerance="10"
     guidetolerance="10"
     inkscape:pageopacity="0"
     inkscape:pageshadow="2"
     inkscape:window-width="1366"
     inkscape:window-height="706"
     id="namedview24"
     showgrid="false"
     inkscape:zoom="14.75"
     inkscape:cx="2.1803263"
     inkscape:cy="2.3194805"
     inkscape:window-x="0"
     inkscape:window-y="0"
     inkscape:window-maximized="1"
     inkscape:current-layer="svg22" />
  <linearGradient
     id="a"
     gradientUnits="userSpaceOnUse"
     x1="10"
     x2="11.5000006"
     y1="4"
     y2="2.4999994">
    <stop
       offset="0"
       stop-color="#fff"
       id="stop2" />
    <stop
       offset=".77967989"
       stop-color="#f1f1f1"
       id="stop4" />
    <stop
       offset="1"
       stop-color="#d5d5d5"
       id="stop6" />
  </linearGradient>
  <radialGradient
     id="b"
     cx="10.994179"
     cy="4.42844"
     gradientTransform="matrix(1.4 .00000004 -.00000001 1.2 -4.39185 -2.314129)"
     gradientUnits="userSpaceOnUse"
     r="5">
    <stop
       offset="0"
       stop-color="#d7d7d7"
       id="stop9" />
    <stop
       offset=".49894297"
       stop-color="#f7f7f7"
       id="stop11" />
    <stop
       offset="1"
       stop-color="#fff"
       id="stop13" />
  </radialGradient>
  <g
     id="g1533">
    <path
       d="m3 1v14h10v-11.2949219l-2.695312-2.7050781z"
       fill="url(#b)"
       id="path1527" />
    <path
       d="m3 0c-.554 0-1 .446-1 1v14c0 .554.446 1 1 1h10c.554 0 1-.446 1-1v-10.5-.8632812l-3.636719-3.6367188h-.863281zm0 1h6v3.5c0 .277.223.5.5.5h3.5v10h-10zm7 0 3 3h-3z"
       fill="#98989d"
       id="path1529" />
    <path
       d="m10 1 3 3h-3z"
       fill="url(#a)"
       id="path1531" />
  </g>
  <path
     style="fill:#ffffff;fill-opacity:0.78431374"
     d="M 10.857422 6 C 10.379217 5.99124 10.012808 6.2893438 9.7636719 6.6738281 A 1.0001 1.0001 0 0 0 9.7617188 6.6757812 A 1.0001 1.0001 0 0 0 9.5078125 7.1347656 C 9.5056025 7.1477916 9.4920644 7.1548158 9.4902344 7.1679688 C 9.4866644 7.1933667 9.4917944 7.1946 9.4902344 7.21875 A 1.0001 1.0001 0 0 0 9.4804688 7.4238281 C 9.5457053 8.7161609 9.6243616 9.7736193 9.3125 10.835938 C 8.9992923 11.902838 8.3048661 13.082906 6.4863281 14.603516 A 1.0001 1.0001 0 0 0 6.421875 14.662109 C 6.419755 14.664109 6.4200887 14.667922 6.4179688 14.669922 C 6.4877307 14.599332 6.4058069 14.681631 6.4042969 14.681641 A 1.0001 1.0001 0 0 0 6.2011719 15 A 1.0001 1.0001 0 0 0 6.1289062 15.335938 C 6.0932163 15.458977 5.9782776 15.553792 5.9804688 15.675781 C 5.9825349 15.790778 6.001656 15.897238 6.0292969 16 L 8.9726562 16 C 9.4225842 15.598968 9.855439 15.254714 10.259766 15 C 10.914922 14.587269 11.517819 14.336304 12.078125 14.205078 C 12.337873 14.144244 12.592828 14.106464 12.845703 14.089844 C 12.897192 14.086544 12.94859 14.093497 13 14.091797 C 13.201066 14.085017 13.401119 14.081796 13.603516 14.097656 C 13.730801 14.134439 13.868691 14.164629 14 14.199219 L 14 11.412109 C 13.570418 11.262976 13.248709 11.084494 13 10.890625 C 12.928421 10.834829 12.833194 10.783119 12.777344 10.724609 C 12.244671 10.166505 11.928627 9.3237479 12.175781 7.5410156 A 1.0001 1.0001 0 0 0 12.183594 7.3515625 C 12.194094 7.5524347 12.19805 7.5041415 12.1875 7.2890625 C 12.152433 6.5860433 11.561173 6.01209 10.857422 6 z M 10.195312 7.2675781 C 10.188503 7.3164512 10.205219 7.3481404 10.199219 7.3964844 C 10.199019 7.3928744 10.192906 7.393365 10.191406 7.390625 C 10.180206 7.1768219 10.17408 7.2017727 10.1875 7.4570312 L 10.195312 7.2675781 z "
     id="path16" />
  <path
     inkscape:connector-curvature="0"
     style="fill:none;stroke:#ff453a;stroke-width:0.711393;stroke-linecap:round;stroke-linejoin:round"
     d="m 7.3552524,15.644758 c 3.9201846,-3.277907 3.6057646,-5.7662152 3.4784016,-8.2894016 -0.561677,4.0514056 1.529192,5.5007666 4.81093,5.7819296 -2.474792,-0.780342 -5.097383,-0.732202 -8.2893316,2.507472 z"
     id="path20-6" />
</svg>
