<?xml version="1.0" encoding="UTF-8" standalone="no"?>
<svg
   xmlns:dc="http://purl.org/dc/elements/1.1/"
   xmlns:cc="http://creativecommons.org/ns#"
   xmlns:rdf="http://www.w3.org/1999/02/22-rdf-syntax-ns#"
   xmlns:svg="http://www.w3.org/2000/svg"
   xmlns="http://www.w3.org/2000/svg"
   xmlns:xlink="http://www.w3.org/1999/xlink"
   xmlns:sodipodi="http://sodipodi.sourceforge.net/DTD/sodipodi-0.dtd"
   xmlns:inkscape="http://www.inkscape.org/namespaces/inkscape"
   viewBox="0 0 16 16"
   version="1.1"
   id="svg18"
   sodipodi:docname="sc_formatpaintbrush.svg"
   inkscape:version="0.92.3 (2405546, 2018-03-11)"><metadata
   id="metadata24">
  <rdf:RDF>
    <cc:Work
       rdf:about="">
      <dc:format>image/svg+xml</dc:format>
      <dc:type
         rdf:resource="http://purl.org/dc/dcmitype/StillImage" />
    </cc:Work>
  </rdf:RDF>
</metadata>
<defs
   id="defs22">
  <linearGradient
     gradientTransform="translate(-29.694915,1.220339)"
     id="a"
     gradientUnits="userSpaceOnUse"
     x1="14"
     x2="13.79661"
     y1="22"
     y2="2.1355929">
    <stop
       offset="0"
       stop-color="#0040dd"
       id="stop2" />
    <stop
       offset="1"
       stop-color="#0a84ff"
       id="stop4" />
  </linearGradient>
  <linearGradient
     inkscape:collect="always"
     xlink:href="#a"
     id="linearGradient854"
     x1="7.1807208"
     y1="15.397342"
     x2="7.1041284"
     y2="11.261748"
     gradientUnits="userSpaceOnUse" />
</defs>
<sodipodi:namedview
   pagecolor="#ffffff"
   bordercolor="#666666"
   borderopacity="1"
   objecttolerance="10"
   gridtolerance="10"
   guidetolerance="10"
   inkscape:pageopacity="0"
   inkscape:pageshadow="2"
   inkscape:window-width="1366"
   inkscape:window-height="685"
   id="namedview20"
   showgrid="false"
   inkscape:zoom="20.85965"
   inkscape:cx="2.6331757"
   inkscape:cy="7.7990537"
   inkscape:window-x="0"
   inkscape:window-y="0"
   inkscape:window-maximized="1"
   inkscape:current-layer="svg18" />



     /&amp;amp;gt;
 <g
   transform="matrix(.76467219 0 0 .72664045 -.294017 .01391)"
   id="g16">
  <path
     d="m7.0922108 9.8680516 8.2953382 5.8887494-2.143755 3.119468c-.333999.408747-.200397.966114.133618 1.189061l1.436197 1.374861h-8.1162173c-3.3110346 0-4.6547203-2.91191-3.0624901-5.980094z"
     fill="#ffa914"
     stroke="#f58b00"
     id="path2"
     style="stroke:#c93400;stroke-opacity:1;fill:#ff9500;fill-opacity:1" />
  <path
     d="m 11.265358,6.7090372 5.40234,3.7243908 c 0.907371,0.545594 1.173892,1.818531 0.117811,2.523559 l -0.99771,1.73784 L 7.7409047,9.068034 8.8879502,7.2705283 C 9.3853324,6.3752936 10.126299,6.0522827 11.265342,6.7090364 Z"
     id="path4"
     inkscape:connector-curvature="0"
     style="fill:#dadada;stroke:#848489;stroke-width:1.341537"
     sodipodi:nodetypes="cccccccc" />
  <path
     d="m12.927812.57553817-3.6840911 4.69357493 2.1184481 1.609263 3.466132-4.9958202z"
     fill="#dadada"
     stroke="#848489"
     stroke-linecap="round"
     transform="matrix(1.3077499 0 0 1.3761964 .384501 -.019143)"
     id="path6" />
  <path
     d="m2.1132812 12.173828c-.5158787 1.854202.5392716 3.419922 2.7148438 3.419922h6.205078l-1.0976561-1c-.2089735-.132547-.3034201-.42576-.1953125-.691406-3.0320484-.693518-5.4155691-1.234306-7.6269532-1.728516z"
     fill="#148eff"
     stroke="#0070f5"
     transform="matrix(1.3077499 0 0 1.3761964 .384501 -.019143)"
     id="path8"
     style="fill-opacity:1;fill:url(#linearGradient854);stroke:#0040dd;stroke-opacity:1" />
  <g
     fill="none"
     stroke="#fff"
     stroke-width="1.341537"
     id="g14">
    <path
       d="M 9.1799208,9.3300411 10.230407,7.7057552 16.508091,11.944825"
       id="path10"
       inkscape:connector-curvature="0"
       sodipodi:nodetypes="ccc" />
    <path
       d="m13.8948 7.419726 3.714548-4.8985761.909046.6267538"
       id="path12" />
  </g>
</g>
</svg>
