<svg viewBox="0 0 16 16" xmlns="http://www.w3.org/2000/svg" xmlns:xlink="http://www.w3.org/1999/xlink"><linearGradient id="a" gradientUnits="userSpaceOnUse" x1="8" x2="8" y1="4" y2="14"><stop offset="0" stop-color="#68caf8"/><stop offset=".5" stop-color="#70cef9"/><stop offset=".71428573" stop-color="#79d3fb"/><stop offset=".9285714" stop-color="#67c1ed"/><stop offset="1" stop-color="#67bfea"/></linearGradient>








     /&amp;amp;amp;amp;amp;gt;
 <g fill-rule="evenodd"><g transform="translate(1 -2)"><path d="m10.5 2.5000002c-.265199.0000511-.519519.1054326-.707031.2929688l-3.207031 1.7070312-5.085938-.0000004c-.5522619.0000552-.9999448.4477381-1 1.0000002v9h1 12v-8.5-2.5c-.000055-.5522619-.447738-.9999448-1-1z" fill="#94ddff" stroke="#2bbcff"/><path d="m.5 14.5h1 12v-6c.29761-.9920364-1.78201-.9921875-.742188-.9921875h-.002-1-1-8.9785156c-1.02113938 0-1.02076208-.0005516-1.27924988.9902344z" fill="url(#a)" stroke="#15b0f5"/></g><g transform="translate(2)"><path d="m3.4746094 2.0234375c-.7663717.0254022-1.4475748.7272466-1.4472656 1.4941406l.0000002 11.1386719c-.0003471.588965.3830009 1.158881.9277343 1.382812.5447335.223932 1.2188306.08689 1.6328126-.332031l1.4121091-2.395371c.6571659.79147 1.1475829 2.409541 2 2.68834.6426921.181463 1.5294688-.0111 2.123047-.190642.595992-.180268 1.225565-.539792 1.652344-1.171875.460989-.682748.563264-1.578603.248046-2.412109-.0025-.0059-.0051-.01175-.0078-.01758-.01362-.03414-.02883-.06656-.04492-.09961l-.0078-.01758-.962917-1.393601 1.654322-.253645c.617147.000835 1.211552-.422835 1.414063-1.005859.202416-.5827508-.002-1.2820289-.486328-1.6640625l-.002-.00195-9.1289061-5.4277344c-.0006491-.0006519-.0013-.0013-.00195-.00195-.2739345-.215476-.624292-.3297183-.9726384-.3183646z" fill="#98989d"/><path d="m3.5078125 3.0234375c-.2667743.0084656-.4786232.227232-.4785156.4941406l-.0000029 11.1386719c-.0002603.441832.5351401.661928.8457031.347656l2.1250029-3.003906c.8092777.846847.8772361 3.003929 2.5 3.235598.4339268.122518.9020364-.25458 1.3339816-.385232.4319454-.130649.8429824-.376002 1.1113284-.773438.268347-.397435.34616-.954566.140625-1.498046-.0053-.01327-.01116-.0263-.01758-.03906l-1.7851519-2.5691189 3.3710929-.5292969c.470032.0013.676269-.5924563.306641-.8828125l-9.1308589-5.4296875c-.0916215-.0720627-.2057669-.1094194-.3222656-.1054687z" fill="#fff"/><path d="m4 4.5v9l1.7949248-2.671875c.2290156-.231324.6174517-.169731.7636719.121093l1.4414033 2.864341.5.186441c.2191287.06187.7898673.0027 1.054687-.07737.2648197-.0801.481609-.231262.587891-.388672.105608-.156411.145735-.313576.03516-.609375l-2.1074256-3.2429424c-.1513185-.3161093.0792275-.6818388.4296876-.6816406l2.783203-.5292969z"/></g></g></svg>