<?xml version="1.0" encoding="UTF-8" standalone="no"?>
<svg
   xmlns:dc="http://purl.org/dc/elements/1.1/"
   xmlns:cc="http://creativecommons.org/ns#"
   xmlns:rdf="http://www.w3.org/1999/02/22-rdf-syntax-ns#"
   xmlns:svg="http://www.w3.org/2000/svg"
   xmlns="http://www.w3.org/2000/svg"
   xmlns:xlink="http://www.w3.org/1999/xlink"
   xmlns:sodipodi="http://sodipodi.sourceforge.net/DTD/sodipodi-0.dtd"
   xmlns:inkscape="http://www.inkscape.org/namespaces/inkscape"
   viewBox="0 0 16 16"
   version="1.1"
   id="svg16"
   sodipodi:docname="sc_fullscreen.svg"
   inkscape:version="0.92.3 (unknown)"
   inkscape:export-filename="/home/rizmut/Dokumen/Rizmut/Github/libreoffice-style-sukapura/images_sukapura/cmd/sc_fullscreen.png"
   inkscape:export-xdpi="96"
   inkscape:export-ydpi="96"><metadata
   id="metadata22">
  <rdf:RDF>
    <cc:Work
       rdf:about="">
      <dc:format>image/svg+xml</dc:format>
      <dc:type
         rdf:resource="http://purl.org/dc/dcmitype/StillImage" />
      <dc:title></dc:title>
    </cc:Work>
  </rdf:RDF>
</metadata>
<defs
   id="defs20">
  <linearGradient
     gradientTransform="translate(-53.898305,-5.1770724)"
     id="a"
     gradientUnits="userSpaceOnUse"
     x1="7"
     x2="7"
     y1="20"
     y2="3">
    <stop
       offset="0"
       stop-color="#f5f5f5"
       id="stop971" />
    <stop
       offset=".3888889"
       stop-color="#fdfdfd"
       id="stop973" />
    <stop
       offset="1"
       stop-color="#fff"
       id="stop975" />
  </linearGradient>
  <linearGradient
     inkscape:collect="always"
     xlink:href="#a"
     id="linearGradient2367"
     x1="5.8418837"
     y1="14.85534"
     x2="5.7956271"
     y2="1.0008414"
     gradientUnits="userSpaceOnUse" />
  <linearGradient
     gradientTransform="translate(-29.694915,1.220339)"
     id="a-6"
     gradientUnits="userSpaceOnUse"
     x1="14"
     x2="13.79661"
     y1="22"
     y2="2.1355929">
    <stop
       offset="0"
       stop-color="#0040dd"
       id="stop2" />
    <stop
       offset="1"
       stop-color="#0a84ff"
       id="stop4" />
  </linearGradient>
  <linearGradient
     inkscape:collect="always"
     xlink:href="#a-6"
     id="linearGradient2402"
     x1="8"
     y1="14"
     x2="8"
     y2="2"
     gradientUnits="userSpaceOnUse" />
</defs>
<sodipodi:namedview
   pagecolor="#ffffff"
   bordercolor="#666666"
   borderopacity="1"
   objecttolerance="10"
   gridtolerance="10"
   guidetolerance="10"
   inkscape:pageopacity="0"
   inkscape:pageshadow="2"
   inkscape:window-width="1366"
   inkscape:window-height="706"
   id="namedview18"
   showgrid="true"
   inkscape:zoom="3.6875"
   inkscape:cx="32.574588"
   inkscape:cy="-5.2792731"
   inkscape:window-x="0"
   inkscape:window-y="0"
   inkscape:window-maximized="1"
   inkscape:current-layer="svg16">
  <inkscape:grid
     type="xygrid"
     id="grid2404" />
</sodipodi:namedview>


     /&gt;
 <rect
   style="fill:#ffffff;stroke:#929292;stroke-linecap:square;stroke-linejoin:round"
   height="15"
   rx="0.99779302"
   width="15"
   x="0.5"
   y="0.5"
   id="rect968" />
<path
   d="m1 1h14v14h-14z"
   fill="#fff"
   id="path2"
   style="fill-opacity:1;fill:url(#linearGradient2367)" />
<g
   fill="#4d82b8"
   fill-rule="evenodd"
   id="g14"
   style="fill-opacity:1;fill:url(#linearGradient2402)">
  <path
     d="m6.8516862 2.5133237c.1983055.199846.1976726.5223718-.00143.7214422l-3.6151934 3.6142691c-.3063808.30722-.8321661.117235-.8712983-.314836l-.3615198-3.9756962c-.0295972-.3186665.2376535-.5858492.5564018-.5562592l3.9767107.361427c.1197669.011134.2317749.064124.316329.1496531z"
     id="path6"
     style="fill-opacity:1.0;fill:url(#linearGradient2402)" />
  <path
     d="m9.148318 2.5133247c-.198306.199846-.197673.5223718.0014.7214422l3.61522 3.6142681c.306381.307221.832165.117235.871297-.314836l.36152-3.9756952c.0296-.3186665-.237653-.5858492-.556402-.5562592l-3.976706.361427c-.119767.011134-.231775.064124-.316329.1496531z"
     id="path8"
     style="fill-opacity:1.0;fill:url(#linearGradient2402)" />
  <path
     d="m6.8516862 13.486676c.1983055-.199846.1976726-.522372-.00143-.721442l-3.6151934-3.614269c-.3063808-.30722-.8321661-.117235-.8712983.314836l-.3615198 3.975696c-.029597.318666.2376535.585849.5564018.556259l3.9767107-.361427c.1197669-.01113.2317749-.06412.316329-.149653z"
     id="path10"
     style="fill-opacity:1.0;fill:url(#linearGradient2402)" />
  <path
     d="m9.148318 13.486675c-.198306-.199846-.197673-.522372.0014-.721442l3.61522-3.614268c.306381-.307221.832165-.117235.871297.314836l.36152 3.975695c.0296.318666-.237653.585849-.556402.556259l-3.976706-.361427c-.119767-.01113-.231775-.06412-.316329-.149653z"
     id="path12"
     style="fill-opacity:1.0;fill:url(#linearGradient2402)" />
</g>
</svg>
