<?xml version="1.0" encoding="UTF-8" standalone="no"?>
<svg
   xmlns:dc="http://purl.org/dc/elements/1.1/"
   xmlns:cc="http://creativecommons.org/ns#"
   xmlns:rdf="http://www.w3.org/1999/02/22-rdf-syntax-ns#"
   xmlns:svg="http://www.w3.org/2000/svg"
   xmlns="http://www.w3.org/2000/svg"
   xmlns:sodipodi="http://sodipodi.sourceforge.net/DTD/sodipodi-0.dtd"
   xmlns:inkscape="http://www.inkscape.org/namespaces/inkscape"
   viewBox="0 0 16 16"
   version="1.1"
   id="svg42"
   sodipodi:docname="sc_freezepanesfirstrow.svg"
   inkscape:export-filename="/home/rizmut/Documents/Rizmut/Github/libreoffice-style-sukapura/images_sukapura/cmd/sc_freezepanes.png"
   inkscape:export-xdpi="96"
   inkscape:export-ydpi="96"
   inkscape:version="0.92.3 (unknown)"
   width="16"
   height="16">
  <metadata
     id="metadata48">
    <rdf:RDF>
      <cc:Work
         rdf:about="">
        <dc:format>image/svg+xml</dc:format>
        <dc:type
           rdf:resource="http://purl.org/dc/dcmitype/StillImage" />
        <dc:title></dc:title>
      </cc:Work>
    </rdf:RDF>
  </metadata>
  <defs
     id="defs46">
    <filter
       style="color-interpolation-filters:sRGB"
       id="b"
       height="1.094553"
       width="1.097492"
       x="-0.048746001"
       y="-0.047277">
      <feGaussianBlur
         stdDeviation=".36559322"
         id="feGaussianBlur1010" />
    </filter>
    <clipPath
       clipPathUnits="userSpaceOnUse"
       id="clipPath1627">
      <path
         sodipodi:nodetypes="ccccc"
         inkscape:connector-curvature="0"
         style="fill:#000000;fill-opacity:1;stroke:none;stroke-opacity:1"
         id="path1629"
         d="m 8,7 h 6 v 6 H 8 Z" />
    </clipPath>
  </defs>
  <sodipodi:namedview
     pagecolor="#ffffff"
     bordercolor="#666666"
     borderopacity="1"
     objecttolerance="10"
     gridtolerance="10"
     guidetolerance="10"
     inkscape:pageopacity="0"
     inkscape:pageshadow="2"
     inkscape:window-width="1366"
     inkscape:window-height="699"
     id="namedview44"
     showgrid="true"
     inkscape:measure-start="0,0"
     inkscape:measure-end="0,0"
     inkscape:zoom="13.906433"
     inkscape:cx="1.8498338"
     inkscape:cy="7.6399145"
     inkscape:window-x="0"
     inkscape:window-y="0"
     inkscape:window-maximized="1"
     inkscape:current-layer="g1679"
     inkscape:snap-global="true">
    <inkscape:grid
       type="xygrid"
       id="grid2885" />
  </sodipodi:namedview>
  <rect
     style="opacity:1;fill:#ffffff;fill-opacity:1;stroke:none;stroke-width:2;stroke-linecap:round;stroke-linejoin:round;stroke-miterlimit:4;stroke-dasharray:none;stroke-opacity:1"
     id="rect1700"
     width="14"
     height="13"
     x="1"
     y="1" />
  <path
     style="fill:#808080"
     d="M 0 0 L 0 5 L 0 14.5 C -0.00038442 14.776301 0.22369855 15.000384 0.5 15 L 15.5 15 C 15.776301 15.000384 16.000384 14.776301 16 14.5 L 16 5 L 16 0 L 0 0 z M 1 1 L 5 1 L 6 1 L 10 1 L 11 1 L 15 1 L 15 4 L 15 5 L 15.001953 5 L 15.001953 14.001953 L 0.99804688 14.001953 L 0.99804688 5 L 1 5 L 1 4 L 1 1 z "
     id="path4-6" />
  <path
     style="opacity:1;fill:#bababa;fill-opacity:1;stroke:none;stroke-width:2;stroke-linecap:round;stroke-linejoin:round;stroke-miterlimit:4;stroke-dasharray:none;stroke-opacity:1"
     d="M 5 1 L 5 3.2832031 L 5 4 L 4.2832031 4 L 1 4 L 1 5 L 4 5 L 5 5 L 5 9 L 4 9 L 1 9 L 1 10 L 4.2832031 10 L 5 10 L 5 11 L 5 14 L 6 14 L 6 11 L 6 10 L 10 10 L 10 11 L 10 14 L 11 14 L 11 11 L 11 10.716797 L 11 10 L 12 10 L 15 10 L 15 9 L 12 9 L 11 9 L 11 5 L 12 5 L 15 5 L 15 4 L 12 4 L 11 4 L 11 3.2832031 L 11 3 L 11 1 L 10 1 L 10 3 L 10 4 L 6 4 L 6 3 L 6 1 L 5 1 z M 6 5 L 10 5 L 10 9 L 6 9 L 6 5 z "
     id="rect1657" />
  <g
     id="g1679">
    <path
       style="fill:#ff9500;fill-opacity:1"
       d="M 0 0 L 0 5 L 0.99804688 5 L 5 5 L 6 5 L 9 5 L 12 5 L 15.001953 5 L 16 5 L 16 0 L 6 0 L 0 0 z M 1 1 L 5 1 L 5 3.2832031 L 5 4 L 4.2832031 4 L 1 4 L 1 1 z M 6 1 L 10 1 L 10 3 L 10 4 L 6 4 L 6 3 L 6 1 z M 11 1 L 15 1 L 15 4 L 12 4 L 11 4 L 11 3.2832031 L 11 1 z "
       id="path8-2" />
    <path
       sodipodi:nodetypes="ccccccc"
       inkscape:connector-curvature="0"
       style="fill:#ff9500;fill-opacity:1;fill-rule:evenodd"
       id="path1635"
       d="M 14.050782,1 11.025391,3.4160156 V 4 H 12 L 15.025391,1.5839844 V 1 Z" />
    <path
       d="M 9.050782,1 6.025391,3.4160156 V 4 H 7 L 10.025391,1.5839844 V 1 Z"
       id="path1665"
       style="fill:#ff9500;fill-opacity:1;fill-rule:evenodd"
       inkscape:connector-curvature="0"
       sodipodi:nodetypes="ccccccc" />
    <path
       sodipodi:nodetypes="ccccccc"
       inkscape:connector-curvature="0"
       style="fill:#ff9500;fill-opacity:1;fill-rule:evenodd"
       id="path1667"
       d="M 4.050782,1 1.025391,3.4160156 V 4 H 2 L 5.025391,1.5839844 V 1 Z" />
  </g>
</svg>
