<?xml version="1.0" encoding="UTF-8" standalone="no"?>
<svg
   xmlns:dc="http://purl.org/dc/elements/1.1/"
   xmlns:cc="http://creativecommons.org/ns#"
   xmlns:rdf="http://www.w3.org/1999/02/22-rdf-syntax-ns#"
   xmlns:svg="http://www.w3.org/2000/svg"
   xmlns="http://www.w3.org/2000/svg"
   xmlns:sodipodi="http://sodipodi.sourceforge.net/DTD/sodipodi-0.dtd"
   xmlns:inkscape="http://www.inkscape.org/namespaces/inkscape"
   viewBox="0 0 16 16"
   version="1.1"
   id="svg6"
   sodipodi:docname="sc_fontwork.svg"
   inkscape:version="0.92.3 (unknown)">
  <metadata
     id="metadata12">
    <rdf:RDF>
      <cc:Work
         rdf:about="">
        <dc:format>image/svg+xml</dc:format>
        <dc:type
           rdf:resource="http://purl.org/dc/dcmitype/StillImage" />
        <dc:title></dc:title>
      </cc:Work>
    </rdf:RDF>
  </metadata>
  <defs
     id="defs10">
    <filter
       inkscape:collect="always"
       style="color-interpolation-filters:sRGB"
       id="filter1476"
       x="-0.0936"
       width="1.1872"
       y="-0.0585"
       height="1.117">
      <feGaussianBlur
         inkscape:collect="always"
         stdDeviation="0.39"
         id="feGaussianBlur1478" />
    </filter>
  </defs>
  <sodipodi:namedview
     pagecolor="#ffffff"
     bordercolor="#666666"
     borderopacity="1"
     objecttolerance="10"
     gridtolerance="10"
     guidetolerance="10"
     inkscape:pageopacity="0"
     inkscape:pageshadow="2"
     inkscape:window-width="1366"
     inkscape:window-height="706"
     id="namedview8"
     showgrid="false"
     inkscape:zoom="14.75"
     inkscape:cx="-2.2711864"
     inkscape:cy="8"
     inkscape:window-x="0"
     inkscape:window-y="0"
     inkscape:window-maximized="1"
     inkscape:current-layer="svg6" />
  <path
     d="m4 0c-.554 0-1 .446-1 1v14c0 .554.446 1 1 1h2c.554 0 1-.446 1-1v-5h2c.554 0 1-.446 1-1v-2c0-.554-.446-1-1-1h-2v-2h5c.554 0 1-.446 1-1v-2c0-.554-.446-1-1-1h-5-1z"
     fill="#4d82b8"
     id="path2"
     style="fill:#0040dd;fill-opacity:1;filter:url(#filter1476)" />
  <path
     d="m4 1v2 12h2v-6h3v-2h-3v-4h6v-2z"
     fill="#fff"
     id="path4" />
</svg>
