<svg viewBox="0 0 16 16" xmlns="http://www.w3.org/2000/svg" xmlns:xlink="http://www.w3.org/1999/xlink"><linearGradient id="a" gradientUnits="userSpaceOnUse" x1="8.067797" x2="8.101695" y1="1.974576" y2=".889831"><stop offset="0" stop-color="#0040dd"/><stop offset="1" stop-color="#0a84ff"/></linearGradient>
/&amp;amp;gt;<path d="m6.6250347 12.129121h-4.2764775l-.9604548 2.870879h-1.38810251l3.89790411-11h1.177784l3.9049147 11h-1.3810918zm-3.8698616-1.193681h3.4702565l-1.7386336-5.144918z" fill="#4b4b4f"/><rect fill="url(#a)" height="1" ry=".5" width="16" y="1"/><path d="m14.603939 14.857464q-.114029-.228059-.185298-.812459-.919361.954995-2.195063.954995-1.140293 0-1.874357-.641415-.7269363-.648541-.7269363-1.639169 0-1.204436.9122343-1.867232.919362-.669921 2.579913-.669921h1.28283v-.6057808q0-.6913025-.413358-1.0975318-.413356-.4133561-1.218688-.4133561-.705555 0-1.183053.3563415-.477498.3563415-.477498.8623466h-1.3255899q0-.5772734.4062299-1.1117857.413355-.5416391 1.111784-.8552195.705557-.3135806 1.546523-.3135806 1.332718 0 2.088162.669922.755443.6627953.783951 1.8315956v3.5491608q0 1.061897.270819 1.689059v.114025zm-2.187937-1.004884q.620034 0 1.175928-.320707.555892-.320708.805332-.833839v-1.582157h-1.033391q-2.423123 0-2.423123 1.41824 0 .620034.413356.969249.413358.349214 1.061898.349214z" fill="#4b4b4f"/></svg>