<?xml version="1.0" encoding="UTF-8" standalone="no"?>
<svg
   xmlns:dc="http://purl.org/dc/elements/1.1/"
   xmlns:cc="http://creativecommons.org/ns#"
   xmlns:rdf="http://www.w3.org/1999/02/22-rdf-syntax-ns#"
   xmlns:svg="http://www.w3.org/2000/svg"
   xmlns="http://www.w3.org/2000/svg"
   xmlns:xlink="http://www.w3.org/1999/xlink"
   xmlns:sodipodi="http://sodipodi.sourceforge.net/DTD/sodipodi-0.dtd"
   xmlns:inkscape="http://www.inkscape.org/namespaces/inkscape"
   viewBox="0 0 16 16"
   version="1.1"
   id="svg10"
   sodipodi:docname="sc_freeline.svg"
   inkscape:version="0.92.3 (2405546, 2018-03-11)"><metadata
   id="metadata16">
  <rdf:RDF>
    <cc:Work
       rdf:about="">
      <dc:format>image/svg+xml</dc:format>
      <dc:type
         rdf:resource="http://purl.org/dc/dcmitype/StillImage" />
      <dc:title></dc:title>
    </cc:Work>
  </rdf:RDF>
</metadata>
<defs
   id="defs14">
  <linearGradient
     gradientTransform="translate(-29.694915,1.220339)"
     id="a-6"
     gradientUnits="userSpaceOnUse"
     x1="14"
     x2="13.79661"
     y1="22"
     y2="2.1355929">
    <stop
       offset="0"
       stop-color="#0040dd"
       id="stop2" />
    <stop
       offset="1"
       stop-color="#0a84ff"
       id="stop4" />
  </linearGradient>
  <linearGradient
     inkscape:collect="always"
     xlink:href="#a-6"
     id="linearGradient843"
     x1="10.339479"
     y1="15.487297"
     x2="11.065015"
     y2="0.43644944"
     gradientUnits="userSpaceOnUse" />
  <linearGradient
     gradientTransform="matrix(0.26458333,0,0,0.26458333,101.6,307.58333)"
     id="b"
     gradientUnits="userSpaceOnUse"
     x1="18.5"
     x2="18.5"
     y1="23"
     y2="14.5">
    <stop
       offset="0"
       stop-color="#d70015"
       id="stop956" />
    <stop
       offset="1"
       stop-color="#ff453a"
       id="stop958" />
  </linearGradient>
  <linearGradient
     inkscape:collect="always"
     xlink:href="#b"
     id="linearGradient865"
     x1="1.5340621"
     y1="15.938183"
     x2="2.0412111"
     y2="13.061817"
     gradientUnits="userSpaceOnUse" />
  <linearGradient
     inkscape:collect="always"
     xlink:href="#b"
     id="linearGradient867"
     x1="14.77376"
     y1="4.8423042"
     x2="14.753574"
     y2="2.1576953"
     gradientUnits="userSpaceOnUse" />
</defs>
<sodipodi:namedview
   pagecolor="#ffffff"
   bordercolor="#666666"
   borderopacity="1"
   objecttolerance="10"
   gridtolerance="10"
   guidetolerance="10"
   inkscape:pageopacity="0"
   inkscape:pageshadow="2"
   inkscape:window-width="1366"
   inkscape:window-height="716"
   id="namedview12"
   showgrid="false"
   inkscape:zoom="1.84375"
   inkscape:cx="-82.466603"
   inkscape:cy="-56.571586"
   inkscape:window-x="-8"
   inkscape:window-y="-8"
   inkscape:window-maximized="1"
   inkscape:current-layer="svg10" />




     /&amp;gt;
 <path
   inkscape:connector-curvature="0"
   style="fill:#ffa914;fill-opacity:1"
   d="M 9.0117188,0.54882811 C 5.5163799,0.71674278 2.5948314,3.6405726 5.9316406,7.3164062 6.643504,8.100596 7.1653711,8.8319929 7.5507812,9.5175781 L 14.695312,3.65625 C 13.412982,1.3396305 11.108922,0.44807932 9.0117188,0.54882811 Z M 7.5507812,9.5175781 1.4042969,14.5625 c 3.4337352,2.371781 9.0461751,0.113181 6.1464843,-5.0449219 z"
   id="path2-7" />
<g
   fill="#4d82b8"
   id="g8">
  <path
     d="m9 .04882812c-.7571642.0347447-1.491064.1901898-2.1523438.44921876-1.3225594.51805792-2.4047058 1.47078852-2.7617187 2.76367192-.3570129 1.2928833.0673089 2.8381892 1.4765625 4.390625 1.4725638 1.6221783 2.1287138 2.9982502 2.2734375 4.0605472.1447237 1.062296-.1813872 1.820057-.7753906 2.375-1.1880068 1.109885-3.6160578 1.276103-5.3730469.0625l-.5683594.822265c2.1331384 1.473421 5.0045899 1.359557 6.625-.154297.8102051-.756927 1.2649732-1.897409 1.0820313-3.240234s-.9621642-2.8777553-2.5234375-4.5976562c-1.2601938-1.3882312-1.5032622-2.5430364-1.2519532-3.453125.2513091-.9100887 1.0538869-1.663556 2.1621094-2.0976563 2.2164452-.8682006 5.4638944-.387486 7.0449214 2.46875l.875-.484375c-1.37889-2.49106197-3.861319-3.46946846-6.132812-3.36523438z"
     fill-rule="evenodd"
     id="path2"
     style="stroke:none;fill-opacity:1;fill:url(#linearGradient843)" />
  <path
     d="m0 13h3v3h-3z"
     id="path4"
     style="fill-opacity:1;fill:url(#linearGradient865)" />
  <path
     d="m13 1.9999998h3v3h-3z"
     id="path6"
     style="fill-opacity:1;fill:url(#linearGradient867)" />
</g>
</svg>
