<svg viewBox="0 0 16 16" xmlns="http://www.w3.org/2000/svg" xmlns:xlink="http://www.w3.org/1999/xlink"><linearGradient id="a" gradientUnits="userSpaceOnUse" x1="10" x2="10" y1="16" y2="-2"><stop offset="0" stop-color="#f7f7f7"/><stop offset=".22222222" stop-color="#fff"/><stop offset=".83333331" stop-color="#fff"/><stop offset="1" stop-color="#f7f7f7"/></linearGradient><linearGradient id="b" gradientTransform="matrix(1 0 0 .53846154 -6 5.307692)" gradientUnits="userSpaceOnUse" x1="12" x2="12" y1="18" y2="5"><stop offset="0" stop-color="#cfcfcf"/><stop offset=".15476191" stop-color="#e7e7e7"/><stop offset=".15476191" stop-color="#fff"/><stop offset=".5" stop-color="#f3f3f3"/><stop offset=".85714287" stop-color="#f9f9f9"/><stop offset=".85714287" stop-color="#fcfcfc"/><stop offset="1" stop-color="#fff"/></linearGradient><linearGradient id="c" gradientTransform="matrix(1 0 0 .39999999 -6 6.7)" gradientUnits="userSpaceOnUse" x1="12" x2="12" y1="12" y2="18.250002"><stop offset="0" stop-color="#f8f8f8"/><stop offset="1" stop-color="#fff"/></linearGradient><path d="m3 1v14h7.304688 2.695312v-.75-1.955078-1.769531-1.0761722l-.408203.3261718a1.0001 1.0001 0 0 1 -.013672.0117188c-.076122.0586703-.168592.1113626-.269531.1582031l-1.951172-1.6328125a1.0001 1.0001 0 0 1 -.248047-.3125 1.0001 1.0001 0 0 1 .248047-.3125l1.951172-1.6328125c.10094.0468404.193409.0995328.269531.1582031a1.0001 1.0001 0 0 1 .013672.0117188l.408203.3261718v-1.0761718-1.7695313-1.9550781-.75h-2.695312z" fill="#fff"/><path d="m3 0c-.1070341 0-.2047472.02609895-.2988281.06054688-.0661904.02094427-.1261843.04656713-.1855469.08007812-.0007459.00042212-.001208.00152979-.0019531.00195312-.3021531.17166833-.5136719.48370594-.5136719.85742188v14c0 .554.446 1 1 1h2 1.0292969 2.9433593 2.0273438 2c.180284 0 .340567-.059764.486328-.142578a1.0001 1.0001 0 0 1 -.486328-.857422h-10v-14h6 2.363281 1.636719v1.6367188 1.3632812 1 .4746094l.287109-.2402344a1.0001 1.0001 0 0 1 .642579-.234375h.070312v-.5-.8632812-2.6367188c0-.554-.446-1-1-1h-2-.636719-.3925779-.4707031z" fill="#98989d"/><path d="m14 14.25v-6.8792876l-2.032827 1.6234428c-.118128.091047-.233794.1229138-.347001.0956-.108284-.0318679-.184574-.0773892-.228873-.1365709l-.391299-.4984823 2.929733-2.454702h2.070267v8.25.75h-2z" fill="#d70015"/><g transform="matrix(-1 0 0 1 16 0)"><path d="m9 6v10h3v-4h2v-6z" fill="#fff" fill-opacity=".784314"/><g transform="translate(8)"><path d="m2 8h6v8h-6z" fill="url(#a)"/><path d="m2 7h6v9h-6z" fill="#626262" stroke-width=".774597"/><path d="m3 8h4v7h-4z" fill="url(#b)" stroke-width=".733799"/><path d="m4 9h2v2.5h-2z" fill="#dadada" stroke-width=".912871"/><path d="m4 11.5h2v2.5h-2z" fill="url(#c)" stroke-width=".632456"/></g></g></svg>