<?xml version="1.0" encoding="UTF-8" standalone="no"?>
<svg
   xmlns:dc="http://purl.org/dc/elements/1.1/"
   xmlns:cc="http://creativecommons.org/ns#"
   xmlns:rdf="http://www.w3.org/1999/02/22-rdf-syntax-ns#"
   xmlns:svg="http://www.w3.org/2000/svg"
   xmlns="http://www.w3.org/2000/svg"
   xmlns:xlink="http://www.w3.org/1999/xlink"
   xmlns:sodipodi="http://sodipodi.sourceforge.net/DTD/sodipodi-0.dtd"
   xmlns:inkscape="http://www.inkscape.org/namespaces/inkscape"
   viewBox="0 0 16 16"
   version="1.1"
   id="svg2536"
   sodipodi:docname="sc_grow.svg"
   inkscape:version="0.92.3 (2405546, 2018-03-11)"
   inkscape:export-filename="D:\Rizmut\libreoffice-style-sukapura-master\images_sukapura\cmd\sc_grow.png"
   inkscape:export-xdpi="96"
   inkscape:export-ydpi="96">
  <metadata
     id="metadata2542">
    <rdf:RDF>
      <cc:Work
         rdf:about="">
        <dc:format>image/svg+xml</dc:format>
        <dc:type
           rdf:resource="http://purl.org/dc/dcmitype/StillImage" />
      </cc:Work>
    </rdf:RDF>
  </metadata>
  <defs
     id="defs2540">
    <linearGradient
       inkscape:collect="always"
       xlink:href="#a"
       id="linearGradient19004"
       x1="9.0071182"
       y1="3.9999428"
       x2="5.0071216"
       y2="3.9999428"
       gradientUnits="userSpaceOnUse" />
  </defs>
  <sodipodi:namedview
     pagecolor="#ffffff"
     bordercolor="#666666"
     borderopacity="1"
     objecttolerance="10"
     gridtolerance="10"
     guidetolerance="10"
     inkscape:pageopacity="0"
     inkscape:pageshadow="2"
     inkscape:window-width="1366"
     inkscape:window-height="716"
     id="namedview2538"
     showgrid="true"
     inkscape:zoom="16"
     inkscape:cx="11.915358"
     inkscape:cy="3.4474582"
     inkscape:window-x="-8"
     inkscape:window-y="-8"
     inkscape:window-maximized="1"
     inkscape:current-layer="svg2536">
    <inkscape:grid
       type="xygrid"
       id="grid18996" />
  </sodipodi:namedview>
  <linearGradient
     id="a"
     gradientUnits="userSpaceOnUse"
     x1="-16.792119"
     x2="-20.760884"
     y1=".307967"
     y2=".214215">
    <stop
       offset="0"
       stop-color="#0040dd"
       id="stop2527" />
    <stop
       offset="1"
       stop-color="#0a84ff"
       id="stop2529" />
  </linearGradient>
  <path
     d="m7.0703125 0-6.11132812 16.003906h2.17773442l1.5058593-4.177734h6.7050779l1.527344 4.177734h2.166016l-4.210938-11.003906h-1.3242186a1.4998637 1.4998879 0 0 1 -.703125-.1757812l1.9179686 5.2656252h-5.4414061l2.7148437-7.4843752.1210938.3320312a1.4998637 1.4998879 0 0 1 .3300781-.4980469l1.0175781-1.015625-.5449218-1.4238281z"
     fill="#69696e"
     id="path2532"
     style="fill:#4b4b4f;fill-opacity:1" />
  <path
     transform="matrix(0,1.0000007,-0.99998453,0,16.999881,-5.007125)"
     style="fill:url(#linearGradient19004);fill-opacity:1;stroke:none;stroke-linecap:round;stroke-linejoin:round"
     d="M 8.4921875,1.0019531 A 0.49772906,0.49772906 0 0 0 8.15625,1.1484375 l -3,3 a 0.49772906,0.49772906 0 0 0 0,0.703125 l 3,3 A 0.49772906,0.49772906 0 0 0 9.0058594,7.5 v -6 A 0.49772906,0.49772906 0 0 0 8.4921875,1.0019531 Z"
     id="path2534" />
</svg>
