<?xml version="1.0" encoding="UTF-8" standalone="no"?>
<svg
   xmlns:dc="http://purl.org/dc/elements/1.1/"
   xmlns:cc="http://creativecommons.org/ns#"
   xmlns:rdf="http://www.w3.org/1999/02/22-rdf-syntax-ns#"
   xmlns:svg="http://www.w3.org/2000/svg"
   xmlns="http://www.w3.org/2000/svg"
   xmlns:sodipodi="http://sodipodi.sourceforge.net/DTD/sodipodi-0.dtd"
   xmlns:inkscape="http://www.inkscape.org/namespaces/inkscape"
   viewBox="0 0 16 16"
   version="1.1"
   id="svg4"
   sodipodi:docname="sc_graphicfiltersolarize.svg"
   inkscape:version="0.92.3 (unknown)"
   inkscape:export-filename="/home/rizmut/Dokumen/Rizmut/Github/libreoffice-style-sukapura/images_sukapura/cmd/sc_graphicfiltersolarize.png"
   inkscape:export-xdpi="96"
   inkscape:export-ydpi="96">
  <metadata
     id="metadata10">
    <rdf:RDF>
      <cc:Work
         rdf:about="">
        <dc:format>image/svg+xml</dc:format>
        <dc:type
           rdf:resource="http://purl.org/dc/dcmitype/StillImage" />
        <dc:title></dc:title>
      </cc:Work>
    </rdf:RDF>
  </metadata>
  <defs
     id="defs8" />
  <sodipodi:namedview
     pagecolor="#ffffff"
     bordercolor="#666666"
     borderopacity="1"
     objecttolerance="10"
     gridtolerance="10"
     guidetolerance="10"
     inkscape:pageopacity="0"
     inkscape:pageshadow="2"
     inkscape:window-width="1366"
     inkscape:window-height="706"
     id="namedview6"
     showgrid="true"
     inkscape:zoom="20.85965"
     inkscape:cx="6.7489985"
     inkscape:cy="10.462289"
     inkscape:window-x="0"
     inkscape:window-y="0"
     inkscape:window-maximized="1"
     inkscape:current-layer="svg4">
    <inkscape:grid
       type="xygrid"
       id="grid817" />
  </sodipodi:namedview>
  <path
     style="fill:#ffcc00;fill-opacity:1"
     d="M 7.9570312 0 C 7.4265058 0 7 0.42650583 7 0.95703125 L 7 1.0429688 C 7 1.5734941 7.4265058 2 7.9570312 2 L 8 2 L 8.0429688 2 C 8.5734942 2 9 1.5734941 9 1.0429688 L 9 0.95703125 C 9 0.42650583 8.5734941 0 8.0429688 0 L 7.9570312 0 z M 1.7382812 1 C 1.5495577 1 1.3614066 1.072187 1.2167969 1.2167969 C 0.92757734 1.5060164 0.92757734 1.9724991 1.2167969 2.2617188 L 1.7382812 2.7832031 C 2.0275009 3.0724226 2.4939836 3.0724226 2.7832031 2.7832031 C 3.0724226 2.4939836 3.0724226 2.0275009 2.7832031 1.7382812 L 2.2617188 1.2167969 C 2.1171089 1.0721871 1.9270049 1 1.7382812 1 z M 14.261719 1 C 14.072995 1 13.882891 1.072187 13.738281 1.2167969 L 13.216797 1.7382812 C 12.927577 2.0275009 12.927577 2.4939836 13.216797 2.7832031 C 13.506016 3.0724227 13.972499 3.0724227 14.261719 2.7832031 L 14.783203 2.2617188 C 15.072423 1.9724991 15.072423 1.5060164 14.783203 1.2167969 C 14.638593 1.0721871 14.450442 1 14.261719 1 z M 0.96679688 7 C 0.43157652 7 -2.9605947e-16 7.4315765 0 7.9667969 L 0 8.0332031 C 0 8.5684237 0.43157653 9 0.96679688 9 L 1.0332031 9 C 1.5684235 9 2 8.5684235 2 8.0332031 L 2 8 L 2 7.9667969 C 2 7.4315765 1.5684235 7 1.0332031 7 L 0.96679688 7 z M 15 7 C 14.446 7 14 7.446 14 8 C 14 8.554 14.446 9 15 9 C 15.554 9 16 8.554 16 8 C 16 7.446 15.554 7 15 7 z M 2.2617188 13 C 2.0729952 13 1.8828911 13.07219 1.7382812 13.216797 L 1.2167969 13.738281 C 0.92757733 14.027501 0.92757733 14.493984 1.2167969 14.783203 C 1.5060164 15.072423 1.9724992 15.072423 2.2617188 14.783203 L 2.7832031 14.261719 C 3.0724227 13.972499 3.0724227 13.506016 2.7832031 13.216797 C 2.6385934 13.072187 2.4504423 13 2.2617188 13 z M 13.738281 13 C 13.549558 13 13.361407 13.07219 13.216797 13.216797 C 12.927577 13.506016 12.927577 13.972499 13.216797 14.261719 L 13.738281 14.783203 C 14.027501 15.072423 14.493984 15.072423 14.783203 14.783203 C 15.072423 14.493984 15.072423 14.027501 14.783203 13.738281 L 14.261719 13.216797 C 14.117109 13.072187 13.927005 13 13.738281 13 z M 7.90625 14 C 7.4038941 14 7 14.403894 7 14.90625 L 7 15.09375 C 7 15.596106 7.4038941 16 7.90625 16 L 8.09375 16 C 8.5961059 16 9 15.596106 9 15.09375 L 9 14.90625 C 9 14.403894 8.5961059 14 8.09375 14 L 8 14 L 7.90625 14 z "
     id="path2" />
  <path
     style="fill:#f5c200;fill-opacity:1;stroke:none"
     d="M 8 2 A 6 6 0 0 0 2 8 A 6 6 0 0 0 8 14 A 6 6 0 0 0 14 8 A 6 6 0 0 0 8 2 z M 8 3 A 5 5 0 0 1 13 8 A 5 5 0 0 1 8 13 A 5 5 0 0 1 3 8 A 5 5 0 0 1 8 3 z "
     id="path823" />
  <circle
     style="fill:#ffcc00;fill-opacity:1;stroke:none"
     id="path821"
     cx="8"
     cy="8"
     r="5" />
</svg>
