<?xml version="1.0" encoding="UTF-8" standalone="no"?>
<svg
   xmlns:dc="http://purl.org/dc/elements/1.1/"
   xmlns:cc="http://creativecommons.org/ns#"
   xmlns:rdf="http://www.w3.org/1999/02/22-rdf-syntax-ns#"
   xmlns:svg="http://www.w3.org/2000/svg"
   xmlns="http://www.w3.org/2000/svg"
   xmlns:sodipodi="http://sodipodi.sourceforge.net/DTD/sodipodi-0.dtd"
   xmlns:inkscape="http://www.inkscape.org/namespaces/inkscape"
   viewBox="0 0 16 16"
   version="1.1"
   id="svg1010"
   sodipodi:docname="sc_goalseekdialog.svg"
   inkscape:version="0.92.3 (unknown)"
   inkscape:export-filename="/home/rizmut/Dokumen/Rizmut/Github/libreoffice-style-sukapura/images_sukapura/cmd/sc_goalseekdialog.png"
   inkscape:export-xdpi="96"
   inkscape:export-ydpi="96"><metadata
   id="metadata1016">
  <rdf:RDF>
    <cc:Work
       rdf:about="">
      <dc:format>image/svg+xml</dc:format>
      <dc:type
         rdf:resource="http://purl.org/dc/dcmitype/StillImage" />
      <dc:title></dc:title>
    </cc:Work>
  </rdf:RDF>
</metadata>
<defs
   id="defs1014" />
<sodipodi:namedview
   pagecolor="#ffffff"
   bordercolor="#666666"
   borderopacity="1"
   objecttolerance="10"
   gridtolerance="10"
   guidetolerance="10"
   inkscape:pageopacity="0"
   inkscape:pageshadow="2"
   inkscape:window-width="1366"
   inkscape:window-height="706"
   id="namedview1012"
   showgrid="true"
   inkscape:zoom="14.75"
   inkscape:cx="4.1625014"
   inkscape:cy="2.9235209"
   inkscape:window-x="0"
   inkscape:window-y="0"
   inkscape:window-maximized="1"
   inkscape:current-layer="svg1010">
  <inkscape:grid
     type="xygrid"
     id="grid1564" />
</sodipodi:namedview>
/&amp;amp;gt;<g
   id="g1570">
  <g
     id="g1006"
     fill-rule="evenodd">
    <path
       id="path1002"
       fill="#848489"
       d="m.50195312 1.9980469.00195313.6503906-.00195313.6640625 5.99804688 5.6132812-.0019531 6.3984378 1.5019531.009766 1.4980469-.009766.0019531-6.3984378 6-5.6132812-.001953-.6640625.001953-.6503906h-.002-14.99409375zm6.00000008 13.3261721v.173828h.2011718zm2.9960937 0-.2011719.173828h.2011719z" />
    <path
       id="path1004"
       fill="#69696e"
       d="m.50195312 1.4960938c-.1380893-.0001496-.262744.0562999-.35351562.1464843-.09153834.0909462-.14856453.2162129-.1484375.3554688l.00195313.6503906-.00195313.6640625c-.00003865.1412881.05953385.2760352.1640625.3710938l5.8359375 5.5332031v5.7832031.5.5h4v-.5-.5-5.7832031l5.837891-5.5332031c.104528-.0950585.164101-.2298057.164062-.3710938l-.001953-.6640625.001953-.6503906c.000127-.1392559-.0569-.2645226-.148437-.3554688-.04505-.045047-.09873-.0820689-.158204-.1074219h-.001953c-.059504-.0251324-.124752-.038869-.193359-.0390624h-.001953zm.50195308 1.0039062h13.9941408v.2871094.2734375l-3.253906 2.9746093c.0063-.00173.013161-.000356.019531-.0019531l-2.6015626 2.5234375c-.1040267.0946003-.1635524.2968923-.1640625.4375l.0019531 6.0058594h-2l.0019531-6.0058594c-.0005101-.1406077-.0600357-.2745403-.1640625-.3691406l-2.5996094-2.5917969c.0063701.0016.0131933.0002301.0195313.0019531l-3.2539063-2.9746093v-.2734375z" />
  </g>
  <ellipse
     id="ellipse1008"
     stroke-width="1.002306"
     stroke-linejoin="round"
     stroke-linecap="round"
     stroke="#69696e"
     ry="1.264185"
     rx="7.5"
     fill="#cdcdd0"
     cy="1.765338"
     cx="8" />
</g>
<g
   transform="translate(1,6)"
   id="g10">
  <rect
     style="fill:#98989d"
     height="6"
     rx="1.5"
     width="10"
     x="5"
     y="4"
     id="rect2" />
  <path
     style="fill:#ffffff;stroke-width:1.30930698"
     inkscape:connector-curvature="0"
     d="m 6,5 v 4 h 8 V 5 Z"
     id="path4"
     sodipodi:nodetypes="ccccc" />
  <path
     style="fill:#bababa"
     inkscape:connector-curvature="0"
     d="m 6,-9 h 2 v 0.5 H 6 Z"
     transform="rotate(90)"
     id="path6"
     sodipodi:nodetypes="ccccc" />
  <path
     style="fill:#69696e"
     inkscape:connector-curvature="0"
     d="m 13,6 h -3 l 1.5,2 z"
     id="path8" />
</g>
</svg>
