<?xml version="1.0" encoding="UTF-8" standalone="no"?>
<svg
   xmlns:dc="http://purl.org/dc/elements/1.1/"
   xmlns:cc="http://creativecommons.org/ns#"
   xmlns:rdf="http://www.w3.org/1999/02/22-rdf-syntax-ns#"
   xmlns:svg="http://www.w3.org/2000/svg"
   xmlns="http://www.w3.org/2000/svg"
   xmlns:sodipodi="http://sodipodi.sourceforge.net/DTD/sodipodi-0.dtd"
   xmlns:inkscape="http://www.inkscape.org/namespaces/inkscape"
   viewBox="0 0 16 16"
   version="1.1"
   id="svg6"
   sodipodi:docname="sc_graphicfilterinvert.svg"
   inkscape:version="0.92.3 (unknown)">
  <metadata
     id="metadata12">
    <rdf:RDF>
      <cc:Work
         rdf:about="">
        <dc:format>image/svg+xml</dc:format>
        <dc:type
           rdf:resource="http://purl.org/dc/dcmitype/StillImage" />
        <dc:title></dc:title>
      </cc:Work>
    </rdf:RDF>
  </metadata>
  <defs
     id="defs10" />
  <sodipodi:namedview
     pagecolor="#ffffff"
     bordercolor="#666666"
     borderopacity="1"
     objecttolerance="10"
     gridtolerance="10"
     guidetolerance="10"
     inkscape:pageopacity="0"
     inkscape:pageshadow="2"
     inkscape:window-width="1366"
     inkscape:window-height="706"
     id="namedview8"
     showgrid="false"
     inkscape:zoom="14.75"
     inkscape:cx="-1.4915254"
     inkscape:cy="8"
     inkscape:window-x="0"
     inkscape:window-y="0"
     inkscape:window-maximized="1"
     inkscape:current-layer="svg6" />
  <path
     d="m1 1h14v14h-14z"
     fill="#fff"
     id="path2" />
  <path
     d="m0 0v16h16v-16zm1 1h14v14h-14zm1 1v12l3.15625-3.15625c-.7238576-.723858-1.15625-1.7391805-1.15625-2.84375 0-2.209139 1.790861-4 4-4 1.1045695 0 2.119892.4323924 2.84375 1.15625l3.15625-3.15625zm8.84375 3.15625-5.6875 5.6875c.7238576.723858 1.7391805 1.15625 2.84375 1.15625 2.209139 0 4-1.790861 4-4 0-1.1045695-.432392-2.1198924-1.15625-2.84375z"
     fill="#808080"
     id="path4"
     style="fill:#69696e;fill-opacity:1" />
</svg>
