<svg viewBox="0 0 16 16" xmlns="http://www.w3.org/2000/svg" xmlns:xlink="http://www.w3.org/1999/xlink"><linearGradient id="a" gradientUnits="userSpaceOnUse" x1="9.007118" x2="5.007122" y1="3.999943" y2="3.999943"><stop offset="0" stop-color="#0040dd"/><stop offset="1" stop-color="#0a84ff"/></linearGradient><path d="m7.0703125 0-6.11132812 16.003906h2.17773442l1.5058593-4.177734h6.7050779l1.527344 4.177734h2.166016l-4.210938-11.003906h-1.3242186a1.4998637 1.4998879 0 0 1 -.703125-.1757812l1.9179686 5.2656252h-5.4414061l2.7148437-7.4843752.1210938.3320312a1.4998637 1.4998879 0 0 1 .3300781-.4980469l1.0175781-1.015625-.5449218-1.4238281z" fill="#4b4b4f"/><path d="m8.4921875 1.0019531a.49772906.49772906 0 0 0 -.3359375.1464844l-3 3a.49772906.49772906 0 0 0 0 .703125l3 3a.49772906.49772906 0 0 0 .8496094-.3515625v-6a.49772906.49772906 0 0 0 -.5136719-.4980469z" fill="url(#a)" transform="matrix(0 1.0000007 -.99998453 0 16.999881 -5.007125)"/></svg>