<svg viewBox="0 0 16 16" xmlns="http://www.w3.org/2000/svg"><path d="m6.8984375 0-5.8984375 16h1.6875c.1834758 0 .3391615-.05267.4667969-.158203.1356125-.10553.2275273-.227233.2753906-.365235l1.328125-3.835937h6.4843755l1.339843 3.847656c.06382.146119.151991.267822.263672.365235.119658.097412.275344.146484.466797.146484h1.6875l-2.974609-8.0820312-1.015625-2.7636719-.056641-.1542969h-1.1933594c-.1084127.0226596-.2178371.0334097-.3242187.0292969-.0759056-.0029346-.1464099-.0152826-.2167969-.0292969h-.2753906l1.7480466 5.058594h-5.3828122l2.2246093-6.4296878c.0717949-.1948248.1467904-.421874.2265625-.6816406s.1604623-.5450427.2402344-.8535156c.0592823.2480085.1227788.4730245.1875.6933594.0822048-.1440814.1787658-.2797751.2988281-.3867188l1.1035157-1.1035156-.4765626-1.296875z" fill="#69696e"/><path d="m8.507121 1.494946-2.9999998 2.9949499 2.9999998 3.0050501z" fill="#0a84ff" stroke="#0a84ff" stroke-linecap="round" stroke-linejoin="round" transform="matrix(0 1.0000007 -.99998453 0 16.999881 -5.007125)"/></svg>