<?xml version="1.0" encoding="UTF-8" standalone="no"?>
<svg
   xmlns:dc="http://purl.org/dc/elements/1.1/"
   xmlns:cc="http://creativecommons.org/ns#"
   xmlns:rdf="http://www.w3.org/1999/02/22-rdf-syntax-ns#"
   xmlns:svg="http://www.w3.org/2000/svg"
   xmlns="http://www.w3.org/2000/svg"
   xmlns:xlink="http://www.w3.org/1999/xlink"
   xmlns:sodipodi="http://sodipodi.sourceforge.net/DTD/sodipodi-0.dtd"
   xmlns:inkscape="http://www.inkscape.org/namespaces/inkscape"
   viewBox="0 0 16 16"
   version="1.1"
   id="svg8"
   sodipodi:docname="sc_heading2parastyle.svg"
   inkscape:version="0.92.3 (unknown)"
   inkscape:export-filename="/home/rizmut/Dokumen/Rizmut/Github/libreoffice-style-sukapura/images_sukapura/cmd/sc_heading2parastyle.png"
   inkscape:export-xdpi="96"
   inkscape:export-ydpi="96">
  <metadata
     id="metadata14">
    <rdf:RDF>
      <cc:Work
         rdf:about="">
        <dc:format>image/svg+xml</dc:format>
        <dc:type
           rdf:resource="http://purl.org/dc/dcmitype/StillImage" />
        <dc:title></dc:title>
      </cc:Work>
    </rdf:RDF>
  </metadata>
  <defs
     id="defs12">
    <linearGradient
       gradientTransform="translate(75,-7)"
       id="a-367"
       gradientUnits="userSpaceOnUse"
       x1="14"
       x2="13.79661"
       y1="22"
       y2="2.1355929">
      <stop
         offset="0"
         stop-color="#0040dd"
         id="stop2206" />
      <stop
         offset="1"
         stop-color="#0a84ff"
         id="stop2208" />
    </linearGradient>
    <linearGradient
       inkscape:collect="always"
       xlink:href="#a-367"
       id="linearGradient874"
       x1="16"
       y1="16"
       x2="16"
       y2="8"
       gradientUnits="userSpaceOnUse" />
  </defs>
  <sodipodi:namedview
     pagecolor="#ffffff"
     bordercolor="#666666"
     borderopacity="1"
     objecttolerance="10"
     gridtolerance="10"
     guidetolerance="10"
     inkscape:pageopacity="0"
     inkscape:pageshadow="2"
     inkscape:window-width="1366"
     inkscape:window-height="706"
     id="namedview10"
     showgrid="true"
     inkscape:zoom="20.85965"
     inkscape:cx="4.5450535"
     inkscape:cy="9.9288674"
     inkscape:window-x="0"
     inkscape:window-y="0"
     inkscape:window-maximized="1"
     inkscape:current-layer="svg8">
    <inkscape:grid
       type="xygrid"
       id="grid876" />
  </sodipodi:namedview>
  <path
     d="m13.214444 7q .610169 0 1.094326.1790715.490788.1790715.829034.4907885.338246.3050847.517318.7229182.185704.4112012.185704.8820929 0 .4178335-.09285.7361829-.08622.318349-.258659.557111-.172439.238762-.424466.404569-.252026.165807-.570376.271923 1.505525.510686 1.505525 2.03611 0 .66986-.245394 1.180545-.238762.504053-.649963.848931-.404569.344879-.948416.517318-.537214.172439-1.134119.172439-.630067 0-1.114223-.14591-.477524-.14591-.842299-.43773-.358143-.298453-.623434-.736183-.258659-.43773-.4443627-1.014738l.7030217-.298453q.278555-.112749.517317-.05306.245395.05306.344879.258659.119381.225497.252026.424466.132646.192336.298453.344878.172439.14591.391304.23213.218865.08622.504053.08622.351511 0 .61017-.112748.265291-.119381.43773-.305085.172439-.192336.258659-.431098.08622-.238762.08622-.477524 0-.305085-.05969-.557112-.05306-.252026-.252027-.431098-.192336-.179071-.570375-.278555-.37804-.09948-1.028003-.09948v-1.13412q.543846-.0066.888725-.09948.35151-.09285.550479-.258659.198968-.172439.271923-.404569.07296-.2321293.07296-.5173173 0-.6035372-.305085-.908622-.298458-.3050917-.842305-.3050917-.484156 0-.809138.2719234-.324981.2719233-.450994.66986-.106117.3050847-.285188.3979366-.17244.092852-.497421.039794l-.842299-.1459104q.092851-.6433309.35151-1.1208549.258659-.4841562.649963-.8025055.391305-.3249816.888726-.4841563.504053-.1658069 1.081061-.1658069z"
     fill="none"
     id="path2" />
  <path
     d="m0 0v16h2v-7h6v7h2v-7-2-7h-2v7h-6v-7z"
     fill="#696969"
     id="path4"
     style="fill:#69696e;fill-opacity:1" />
  <path
     inkscape:connector-curvature="0"
     style="fill:url(#linearGradient874);fill-opacity:1"
     d="m 13.13363,8.0000055 c 0.4098,0 0.781737,0.055597 1.115812,0.1667904 0.338531,0.107223 0.625836,0.2601145 0.861917,0.4586745 0.240534,0.1985606 0.425389,0.4388188 0.554566,0.7207746 0.133629,0.2779846 0.200444,0.5857532 0.200444,0.923306 0,0.289898 -0.04677,0.55994 -0.140311,0.810126 -0.09354,0.246215 -0.218263,0.482502 -0.374164,0.708861 -0.155902,0.222387 -0.33853,0.440804 -0.547885,0.655249 -0.209354,0.210474 -0.429844,0.422934 -0.661471,0.63738 L 12,15 15.432071,14.9962 c 0.169265,0 0.305122,0.04368 0.407573,0.13105 C 15.946548,15.214599 16,15.329764 16,15.472728 V 16 h -6 v -0.482501 c 0,-0.09134 0.02005,-0.188633 0.06014,-0.291885 0.04455,-0.107222 0.120271,-0.206502 0.227172,-0.29784 L 12.86638,12.56292 c 0.218263,-0.202532 0.4098,-0.395135 0.57461,-0.57781 0.169266,-0.182677 0.309578,-0.363367 0.420936,-0.542071 0.115813,-0.182675 0.202673,-0.365351 0.260579,-0.548027 0.05791,-0.186647 0.08686,-0.381236 0.08686,-0.583767 0,-0.3653514 -0.10245,-0.6413503 -0.30735,-0.8279968 -0.2049,-0.1866469 -0.494432,-0.2799704 -0.868597,-0.2799704 -0.160356,0 -0.307349,0.021843 -0.44098,0.065528 -0.13363,0.043685 -0.253897,0.1032533 -0.360802,0.178704 -0.106903,0.075453 -0.198217,0.1648051 -0.273942,0.2680569 -0.07572,0.1032512 -0.133626,0.2144449 -0.173718,0.3335813 -0.07127,0.182676 -0.169268,0.301812 -0.293988,0.357409 -0.120267,0.05559 -0.287305,0.06751 -0.501112,0.03574 L 10.13364,10.311247 C 10.20045,9.9260366 10.320719,9.590468 10.494438,9.304541 10.668157,9.0146433 10.884193,8.7743854 11.142545,8.5837672 11.405352,8.3891779 11.70602,8.244229 12.04455,8.1489207 c 0.33853,-0.09928 0.701559,-0.1489208 1.08908,-0.1489152 z"
     id="path4-3" />
</svg>
