<?xml version="1.0" encoding="UTF-8" standalone="no"?>
<svg
   xmlns:dc="http://purl.org/dc/elements/1.1/"
   xmlns:cc="http://creativecommons.org/ns#"
   xmlns:rdf="http://www.w3.org/1999/02/22-rdf-syntax-ns#"
   xmlns:svg="http://www.w3.org/2000/svg"
   xmlns="http://www.w3.org/2000/svg"
   xmlns:sodipodi="http://sodipodi.sourceforge.net/DTD/sodipodi-0.dtd"
   xmlns:inkscape="http://www.inkscape.org/namespaces/inkscape"
   viewBox="0 0 16 16"
   version="1.1"
   id="svg13"
   sodipodi:docname="sc_heading4parastyle.svg"
   inkscape:version="0.92.3 (2405546, 2018-03-11)">
  <metadata
     id="metadata19">
    <rdf:RDF>
      <cc:Work
         rdf:about="">
        <dc:format>image/svg+xml</dc:format>
        <dc:type
           rdf:resource="http://purl.org/dc/dcmitype/StillImage" />
      </cc:Work>
    </rdf:RDF>
  </metadata>
  <defs
     id="defs17" />
  <sodipodi:namedview
     pagecolor="#ffffff"
     bordercolor="#666666"
     borderopacity="1"
     objecttolerance="10"
     gridtolerance="10"
     guidetolerance="10"
     inkscape:pageopacity="0"
     inkscape:pageshadow="2"
     inkscape:window-width="1366"
     inkscape:window-height="716"
     id="namedview15"
     showgrid="false"
     inkscape:zoom="14.75"
     inkscape:cx="-4.5084746"
     inkscape:cy="8"
     inkscape:window-x="-8"
     inkscape:window-y="-8"
     inkscape:window-maximized="1"
     inkscape:current-layer="svg13" />
  <linearGradient
     id="a"
     gradientUnits="userSpaceOnUse"
     x1="90"
     x2="90"
     y1="9"
     y2="0">
    <stop
       offset="0"
       stop-color="#0040dd"
       id="stop2" />
    <stop
       offset="1"
       stop-color="#0a84ff"
       id="stop4" />
  </linearGradient>
  <path
     d="m13.214444 7q.610169 0 1.094326.1790715.490788.1790715.829034.4907885.338246.3050847.517318.7229182.185704.4112012.185704.8820929 0 .4178335-.09285.7361829-.08622.318349-.258659.557111-.172439.238762-.424466.404569-.252026.165807-.570376.271923 1.505525.510686 1.505525 2.03611 0 .66986-.245394 1.180545-.238762.504053-.649963.848931-.404569.344879-.948416.517318-.537214.172439-1.134119.172439-.630067 0-1.114223-.14591-.477524-.14591-.842299-.43773-.358143-.298453-.623434-.736183-.258659-.43773-.4443627-1.014738l.7030217-.298453q.278555-.112749.517317-.05306.245395.05306.344879.258659.119381.225497.252026.424466.132646.192336.298453.344878.172439.14591.391304.23213.218865.08622.504053.08622.351511 0 .61017-.112748.265291-.119381.43773-.305085.172439-.192336.258659-.431098.08622-.238762.08622-.477524 0-.305085-.05969-.557112-.05306-.252026-.252027-.431098-.192336-.179071-.570375-.278555-.37804-.09948-1.028003-.09948v-1.13412q.543846-.0066.888725-.09948.35151-.09285.550479-.258659.198968-.172439.271923-.404569.07296-.2321293.07296-.5173173 0-.6035372-.305085-.908622-.298458-.3050917-.842305-.3050917-.484156 0-.809138.2719234-.324981.2719233-.450994.66986-.106117.3050847-.285188.3979366-.17244.092852-.497421.039794l-.842299-.1459104q.092851-.6433309.35151-1.1208549.258659-.4841562.649963-.8025055.391305-.3249816.888726-.4841563.504053-.1658069 1.081061-.1658069z"
     fill="none"
     id="path7" />
  <path
     d="m0 0v16h2v-7h6v1h2v-1-2-7h-2v7h-6v-7z"
     fill="#69696e"
     id="path9"
     style="fill:#4b4b4f;fill-opacity:1" />
  <path
     d="m14.920362 12.580136h1.079638v.934537q0 .13544-.09174.230248-.09174.09481-.254032.09481h-.733872v2.16027h-1.481854v-2.16027h-3.8034274q-.1622985 0-.2963711-.09481-.1270161-.10158-.1622983-.257336l-.1764113-.819413 4.2973791-5.6681719h1.622983v5.5801359zm-1.481854-2.7832965q0-.1963879.007-.4266363.01412-.2370203.0494-.4875847l-2.702621 3.6975175h2.646169v-2.7832965z"
     fill="url(#a)"
     id="path11" />
</svg>
