<?xml version="1.0" encoding="UTF-8" standalone="no"?>
<svg
   xmlns:dc="http://purl.org/dc/elements/1.1/"
   xmlns:cc="http://creativecommons.org/ns#"
   xmlns:rdf="http://www.w3.org/1999/02/22-rdf-syntax-ns#"
   xmlns:svg="http://www.w3.org/2000/svg"
   xmlns="http://www.w3.org/2000/svg"
   xmlns:xlink="http://www.w3.org/1999/xlink"
   xmlns:sodipodi="http://sodipodi.sourceforge.net/DTD/sodipodi-0.dtd"
   xmlns:inkscape="http://www.inkscape.org/namespaces/inkscape"
   viewBox="0 0 16 16"
   version="1.1"
   id="svg6"
   sodipodi:docname="sc_helpindex.svg"
   inkscape:version="0.92.3 (unknown)"
   inkscape:export-filename="/home/rizmut/Dokumen/Rizmut/Github/libreoffice-style-sukapura/images_sukapura/cmd/sc_helpindex.png"
   inkscape:export-xdpi="96"
   inkscape:export-ydpi="96"><metadata
   id="metadata12">
  <rdf:RDF>
    <cc:Work
       rdf:about="">
      <dc:format>image/svg+xml</dc:format>
      <dc:type
         rdf:resource="http://purl.org/dc/dcmitype/StillImage" />
      <dc:title></dc:title>
    </cc:Work>
  </rdf:RDF>
</metadata>
<defs
   id="defs10">
  <linearGradient
     inkscape:collect="always"
     id="linearGradient826">
    <stop
       style="stop-color:#8944ab;stop-opacity:1;"
       offset="0"
       id="stop822" />
    <stop
       style="stop-color:#bf5af2;stop-opacity:1"
       offset="1"
       id="stop824" />
  </linearGradient>
  <linearGradient
     inkscape:collect="always"
     xlink:href="#linearGradient826"
     id="linearGradient842"
     x1="8"
     y1="16"
     x2="8"
     y2="0"
     gradientUnits="userSpaceOnUse" />
</defs>
<sodipodi:namedview
   pagecolor="#ffffff"
   bordercolor="#666666"
   borderopacity="1"
   objecttolerance="10"
   gridtolerance="10"
   guidetolerance="10"
   inkscape:pageopacity="0"
   inkscape:pageshadow="2"
   inkscape:window-width="1366"
   inkscape:window-height="706"
   id="namedview8"
   showgrid="true"
   inkscape:zoom="7.375"
   inkscape:cx="-11.640776"
   inkscape:cy="-2.1097366"
   inkscape:window-x="0"
   inkscape:window-y="0"
   inkscape:window-maximized="1"
   inkscape:current-layer="svg6">
  <inkscape:grid
     type="xygrid"
     id="grid844" />
</sodipodi:namedview>



     /&amp;gt;
 <path
   d="m8 0a8 8 0 0 0 -8 8 8 8 0 0 0 8 8 8 8 0 0 0 8-8 8 8 0 0 0 -8-8z"
   fill="#4d82b8"
   id="path2"
   style="fill-opacity:1;fill:url(#linearGradient842)" />
<path
   d="m8 2c-2.2100007 0-4 1.9373333-4 4h2c0-1.0266666.9000001-2.1328125 2-2.1328125s2 .8385678 2 1.8652344c0 .5133334-.2198441.9804062-.5898438 1.3164062l-1.2402343 1.1757813c-.72.6813334-1.1699219 1.6159111-1.1699219 2.6425786v.132812h2c0-1.4.4499221-1.6272604 1.169922-2.3085938l.90039-.8574218c.570001-.532.929688-1.2802291.929688-2.1015625 0-2.0626667-1.79-3.7324219-4-3.7324219zm-1 10v2h2v-2z"
   fill="#fff"
   id="path4" />
</svg>
