<?xml version="1.0" encoding="UTF-8" standalone="no"?>
<svg
   xmlns:dc="http://purl.org/dc/elements/1.1/"
   xmlns:cc="http://creativecommons.org/ns#"
   xmlns:rdf="http://www.w3.org/1999/02/22-rdf-syntax-ns#"
   xmlns:svg="http://www.w3.org/2000/svg"
   xmlns="http://www.w3.org/2000/svg"
   xmlns:xlink="http://www.w3.org/1999/xlink"
   xmlns:sodipodi="http://sodipodi.sourceforge.net/DTD/sodipodi-0.dtd"
   xmlns:inkscape="http://www.inkscape.org/namespaces/inkscape"
   viewBox="0 0 16 16"
   version="1.1"
   id="svg8"
   sodipodi:docname="sc_heading6parastyle.svg"
   inkscape:version="0.92.3 (unknown)"
   inkscape:export-filename="/home/rizmut/Dokumen/Rizmut/Github/libreoffice-style-sukapura/images_sukapura/cmd/sc_heading6parastyle.png"
   inkscape:export-xdpi="96"
   inkscape:export-ydpi="96">
  <metadata
     id="metadata14">
    <rdf:RDF>
      <cc:Work
         rdf:about="">
        <dc:format>image/svg+xml</dc:format>
        <dc:type
           rdf:resource="http://purl.org/dc/dcmitype/StillImage" />
        <dc:title></dc:title>
      </cc:Work>
    </rdf:RDF>
  </metadata>
  <defs
     id="defs12">
    <linearGradient
       gradientTransform="translate(75,-7)"
       id="a-367"
       gradientUnits="userSpaceOnUse"
       x1="14"
       x2="13.79661"
       y1="22"
       y2="2.1355929">
      <stop
         offset="0"
         stop-color="#0040dd"
         id="stop2206" />
      <stop
         offset="1"
         stop-color="#0a84ff"
         id="stop2208" />
    </linearGradient>
    <linearGradient
       inkscape:collect="always"
       xlink:href="#a-367"
       id="linearGradient1552"
       x1="16"
       y1="16"
       x2="16"
       y2="7"
       gradientUnits="userSpaceOnUse" />
  </defs>
  <sodipodi:namedview
     pagecolor="#ffffff"
     bordercolor="#666666"
     borderopacity="1"
     objecttolerance="10"
     gridtolerance="10"
     guidetolerance="10"
     inkscape:pageopacity="0"
     inkscape:pageshadow="2"
     inkscape:window-width="1366"
     inkscape:window-height="706"
     id="namedview10"
     showgrid="true"
     inkscape:zoom="14.75"
     inkscape:cx="-0.55171335"
     inkscape:cy="7.3971287"
     inkscape:window-x="0"
     inkscape:window-y="0"
     inkscape:window-maximized="1"
     inkscape:current-layer="svg8">
    <inkscape:grid
       type="xygrid"
       id="grid821" />
  </sodipodi:namedview>
  <path
     d="m13.214444 7q .610169 0 1.094326.1790715.490788.1790715.829034.4907885.338246.3050847.517318.7229182.185704.4112012.185704.8820929 0 .4178335-.09285.7361829-.08622.318349-.258659.557111-.172439.238762-.424466.404569-.252026.165807-.570376.271923 1.505525.510686 1.505525 2.03611 0 .66986-.245394 1.180545-.238762.504053-.649963.848931-.404569.344879-.948416.517318-.537214.172439-1.134119.172439-.630067 0-1.114223-.14591-.477524-.14591-.842299-.43773-.358143-.298453-.623434-.736183-.258659-.43773-.4443627-1.014738l.7030217-.298453q.278555-.112749.517317-.05306.245395.05306.344879.258659.119381.225497.252026.424466.132646.192336.298453.344878.172439.14591.391304.23213.218865.08622.504053.08622.351511 0 .61017-.112748.265291-.119381.43773-.305085.172439-.192336.258659-.431098.08622-.238762.08622-.477524 0-.305085-.05969-.557112-.05306-.252026-.252027-.431098-.192336-.179071-.570375-.278555-.37804-.09948-1.028003-.09948v-1.13412q.543846-.0066.888725-.09948.35151-.09285.550479-.258659.198968-.172439.271923-.404569.07296-.2321293.07296-.5173173 0-.6035372-.305085-.908622-.298458-.3050917-.842305-.3050917-.484156 0-.809138.2719234-.324981.2719233-.450994.66986-.106117.3050847-.285188.3979366-.17244.092852-.497421.039794l-.842299-.1459104q.092851-.6433309.35151-1.1208549.258659-.4841562.649963-.8025055.391305-.3249816.888726-.4841563.504053-.1658069 1.081061-.1658069z"
     fill="none"
     id="path2" />
  <path
     d="m0 0v16h2v-7h6v1h2v-1-2-7h-2v7h-6v-7z"
     fill="#696969"
     id="path4"
     style="fill:#69696e;fill-opacity:1" />
  <path
     inkscape:connector-curvature="0"
     style="fill:url(#linearGradient1552);fill-opacity:1"
     d="m 12.520519,10.522293 q 0.220302,-0.09554 0.466523,-0.146497 0.24622,-0.05733 0.531316,-0.05733 0.460044,0 0.907128,0.165605 0.447084,0.165605 0.796976,0.496815 0.349893,0.331211 0.563715,0.834395 Q 16,12.318469 16,12.987259 q 0,0.624203 -0.220302,1.171974 -0.220303,0.547771 -0.62203,0.955414 -0.395249,0.407643 -0.952484,0.649681 -0.557236,0.235669 -1.237581,0.235669 -0.693304,0 -1.244061,-0.229298 -0.544276,-0.2293 -0.933046,-0.643313 Q 10.408208,14.713373 10.200864,14.133755 10,13.554138 10,12.8535 q 0,-0.636942 0.239741,-1.292993 0.24622,-0.662421 0.732182,-1.369427 L 12.915767,7.3757938 Q 13.038877,7.2165581 13.272138,7.1082779 13.5054,6.9999977 13.796976,6.9999977 h 1.464363 l -2.4946,3.2038223 -0.24622,0.318471 z m -0.939525,2.579617 q 0,0.356688 0.08424,0.649682 0.08424,0.292993 0.2527,0.503185 0.174945,0.203822 0.427646,0.31847 0.252699,0.11465 0.589633,0.11465 0.304535,0 0.563714,-0.121019 0.25918,-0.121019 0.447085,-0.33121 0.194383,-0.21019 0.298056,-0.496815 0.110151,-0.292993 0.110151,-0.630573 0,-0.369427 -0.103672,-0.66242 -0.103671,-0.292995 -0.291577,-0.496816 -0.181425,-0.203822 -0.447084,-0.312102 -0.25918,-0.10828 -0.576673,-0.10828 -0.298057,0 -0.550757,0.121019 -0.24622,0.11465 -0.427645,0.32484 -0.174946,0.203822 -0.278619,0.496816 -0.09719,0.286624 -0.09719,0.630573 z"
     id="path2-6" />
</svg>
