<?xml version="1.0" encoding="UTF-8" standalone="no"?>
<svg
   xmlns:dc="http://purl.org/dc/elements/1.1/"
   xmlns:cc="http://creativecommons.org/ns#"
   xmlns:rdf="http://www.w3.org/1999/02/22-rdf-syntax-ns#"
   xmlns:svg="http://www.w3.org/2000/svg"
   xmlns="http://www.w3.org/2000/svg"
   xmlns:sodipodi="http://sodipodi.sourceforge.net/DTD/sodipodi-0.dtd"
   xmlns:inkscape="http://www.inkscape.org/namespaces/inkscape"
   viewBox="0 0 16 16"
   version="1.1"
   id="svg16"
   sodipodi:docname="sc_insertreferencefield.svg"
   inkscape:version="0.92.3 (2405546, 2018-03-11)">
  <metadata
     id="metadata22">
    <rdf:RDF>
      <cc:Work
         rdf:about="">
        <dc:format>image/svg+xml</dc:format>
        <dc:type
           rdf:resource="http://purl.org/dc/dcmitype/StillImage" />
        <dc:title></dc:title>
      </cc:Work>
    </rdf:RDF>
  </metadata>
  <defs
     id="defs20" />
  <sodipodi:namedview
     pagecolor="#ffffff"
     bordercolor="#666666"
     borderopacity="1"
     objecttolerance="10"
     gridtolerance="10"
     guidetolerance="10"
     inkscape:pageopacity="0"
     inkscape:pageshadow="2"
     inkscape:window-width="1366"
     inkscape:window-height="685"
     id="namedview18"
     showgrid="false"
     inkscape:zoom="14.75"
     inkscape:cx="-0.71186441"
     inkscape:cy="7.4576271"
     inkscape:window-x="0"
     inkscape:window-y="0"
     inkscape:window-maximized="1"
     inkscape:current-layer="svg16" />
  <path
     d="m6 3c-.554 0-1 .446-1 1v11c0 .554.446 1 1 1h8c .554 0 1-.446 1-1v-3.873047l-1 1v2.873047h-8v-11h2.5 2.5 3v3 1.2207031c.202228-.0836705.376343-.2468155.582031-.2363281.150188.0076576.287666.0416265.417969.0878906v-4.0722656c0-.554-.446-1-1-1z"
     fill="#808080"
     id="path2"
     style="fill:#98989d;fill-opacity:1" />
  <path
     d="m6 4v11h8v-2.873047l-.433594.433594c-.577389.577149-1.543704.577149-2.121094 0l-1.9882808-1.988281c-.4528515-.438274-.5560846-1.1254089-.3476562-1.6406254.2084284-.5152164.7604202-.937371 1.390625-.9375.188412 0 .327698.1455884.5.2128906v-1.2070312h-2.5c-.8137028 0-1.5-.6862972-1.5-1.5s.6862972-1.5 1.5-1.5zm5 0c1.645009 0 3 1.3549901 3 3v-3z"
     fill="#fff"
     id="path4" />
  <path
     d="m2 1v10h7.8847656l-.4277344-.427734c-.4528515-.438274-.5560846-1.1254089-.3476562-1.6406254.1502269-.3713475.4827944-.688361.890625-.8398437v-1.0917969h-1.5c-.8137028 0-1.5-.6862972-1.5-1.5s.6862972-1.5 1.5-1.5h1.5v-3z"
     fill="#fff"
     id="path6" />
  <path
     d="m2 0c-.554 0-1 .446-1 1v10c0 .554.446 1 1 1h8c .246984 0 .464569-.09875.638672-.246094l-.7539064-.753906h-7.8847656v-10h8v3h1v-3c0-.554-.446-1-1-1z"
     fill="#808080"
     id="path8"
     style="fill:#98989d;fill-opacity:1" />
  <rect
     fill="#d65532"
     height="1"
     ry=".482023"
     width="5"
     x="8"
     y="13"
     id="rect10"
     style="fill:#d70015;fill-opacity:1" />
  <rect
     fill="#d65532"
     height="1"
     ry=".410114"
     width="4"
     x="3"
     y="5.000096"
     id="rect12"
     style="fill:#d70015;fill-opacity:1" />
  <path
     d="m8.5 5.000096c-.277 0-.5.223-.5.5s.223.5.5.5h2.5c.552285 0 1 .447715 1 1v3.287109l-1.140625-1.140625c-.094207-.097369-.223892-.152343-.359375-.152343-.449402.000092-.6705866.54684-.347656.859375l2 2c .195265.195184.511766.195184.707031 0l2-2c .490807-.471254-.235776-1.197838-.707031-.707032l-1.152344 1.152344v-3.298828c0-1.1045695-.895431-2-2-2z"
     fill="#808080"
     fill-rule="evenodd"
     id="path14"
     style="fill:#98989d;fill-opacity:1" />
</svg>
