<?xml version="1.0" encoding="UTF-8" standalone="no"?>
<svg
   xmlns:dc="http://purl.org/dc/elements/1.1/"
   xmlns:cc="http://creativecommons.org/ns#"
   xmlns:rdf="http://www.w3.org/1999/02/22-rdf-syntax-ns#"
   xmlns:svg="http://www.w3.org/2000/svg"
   xmlns="http://www.w3.org/2000/svg"
   xmlns:sodipodi="http://sodipodi.sourceforge.net/DTD/sodipodi-0.dtd"
   xmlns:inkscape="http://www.inkscape.org/namespaces/inkscape"
   viewBox="0 0 16 16"
   version="1.1"
   id="svg22"
   sodipodi:docname="sc_insertfieldctrl.svg"
   inkscape:version="0.92.3 (2405546, 2018-03-11)"
   inkscape:export-filename="/home/rizmut/Documents/Rizmut/Github/libreoffice-style-sukapura/images_sukapura/cmd/sc_insertfieldctrl.png"
   inkscape:export-xdpi="96"
   inkscape:export-ydpi="96">
  <metadata
     id="metadata28">
    <rdf:RDF>
      <cc:Work
         rdf:about="">
        <dc:format>image/svg+xml</dc:format>
        <dc:type
           rdf:resource="http://purl.org/dc/dcmitype/StillImage" />
        <dc:title></dc:title>
      </cc:Work>
    </rdf:RDF>
  </metadata>
  <defs
     id="defs26" />
  <sodipodi:namedview
     pagecolor="#ffffff"
     bordercolor="#666666"
     borderopacity="1"
     objecttolerance="10"
     gridtolerance="10"
     guidetolerance="10"
     inkscape:pageopacity="0"
     inkscape:pageshadow="2"
     inkscape:window-width="1366"
     inkscape:window-height="685"
     id="namedview24"
     showgrid="false"
     inkscape:zoom="29.5"
     inkscape:cx="10.133536"
     inkscape:cy="5.4070314"
     inkscape:window-x="0"
     inkscape:window-y="0"
     inkscape:window-maximized="1"
     inkscape:current-layer="svg22" />
  <linearGradient
     id="a"
     gradientUnits="userSpaceOnUse"
     x1="10"
     x2="11.5000006"
     y1="4"
     y2="2.4999994">
    <stop
       offset="0"
       stop-color="#fff"
       id="stop2" />
    <stop
       offset=".77967989"
       stop-color="#f1f1f1"
       id="stop4" />
    <stop
       offset="1"
       stop-color="#d5d5d5"
       id="stop6" />
  </linearGradient>
  <radialGradient
     id="b"
     cx="10.994179"
     cy="4.42844"
     gradientTransform="matrix(1.4 .00000004 -.00000001 1.2 -4.39185 -2.314129)"
     gradientUnits="userSpaceOnUse"
     r="5">
    <stop
       offset="0"
       stop-color="#d7d7d7"
       id="stop9" />
    <stop
       offset=".49894297"
       stop-color="#f7f7f7"
       id="stop11" />
    <stop
       offset="1"
       stop-color="#fff"
       id="stop13" />
  </radialGradient>
  <g
     id="g838">
    <path
       id="path16"
       fill="url(#b)"
       d="m3 1v14h10v-11.2949219l-2.695312-2.7050781z" />
    <path
       id="path18"
       fill="#98989d"
       d="m3 0c-.554 0-1 .446-1 1v14c0 .554.446 1 1 1h10c.554 0 1-.446 1-1v-10.5-.8632812l-3.636719-3.6367188h-.863281zm0 1h6v3.5c0 .277.223.5.5.5h3.5v10h-10zm7 0 3 3h-3z" />
    <path
       id="path20"
       fill="url(#a)"
       d="m10 1 3 3h-3z" />
  </g>
  <path
     style="fill:#ffffff;fill-opacity:0.78431374"
     d="M 14 5.7871094 C 13.710808 5.5252288 13.372978 5.3220035 13 5.1875 C 12.685106 5.073943 12.351852 5 12 5 L 11 5 A 1.0001 1.0001 0 0 0 10.929688 5.0019531 A 1.0001 1.0001 0 0 0 10.830078 5.0136719 A 1.0001 1.0001 0 0 0 10.732422 5.0371094 A 1.0001 1.0001 0 0 0 10.638672 5.0683594 A 1.0001 1.0001 0 0 0 10.546875 5.109375 A 1.0001 1.0001 0 0 0 10.458984 5.1582031 A 1.0001 1.0001 0 0 0 10.378906 5.2167969 A 1.0001 1.0001 0 0 0 10.302734 5.2832031 A 1.0001 1.0001 0 0 0 10.234375 5.3554688 A 1.0001 1.0001 0 0 0 10.173828 5.4355469 A 1.0001 1.0001 0 0 0 10.123047 5.5214844 A 1.0001 1.0001 0 0 0 10.078125 5.6113281 A 1.0001 1.0001 0 0 0 10.044922 5.7050781 A 1.0001 1.0001 0 0 0 10.019531 5.8007812 A 1.0001 1.0001 0 0 0 10.005859 5.9003906 A 1.0001 1.0001 0 0 0 10 6 L 10 7 A 1.0001 1.0001 0 0 0 10.001953 7.0703125 A 1.0001 1.0001 0 0 0 10.013672 7.1699219 A 1.0001 1.0001 0 0 0 10.037109 7.2675781 A 1.0001 1.0001 0 0 0 10.068359 7.3613281 A 1.0001 1.0001 0 0 0 10.109375 7.453125 A 1.0001 1.0001 0 0 0 10.158203 7.5410156 A 1.0001 1.0001 0 0 0 10.216797 7.6210938 A 1.0001 1.0001 0 0 0 10.283203 7.6972656 A 1.0001 1.0001 0 0 0 10.355469 7.765625 A 1.0001 1.0001 0 0 0 10.435547 7.8261719 A 1.0001 1.0001 0 0 0 10.521484 7.8769531 A 1.0001 1.0001 0 0 0 10.611328 7.921875 A 1.0001 1.0001 0 0 0 10.705078 7.9550781 A 1.0001 1.0001 0 0 0 10.800781 7.9804688 A 1.0001 1.0001 0 0 0 10.900391 7.9941406 A 1.0001 1.0001 0 0 0 11 8 L 7 8 A 1.0001 1.0001 0 0 0 7.0703125 7.9980469 A 1.0001 1.0001 0 0 0 7.1699219 7.9863281 A 1.0001 1.0001 0 0 0 7.2675781 7.9628906 A 1.0001 1.0001 0 0 0 7.3613281 7.9316406 A 1.0001 1.0001 0 0 0 7.453125 7.890625 A 1.0001 1.0001 0 0 0 7.5410156 7.8417969 A 1.0001 1.0001 0 0 0 7.6210938 7.7832031 A 1.0001 1.0001 0 0 0 7.6972656 7.7167969 A 1.0001 1.0001 0 0 0 7.765625 7.6445312 A 1.0001 1.0001 0 0 0 7.8261719 7.5644531 A 1.0001 1.0001 0 0 0 7.8769531 7.4785156 A 1.0001 1.0001 0 0 0 7.921875 7.3886719 A 1.0001 1.0001 0 0 0 7.9550781 7.2949219 A 1.0001 1.0001 0 0 0 7.9804688 7.1992188 A 1.0001 1.0001 0 0 0 7.9941406 7.0996094 A 1.0001 1.0001 0 0 0 8 7 L 8 6 A 1.0001 1.0001 0 0 0 7.9980469 5.9296875 A 1.0001 1.0001 0 0 0 7.9863281 5.8300781 A 1.0001 1.0001 0 0 0 7.9628906 5.7324219 A 1.0001 1.0001 0 0 0 7.9316406 5.6386719 A 1.0001 1.0001 0 0 0 7.890625 5.546875 A 1.0001 1.0001 0 0 0 7.8417969 5.4589844 A 1.0001 1.0001 0 0 0 7.7832031 5.3789062 A 1.0001 1.0001 0 0 0 7.7167969 5.3027344 A 1.0001 1.0001 0 0 0 7.6445312 5.234375 A 1.0001 1.0001 0 0 0 7.5644531 5.1738281 A 1.0001 1.0001 0 0 0 7.4785156 5.1230469 A 1.0001 1.0001 0 0 0 7.3886719 5.078125 A 1.0001 1.0001 0 0 0 7.2949219 5.0449219 A 1.0001 1.0001 0 0 0 7.1992188 5.0195312 A 1.0001 1.0001 0 0 0 7.0996094 5.0058594 A 1.0001 1.0001 0 0 0 7 5 L 6 5 C 5.177493 5 4.4271857 5.3384393 3.8828125 5.8828125 C 3.3384393 6.4271857 3 7.177493 3 8 L 3 12 C 3 12.822512 3.3384366 13.572816 3.8828125 14.117188 C 4.4271884 14.661559 5.1775035 15 6 15 L 7 15 A 1.0001 1.0001 0 0 0 7.0703125 14.998047 A 1.0001 1.0001 0 0 0 7.1699219 14.986328 A 1.0001 1.0001 0 0 0 7.2675781 14.962891 A 1.0001 1.0001 0 0 0 7.3613281 14.931641 A 1.0001 1.0001 0 0 0 7.453125 14.890625 A 1.0001 1.0001 0 0 0 7.5410156 14.841797 A 1.0001 1.0001 0 0 0 7.6210938 14.783203 A 1.0001 1.0001 0 0 0 7.6972656 14.716797 A 1.0001 1.0001 0 0 0 7.765625 14.644531 A 1.0001 1.0001 0 0 0 7.8261719 14.564453 A 1.0001 1.0001 0 0 0 7.8769531 14.478516 A 1.0001 1.0001 0 0 0 7.921875 14.388672 A 1.0001 1.0001 0 0 0 7.9550781 14.294922 A 1.0001 1.0001 0 0 0 7.9804688 14.199219 A 1.0001 1.0001 0 0 0 7.9941406 14.099609 A 1.0001 1.0001 0 0 0 8 14 L 8 13 A 1.0001 1.0001 0 0 0 7.9980469 12.929688 A 1.0001 1.0001 0 0 0 7.9863281 12.830078 A 1.0001 1.0001 0 0 0 7.9628906 12.732422 A 1.0001 1.0001 0 0 0 7.9316406 12.638672 A 1.0001 1.0001 0 0 0 7.890625 12.546875 A 1.0001 1.0001 0 0 0 7.8417969 12.458984 A 1.0001 1.0001 0 0 0 7.7832031 12.378906 A 1.0001 1.0001 0 0 0 7.7167969 12.302734 A 1.0001 1.0001 0 0 0 7.6445312 12.234375 A 1.0001 1.0001 0 0 0 7.5644531 12.173828 A 1.0001 1.0001 0 0 0 7.4785156 12.123047 A 1.0001 1.0001 0 0 0 7.3886719 12.078125 A 1.0001 1.0001 0 0 0 7.2949219 12.044922 A 1.0001 1.0001 0 0 0 7.1992188 12.019531 A 1.0001 1.0001 0 0 0 7.0996094 12.005859 A 1.0001 1.0001 0 0 0 7 12 L 11 12 A 1.0001 1.0001 0 0 0 10.929688 12.001953 A 1.0001 1.0001 0 0 0 10.830078 12.013672 A 1.0001 1.0001 0 0 0 10.732422 12.037109 A 1.0001 1.0001 0 0 0 10.638672 12.068359 A 1.0001 1.0001 0 0 0 10.546875 12.109375 A 1.0001 1.0001 0 0 0 10.458984 12.158203 A 1.0001 1.0001 0 0 0 10.378906 12.216797 A 1.0001 1.0001 0 0 0 10.302734 12.283203 A 1.0001 1.0001 0 0 0 10.234375 12.355469 A 1.0001 1.0001 0 0 0 10.173828 12.435547 A 1.0001 1.0001 0 0 0 10.123047 12.521484 A 1.0001 1.0001 0 0 0 10.078125 12.611328 A 1.0001 1.0001 0 0 0 10.044922 12.705078 A 1.0001 1.0001 0 0 0 10.019531 12.800781 A 1.0001 1.0001 0 0 0 10.005859 12.900391 A 1.0001 1.0001 0 0 0 10 13 L 10 14 A 1.0001 1.0001 0 0 0 10.001953 14.070312 A 1.0001 1.0001 0 0 0 10.013672 14.169922 A 1.0001 1.0001 0 0 0 10.037109 14.267578 A 1.0001 1.0001 0 0 0 10.068359 14.361328 A 1.0001 1.0001 0 0 0 10.109375 14.453125 A 1.0001 1.0001 0 0 0 10.158203 14.541016 A 1.0001 1.0001 0 0 0 10.216797 14.621094 A 1.0001 1.0001 0 0 0 10.283203 14.697266 A 1.0001 1.0001 0 0 0 10.355469 14.765625 A 1.0001 1.0001 0 0 0 10.435547 14.826172 A 1.0001 1.0001 0 0 0 10.521484 14.876953 A 1.0001 1.0001 0 0 0 10.611328 14.921875 A 1.0001 1.0001 0 0 0 10.705078 14.955078 A 1.0001 1.0001 0 0 0 10.800781 14.980469 A 1.0001 1.0001 0 0 0 10.900391 14.994141 A 1.0001 1.0001 0 0 0 11 15 L 12 15 C 12.351847 15 12.685107 14.926057 13 14.8125 C 13.372976 14.677997 13.710807 14.47477 14 14.212891 L 14 5.7871094 z M 6 8 L 6.9609375 8 C 6.5890973 8 6.2990206 8.2182938 6 8.4042969 L 6 8 z M 11.039062 8 L 12 8 L 12 8.4042969 C 11.700979 8.2182938 11.410903 8 11.039062 8 z M 6 11.595703 C 6.2990206 11.781706 6.5890971 12 6.9609375 12 L 6 12 L 6 11.71875 L 6 11.595703 z M 12 11.595703 L 12 11.71875 L 12 12 L 11.039062 12 C 11.410903 12 11.700979 11.781706 12 11.595703 z "
     id="path1544" />
  <g
     style="fill:#0a84ff"
     id="g26">
    <rect
       height="4"
       ry="0.96186399"
       width="6"
       x="6"
       y="8"
       id="rect20"
       style="fill:#a2a2a7;fill-opacity:1" />
    <path
       inkscape:connector-curvature="0"
       d="M 6,6 C 4.895478,6 4,6.895478 4,8 v 4 c 0,1.104597 0.8954308,2 2,2 H 7 V 13 H 6 C 5.4477158,13 5,12.552299 5,12 V 11.71875 8 C 5,7.447701 5.4267669,7 6,7 H 7 V 6 Z"
       id="path22"
       style="fill:#2f2f31;fill-opacity:1" />
    <path
       inkscape:connector-curvature="0"
       d="m 12,6 c 1.104522,0 2,0.895478 2,2 v 4 c 0,1.104597 -0.895431,2 -2,2 h -1 v -1 h 1 c 0.552284,0 1,-0.447701 1,-1 V 11.71875 8 C 13,7.447701 12.573233,7 12,7 H 11 V 6 Z"
       id="path24"
       style="fill:#2f2f31;fill-opacity:1" />
    <rect
       style="fill:#ffffff;fill-opacity:1"
       id="rect827"
       y="9"
       x="7"
       width="4"
       ry="0.40601376"
       height="2" />
  </g>
</svg>
