<svg viewBox="0 0 16 16" xmlns="http://www.w3.org/2000/svg"><path d="m1 1h14v14h-14z" fill="#fff" fill-opacity=".976744"/><path d="m0 0v16h16v-16h-4-1-6-1zm1 1h2 3 4 3 2v4h-2-3-2-1-1-3-1-1v-1-1zm0 5h2 3 1 3 3 2v4h-4-.5-1.5-2-1-5zm0 5h5 1 2 1.5 4.5v4h-14z" fill="#98989d"/><path d="m4 0a1.0001 1.0001 0 0 0 -1 1v1h-1a1.0001 1.0001 0 0 0 -1 1v1a1.0001 1.0001 0 0 0 1 1h1v1a1.0001 1.0001 0 0 0 1 1h1a1.0001 1.0001 0 0 0 1-1v-1h1a1.0001 1.0001 0 0 0 1-1v-1a1.0001 1.0001 0 0 0 -1-1h-1v-1a1.0001 1.0001 0 0 0 -1-1zm4 5a1.0001 1.0001 0 0 0 -.9941406.9003906 1.0001 1.0001 0 0 0 -.0058594.0996094v1h-1a1.0001 1.0001 0 0 0 -1 1v1a1.0001 1.0001 0 0 0 1 1h1v1a1.0001 1.0001 0 0 0 1 1h1c-.5522619.000055-.9999448.447738-1 1v1c.0000552.552262.4477381.999945 1 1h5c.552262-.000055.999945-.447738 1-1v-1c-.000055-.552262-.447738-.999945-1-1 1.443218-.492888-4.6848752-.022153-4.8964844-.005859a1.0001 1.0001 0 0 0 .8964844-.994141v-1h1a1.0001 1.0001 0 0 0 1-1v-1a1.0001 1.0001 0 0 0 -1-1h-1v-1a1.0001 1.0001 0 0 0 -1-1z" fill="#fff" fill-opacity=".784314"/><path d="m4 1v2h-2v1h2v2h1v-2h2v-1h-2v-2z" fill="#2a9240"/><path d="m8 6v2h-2v1h2v2h1v-2h2v-1h-2v-2z" fill="#2a9240"/><path d="m9 13h5v1h-5z" fill="#d70015"/></svg>