<svg viewBox="0 0 16 16" xmlns="http://www.w3.org/2000/svg" xmlns:xlink="http://www.w3.org/1999/xlink"><linearGradient id="a" gradientTransform="translate(75 -7)" gradientUnits="userSpaceOnUse" x1="14" x2="13.79661" y1="22" y2="2.135593"><stop offset="0" stop-color="#0040dd"/><stop offset="1" stop-color="#0a84ff"/></linearGradient><linearGradient id="b" gradientUnits="userSpaceOnUse" x1="-30" x2="-30" y1="3" y2="-9"><stop offset="0" stop-color="#f5f5f5"/><stop offset=".3888889" stop-color="#fdfdfd"/><stop offset="1" stop-color="#fff"/></linearGradient><linearGradient id="c" gradientUnits="userSpaceOnUse" x1="12" x2="12" xlink:href="#a" y1="6" y2="3"/><linearGradient id="d" gradientUnits="userSpaceOnUse" x1="6" x2="6" xlink:href="#a" y1="12" y2="11"/><linearGradient id="e" gradientUnits="userSpaceOnUse" x1="6" x2="6" xlink:href="#a" y1="10" y2="9"/>


     /&amp;gt;
 <path d="m1 2h14v12h-14z" fill="url(#b)"/><g fill="#4d82b8"><path d="m11 3h3v3h-3z" fill="url(#c)"/><path d="m2 9h9v1h-9z" fill="url(#e)"/><path d="m3 11h7v1h-7z" fill="url(#d)"/></g><path d="m1 1c-.554 0-1 .446-1 1v12c0 .554.446 1 1 1h14c.554 0 1-.446 1-1v-12c0-.554-.446-1-1-1zm0 1h14v12h-14z" fill="#98989d"/></svg>