<?xml version="1.0" encoding="UTF-8" standalone="no"?>
<svg
   xmlns:dc="http://purl.org/dc/elements/1.1/"
   xmlns:cc="http://creativecommons.org/ns#"
   xmlns:rdf="http://www.w3.org/1999/02/22-rdf-syntax-ns#"
   xmlns:svg="http://www.w3.org/2000/svg"
   xmlns="http://www.w3.org/2000/svg"
   xmlns:sodipodi="http://sodipodi.sourceforge.net/DTD/sodipodi-0.dtd"
   xmlns:inkscape="http://www.inkscape.org/namespaces/inkscape"
   viewBox="0 0 16 16"
   version="1.1"
   id="svg14"
   sodipodi:docname="sc_insertendnote.svg"
   inkscape:version="0.92.3 (unknown)">
  <metadata
     id="metadata20">
    <rdf:RDF>
      <cc:Work
         rdf:about="">
        <dc:format>image/svg+xml</dc:format>
        <dc:type
           rdf:resource="http://purl.org/dc/dcmitype/StillImage" />
        <dc:title></dc:title>
      </cc:Work>
    </rdf:RDF>
  </metadata>
  <defs
     id="defs18" />
  <sodipodi:namedview
     pagecolor="#ffffff"
     bordercolor="#666666"
     borderopacity="1"
     objecttolerance="10"
     gridtolerance="10"
     guidetolerance="10"
     inkscape:pageopacity="0"
     inkscape:pageshadow="2"
     inkscape:window-width="1366"
     inkscape:window-height="706"
     id="namedview16"
     showgrid="false"
     inkscape:zoom="14.75"
     inkscape:cx="-0.71186441"
     inkscape:cy="8"
     inkscape:window-x="0"
     inkscape:window-y="0"
     inkscape:window-maximized="1"
     inkscape:current-layer="svg14" />
  <path
     d="m2 0c-.554 0-1 .446-1 1v11c0 .554.446 1 1 1h8c .554 0 1-.446 1-1v-11c0-.554-.446-1-1-1zm0 1h8v11h-8z"
     fill="#808080"
     id="path2"
     style="fill:#98989d;fill-opacity:1" />
  <path
     d="m2 1h8v11h-8z"
     fill="#fff"
     id="path4" />
  <path
     d="m6 3c-.554 0-1 .446-1 1v11c0 .554.446 1 1 1h7a1.0001 1.0001 0 0 1 -1-1h-6v-11h8v1c .363969 0 .703481.1077387 1 .2832031v-1.2832031c0-.554-.446-1-1-1z"
     fill="#808080"
     id="path6"
     style="fill:#98989d;fill-opacity:1" />
  <path
     d="m6 4v11h6v-6a1.0001 1.0001 0 0 1  .482422-.8535156c-.252344-.3348084-.482422-.7024035-.482422-1.1464844 0-1.0907028.909297-2 2-2v-1z"
     fill="#fff"
     id="path8" />
  <path
     d="m13 9h2v6h-2z"
     fill="#4d82b8"
     id="path10"
     style="fill:#0a84ff;fill-opacity:1" />
  <rect
     fill="#4d82b8"
     height="2"
     ry="1"
     width="2"
     x="13"
     y="6"
     id="rect12"
     style="fill:#0a84ff;fill-opacity:1" />
</svg>
