<?xml version="1.0" encoding="UTF-8" standalone="no"?>
<svg
   xmlns:dc="http://purl.org/dc/elements/1.1/"
   xmlns:cc="http://creativecommons.org/ns#"
   xmlns:rdf="http://www.w3.org/1999/02/22-rdf-syntax-ns#"
   xmlns:svg="http://www.w3.org/2000/svg"
   xmlns="http://www.w3.org/2000/svg"
   xmlns:xlink="http://www.w3.org/1999/xlink"
   xmlns:sodipodi="http://sodipodi.sourceforge.net/DTD/sodipodi-0.dtd"
   xmlns:inkscape="http://www.inkscape.org/namespaces/inkscape"
   viewBox="0 0 16 16"
   version="1.1"
   id="svg4"
   sodipodi:docname="sc_insertmath.svg"
   inkscape:version="0.92.3 (unknown)"><metadata
   id="metadata10">
  <rdf:RDF>
    <cc:Work
       rdf:about="">
      <dc:format>image/svg+xml</dc:format>
      <dc:type
         rdf:resource="http://purl.org/dc/dcmitype/StillImage" />
      <dc:title></dc:title>
    </cc:Work>
  </rdf:RDF>
</metadata>
<defs
   id="defs8">
  <linearGradient
     gradientTransform="translate(-30.169492,-9.3559322)"
     id="a"
     gradientUnits="userSpaceOnUse"
     x1="14"
     x2="13.79661"
     y1="22"
     y2="2.1355929">
    <stop
       offset="0"
       stop-color="#0040dd"
       id="stop1765" />
    <stop
       offset="1"
       stop-color="#0a84ff"
       id="stop1767" />
  </linearGradient>
  <linearGradient
     inkscape:collect="always"
     xlink:href="#a"
     id="linearGradient2353"
     x1="9.3559322"
     y1="16.067797"
     x2="9.3559322"
     y2="0.06779661"
     gradientUnits="userSpaceOnUse" />
</defs>
<sodipodi:namedview
   pagecolor="#ffffff"
   bordercolor="#666666"
   borderopacity="1"
   objecttolerance="10"
   gridtolerance="10"
   guidetolerance="10"
   inkscape:pageopacity="0"
   inkscape:pageshadow="2"
   inkscape:window-width="1366"
   inkscape:window-height="699"
   id="namedview6"
   showgrid="false"
   inkscape:zoom="14.75"
   inkscape:cx="-0.71186441"
   inkscape:cy="8"
   inkscape:window-x="0"
   inkscape:window-y="0"
   inkscape:window-maximized="1"
   inkscape:current-layer="svg4" />


     /&gt;
 <path
   d="m1.0292969 0c-.33301801 0-.58983816.12089092-.7714844.36132812-.17155472.22950816-.2578125.46464089-.2578125.70507808v.9335938h3c-.0504576 2.0437158-.164057 4.0604934-.3457032 5.4921875-.1816461 1.4207648-.4000573 2.5784355-.6523437 3.4746095-.2522863.885247-.5292876 1.531175-.8320313 1.935547-.292652.393443-.40851964.589844-.7011718.589844h-.30078125v1.949218c0 .09836.0328753.18717.10351563.263672.07064.06558.1624247.120345.2734375.164063.11100599.04372.23209236.0758.36328124.09766.13118888.021849.25585578.033199.37695308.033199 1.5209239-.264966 1.9025337-1.614943 2.3964844-2.753906.2522864-.688525.4687445-1.540247.6503906-2.556641.1816462-1.0163931.328447-2.2194425.4394531-3.6074218.1210975-1.387977.1982399-3.2678237.2285157-5.0820312h6c-.03027.9617487-.07259 2.1201545-.123047 2.9179688-.05046.7868851-.09993 1.5130202-.150391 2.1796874-.05046.6557384-.09635 1.2629357-.136719 1.8203126-.03028.5464471-.04492 1.053492-.04492 1.5234372 0 1.956285.151676 3.373731.716798 4.248047.575212.863388 1.442997 1.294922 2.603515 1.294922.514664 0 .932934-.08216 1.25586-.246094.333018-.163935.5-.405716.5-.722656v-1.162109h-.574219c-.242194 0-.466139-.03403-.667969-.09961-.191738-.06557-.3623-.202505-.513672-.410156-.151372-.20765-.287105-.497556-.408203-.869141-.111006-.382514-.208331-.884861-.289062-1.507812-.07064-.62295-.127601-1.3878188-.167969-2.294922-.03028-.907104-.04687-1.9939586-.04687-3.2617188 0-.5027321.0056-1.0050802.01563-1.5078124.010078-.5027323.021148-1.3231088.031238-1.9023438h2.136719c.282561 0 .495438.190488.636719.015625.15137-.1857924.226562-.4029308.226562-.6542969v-1.3613281z"
   fill="#4d82b8"
   id="path2"
   style="fill-opacity:1;fill:url(#linearGradient2353)" />
</svg>
