<?xml version="1.0" encoding="UTF-8" standalone="no"?>
<svg
   xmlns:dc="http://purl.org/dc/elements/1.1/"
   xmlns:cc="http://creativecommons.org/ns#"
   xmlns:rdf="http://www.w3.org/1999/02/22-rdf-syntax-ns#"
   xmlns:svg="http://www.w3.org/2000/svg"
   xmlns="http://www.w3.org/2000/svg"
   xmlns:sodipodi="http://sodipodi.sourceforge.net/DTD/sodipodi-0.dtd"
   xmlns:inkscape="http://www.inkscape.org/namespaces/inkscape"
   viewBox="0 0 16 16"
   version="1.1"
   id="svg8"
   sodipodi:docname="sc_insertfootnote.svg"
   inkscape:version="0.92.3 (2405546, 2018-03-11)">
  <metadata
     id="metadata14">
    <rdf:RDF>
      <cc:Work
         rdf:about="">
        <dc:format>image/svg+xml</dc:format>
        <dc:type
           rdf:resource="http://purl.org/dc/dcmitype/StillImage" />
      </cc:Work>
    </rdf:RDF>
  </metadata>
  <defs
     id="defs12" />
  <sodipodi:namedview
     pagecolor="#ffffff"
     bordercolor="#666666"
     borderopacity="1"
     objecttolerance="10"
     gridtolerance="10"
     guidetolerance="10"
     inkscape:pageopacity="0"
     inkscape:pageshadow="2"
     inkscape:window-width="1366"
     inkscape:window-height="685"
     id="namedview10"
     showgrid="true"
     inkscape:zoom="29.5"
     inkscape:cx="7.3839826"
     inkscape:cy="4.9725291"
     inkscape:window-x="0"
     inkscape:window-y="0"
     inkscape:window-maximized="1"
     inkscape:current-layer="svg8">
    <inkscape:grid
       type="xygrid"
       id="grid814" />
  </sodipodi:namedview>
  <path
     d="m3 1v14h7.304688 2.695312v-.75-1.955078-1.769531-1.0761722l-.408203.3261718a1.0001 1.0001 0 0 1 -.013672.0117188c-.076122.0586703-.168592.1113626-.269531.1582031l-1.951172-1.6328125a1.0001 1.0001 0 0 1 -.248047-.3125 1.0001 1.0001 0 0 1 .248047-.3125l1.951172-1.6328125c.10094.0468404.193409.0995328.269531.1582031a1.0001 1.0001 0 0 1 .013672.0117188l.408203.3261718v-1.0761718-1.7695313-1.9550781-.75h-2.695312z"
     fill="#fff"
     id="path2" />
  <path
     d="m3 0c-.1070341 0-.2047472.02609895-.2988281.06054688-.0661904.02094427-.1261843.04656713-.1855469.08007812-.0007459.00042212-.001208.00152979-.0019531.00195312-.3021531.17166833-.5136719.48370594-.5136719.85742188v14c0 .554.446 1 1 1h2 1.0292969 2.9433593 2.0273438 2c.180284 0 .340567-.059764.486328-.142578a1.0001 1.0001 0 0 1 -.486328-.857422h-10v-14h6 2.363281 1.636719v1.6367188 1.3632812 1 .4746094l.287109-.2402344a1.0001 1.0001 0 0 1 .642579-.234375h.070312v-.5-.8632812-2.6367188c0-.554-.446-1-1-1h-2-.636719-.3925779-.4707031z"
     fill="#98989d"
     id="path4" />
  <path
     d="M 14,14.25 V 7.3707124 l -2.032827,1.6234428 c -0.118128,0.091047 -0.233794,0.1229138 -0.347001,0.0956 C 11.511888,9.0578873 11.435598,9.012366 11.391299,8.9531843 L 11,8.454702 13.929733,6 H 16 V 14.25 15 h -2 z"
     id="path6"
     style="fill:#d70015;fill-opacity:1"
     inkscape:connector-curvature="0"
     sodipodi:nodetypes="cccccccccccc" />
</svg>
