<?xml version="1.0" encoding="UTF-8" standalone="no"?>
<svg
   xmlns:dc="http://purl.org/dc/elements/1.1/"
   xmlns:cc="http://creativecommons.org/ns#"
   xmlns:rdf="http://www.w3.org/1999/02/22-rdf-syntax-ns#"
   xmlns:svg="http://www.w3.org/2000/svg"
   xmlns="http://www.w3.org/2000/svg"
   xmlns:sodipodi="http://sodipodi.sourceforge.net/DTD/sodipodi-0.dtd"
   xmlns:inkscape="http://www.inkscape.org/namespaces/inkscape"
   viewBox="0 0 16 16"
   version="1.1"
   id="svg30"
   sodipodi:docname="sc_insertfieldctrl.svg"
   inkscape:version="0.92.3 (2405546, 2018-03-11)">
  <metadata
     id="metadata36">
    <rdf:RDF>
      <cc:Work
         rdf:about="">
        <dc:format>image/svg+xml</dc:format>
        <dc:type
           rdf:resource="http://purl.org/dc/dcmitype/StillImage" />
        <dc:title></dc:title>
      </cc:Work>
    </rdf:RDF>
  </metadata>
  <defs
     id="defs34" />
  <sodipodi:namedview
     pagecolor="#ffffff"
     bordercolor="#666666"
     borderopacity="1"
     objecttolerance="10"
     gridtolerance="10"
     guidetolerance="10"
     inkscape:pageopacity="0"
     inkscape:pageshadow="2"
     inkscape:window-width="1366"
     inkscape:window-height="685"
     id="namedview32"
     showgrid="true"
     inkscape:zoom="41.7193"
     inkscape:cx="-0.12815506"
     inkscape:cy="5.1653435"
     inkscape:window-x="0"
     inkscape:window-y="0"
     inkscape:window-maximized="1"
     inkscape:current-layer="svg30">
    <inkscape:grid
       type="xygrid"
       id="grid843" />
  </sodipodi:namedview>
  <linearGradient
     id="a"
     gradientUnits="userSpaceOnUse"
     x1="10"
     x2="11.5000006"
     y1="4"
     y2="2.4999994">
    <stop
       offset="0"
       stop-color="#fff"
       id="stop2" />
    <stop
       offset=".77967989"
       stop-color="#f1f1f1"
       id="stop4" />
    <stop
       offset="1"
       stop-color="#d5d5d5"
       id="stop6" />
  </linearGradient>
  <radialGradient
     id="b"
     cx="10.994179"
     cy="4.42844"
     gradientTransform="matrix(1.4 .00000004 -.00000001 1.2 -4.39185 -2.314129)"
     gradientUnits="userSpaceOnUse"
     r="5">
    <stop
       offset="0"
       stop-color="#d7d7d7"
       id="stop9" />
    <stop
       offset=".49894297"
       stop-color="#f7f7f7"
       id="stop11" />
    <stop
       offset="1"
       stop-color="#fff"
       id="stop13" />
  </radialGradient>
  <path
     d="m3 1v7c0-1.645014 1.354986-3 3-3h1a1.0001 1.0001 0 0 1 1 1v1a1.0001 1.0001 0 0 1 -1 1h4a1.0001 1.0001 0 0 1 -1-1v-1a1.0001 1.0001 0 0 1 1-1h1c.351852 0 .685106.0739426 1 .1875v-1.4824219l-2.695312-2.7050781zm3 7v.4042969c.2990206-.1860031.5890973-.4042969.9609375-.4042969zm5.039062 0c.371841 0 .661917.2182938.960938.4042969v-.4042969zm-5.039062 3.595703v.123047.28125h.9609375c-.3718404 0-.6619169-.218294-.9609375-.404297zm6 0c-.299021.186003-.589097.404297-.960938.404297h.960938v-.28125zm-9 .404297v3h3c-1.6449929 0-3-1.354976-3-3zm4 0a1.0001 1.0001 0 0 1 1 1v1a1.0001 1.0001 0 0 1 -1 1h4a1.0001 1.0001 0 0 1 -1-1v-1a1.0001 1.0001 0 0 1 1-1zm6 2.8125c-.314893.113557-.648153.1875-1 .1875h1z"
     fill="url(#b)"
     id="path16" />
  <path
     d="m3 0c-.554 0-1 .446-1 1v14c0 .554.446 1 1 1h10c.554 0 1-.446 1-1v-.787109c-.289193.261879-.627024.465106-1 .599609v.1875h-1-1-4-1-3v-3-4-7h6v3.5c0 .277.223.5.5.5h1.5 1 1v.1875c.372978.1345035.710808.3377288 1 .5996094v-1.2871094-.8632812l-3.636719-3.6367188h-.863281zm7 1 3 3h-3z"
     fill="#98989d"
     id="path18" />
  <g
     fill="#0a84ff"
     id="g26">
    <rect
       height="2"
       ry=".961864"
       width="6"
       x="6"
       y="9"
       id="rect20"
       style="fill:#a2a2a7;fill-opacity:1" />
    <path
       d="m6 6c-1.104522 0-2 .895478-2 2v4c0 1.104597.8954308 2 2 2h1v-1h-1c-.5522842 0-1-.447701-1-1v-.28125-3.71875c0-.552299.4267669-1 1-1h1v-1z"
       id="path22"
       style="fill:#2f2f31;fill-opacity:1" />
    <path
       d="m12 6c1.104522 0 2 .895478 2 2v4c0 1.104597-.895431 2-2 2h-1v-1h1c.552284 0 1-.447701 1-1v-.28125-3.71875c0-.552299-.426767-1-1-1h-1v-1z"
       id="path24"
       style="fill:#2f2f31;fill-opacity:1" />
  </g>
  <path
     d="m10 1 3 3h-3z"
     fill="url(#a)"
     id="path28" />
</svg>
