<?xml version="1.0" encoding="UTF-8" standalone="no"?>
<svg
   xmlns:dc="http://purl.org/dc/elements/1.1/"
   xmlns:cc="http://creativecommons.org/ns#"
   xmlns:rdf="http://www.w3.org/1999/02/22-rdf-syntax-ns#"
   xmlns:svg="http://www.w3.org/2000/svg"
   xmlns="http://www.w3.org/2000/svg"
   xmlns:xlink="http://www.w3.org/1999/xlink"
   xmlns:sodipodi="http://sodipodi.sourceforge.net/DTD/sodipodi-0.dtd"
   xmlns:inkscape="http://www.inkscape.org/namespaces/inkscape"
   viewBox="0 0 16 16"
   version="1.1"
   id="svg4"
   sodipodi:docname="sc_insertsymbol.svg"
   inkscape:version="0.92.3 (2405546, 2018-03-11)"><metadata
   id="metadata10">
  <rdf:RDF>
    <cc:Work
       rdf:about="">
      <dc:format>image/svg+xml</dc:format>
      <dc:type
         rdf:resource="http://purl.org/dc/dcmitype/StillImage" />
      <dc:title></dc:title>
    </cc:Work>
  </rdf:RDF>
</metadata>
<defs
   id="defs8">
  <linearGradient
     gradientTransform="translate(-33.220339,-2.5084746)"
     id="a"
     gradientUnits="userSpaceOnUse"
     x1="14"
     x2="13.79661"
     y1="22"
     y2="2.1355929">
    <stop
       offset="0"
       stop-color="#0040dd"
       id="stop2" />
    <stop
       offset="1"
       stop-color="#0a84ff"
       id="stop4" />
  </linearGradient>
  <linearGradient
     inkscape:collect="always"
     xlink:href="#a"
     id="linearGradient835"
     x1="7"
     y1="16"
     x2="6.7796612"
     y2="-0.06779661"
     gradientUnits="userSpaceOnUse" />
</defs>
<sodipodi:namedview
   pagecolor="#ffffff"
   bordercolor="#666666"
   borderopacity="1"
   objecttolerance="10"
   gridtolerance="10"
   guidetolerance="10"
   inkscape:pageopacity="0"
   inkscape:pageshadow="2"
   inkscape:window-width="1366"
   inkscape:window-height="685"
   id="namedview6"
   showgrid="false"
   inkscape:zoom="7.375"
   inkscape:cx="-14.591352"
   inkscape:cy="-0.34750902"
   inkscape:window-x="0"
   inkscape:window-y="0"
   inkscape:window-maximized="1"
   inkscape:current-layer="svg4" />





     /&amp;amp;gt;
 <path
   d="m8.0117188 0c-1.1062951 0-2.1325989.18347691-3.0820313.54882812-.9411765.36535123-1.7596267.87215928-2.453125 1.52343748-.6934985.6433358-1.2384808 1.4112304-1.63476562 2.3007813-.3880289.8816083-.58203126 1.8385794-.58203126 2.8710937 0 .7465873.10414853 1.457707.31054688 2.1328125.21465427.6671639.5073892 1.2780149.8789063 1.8339849.3797728.555969.8329484 1.040119 1.3613281 1.453124.5283797.413006 1.1158027 1.097667 1.7597656 1.335938-.3880289-.0556-.7849124.03971-1.1894531 0-.3962849-.03971-.7842896 0-1.1640625 0h-2.2167969v1.023438c0 .285927.09526977.520449.28515625.703124.19814241.182677.46273142.273438.79296875.273438h5.921875v-3.111328a5 5.5 0 0 1 -4-5.388672 5 5.5 0 0 1 5-5.5 5 5.5 0 0 1 5 5.5 5 5.5 0 0 1 -4 5.382812v3.117188h5.910156c.338493 0 .603082-.090761.792969-.273438.198143-.182674.296875-.417198.296875-.703124v-1.023438h-2.216797c-.388029 0-.779496-.03971-1.175781 0-.396285.03972-.789706-.05559-1.177734 0 .643963-.238273 1.231384-.922932 1.759765-1.335938.528379-.413005.981555-.897156 1.361328-1.453124.379773-.555969.672508-1.166821.878907-1.8339849.214654-.6751055.322265-1.3862252.322265-2.1328125 0-1.0325143-.197465-1.9894854-.59375-2.8710937-.396285-.8895509-.941268-1.6574455-1.634765-2.3007813-.6935-.6512782-1.511949-1.15808624-2.453126-1.52343748-.941176-.3653512-1.960554-.54882812-3.0585932-.54882812z"
   fill="#0a84ff"
   id="path2"
   style="fill-opacity:1;fill:url(#linearGradient835)" />
</svg>
