<svg height="16" viewBox="0 0 16 16" width="16" xmlns="http://www.w3.org/2000/svg" xmlns:xlink="http://www.w3.org/1999/xlink"><filter id="a" color-interpolation-filters="sRGB" height="1.135959" width="1.153052" x="-.076526" y="-.067979"><feGaussianBlur stdDeviation=".44180839"/></filter><radialGradient id="b" cx="55.498295" cy="20.746534" gradientTransform="matrix(1 0 0 .72181261 0 7.10169)" gradientUnits="userSpaceOnUse" r="10.03901"><stop offset="0" stop-color="#ffc765"/><stop offset="1" stop-color="#ffa914"/></radialGradient><radialGradient id="c" cx="55.441967" cy="22.525862" gradientTransform="matrix(1.2258064 0 0 1.0478667 -12.519154 -1.07824)" gradientUnits="userSpaceOnUse" r="2.229184"><stop offset="0" stop-color="#ffe9c3"/><stop offset="1" stop-color="#ffe9c3" stop-opacity="0"/></radialGradient><g fill="#ebebeb" fill-opacity=".992157"><rect height="3" rx="1" width="16" y="1"/><rect height="2" rx=".5" width="16" y="5"/><rect height="1" rx=".5" width="5" y="9"/><rect height="1" rx=".5" width="7" x="6" y="9"/><rect height="1" rx=".5" ry=".428091" width="2" x="14" y="9"/><rect height="1" rx=".5" ry=".428091" width="2" y="12"/><rect height="1" rx=".5" ry=".428091" width="2" x="4" y="12"/><rect height="1" rx=".5" ry=".428091" width="2" x="8" y="12"/><rect height="1" rx=".5" ry=".428091" width="2" x="12" y="12"/><rect height="2" rx=".5" width="16" y="15"/></g><g fill="#4b4b4f"><rect height="3" rx="1" width="16"/><rect height="2" rx=".5" width="16" y="4"/><rect height="1" rx=".5" width="5" y="8"/><rect height="1" rx=".5" width="7" x="6" y="8"/><rect height="1" rx=".5" ry=".428091" width="2" x="14" y="8"/><rect height="1" rx=".5" ry=".428091" width="2" y="11"/><rect height="1" rx=".5" ry=".428091" width="2" x="4" y="11"/><rect height="1" rx=".5" ry=".428091" width="2" x="8" y="11"/><rect height="1" rx=".5" ry=".428091" width="2" x="12" y="11"/><rect height="2" rx=".5" width="16" y="14"/></g><g fill="#4b4b4f"><path d="m12.818359 4a1.2610056 1.2610056 0 0 0 -.023437.0214844l-2.011719 1.9785156h4.716797c.277 0 .5-.223.5-.5v-1c0-.277-.223-.5-.5-.5zm-4.0703121 4-.9257813.9101562a1.2610056 1.2610056 0 0 0 -.0800781.0898438h4.7578125c.277 0 .5-.223.5-.5s-.223-.5-.5-.5zm5.7519531 0c-.277 0-.5.190572-.5.4277344v.1445312c0 .2223643.198391.3981493.451172.4199219l.689453-.9921875zm-9.3144531 3c-.1446501.254777-.2732555.507566-.3886719.746094a1.2610056 1.2610056 0 0 0 -.03125.066406c-.0322622.078058-.0687062.121584-.1015625.1875h.8359375c.277 0 .5-.190572.5-.427734v-.144532c0-.237162-.223-.427734-.5-.427734zm7.3144531 0c-.277 0-.5.190572-.5.427734v.144532c0 .198051.158485.357031.371094.40625l.679687-.978516zm-10.0625 3a1.2610056 1.2610056 0 0 0 .4414062 1.800781c.1335912.073705.2862156.132726.4296876.199219h6.4257812c.396649-.254977.758441-.576793 1.050781-1.003906.200444-.253309.479627-.597746.75586-.996094z" fill="#fff" fill-opacity=".784314"/><rect height="1" rx=".5" ry=".428091" width="2" x="8" y="11"/></g><g transform="matrix(.40739216 0 0 .40739216 -14.782967 2.351418)"><path d="m57.661017 18.305085 12.20339-12.0000003 1.118644-1.0169491c.535947-.4093238 1.138074-.6755092 2.338983-.6101695l.813559.6101695c.306849.6596707.152068 1.3286734.101695 2.0338983l-11.694915 16.7796611z" fill="#d6d6d6" stroke="#98989d" stroke-width="2.454637"/><path d="m59.389831 19.322034 12.813559-13.1186442.686441-.5338983.355932.3305085-12.122973 15.267452z" fill="#f9f9f9" filter="url(#a)"/><path d="m54.915254 19.525424c-2.355192 1.12312-2.986044 2.645733-4.067796 4.881356-1.280902 3.099136-3.365034 4.179849-6 5.898305 4.002224 2.208107 12.344829 3.382311 15.355932-1.016949 1.803572-2.317145 5.097789-5.637418 1.932203-8.237289-2.997587-2.267403-4.004437-2.954713-7.220339-1.525423z" fill="url(#b)" stroke="#f58b00" stroke-width="2.454637"/><path d="m49.395592 26.820763c-1.20494 1.428749-2.746668 2.309185-4.547936 3.483925 4.002224 2.208106 12.344366 3.383635 15.355469-1.015626-2.950168-3.198325-8.750083-1.802762-10.807533-2.468299z" fill="#0a84ff" stroke="#0040dd" stroke-width="2.454637"/><ellipse cx="55.441967" cy="22.525862" fill="url(#c)" rx="2.732548" ry="2.335888"/></g></svg>