<svg viewBox="0 0 16 16" xmlns="http://www.w3.org/2000/svg" xmlns:xlink="http://www.w3.org/1999/xlink"><linearGradient id="a" gradientTransform="translate(-32.610169 -7.932203)" gradientUnits="userSpaceOnUse" x1="14" x2="13.79661" y1="22" y2="2.135593"><stop offset="0" stop-color="#0040dd"/><stop offset="1" stop-color="#0a84ff"/></linearGradient><linearGradient id="b" gradientUnits="userSpaceOnUse" x1="4" x2="3.966102" xlink:href="#a" y1="7" y2="1.050847"/><linearGradient id="c" gradientUnits="userSpaceOnUse" x1="4" x2="4.067797" xlink:href="#a" y1="14.999998" y2="9.152541"/><linearGradient id="d" gradientUnits="userSpaceOnUse" x1="10" x2="10" y1="16" y2="-2"><stop offset="0" stop-color="#f7f7f7"/><stop offset=".22222222" stop-color="#fff"/><stop offset=".83333331" stop-color="#fff"/><stop offset="1" stop-color="#f7f7f7"/></linearGradient><linearGradient id="e" gradientTransform="matrix(1 0 0 .53846154 -6 5.307692)" gradientUnits="userSpaceOnUse" x1="12" x2="12" y1="18" y2="5"><stop offset="0" stop-color="#cfcfcf"/><stop offset=".15476191" stop-color="#e7e7e7"/><stop offset=".15476191" stop-color="#fff"/><stop offset=".5" stop-color="#f3f3f3"/><stop offset=".85714287" stop-color="#f9f9f9"/><stop offset=".85714287" stop-color="#fcfcfc"/><stop offset="1" stop-color="#fff"/></linearGradient><linearGradient id="f" gradientTransform="matrix(1 0 0 .39999999 -6 6.7)" gradientUnits="userSpaceOnUse" x1="12" x2="12" y1="12" y2="18.250002"><stop offset="0" stop-color="#f8f8f8"/><stop offset="1" stop-color="#fff"/></linearGradient><rect fill="#69696e" height="1" ry=".5" transform="scale(-1 1)" width="10" x="-15" y="2"/><rect fill="#69696e" height="1" ry=".5" transform="scale(-1 1)" width="6.000002" x="-11" y="5"/><path d="m.4805826 6h1.2475728v-3.168421c0-.1383459.00485-.2827068.014563-.4330828l-.8398058.6721804c-.055016.042105-.1100322.067669-.1650486.076692-.055016.00902-.1067959.00902-.1553397 0-.048543-.00902-.092233-.02406-.1310679-.045113-.035599-.02406-.063107-.04812-.082524-.072181l-.3689324-.4691724 1.9368932-1.5609022h1.0631068v5h1v1h-3.5194174z" fill="url(#b)"/><path d="m2.0890866 9q.4097995 0 .7438753.125093.3385299.120625.5746101.344006.2405345.223381.3697104.540581.1336303.312732.1336303.692479 0 .326136-.093541.607595-.093541.276992-.2494431.531646-.155902.250186-.3652561.491437-.2093542.236784-.44098.478035l-1.2561245 1.317944q.2004453-.06254.4008908-.09382.2004455-.03574.3741648-.03574h1.340757q.1692651 0 .2717149.09829.1069045.098283.1069045.259116v.643336h-3.9999996v-.361876q0-.102755.040089-.218913.044543-.120625.1514477-.22338l1.7193762-1.773642q.2182627-.227848.3830734-.433358.169265-.20551.2806235-.406552.115813-.20551.1737195-.411021.057907-.209977.057907-.437825 0-.411021-.2048997-.620998-.2048999-.209978-.5790646-.209978-.1603563 0-.2939866.04915-.1336303.04915-.2405345.134028-.1069042.08488-.1826281.201043-.075724.116158-.1158128.250186-.07127.205509-.1959911.268056-.1202672.06254-.3340757.0268l-.5701567-.098285q.0668152-.433358.2405345-.755027.1737193-.326134.4320712-.54058.2628062-.218913.6013362-.326136.3385301-.11169.7260578-.11169z" fill="url(#c)"/><path d="m5.5 10c-.277 0-.5.223-.5.5s.223.5.5.5h3.5v-1z" fill="#69696e"/><path d="m5.5 13c-.277 0-.5.223-.5.5s.223.5.5.5h3.5v-1z" fill="#69696e"/><g transform="translate(8)"><path d="m2 8h6v8h-6z" fill="url(#d)"/><path d="m2 7h6v9h-6z" fill="#626262" stroke-width=".774597"/><path d="m3 8h4v7h-4z" fill="url(#e)" stroke-width=".733799"/><path d="m4 9h2v2.5h-2z" fill="#dadada" stroke-width=".912871"/><path d="m4 11.5h2v2.5h-2z" fill="url(#f)" stroke-width=".632456"/></g><g fill="#eaeaea" fill-opacity=".992157"><rect height="1" ry=".5" transform="scale(-1 1)" width="10" x="-15" y="3"/><rect height="1" ry=".5" transform="scale(-1 1)" width="6.000002" x="-11" y="6"/><path d="m5.5 11c-.277 0-.5.223-.5.5s.223.5.5.5h3.5v-1z"/><path d="m5.5 14c-.277 0-.5.223-.5.5s.223.5.5.5h3.5v-1z"/></g></svg>