<?xml version="1.0" encoding="UTF-8" standalone="no"?>
<svg
   xmlns:dc="http://purl.org/dc/elements/1.1/"
   xmlns:cc="http://creativecommons.org/ns#"
   xmlns:rdf="http://www.w3.org/1999/02/22-rdf-syntax-ns#"
   xmlns:svg="http://www.w3.org/2000/svg"
   xmlns="http://www.w3.org/2000/svg"
   xmlns:xlink="http://www.w3.org/1999/xlink"
   xmlns:sodipodi="http://sodipodi.sourceforge.net/DTD/sodipodi-0.dtd"
   xmlns:inkscape="http://www.inkscape.org/namespaces/inkscape"
   viewBox="0 0 16 16"
   version="1.1"
   id="svg22"
   sodipodi:docname="sc_mailmergewizard.svg"
   inkscape:version="0.92.3 (unknown)"
   inkscape:export-filename="/home/rizmut/Dokumen/Rizmut/Github/libreoffice-style-sukapura/images_sukapura/cmd/sc_mailmergewizard.png"
   inkscape:export-xdpi="96"
   inkscape:export-ydpi="96"><metadata
   id="metadata28">
  <rdf:RDF>
    <cc:Work
       rdf:about="">
      <dc:format>image/svg+xml</dc:format>
      <dc:type
         rdf:resource="http://purl.org/dc/dcmitype/StillImage" />
      <dc:title></dc:title>
    </cc:Work>
  </rdf:RDF>
</metadata>
<defs
   id="defs26">
  <linearGradient
     gradientTransform="translate(-38,-11)"
     id="a"
     gradientUnits="userSpaceOnUse"
     x1="7"
     x2="7"
     y1="20"
     y2="3">
    <stop
       offset="0"
       stop-color="#f5f5f5"
       id="stop1016" />
    <stop
       offset=".3888889"
       stop-color="#fdfdfd"
       id="stop1018" />
    <stop
       offset="1"
       stop-color="#fff"
       id="stop1020" />
  </linearGradient>
  <linearGradient
     gradientTransform="translate(75,-7)"
     id="a-367"
     gradientUnits="userSpaceOnUse"
     x1="14"
     x2="13.79661"
     y1="22"
     y2="2.1355929">
    <stop
       offset="0"
       stop-color="#0040dd"
       id="stop2206" />
    <stop
       offset="1"
       stop-color="#0a84ff"
       id="stop2208" />
  </linearGradient>
  <linearGradient
     inkscape:collect="always"
     xlink:href="#a-367"
     id="linearGradient1595"
     x1="7"
     y1="14"
     x2="7"
     y2="4"
     gradientUnits="userSpaceOnUse" />
  <linearGradient
     inkscape:collect="always"
     xlink:href="#a-367"
     id="linearGradient1597"
     x1="7"
     y1="14"
     x2="7"
     y2="4"
     gradientUnits="userSpaceOnUse" />
  <linearGradient
     inkscape:collect="always"
     xlink:href="#a-367"
     id="linearGradient1599"
     x1="7"
     y1="14"
     x2="7"
     y2="4"
     gradientUnits="userSpaceOnUse" />
  <linearGradient
     inkscape:collect="always"
     xlink:href="#a-367"
     id="linearGradient1601"
     x1="7"
     y1="14"
     x2="7"
     y2="4"
     gradientUnits="userSpaceOnUse" />
  <linearGradient
     inkscape:collect="always"
     xlink:href="#a"
     id="linearGradient1617"
     x1="9"
     y1="13"
     x2="9"
     y2="5"
     gradientUnits="userSpaceOnUse" />
</defs>
<sodipodi:namedview
   pagecolor="#ffffff"
   bordercolor="#666666"
   borderopacity="1"
   objecttolerance="10"
   gridtolerance="10"
   guidetolerance="10"
   inkscape:pageopacity="0"
   inkscape:pageshadow="2"
   inkscape:window-width="1366"
   inkscape:window-height="706"
   id="namedview24"
   showgrid="true"
   inkscape:zoom="10.429825"
   inkscape:cx="9.568934"
   inkscape:cy="9.5003107"
   inkscape:window-x="0"
   inkscape:window-y="0"
   inkscape:window-maximized="1"
   inkscape:current-layer="svg22">
  <inkscape:grid
     type="xygrid"
     id="grid1609" />
</sodipodi:namedview>


     /&gt;
 <path
   d="m1 0c-.554 0-1 .446-1 1v14c0 .554.446 1 1 1h10c .554 0 1-.446 1-1v-14c0-.554-.446-1-1-1zm0 1h10v14h-10z"
   fill="#808080"
   id="path2"
   style="fill:#98989d;fill-opacity:1" />
<g
   fill="#fff"
   id="g10">
  <path
     d="m1 1h10v14h-10z"
     id="path4" />
  <path
     d="m3 5h12v8h-12z"
     id="path6" />
  <path
     d="M 6,5 C 6,5.554 2.8295898,4.6367187 2.8983051,5.1864407 L 3,6 v 7 H 15 V 5 Z"
     id="path8"
     inkscape:connector-curvature="0"
     sodipodi:nodetypes="csccccc"
     style="fill-opacity:1;fill:url(#linearGradient1617)" />
</g>
<g
   fill="#4d82b8"
   id="g20">
  <g
     id="g1607">
    <path
       style="fill-opacity:1;fill:url(#linearGradient1601)"
       id="path12"
       d="m11 6h3v3h-3z" />
    <path
       style="fill-opacity:1;fill:url(#linearGradient1599)"
       id="path14"
       d="m4 9h6v1h-6z" />
    <path
       style="fill-opacity:1;fill:url(#linearGradient1597)"
       id="path16"
       d="m5 11h4v1h-4z" />
    <path
       style="fill-opacity:1;fill:url(#linearGradient1595)"
       id="path18"
       d="m3 4c-.554 0-1 .446-1 1v8c0 .554.446 1 1 1h12c .554 0 1-.446 1-1v-8c0-.554-.446-1-1-1zm0 1h12v8h-12z" />
  </g>
</g>
</svg>
