<?xml version="1.0" encoding="UTF-8" standalone="no"?>
<svg
   xmlns:dc="http://purl.org/dc/elements/1.1/"
   xmlns:cc="http://creativecommons.org/ns#"
   xmlns:rdf="http://www.w3.org/1999/02/22-rdf-syntax-ns#"
   xmlns:svg="http://www.w3.org/2000/svg"
   xmlns="http://www.w3.org/2000/svg"
   xmlns:xlink="http://www.w3.org/1999/xlink"
   xmlns:sodipodi="http://sodipodi.sourceforge.net/DTD/sodipodi-0.dtd"
   xmlns:inkscape="http://www.inkscape.org/namespaces/inkscape"
   viewBox="0 0 16 16"
   version="1.1"
   id="svg12"
   sodipodi:docname="sc_menubar.svg"
   inkscape:export-filename="/home/rizmut/Dokumen/Rizmut/Github/libreoffice-style-sukapura/images_sukapura/cmd/sc_menubar.png"
   inkscape:export-xdpi="96"
   inkscape:export-ydpi="96"
   inkscape:version="0.92.3 (unknown)"><metadata
   id="metadata18">
  <rdf:RDF>
    <cc:Work
       rdf:about="">
      <dc:format>image/svg+xml</dc:format>
      <dc:type
         rdf:resource="http://purl.org/dc/dcmitype/StillImage" />
    </cc:Work>
  </rdf:RDF>
</metadata>
<defs
   id="defs16">
  <linearGradient
     gradientTransform="translate(-29.694915,1.220339)"
     id="a"
     gradientUnits="userSpaceOnUse"
     x1="14"
     x2="13.79661"
     y1="22"
     y2="2.1355929">
    <stop
       offset="0"
       stop-color="#0040dd"
       id="stop2" />
    <stop
       offset="1"
       stop-color="#0a84ff"
       id="stop4" />
  </linearGradient>
  <clipPath
     clipPathUnits="userSpaceOnUse"
     id="clipPath857">
    <rect
       style="opacity:1;fill:#ff9500;fill-opacity:1;stroke:#0040dd;stroke-width:2;stroke-linecap:round;stroke-linejoin:round;stroke-miterlimit:4;stroke-dasharray:none;stroke-opacity:1"
       id="rect859"
       width="69.032799"
       height="69.032799"
       x="44.487804"
       y="-677.39612"
       rx="0.5"
       ry="0.5" />
  </clipPath>
  <linearGradient
     inkscape:collect="always"
     xlink:href="#a"
     id="linearGradient871"
     x1="10.488195"
     y1="10.999939"
     x2="10"
     y2="4"
     gradientUnits="userSpaceOnUse" />
</defs>
<sodipodi:namedview
   pagecolor="#ffffff"
   bordercolor="#666666"
   borderopacity="1"
   objecttolerance="10"
   gridtolerance="10"
   guidetolerance="10"
   inkscape:pageopacity="0"
   inkscape:pageshadow="2"
   inkscape:window-width="1366"
   inkscape:window-height="706"
   id="namedview14"
   showgrid="true"
   inkscape:zoom="8"
   inkscape:cx="15.524972"
   inkscape:cy="5.6197664"
   inkscape:window-x="0"
   inkscape:window-y="0"
   inkscape:window-maximized="1"
   inkscape:current-layer="svg12">
  <inkscape:grid
     type="xygrid"
     id="grid861" />
</sodipodi:namedview>






     /&gt;
 <path
   d="M 2,14 V 6 h 13 v 8 z"
   id="path2"
   inkscape:connector-curvature="0"
   style="fill:#ffffff"
   sodipodi:nodetypes="ccccc" />
<path
   d="M 2,1 C 1.446,1 1,1.446 1,2 v 12 c 0,0.554 0.446,1 1,1 h 13 c 0.554,0 1,-0.446 1,-1 V 2 C 16,1.446 15.554,1 15,1 Z m 8.505859,0.9921875 c 0.01495,0 0.02993,0.0074 0.04492,0.00781 H 15 v 5.3144531 c 0.0044,0.036122 0.01383,0.070143 0.01563,0.1074219 0.0036,0.074185 -0.0061,0.1507026 -0.01563,0.2265625 V 14 H 2 V 2 h 8.460938 c 0.01499,-4.127e-4 0.02998,-0.00781 0.04492,-0.00781 z"
   id="path4"
   style="fill:#69696e;fill-opacity:1"
   inkscape:connector-curvature="0"
   sodipodi:nodetypes="sssssssssscccscccccs" />
<rect
   style="opacity:1;fill:#c8c8cb;fill-opacity:1;stroke:none;stroke-width:2;stroke-linecap:round;stroke-linejoin:round;stroke-miterlimit:4;stroke-dasharray:none;stroke-opacity:1"
   id="rect886"
   width="13"
   height="4"
   x="2"
   y="2"
   rx="0"
   ry="0" />
<path
   d="M 0,3 V 7 H 1 9 V 6 H 1 V 4 h 9.460938 c 0.01499,-4.127e-4 0.02998,-0.00781 0.04492,-0.00781 0.01495,0 0.02993,0.0074 0.04492,0.00781 H 15 v 2 h -3 v 1 h 3 1 V 3 Z"
   id="path6"
   style="fill:#c93400;fill-opacity:1"
   inkscape:connector-curvature="0"
   sodipodi:nodetypes="ccccccccsccccccccc" />
<rect
   style="opacity:1;fill:#ff9500;fill-opacity:1;stroke:none;stroke-width:2;stroke-linecap:round;stroke-linejoin:round;stroke-miterlimit:4;stroke-dasharray:none;stroke-opacity:1"
   id="rect1537"
   width="14"
   height="2"
   x="1"
   y="4" />
<path
   sodipodi:type="inkscape:offset"
   inkscape:radius="1.0291171"
   inkscape:original="M 10 5 C 9.747611 5 8.9893601 5.1619202 8.9941406 5.5 L 9 9 L 7.9921875 9 C 7.8496665 8.964349 7.7078856 8.9699609 7.5761719 8.9980469 C 7.2768548 8.9498829 6.9940129 9.2057005 6.9980469 9.5019531 C 6.9837949 9.6185097 7.0209739 9.7388054 7.1386719 9.8476562 L 10.099609 12.804688 C 10.118939 12.829838 10.148595 12.842571 10.171875 12.863281 C 10.204955 12.892721 10.234114 12.927626 10.273438 12.947266 C 10.305447 12.963286 10.342098 12.963796 10.376953 12.972656 C 10.414303 12.982156 10.448953 12.99937 10.488281 13 C 10.491081 13.000043 10.493394 12.998047 10.496094 12.998047 C 10.498894 12.99805 10.501106 13 10.503906 13 C 10.543226 12.99937 10.577886 12.982156 10.615234 12.972656 C 10.650084 12.963756 10.686744 12.963256 10.71875 12.947266 C 10.75808 12.927626 10.78724 12.892731 10.820312 12.863281 C 10.843592 12.842571 10.873248 12.829837 10.892578 12.804688 L 13.853516 9.8476562 C 13.971214 9.7388055 14.008393 9.6185097 13.994141 9.5019531 C 13.998175 9.2057005 13.715333 8.9498829 13.416016 8.9980469 C 13.284302 8.9699638 13.142521 8.9643494 13 9 L 12 9 L 12.005859 5.5 C 12.010662 5.1574555 11.255672 4.9954764 11 5 L 10 5 z "
   style="fill:#ffffff;fill-opacity:0.43983403;fill-rule:evenodd"
   id="path1539"
   d="m 10,3.9707031 c -0.3462712,0 -0.6017147,0.054667 -0.9609375,0.1894531 C 8.8594511,4.2275491 8.6668304,4.3102735 8.4511719,4.4921875 8.2355133,4.6741015 7.9581943,5.0434193 7.9648438,5.5136719 l 0.00391,2.484375 C 7.8715531,7.9898762 7.7817611,7.9905437 7.6914062,7.9960938 6.7820939,7.881403 6.0386225,8.5454231 6.0019531,9.4414062 c -0.023511,0.402805 0.1383246,0.8854228 0.4375,1.1621098 l 2.9335938,2.929687 -0.089844,-0.101562 c 0.2269761,0.295315 0.3495655,0.329708 0.2050781,0.201171 -0.044161,-0.0393 0.03364,0.08854 0.3242188,0.234376 0.305356,0.152825 0.433498,0.134769 0.310547,0.103515 -0.02307,-0.0059 0.07887,0.01094 0.07813,0.01367 -3.6e-5,1.33e-4 0.0039,-1.48e-4 0.0039,0 3.5e-4,0.0032 0.05758,0.0058 0.08203,0.01367 -0.02954,-0.0045 -0.05463,-0.0053 -0.07031,-0.0098 0.0026,7.68e-4 0.0011,0.0012 0.0039,0.002 0.02406,0.0068 0.05901,0.0092 0.107422,0.01563 0.06406,0.01491 0.0083,0.02126 0.144531,0.02344 3.8e-5,0 0.01436,-0.0018 0.01563,-0.002 1.69e-4,1.8e-5 0.0059,0 0.0059,0 2.07e-4,-1.8e-5 0.0017,1.9e-5 0.002,0 3.53e-4,3.3e-5 0.0078,0.002 0.0078,0.002 a 1.02922,1.02922 0 0 0 0.01563,0 c 0.136254,-0.0022 0.08047,-0.0085 0.144531,-0.02344 0.04537,-0.0057 0.07881,-0.0074 0.101563,-0.01367 0.01036,-0.0029 0.0069,-0.0032 0.01563,-0.0059 0.0042,-0.0012 0.002,-7.81e-4 0.0059,-0.002 3.5e-4,-0.0032 0.106212,-0.01982 0.08203,-0.01367 -0.123843,0.03163 0.0032,0.04906 0.308593,-0.103515 0.293327,-0.146478 0.370251,-0.273627 0.326172,-0.234376 -0.144475,0.128526 -0.02189,0.09413 0.205078,-0.201171 l -0.08984,0.101562 2.933593,-2.929687 c 0.299176,-0.276687 0.461012,-0.7593048 0.4375,-1.1621098 -0.03667,-0.8959833 -0.78014,-1.5600033 -1.689453,-1.4453124 -0.08781,-0.00539 -0.175229,-0.00556 -0.269531,0.00195 l 0.0039,-2.484375 C 13.041672,5.0489703 12.770542,4.6784917 12.554688,4.4941406 12.338833,4.3097895 12.144041,4.2243523 11.962891,4.15625 11.600589,4.0200453 11.3454,3.964281 10.982422,3.9707031 Z" />
<path
   style="fill:url(#linearGradient871);fill-opacity:1;fill-rule:evenodd"
   d="M 10,4.9999975 C 9.747611,4.9999975 8.9893601,5.1619202 8.9941406,5.5 L 9,9 H 7.9921875 C 7.8496665,8.964349 7.7078856,8.969964 7.5761719,8.99805 7.2768548,8.949886 6.9940129,9.2057036 6.9980469,9.5019562 c -0.014252,0.1165566 0.022927,0.2368523 0.140625,0.3457031 l 2.9609371,2.9570317 c 0.01933,0.02515 0.04899,0.03788 0.07227,0.05859 0.03308,0.02944 0.06224,0.06435 0.101563,0.08399 0.03201,0.01602 0.06866,0.01653 0.103515,0.02539 0.03735,0.0095 0.072,0.02671 0.111328,0.02734 0.0028,4.3e-5 0.0051,-0.002 0.0078,-0.002 0.0028,3e-6 0.005,0.002 0.0078,0.002 0.03932,-6.3e-4 0.07398,-0.01784 0.111328,-0.02734 0.03485,-0.0089 0.07151,-0.0094 0.103516,-0.02539 0.03933,-0.01964 0.06849,-0.05454 0.101562,-0.08399 0.02328,-0.02071 0.05294,-0.03344 0.07227,-0.05859 L 13.853516,9.8476562 C 13.971214,9.7388054 14.008393,9.6185097 13.994141,9.5019531 13.998175,9.2057005 13.715333,8.9498829 13.416016,8.9980469 13.284302,8.9699638 13.142521,8.9643494 13,9 H 12 L 12.0059,5.5 C 12.010703,5.1574555 11.255672,4.9954764 11,5 Z"
   id="path10"
   inkscape:connector-curvature="0"
   sodipodi:nodetypes="cccccccccccccccccccccccccc" />
</svg>
