<?xml version="1.0" encoding="UTF-8" standalone="no"?>
<svg
   xmlns:dc="http://purl.org/dc/elements/1.1/"
   xmlns:cc="http://creativecommons.org/ns#"
   xmlns:rdf="http://www.w3.org/1999/02/22-rdf-syntax-ns#"
   xmlns:svg="http://www.w3.org/2000/svg"
   xmlns="http://www.w3.org/2000/svg"
   xmlns:sodipodi="http://sodipodi.sourceforge.net/DTD/sodipodi-0.dtd"
   xmlns:inkscape="http://www.inkscape.org/namespaces/inkscape"
   viewBox="0 0 16 16"
   version="1.1"
   id="svg4"
   sodipodi:docname="sc_numberformatpercent.svg"
   inkscape:version="0.92.3 (unknown)"
   inkscape:export-filename="/home/rizmut/Dokumen/Rizmut/Github/libreoffice-style-sukapura/images_sukapura/cmd/sc_numberformatpercent.png"
   inkscape:export-xdpi="96"
   inkscape:export-ydpi="96">
  <metadata
     id="metadata10">
    <rdf:RDF>
      <cc:Work
         rdf:about="">
        <dc:format>image/svg+xml</dc:format>
        <dc:type
           rdf:resource="http://purl.org/dc/dcmitype/StillImage" />
        <dc:title></dc:title>
      </cc:Work>
    </rdf:RDF>
  </metadata>
  <defs
     id="defs8" />
  <sodipodi:namedview
     pagecolor="#ffffff"
     bordercolor="#666666"
     borderopacity="1"
     objecttolerance="10"
     gridtolerance="10"
     guidetolerance="10"
     inkscape:pageopacity="0"
     inkscape:pageshadow="2"
     inkscape:window-width="1366"
     inkscape:window-height="699"
     id="namedview6"
     showgrid="true"
     inkscape:zoom="20.85965"
     inkscape:cx="11.372476"
     inkscape:cy="10.872952"
     inkscape:window-x="0"
     inkscape:window-y="0"
     inkscape:window-maximized="1"
     inkscape:current-layer="svg4">
    <inkscape:grid
       type="xygrid"
       id="grid817" />
  </sodipodi:namedview>
  <g
     aria-label="%"
     style="font-style:normal;font-weight:normal;font-size:17.86089516px;line-height:1.25;font-family:sans-serif;letter-spacing:0px;word-spacing:0px;fill:#69696e;fill-opacity:1;stroke:none;stroke-width:0.44652236"
     id="text821">
    <path
       d="m 2.2527686,3.6276843 q 0,-1.1511905 0.7412969,-1.8837663 0.7412969,-0.7412969 1.9448143,-0.7412969 1.2209596,0 1.9535354,0.7412969 0.7412969,0.7325758 0.7412969,1.927372 v 0.6279221 q 0,1.1424694 -0.7412969,1.8750451 Q 6.1598394,6.906833 4.956322,6.906833 3.7789681,6.906833 3.0115078,6.1916995 2.2527686,5.4678449 2.2527686,4.2468853 Z m 1.4825938,0.6715278 q 0,0.6017587 0.3314033,0.9767677 0.3401245,0.3662879 0.8895563,0.3662879 0.5407107,0 0.8721141,-0.3662879 0.3314033,-0.375009 0.3314033,-1.0116523 V 3.6276843 q 0,-0.6017587 -0.3401245,-0.9767677 -0.3314033,-0.375009 -0.8808351,-0.375009 -0.5494319,0 -0.8808352,0.3837301 -0.3226822,0.3750091 -0.3226822,0.99421 z m 4.6222043,6.4710859 q 0,-1.1686327 0.7587392,-1.8924873 0.7587392,-0.7238546 1.9360931,-0.7238546 1.186075,0 1.936093,0.7238546 0.758739,0.7238546 0.758739,1.9535353 v 0.619201 q 0,1.133748 -0.732575,1.875045 -0.723855,0.732576 -1.944815,0.732576 -1.2209593,0 -1.9709774,-0.723855 -0.7412969,-0.732575 -0.7412969,-1.927372 z m 1.4825939,0.680249 q 0,0.593038 0.3401244,0.976768 0.348846,0.375009 0.889556,0.375009 0.558153,0 0.872114,-0.357567 0.322683,-0.366288 0.322683,-1.020373 v -0.654086 q 0,-0.61048 -0.340125,-0.9767676 -0.340124,-0.3662879 -0.872114,-0.3662879 -0.540711,0 -0.880835,0.3662879 Q 9.8401606,10.159818 9.8401606,10.805183 Z M 5.392379,12.933141 4.3022365,12.305219 10.502967,2.3805613 11.59311,3.0084833 Z"
       style="font-style:normal;font-variant:normal;font-weight:500;font-stretch:normal;font-family:Roboto;-inkscape-font-specification:'Roboto Medium';fill:#69696e;fill-opacity:1;stroke-width:0.44652236"
       id="path846" />
  </g>
</svg>
