<?xml version="1.0" encoding="UTF-8" standalone="no"?>
<svg
   xmlns:dc="http://purl.org/dc/elements/1.1/"
   xmlns:cc="http://creativecommons.org/ns#"
   xmlns:rdf="http://www.w3.org/1999/02/22-rdf-syntax-ns#"
   xmlns:svg="http://www.w3.org/2000/svg"
   xmlns="http://www.w3.org/2000/svg"
   xmlns:sodipodi="http://sodipodi.sourceforge.net/DTD/sodipodi-0.dtd"
   xmlns:inkscape="http://www.inkscape.org/namespaces/inkscape"
   viewBox="0 0 16 16"
   version="1.1"
   id="svg10"
   sodipodi:docname="sc_navigator.svg"
   inkscape:export-filename="/home/rizmut/Dokumen/Rizmut/Github/libreoffice-style-sukapura/images_sukapura/cmd/sc_navigator.png"
   inkscape:export-xdpi="96"
   inkscape:export-ydpi="96"
   inkscape:version="0.92.3 (unknown)"><metadata
   id="metadata16">
  <rdf:RDF>
    <cc:Work
       rdf:about="">
      <dc:format>image/svg+xml</dc:format>
      <dc:type
         rdf:resource="http://purl.org/dc/dcmitype/StillImage" />
    </cc:Work>
  </rdf:RDF>
</metadata>
<defs
   id="defs14">
  <radialGradient
     gradientTransform="translate(14.174936,-12.299411)"
     id="a"
     cx="12"
     cy="12"
     gradientUnits="userSpaceOnUse"
     r="10">
    <stop
       offset="0"
       stop-color="#60afff"
       id="stop2" />
    <stop
       offset="1"
       stop-color="#47a3ff"
       id="stop4" />
  </radialGradient>
</defs>
<sodipodi:namedview
   pagecolor="#ffffff"
   bordercolor="#666666"
   borderopacity="1"
   objecttolerance="10"
   gridtolerance="10"
   guidetolerance="10"
   inkscape:pageopacity="0"
   inkscape:pageshadow="2"
   inkscape:window-width="1366"
   inkscape:window-height="699"
   id="namedview12"
   showgrid="false"
   inkscape:zoom="20.85965"
   inkscape:cx="4.9507486"
   inkscape:cy="6.5821925"
   inkscape:window-x="0"
   inkscape:window-y="0"
   inkscape:window-maximized="1"
   inkscape:current-layer="svg10" />



     /&amp;gt;
 <circle
   cx="8"
   cy="8"
   fill="#fff"
   r="7"
   id="circle2"
   style="stroke:none;fill:#54a9ff;fill-opacity:1" />
<g
   id="g839"
   transform="matrix(0.79999952,0,0,0.79999952,2.6816465,2.6078136)">
  <path
     id="path9"
     d="m 10.927734,1.740234 c -0.0744,9.02e-4 -0.148211,0.013419 -0.21875,0.037109 L 6.4804684,3.1855461 c -0.898789,0.04533 -1.723334,0.4420851 -2.3339841,1.0527344 l 1.0878911,1.0878911 a 2,2 0 0 1 0.02148,-0.02149 2,2 0 0 1 1.392582,-0.5644476 2,2 0 0 1 1.433594,0.607422 2,2 0 0 1 0.132812,0.148437 2,2 0 0 1 0.433594,1.244141 2,2 0 0 1 -0.585938,1.414062 l 1.087891,1.087891 C 9.7610404,8.631538 10.157796,7.806994 10.203125,6.908203 L 11.611328,2.6796871 C 11.765616,2.2150181 11.417332,1.736377 10.927734,1.740234 Z M 7.4824214,8.554687 a 2,2 0 0 1 -0.107422,0.04883 2,2 0 0 0 0.107422,-0.04883 z m -0.126953,0.05469 a 2,2 0 0 1 -0.158203,0.05469 2,2 0 0 0 0.158203,-0.05469 z m -0.466797,0.113281 a 2,2 0 0 1 -0.08789,0.0098 2,2 0 0 0 0.08789,-0.0098 z"
     style="fill:#d70015"
     inkscape:connector-curvature="0" />
  <path
     id="path11"
     d="M 4.1464843,4.2382809 C 3.5358342,4.84893 3.1390789,5.673474 3.0937499,6.572265 l -1.4082031,4.228516 c -0.184023,0.557236 0.3451077,1.086367 0.9023437,0.902344 l 4.2285159,-1.408203 c 0.898789,-0.04533 1.723334,-0.442085 2.333984,-1.052735 L 8.0624994,8.154296 a 2,2 0 0 1 -1.414062,0.585938 2,2 0 0 1 -0.396484,-0.03906 2,2 0 0 1 -0.002,0 2,2 0 0 1 -1.384719,-1.05469 2,2 0 0 1 -0.08008,-0.181641 2,2 0 0 1 -0.10742,-0.384765 2,2 0 0 1 -0.029297,-0.339844 2,2 0 0 1 0.470703,-1.289062 2,2 0 0 1 0.115235,-0.125 z"
     style="fill:#b5b1af"
     inkscape:connector-curvature="0" />
  <path
     id="path13"
     d="m 10.927734,1.740234 c -0.0744,9.02e-4 -0.148211,0.013419 -0.21875,0.037109 L 6.4804684,3.1855461 c -0.898789,0.04533 -1.723334,0.442085 -2.3339841,1.0527344 l 1.0878911,1.0878911 a 2,2 0 0 1 0.02148,-0.02149 2,2 0 0 1 1.392582,-0.5644476 2,2 0 0 1 1.216797,0.416016 L 11.374999,1.9160152 C 11.251961,1.8145837 11.104892,1.7388384 10.927734,1.740234 Z"
     style="fill:#ff4f44"
     inkscape:connector-curvature="0" />
  <path
     id="path15"
     d="M 4.1464843,4.2382809 C 3.5358342,4.84893 3.1390789,5.673474 3.0937499,6.572265 l -1.4082031,4.228516 c -0.0078,0.0236 -0.00643,0.04686 -0.011719,0.07031 L 4.9707034,7.828125 A 2,2 0 0 1 4.8652344,7.646484 2,2 0 0 1 4.7851564,7.464843 2,2 0 0 1 4.6777344,7.080078 2,2 0 0 1 4.6484374,6.740234 a 2,2 0 0 1 0.470703,-1.289062 2,2 0 0 1 0.115235,-0.125 z"
     style="fill:#ffffff"
     inkscape:connector-curvature="0" />
</g>
<path
   d="m8 0a8 8 0 0 0 -8 8 8 8 0 0 0 8 8 8 8 0 0 0 8-8 8 8 0 0 0 -8-8zm0 1a7 7 0 0 1 7 7 7 7 0 0 1 -7 7 7 7 0 0 1 -7-7 7 7 0 0 1 7-7z"
   fill="#8c8c8c"
   id="path8"
   style="fill:#0070f5;fill-opacity:1" />
</svg>
