<?xml version="1.0" encoding="UTF-8" standalone="no"?>
<svg
   xmlns:dc="http://purl.org/dc/elements/1.1/"
   xmlns:cc="http://creativecommons.org/ns#"
   xmlns:rdf="http://www.w3.org/1999/02/22-rdf-syntax-ns#"
   xmlns:svg="http://www.w3.org/2000/svg"
   xmlns="http://www.w3.org/2000/svg"
   xmlns:sodipodi="http://sodipodi.sourceforge.net/DTD/sodipodi-0.dtd"
   xmlns:inkscape="http://www.inkscape.org/namespaces/inkscape"
   viewBox="0 0 16 16"
   version="1.1"
   id="svg4"
   sodipodi:docname="sc_numberformatdecimal.svg"
   inkscape:version="0.92.3 (unknown)"
   inkscape:export-filename="/home/rizmut/Dokumen/Rizmut/Github/libreoffice-style-sukapura/images_sukapura/cmd/sc_numberformatpercent.png"
   inkscape:export-xdpi="96"
   inkscape:export-ydpi="96">
  <metadata
     id="metadata10">
    <rdf:RDF>
      <cc:Work
         rdf:about="">
        <dc:format>image/svg+xml</dc:format>
        <dc:type
           rdf:resource="http://purl.org/dc/dcmitype/StillImage" />
        <dc:title></dc:title>
      </cc:Work>
    </rdf:RDF>
  </metadata>
  <defs
     id="defs8" />
  <sodipodi:namedview
     pagecolor="#ffffff"
     bordercolor="#666666"
     borderopacity="1"
     objecttolerance="10"
     gridtolerance="10"
     guidetolerance="10"
     inkscape:pageopacity="0"
     inkscape:pageshadow="2"
     inkscape:window-width="1366"
     inkscape:window-height="699"
     id="namedview6"
     showgrid="true"
     inkscape:zoom="14.75"
     inkscape:cx="7.3363709"
     inkscape:cy="8.4082457"
     inkscape:window-x="0"
     inkscape:window-y="0"
     inkscape:window-maximized="1"
     inkscape:current-layer="svg4">
    <inkscape:grid
       type="xygrid"
       id="grid817" />
  </sodipodi:namedview>
  <g
     aria-label="00"
     style="font-style:normal;font-weight:normal;font-size:19.12579727px;line-height:1.25;font-family:sans-serif;letter-spacing:-0.69999999px;word-spacing:0px;fill:#69696e;fill-opacity:1;stroke:none;stroke-width:0.47814494"
     id="text822">
    <path
       d="m 7.2667029,8.999248 q 0,3.007083 -0.8778443,4.501286 -0.8778442,1.484864 -2.7549366,1.484864 -1.8210598,0 -2.71758152,-1.428831 -0.89652174,-1.428832 -0.93387682,-4.2958335 v -2.334692 q 0,-2.9790671 0.87784421,-4.4452537 0.88718303,-1.4661866 2.75493663,-1.4661866 1.8397373,0 2.7175815,1.3914765 0.887183,1.3914764 0.9338769,4.2117844 z M 5.6137409,6.6365397 q 0,-2.1572555 -0.4762772,-3.1751812 Q 4.6611865,2.434094 3.6152445,2.434094 q -1.0179257,0 -1.4942029,1.008587 -0.4762772,0.9992482 -0.4949547,3.0257609 v 2.8016304 q 0,2.1479167 0.4949547,3.2312137 0.4949547,1.073958 1.5128804,1.073958 1.008587,0 1.4848642,-1.017925 0.4762772,-1.017926 0.4949547,-3.1098101 z"
       style="font-style:normal;font-variant:normal;font-weight:normal;font-stretch:normal;font-family:'Roboto Condensed';-inkscape-font-specification:'Roboto Condensed, ';letter-spacing:-0.69999999px;fill:#69696e;fill-opacity:1;stroke-width:0.47814494"
       id="path826" />
    <path
       d="m 16.017536,8.999248 q 0,3.007083 -0.877844,4.501286 -0.877844,1.484864 -2.754936,1.484864 -1.82106,0 -2.717582,-1.428831 Q 8.7706522,12.127735 8.7332972,9.2607335 v -2.334692 q 0,-2.9790671 0.8778442,-4.4452537 0.8871826,-1.4661866 2.7549366,-1.4661866 1.839737,0 2.717582,1.3914765 0.887183,1.3914764 0.933876,4.2117844 z M 14.364574,6.6365397 q 0,-2.1572555 -0.476277,-3.1751812 Q 13.41202,2.434094 12.366078,2.434094 q -1.017926,0 -1.494203,1.008587 -0.476277,0.9992482 -0.494955,3.0257609 v 2.8016304 q 0,2.1479167 0.494955,3.2312137 0.494955,1.073958 1.512881,1.073958 1.008587,0 1.484864,-1.017925 0.476277,-1.017926 0.494954,-3.1098101 z"
       style="font-style:normal;font-variant:normal;font-weight:normal;font-stretch:normal;font-family:'Roboto Condensed';-inkscape-font-specification:'Roboto Condensed, ';letter-spacing:-0.69999999px;fill:#69696e;fill-opacity:1;stroke-width:0.47814494"
       id="path828" />
  </g>
  <path
     inkscape:connector-curvature="0"
     style="fill:#696969"
     d="m 7,14 v 2 h 2 v -2 z"
     id="path2"
     sodipodi:nodetypes="ccccc" />
</svg>
