<svg viewBox="0 0 16 16" xmlns="http://www.w3.org/2000/svg"><g fill="#4b4b4f" transform="matrix(1 0 0 .87494239 0 1.000922)"><path d="m5.9946383 16h-1.9946383v-13.4855086l-4 1.4983898v-1.8374416l5.6836463-2.17649325h.310992z" stroke-width="1.046413"/><path d="m16 15.990178h-8.9673847v-1.439964l4.7374857-6.0630076q1.052775-1.3750034 1.447565-2.2303205.404191-.8661439.404191-1.7864217 0-1.234255-.648584-2.0246113-.648584-.7903563-1.729559-.7903563-1.2971683 0-2.0209513.8553171-.7143826.8444903-.7143826 2.360242h-1.7389583q0-2.1761864 1.2125708-3.5187095 1.2219704-1.34252296 3.2617214-1.34252296 1.908155 0 3.017328 1.15846746 1.109174 1.1476406 1.109174 3.063984 0 2.3277616-2.575539 5.5433207l-3.6659119 4.5797356h6.8712349z"/></g></svg>