<svg viewBox="0 0 16 16" xmlns="http://www.w3.org/2000/svg" xmlns:xlink="http://www.w3.org/1999/xlink"><radialGradient id="a" cx="10.994179" cy="4.42844" gradientTransform="matrix(1.4 .00000004 -.00000001 1.2 -4.39185 -2.314129)" gradientUnits="userSpaceOnUse" r="5"><stop offset="0" stop-color="#d7d7d7"/><stop offset=".49894297" stop-color="#f7f7f7"/><stop offset="1" stop-color="#fff"/></radialGradient><linearGradient id="b" gradientUnits="userSpaceOnUse" x1="10" x2="11.500001" y1="4" y2="2.499999"><stop offset="0" stop-color="#fff"/><stop offset=".77967989" stop-color="#f1f1f1"/><stop offset="1" stop-color="#d5d5d5"/></linearGradient><linearGradient id="c" gradientUnits="userSpaceOnUse" x1="8" x2="8" y1="5" y2="15"><stop offset="0" stop-color="#68caf8"/><stop offset=".5" stop-color="#70cef9"/><stop offset=".71428573" stop-color="#79d3fb"/><stop offset=".9285714" stop-color="#67c1ed"/><stop offset="1" stop-color="#67bfea"/></linearGradient>





     /&amp;amp;amp;gt;
 <g fill-rule="evenodd"><path d="m10.5 3.5000002c-.265199.0000511-.519519.1054326-.707031.2929688l-3.207031 1.7070312-5.085938-.0000004c-.5522619.0000552-.9999448.4477381-1 1.0000002v9h1 11l1-8.5v-2.5c-.000055-.5522619-.447738-.9999448-1-1z" fill="#94ddff" stroke="#2bbcff"/><path d="m3 1v12h10v-9.2949219l-2.695312-2.7050781z" fill="url(#a)"/><path d="m3 0c-.554 0-1 .446-1 1v12c0 .554.446 1 1 1h10c.554 0 1-.446 1-1v-8.5-.8632812l-3.636719-3.6367188h-.863281zm0 1h6v3.5c0 .277.223.5.5.5h3.5v8h-10zm7 0 3 3h-3z" fill="#98989d"/><path d="m10 1 3 3h-3z" fill="url(#b)"/><path d="m13.5.5-9.5000001 10.5h9.5000001zm-2 5.4999997v.976392 2.023608h-2-.5z" fill="#fc0" fill-rule="evenodd" stroke="#c89e00" stroke-linecap="round" stroke-linejoin="round"/><path d="m.79012198 15.5h1.00000002 10.709878l2.744141-7.0078125c.29761-.9920364.297634-.9921875-.742188-.9921875h-.002-1-1-7.6883936c-1.0211394 0-1.0207621-.0005516-1.2792499.9902344l-1.7421875 4.1757816z" fill="url(#c)" stroke="#15b0f5"/></g></svg>