<svg viewBox="0 0 16 16" xmlns="http://www.w3.org/2000/svg">



     /&amp;amp;gt;
 <path d="m7.2519531.00195313a.99805744.99805744 0 0 0 -.9335937.64843749l-5.2519532 14.00000038a.99805744.99805744 0 0 0 .9335938 1.347656h1.875a.99805744.99805744 0 0 0 .9394531-.662109l1.0507813-2.94336h4.2812496l1.035157 2.939453a.99805744.99805744 0 0 0 .941406.666016h1.875a.99805744.99805744 0 0 0 .935547-1.34375l-5.1699221-14.00000012a.99805744.99805744 0 0 0 -.9355469-.65234375zm.7773438 6.34179687.8652343 2.4667969h-1.7460937z" fill="#4b4b4f"/><path d="m10.853402 11.39448h-5.6908066l-1.2874283 3.605519h-1.8751671l5.2523339-13.999027h1.576633l5.1683711 13.999027h-1.875167zm-5.1217261-1.586428h4.5713031l-2.2390056-6.3745568h-.055975z" fill="#fff"/><g fill="#eac282" transform="translate(-.495572 -.5)"><path d="m8.0648836 13.101074-1.0693114 2.712486 2.9227772-.657095z" fill="#a2a2a7" stroke="#848489" stroke-linecap="square"/><path d="m11.861005 8.958496-3.524935 3.651053 2.158551 2.207933 3.493336-3.734963z" fill="#fc0" stroke="#c89e00"/><path d="m14.065594 7c-.142171 0-.283638.05379-.392578.1625977l-1.255371 1.2524416 2.135742 2.1372067 1.283203-1.229004c.21788-.2175952.21788-.5675602 0-.7851562l-1.376953-1.3754881c-.108941-.108798-.251871-.1625977-.394043-.1625977z" fill="#e68497" stroke="#b6496c"/><path d="m13.411678 10.101871-.552201-.5355508-3.5918326 3.4336798.7279278.5z" fill="#ffe014"/></g></svg>