<svg viewBox="0 0 16 16" xmlns="http://www.w3.org/2000/svg" xmlns:xlink="http://www.w3.org/1999/xlink"><radialGradient id="a" cx="10.994179" cy="4.42844" gradientTransform="matrix(.00000004 -1.4 1.2 .00000001 -2.314129 20.39185)" gradientUnits="userSpaceOnUse" r="5"><stop offset="0" stop-color="#d7d7d7"/><stop offset=".49894297" stop-color="#f7f7f7"/><stop offset="1" stop-color="#fff"/></radialGradient><linearGradient id="b" gradientTransform="matrix(0 -1 1 0 0 16)" gradientUnits="userSpaceOnUse" x1="10" x2="11.500001" y1="4" y2="2.499999"><stop offset="0" stop-color="#fff"/><stop offset=".77967989" stop-color="#f1f1f1"/><stop offset="1" stop-color="#d5d5d5"/></linearGradient><linearGradient id="c" gradientUnits="userSpaceOnUse" x1="-17.694915" x2="-17.694915" y1="17.220339" y2="8.220339"><stop offset="0" stop-color="#0040dd"/><stop offset="1" stop-color="#0a84ff"/></linearGradient>


     /&amp;gt;
 <path d="m1.0000001 13h13.9999999v-10h-11.2949219l-2.705078 2.695312z" fill="url(#a)"/><path d="m3.6367188 2-3.6367188 3.6367188v.8632812 6.5c0 .554.446 1 1 1h6.4257812c-.1403261-.318308-.2527262-.651692-.3242187-1h-6.1015625v-6h3.5c.277 0 .5-.223.5-.5v-3.5h5.271484 1.728516 1.728516.271484.091797.908203v2 .7402344 2.1425781.234375 2.1425785.740234 2h-.908203-.091797-.271484-1.728516-1.728516-2.271484v1h4 2 .199219.800781c.554 0 1-.446 1-1v-2-1.9042969-.1230469-1.9453124-.1230469-1.9042969-2c0-.554-.446-1-1-1h-.800781-.199219-2-7.5zm.3632812 1v3h-3z" fill="#98989d"/><path d="m11.970703 6c-.214577.00645-.421384.081779-.589844.2148438l-1.9999996 1.578125c-.523396.4129427-.5038657 1.2127063.039063 1.5996093l2.0000001 1.4218749c.525014.374075 1.261592.161031 1.505859-.435547.6030695.3418 1.0742185.868977 1.0742185 1.621094 0 .368019-.102765.705892-.271484 1-.343104.598091-.980121 1-1.728516 1h2 .199219.800781c.554 0 1-.446 1-1v-2-1.9042969c-.284942-.3717203-.62093-.6986483-1-.9785156-.585782-.432483-1.260358-.7569633-2-.9140625v-.203125c.000184-.5639067-.465631-1.0164628-1.029297-1zm.029297 8c-.748395 0-1.385412-.401909-1.728516-1-.168719-.294108-.271484-.631981-.271484-1-.0000552-.552262-.4477381-.999945-1-1h-1c-.5522619.000055-.9999448.447738-1 1 0 .34237.03516.676489.1015625 1 .071492.348308.1838926.681692.3242187 1z" fill="#fff" fill-opacity=".784314"/><path d="m12 7-2 1.578125 2 1.421875v-1a3 3 0 0 1 3 3 3 3 0 0 1 -3 3 3 3 0 0 1 -3-3h-1a4 4 0 0 0 4 4 4 4 0 0 0 4-4 4 4 0 0 0 -4-4z" fill="url(#c)"/><path d="m1 6 3-3v3z" fill="url(#b)"/></svg>