<svg viewBox="0 0 16 16" xmlns="http://www.w3.org/2000/svg" xmlns:xlink="http://www.w3.org/1999/xlink"><linearGradient id="a" gradientUnits="userSpaceOnUse" x1="11.995773" x2="11.995773" y1="15" y2="8"><stop offset="0" stop-color="#0040dd"/><stop offset="1" stop-color="#0a84ff"/></linearGradient><linearGradient id="b" gradientUnits="userSpaceOnUse" x1="8" x2="8" y1="4" y2="14"><stop offset="0" stop-color="#68caf8"/><stop offset=".5" stop-color="#70cef9"/><stop offset=".71428573" stop-color="#79d3fb"/><stop offset=".9285714" stop-color="#67c1ed"/><stop offset="1" stop-color="#67bfea"/></linearGradient>








     /&amp;amp;amp;amp;gt;
 <g transform="translate(-2.563243 -7)"><path d="m2.563243 22h16.000002v1h-16.000002z" fill="#b3b3b3"/><path d="m9.5632427 20v2h-2v1h6.0000003v-1h-2v-2z" fill="#808080"/></g><g transform="translate(0 -1)"><g fill-rule="evenodd" transform="translate(1 -1)"><path d="m10.5 2.5000002c-.265199.0000511-.519519.1054326-.707031.2929688l-3.207031 1.7070312-5.085938-.0000004c-.5522619.0000552-.9999448.4477381-1 1.0000002v9h1 12v-8.5-2.5c-.000055-.5522619-.447738-.9999448-1-1z" fill="#94ddff" stroke="#2bbcff"/><path d="m.5 14.5h1 12v-6c.29761-.9920364-1.78201-.9921875-.742188-.9921875h-.002-1-1-8.9785156c-1.02113938 0-1.02076208-.0005516-1.27924988.9902344z" fill="url(#b)" stroke="#15b0f5"/></g><path d="m9.9960938 5a1.0001076 1.0001076 0 0 0 -.5546876 1.8320312c.6859958.4573306.7745848.5813357.8281248.8222657.03346.1505479-.08482.8240633-.158203 1.34375h-.6132811c-.6278615-.00168-1.1783817.4138462-1.390625.9257812-.2122434.5119359-.1168075 1.1975939.328125 1.6406249l1.4355469 1.435547h5.1289062v-4.0019531h-.541016c-.03471-.9317336-.17862-1.8164195-.726562-2.5390625-.756815-.998111-2.069265-1.4589844-3.7363282-1.4589844z" fill="#fff" fill-opacity=".784314" transform="translate(0 1)"/><path d="m9.4957731 10.998047c-.4482623-.0012-.6731171.541131-.3554688.857422l2.9999997 3c.196117.196811.514821.196811.710938 0l3-3c.317648-.316291.09279-.858661-.355469-.857422h-2c.171573-2.4944903-.5-3.998047-3.4999999-3.998047 1.4999999 1 1.4999999 1.5.9999999 4z" fill="url(#a)"/></g></svg>