<svg viewBox="0 0 16 16" xmlns="http://www.w3.org/2000/svg">


     /&amp;amp;gt;
 <path d="m7.2519531.00195313a.99805744.99805744 0 0 0 -.9335937.64843749l-5.2519532 14.00000038a.99805744.99805744 0 0 0 .9335938 1.347656h1.875a.99805744.99805744 0 0 0 .9394531-.662109l1.0507813-2.94336h4.2812496l1.035157 2.939453a.99805744.99805744 0 0 0 .941406.666016h1.875a.99805744.99805744 0 0 0 .935547-1.34375l-5.1699221-14.00000012a.99805744.99805744 0 0 0 -.9355469-.65234375zm.7773438 6.34179687.8652343 2.4667969h-1.7460937z" fill="#4b4b4f"/><path d="m10.853402 11.39448h-5.6908066l-1.2874283 3.605519h-1.8751671l5.2523339-13.999027h1.576633l5.1683711 13.999027h-1.875167zm-5.1217261-1.586428h4.5713031l-2.2390056-6.3745568h-.055975z" fill="#fff"/></svg>