<?xml version="1.0" encoding="UTF-8" standalone="no"?>
<svg
   xmlns:dc="http://purl.org/dc/elements/1.1/"
   xmlns:cc="http://creativecommons.org/ns#"
   xmlns:rdf="http://www.w3.org/1999/02/22-rdf-syntax-ns#"
   xmlns:svg="http://www.w3.org/2000/svg"
   xmlns="http://www.w3.org/2000/svg"
   xmlns:sodipodi="http://sodipodi.sourceforge.net/DTD/sodipodi-0.dtd"
   xmlns:inkscape="http://www.inkscape.org/namespaces/inkscape"
   viewBox="0 0 16 16"
   version="1.1"
   id="svg8"
   sodipodi:docname="sc_overline.svg"
   inkscape:version="0.92.3 (2405546, 2018-03-11)"><metadata
   id="metadata14">
  <rdf:RDF>
    <cc:Work
       rdf:about="">
      <dc:format>image/svg+xml</dc:format>
      <dc:type
         rdf:resource="http://purl.org/dc/dcmitype/StillImage" />
    </cc:Work>
  </rdf:RDF>
</metadata>
<defs
   id="defs12" />
<sodipodi:namedview
   pagecolor="#ffffff"
   bordercolor="#666666"
   borderopacity="1"
   objecttolerance="10"
   gridtolerance="10"
   guidetolerance="10"
   inkscape:pageopacity="0"
   inkscape:pageshadow="2"
   inkscape:window-width="1366"
   inkscape:window-height="716"
   id="namedview10"
   showgrid="false"
   inkscape:zoom="14.75"
   inkscape:cx="-4.5084746"
   inkscape:cy="8"
   inkscape:window-x="-8"
   inkscape:window-y="-8"
   inkscape:window-maximized="1"
   inkscape:current-layer="svg8" />
/&amp;amp;gt;<g
   fill="#696969"
   id="g6"
   style="fill:#4b4b4f;fill-opacity:1">
  <rect
     height="1"
     ry=".5"
     width="14"
     x="1"
     id="rect2"
     style="fill:#4b4b4f;fill-opacity:1" />
  <path
     d="m8 2a6 7 0 0 0 -6 7 6 7 0 0 0 6 7 6 7 0 0 0 6-7 6 7 0 0 0 -6-7zm0 2a4 5 0 0 1 4 5 4 5 0 0 1 -4 5 4 5 0 0 1 -4-5 4 5 0 0 1 4-5z"
     id="path4"
     style="fill:#4b4b4f;fill-opacity:1" />
</g>
</svg>
