<svg viewBox="0 0 16 16" xmlns="http://www.w3.org/2000/svg" xmlns:xlink="http://www.w3.org/1999/xlink"><linearGradient id="a" gradientTransform="matrix(-1 0 0 1 3.02254 2)" gradientUnits="userSpaceOnUse" x1="9" x2="9" y1="15" y2="8"><stop offset="0" stop-color="#0040dd"/><stop offset="1" stop-color="#0a84ff"/></linearGradient><linearGradient id="b" gradientUnits="userSpaceOnUse" x1="8" x2="8" y1="4" y2="14"><stop offset="0" stop-color="#68caf8"/><stop offset=".5" stop-color="#70cef9"/><stop offset=".71428573" stop-color="#79d3fb"/><stop offset=".9285714" stop-color="#67c1ed"/><stop offset="1" stop-color="#67bfea"/></linearGradient>








     /&amp;amp;amp;amp;gt;
 <g fill-rule="evenodd" transform="translate(1 -1)"><path d="m10.5 2.5000002c-.265199.0000511-.519519.1054326-.707031.2929688l-3.207031 1.7070312-5.085938-.0000004c-.5522619.0000552-.9999448.4477381-1 1.0000002v9h1 12v-8.5-2.5c-.000055-.5522619-.447738-.9999448-1-1z" fill="#94ddff" stroke="#2bbcff"/><path d="m12.5 1.5000003-9.5000001 10.4999997h9.5000001zm-2 5.4999997v.976392 2.023608h-2-.5z" fill="#fc0" fill-rule="evenodd" stroke="#c89e00" stroke-linecap="round" stroke-linejoin="round"/><path d="m.5 14.5h1 12v-6c.29761-.9920364-1.78201-.9921875-.742188-.9921875h-.002-1-1-8.9785156c-1.02113938 0-1.02076208-.0005516-1.27924988.9902344z" fill="url(#b)" stroke="#15b0f5"/></g><path d="m7 6a1.0009974 1.0009974 0 0 0 -.5546875 1.8320312c.6859387.4572926.7746486.5816217.828125.8222657.0334475.1505135-.0865966.823226-.1601563 1.34375h-.6113281c-.6282206-.0016818-1.1782573.4135461-1.390625.9257811-.2123676.512235-.1190151 1.19734.3261719 1.640625l1.4355469 1.435547h5.2519531l1.4375-1.4375c.444091-.443337.538329-1.126929.326172-1.638672-.212364-.512239-.762361-.9275177-1.390625-.9257811h-1.035156c-.034712-.9318503-.17847-1.8162196-.726563-2.5390625-.7570236-.9983872-2.0691163-1.4589844-3.736328-1.4589844z" fill="#fff" fill-opacity=".784314"/><path d="m6.5 10.998047c-.4482623-.0012-.6731171.541131-.3554688.857422l3 3c.1961165.196811.5148211.196811.7109376 0l3.0000002-3c.317648-.316291.092793-.858661-.355469-.857422h-2c.171573-2.4944903-.5-3.998047-3.5-3.998047 1.5 1 1.5 1.5 1 4z" fill="url(#a)"/></svg>