<?xml version="1.0" encoding="UTF-8" standalone="no"?>
<svg
   xmlns:dc="http://purl.org/dc/elements/1.1/"
   xmlns:cc="http://creativecommons.org/ns#"
   xmlns:rdf="http://www.w3.org/1999/02/22-rdf-syntax-ns#"
   xmlns:svg="http://www.w3.org/2000/svg"
   xmlns="http://www.w3.org/2000/svg"
   xmlns:xlink="http://www.w3.org/1999/xlink"
   xmlns:sodipodi="http://sodipodi.sourceforge.net/DTD/sodipodi-0.dtd"
   xmlns:inkscape="http://www.inkscape.org/namespaces/inkscape"
   viewBox="0 0 16 16"
   version="1.1"
   id="svg987"
   sodipodi:docname="sc_optimizetable.svg"
   inkscape:version="0.92.3 (unknown)"><metadata
   id="metadata993">
  <rdf:RDF>
    <cc:Work
       rdf:about="">
      <dc:format>image/svg+xml</dc:format>
      <dc:type
         rdf:resource="http://purl.org/dc/dcmitype/StillImage" />
      <dc:title></dc:title>
    </cc:Work>
  </rdf:RDF>
</metadata>
<defs
   id="defs991">
  <linearGradient
     inkscape:collect="always"
     xlink:href="#a-36"
     id="linearGradient1568"
     x1="12"
     y1="16"
     x2="12"
     y2="7"
     gradientUnits="userSpaceOnUse" />
  <linearGradient
     gradientTransform="translate(-31.118644,6.6101695)"
     id="a-36"
     gradientUnits="userSpaceOnUse"
     x1="14"
     x2="13.79661"
     y1="22"
     y2="2.1355929">
    <stop
       offset="0"
       stop-color="#0040dd"
       id="stop1586"
       style="stop-color:#2a9240;stop-opacity:1" />
    <stop
       offset="1"
       stop-color="#0a84ff"
       id="stop1588"
       style="stop-color:#32d74b;stop-opacity:1" />
  </linearGradient>
</defs>
<sodipodi:namedview
   pagecolor="#ffffff"
   bordercolor="#666666"
   borderopacity="1"
   objecttolerance="10"
   gridtolerance="10"
   guidetolerance="10"
   inkscape:pageopacity="0"
   inkscape:pageshadow="2"
   inkscape:window-width="1366"
   inkscape:window-height="699"
   id="namedview989"
   showgrid="false"
   inkscape:zoom="20.85965"
   inkscape:cx="3.6208184"
   inkscape:cy="8.6552865"
   inkscape:window-x="0"
   inkscape:window-y="0"
   inkscape:window-maximized="1"
   inkscape:current-layer="svg987" />





     /&amp;amp;gt;
 <path
   d="m0 5v9.5c-.00038442.276301.22369855.500384.5.5h15c.276301.000384.500384-.223699.5-.5v-9.5h-.998047v9.001953h-14.00390612v-9.001953z"
   fill="#69696e"
   id="path977" />
<path
   d="m1 5h14v9h-14z"
   fill="#fff"
   id="path979" />
<path
   d="m0 1h16v4h-16z"
   fill="#0a84ff"
   id="path981" />
<path
   d="m5 5v4h-4v1h4v4h1v-4h4v4h1v-4h4v-1h-4v-4h-1v4h-4v-4z"
   fill="#bababa"
   id="path983" />
<path
   d="m.50195312 1.0019531c-.27630145-.000384-.50038441.223699-.49999999.5v3.4980469h.99804687 14v-1h-4v-2h4.003906v3h.998047v-3.4980469c.000384-.276301-.223699-.500384-.5-.5zm.49804688.9980469h4v2h-4zm5 0h4v2h-4z"
   fill="#0040dd"
   id="path985" />
<path
   d="M 16 1.4921875 L 16 5 L 16.001953 5 L 16.001953 1.5019531 C 16.001958 1.4984994 16.000065 1.4956246 16 1.4921875 z M 15.238281 6.0117188 A 1.0001 1.0001 0 0 0 15.066406 6.03125 C 15.044606 6.0319482 15.023343 6.03228 15.001953 6.03125 L 15.001953 10.84375 L 16 9.7285156 L 16 6.2382812 C 15.832213 6.1436354 15.649654 6.0663247 15.4375 6.0273438 A 1.0001 1.0001 0 0 0 15.238281 6.0117188 z M 15 6.03125 C 14.93262 6.0279088 14.866257 6.0192947 14.796875 6.0332031 A 1.0001 1.0001 0 0 0 14.787109 6.0351562 C 14.372821 6.1226944 14.008618 6.3387188 13.734375 6.6660156 L 11.648438 9 L 11.539062 9.1210938 L 10 10.84375 L 8.9375 12.033203 L 7.7089844 10.832031 C 7.2244837 10.358253 6.5928585 10.187295 6 10.314453 C 5.8498522 10.346657 5.7027565 10.404364 5.5605469 10.474609 C 5.5229318 10.493379 5.4859897 10.513686 5.4492188 10.535156 C 5.3086531 10.616564 5.1729062 10.710728 5.0488281 10.832031 C 5.0301351 10.850301 5.017779 10.871855 5 10.890625 C 4.3090251 11.62022 4.3090142 12.707876 5 13.4375 C 5.017779 13.45627 5.0301341 13.477814 5.0488281 13.496094 L 5.5644531 14 L 12.177734 14 L 15 10.845703 L 15 10 L 15 9 L 15 6.03125 z M 5.5664062 14.001953 L 6.5878906 15 L 11.283203 15 L 12.175781 14.001953 L 5.5664062 14.001953 z M 9.0703125 14.474609 L 8.9941406 14.556641 L 8.9121094 14.476562 A 1.0001 1.0001 0 0 0 9.0703125 14.474609 z "
   id="path1538"
   style="fill:#ffffff;fill-opacity:0.78431374;stroke:none" />
<path
   inkscape:connector-curvature="0"
   style="fill:url(#linearGradient1568);fill-opacity:1"
   d="m 15.256286,7.0117709 c -0.08447,-0.015517 -0.172185,-0.016417 -0.262359,0.00165 -0.192169,0.040605 -0.369263,0.1463867 -0.493855,0.2950819 L 8.9853584,13.478394 7.0099382,11.546949 c -0.3304046,-0.323092 -0.9316084,-0.323066 -1.2620744,0 -0.3304218,0.323075 -0.3304481,0.91087 0,1.233979 L 8.3817575,15.356186 9.0676676,16 9.6712684,15.302535 15.817019,8.4351788 C 16.252921,7.97119 15.847574,7.120366 15.256286,7.0117447 Z"
   id="path6-3" />
</svg>
