<?xml version="1.0" encoding="UTF-8" standalone="no"?>
<svg
   xmlns:dc="http://purl.org/dc/elements/1.1/"
   xmlns:cc="http://creativecommons.org/ns#"
   xmlns:rdf="http://www.w3.org/1999/02/22-rdf-syntax-ns#"
   xmlns:svg="http://www.w3.org/2000/svg"
   xmlns="http://www.w3.org/2000/svg"
   xmlns:sodipodi="http://sodipodi.sourceforge.net/DTD/sodipodi-0.dtd"
   xmlns:inkscape="http://www.inkscape.org/namespaces/inkscape"
   viewBox="0 0 16 16"
   version="1.1"
   id="svg14"
   sodipodi:docname="sc_pasteonlytext.svg"
   inkscape:version="0.92.3 (2405546, 2018-03-11)"
   inkscape:export-filename="/home/rizmut/Dokumen/Rizmut/Github/libreoffice-style-sukapura/images_sukapura/cmd/sc_pasteonlytext.png"
   inkscape:export-xdpi="96"
   inkscape:export-ydpi="96"><metadata
   id="metadata20">
  <rdf:RDF>
    <cc:Work
       rdf:about="">
      <dc:format>image/svg+xml</dc:format>
      <dc:type
         rdf:resource="http://purl.org/dc/dcmitype/StillImage" />
    </cc:Work>
  </rdf:RDF>
</metadata>
<defs
   id="defs18" />
<sodipodi:namedview
   pagecolor="#ffffff"
   bordercolor="#666666"
   borderopacity="1"
   objecttolerance="10"
   gridtolerance="10"
   guidetolerance="10"
   inkscape:pageopacity="0"
   inkscape:pageshadow="2"
   inkscape:window-width="1366"
   inkscape:window-height="714"
   id="namedview16"
   showgrid="true"
   inkscape:zoom="59"
   inkscape:cx="8.375302"
   inkscape:cy="6.3921892"
   inkscape:window-x="0"
   inkscape:window-y="28"
   inkscape:window-maximized="1"
   inkscape:current-layer="g12"
   inkscape:snap-global="false">
  <inkscape:grid
     type="xygrid"
     id="grid827" />
</sodipodi:namedview>
/&amp;amp;gt;<path
   d="m2.5 2.5c-.554 0-1 .446-1 1v11c0 .554.446 1 1 1h11c.554 0 1-.446 1-1v-11c0-.554-.460187-1.1245722-1-1h-1v1c0 .554-.446 1-1 1h-7c-.554 0-.9942233-.4460301-1-1v-1z"
   fill="#e2b96c"
   stroke="#bc974c"
   id="path2" />
<path
   d="m8 .5c-1.1045695 0-2 .8954305-2 2h-2.5v2h4.5 4.5v-2h-2.5c0-1.1045695-.8954305-2-2-2zm0 1c.5522847 0 1 .4477153 1 1s-.4477153 1-1 1-1-.4477153-1-1c.0002944-.03328.00225-.066524.00586-.099609.0511359-.510819.4807684-.8999361.99414-.900391z"
   fill="#797979"
   stroke="#757575"
   id="path4" />
<g
   transform="translate(-8 -1)"
   id="g12">
  <path
     d="m4 3c-.554 0-1 .446-1 1v10c0 .554.446 1 1 1h8c.554 0 1-.446 1-1v-10c0-.554-.446-1-1-1z"
     transform="translate(8 1)"
     id="path6"
     style="fill:#a1a1a1;fill-opacity:1"
     fill="#808080" />
  <path
     d="m12 5v10h8v-10z"
     id="path8"
     fill="#fdf9f3" />
  <g
     aria-label="a"
     style="font-style:normal;font-weight:normal;font-size:9.11806297px;line-height:1.25;font-family:sans-serif;letter-spacing:0px;word-spacing:0px;fill:#a1a1a1;fill-opacity:1;stroke:none;stroke-width:0.22795157"
     id="text831"
     transform="matrix(1.2007223,0,0,1.2007223,-3.4445277,-2.8101118)">
    <path
       d="M 17.136277,13.910956 Q 17.065043,13.768487 17.020521,13.403408 16.44619,14 15.64925,14 q -0.712349,0 -1.170924,-0.400696 -0.454122,-0.405148 -0.454122,-1.024001 0,-0.752419 0.569879,-1.166471 0.574331,-0.418505 1.611689,-0.418505 h 0.801392 v -0.378435 q 0,-0.431862 -0.258226,-0.685636 -0.258227,-0.2582264 -0.761323,-0.2582264 -0.440766,0 -0.739062,0.222609 -0.298296,0.2226094 -0.298296,0.5387134 h -0.828105 q 0,-0.360626 0.253774,-0.6945397 0.258227,-0.3383656 0.69454,-0.5342615 0.440766,-0.1958959 0.966123,-0.1958959 0.832558,0 1.304489,0.4185049 0.471931,0.4140526 0.489739,1.1442102 v 2.217185 q 0,0.663375 0.169183,1.055167 v 0.07123 z m -1.366819,-0.627757 q 0.38734,0 0.73461,-0.200348 0.34727,-0.200348 0.503096,-0.520905 v -0.988384 h -0.645566 q -1.513741,0 -1.513741,0.885984 0,0.38734 0.258227,0.605496 0.258226,0.218157 0.663374,0.218157 z"
       style="font-style:normal;font-variant:normal;font-weight:normal;font-stretch:normal;font-family:Roboto;-inkscape-font-specification:Roboto;fill:#a1a1a1;fill-opacity:1;stroke-width:0.22795157"
       id="path851"
       inkscape:connector-curvature="0" />
  </g>
</g>
</svg>
