<svg viewBox="0 0 16 16" xmlns="http://www.w3.org/2000/svg">/&amp;amp;amp;gt;<path d="m0 0v2h8.2832031 7.1308589.585938v-.5859375-1.4140625h-6.1699219z" fill="#0040dd"/><path d="m9.8300781 0-.7734375 1-.7734375 1h7.1308589l.585938-.5859375v-1.4140625z" fill="#fff" fill-opacity=".784314"/><path d="m0 3v13h1 8.5859375 5.4140625 1v-8.4140625-3.5859375-1h-1.013672-7.4765624zm1 1h6.0214844 7.3007816.677734v4.5859375 6.4140625h-4.414062-9.585938z" fill="#98989d"/><path d="m7.5097656 3-.3007812.3886719c-.1408564.1830819-.1880023.3984553-.1875.6113281h7.3007816l.259765-.1855469c.270162-.1933462.403938-.5011502.404297-.8144531z" fill="#fff" fill-opacity=".784314"/><path d="m1 4h14v11h-14z" fill="#fff"/><path d="m2 6v2h4.0058594 2.7167968 5.2773438v-2h-2.478516l-.021484.015625v-.015625h-4.6191406z" fill="#ff9500"/><path d="m6.8808594 6-.7753906 1.5527344c-.076464.1521428-.0984564.3016446-.0996094.4472656h2.7167968l2.7773438-1.984375v-.015625z" fill="#fff" fill-opacity=".784314"/><g fill="#98989d"><path d="m2 11h5v1h-5z"/><path d="m2 9h5v1h-5z"/><path d="m2 13h5v1h-5z"/><path d="m9 11h5v1h-5z"/><path d="m9 9h5v1h-5z"/><path d="m9 13h5v1h-5z"/></g><path d="m11.094376 0h4.905624l-3 3h1l-7 5 2-4h-1z" fill="#ffd60a" fill-rule="evenodd"/></svg>