<?xml version="1.0" encoding="UTF-8" standalone="no"?>
<svg
   xmlns:dc="http://purl.org/dc/elements/1.1/"
   xmlns:cc="http://creativecommons.org/ns#"
   xmlns:rdf="http://www.w3.org/1999/02/22-rdf-syntax-ns#"
   xmlns:svg="http://www.w3.org/2000/svg"
   xmlns="http://www.w3.org/2000/svg"
   xmlns:sodipodi="http://sodipodi.sourceforge.net/DTD/sodipodi-0.dtd"
   xmlns:inkscape="http://www.inkscape.org/namespaces/inkscape"
   viewBox="0 0 16 16"
   version="1.1"
   id="svg14"
   sodipodi:docname="sc_pastespecial.svg"
   inkscape:version="0.92.3 (2405546, 2018-03-11)"
   inkscape:export-filename="/home/rizmut/Dokumen/Rizmut/Github/libreoffice-style-sukapura/images_sukapura/cmd/sc_pastespecial.png"
   inkscape:export-xdpi="96"
   inkscape:export-ydpi="96"><metadata
   id="metadata20">
  <rdf:RDF>
    <cc:Work
       rdf:about="">
      <dc:format>image/svg+xml</dc:format>
      <dc:type
         rdf:resource="http://purl.org/dc/dcmitype/StillImage" />
    </cc:Work>
  </rdf:RDF>
</metadata>
<defs
   id="defs18" />
<sodipodi:namedview
   pagecolor="#ffffff"
   bordercolor="#666666"
   borderopacity="1"
   objecttolerance="10"
   gridtolerance="10"
   guidetolerance="10"
   inkscape:pageopacity="0"
   inkscape:pageshadow="2"
   inkscape:window-width="1366"
   inkscape:window-height="714"
   id="namedview16"
   showgrid="false"
   inkscape:zoom="10.429825"
   inkscape:cx="-9.1814341"
   inkscape:cy="4.6442978"
   inkscape:window-x="0"
   inkscape:window-y="28"
   inkscape:window-maximized="1"
   inkscape:current-layer="svg14" />
/&amp;amp;gt;<path
   d="m2.5 2.5c-.554 0-1 .446-1 1v11c0 .554.446 1 1 1h11c.554 0 1-.446 1-1v-11c0-.554-.460187-1.1245722-1-1h-1v1c0 .554-.446 1-1 1h-7c-.554 0-.9942233-.4460301-1-1v-1z"
   fill="#e2b96c"
   stroke="#bc974c"
   id="path2" />
<path
   d="m8 .5c-1.1045695 0-2 .8954305-2 2h-2.5v2h4.5 4.5v-2h-2.5c0-1.1045695-.8954305-2-2-2zm0 1c.5522847 0 1 .4477153 1 1s-.4477153 1-1 1-1-.4477153-1-1c.0002944-.03328.00225-.066524.00586-.099609.0511359-.510819.4807684-.8999361.99414-.900391z"
   fill="#797979"
   stroke="#757575"
   id="path4" />
<g
   transform="translate(-8 -1)"
   id="g12">
  <path
     d="m4 3c-.554 0-1 .446-1 1v10c0 .554.446 1 1 1h4 4c.554 0 1-.446 1-1v-10c0-.554-.446-1-1-1h-4z"
     fill="#808080"
     transform="translate(8 1)"
     id="path6"
     style="fill:#a1a1a1;fill-opacity:1" />
  <path
     d="m12 5v10h8v-10z"
     fill="#fdf9f3"
     id="path8" />
  <path
     d="m16.5 6c-1.38125 0-2.5 1.0743907-2.5 2.4003906v.5996094h1v-.5996094c0-.6599999.812504-1.4066504 1.5-1.4042968.990199.00339 1.49904.5352625 1.486328 1.3691406-.005.3299617-.374219.6648596-.605469.8808596l-.77539.755859c-.45.438-.623578.996364-.611328 1.65625l.005859.341797h1c0-1.192826-.000732-.999219.855469-1.697266l.5625-.552734c.35625-.342.582031-.8216094.582031-1.3496094 0-1.3259999-1.11875-2.4003906-2.5-2.4003906zm-.5 7v1h1v-1z"
     fill="#e68497"
     id="path10"
     style="fill:#ff6482;fill-opacity:1" />
</g>
</svg>
