<svg viewBox="0 0 16 16" xmlns="http://www.w3.org/2000/svg" xmlns:xlink="http://www.w3.org/1999/xlink"><radialGradient id="a" cx="11" cy="4.428571" gradientTransform="matrix(1 0 0 1.3999997 0 -3.199998)" gradientUnits="userSpaceOnUse" r="5.000001"><stop offset="0" stop-color="#d7d7d7"/><stop offset=".29999998" stop-color="#f7f7f7"/><stop offset="1" stop-color="#fff"/></radialGradient><linearGradient id="b" gradientUnits="userSpaceOnUse" x1="10" x2="11.5000006" y1="4" y2="2.4999994"><stop offset="0" stop-color="#fff"/><stop offset=".77967989" stop-color="#f1f1f1"/><stop offset="1" stop-color="#d5d5d5"/></linearGradient>




     /&amp;amp;gt;
 <path d="m3 0c-.554 0-1 .446-1 1v14c0 .554.446 1 1 1h10c.221483 0 .414716-.08606.580078-.207031l-.796875-.792969h-2.28125-.001953-7.5v-14h6v-1zm10 5v1.765625c.38424.2586333.711424.5861819 1 .9472656v-2.7128906z" fill="#98989d"/><path d="m10.5 7a3.5 3.5 0 0 0 -3.5 3.5 3.5 3.5 0 0 0 3.5 3.5 3.5 3.5 0 0 0 2.035156-.65625l2.501953 2.488281a.56140807.56140807 0 1 0 .791016-.796875l-2.498047-2.482422a3.5 3.5 0 0 0 .669922-2.052734 3.5 3.5 0 0 0 -3.5-3.5zm0 1a2.5 2.5 0 0 1 2.5 2.5 2.5 2.5 0 0 1 -2.5 2.5 2.5 2.5 0 0 1 -2.5-2.5 2.5 2.5 0 0 1 2.5-2.5z" fill="#0a84ff"/><circle cx="10.5" cy="10.5" fill="#fff" r="2.5"/><path d="m3 1v14h7.5c-.30918 0-.6121674-.031552-.9042969-.091797-2.0449062-.421713-3.5957031-2.243946-3.5957031-4.408203 0-2.4734367 2.0265633-4.5 4.5-4.5.275913 0 .544039.0336302.806641.0820312.08288.0152201.162869.0349485.24414.0546876.190071.046272.374699.1041016.554688.1738281.07451.028826.148133.0572117.220703.0898437.228613.1028198.449469.2176047.65625.3554688.0056.0037.012038.0060356.017578.0097656v-3.0605469l-2.695312-2.7050781zm7.5 8c-.7352378 0-1.3329389.5041672-1.4707031 1.193359-.0196806.098456-.0292969.201607-.0292969.306641 0 .840272.6597282 1.5 1.5 1.5.840272 0 1.5-.659728 1.5-1.5 0-.8402718-.659728-1.5-1.5-1.5zm1.724609 5.445312c-.560971.243826-1.104413.553767-1.722656.554688h2.28125z" fill="url(#a)"/><path d="m9 0v1 3.5c0 .277.223.5.5.5h3.5 1v-.5-.8632812l-3.636719-3.6367188h-.863281zm1 1 3 3h-3z" fill="#98989d"/><path d="m10 1 3 3h-3z" fill="url(#b)"/></svg>