<svg viewBox="0 0 16 16" xmlns="http://www.w3.org/2000/svg">/&amp;amp;gt;<path d="m2.5 2.5c-.554 0-1 .446-1 1v11c0 .554.446 1 1 1h11c.554 0 1-.446 1-1v-11c0-.554-.460187-1.1245722-1-1h-1v1c0 .554-.446 1-1 1h-7c-.554 0-.9942233-.4460301-1-1v-1z" fill="#e2b96c" stroke="#bc974c"/><path d="m8 .5c-1.1045695 0-2 .8954305-2 2h-2.5v2h4.5 4.5v-2h-2.5c0-1.1045695-.8954305-2-2-2zm0 1c.5522847 0 1 .4477153 1 1s-.4477153 1-1 1-1-.4477153-1-1c.0002944-.03328.00225-.066524.00586-.099609.0511359-.510819.4807684-.8999361.99414-.900391z" fill="#797979" stroke="#757575"/><g transform="translate(-8 -1)"><path d="m4 3c-.554 0-1 .446-1 1v10c0 .554.446 1 1 1h8c.554 0 1-.446 1-1v-10c0-.554-.446-1-1-1z" fill="#808080" transform="translate(8 1)"/><path d="m12 5v10h8v-10z" fill="#fdf9f3"/><path d="m17.442308 13.926964q-.173077 0-.264423-.04868-.09135-.05356-.144231-.209349l-.105769-.321324q-.182692.160662-.350962.282376-.168269.121714-.350961.204479-.177885.08277-.384616.121714-.201923.04382-.451923.04382-.307692 0-.5625-.08277-.254807-.087637-.442308-.253168-.182692-.165531-.283653-.408958-.100962-.248296-.100962-.569621 0-.26777.134615-.53554.134616-.26777.456731-.481986.326923-.219085.865385-.360273.543269-.146056 1.350962-.165531v-.258033q0-.467381-.192308-.686465-.192308-.2190849-.552885-.2190849-.269231 0-.447115.063291-.173077.06329-.307693.141188-.134615.07303-.25.136319-.115384.06329-.259615.06329-.125 0-.216346-.06329-.08654-.06816-.139423-.160662l-.221154-.3894837q.413461-.3894839.913461-.5793573.5-.1898735 1.081731-.1898735.41827 0 .75.1411879.331731.1363194.5625.389484.23077.248296.350962.5939635.120192.345667.120192.759493v3.042844zm-1.673077-.769231q.326923 0 .5625-.116845.240385-.121714.475962-.37001v-.778968q-.475962.01947-.79327.08277-.3125.05842-.5.155794-.1875.0925-.269231.219084-.07692.126583-.07692.272639 0 .292113.158654.413827.163462.121713.442308.121714z" fill="#808080"/></g></svg>