<?xml version="1.0" encoding="UTF-8" standalone="no"?>
<svg
   xmlns:dc="http://purl.org/dc/elements/1.1/"
   xmlns:cc="http://creativecommons.org/ns#"
   xmlns:rdf="http://www.w3.org/1999/02/22-rdf-syntax-ns#"
   xmlns:svg="http://www.w3.org/2000/svg"
   xmlns="http://www.w3.org/2000/svg"
   xmlns:xlink="http://www.w3.org/1999/xlink"
   xmlns:sodipodi="http://sodipodi.sourceforge.net/DTD/sodipodi-0.dtd"
   xmlns:inkscape="http://www.inkscape.org/namespaces/inkscape"
   viewBox="0 0 16 16"
   version="1.1"
   id="svg25"
   sodipodi:docname="sc_pasteonlyformula.svg"
   inkscape:version="0.92.3 (2405546, 2018-03-11)"
   inkscape:export-filename="/home/rizmut/Dokumen/Rizmut/Github/libreoffice-style-sukapura/images_sukapura/cmd/sc_pasteonlyformula.png"
   inkscape:export-xdpi="96"
   inkscape:export-ydpi="96"><metadata
   id="metadata31">
  <rdf:RDF>
    <cc:Work
       rdf:about="">
      <dc:format>image/svg+xml</dc:format>
      <dc:type
         rdf:resource="http://purl.org/dc/dcmitype/StillImage" />
    </cc:Work>
  </rdf:RDF>
</metadata>
<defs
   id="defs29" />
<sodipodi:namedview
   pagecolor="#ffffff"
   bordercolor="#666666"
   borderopacity="1"
   objecttolerance="10"
   gridtolerance="10"
   guidetolerance="10"
   inkscape:pageopacity="0"
   inkscape:pageshadow="2"
   inkscape:window-width="1366"
   inkscape:window-height="714"
   id="namedview27"
   showgrid="false"
   inkscape:zoom="14.75"
   inkscape:cx="-1.4576271"
   inkscape:cy="8"
   inkscape:window-x="0"
   inkscape:window-y="28"
   inkscape:window-maximized="1"
   inkscape:current-layer="svg25" />
<linearGradient
   id="a"
   gradientTransform="translate(-11 -1)"
   gradientUnits="userSpaceOnUse"
   x1="14"
   x2="13.79661"
   y1="22"
   y2="2.135593">
  <stop
     offset="0"
     stop-color="#0040dd"
     id="stop2" />
  <stop
     offset="1"
     stop-color="#0a84ff"
     id="stop4" />
</linearGradient>
<linearGradient
   id="b"
   gradientTransform="matrix(.79951909 0 0 .79951909 -1.770074 -1.601914)"
   gradientUnits="userSpaceOnUse"
   x1="7"
   x2="7"
   xlink:href="#a"
   y1="22"
   y2="2" />
<linearGradient
   id="c"
   gradientTransform="matrix(.79951909 0 0 .79951909 -2.770074 -1.601914)"
   gradientUnits="userSpaceOnUse"
   x1="18"
   x2="18"
   xlink:href="#a"
   y1="22"
   y2="12" />






     /&amp;amp;amp;gt;
 <path
   d="m2.5 2.5c-.554 0-1 .446-1 1v11c0 .554.446 1 1 1h11c.554 0 1-.446 1-1v-11c0-.554-.460187-1.1245722-1-1h-1v1c0 .554-.446 1-1 1h-7c-.554 0-.9942233-.4460301-1-1v-1z"
   fill="#e2b96c"
   stroke="#bc974c"
   id="path9" />
<path
   d="m8 .5c-1.1045695 0-2 .8954305-2 2h-2.5v2h4.5 4.5v-2h-2.5c0-1.1045695-.8954305-2-2-2zm0 1c.5522847 0 1 .4477153 1 1s-.4477153 1-1 1-1-.4477153-1-1c.0002944-.03328.00225-.066524.00586-.099609.0511359-.510819.4807684-.8999361.99414-.900391z"
   fill="#797979"
   stroke="#757575"
   id="path11" />
<g
   transform="translate(-8 -1)"
   id="g23">
  <path
     d="m4 3c-.554 0-1 .446-1 1v10c0 .554.446 1 1 1h8c.554 0 1-.446 1-1v-10c0-.554-.446-1-1-1z"
     fill="#808080"
     transform="translate(8 1)"
     id="path13"
     style="fill:#a1a1a1;fill-opacity:1" />
  <path
     d="m12 5v10h8v-10z"
     fill="#fdf9f3"
     id="path15" />
  <g
     transform="matrix(.49703567 0 0 .49703567 12.504909 6.054037)"
     id="g21">
    <path
       d="m1.0307693 15.987778 1.6820622-9.6308319h-1.71283159l.25641189-1.4666762h1.7025752l.1846165-1.312829q.2666684-1.6718057 1.2923161-2.61540156 1.0769301-.98462176 2.7487358-.96410881.5230803 0 1.3230855.17436011l-.2256425 1.54872796q-.4923109-.1025647-.9948783-.1230777-.9641088 0-1.5692409.6051321-.5948757.5948757-.7384663 1.5897539l-.1641037 1.097443h2.2974508l-.2564119 1.4666762h-2.2974508l-1.6718057 9.6308319z"
       fill="url(#b)"
       id="path17" />
    <path
       d="m11.048956 10.613566 1.886732-2.6192278h2.049508l-3.063164 4.0250278 1.783146 3.980634h-1.834939l-1.117241-2.730212-1.9681201 2.730212h-2.0421096l3.1593508-4.143411-1.7239549-3.8622508h1.8349388z"
       fill="url(#c)"
       transform="translate(-1.578803 -.15377)"
       id="path19" />
  </g>
</g>
</svg>
