<svg viewBox="0 0 16 16" xmlns="http://www.w3.org/2000/svg">/&amp;amp;amp;amp;gt;<path d="m1 4v8.414062 2.585938h5.5859375 8.4140625v-8.4140625-2.5859375h-5.5859375z" fill="#fff"/><path d="m0 3v9.994141 2.005859 1h1 5.0078125 9.9921875v-9.9941406-2.0058594-1h-6.0078125zm1 1h8.4140625 5.5859375v2.5859375 8.4140625h-8.4140625-5.5859375v-2.585938z" fill="#98989d"/><path d="m0 0h16v2h-16z" fill="#0040dd"/><path d="m2 6v2h12v-.4140625-1.5859375z" fill="#ff9500"/><g fill="#98989d"><path d="m2 11h1v1h-1z"/><path d="m2 9h1v1h-1z"/><path d="m2 13h1v1h-1z"/></g><g fill="#98989d"><path d="m4 11h5v1h-5z"/><path d="m4 9h6v1h-6z"/><path d="m4 13v1h3.5859375l.4140625-.414062v-.585938z"/></g><path d="m16 2.5-12.5 13.5h12c.298752 0 .5-.285239.5-.5z" fill="#fff" fill-opacity=".784314"/><path d="m15.5 5.0000003-9.5000001 10.4999997h9.5000001zm-2 5.4999997v.976392 2.023608h-2-.5z" fill="#fc0" fill-rule="evenodd" stroke="#c89e00"/></svg>