<?xml version="1.0" encoding="UTF-8" standalone="no"?>
<svg
   xmlns:dc="http://purl.org/dc/elements/1.1/"
   xmlns:cc="http://creativecommons.org/ns#"
   xmlns:rdf="http://www.w3.org/1999/02/22-rdf-syntax-ns#"
   xmlns:svg="http://www.w3.org/2000/svg"
   xmlns="http://www.w3.org/2000/svg"
   xmlns:xlink="http://www.w3.org/1999/xlink"
   xmlns:sodipodi="http://sodipodi.sourceforge.net/DTD/sodipodi-0.dtd"
   xmlns:inkscape="http://www.inkscape.org/namespaces/inkscape"
   viewBox="0 0 16 16"
   version="1.1"
   id="svg27"
   sodipodi:docname="sc_print.svg"
   inkscape:version="0.92.3 (unknown)"><metadata
   id="metadata33">
  <rdf:RDF>
    <cc:Work
       rdf:about="">
      <dc:format>image/svg+xml</dc:format>
      <dc:type
         rdf:resource="http://purl.org/dc/dcmitype/StillImage" />
    </cc:Work>
  </rdf:RDF>
</metadata>
<defs
   id="defs31">
  <linearGradient
     gradientTransform="translate(-25.830508,-3.5932203)"
     id="a-3"
     gradientUnits="userSpaceOnUse"
     x1="14"
     x2="13.79661"
     y1="22"
     y2="2.1355929">
    <stop
       offset="0"
       stop-color="#0040dd"
       id="stop2-6" />
    <stop
       offset="1"
       stop-color="#0a84ff"
       id="stop4-7" />
  </linearGradient>
  <linearGradient
     inkscape:collect="always"
     xlink:href="#a-3"
     id="linearGradient1425"
     gradientUnits="userSpaceOnUse"
     gradientTransform="matrix(-1,0,0,1,-29.010942,26.95119)"
     x1="-31.010942"
     y1="-4.95119"
     x2="-31.010942"
     y2="-16.951191" />
  <linearGradient
     inkscape:collect="always"
     xlink:href="#a-3"
     id="linearGradient868"
     x1="7.2733388"
     y1="7.6254539"
     x2="7.4802356"
     y2="3.838238"
     gradientUnits="userSpaceOnUse" />
</defs>
<sodipodi:namedview
   pagecolor="#ffffff"
   bordercolor="#666666"
   borderopacity="1"
   objecttolerance="10"
   gridtolerance="10"
   guidetolerance="10"
   inkscape:pageopacity="0"
   inkscape:pageshadow="2"
   inkscape:window-width="1366"
   inkscape:window-height="706"
   id="namedview29"
   showgrid="false"
   inkscape:zoom="14.75"
   inkscape:cx="-3.4572432"
   inkscape:cy="10.372622"
   inkscape:window-x="0"
   inkscape:window-y="0"
   inkscape:window-maximized="1"
   inkscape:current-layer="svg27" />
<linearGradient
   id="a"
   gradientUnits="userSpaceOnUse"
   x1="9.5"
   x2="9.5"
   y1="7"
   y2="10">
  <stop
     offset="0"
     stop-color="#fff"
     id="stop2" />
  <stop
     offset=".08333334"
     stop-color="#fff"
     stop-opacity=".055147"
     id="stop4" />
  <stop
     offset="1"
     stop-color="#fff"
     stop-opacity=".247059"
     id="stop6" />
  <stop
     offset="1"
     stop-color="#fff"
     stop-opacity=".481618"
     id="stop8" />
</linearGradient>



     /&amp;amp;gt;
 <rect
   fill="#0a84ff"
   height="4.29661"
   ry="1"
   width="12"
   x="2"
   y="3.70339"
   id="rect11"
   style="fill-opacity:1;fill:url(#linearGradient868)" />
<path
   d="m5 11v4h6v-4z"
   fill="#fff"
   fill-rule="evenodd"
   id="path13" />
<path
   d="m4 12v3.142578c0 .474857.3825649.857422.8574219.857422h6.2851561c.474857 0 .838139-.382957.857422-.857422v-3.142578h-1v3h-6v-3z"
   fill="#98989d"
   id="path15" />
<path
   d="m4 1v4h8v-4z"
   fill="#fff"
   fill-rule="evenodd"
   id="path17" />
<path
   d="m13 10h2v1h-2z"
   fill="#fff"
   id="path19" />
<path
   d="m3.8574219 0c-.474857 0-.8574219.38256487-.8574219.85742188v5.14257812h1 8 1v-5.14257812c0-.47485701-.382565-.85742188-.857422-.85742188zm.1425781 1h8v4h-8z"
   fill="#98989d"
   id="path21" />
<path
   d="m1.5 5.5c-.554 0-1 .446-1 1v4c0 .554.446 1 1 1h2 1 7.5 2.5c.554 0 1-.446 1-1v-4c0-.554-.446-1-1-1h-1v2h-.5-9.5-1v-2z"
   fill="#98989d"
   stroke="#616165"
   id="path23" />
<path
   d="m2 6.5h.5v2h11v-2h.5c.277 0 .5.446.5 1v2c0 .554-.223 1-.5 1h-12c-.277 0-.5-.446-.5-1v-2c0-.554.223-1 .5-1z"
   fill="none"
   stroke="url(#a)"
   stroke-opacity=".658088"
   id="path25" />
</svg>
