<?xml version="1.0" encoding="UTF-8" standalone="no"?>
<svg
   xmlns:dc="http://purl.org/dc/elements/1.1/"
   xmlns:cc="http://creativecommons.org/ns#"
   xmlns:rdf="http://www.w3.org/1999/02/22-rdf-syntax-ns#"
   xmlns:svg="http://www.w3.org/2000/svg"
   xmlns="http://www.w3.org/2000/svg"
   xmlns:sodipodi="http://sodipodi.sourceforge.net/DTD/sodipodi-0.dtd"
   xmlns:inkscape="http://www.inkscape.org/namespaces/inkscape"
   viewBox="0 0 16 16"
   version="1.1"
   id="svg11"
   sodipodi:docname="sc_paralefttoright.svg"
   inkscape:version="0.92.3 (2405546, 2018-03-11)"><metadata
   id="metadata17">
  <rdf:RDF>
    <cc:Work
       rdf:about="">
      <dc:format>image/svg+xml</dc:format>
      <dc:type
         rdf:resource="http://purl.org/dc/dcmitype/StillImage" />
    </cc:Work>
  </rdf:RDF>
</metadata>
<defs
   id="defs15" />
<sodipodi:namedview
   pagecolor="#ffffff"
   bordercolor="#666666"
   borderopacity="1"
   objecttolerance="10"
   gridtolerance="10"
   guidetolerance="10"
   inkscape:pageopacity="0"
   inkscape:pageshadow="2"
   inkscape:window-width="1366"
   inkscape:window-height="716"
   id="namedview13"
   showgrid="false"
   inkscape:zoom="14.75"
   inkscape:cx="-4.5084746"
   inkscape:cy="8"
   inkscape:window-x="-8"
   inkscape:window-y="-8"
   inkscape:window-maximized="1"
   inkscape:current-layer="svg11" />
<linearGradient
   id="a"
   gradientUnits="userSpaceOnUse"
   x1="-25.399053"
   x2="-25.306424"
   y1="12.312397"
   y2="5.504995">
  <stop
     offset="0"
     stop-color="#0040dd"
     id="stop2" />
  <stop
     offset="1"
     stop-color="#0a84ff"
     id="stop4" />
</linearGradient>


/&amp;amp;amp;gt;<path
   d="m6 0c-2.209139 0-4 1.790861-4 4s1.790861 4 4 4v1.8671875l1.4941406 1.4941405-.2207031-.166016c.4596022.255718.6969053.72661.7265625 1.210938v-10.40625h2v14h2v-14l3-1v-1h-3-2-2zm2 12.597656c-.0273617.481987-.259874.952435-.7148438 1.210938l.2109376-.160156-1.4960938 1.490234v.861328h2z"
   fill="#69696e"
   id="path7"
   style="fill:#4b4b4f;fill-opacity:1" />
<path
   d="m3.5273438 9c-.3055168-.007736-.4934255.2409329-.4960938.5h-.03125v2h-2.5c-.277 0-.5.223-.5.5v.505859.494141c0 .277.223.5.5.5h2.5v2h.0117188c.0083813.382489.5000415.706965.859375.349609l2.9199218-2.910156c.3388519-.192527.336656-.681609-.0039062-.871094l-2.9160156-2.9160152c-.0903789-.0935991-.2137025-.1482538-.34375-.1523438z"
   fill="url(#a)"
   fill-rule="evenodd"
   id="path9" />
</svg>
