<?xml version="1.0" encoding="UTF-8" standalone="no"?>
<svg
   xmlns:dc="http://purl.org/dc/elements/1.1/"
   xmlns:cc="http://creativecommons.org/ns#"
   xmlns:rdf="http://www.w3.org/1999/02/22-rdf-syntax-ns#"
   xmlns:svg="http://www.w3.org/2000/svg"
   xmlns="http://www.w3.org/2000/svg"
   xmlns:sodipodi="http://sodipodi.sourceforge.net/DTD/sodipodi-0.dtd"
   xmlns:inkscape="http://www.inkscape.org/namespaces/inkscape"
   viewBox="0 0 16 16"
   version="1.1"
   id="svg11"
   sodipodi:docname="sc_pararighttoleft.svg"
   inkscape:version="0.92.3 (2405546, 2018-03-11)"><metadata
   id="metadata17">
  <rdf:RDF>
    <cc:Work
       rdf:about="">
      <dc:format>image/svg+xml</dc:format>
      <dc:type
         rdf:resource="http://purl.org/dc/dcmitype/StillImage" />
    </cc:Work>
  </rdf:RDF>
</metadata>
<defs
   id="defs15" />
<sodipodi:namedview
   pagecolor="#ffffff"
   bordercolor="#666666"
   borderopacity="1"
   objecttolerance="10"
   gridtolerance="10"
   guidetolerance="10"
   inkscape:pageopacity="0"
   inkscape:pageshadow="2"
   inkscape:window-width="1366"
   inkscape:window-height="716"
   id="namedview13"
   showgrid="false"
   inkscape:zoom="14.75"
   inkscape:cx="-4.5084746"
   inkscape:cy="8"
   inkscape:window-x="-8"
   inkscape:window-y="-8"
   inkscape:window-maximized="1"
   inkscape:current-layer="svg11" />
<linearGradient
   id="a"
   gradientUnits="userSpaceOnUse"
   x1="-11.169561"
   x2="-11.316629"
   y1="12.264457"
   y2="5.457056">
  <stop
     offset="0"
     stop-color="#0040dd"
     id="stop2" />
  <stop
     offset="1"
     stop-color="#0a84ff"
     id="stop4" />
</linearGradient>


/&amp;amp;amp;gt;<path
   d="m12.472657 9c.305517-.00774.493425.2409329.496094.5h.03125v2h2.5c.277 0 .5.223.5.5v.505859.494141c0 .277-.223.5-.5.5h-2.5v2h-.01172c-.0084.382489-.500042.706965-.859375.349609l-2.9199211-2.910156c-.3388519-.192527-.336656-.681609.00391-.871094l2.9160121-2.9160152c.090379-.0935991.213702-.1482538.34375-.1523438z"
   fill="url(#a)"
   fill-rule="evenodd"
   id="path7" />
<path
   d="m5 0c-2.209139 0-4 1.790861-4 4s1.790861 4 4 4v8h2v-14h2v8.861328l2-1.9941405v-6.8671875l3-1v-1h-3-2-2zm4 14.136719v1.863281h1.863281z"
   fill="#69696e"
   id="path9"
   style="fill:#4b4b4f;fill-opacity:1" />
</svg>
