<?xml version="1.0" encoding="UTF-8" standalone="no"?>
<svg
   xmlns:dc="http://purl.org/dc/elements/1.1/"
   xmlns:cc="http://creativecommons.org/ns#"
   xmlns:rdf="http://www.w3.org/1999/02/22-rdf-syntax-ns#"
   xmlns:svg="http://www.w3.org/2000/svg"
   xmlns="http://www.w3.org/2000/svg"
   xmlns:sodipodi="http://sodipodi.sourceforge.net/DTD/sodipodi-0.dtd"
   xmlns:inkscape="http://www.inkscape.org/namespaces/inkscape"
   viewBox="0 0 16 16"
   version="1.1"
   id="svg6"
   sodipodi:docname="sc_pararighttoleft.svg"
   inkscape:version="0.92.3 (2405546, 2018-03-11)"><metadata
   id="metadata12">
  <rdf:RDF>
    <cc:Work
       rdf:about="">
      <dc:format>image/svg+xml</dc:format>
      <dc:type
         rdf:resource="http://purl.org/dc/dcmitype/StillImage" />
      <dc:title></dc:title>
    </cc:Work>
  </rdf:RDF>
</metadata>
<defs
   id="defs10" />
<sodipodi:namedview
   pagecolor="#ffffff"
   bordercolor="#666666"
   borderopacity="1"
   objecttolerance="10"
   gridtolerance="10"
   guidetolerance="10"
   inkscape:pageopacity="0"
   inkscape:pageshadow="2"
   inkscape:window-width="1366"
   inkscape:window-height="692"
   id="namedview8"
   showgrid="false"
   inkscape:zoom="14.75"
   inkscape:cx="-0.71186441"
   inkscape:cy="-0.48788673"
   inkscape:window-x="0"
   inkscape:window-y="0"
   inkscape:window-maximized="1"
   inkscape:current-layer="svg6" />
/&amp;gt;<path
   inkscape:connector-curvature="0"
   style="fill:#0a84ff;fill-opacity:1;fill-rule:evenodd"
   d="m 12.472657,9 c 0.305517,-0.00774 0.493425,0.2409329 0.496094,0.5 h 0.03125 v 2 h 2.5 c 0.277,0 0.5,0.223 0.5,0.5 V 12.505859 13 c 0,0.277 -0.223,0.5 -0.5,0.5 h -2.5 v 2 h -0.01172 c -0.0084,0.382489 -0.500042,0.706965 -0.859375,0.349609 L 9.2089849,12.939453 C 8.870133,12.746926 8.8723289,12.257844 9.2128949,12.068359 L 12.128907,9.1523438 C 12.219286,9.0587447 12.342609,9.00409 12.472657,9 Z"
   id="path4-9" />
<path
   d="m5 0c-2.209139 0-4 1.790861-4 4s1.790861 4 4 4v8h2v-14h2v8.861328l2-1.9941405v-6.8671875l3-1v-1h-3-2-2zm4 14.136719v1.863281h1.863281z"
   fill="#696969"
   id="path2"
   style="fill:#69696e;fill-opacity:1" />
</svg>
