<svg viewBox="0 0 16 16" xmlns="http://www.w3.org/2000/svg" xmlns:xlink="http://www.w3.org/1999/xlink"><linearGradient id="a" gradientUnits="userSpaceOnUse" x1="42" x2="42" y1="18" y2="10"><stop offset="0" stop-color="#2a9240"/><stop offset="1" stop-color="#32d74b"/></linearGradient>
/&amp;amp;gt;<path d="m1 4v11h6 4.767578 3.232422v-1.847656-2.304688-6.847656z" fill="#fff"/><path d="m0 3v13h1 6 3.017578 4.982422 1v-3.984375-.03125-4.3984375-3.5859375-1zm1 1h14v4.5859375 2.2617185 2.304688 1.847656h-3.232422-4.767578-6z" fill="#98989d"/><path d="m0 0h16v2h-16z" fill="#0040dd"/><path d="m2 5h12v2h-12z" fill="#ffd60a"/><path d="m8.0195312 7c-.5598729-.01088-1.0195809.440021-1.0195312 1v7 1h3.017578l1.75-1 3.232422-1.847656.496094-.283203c.331665-.188804.498806-.52012.503906-.853516v-.03125c-.0051-.333396-.172241-.664712-.503906-.853516l-.496094-.283203-6.5039062-3.7167966c-.1454061-.0828004-.3092622-.1277894-.4765626-.1308594zm1.9980468 9c-6.6783853 0-3.3391927 0 0 0z" fill="#fff" fill-opacity=".784314"/><path d="m8 8v8l7-4z" fill="url(#a)"/></svg>