<svg viewBox="0 0 16 16" xmlns="http://www.w3.org/2000/svg" xmlns:xlink="http://www.w3.org/1999/xlink"><linearGradient id="a" gradientUnits="userSpaceOnUse" x1="-52.898305" x2="-38.898305" y1="4.322928" y2="4.322928"><stop offset="0" stop-color="#f5f5f5"/><stop offset=".3888889" stop-color="#fdfdfd"/><stop offset="1" stop-color="#fff"/></linearGradient><linearGradient id="b" gradientUnits="userSpaceOnUse" x1="-22.694915" x2="-22.694915" y1="3.220339" y2="1.220339"><stop offset="0" stop-color="#0040dd"/><stop offset="1" stop-color="#0a84ff"/></linearGradient><linearGradient id="c" gradientTransform="translate(-31.118644 6.61017)" gradientUnits="userSpaceOnUse" x1="14" x2="13.79661" y1="22" y2="2.135593"><stop offset="0" stop-color="#2a9240"/><stop offset="1" stop-color="#32d74b"/></linearGradient><linearGradient id="d" gradientUnits="userSpaceOnUse" x1="12" x2="12" xlink:href="#c" y1="6" y2="11"/><linearGradient id="e" gradientTransform="translate(2)" gradientUnits="userSpaceOnUse" x1="12" x2="12" xlink:href="#c" y1="6" y2="11"/>



     /&amp;amp;amp;gt;
 <circle cx="7.5" cy="14.5" fill="#98989d" r="1.5"/><path d="m1 3v8h14v-8z" fill="url(#a)"/><g fill="#98989d"><path d="m2 9h1v1h-1z"/><path d="m2 7h1v1h-1z"/><path d="m4 9h5v1h-5z"/><path d="m4 7h6v1h-6z"/></g><path d="m0 2v8.984375.03125.984375h.73242188.26757812 4.9824219 1.0175781 2 1.017578 4.982422.267578.732422v-10zm1 1h14v8h-14z" fill="#98989d"/><path d="m0 0h16v2h-16z" fill="url(#b)"/><path d="m2 4h12v2h-12z" fill="#ff9500"/><path d="m7 12h1v2h-1z" fill="#98989d"/><g transform="translate(0 1)"><path d="m16 8.5a4.5 4.5 0 0 1 -4.5 4.5 4.5 4.5 0 0 1 -4.5-4.5 4.5 4.5 0 0 1 4.5-4.5 4.5 4.5 0 0 1 4.5 4.5z" fill="#98989d"/><path d="m15 8.5a3.5 3.5 0 0 1 -3.5 3.5 3.5 3.5 0 0 1 -3.5-3.5 3.5 3.5 0 0 1 3.5-3.5 3.5 3.5 0 0 1 3.5 3.5z" fill="#fff"/><g stroke-width=".428571"><path d="m10 6v5h1v-5z" fill="url(#d)"/><path d="m12 6v5h1v-5z" fill="url(#e)"/></g></g></svg>