<?xml version="1.0" encoding="UTF-8" standalone="no"?>
<svg
   xmlns:dc="http://purl.org/dc/elements/1.1/"
   xmlns:cc="http://creativecommons.org/ns#"
   xmlns:rdf="http://www.w3.org/1999/02/22-rdf-syntax-ns#"
   xmlns:svg="http://www.w3.org/2000/svg"
   xmlns="http://www.w3.org/2000/svg"
   xmlns:xlink="http://www.w3.org/1999/xlink"
   xmlns:sodipodi="http://sodipodi.sourceforge.net/DTD/sodipodi-0.dtd"
   xmlns:inkscape="http://www.inkscape.org/namespaces/inkscape"
   viewBox="0 0 16 16"
   version="1.1"
   id="svg14"
   sodipodi:docname="sc_previoustrackedchange.svg"
   inkscape:export-filename="/home/rizmut/Dokumen/Rizmut/Github/libreoffice-style-sukapura/images_sukapura/cmd/sc_previoustrackedchange.png"
   inkscape:export-xdpi="96"
   inkscape:export-ydpi="96"
   inkscape:version="0.92.3 (unknown)">
  <metadata
     id="metadata20">
    <rdf:RDF>
      <cc:Work
         rdf:about="">
        <dc:format>image/svg+xml</dc:format>
        <dc:type
           rdf:resource="http://purl.org/dc/dcmitype/StillImage" />
        <dc:title></dc:title>
      </cc:Work>
    </rdf:RDF>
  </metadata>
  <defs
     id="defs18">
    <linearGradient
       id="a"
       gradientUnits="userSpaceOnUse"
       x1="10"
       x2="11.500001"
       y1="4"
       y2="2.4999993">
      <stop
         offset="0"
         stop-color="#fff"
         id="stop976" />
      <stop
         offset=".77967989"
         stop-color="#f1f1f1"
         id="stop978" />
      <stop
         offset="1"
         stop-color="#d5d5d5"
         id="stop980" />
    </linearGradient>
    <radialGradient
       id="b"
       cx="10.994179"
       cy="4.4284401"
       gradientTransform="matrix(1.4,4e-8,-1e-8,1.2,-4.39185,-2.314129)"
       gradientUnits="userSpaceOnUse"
       r="5">
      <stop
         offset="0"
         stop-color="#d7d7d7"
         id="stop983" />
      <stop
         offset=".49894297"
         stop-color="#f7f7f7"
         id="stop985" />
      <stop
         offset="1"
         stop-color="#fff"
         id="stop987" />
    </radialGradient>
    <linearGradient
       gradientTransform="translate(18,-2)"
       id="a-3"
       gradientUnits="userSpaceOnUse"
       x1="14"
       x2="13.79661"
       y1="22"
       y2="2.1355929">
      <stop
         offset="0"
         stop-color="#0040dd"
         id="stop1851" />
      <stop
         offset="1"
         stop-color="#0a84ff"
         id="stop1853" />
    </linearGradient>
    <linearGradient
       gradientTransform="translate(-31.118644,6.6101695)"
       id="a-36"
       gradientUnits="userSpaceOnUse"
       x1="14"
       x2="13.79661"
       y1="22"
       y2="2.1355929">
      <stop
         offset="0"
         stop-color="#0040dd"
         id="stop1586"
         style="stop-color:#2a9240;stop-opacity:1" />
      <stop
         offset="1"
         stop-color="#0a84ff"
         id="stop1588"
         style="stop-color:#32d74b;stop-opacity:1" />
    </linearGradient>
    <linearGradient
       inkscape:collect="always"
       xlink:href="#a-367"
       id="linearGradient849"
       x1="13"
       y1="7"
       x2="13"
       y2="1"
       gradientUnits="userSpaceOnUse"
       gradientTransform="translate(0,8)" />
    <linearGradient
       gradientTransform="translate(75,-7)"
       id="a-367"
       gradientUnits="userSpaceOnUse"
       x1="14"
       x2="13.79661"
       y1="22"
       y2="2.1355929">
      <stop
         offset="0"
         stop-color="#0040dd"
         id="stop2206" />
      <stop
         offset="1"
         stop-color="#0a84ff"
         id="stop2208" />
    </linearGradient>
  </defs>
  <sodipodi:namedview
     pagecolor="#ffffff"
     bordercolor="#666666"
     borderopacity="1"
     objecttolerance="10"
     gridtolerance="10"
     guidetolerance="10"
     inkscape:pageopacity="0"
     inkscape:pageshadow="2"
     inkscape:window-width="1366"
     inkscape:window-height="699"
     id="namedview16"
     showgrid="true"
     inkscape:zoom="14.75"
     inkscape:cx="10.668622"
     inkscape:cy="9.164378"
     inkscape:window-x="0"
     inkscape:window-y="0"
     inkscape:window-maximized="1"
     inkscape:current-layer="svg14"
     inkscape:snap-smooth-nodes="true"
     inkscape:snap-global="true">
    <inkscape:grid
       type="xygrid"
       id="grid831"
       spacingx="0.5"
       spacingy="0.5"
       empspacing="2" />
  </sodipodi:namedview>
  <path
     style="fill:url(#b)"
     d="M 3,1 V 15 H 13 V 5.6367188 3.7050781 L 10.304688,1 Z M 13,13.496094 11.505859,15 H 13 Z"
     id="path990"
     inkscape:connector-curvature="0"
     sodipodi:nodetypes="ccccccccccc" />
  <path
     style="fill:#98989d;fill-opacity:1"
     d="M 3 0 C 2.446 0 2 0.446 2 1 L 2 15 C 2 15.554 2.446 16 3 16 L 5 16 L 5.234375 16 L 10.496094 16 L 12 16 L 13 16 C 13.554 16 14 15.554 14 15 L 14 12.488281 L 14 5.59375 L 14 4.5 L 14 3.6367188 L 10.363281 0 L 9.5 0 L 3 0 z M 3 1 L 9 1 L 9 4.5 C 9 4.777 9.223 5 9.5 5 L 13 5 L 13 5.6367188 L 13 13.5 L 13 15 L 12 15 L 11.505859 15 L 5.2246094 15 L 5 15 L 3 15 L 3 1 z M 10 1 L 13 4 L 10 4 L 10 1 z M 4.4765625 4 C 4.2128417 4 4 4.2128417 4 4.4765625 L 4 4.5 L 4 4.5234375 C 4 4.7871583 4.2128417 5 4.4765625 5 L 4.5 5 L 7.5 5 L 7.5234375 5 C 7.7871588 5 8 4.7871583 8 4.5234375 L 8 4.5 L 8 4.4765625 C 8 4.2128417 7.7871583 4 7.5234375 4 L 7.5 4 L 4.5 4 L 4.4765625 4 z M 4.5 10 C 4.223 10 4 10.223 4 10.5 C 4 10.777 4.223 11 4.5 11 L 4.9082031 11 L 7.1777344 11 L 7.6132812 11 L 7.78125 10.902344 C 7.9102777 10.812105 8 10.670084 8 10.5 C 8 10.41447 7.9730959 10.337838 7.9355469 10.267578 C 7.8973089 10.196028 7.8421519 10.139046 7.7753906 10.09375 C 7.7627676 10.08475 7.7517403 10.076139 7.7382812 10.068359 C 7.6665525 10.028694 7.5880832 10 7.5 10 L 4.5 10 z M 9.4746094 10 C 9.2116941 10 9 10.211694 9 10.474609 L 9 10.5 L 9 10.525391 C 9 10.78831 9.2116941 11 9.4746094 11 L 9.8613281 11 L 10.525391 11 C 10.788324 11 11 10.777 11 10.5 C 11 10.294292 10.882621 10.1199 10.714844 10.042969 L 10.716797 10.041016 C 10.715654 10.040513 10.714038 10.04151 10.712891 10.041016 C 10.655244 10.016176 10.592337 10 10.525391 10 L 9.4746094 10 z M 4.5 13 C 4.223 13 4 13.223 4 13.5 C 4 13.777 4.223 14 4.5 14 L 5.4941406 14 L 6.5 14 C 6.777 14 7 13.777 7 13.5 C 7 13.223 6.777 13 6.5 13 L 5.7636719 13 L 4.5 13 z "
     id="path4" />
  <rect
     fill="#d65532"
     height="1"
     ry=".5"
     width="7"
     x="4"
     y="7"
     id="rect6"
     style="fill:#ff9f0a;fill-opacity:1" />
  <path
     inkscape:connector-curvature="0"
     style="fill:url(#a)"
     d="m 10,1 3,3 h -3 z"
     id="path994" />
  <g
     id="g878"
     transform="matrix(-1,0,0,1,16.030353,0)">
    <path
       id="path850"
       d="M 12.410156,8 C 11.895601,8.03569 11.532884,8.3801923 11.292969,8.8066406 A 0.99195439,0.99195439 0 0 0 11.007812,9.5 v 0.507812 H 9 7.5 c -0.8093314,0 -1.4921875,0.682857 -1.4921875,1.492188 v 2 c 0,0.809331 0.6828561,1.492187 1.4921875,1.492188 H 9 11.001953 L 11,15.501953 A 0.99195439,0.99195439 0 0 0 11.132812,16 h 2.392579 C 13.788324,16 14,15.777 14,15.5 V 8.8691406 L 13.578125,8.4472656 C 13.308757,8.1715788 12.941787,8.0118918 12.556641,8 Z"
       style="fill:#ffffff;fill-opacity:0.78431373"
       inkscape:connector-curvature="0" />
    <path
       sodipodi:nodetypes="cccccsssscccccccccccc"
       inkscape:connector-curvature="0"
       style="fill:url(#linearGradient849);fill-opacity:1"
       id="path6"
       d="m 12.478516,8.9902346 c -0.271607,0.018839 -0.47823,0.2515068 -0.464844,0.5234375 L 12,9.5000002 V 11 H 9 7.5 C 7.223,11 7,11.223 7,11.5 v 2 C 7,13.777 7.223,14 7.5,14 H 9 12 L 11.9922,15.507813 12,15.5 c -0.009,0.455597 0.546366,0.684783 0.861328,0.355469 l 2.960938,-2.960938 c 0.002,-0.0013 0.0039,-0.0026 0.0059,-0.0039 0.259957,-0.200805 0.259037,-0.593445 -0.002,-0.792968 L 12.869141,9.1406252 c -0.09072,-0.092848 -0.21399,-0.1467786 -0.34375,-0.1503906 -0.01562,-7.328e-4 -0.03127,-7.328e-4 -0.04687,0 z" />
  </g>
</svg>
