<svg viewBox="0 0 16 16" xmlns="http://www.w3.org/2000/svg">
/&amp;amp;gt;<path d="m12.472657 9c.305517-.00774.493425.2409329.496094.5h.03125v2h2.5c.277 0 .5.223.5.5v.505859.494141c0 .277-.223.5-.5.5h-2.5v2h-.01172c-.0084.382489-.500042.706965-.859375.349609l-2.9199211-2.910156c-.3388519-.192527-.336656-.681609.00391-.871094l2.9160121-2.9160152c.090379-.0935991.213702-.1482538.34375-.1523438z" fill="#0a84ff" fill-rule="evenodd"/><path d="m5 0c-2.209139 0-4 1.790861-4 4s1.790861 4 4 4v8h2v-14h2v8.861328l2-1.9941405v-6.8671875l3-1v-1h-3-2-2zm4 14.136719v1.863281h1.863281z" fill="#69696e"/></svg>