<?xml version="1.0" encoding="UTF-8" standalone="no"?>
<svg
   xmlns:dc="http://purl.org/dc/elements/1.1/"
   xmlns:cc="http://creativecommons.org/ns#"
   xmlns:rdf="http://www.w3.org/1999/02/22-rdf-syntax-ns#"
   xmlns:svg="http://www.w3.org/2000/svg"
   xmlns="http://www.w3.org/2000/svg"
   xmlns:sodipodi="http://sodipodi.sourceforge.net/DTD/sodipodi-0.dtd"
   xmlns:inkscape="http://www.inkscape.org/namespaces/inkscape"
   viewBox="0 0 16 16"
   version="1.1"
   id="svg6"
   sodipodi:docname="sc_pasteonlytext.svg"
   inkscape:version="0.92.3 (unknown)"
   inkscape:export-filename="/home/rizmut/Dokumen/Rizmut/Github/libreoffice-style-colibrex/images_colibrex/cmd/sc_pasteonlytext.png"
   inkscape:export-xdpi="96"
   inkscape:export-ydpi="96"><metadata
   id="metadata12">
  <rdf:RDF>
    <cc:Work
       rdf:about="">
      <dc:format>image/svg+xml</dc:format>
      <dc:type
         rdf:resource="http://purl.org/dc/dcmitype/StillImage" />
      <dc:title></dc:title>
    </cc:Work>
  </rdf:RDF>
</metadata>
<defs
   id="defs10" />
<sodipodi:namedview
   pagecolor="#ffffff"
   bordercolor="#666666"
   borderopacity="1"
   objecttolerance="10"
   gridtolerance="10"
   guidetolerance="10"
   inkscape:pageopacity="0"
   inkscape:pageshadow="2"
   inkscape:window-width="1366"
   inkscape:window-height="706"
   id="namedview8"
   showgrid="true"
   inkscape:snap-smooth-nodes="true"
   inkscape:zoom="20.85965"
   inkscape:cx="9.2298722"
   inkscape:cy="6.0221769"
   inkscape:window-x="0"
   inkscape:window-y="0"
   inkscape:window-maximized="1"
   inkscape:current-layer="g10">
  <inkscape:grid
     type="xygrid"
     id="grid822"
     spacingx="0.5"
     spacingy="0.5"
     empspacing="2" />
</sodipodi:namedview>




     /&amp;gt;
 <path
   d="m 2.5,2.5 c -0.554,0 -1,0.446 -1,1 v 11 c 0,0.554 0.446,1 1,1 h 11 c 0.554,0 1,-0.446 1,-1 v -11 c 0,-0.554 -0.460187,-1.1245722 -1,-1 h -1 v 1 c 0,0.554 -0.446,1 -1,1 h -7 c -0.554,0 -0.9942233,-0.4460301 -1,-1 v -1 z"
   id="path2"
   style="fill:#e2b96c;stroke:#bc974c;stroke-opacity:1;fill-opacity:1"
   inkscape:connector-curvature="0"
   sodipodi:nodetypes="sssssssscsssscs" />
<path
   d="m 8,0.5 c -1.1045695,0 -2,0.8954305 -2,2 H 3.5 v 2 H 8 12.5 v -2 H 10 c 0,-1.1045695 -0.8954305,-2 -2,-2 z m 0,1 c 0.5522847,0 1,0.4477153 1,1 0,0.5522847 -0.4477153,1 -1,1 -0.5522847,0 -1,-0.4477153 -1,-1 2.944e-4,-0.03328 0.00225,-0.066524 0.00586,-0.099609 C 7.0569959,1.889572 7.4866284,1.5004549 8,1.5 Z"
   id="path4"
   style="fill:#797979;fill-opacity:1;stroke:#757575;stroke-opacity:1"
   inkscape:connector-curvature="0"
   sodipodi:nodetypes="scccccccscssccc" />
<g
   transform="translate(-8,-1)"
   id="g10">
  <g
     id="g896">
    <path
       style="opacity:1;fill:#808080;fill-opacity:1;stroke:none;stroke-width:2;stroke-linecap:round;stroke-linejoin:round;stroke-miterlimit:4;stroke-dasharray:none;stroke-opacity:1"
       d="M 4,3 C 3.446,3 3,3.446 3,4 v 10 c 0,0.554 0.446,1 1,1 h 8 c 0.554,0 1,-0.446 1,-1 V 4 C 13,3.446 12.554,3 12,3 Z"
       transform="translate(8,1)"
       id="rect816"
       inkscape:connector-curvature="0" />
    <path
       stroke-miterlimit="4"
       id="rect818"
       d="m 12,5 v 10 h 8 V 5 Z"
       inkscape:connector-curvature="0"
       style="opacity:1;fill:#fdf9f3;fill-opacity:1;stroke:none;stroke-width:2;stroke-linecap:round;stroke-linejoin:round;stroke-miterlimit:4;stroke-dasharray:none;stroke-opacity:1" />
    <path
       id="path14"
       d="m 17.442308,13.926964 q -0.173077,0 -0.264423,-0.04868 -0.09135,-0.05356 -0.144231,-0.209349 l -0.105769,-0.321324 q -0.182692,0.160662 -0.350962,0.282376 -0.168269,0.121714 -0.350961,0.204479 -0.177885,0.08277 -0.384616,0.121714 Q 15.639423,14 15.389423,14 15.081731,14 14.826923,13.91723 14.572116,13.829593 14.384615,13.664062 14.201923,13.498531 14.100962,13.255104 14,13.006808 14,12.685483 q 0,-0.26777 0.134615,-0.53554 0.134616,-0.26777 0.456731,-0.481986 0.326923,-0.219085 0.865385,-0.360273 Q 16,11.161628 16.807693,11.142153 V 10.88412 q 0,-0.467381 -0.192308,-0.686465 -0.192308,-0.2190849 -0.552885,-0.2190849 -0.269231,0 -0.447115,0.063291 -0.173077,0.06329 -0.307693,0.141188 -0.134615,0.07303 -0.25,0.136319 -0.115384,0.06329 -0.259615,0.06329 -0.125,0 -0.216346,-0.06329 -0.08654,-0.06816 -0.139423,-0.160662 L 14.221154,9.7692224 q 0.413461,-0.3894839 0.913461,-0.5793573 0.5,-0.1898735 1.081731,-0.1898735 0.41827,0 0.75,0.1411879 0.331731,0.1363194 0.5625,0.389484 0.23077,0.248296 0.350962,0.5939635 Q 18,10.470294 18,10.88412 v 3.042844 z m -1.673077,-0.769231 q 0.326923,0 0.5625,-0.116845 0.240385,-0.121714 0.475962,-0.37001 V 11.89191 q -0.475962,0.01947 -0.79327,0.08277 -0.3125,0.05842 -0.5,0.155794 -0.1875,0.0925 -0.269231,0.219084 -0.07692,0.126583 -0.07692,0.272639 0,0.292113 0.158654,0.413827 0.163462,0.121713 0.442308,0.121714 z"
       inkscape:connector-curvature="0"
       style="fill:#808080;fill-opacity:1" />
  </g>
</g>
</svg>
