<?xml version="1.0" encoding="UTF-8" standalone="no"?>
<svg
   xmlns:dc="http://purl.org/dc/elements/1.1/"
   xmlns:cc="http://creativecommons.org/ns#"
   xmlns:rdf="http://www.w3.org/1999/02/22-rdf-syntax-ns#"
   xmlns:svg="http://www.w3.org/2000/svg"
   xmlns="http://www.w3.org/2000/svg"
   xmlns:xlink="http://www.w3.org/1999/xlink"
   xmlns:sodipodi="http://sodipodi.sourceforge.net/DTD/sodipodi-0.dtd"
   xmlns:inkscape="http://www.inkscape.org/namespaces/inkscape"
   viewBox="0 0 16 16"
   version="1.1"
   id="svg18"
   sodipodi:docname="sc_pasteonlyformula.svg"
   inkscape:version="0.92.3 (unknown)"><metadata
   id="metadata24">
  <rdf:RDF>
    <cc:Work
       rdf:about="">
      <dc:format>image/svg+xml</dc:format>
      <dc:type
         rdf:resource="http://purl.org/dc/dcmitype/StillImage" />
    </cc:Work>
  </rdf:RDF>
</metadata>
<defs
   id="defs22">
  <linearGradient
     gradientTransform="translate(-25.830508,-3.5932203)"
     id="a"
     gradientUnits="userSpaceOnUse"
     x1="14"
     x2="13.79661"
     y1="22"
     y2="2.1355929">
    <stop
       offset="0"
       stop-color="#0040dd"
       id="stop2" />
    <stop
       offset="1"
       stop-color="#0a84ff"
       id="stop4" />
  </linearGradient>
  <linearGradient
     gradientTransform="translate(-11,-1)"
     id="a-3"
     gradientUnits="userSpaceOnUse"
     x1="14"
     x2="13.79661"
     y1="22"
     y2="2.1355929">
    <stop
       offset="0"
       stop-color="#0040dd"
       id="stop1492" />
    <stop
       offset="1"
       stop-color="#0a84ff"
       id="stop1494" />
  </linearGradient>
  <linearGradient
     gradientTransform="matrix(0.79951909,0,0,0.79951909,-1.7700739,-1.6019135)"
     inkscape:collect="always"
     xlink:href="#a-3"
     id="linearGradient853"
     x1="7"
     y1="22"
     x2="7"
     y2="2"
     gradientUnits="userSpaceOnUse" />
  <linearGradient
     gradientTransform="matrix(0.79951909,0,0,0.79951909,-2.7700739,-1.6019135)"
     inkscape:collect="always"
     xlink:href="#a-3"
     id="linearGradient851"
     x1="18"
     y1="22"
     x2="18"
     y2="12"
     gradientUnits="userSpaceOnUse" />
  <linearGradient
     inkscape:collect="always"
     xlink:href="#a-3"
     id="linearGradient1808"
     gradientUnits="userSpaceOnUse"
     gradientTransform="matrix(0.79951909,0,0,0.79951909,-1.7700739,-1.6019135)"
     x1="7"
     y1="22"
     x2="7"
     y2="2" />
  <linearGradient
     inkscape:collect="always"
     xlink:href="#a-3"
     id="linearGradient1810"
     gradientUnits="userSpaceOnUse"
     gradientTransform="matrix(0.79951909,0,0,0.79951909,-2.7700739,-1.6019135)"
     x1="18"
     y1="22"
     x2="18"
     y2="12" />
</defs>
<sodipodi:namedview
   pagecolor="#ffffff"
   bordercolor="#666666"
   borderopacity="1"
   objecttolerance="10"
   gridtolerance="10"
   guidetolerance="10"
   inkscape:pageopacity="0"
   inkscape:pageshadow="2"
   inkscape:window-width="1366"
   inkscape:window-height="699"
   id="namedview20"
   showgrid="false"
   inkscape:zoom="20.85965"
   inkscape:cx="1.780286"
   inkscape:cy="9.5005235"
   inkscape:window-x="0"
   inkscape:window-y="0"
   inkscape:window-maximized="1"
   inkscape:current-layer="svg18" />





     /&amp;amp;gt;
 <path
   d="m2.5 2.5c-.554 0-1 .446-1 1v11c0 .554.446 1 1 1h11c.554 0 1-.446 1-1v-11c0-.554-.460187-1.1245722-1-1h-1v1c0 .554-.446 1-1 1h-7c-.554 0-.9942233-.4460301-1-1v-1z"
   fill="#e2b96c"
   stroke="#bc974c"
   id="path2" />
<path
   d="m8 .5c-1.1045695 0-2 .8954305-2 2h-2.5v2h4.5 4.5v-2h-2.5c0-1.1045695-.8954305-2-2-2zm0 1c.5522847 0 1 .4477153 1 1s-.4477153 1-1 1-1-.4477153-1-1c.0002944-.03328.00225-.066524.00586-.099609.0511359-.510819.4807684-.8999361.99414-.900391z"
   fill="#797979"
   stroke="#757575"
   id="path4" />
<g
   transform="translate(-8 -1)"
   id="g16">
  <path
     d="m4 3c-.554 0-1 .446-1 1v10c0 .554.446 1 1 1h8c.554 0 1-.446 1-1v-10c0-.554-.446-1-1-1z"
     transform="translate(8 1)"
     id="path6"
     fill="#808080" />
  <path
     d="m12 5v10h8v-10z"
     id="path8"
     fill="#fdf9f3" />
  <g
     transform="matrix(0.49703567,0,0,0.49703567,12.504909,6.0540373)"
     id="g1736">
    <g
       id="text839"
       style="font-style:normal;font-weight:normal;font-size:21.00526428px;line-height:1.25;font-family:sans-serif;letter-spacing:0px;word-spacing:0px;fill:url(#linearGradient853);fill-opacity:1;stroke:none;stroke-width:0.52513152"
       aria-label="f">
      <path
         id="path912"
         style="font-style:italic;font-variant:normal;font-weight:normal;font-stretch:normal;font-family:Roboto;-inkscape-font-specification:'Roboto Italic';fill:url(#linearGradient1808);fill-opacity:1;stroke-width:0.52513152"
         d="M 1.0307693,15.987778 2.7128315,6.3569461 H 0.99999991 L 1.2564118,4.8902699 H 2.958987 l 0.1846165,-1.312829 q 0.2666684,-1.6718057 1.2923161,-2.61540156 1.0769301,-0.98462176 2.7487358,-0.96410881 0.5230803,0 1.3230855,0.17436011 L 8.2820984,1.7210186 Q 7.7897875,1.6184539 7.2872201,1.5979409 q -0.9641088,0 -1.5692409,0.6051321 Q 5.1231035,2.7979487 4.9795129,3.7928269 L 4.8154092,4.8902699 H 7.11286 L 6.8564481,6.3569461 H 4.5589973 L 2.8871916,15.987778 Z"
         inkscape:connector-curvature="0" />
    </g>
    <g
       id="text843"
       style="font-style:normal;font-weight:normal;font-size:15.15304565px;line-height:1.25;font-family:sans-serif;letter-spacing:0px;word-spacing:0px;fill:url(#linearGradient851);fill-opacity:1;stroke:none;stroke-width:0.37882614"
       aria-label="x"
       transform="translate(-1.5788027,-0.15377003)">
      <path
         id="path915"
         style="font-style:italic;font-variant:normal;font-weight:500;font-stretch:normal;font-family:Roboto;-inkscape-font-specification:'Roboto Medium Italic';fill:url(#linearGradient1810);fill-opacity:1;stroke-width:0.37882614"
         d="m 11.048956,10.613566 1.886732,-2.6192278 h 2.049508 L 11.922032,12.019366 13.705178,16 H 11.870239 L 10.752998,13.269788 8.7848779,16 H 6.7427683 L 9.9021191,11.856589 8.1781642,7.9943382 h 1.8349388 z"
         inkscape:connector-curvature="0" />
    </g>
  </g>
</g>
</svg>
