<svg viewBox="0 0 16 16" xmlns="http://www.w3.org/2000/svg" xmlns:xlink="http://www.w3.org/1999/xlink"><linearGradient id="a" gradientUnits="userSpaceOnUse" x1="12.496094" x2="12.592044" xlink:href="#b" y1="9.5" y2="15.664012"/><linearGradient id="b" gradientTransform="translate(-25.627119 -8.474576)" gradientUnits="userSpaceOnUse" x1="14" x2="13.79661" y1="22" y2="2.135593"><stop offset="0" stop-color="#0040dd"/><stop offset="1" stop-color="#0a84ff"/></linearGradient><linearGradient id="c" gradientUnits="userSpaceOnUse" x1="12.208457" x2="12.496094" xlink:href="#b" y1=".267872" y2="6.5"/><path d="m11.5.5v2.984375h-2.0039062l3.0000002 3.015625 3-3.015625h-1.996094v-2.984375z" fill="url(#c)" stroke="url(#c)" stroke-linecap="round" stroke-linejoin="round" stroke-width=".999439" transform="matrix(1 0 0 -1 0 6.999979)"/><path d="m12.496094 9.5-3.0000002 3.015625h2.0039062v2.984375h2v-2.984375h1.996094z" fill="url(#a)" stroke="url(#a)" stroke-linecap="round" stroke-linejoin="round" stroke-width=".999439" transform="matrix(1 0 0 -1 0 25.000021)"/><g fill="#69696e"><rect height="1" ry=".380151" width="7" x="1" y="2.000001"/><rect height="1" ry=".440076" width="7" x="1" y="12"/><rect height="1" ry=".5" width="8" x="1" y="14"/><rect height="1" ry=".47603" width="8" x="1" y="4"/></g><g fill="#e9e9e9" fill-opacity=".992157"><rect height="1" ry=".380151" width="7" x="1" y="3.000001"/><rect height="1" ry=".440076" width="7" x="1" y="13"/><rect height="1" ry=".5" width="8" x="1" y="15"/><rect height="1" ry=".47603" width="8" x="1" y="5"/></g></svg>