<?xml version="1.0" encoding="UTF-8" standalone="no"?>
<svg
   xmlns:dc="http://purl.org/dc/elements/1.1/"
   xmlns:cc="http://creativecommons.org/ns#"
   xmlns:rdf="http://www.w3.org/1999/02/22-rdf-syntax-ns#"
   xmlns:svg="http://www.w3.org/2000/svg"
   xmlns="http://www.w3.org/2000/svg"
   xmlns:xlink="http://www.w3.org/1999/xlink"
   xmlns:sodipodi="http://sodipodi.sourceforge.net/DTD/sodipodi-0.dtd"
   xmlns:inkscape="http://www.inkscape.org/namespaces/inkscape"
   viewBox="0 0 16 16"
   version="1.1"
   id="svg6"
   sodipodi:docname="sc_polygon.svg"
   inkscape:version="0.92.3 (2405546, 2018-03-11)">
  <metadata
     id="metadata12">
    <rdf:RDF>
      <cc:Work
         rdf:about="">
        <dc:format>image/svg+xml</dc:format>
        <dc:type
           rdf:resource="http://purl.org/dc/dcmitype/StillImage" />
        <dc:title></dc:title>
      </cc:Work>
    </rdf:RDF>
  </metadata>
  <defs
     id="defs10">
    <linearGradient
       gradientTransform="translate(-23.050847,-10.779661)"
       id="a"
       gradientUnits="userSpaceOnUse"
       x1="12"
       x2="12"
       y1="21.5"
       y2="2.5">
      <stop
         offset="0"
         stop-color="#e5eefc"
         id="stop1020" />
      <stop
         offset="1"
         stop-color="#fcfdff"
         id="stop1022" />
    </linearGradient>
    <linearGradient
       inkscape:collect="always"
       xlink:href="#a"
       id="linearGradient848"
       x1="8.9068441"
       y1="15.932203"
       x2="9.127183"
       y2="0.27118644"
       gradientUnits="userSpaceOnUse" />
  </defs>
  <sodipodi:namedview
     pagecolor="#ffffff"
     bordercolor="#666666"
     borderopacity="1"
     objecttolerance="10"
     gridtolerance="10"
     guidetolerance="10"
     inkscape:pageopacity="0"
     inkscape:pageshadow="2"
     inkscape:window-width="1366"
     inkscape:window-height="716"
     id="namedview8"
     showgrid="false"
     inkscape:zoom="10.429825"
     inkscape:cx="14.750444"
     inkscape:cy="3.6183728"
     inkscape:window-x="-8"
     inkscape:window-y="-8"
     inkscape:window-maximized="1"
     inkscape:current-layer="svg6" />
  <path
     d="m12.507154.50009189-12.00708964 4.46539481 4.73706904 10.1404163.262772.394005h10.0001586l-2.598752-2.202724-2.199708-4.9907346-.218977-.437784.131387-.525341z"
     id="path2"
     fill="#fff"
     style="stroke:none;fill-opacity:1;fill:url(#linearGradient848)" />
  <path
     d="m12.476562 0a.50014186.50014186 0 0 0 -.144531.03125l-12.00585912 4.4648438a.50014186.50014186 0 0 0 -.27929688.6816406l4.7363281 10.1406246a.50014186.50014186 0 0 0 .037109.06445l.2636719.394532a.50014186.50014186 0 0 0 .416016.222659h10a.50014186.50014186 0 0 0 .324219-.880859l-2.511719-2.128907-2.152344-4.8847652a.50014186.50014186 0 0 0 -.01172-.023438l-.136717-.2714839.085937-.3398438 1.890625-6.8378906a.50014186.50014186 0 0 0 -.511719-.6328125zm-.710937 1.3105469-1.632813 5.9003906a.50014186.50014186 0 0 0 -.0039.011719l-.1308651.5253904a.50014186.50014186 0 0 0 .037109.34375l.212891.4277343 2.195312 4.9785158a.50014186.50014186 0 0 0 .134766.179687l1.5585941 1.322266h-8.3691409l-.09375-.140625-4.4921875-9.6152344z"
     fill="#808080"
     id="path4"
     style="fill:#0a84ff;fill-opacity:1" />
</svg>
