<svg viewBox="0 0 16 16" xmlns="http://www.w3.org/2000/svg">




     /&amp;amp;gt;
 <path d="m2.5 2.5c-.554 0-1 .446-1 1v11c0 .554.446 1 1 1h11c.554 0 1-.446 1-1v-11c0-.554-.460187-1.1245722-1-1h-1v1c0 .554-.446 1-1 1h-7c-.554 0-.9942233-.4460301-1-1v-1z" fill="#e2b96c" stroke="#bc974c"/><path d="m8 .5c-1.1045695 0-2 .8954305-2 2h-2.5v2h4.5 4.5v-2h-2.5c0-1.1045695-.8954305-2-2-2zm0 1c.5522847 0 1 .4477153 1 1s-.4477153 1-1 1-1-.4477153-1-1c.0002944-.03328.00225-.066524.00586-.099609.0511359-.510819.4807684-.8999361.99414-.900391z" fill="#797979" stroke="#757575"/><g transform="translate(-8 -1)"><path d="m4 3c-.554 0-1 .446-1 1v10c0 .554.446 1 1 1h8c.554 0 1-.446 1-1v-10c0-.554-.446-1-1-1z" fill="#808080" transform="translate(8 1)"/><path d="m12 5v10h8v-10z" fill="#fdf9f3"/><path d="m14.480583 13h1.247572v-3.1684206c0-.1383459.0049-.2827068.01456-.4330828l-.839805.6721804c-.05502.0421-.110033.06767-.165049.07669-.05502.009-.106796.009-.15534 0-.04854-.009-.09223-.02406-.131068-.04511-.0356-.02406-.06311-.04812-.08252-.07218l-.368933-.4691744 1.936893-1.5609022h1.063107v4.9999996h1v1h-3.519417z" fill="#808080"/></g></svg>