<svg viewBox="0 0 16 16" xmlns="http://www.w3.org/2000/svg">




     /&amp;amp;gt;
 <path d="m2.5 2.5c-.554 0-1 .446-1 1v11c0 .554.446 1 1 1h11c.554 0 1-.446 1-1v-11c0-.554-.460187-1.1245722-1-1h-1v1c0 .554-.446 1-1 1h-7c-.554 0-.9942233-.4460301-1-1v-1z" fill="#e2b96c" stroke="#bc974c"/><path d="m8 .5c-1.1045695 0-2 .8954305-2 2h-2.5v2h4.5 4.5v-2h-2.5c0-1.1045695-.8954305-2-2-2zm0 1c.5522847 0 1 .4477153 1 1s-.4477153 1-1 1-1-.4477153-1-1c.0002944-.03328.00225-.066524.00586-.099609.0511359-.510819.4807684-.8999361.99414-.900391z" fill="#797979" stroke="#757575"/><g transform="translate(-8 -1)"><path d="m4 3c-.554 0-1 .446-1 1v10c0 .554.446 1 1 1h8c.554 0 1-.446 1-1v-10c0-.554-.446-1-1-1z" fill="#808080" transform="translate(8 1)"/><path d="m12 5v10h8v-10z" fill="#fdf9f3"/><g fill="#0a84ff" stroke-width=".5"><path d="m15.759791 6c-.265613 0-.512566.041516-.740234.125-.227669.080273-.429371.1974385-.606446.3515625-.173913.1509132-.317807.3370405-.43164.5585938-.110672.2183423-.182247.4643769-.213868.7373046l-.042968.2275391h-.664063l-.05664.628906c-.01265.08991.0053.158867.05273.207031.04743.04495.110402.07574.189453.0918l.374028.072263-.601563 5h.488281c.170751 0 .303576-.04319.398438-.129883.09486-.08348.164715-.205665.208984-.366211l.246094-.852539.436523-3.651367h1.098607l.104493-1h-1.131811l.0332-.1894531c.01897-.1733894.0539-.3186961.104493-.4375.05376-.118804.120167-.2152114.199218-.2890625.08221-.073851.17667-.1270707.28418-.1591797s.225824-.047851.355469-.047851c.0917.0000001.174343-.00836.24707-.024414.07273-.016055.117002-.060915.132813-.1347656l.109378-.6308599c-.186562-.0577966-.378172-.0869142-.574219-.0869142z"/><path d="m15.636719 10 .821289 1.840821-1.458008 2.159179h.883789c.06025 0 .111408-.01905.153321-.05664.04191-.04028.0802-.08325.114258-.128907l.730468-1.188476.04004-.06445c.01309-.02149.02596-.04541.03906-.07227l.50293 1.325195c.02095.04834.04927.09131.08594.128907.03667.0376.08911.05664.15722.05664h.908209l-.908204-2.166991 1.292969-1.833008h-.90332c-.04715 0-.08802.01197-.12207.03613-.03405.02417-.06848.05884-.102539.104492l-.557618.938477c-.02095.02954-.04026.05933-.05859.08887-.01572.02686-.03085.05542-.04395.08496l-.447264-1.127929c-.02096-.04565-.04638-.07788-.0752-.09668-.02881-.0188-.07611-.02832-.141597-.02832z"/></g></g></svg>