<?xml version="1.0" encoding="UTF-8" standalone="no"?>
<svg
   xmlns:dc="http://purl.org/dc/elements/1.1/"
   xmlns:cc="http://creativecommons.org/ns#"
   xmlns:rdf="http://www.w3.org/1999/02/22-rdf-syntax-ns#"
   xmlns:svg="http://www.w3.org/2000/svg"
   xmlns="http://www.w3.org/2000/svg"
   xmlns:xlink="http://www.w3.org/1999/xlink"
   xmlns:sodipodi="http://sodipodi.sourceforge.net/DTD/sodipodi-0.dtd"
   xmlns:inkscape="http://www.inkscape.org/namespaces/inkscape"
   viewBox="0 0 16 16"
   version="1.1"
   id="svg6"
   sodipodi:docname="sc_quoteparastyle.svg"
   inkscape:version="0.92.3 (2405546, 2018-03-11)">
  <metadata
     id="metadata12">
    <rdf:RDF>
      <cc:Work
         rdf:about="">
        <dc:format>image/svg+xml</dc:format>
        <dc:type
           rdf:resource="http://purl.org/dc/dcmitype/StillImage" />
        <dc:title></dc:title>
      </cc:Work>
    </rdf:RDF>
  </metadata>
  <defs
     id="defs10">
    <linearGradient
       gradientTransform="translate(-29.694915,1.220339)"
       id="a-6"
       gradientUnits="userSpaceOnUse"
       x1="14"
       x2="13.79661"
       y1="22"
       y2="2.1355929">
      <stop
         offset="0"
         stop-color="#0040dd"
         id="stop2" />
      <stop
         offset="1"
         stop-color="#0a84ff"
         id="stop4" />
    </linearGradient>
    <linearGradient
       inkscape:collect="always"
       xlink:href="#a-6"
       id="linearGradient842"
       x1="12.271187"
       y1="15.864407"
       x2="12.338983"
       y2="8.2033901"
       gradientUnits="userSpaceOnUse" />
  </defs>
  <sodipodi:namedview
     pagecolor="#ffffff"
     bordercolor="#666666"
     borderopacity="1"
     objecttolerance="10"
     gridtolerance="10"
     guidetolerance="10"
     inkscape:pageopacity="0"
     inkscape:pageshadow="2"
     inkscape:window-width="1366"
     inkscape:window-height="716"
     id="namedview8"
     showgrid="false"
     inkscape:zoom="14.75"
     inkscape:cx="-1.6610169"
     inkscape:cy="8"
     inkscape:window-x="-8"
     inkscape:window-y="-8"
     inkscape:window-maximized="1"
     inkscape:current-layer="svg6" />
  <path
     d="m6.7871094 0c-.9743987 0-1.877332.19389418-2.7089844.58007812-.825446.38618395-1.5421672.92161248-2.1503906 1.60742188-.6020171.6791511-1.07466578 1.4869548-1.41601565 2.4257812-.34134987.9321682-.51171875 1.945141-.51171875 3.0371094 0 .8389514.12123316 1.6187895.36328125 2.3378906.24204809.7191008.58634511 1.3442858 1.03320315 1.8769528.4530643.52601 1.0029759.938656 1.6484375 1.238282.6454615.299625 1.3709074.449218 2.1777343.449218.2482545 0 .4907208-.01243.7265626-.03906.2358417-.02663.4676302-.06472.6972656-.111328l.4179687.607422c.1359624-.390833.498406-.67574.9355469-.675784.1603428 0 .4989036-.10908.71875-.279296.159502-.123496.2202395-.227057.25-.304688l-.1796875-.255859c.0739692-.049221.1390872-.11001.2109375-.16211v-.332031h-1c-.5002373-.00005-.8970197-.373883-.9707031-.853516-.4674625.215427-.9815856.330078-1.546875.330078-.4840962 0-.91794-.09171-1.3027344-.271484-.378588-.186434-.6983172-.449487-.9589844-.789062-.2606671-.339576-.4627224-.7440548-.6054687-1.2167972-.13654-.4794008-.203125-1.0167824-.203125-1.609375 0-.8256347.094712-1.5767083.2871094-2.2558594.1923971-.6791511.4665499-1.2588805.8203124-1.7382813.359969-.4860591.7902535-.8594652 1.2929688-1.1191406.5027153-.2663338 1.0649107-.3984375 1.6855469-.3984375.4840962 0 .9163338.092863 1.2949219.2792969.378588.1864336.6999233.4494869.9667968.7890625.2668736.3395755.4689288.7491148.6054688 1.2285156.1427463.4794008.2148437 1.011722.2148437 1.5976562 0 .358845-.026735.6969667-.0625 1.0273438h1.4824219c.371162.0000371.682919.2114457.855469.5117188.08751-.5120646.144531-1.0386612.144531-1.5898438 0-.8389513-.121233-1.6168364-.363281-2.3359375-.242048-.7257595-.589905-1.3528971-1.042969-1.8789063-.446858-.5326675-.9932103-.94842135-1.6386719-1.24804682-.6392552-.30628383-1.3611418-.45898438-2.1679687-.45898438z"
     fill="#696969"
     id="path2"
     style="fill:#4b4b4f;fill-opacity:1" />
  <path
     d="m8 8v3h2v1.666667c0 .920475-1.116352 1.666666-2 1.666666v1.666667c1.767312 0 2.962774-1.492762 3-3.333333v-1.666667-1.333333-1.666667zm5 0v3h1.400001v1.666667c0 .920475-.516352 1.666666-1.400001 1.666666v1.666667c1.767312 0 3-1.492385 3-3.333333v-1.666667-1.333333-1.666667z"
     fill="#4d82b8"
     id="path4"
     style="fill-opacity:1;fill:url(#linearGradient842)" />
</svg>
