<svg viewBox="0 0 16 16" xmlns="http://www.w3.org/2000/svg" xmlns:xlink="http://www.w3.org/1999/xlink"><linearGradient id="a" gradientTransform="translate(-25.830508 -3.59322)" gradientUnits="userSpaceOnUse" x1="14" x2="13.79661" y1="22" y2="2.135593"><stop offset="0" stop-color="#0040dd"/><stop offset="1" stop-color="#0a84ff"/></linearGradient><linearGradient id="b" gradientUnits="userSpaceOnUse" x1="2.559322" x2="2.576271" xlink:href="#a" y1="12.720339" y2="10.144068"/><linearGradient id="c" gradientUnits="userSpaceOnUse" x1="2.486123" x2="2.32212" xlink:href="#a" y1="4.938183" y2="2.061817"/><linearGradient id="d" gradientUnits="userSpaceOnUse" x1="2.629941" x2="2.753574" xlink:href="#a" y1="12.938183" y2="10.061817"/><g fill="#69696e" transform="scale(-1 1)"><rect height="1" ry=".5" width="10" x="-15" y="2"/><rect height="1" ry=".5" width="6.000002" x="-11" y="5"/><rect height="1" ry=".5" width="10" x="-14.999999" y="10"/><rect height="1" ry=".5" width="6.000002" x="-11" y="13"/></g><g fill="#e9e9e9" fill-opacity=".992157" transform="matrix(-1 0 0 1 0 1)"><rect height="1" ry=".5" width="10" x="-15" y="2"/><rect height="1" ry=".5" width="6.000002" x="-11" y="5"/><rect height="1" ry=".5" width="10" x="-14.999999" y="10"/><rect height="1" ry=".5" width="6.000002" x="-11" y="13"/></g><ellipse cx="2.5" cy="11.5" fill="url(#b)"/><path d="m4 3.5a1.5 1.5 0 0 1 -1.5 1.5 1.5 1.5 0 0 1 -1.5-1.5 1.5 1.5 0 0 1 1.5-1.5 1.5 1.5 0 0 1 1.5 1.5z" fill="url(#c)"/><path d="m4 11.5a1.5 1.5 0 0 1 -1.5 1.5 1.5 1.5 0 0 1 -1.5-1.5 1.5 1.5 0 0 1 1.5-1.5 1.5 1.5 0 0 1 1.5 1.5z" fill="url(#d)"/><path d="m8.8691406 5.9980469a1.0027597 1.0027597 0 0 0 -.6777344.2734375l-.7675781.7285156h2.8710939l-.7031251-.7070312a1.0027597 1.0027597 0 0 0 -.7226563-.2949219zm-1.9765625 4.1113281 1.3359375 1.371094-.5136718.519531h7.5781252l-.521485-.53125 1.228516-1.359375zm-.1679687 2.890625-.4375.441406a1.0027597 1.0027597 0 0 0 -.2871094.625v.132813a1.0027597 1.0027597 0 0 0 .296875.662109l.140625.138672h4.769531l.304688-.322266.30664.322266h4.181641v-2z" fill="#fff" fill-opacity=".784314"/><path d="m16 14.149904-2.605902-2.651537 2.50749-2.7777723-1.807553-1.7205859-2.580554 2.6470558-2.632865-2.6470558-1.880616 1.783872 2.632863 2.7031722-2.632863 2.660005 1.880616 1.852942 2.62981-2.77941 2.635919 2.77941z" fill="#c20618"/></svg>