<?xml version="1.0" encoding="UTF-8" standalone="no"?>
<svg
   xmlns:dc="http://purl.org/dc/elements/1.1/"
   xmlns:cc="http://creativecommons.org/ns#"
   xmlns:rdf="http://www.w3.org/1999/02/22-rdf-syntax-ns#"
   xmlns:svg="http://www.w3.org/2000/svg"
   xmlns="http://www.w3.org/2000/svg"
   xmlns:xlink="http://www.w3.org/1999/xlink"
   xmlns:sodipodi="http://sodipodi.sourceforge.net/DTD/sodipodi-0.dtd"
   xmlns:inkscape="http://www.inkscape.org/namespaces/inkscape"
   viewBox="0 0 16 16"
   version="1.1"
   id="svg13"
   sodipodi:docname="sc_radiobutton.svg"
   inkscape:version="0.92.3 (unknown)"
   inkscape:export-filename="/home/rizmut/Dokumen/Rizmut/Github/libreoffice-style-sukapura/images_sukapura/cmd/sc_radiobutton.png"
   inkscape:export-xdpi="96"
   inkscape:export-ydpi="96"><metadata
   id="metadata19">
  <rdf:RDF>
    <cc:Work
       rdf:about="">
      <dc:format>image/svg+xml</dc:format>
      <dc:type
         rdf:resource="http://purl.org/dc/dcmitype/StillImage" />
      <dc:title></dc:title>
    </cc:Work>
  </rdf:RDF>
</metadata>
<defs
   id="defs17">
  <linearGradient
     gradientTransform="translate(-19.457627,-1.6271186)"
     id="a-3"
     gradientUnits="userSpaceOnUse"
     x1="8"
     x2="8"
     y1="15"
     y2="1">
    <stop
       offset="0"
       stop-color="#e9e9e9"
       id="stop2-6" />
    <stop
       offset=".2857143"
       stop-color="#f2f2f2"
       id="stop4-7" />
    <stop
       offset="1"
       stop-color="#fbfbfb"
       id="stop6" />
  </linearGradient>
  <linearGradient
     inkscape:collect="always"
     xlink:href="#a-3"
     id="linearGradient848"
     x1="8.0508471"
     y1="14.983051"
     x2="8"
     y2="1"
     gradientUnits="userSpaceOnUse" />
</defs>
<sodipodi:namedview
   pagecolor="#ffffff"
   bordercolor="#666666"
   borderopacity="1"
   objecttolerance="10"
   gridtolerance="10"
   guidetolerance="10"
   inkscape:pageopacity="0"
   inkscape:pageshadow="2"
   inkscape:window-width="1366"
   inkscape:window-height="706"
   id="namedview15"
   showgrid="false"
   inkscape:pagecheckerboard="true"
   inkscape:zoom="2.6074563"
   inkscape:cx="34.838956"
   inkscape:cy="-19.109741"
   inkscape:window-x="0"
   inkscape:window-y="0"
   inkscape:window-maximized="1"
   inkscape:current-layer="svg13" />
<linearGradient
   id="a"
   gradientUnits="userSpaceOnUse"
   x1="8"
   x2="8"
   y1="12.5"
   y2="3.5">
  <stop
     offset="0"
     stop-color="#fff"
     id="stop2" />
  <stop
     offset="1"
     stop-color="#fff"
     stop-opacity="0"
     id="stop4" />
</linearGradient>



     /&amp;gt;
 <path
   id="path826"
   d="m 8,1 c 3.865993,0 7,3.1340068 7,7 0,3.865993 -3.134007,7 -7,7 C 4.1340068,15 1,11.865993 1,8 1,4.1340068 4.1340068,1 8,1 Z"
   inkscape:connector-curvature="0"
   style="fill:url(#linearGradient848);fill-opacity:1"
   sodipodi:nodetypes="sssss" />
<path
   d="m8 0a8 8 0 0 0 -8 8 8 8 0 0 0 8 8 8 8 0 0 0 8-8 8 8 0 0 0 -8-8zm0 1a7 7 0 0 1 7 7 7 7 0 0 1 -7 7 7 7 0 0 1 -7-7 7 7 0 0 1 7-7z"
   fill="#98989d"
   id="path7" />
<circle
   cx="8"
   cy="8"
   fill="#69696e"
   r="4.003084"
   stroke-width=".800617"
   id="circle9" />
<circle
   cx="8"
   cy="8"
   fill="none"
   r="4.499574"
   stroke="url(#a)"
   id="circle11" />
</svg>
