<svg viewBox="0 0 16 16" xmlns="http://www.w3.org/2000/svg" xmlns:xlink="http://www.w3.org/1999/xlink"><linearGradient id="a" gradientTransform="matrix(0 1.0659265 -1.0659265 0 16.527412 -.527412)" gradientUnits="userSpaceOnUse" x1="15.505208" x2=".494792" y1="8" y2="8"><stop offset="0" stop-color="#2a9240"/><stop offset="1" stop-color="#32d74b"/></linearGradient>





     /&amp;amp;amp;gt;
 <path d="m15.984039 8c-.000039-4.4098182-3.574221-7.98400018-7.9840392-7.98403918-1.6566369.0029-3.27063.520824-4.619708 1.48230398l1.478139 1.47814 2.6086057 2.891742.4122139-3.73907c3.2315456.000462 5.8507926 2.620641 5.8501046 5.8521863-.002549 1.0645936-.295511 2.1083169-.847329 3.0187369l1.617627 1.617627c.96186-1.348122 1.48033-2.9615498 1.484386-4.617627zm-3.36433 6.501735-1.590563-1.590562-3.0291462-2.77932-.1207494 3.699514c-3.2315456.000689-5.8517256-2.618559-5.8521866-5.8501039.0026-1.1154506.324081-2.2069033.92644-3.1457323l-1.453157-1.453158c-.96185798 1.348123-1.48032998 2.9615501-1.48438598 4.6176272.000039 4.409819 3.57421998 7.984 7.98403898 7.984039 1.6566369-.0029 3.2706312-.520825 4.6197092-1.482304z" fill="url(#a)"/></svg>