<svg viewBox="0 0 16 16" xmlns="http://www.w3.org/2000/svg" xmlns:xlink="http://www.w3.org/1999/xlink"><linearGradient id="a" gradientUnits="userSpaceOnUse" x1="7.574219" x2="7.451172" y1="15.994141" y2="1.003906"><stop offset="0" stop-color="#0040dd"/><stop offset="1" stop-color="#0a84ff"/></linearGradient><linearGradient id="b" gradientUnits="userSpaceOnUse" x1="7.664063" x2="7.664063" y1="14.990234" y2="2.007813"><stop offset="0" stop-color="#e5eefc"/><stop offset="1" stop-color="#fcfdff"/></linearGradient><path d="m14 8.5a6.5 6.5 0 0 1 -6.5 6.5 6.5 6.5 0 0 1 -6.5-6.5 6.5 6.5 0 0 1 6.5-6.5 6.5 6.5 0 0 1 6.5 6.5z" fill="url(#b)"/><path d="m7.4550781 1c-.3604362.0021589-.7119752.0385896-1.0585937.0898438-.0405537.006194-.080726.012685-.1210938.0195312-.2225391.0366469-.4407932.0829049-.65625.1386719-.2155368.0557877-.4272278.1193541-.6347656.1933593-1.2010722.4282873-2.258331 1.1517071-3.0878906 2.0859376-.0401952.0451205-.0819851.088677-.1210938.1347656-.0882737.1043538-.1713505.2131419-.2539062.3222656-.0548524.072278-.1098591.1444525-.1621094.21875-.0755271.1077195-.1468945.218311-.2167969.3300781-.0529336.0843915-.1046838.1692491-.15429685.2558594-.059857.1047713-.11700475.2105042-.171875.3183594-.05308697.104067-.10210431.2095915-.15039063.3164062-.04402066.0976325-.08704409.195123-.12695312.2949219-.0519292.1295455-.09780477.2615142-.14257812.3945312-.02709207.0806389-.05567889.1603526-.08007813.2421876-.04750896.1590383-.08797752.3210677-.125.484375-.01536928.0679334-.03336383.1345074-.046875.203125-.03466798.175669-.05988908.3552729-.08203125.5351562-.0076241.0620868-.0192938.1230017-.02539062.1855469-.0231536.2368563-.03654583.4758748-.03710938.71875-.0000121.0052572.00000128.0103652 0 .015625v.0019531c.00000128.0052598-.0000121.0103678 0 .015625.00056355.2428752.01395578.4818937.03710938.71875.00609682.0625451.01776652.1234601.02539062.1855469.02214217.1798833.04736327.3594871.08203125.5351562.01351117.0686179.03150572.1351919.046875.2031249.03702248.163307.07749104.325337.125.484375.02439924.081835.05298607.161549.08007813.242188.04477335.133017.09064892.264985.14257812.394531.03990903.099799.08293246.197289.12695312.294922.04828632.106814.09730366.212339.15039063.316406.05487025.107855.112018.213588.171875.318359.04961305.086611.10136325.171468.15429685.25586.0699024.111767.1412698.222358.2167969.330078.0522503.074297.107257.146472.1621094.21875.0825557.109124.1656325.217912.2539062.322266.0391087.046087.0808986.089644.1210938.134765.8295596.93423 1.8868184 1.65765 3.0878906 2.085938.2075378.074005.4192288.137571.6347656.193359.2154568.055767.4337109.102025.65625.138672.0403678.00684.0805398.013331.1210938.019531.3466185.051254.6981575.087685 1.0585937.089844l-.0039062-.003906c.0165891.000141.0322045.003906.0488281.003906.003999 0 .0077188-.001944.0117188-.001953.004652.0001.0090218.001949.0136718.001953.0166236 0 .032239-.003765.0488282-.003906l-.0039063.003906c.3604362-.002159.7119752-.03859 1.0585937-.089844.040554-.00619.0807258-.012731.1210938-.019531.2225391-.036647.4407932-.082905.65625-.138672.2155368-.055788.4272274-.119354.634766-.193359 1.201072-.428288 2.258331-1.151708 3.08789-2.085938.040195-.04512.081985-.088678.121094-.134765.088274-.104355.17135-.213142.253906-.322266.054853-.072278.109859-.144453.16211-.21875.075527-.10772.146895-.218311.216796-.330078.052935-.084392.104684-.169249.154297-.25586.059857-.104771.117005-.210504.171875-.318359.053087-.104067.102105-.209592.150391-.316406.044021-.097633.087044-.195123.126953-.294922.051929-.129546.097805-.261514.142578-.394531.027092-.080639.055679-.160353.080078-.242188.047509-.159038.087978-.321068.125-.484375.01537-.067933.033364-.134507.046875-.2031249.034668-.1756691.059889-.3552729.082032-.5351562.007624-.0620868.019293-.1230018.02539-.1855469.023154-.2368563.036546-.4758748.03711-.71875.000013-.005919 0-.0116558 0-.0175781-.000002-.005264.000012-.0103636 0-.015625-.000564-.2428752-.013956-.4818937-.03711-.71875-.006097-.0625452-.017766-.1234601-.02539-.1855469-.022143-.1798833-.047364-.3594873-.082032-.5351562-.013511-.0686176-.031505-.1351916-.046875-.203125-.037022-.1633073-.077491-.3253368-.125-.484375-.024399-.0818349-.052986-.1615486-.080078-.2421876-.044773-.133017-.090649-.2649857-.142578-.3945312-.039909-.0997989-.082932-.1972894-.126953-.2949219-.048286-.1068147-.097304-.2123392-.150391-.3164062-.05487-.1078552-.112018-.2135881-.171875-.3183594-.049613-.0866103-.101362-.1714679-.154297-.2558594-.069901-.1117671-.141269-.2223586-.216796-.3300781-.052251-.0742975-.107257-.146472-.16211-.21875-.082556-.1091237-.165632-.2179118-.253906-.3222656-.039109-.0460886-.080899-.0896451-.121094-.1347656-.829559-.9342305-1.886818-1.6576503-3.08789-2.0859376-.2075386-.0740053-.4192292-.1375716-.634766-.1933593-.2154568-.055767-.4337109-.102025-.65625-.1386719-.0403678-.0068462-.0805399-.0133374-.1210938-.0195312-.3466184-.0512541-.6981575-.0876849-1.0585937-.0898438l.0039063.0039062c-.0165892-.0001412-.0322046-.0039062-.0488282-.0039062-.0046544.0000036-.009019.001941-.0136718.0019531-.0039959-.0000094-.0077218-.00195-.0117188-.0019531-.0166236 0-.032239.0037651-.0488281.0039062zm.0566407 1c.0508149.0018664.1015862.004757.1523437.0078125.3325032.7842325.5868945 1.5540546.7949219 2.3164063.0544518.202499.1216198.4052562.1679687.6074218-.3712256.0294908-.7414517.0430592-1.1113281.0429688-.3718154.0002436-.7440075-.0133228-1.1171875-.0429688.046349-.2021656.1135169-.4049229.1679687-.6074218.2080274-.7623517.4624187-1.5321738.7949219-2.3164063.0501084-.0030165.1002261-.0059547.1503907-.0078125zm-1.3789063.1601562c-.3202664.8776266-.5727104 1.7591455-.7597656 2.6425782-.8828443-.1357948-1.7678489-.3533149-2.6542969-.6640625.9044882-1.000151 2.0988181-1.6866379 3.4140625-1.9785157zm2.7597656 0c1.3152449.2918778 2.5095739.9783647 3.4140629 1.9785157-.886448.3107476-1.771453.5282677-2.6542972.6640625-.1870554-.8834327-.4394994-1.7649517-.7597657-2.6425782zm-6.8574219 2.8671876c1.0523682.398356 2.1072311.6675624 3.1601563.8300781-.1069341.712157-.1561871 1.4259897-.1738281 2.140625h-3.9960938c.0488263-.6302387.200413-1.2426039.4257813-1.828125.0025213.0015742.0053005.0023073.0078125.0039062.1533732-.400419.347137-.7840162.5761718-1.1464843zm10.9550778 0c.229035.3624681.422799.7460653.576172 1.1464843.002512-.0015989.005291-.002332.007813-.0039062.225368.5855211.376955 1.1978863.425781 1.828125h-3.996094c-.0176403-.7146353-.0668934-1.428468-.1738279-2.140625 1.0529249-.1625157 2.1077879-.431722 3.1601559-.8300781zm-6.7851559.9648437c.3764118.0321785.7519156.0438901 1.1269531.0488281.0007901.00138.0011541.0025263.0019532.0039063.0430652.0006.0858202.0056594.1289062.0058593.016231.0000501.0325941-.0019431.0488282-.0019531.0168819.00001.0339022.0020011.0507812.0019531.0430862-.0001999.0858412-.0052613.1289062-.0058593.0008-.00138.001161-.0025363.0019532-.0039063.375031-.004938.7505415-.0166496 1.1269531-.0488281.1082245.6698578.1669684 1.3383181.1914063 2.0058594h-.0273438v.0019531h-.3339844-2.2753906-.3339844v-.0019531h-.0273437c.0244376-.6675413.0831816-1.3360016.1914062-2.0058594zm-5.1796875 3.0078125h3.9960938c.017641.7146353.066894 1.428468.1738281 2.140625-1.0529252.162516-2.1077881.431722-3.1601563.830078-.2290347-.362468-.4227986-.746066-.5761718-1.146484-.00251.0016-.0052925.002306-.0078125.003906-.2253683-.585521-.3769549-1.1978863-.4257813-1.828125zm4.9882813 0h.0273437 2.9433594.0273438c-.0244379.6675412-.0831818 1.336002-.1914063 2.005859-.3764116-.032178-.7519221-.04389-1.1269531-.048828-.0007922-.001374-.0011539-.00253-.0019532-.003906-.043065-.000598-.08582-.005659-.1289062-.005859-.016879-.000048-.0338985.00194-.0507812.001953-.0162345-.00001-.0325973-.001999-.0488282-.001953-.0430862.0002-.0858412.005261-.1289062.005859-.0007991.001376-.0011608.002532-.0019532.003906-.3750309.004938-.7505413.01665-1.1269531.048828-.1082245-.669857-.1669686-1.3383178-.1914062-2.005859zm3.9902341 0h3.996094c-.048826.6302387-.2004 1.24261-.425781 1.828125-.0025-.0016-.005313-.002306-.007813-.003906-.153373.400418-.347137.784016-.576172 1.146484-1.052368-.398356-2.107231-.667562-3.1601559-.830078.1069345-.712157.1561876-1.4259897.1738279-2.140625zm-2.488281 3.023438c.3698764-.000091.7401025.013478 1.1113281.042968-.0463489.202166-.1135167.404923-.1679687.607422-.2080274.762352-.4624187 1.532173-.7949219 2.316406-.0507575.003-.1015287.005913-.1523437.007813-.0501645-.0018-.1002827-.004813-.1503907-.007813-.3325032-.784233-.5868945-1.554054-.7949219-2.316406-.0544518-.202499-.1216197-.405256-.1679687-.607422.37318-.02965.7453721-.043213 1.1171875-.042968zm-2.1425781.171874c.1870552.883434.4394992 1.764952.7597656 2.642579-1.3152444-.291878-2.5095743-.978364-3.4140625-1.978516.886448-.310748 1.7714526-.528267 2.6542969-.664063zm4.2792969 0c.8828442.135795 1.7678492.353315 2.6542972.664063-.904489 1.000152-2.098818 1.686638-3.4140629 1.978516.3202663-.877627.5727103-1.759145.7597657-2.642579z" fill="url(#a)"/><path d="m14.603516 6.125c-9.7356773 6.583333-4.8678387 3.2916667 0 0zm-5.7343754-.125c-.011582.00015-.021671.00725-.033203.00781-.0003007-.00193.0002808-.00393 0-.00586-.2400904.0109768-.4681995.1080445-.6425782.2734406l-1.8183594 1.7246094-.0625.0585938c-.0663457.0627923-.1203982.1329326-.1640625.2070312-.1309929.2222958-.1628412.4854297-.1074219.734375h-.015625c.039438.1816406.1287147.3486968.2578125.4824219l1.9472657 1.9980471-1.9414063 1.96289c-.094464.09555-.1647746.205267-.2128906.322266-.00271.0084-.00532.01689-.00781.02539-.0440185.115914-.0689723.239035-.0683619.361329.0000096.002-.0000206.004 0 .0059.00136.126873.026878.252094.076172.371094.049792.120203.1240609.233067.2226562.330078l.029297.0293 1.1269531 1.109375c.0149718.000652.0299458.001303.0449217.001909 4.142136 0 7.5-3.357864 7.5-7.5-.003551-.7906182-.132091-1.5757026-.380859-2.3261719-.326505-.2061008-.728491-.2063813-1.052735 0-.0021-.00544-.0057-.010195-.0078-.015625-.06527.041088-.125568.089587-.179688.1445313l-1.873059 1.9199218-1.599609-1.609375-.3164062-.3183593c-.0952621-.0958192-.2074945-.1705401-.3300782-.2207031-.1225837-.0501631-.2555185-.0757688-.390625-.0742188zm-2.8535156 8.816406c.041283.0098.079564.02811.1210938.03711-.00122-.0034-.0027-.0065-.00391-.0098-.039146-.0087-.07821-.01784-.1171875-.02734zm1.3984375 1.179688c-4.9427083.0026-2.4713542.0013 0 0z" fill="#fff" fill-opacity=".784314"/><path d="m16 14.149904-2.605902-2.651537 2.50749-2.7777731-1.807553-1.7205858-2.580554 2.6470557-2.6328653-2.6470557-1.8806157 1.783872 2.6328627 2.7031729-2.6328627 2.660005 1.8806157 1.852942 2.6298103-2.77941 2.635919 2.77941z" fill="#c20618"/></svg>