<?xml version="1.0" encoding="UTF-8" standalone="no"?>
<svg
   xmlns:dc="http://purl.org/dc/elements/1.1/"
   xmlns:cc="http://creativecommons.org/ns#"
   xmlns:rdf="http://www.w3.org/1999/02/22-rdf-syntax-ns#"
   xmlns:svg="http://www.w3.org/2000/svg"
   xmlns="http://www.w3.org/2000/svg"
   xmlns:xlink="http://www.w3.org/1999/xlink"
   xmlns:sodipodi="http://sodipodi.sourceforge.net/DTD/sodipodi-0.dtd"
   xmlns:inkscape="http://www.inkscape.org/namespaces/inkscape"
   viewBox="0 0 16 16"
   version="1.1"
   id="svg15"
   sodipodi:docname="sc_redo.svg"
   inkscape:export-filename="/home/rizmut/Dokumen/Rizmut/Github/libreoffice-style-sukapura/images_sukapura/cmd/sc_undo.png"
   inkscape:export-xdpi="96"
   inkscape:export-ydpi="96"
   inkscape:version="0.92.3 (unknown)"><metadata
   id="metadata21">
  <rdf:RDF>
    <cc:Work
       rdf:about="">
      <dc:format>image/svg+xml</dc:format>
      <dc:type
         rdf:resource="http://purl.org/dc/dcmitype/StillImage" />
      <dc:title></dc:title>
    </cc:Work>
  </rdf:RDF>
</metadata>
<defs
   id="defs19">
  <linearGradient
     gradientTransform="translate(75,-7)"
     id="a-367"
     gradientUnits="userSpaceOnUse"
     x1="14"
     x2="13.79661"
     y1="22"
     y2="2.1355929">
    <stop
       offset="0"
       stop-color="#0040dd"
       id="stop2206" />
    <stop
       offset="1"
       stop-color="#0a84ff"
       id="stop2208" />
  </linearGradient>
  <linearGradient
     inkscape:collect="always"
     xlink:href="#a-367"
     id="linearGradient855"
     x1="3.6039922"
     y1="9.8696003"
     x2="10.82254"
     y2="2.4869266"
     gradientUnits="userSpaceOnUse" />
  <linearGradient
     inkscape:collect="always"
     xlink:href="#a-367"
     id="linearGradient857"
     gradientUnits="userSpaceOnUse"
     x1="3.6039922"
     y1="9.8696003"
     x2="10.82254"
     y2="2.4869266" />
  <linearGradient
     inkscape:collect="always"
     xlink:href="#a-367"
     id="linearGradient859"
     gradientUnits="userSpaceOnUse"
     x1="3.6039922"
     y1="9.8696003"
     x2="10.82254"
     y2="2.4869266" />
</defs>
<sodipodi:namedview
   pagecolor="#ffffff"
   bordercolor="#666666"
   borderopacity="1"
   objecttolerance="10"
   gridtolerance="10"
   guidetolerance="10"
   inkscape:pageopacity="0"
   inkscape:pageshadow="2"
   inkscape:window-width="1366"
   inkscape:window-height="697"
   id="namedview17"
   showgrid="false"
   inkscape:zoom="14.75"
   inkscape:cx="-1.7966102"
   inkscape:cy="8"
   inkscape:window-x="0"
   inkscape:window-y="0"
   inkscape:window-maximized="1"
   inkscape:current-layer="g13" />
<linearGradient
   id="a"
   gradientUnits="userSpaceOnUse"
   x1="3.422874"
   x2="7.422874"
   y1="-3.422874"
   y2="9.577126">
  <stop
     offset="0"
     stop-color="#fff"
     id="stop2" />
  <stop
     offset="1"
     stop-color="#fff"
     stop-opacity="0"
     id="stop4" />
</linearGradient>




     /&amp;amp;gt;
 <g
   fill="#0a84ff"
   transform="matrix(.70710678 -.70710678 .70710678 .70710678 -4.242641 9.171573)"
   id="g13">
  <g
     id="g847"
     style="fill:url(#linearGradient855);fill-opacity:1"
     transform="matrix(0,-1,-1,0,17.242641,17.242641)">
    <path
       id="path7"
       d="M 6.2871094,-0.09570312 A 0.49979081,0.49979081 0 0 0 5.9492188,0.05078125 L 1.3535156,4.6464844 a 0.49979081,0.49979081 0 0 0 0,0.7070312 L 5.9492188,9.9492188 A 0.49979081,0.49979081 0 0 0 6.8027344,9.5957031 V 0.40429688 a 0.49979081,0.49979081 0 0 0 -0.515625,-0.5 z"
       style="fill:url(#linearGradient857);fill-opacity:1"
       inkscape:connector-curvature="0" />
    <path
       id="path9"
       d="m 2,4 v 2 h 8 a 4,4 0 0 1 4,4 4,4 0 0 1 -4,4 c -0.554,0 -1,0.446 -1,1 0,0.554 0.446,1 1,1 a 6,6 0 0 0 6,-6 6,6 0 0 0 -6,-6 z"
       style="fill:url(#linearGradient859);fill-opacity:1"
       inkscape:connector-curvature="0" />
  </g>
</g>
</svg>
