<svg viewBox="0 0 16 16" xmlns="http://www.w3.org/2000/svg"><path d="m8.3710938 0-7.3710938 14h2.1914062c.2287222 0 .4323-.060209.609375-.179688.1770752-.126504.3055594-.267257.3867188-.421874l1.3945312-2.814454h1.9453126l1.8535156-1.865234h-2.8808594l2.2578125-4.5449219c.1032937-.2248995.2183217-.4841159.34375-.7792969.1328065-.2951806.2656312-.6146069.3984375-.9589843.0516467.3443774.1026501.6638037.1542969.9589843.0590248.2881527.1143688.5418942.1660156.7597657l.7832035 3.3339843 2.083984-2.09375-1.451172-5.3945312z" fill="#69696e"/><path d="m.46679688 15c-.25822052 0-.46679688.208576-.46679688.466797v.06641c0 .258217.20857636.466793.46679688.466793h6.82031252l-.8300782-.830078c-.0522944-.052265-.0935885-.111916-.1367187-.169922z" fill="#69696e"/><g fill="#e68497" transform="matrix(.74912231 0 0 .74967327 -1.942593 -1.242485)"><path d="m16.518661 20.388672 6.495399-6.642082-2.741063-2.75182-6.590273 6.561871z"/><path d="m15.549003 21.813366c.189562 0 .378184-.07172.523438-.216797l.457939-1.190319-2.847656-2.849609-.495049 1.159069c-.290506.290127-.290506.756747 0 1.046875l1.835938 1.833984c.145254.145064.335828.216797.52539.216797z" fill="#e7acbc"/><path d="m13.268111 6.2809083-5.512774 5.5431347-.41708 1.276625c-.2176245.217501.1179516.517763.3355761.735265l1.375 1.375c.108813.10875.250573.164062.3925781.164062s.2837651.304244.3925779.195484l1.2785689-.173487 4.692413-4.688516-.05179-1.8372674z" fill="none" stroke="#b6496c" transform="matrix(1.3348955 0 0 1.3339144 2.593158 1.657369)"/><path d="m15.3289 10.464928c.108813.10875-4.51159 4.527756-4.369585 4.527756s-.9704718.06334-.861659-.04542l.34375-.892578-.0098-.01172 4.865234-4.980469z" fill="#ab4263" transform="matrix(1.3348955 0 0 1.3339144 2.593158 1.657369)"/><path d="m14.357108 17.991261 5.915542-6.005319 2.113619 2.184993" fill="none" stroke="#f398b3" stroke-width="1.334405"/></g></svg>