<?xml version="1.0" encoding="UTF-8" standalone="no"?>
<svg
   xmlns:dc="http://purl.org/dc/elements/1.1/"
   xmlns:cc="http://creativecommons.org/ns#"
   xmlns:rdf="http://www.w3.org/1999/02/22-rdf-syntax-ns#"
   xmlns:svg="http://www.w3.org/2000/svg"
   xmlns="http://www.w3.org/2000/svg"
   xmlns:sodipodi="http://sodipodi.sourceforge.net/DTD/sodipodi-0.dtd"
   xmlns:inkscape="http://www.inkscape.org/namespaces/inkscape"
   viewBox="0 0 16 16"
   version="1.1"
   id="svg24"
   sodipodi:docname="sc_showslide.svg"
   inkscape:version="0.92.4 (unknown)"><metadata
   id="metadata30">
  <rdf:RDF>
    <cc:Work
       rdf:about="">
      <dc:format>image/svg+xml</dc:format>
      <dc:type
         rdf:resource="http://purl.org/dc/dcmitype/StillImage" />
    </cc:Work>
  </rdf:RDF>
</metadata>
<defs
   id="defs28" />
<sodipodi:namedview
   pagecolor="#ffffff"
   bordercolor="#666666"
   borderopacity="1"
   objecttolerance="10"
   gridtolerance="10"
   guidetolerance="10"
   inkscape:pageopacity="0"
   inkscape:pageshadow="2"
   inkscape:window-width="1360"
   inkscape:window-height="714"
   id="namedview26"
   showgrid="false"
   inkscape:zoom="14.75"
   inkscape:cx="-3.6271186"
   inkscape:cy="8"
   inkscape:window-x="0"
   inkscape:window-y="28"
   inkscape:window-maximized="1"
   inkscape:current-layer="svg24" />
/&amp;gt;<path
   d="m1 4h14v11h-14z"
   fill="#fff"
   id="path2" />
<path
   d="m0 3v13h1 8.585938 5.414062 1v-8.414062-3.585938-1zm1 1h14v4.585938 6.414062h-4.414062-9.585938z"
   fill="#98989d"
   id="path4" />
<path
   d="m0 0h16v2h-16z"
   fill="#0040dd"
   id="path6" />
<path
   d="m2 6h12v2h-12z"
   fill="#ffd60a"
   id="path8"
   style="fill:#ff9500;fill-opacity:1" />
<g
   fill="#98989d"
   id="g22">
  <path
     d="m2 11h5v1h-5z"
     id="path10" />
  <path
     d="m2 9h5v1h-5z"
     id="path12" />
  <path
     d="m2 13h5v1h-5z"
     id="path14" />
  <path
     d="m9 11h5v1h-5z"
     id="path16" />
  <path
     d="m9 9h5v1h-5z"
     id="path18" />
  <path
     d="m9 13h5v1h-5z"
     id="path20" />
</g>
</svg>
