<svg viewBox="0 0 16 16" xmlns="http://www.w3.org/2000/svg"><g fill="#69696e" stroke-width=".343784"><path d="m6.404929 8.0372986h-3.786998l-.7923151 2.2762274h-1.76592286l3.69299446-9.77636341h1.5241996l3.699709 9.77636341h-1.7726374zm-3.310266-1.3697652h2.833534l-1.416767-4.0555794z"/><path d="m10 0v10.314453h1.050782l.484375-.5703124.02148-.2167968c.0263.03399.05848.057738.08594.089844l.615236-.7226566c-.264964-.1575431-.475698-.3945497-.626953-.7226562v-2.9941406c.286487-.6177373.413829-.9277344 1.121093-.9277344.52821 0 .93145.1978775 1.208985.5917969.225799.3204896.354393.7781377.396484 1.359375.145254-.077468.299153-.1409786.464844-.1777344.0033-.000667.0065-.00132.0098-.00195.219415-.046218.446025-.045171.650391-.00586h.002c.185199.035913.349231.097337.498047.1757812-.061052-.9529666-.297586-1.7252396-.732504-2.2910181-.505828-.6580244-1.201572-.9863281-2.087891-.9863281-.796792 0-1.061232.276963-1.531249.8320313v-3.7460938z"/></g><path d="m15.291698 7.0118053c-.08045-.015575-.163987-.01645-.249867.00164-.183019.0406-.35168.1463864-.470341.2950811l-5.252126 6.1698766-1.8813593-1.931437c-.3146717-.32309-.8872488-.323066-1.2019794 0-.3146887.323073-.3147137.910865 0 1.233975l2.5084787 2.575247.65325.643812.5748598-.697463 5.8531172-6.8673289c.415147-.4639881.0291-1.3148091-.534033-1.423429z" fill="#32d74b"/><path d="m5.3300781 10-.3984375.435547-1.9277344 1.927734-1.9277343-1.927734c-.51521276-.8346489-1.63543115.285569-.80078128.800781l2.32812498 2.328125.4003906.435547.4003907-.435547 1.5800781-1.582031c.041692-.405794.2142318-.803337.5351562-1.132813.1072623-.110102.2251619-.199251.3476563-.277343l-.1367187-.136719z" fill="#d70015"/></svg>