<?xml version="1.0" encoding="UTF-8" standalone="no"?>
<svg
   xmlns:dc="http://purl.org/dc/elements/1.1/"
   xmlns:cc="http://creativecommons.org/ns#"
   xmlns:rdf="http://www.w3.org/1999/02/22-rdf-syntax-ns#"
   xmlns:svg="http://www.w3.org/2000/svg"
   xmlns="http://www.w3.org/2000/svg"
   xmlns:xlink="http://www.w3.org/1999/xlink"
   xmlns:sodipodi="http://sodipodi.sourceforge.net/DTD/sodipodi-0.dtd"
   xmlns:inkscape="http://www.inkscape.org/namespaces/inkscape"
   viewBox="0 0 16 16"
   version="1.1"
   id="svg12"
   sodipodi:docname="sc_starshapes.star24.svg"
   inkscape:version="0.92.3 (2405546, 2018-03-11)"><metadata
   id="metadata18">
  <rdf:RDF>
    <cc:Work
       rdf:about="">
      <dc:format>image/svg+xml</dc:format>
      <dc:type
         rdf:resource="http://purl.org/dc/dcmitype/StillImage" />
      <dc:title></dc:title>
    </cc:Work>
  </rdf:RDF>
</metadata>
<defs
   id="defs16">
  <linearGradient
     gradientTransform="matrix(0.26458333,0,0,0.26458333,101.6,307.58333)"
     id="b"
     gradientUnits="userSpaceOnUse"
     x1="18.5"
     x2="18.5"
     y1="23"
     y2="14.5">
    <stop
       offset="0"
       stop-color="#d70015"
       id="stop956" />
    <stop
       offset="1"
       stop-color="#ff453a"
       id="stop958" />
  </linearGradient>
  <linearGradient
     inkscape:collect="always"
     xlink:href="#b"
     id="linearGradient848"
     x1="11.472978"
     y1="14.823697"
     x2="11.757146"
     y2="10.594764"
     gradientUnits="userSpaceOnUse" />
  <linearGradient
     gradientTransform="translate(24.745763,-10.372881)"
     id="a"
     gradientUnits="userSpaceOnUse"
     x1="12"
     x2="12"
     y1="21.5"
     y2="2.5">
    <stop
       offset="0"
       stop-color="#e5eefc"
       id="stop1020" />
    <stop
       offset="1"
       stop-color="#fcfdff"
       id="stop1022" />
  </linearGradient>
  <linearGradient
     inkscape:collect="always"
     xlink:href="#a"
     id="linearGradient868"
     x1="6.929297"
     y1="15.130141"
     x2="6.0509629"
     y2="0.80755979"
     gradientUnits="userSpaceOnUse" />
</defs>
<sodipodi:namedview
   pagecolor="#ffffff"
   bordercolor="#666666"
   borderopacity="1"
   objecttolerance="10"
   gridtolerance="10"
   guidetolerance="10"
   inkscape:pageopacity="0"
   inkscape:pageshadow="2"
   inkscape:window-width="1366"
   inkscape:window-height="716"
   id="namedview14"
   showgrid="false"
   inkscape:zoom="7.375"
   inkscape:cx="19.319295"
   inkscape:cy="7.3113116"
   inkscape:window-x="-8"
   inkscape:window-y="-8"
   inkscape:window-maximized="1"
   inkscape:current-layer="svg12" />
/&gt;<g
   stroke-linejoin="round"
   id="g10">
  <path
     d="m7.9999999.51569365-.5067497 4.04443215-1.4422874-3.752566.5067496 4.002737-2.2998636-3.2522238 1.4422874 3.7525659-3.0015171-2.4600152 2.2998637 3.2105285-3.5082667-1.5427216 3.0404978 2.4600155-3.74215116-.5420373 3.50826676 1.5427215-3.78113195.5420375 3.78113195.5420373-3.50826676 1.5010269 3.74215116-.500343-3.0404978 2.460017 3.5082667-1.584418-2.2998637 3.252225 3.0015171-2.501712-1.4422874 3.794262 2.2998636-3.293919s1.6396275-2.3257103 1.6396275-2.3349306h5.3379251l-1.832095-.7922083 3.781132-.5420373-3.781132-.5420375 3.508266-1.5427215-3.781131.5420373 3.040497-2.4600155-3.508266 1.5427216 2.338844-3.2105285-3.040497 2.4600152 1.481268-3.7525659-2.2998632 3.2522238.4677689-4.002737-1.4033067 3.752566z"
     fill="#fff"
     stroke="#808080"
     stroke-width="1.032067"
     id="path2"
     style="fill-opacity:1;fill:url(#linearGradient868);stroke:#0a84ff;stroke-opacity:1" />
  <g
     fill="#4d82b8"
     stroke-width=".557285"
     transform="scale(1.0033566 .99665463)"
     id="g8"
     style="fill-opacity:1;fill:url(#linearGradient848)">
    <path
       d="m11.054857 16.053705h-4.1487413v-.872778l1.4898121-1.50605q.6616877-.677925.8646593-.937729.2029717-.263863.2922793-.487132.089308-.223269.089308-.462775 0-.357231-.1989122-.531786-.1948529-.174556-.523667-.174556-.3450518 0-.6698065.158318-.3247547.158318-.6779254.450597l-.6819853-.807827q.4384188-.373468.7266386-.527726.2882198-.154259.6292122-.235448.3409924-.08525.7631735-.08525.5561424 0 .9823829.202972.4262408.202972.6616878.568321.235447.365349.235447.836243 0 .410003-.14614.771292-.14208.357231-.446537.734758-.3003984.377527-1.0635719 1.07575l-.7631735.718519v.05683h2.5858594v1.055452z"
       id="path4"
       style="fill-opacity:1.0;fill:url(#linearGradient848)" />
    <path
       d="m15.946474 14.823697h-.71446v1.230008h-1.225949v-1.230008h-2.533087v-.872778l2.602097-3.832106h1.156939v3.73062h.71446zm-1.940409-.974264v-1.00674q0-.251685.0203-.730698.0203-.479013.03248-.556142h-.03248q-.150199.332873-.361289.649509l-1.087929 1.644071h1.428921z"
       id="path6"
       style="fill-opacity:1.0;fill:url(#linearGradient848)" />
  </g>
</g>
</svg>
