<?xml version="1.0" encoding="UTF-8" standalone="no"?>
<svg
   xmlns:dc="http://purl.org/dc/elements/1.1/"
   xmlns:cc="http://creativecommons.org/ns#"
   xmlns:rdf="http://www.w3.org/1999/02/22-rdf-syntax-ns#"
   xmlns:svg="http://www.w3.org/2000/svg"
   xmlns="http://www.w3.org/2000/svg"
   xmlns:xlink="http://www.w3.org/1999/xlink"
   xmlns:sodipodi="http://sodipodi.sourceforge.net/DTD/sodipodi-0.dtd"
   xmlns:inkscape="http://www.inkscape.org/namespaces/inkscape"
   viewBox="0 0 16 16"
   version="1.1"
   id="svg6"
   sodipodi:docname="sc_symbolshapes.flower.svg"
   inkscape:version="0.92.3 (2405546, 2018-03-11)"><metadata
   id="metadata12">
  <rdf:RDF>
    <cc:Work
       rdf:about="">
      <dc:format>image/svg+xml</dc:format>
      <dc:type
         rdf:resource="http://purl.org/dc/dcmitype/StillImage" />
      <dc:title></dc:title>
    </cc:Work>
  </rdf:RDF>
</metadata>
<defs
   id="defs10">
  <linearGradient
     gradientTransform="translate(-23.118644,-8.7457626)"
     id="a"
     gradientUnits="userSpaceOnUse"
     x1="12"
     x2="12"
     y1="21.5"
     y2="2.5">
    <stop
       offset="0"
       stop-color="#e5eefc"
       id="stop2" />
    <stop
       offset="1"
       stop-color="#fcfdff"
       id="stop4" />
  </linearGradient>
  <linearGradient
     inkscape:collect="always"
     xlink:href="#a"
     id="linearGradient840"
     x1="7.7966104"
     y1="15.457627"
     x2="8"
     y2="0.5"
     gradientUnits="userSpaceOnUse" />
</defs>
<sodipodi:namedview
   pagecolor="#ffffff"
   bordercolor="#666666"
   borderopacity="1"
   objecttolerance="10"
   gridtolerance="10"
   guidetolerance="10"
   inkscape:pageopacity="0"
   inkscape:pageshadow="2"
   inkscape:window-width="1366"
   inkscape:window-height="716"
   id="namedview8"
   showgrid="false"
   inkscape:zoom="14.75"
   inkscape:cx="-1.6610169"
   inkscape:cy="8"
   inkscape:window-x="-8"
   inkscape:window-y="-8"
   inkscape:window-maximized="1"
   inkscape:current-layer="svg6" />
/&gt;<path
   d="m8 .5c-1.0358006 0-2.1972656 2.1972656-2.1972656 2.1972656s-2.3735028-.7319662-3.1054688 0c-.731966.7319663 0 3.1054688 0 3.1054688s-2.1972656 1.1614646-2.1972656 2.1972656 2.1972656 2.197266 2.1972656 2.197266-.731966 2.373501 0 3.105469c.731966.731965 3.1054688-.000001 3.1054688 0 0 0 1.161465 2.197265 2.1972656 2.197265 1.035801 0 2.197266-2.197266 2.197266-2.197265 0 0 2.373501.731965 3.105469 0 .731965-.731968 0-3.105469 0-3.105469s2.197265-1.161465 2.197265-2.197266-2.197265-2.1972656-2.197265-2.1972656.731965-2.3735025 0-3.1054688c-.731968-.7319662-3.105469 0-3.105469 0s-1.161465-2.1972656-2.197266-2.1972656zm0 3.75c2.071068 0 3.75 1.6789315 3.75 3.75 0 2.071068-1.678932 3.75-3.75 3.75-2.0710677 0-3.75-1.678931-3.75-3.75 0-2.0710685 1.6789323-3.75 3.75-3.75z"
   fill="#fff"
   stroke="#808080"
   id="path2"
   style="fill-opacity:1;fill:url(#linearGradient840);stroke:#0a84ff;stroke-opacity:1" />
</svg>
