<?xml version="1.0" encoding="UTF-8" standalone="no"?>
<svg
   xmlns:dc="http://purl.org/dc/elements/1.1/"
   xmlns:cc="http://creativecommons.org/ns#"
   xmlns:rdf="http://www.w3.org/1999/02/22-rdf-syntax-ns#"
   xmlns:svg="http://www.w3.org/2000/svg"
   xmlns="http://www.w3.org/2000/svg"
   xmlns:sodipodi="http://sodipodi.sourceforge.net/DTD/sodipodi-0.dtd"
   xmlns:inkscape="http://www.inkscape.org/namespaces/inkscape"
   viewBox="0 0 16 16"
   version="1.1"
   id="svg10"
   sodipodi:docname="sc_strikeout.svg"
   inkscape:version="0.92.3 (2405546, 2018-03-11)"><metadata
   id="metadata16">
  <rdf:RDF>
    <cc:Work
       rdf:about="">
      <dc:format>image/svg+xml</dc:format>
      <dc:type
         rdf:resource="http://purl.org/dc/dcmitype/StillImage" />
      <dc:title></dc:title>
    </cc:Work>
  </rdf:RDF>
</metadata>
<defs
   id="defs14" />
<sodipodi:namedview
   pagecolor="#ffffff"
   bordercolor="#666666"
   borderopacity="1"
   objecttolerance="10"
   gridtolerance="10"
   guidetolerance="10"
   inkscape:pageopacity="0"
   inkscape:pageshadow="2"
   inkscape:window-width="1366"
   inkscape:window-height="692"
   id="namedview12"
   showgrid="true"
   inkscape:zoom="29.5"
   inkscape:cx="6.1913213"
   inkscape:cy="11.408491"
   inkscape:window-x="0"
   inkscape:window-y="0"
   inkscape:window-maximized="1"
   inkscape:current-layer="svg10">
  <inkscape:grid
     type="xygrid"
     id="grid823" />
</sodipodi:namedview>



     /&amp;gt;
 <path
   style="font-style:normal;font-variant:normal;font-weight:normal;font-stretch:normal;font-size:medium;line-height:1.25;font-family:roboto;-inkscape-font-specification:roboto;letter-spacing:0px;word-spacing:0px;fill:#69696e;fill-opacity:1;stroke:none;stroke-width:0.31295764"
   d="M 8.9433594 2.6679688 L 8.9433594 7 L 10.273438 7 C 10.602896 6.5295838 11.06712 6.28125 11.681641 6.28125 C 12.239911 6.28125 12.667371 6.4904344 12.964844 6.9101562 C 12.984091 6.9373127 12.997615 6.971374 13.015625 7 L 14.253906 7 C 14.146922 6.7175635 14.020156 6.4547259 13.851562 6.2324219 C 13.395167 5.6252515 12.76566 5.3203125 11.962891 5.3203125 C 11.160122 5.3203125 10.530615 5.6035011 10.074219 6.1699219 L 10.074219 2.6679688 L 8.9433594 2.6679688 z M 4.6953125 5.3203125 C 4.2144661 5.3203125 3.7725626 5.410545 3.3691406 5.5898438 C 2.9697936 5.7691424 2.6523638 6.014521 2.4160156 6.3242188 C 2.2500005 6.5426598 2.1648945 6.7691904 2.1171875 7 L 3.2558594 7 C 3.3171571 6.8275125 3.432611 6.6719379 3.6132812 6.5371094 C 3.8863043 6.3333609 4.2235312 6.2324219 4.6269531 6.2324219 C 5.0874247 6.2324219 5.4374799 6.3495892 5.6738281 6.5859375 C 5.792848 6.7029053 5.8806226 6.8416749 5.9394531 7 L 7.1074219 7 C 7.0181878 6.5498789 6.8120457 6.1822554 6.4863281 5.8964844 C 6.0543814 5.5134372 5.4573318 5.3203125 4.6953125 5.3203125 z M 1.953125 10 C 1.9463324 10.074461 1.9316406 10.144175 1.9316406 10.222656 C 1.9316406 10.789078 2.1409938 11.258084 2.5566406 11.628906 C 2.9763625 11.995654 3.5120674 12.179688 4.1640625 12.179688 C 4.893482 12.179686 5.521204 11.905421 6.046875 11.359375 C 6.0876249 11.693522 6.1398788 11.926241 6.2050781 12.056641 L 7.390625 12.056641 L 7.390625 11.958984 C 7.2357762 11.600387 7.1582031 11.116936 7.1582031 10.509766 L 7.1582031 10 L 6.0273438 10 L 6.0273438 10.205078 C 5.8847198 10.498476 5.6557382 10.736549 5.3378906 10.919922 C 5.020043 11.103296 4.6826473 11.195313 4.328125 11.195312 C 3.9573028 11.195314 3.654317 11.096158 3.4179688 10.896484 C 3.1816205 10.696811 3.0625 10.418975 3.0625 10.064453 C 3.0625 10.041529 3.0692055 10.022276 3.0703125 10 L 1.953125 10 z M 8.9433594 10 L 8.9433594 12.056641 L 9.9824219 12.056641 L 10.037109 11.292969 C 10.493506 11.883839 11.139241 12.179686 11.974609 12.179688 C 12.757003 12.179688 13.381156 11.872964 13.845703 11.261719 C 14.112373 10.908499 14.294488 10.483087 14.408203 10 L 13.234375 10 C 13.162775 10.224932 13.075315 10.427924 12.958984 10.589844 C 12.657437 11.009565 12.235331 11.21875 11.693359 11.21875 C 10.959865 11.21875 10.420591 10.872431 10.074219 10.179688 L 10.074219 10 L 8.9433594 10 z "
   id="path834" />
<rect
   style="fill:#696969"
   id="rect2"
   y="8"
   x="1"
   width="14"
   ry="0.5"
   height="1" />
</svg>
