<svg viewBox="0 0 16 16" xmlns="http://www.w3.org/2000/svg" xmlns:xlink="http://www.w3.org/1999/xlink"><linearGradient id="a" gradientUnits="userSpaceOnUse" x1="0" x2="6.998668" xlink:href="#b" y1="8" y2="8"/><linearGradient id="b" gradientTransform="translate(-31.423729 -6.61017)" gradientUnits="userSpaceOnUse" x1="14" x2="13.79661" y1="22" y2="2.135593"><stop offset="0" stop-color="#0040dd"/><stop offset="1" stop-color="#0a84ff"/></linearGradient><linearGradient id="c" gradientTransform="matrix(0 1.000071 -.99880824 0 12.983287 -2.007285)" gradientUnits="userSpaceOnUse" x1="17.506042" x2="2.507107" xlink:href="#b" y1="9.494602" y2="9.494602"/><linearGradient id="d" gradientTransform="matrix(0 -1.000071 -.99880824 0 12.983287 18.007285)" gradientUnits="userSpaceOnUse" x1="2.109186" x2="17.640469" xlink:href="#b" y1="7.71202" y2="7.184057"/><g fill="#69696e"><rect height="1" ry=".380151" width="7" x="6.999999" y="3.000001"/><rect height="1" ry=".440076" width="7" x="6.999999" y="9"/><rect height="1" ry=".5" width="8" x="6.999999" y="12"/><rect height="1" ry=".47603" width="8" x="6.999999" y="6"/></g><g fill="url(#a)" stroke="url(#a)" stroke-linecap="round" stroke-linejoin="round"><path d="m3.5.5-3 3.015625h2.0039062v2.984375h2v-2.984375h1.9960938z" fill="url(#c)" stroke="url(#c)" stroke-width=".999439"/><path d="m2.5039062 9.5v2.984375h-2.0039062l3 3.015625 3-3.015625h-1.9960938v-2.984375z" fill="url(#d)" stroke="url(#d)"/></g><g fill="#e9e9e9" fill-opacity=".992157"><rect height="1" ry=".380151" width="7" x="6.999999" y="4.000001"/><rect height="1" ry=".440076" width="7" x="6.999999" y="10"/><rect height="1" ry=".5" width="8" x="6.999999" y="13"/><rect height="1" ry=".47603" width="8" x="6.999999" y="7"/></g></svg>