<svg viewBox="0 0 16 16" xmlns="http://www.w3.org/2000/svg" xmlns:xlink="http://www.w3.org/1999/xlink"><linearGradient id="a" gradientUnits="userSpaceOnUse" x1="5.770788" x2="9.007144" y1="4.49995" y2="4.49995"><stop offset="0" stop-color="#0040dd"/><stop offset="1" stop-color="#0a84ff"/></linearGradient><path d="m10.051575 12.347773h-5.8686863l-1.3180492 3.655902h-1.90491777l5.34916307-14.0078798h1.6162939l5.3587843 14.0078798h-1.895297zm-5.3106801-1.520086h4.7622945l-2.3859577-6.5517629z" fill="#4b4b4f"/><path d="m8.4921875 1.0019531a.49854173.49854173 0 0 0 -.3359375.1464844l-3 3a.49854173.49854173 0 0 0 0 .703125l3 3a.49854173.49854173 0 0 0 .8496094-.3515625v-6a.49854173.49854173 0 0 0 -.5136719-.4980469z" fill="url(#a)" transform="matrix(0 -1.0000007 -.99998453 0 16.999881 12.00715)"/></svg>