<svg viewBox="0 0 16 16" xmlns="http://www.w3.org/2000/svg" xmlns:xlink="http://www.w3.org/1999/xlink"><linearGradient id="a" gradientTransform="translate(-26.983051 -6.983051)" gradientUnits="userSpaceOnUse" x1="14" x2="13.79661" y1="22" y2="2.135593"><stop offset="0" stop-color="#0040dd"/><stop offset="1" stop-color="#0a84ff"/></linearGradient><linearGradient id="b" gradientUnits="userSpaceOnUse" x1="20.871548" x2="20.939325" xlink:href="#a" y1="1.139827" y2="7.953386"/><linearGradient id="c" gradientUnits="userSpaceOnUse" x1="12.430614" x2="12.617718" xlink:href="#a" y1=".990317" y2="7.605959"/><linearGradient id="d" gradientUnits="userSpaceOnUse" x1="14.067797" x2="14.237267" xlink:href="#a" y1="15.91787" y2="9.070412"/>


/&amp;amp;amp;gt;<path d="m3.7792969 0-3.7792969 10.003906h.8828125l1.4179687-1.4218748.3164063-.9082031h3.875l.8183594 2.3300779h1.8125l-3.7851563-10.003906zm.7753906 2.1230469 1.4492187 4.1503906h-2.8984374z" fill="#69696e"/><path d="m7.1308594 0 3.5859376 10.003906h.291015v-.5097654a1.4921604 1.4921604 0 0 1 1.470704-1.4921875 1.4921604 1.4921604 0 0 1 .599609.1171875l2.921875-8.1191406h-1.910156l-2.541016 7.8261719-2.5156249-7.8261719z" fill="#69696e"/><g fill="none" stroke="#0a84ff" stroke-linecap="round" stroke-linejoin="round" transform="matrix(-1 0 0 -1 21.007121 16.9899)"><path d="m12.5 9.4941406v6.0000004l3-2.994141z" fill="url(#d)" stroke="url(#d)" transform="matrix(-1 0 0 -1 21.007122 16.9899)"/><path d="m5.5071212 4.4898959h14.9928788" stroke="url(#c)"/><path d="m17.507142 7.4957594v-6.0000004l3 2.994141z" fill="url(#b)" stroke="url(#b)"/></g></svg>