<svg viewBox="0 0 16 16" xmlns="http://www.w3.org/2000/svg" xmlns:xlink="http://www.w3.org/1999/xlink"><linearGradient id="a" gradientUnits="userSpaceOnUse" x1="8" x2="8" y1="15.461486" y2=".015961"><stop offset="0" stop-color="#0040dd"/><stop offset="1" stop-color="#0a84ff"/></linearGradient>





     /&amp;amp;amp;amp;gt;
 <path d="m8 .01596082c-4.4098186.00003883-7.98400035 3.57422058-7.98403918 7.98403918.00285882 1.6566369.52082449 3.27063 1.48230398 4.619708l1.4781403-1.478139 2.8917419-2.6086057-3.7390702-.4122139c.000462-3.2315451 2.6206412-5.8507921 5.8521863-5.8501042 1.0645936.0025487 2.1083169.2955111 3.0187369.8473283l1.617627-1.6176267c-1.348122-.96185982-2.9615498-1.48033033-4.617627-1.48438598zm6.501735 3.36433048-1.590562 1.5905621-2.77932 3.0291466 3.699514.1207494c.000689 3.2315456-2.618559 5.8517256-5.8501039 5.8521866-1.1154506-.00264-2.2069031-.324081-3.1457323-.92644l-1.4531576 1.453157c1.3481225.961858 2.9615497 1.48033 4.6176268 1.484386 4.409819-.000039 7.984-3.57422 7.984039-7.984039-.002855-1.6566369-.520825-3.2706307-1.482304-4.6197087z" fill="url(#a)"/></svg>