<svg viewBox="0 0 16 16" xmlns="http://www.w3.org/2000/svg" xmlns:xlink="http://www.w3.org/1999/xlink"><linearGradient id="a" gradientUnits="userSpaceOnUse" x1="8" x2="8" y1="16" y2="1"><stop offset="0" stop-color="#b0b0b3"/><stop offset="1" stop-color="#e2f0f4"/></linearGradient><linearGradient id="b" gradientUnits="userSpaceOnUse" x1="5.5" x2="5.5" y1="4" y2="11.5"><stop offset="0" stop-color="#9fa3aa"/><stop offset="1" stop-color="#a3a8a9"/></linearGradient><linearGradient id="c" gradientUnits="userSpaceOnUse" x1="8" x2="8" y1="4.5" y2="11.5"><stop offset="0" stop-color="#808080"/><stop offset="1" stop-color="#a6a6a6"/></linearGradient><linearGradient id="d" gradientUnits="userSpaceOnUse" x1="10" x2="11.500001" y1="4" y2="2.499999"><stop offset="0" stop-color="#fff"/><stop offset=".77967989" stop-color="#f1f1f1"/><stop offset="1" stop-color="#d5d5d5"/></linearGradient><radialGradient id="e" cx="10.994179" cy="4.42844" gradientTransform="matrix(1.4 .00000004 -.00000001 1.2 -4.39185 -2.314129)" gradientUnits="userSpaceOnUse" r="5"><stop offset="0" stop-color="#d7d7d7"/><stop offset=".49894297" stop-color="#f7f7f7"/><stop offset="1" stop-color="#fff"/></radialGradient><path d="m3 1v14h10v-11.2949219l-2.695312-2.7050781z" fill="url(#e)"/><path d="m3 0c-.554 0-1 .446-1 1v14c0 .554.446 1 1 1h10c.554 0 1-.446 1-1v-10.5-.8632812l-3.636719-3.6367188h-.863281zm0 1h6v3.5c0 .277.223.5.5.5h3.5v10h-10zm7 0 3 3h-3z" fill="#98989d"/><path d="m10 1 3 3h-3z" fill="url(#d)"/><g stroke-linejoin="round" transform="matrix(.56400254 0 0 .56400254 6.998956 6.998956)"><path d="m6.9375.5c-.2484169 0-.4375.18908218-.4375.4375v1.25c-.5539029.1422005-1.051164.3718783-1.53125.65625l-.90625-.90625c-.1756569-.1756579-.449342-.1756579-.625 0l-1.5 1.5c-.175657.1756579-.175657.4493421 0 .625l.90625.90625c-.2843711.4800856-.514049.9773468-.65625 1.53125h-1.25c-.24841699 0-.4375.1890821-.4375.4375v2.125c.00000001.2484178.189083.4375.4375.4375h1.25c.1422009.553903.371879 1.051164.65625 1.53125l-.90625.90625c-.175657.175658-.175657.449342 0 .625l1.5 1.5c.1756579.175658.449342.175658.625 0l.90625-.90625c.4800861.284372.977347.51405 1.53125.65625v1.25c.0000001.248418.189083.4375.4375.4375h2.125c.2484176 0 .4375-.189082.4375-.4375v-1.25c.553903-.1422 1.051164-.371878 1.53125-.65625l.90625.90625c.175658.175658.449342.175658.625 0l1.5-1.5c.175658-.175658.175658-.449342 0-.625l-.90625-.90625c.284372-.480086.51405-.977347.65625-1.53125h1.25c.248418 0 .4375-.1890826.4375-.4375v-2.125c0-.2484178-.189083-.4375-.4375-.4375h-1.25c-.1422-.5539032-.371878-1.0511644-.65625-1.53125l.90625-.90625c.175658-.1756579.175658-.449342 0-.625l-1.5-1.5c-.175658-.1756579-.449342-.1756579-.625 0l-.90625.90625c-.480086-.2843717-.977347-.5140495-1.53125-.65625v-1.25c-.0000004-.24841782-.189082-.4375-.4375-.4375zm1.0625 5.5c1.104 0 2 .896 2 2s-.896 2-2 2-2-.896-2-2 .896-2 2-2z" display="block" fill="url(#a)" stroke="#98989d"/><path d="m8 4.5a3.5 3.5 0 0 0 -3.5 3.5 3.5 3.5 0 0 0 3.5 3.5 3.5 3.5 0 0 0 3.5-3.5 3.5 3.5 0 0 0 -3.5-3.5zm0 1.5c1.104 0 2 .896 2 2s-.896 2-2 2-2-.896-2-2 .896-2 2-2z" fill="url(#b)" stroke="url(#c)" stroke-linecap="round"/></g></svg>