<?xml version="1.0" encoding="UTF-8" standalone="no"?>
<svg
   xmlns:dc="http://purl.org/dc/elements/1.1/"
   xmlns:cc="http://creativecommons.org/ns#"
   xmlns:rdf="http://www.w3.org/1999/02/22-rdf-syntax-ns#"
   xmlns:svg="http://www.w3.org/2000/svg"
   xmlns="http://www.w3.org/2000/svg"
   xmlns:sodipodi="http://sodipodi.sourceforge.net/DTD/sodipodi-0.dtd"
   xmlns:inkscape="http://www.inkscape.org/namespaces/inkscape"
   viewBox="0 0 16 16"
   version="1.1"
   id="svg1006"
   sodipodi:docname="sc_strikeout.svg"
   inkscape:version="0.92.3 (2405546, 2018-03-11)"><metadata
   id="metadata1012">
  <rdf:RDF>
    <cc:Work
       rdf:about="">
      <dc:format>image/svg+xml</dc:format>
      <dc:type
         rdf:resource="http://purl.org/dc/dcmitype/StillImage" />
    </cc:Work>
  </rdf:RDF>
</metadata>
<defs
   id="defs1010" />
<sodipodi:namedview
   pagecolor="#ffffff"
   bordercolor="#666666"
   borderopacity="1"
   objecttolerance="10"
   gridtolerance="10"
   guidetolerance="10"
   inkscape:pageopacity="0"
   inkscape:pageshadow="2"
   inkscape:window-width="1366"
   inkscape:window-height="716"
   id="namedview1008"
   showgrid="false"
   inkscape:zoom="14.75"
   inkscape:cx="5.1525424"
   inkscape:cy="8"
   inkscape:window-x="-8"
   inkscape:window-y="-8"
   inkscape:window-maximized="1"
   inkscape:current-layer="svg1006" />
/&amp;amp;gt;<path
   d="m8.9433594 2.6679688v4.3320312h1.3300786c.329458-.4704162.793682-.71875 1.408203-.71875.55827 0 .98573.2091844 1.283203.6289062.019247.0271565.032771.0612178.050781.0898438h1.238281c-.106984-.2824365-.23375-.5452741-.402344-.7675781-.456395-.6071704-1.085902-.9121094-1.888671-.9121094s-1.432276.2831886-1.888672.8496094v-3.5019531zm-4.2480469 2.6523437c-.4808464 0-.9227499.0902325-1.3261719.2695313-.399347.1792986-.7167768.4246772-.953125.734375-.1660151.218441-.2511211.4449716-.2988281.6757812h1.1386719c.0612977-.1724875.1767516-.3280621.3574218-.4628906.2730231-.2037485.61025-.3046875 1.0136719-.3046875.4604716 0 .8105268.1171673 1.046875.3535156.1190199.1169678.2067945.2557374.265625.4140625h1.1679688c-.0892341-.4501211-.2953762-.8177446-.6210938-1.1035156-.4319467-.3830472-1.0289963-.5761719-1.7910156-.5761719zm-2.7421875 4.6796875c-.0067926.074461-.0214844.144175-.0214844.222656 0 .566422.2093532 1.035428.625 1.40625.4197219.366748.9554268.550782 1.6074219.550782.7294195-.000002 1.3571415-.274267 1.8828125-.820313.0407499.334147.0930038.566866.1582031.697266h1.1855469v-.097657c-.1548488-.358597-.2324219-.842048-.2324219-1.449218v-.509766h-1.1308593v.205078c-.142624.293398-.3716056.531471-.6894532.714844-.3178476.183374-.6552433.275391-1.0097656.27539-.3708222.000002-.673808-.099154-.9101562-.298828-.2363483-.199673-.3554688-.477509-.3554688-.832031 0-.022924.0067055-.042177.0078125-.064453zm6.9902344 0v2.056641h1.0390625l.0546871-.763672c.456397.59087 1.102132.886717 1.9375.886719.782394 0 1.406547-.306724 1.871094-.917969.26667-.35322.448785-.778632.5625-1.261719h-1.173828c-.0716.224932-.15906.427924-.275391.589844-.301547.419721-.723653.628906-1.265625.628906-.733494 0-1.272768-.346319-1.61914-1.039062v-.179688z"
   fill="#69696e"
   id="path1002"
   style="fill:#4b4b4f;fill-opacity:1" />
<rect
   fill="#696969"
   height="1"
   ry=".5"
   width="14"
   x="1"
   y="8"
   id="rect1004"
   style="fill:#4b4b4f;fill-opacity:1" />
</svg>
