<?xml version="1.0" encoding="UTF-8" standalone="no"?>
<svg
   xmlns:dc="http://purl.org/dc/elements/1.1/"
   xmlns:cc="http://creativecommons.org/ns#"
   xmlns:rdf="http://www.w3.org/1999/02/22-rdf-syntax-ns#"
   xmlns:svg="http://www.w3.org/2000/svg"
   xmlns="http://www.w3.org/2000/svg"
   xmlns:xlink="http://www.w3.org/1999/xlink"
   xmlns:sodipodi="http://sodipodi.sourceforge.net/DTD/sodipodi-0.dtd"
   xmlns:inkscape="http://www.inkscape.org/namespaces/inkscape"
   viewBox="0 0 16 16"
   version="1.1"
   id="svg1007"
   sodipodi:docname="sc_sharedocument.svg"
   inkscape:version="0.92.4 (unknown)">
  <metadata
     id="metadata1013">
    <rdf:RDF>
      <cc:Work
         rdf:about="">
        <dc:format>image/svg+xml</dc:format>
        <dc:type
           rdf:resource="http://purl.org/dc/dcmitype/StillImage" />
        <dc:title></dc:title>
      </cc:Work>
    </rdf:RDF>
  </metadata>
  <defs
     id="defs1011">
    <linearGradient
       id="a-7"
       gradientUnits="userSpaceOnUse"
       x1="91"
       x2="91"
       y1="15"
       y2="-5">
      <stop
         offset="0"
         stop-color="#0040dd"
         id="stop2" />
      <stop
         offset="1"
         stop-color="#0a84ff"
         id="stop4" />
    </linearGradient>
    <linearGradient
       inkscape:collect="always"
       xlink:href="#a-7"
       id="linearGradient1586"
       x1="8"
       y1="14"
       x2="8"
       y2="6"
       gradientUnits="userSpaceOnUse" />
  </defs>
  <sodipodi:namedview
     pagecolor="#ffffff"
     bordercolor="#666666"
     borderopacity="1"
     objecttolerance="10"
     gridtolerance="10"
     guidetolerance="10"
     inkscape:pageopacity="0"
     inkscape:pageshadow="2"
     inkscape:window-width="1360"
     inkscape:window-height="714"
     id="namedview1009"
     showgrid="true"
     inkscape:zoom="7.375"
     inkscape:cx="3.5285886"
     inkscape:cy="8.1762761"
     inkscape:window-x="0"
     inkscape:window-y="28"
     inkscape:window-maximized="1"
     inkscape:current-layer="svg1007">
    <inkscape:grid
       type="xygrid"
       id="grid1564" />
  </sodipodi:namedview>
  <linearGradient
     id="a"
     gradientUnits="userSpaceOnUse"
     x1="10"
     x2="11.500001"
     y1="4"
     y2="2.499999">
    <stop
       offset="0"
       stop-color="#fff"
       id="stop987" />
    <stop
       offset=".77967989"
       stop-color="#f1f1f1"
       id="stop989" />
    <stop
       offset="1"
       stop-color="#d5d5d5"
       id="stop991" />
  </linearGradient>
  <radialGradient
     id="b"
     cx="10.994179"
     cy="4.42844"
     gradientTransform="matrix(1.4 .00000004 -.00000001 1.2 -4.39185 -2.314129)"
     gradientUnits="userSpaceOnUse"
     r="5">
    <stop
       offset="0"
       stop-color="#d7d7d7"
       id="stop994" />
    <stop
       offset=".49894297"
       stop-color="#f7f7f7"
       id="stop996" />
    <stop
       offset="1"
       stop-color="#fff"
       id="stop998" />
  </radialGradient>
  <path
     d="m3 1v14h10v-11.2949219l-2.695312-2.7050781z"
     fill="url(#b)"
     id="path1001" />
  <path
     d="m3 0c-.554 0-1 .446-1 1v14c0 .554.446 1 1 1h10c.554 0 1-.446 1-1v-10.5-.8632812l-3.636719-3.6367188h-.863281zm0 1h6v3.5c0 .277.223.5.5.5h3.5v10h-10zm7 0 3 3h-3z"
     fill="#98989d"
     id="path1003" />
  <path
     d="m10 1 3 3h-3z"
     fill="url(#a)"
     id="path1005" />
  <path
     inkscape:connector-curvature="0"
     style="fill:url(#linearGradient1586);fill-opacity:1"
     d="M 10,6 A 1,1 0 0 0 9,7 1,1 0 0 0 10,8 1,1 0 0 0 11,7 1,1 0 0 0 10,6 Z M 7.5,8 A 0.5,0.5 0 0 0 7,8.5 0.5,0.5 0 0 0 7.5,9 0.5,0.5 0 0 0 8,8.5 0.5,0.5 0 0 0 7.5,8 Z M 5,9 A 1,1 0 0 0 4,10 1,1 0 0 0 5,11 1,1 0 0 0 6,10 1,1 0 0 0 5,9 Z m 2.5,2 A 0.5,0.5 0 0 0 7,11.5 0.5,0.5 0 0 0 7.5,12 0.5,0.5 0 0 0 8,11.5 0.5,0.5 0 0 0 7.5,11 Z m 2.5,1 a 1,1 0 0 0 -1,1 1,1 0 0 0 1,1 1,1 0 0 0 1,-1 1,1 0 0 0 -1,-1 z"
     id="path6" />
</svg>
