<?xml version="1.0" encoding="UTF-8" standalone="no"?>
<svg
   xmlns:dc="http://purl.org/dc/elements/1.1/"
   xmlns:cc="http://creativecommons.org/ns#"
   xmlns:rdf="http://www.w3.org/1999/02/22-rdf-syntax-ns#"
   xmlns:svg="http://www.w3.org/2000/svg"
   xmlns="http://www.w3.org/2000/svg"
   xmlns:xlink="http://www.w3.org/1999/xlink"
   xmlns:sodipodi="http://sodipodi.sourceforge.net/DTD/sodipodi-0.dtd"
   xmlns:inkscape="http://www.inkscape.org/namespaces/inkscape"
   viewBox="0 0 16 16"
   version="1.1"
   id="svg12"
   sodipodi:docname="sc_starshapes.star12.svg"
   inkscape:version="0.92.3 (2405546, 2018-03-11)"><metadata
   id="metadata18">
  <rdf:RDF>
    <cc:Work
       rdf:about="">
      <dc:format>image/svg+xml</dc:format>
      <dc:type
         rdf:resource="http://purl.org/dc/dcmitype/StillImage" />
      <dc:title></dc:title>
    </cc:Work>
  </rdf:RDF>
</metadata>
<defs
   id="defs16">
  <linearGradient
     gradientTransform="translate(-29.762712,-11.59322)"
     id="a"
     gradientUnits="userSpaceOnUse"
     x1="12"
     x2="12"
     y1="21.5"
     y2="2.5">
    <stop
       offset="0"
       stop-color="#e5eefc"
       id="stop1020" />
    <stop
       offset="1"
       stop-color="#fcfdff"
       id="stop1022" />
  </linearGradient>
  <linearGradient
     inkscape:collect="always"
     xlink:href="#a"
     id="linearGradient846"
     x1="6.7120185"
     y1="14.407449"
     x2="6.3727279"
     y2="0.57693994"
     gradientUnits="userSpaceOnUse" />
  <linearGradient
     gradientTransform="matrix(0.26458333,0,0,0.26458333,101.6,307.58333)"
     id="b"
     gradientUnits="userSpaceOnUse"
     x1="18.5"
     x2="18.5"
     y1="23"
     y2="14.5">
    <stop
       offset="0"
       stop-color="#d70015"
       id="stop956" />
    <stop
       offset="1"
       stop-color="#ff453a"
       id="stop958" />
  </linearGradient>
  <linearGradient
     inkscape:collect="always"
     xlink:href="#b"
     id="linearGradient868"
     x1="11.797733"
     y1="16.053705"
     x2="11.781497"
     y2="10.881987"
     gradientUnits="userSpaceOnUse" />
  <linearGradient
     inkscape:collect="always"
     xlink:href="#b"
     id="linearGradient870"
     x1="11.797733"
     y1="16.053705"
     x2="11.781497"
     y2="10.881987"
     gradientUnits="userSpaceOnUse" />
</defs>
<sodipodi:namedview
   pagecolor="#ffffff"
   bordercolor="#666666"
   borderopacity="1"
   objecttolerance="10"
   gridtolerance="10"
   guidetolerance="10"
   inkscape:pageopacity="0"
   inkscape:pageshadow="2"
   inkscape:window-width="1366"
   inkscape:window-height="716"
   id="namedview14"
   showgrid="false"
   inkscape:zoom="5.2149125"
   inkscape:cx="25.231947"
   inkscape:cy="-1.7773081"
   inkscape:window-x="-8"
   inkscape:window-y="-8"
   inkscape:window-maximized="1"
   inkscape:current-layer="svg12" />
/&gt;<g
   stroke-linejoin="round"
   id="g10">
  <path
     d="m8 .5-.9765625 3.8671875-2.7734375-2.890625 1.09375 3.8671875-3.828125-1.09375 2.8515625 2.7734375-3.8671875.9765625 3.8671875.9765625-2.8515625 2.7734375 3.828125-1.09375-1.09375 3.828125 2.5-2.734375c.7140181-.925744 1.6512769-1.8129982 3.75-2.5l1.132813-.2734375 3.867187-.9765625-3.867187-.9765625 2.890624-2.7734375-3.867187 1.09375 1.09375-3.8671875-2.773437 2.890625z"
     fill="#fff"
     stroke="#808080"
     id="path2"
     style="fill-opacity:1;fill:url(#linearGradient846);stroke:#0a84ff;stroke-opacity:1" />
  <g
     fill="#4d82b8"
     stroke-width=".557285"
     transform="scale(1.0033566 .99665463)"
     id="g8">
    <path
       d="m10.141484 16.053705h-1.2543653v-3.434281l.012178-.564261.020297-.617034q-.3125764.312577-.4343594.410003l-.6819849.548024-.6048555-.755055 1.9119931-1.522288h1.0310965v5.934892z"
       id="path4"
       style="stroke:none;fill-opacity:1;fill:url(#linearGradient870)" />
    <path
       d="m15.946474 16.053705h-4.148741v-.872778l1.489812-1.50605q.661687-.677925.864659-.937729.202972-.263863.292279-.487132.08931-.223269.08931-.462775 0-.357231-.198913-.531786-.194852-.174556-.523666-.174556-.345052 0-.669807.158318-.324755.158318-.677925.450597l-.681985-.807827q.438419-.373468.726638-.527726.28822-.154259.629213-.235448.340992-.08525.763173-.08525.556142 0 .982383.202972.426241.202972.661688.568321.235447.365349.235447.836243 0 .410003-.14614.771292-.14208.357231-.446537.734758-.300399.377527-1.063572 1.07575l-.763174.718519v.05683h2.58586v1.055452z"
       id="path6"
       style="stroke:none;fill-opacity:1;fill:url(#linearGradient868)" />
  </g>
</g>
</svg>
