<?xml version="1.0" encoding="UTF-8" standalone="no"?>
<svg
   xmlns:dc="http://purl.org/dc/elements/1.1/"
   xmlns:cc="http://creativecommons.org/ns#"
   xmlns:rdf="http://www.w3.org/1999/02/22-rdf-syntax-ns#"
   xmlns:svg="http://www.w3.org/2000/svg"
   xmlns="http://www.w3.org/2000/svg"
   xmlns:xlink="http://www.w3.org/1999/xlink"
   xmlns:sodipodi="http://sodipodi.sourceforge.net/DTD/sodipodi-0.dtd"
   xmlns:inkscape="http://www.inkscape.org/namespaces/inkscape"
   viewBox="0 0 16 16"
   version="1.1"
   id="svg6"
   sodipodi:docname="sc_symbolshapes.cloud.svg"
   inkscape:version="0.92.3 (2405546, 2018-03-11)"><metadata
   id="metadata12">
  <rdf:RDF>
    <cc:Work
       rdf:about="">
      <dc:format>image/svg+xml</dc:format>
      <dc:type
         rdf:resource="http://purl.org/dc/dcmitype/StillImage" />
      <dc:title></dc:title>
    </cc:Work>
  </rdf:RDF>
</metadata>
<defs
   id="defs10">
  <linearGradient
     gradientTransform="translate(-33.627118,-12.542373)"
     id="a"
     gradientUnits="userSpaceOnUse"
     x1="12"
     x2="12"
     y1="21.5"
     y2="2.5">
    <stop
       offset="0"
       stop-color="#e5eefc"
       id="stop2" />
    <stop
       offset="1"
       stop-color="#fcfdff"
       id="stop4" />
  </linearGradient>
  <linearGradient
     inkscape:collect="always"
     xlink:href="#a"
     id="linearGradient840"
     x1="9.0847454"
     y1="15.322034"
     x2="8.6101694"
     y2="1.0169492"
     gradientUnits="userSpaceOnUse" />
</defs>
<sodipodi:namedview
   pagecolor="#ffffff"
   bordercolor="#666666"
   borderopacity="1"
   objecttolerance="10"
   gridtolerance="10"
   guidetolerance="10"
   inkscape:pageopacity="0"
   inkscape:pageshadow="2"
   inkscape:window-width="1366"
   inkscape:window-height="716"
   id="namedview8"
   showgrid="false"
   inkscape:zoom="10.429825"
   inkscape:cx="-12.854083"
   inkscape:cy="10.626894"
   inkscape:window-x="-8"
   inkscape:window-y="-8"
   inkscape:window-maximized="1"
   inkscape:current-layer="svg6" />
/&gt;<path
   d="m8 1.75c-1.3494295 0-2.4811931.9140411-2.7539063 2.121582-.4392798-.2078881-.9410401-.336914-1.4648437-.336914-1.8121836 0-3.28125 1.3991101-3.28125 3.125 0 1.0786813.5627291 2.03363 1.4355469 2.5952148-.8519586.4602928-1.4355469 1.3174012-1.4355469 2.3168952 0 1.479333 1.2591998 2.678222 2.8125 2.678222.7241121 0 1.3764902-.270123 1.875-.698242.4985084.428118 1.1508902.698242 1.875.698242 1.3494258 0 2.481194-.914045 2.753906-2.121583.43928.207889.94104.336916 1.464844.336916 1.812184 0 3.28125-1.399111 3.28125-3.125001 0-.6158544-.20439-1.1908895-.527344-1.6748046.870428-.4553536 1.464844-1.3311608 1.464844-2.34375 0-1.4793341-1.2592-2.6782227-2.8125-2.6782227-.821194 0-1.565894.3297033-2.080077.8642578-.398983-1.0170341-1.400379-1.7578125-2.607423-1.7578125z"
   fill="#fff"
   stroke="#808080"
   id="path2"
   style="fill-opacity:1;fill:url(#linearGradient840);stroke:#0a84ff;stroke-opacity:1" />
</svg>
