<?xml version="1.0" encoding="UTF-8" standalone="no"?>
<svg
   xmlns:dc="http://purl.org/dc/elements/1.1/"
   xmlns:cc="http://creativecommons.org/ns#"
   xmlns:rdf="http://www.w3.org/1999/02/22-rdf-syntax-ns#"
   xmlns:svg="http://www.w3.org/2000/svg"
   xmlns="http://www.w3.org/2000/svg"
   xmlns:xlink="http://www.w3.org/1999/xlink"
   xmlns:sodipodi="http://sodipodi.sourceforge.net/DTD/sodipodi-0.dtd"
   xmlns:inkscape="http://www.inkscape.org/namespaces/inkscape"
   viewBox="0 0 16 16"
   version="1.1"
   id="svg33"
   sodipodi:docname="sc_setoutline.svg"
   inkscape:export-filename="D:\Rizmut\libreoffice-style-sukapura-master\images_sukapura\cmd\sc_defaultnumbering.png"
   inkscape:export-xdpi="96"
   inkscape:export-ydpi="96"
   inkscape:version="0.92.3 (2405546, 2018-03-11)">
  <metadata
     id="metadata39">
    <rdf:RDF>
      <cc:Work
         rdf:about="">
        <dc:format>image/svg+xml</dc:format>
        <dc:type
           rdf:resource="http://purl.org/dc/dcmitype/StillImage" />
        <dc:title></dc:title>
      </cc:Work>
    </rdf:RDF>
  </metadata>
  <defs
     id="defs37">
    <linearGradient
       id="a-1"
       gradientUnits="userSpaceOnUse"
       x1="2.629941"
       x2="2.7535739"
       xlink:href="#b-1"
       y1="12.938183"
       y2="10.061817" />
    <linearGradient
       id="b-1"
       gradientTransform="translate(-25.830508,-3.59322)"
       gradientUnits="userSpaceOnUse"
       x1="14"
       x2="13.79661"
       y1="22"
       y2="2.1355929">
      <stop
         offset="0"
         stop-color="#0040dd"
         id="stop1036" />
      <stop
         offset="1"
         stop-color="#0a84ff"
         id="stop1038" />
    </linearGradient>
  </defs>
  <sodipodi:namedview
     pagecolor="#ffffff"
     bordercolor="#666666"
     borderopacity="1"
     objecttolerance="10"
     gridtolerance="10"
     guidetolerance="10"
     inkscape:pageopacity="0"
     inkscape:pageshadow="2"
     inkscape:window-width="1366"
     inkscape:window-height="716"
     id="namedview35"
     showgrid="false"
     inkscape:zoom="14.75"
     inkscape:cx="-1.6610169"
     inkscape:cy="8"
     inkscape:window-x="-8"
     inkscape:window-y="-8"
     inkscape:window-maximized="1"
     inkscape:current-layer="svg33" />
  <linearGradient
     id="a"
     gradientTransform="translate(-32.610169 -7.932203)"
     gradientUnits="userSpaceOnUse"
     x1="14"
     x2="13.79661"
     y1="22"
     y2="2.135593">
    <stop
       offset="0"
       stop-color="#0040dd"
       id="stop2" />
    <stop
       offset="1"
       stop-color="#0a84ff"
       id="stop4" />
  </linearGradient>
  <linearGradient
     id="b"
     gradientUnits="userSpaceOnUse"
     x1="4"
     x2="3.966102"
     xlink:href="#a"
     y1="7"
     y2="1.050847" />
  <linearGradient
     id="c"
     gradientUnits="userSpaceOnUse"
     x1="4"
     x2="4.067797"
     xlink:href="#a"
     y1="14.999998"
     y2="9.152541" />
  <path
     d="m.4805826 6h1.2475728v-3.168421c0-.1383459.00485-.2827068.014563-.4330828l-.8398058.6721804c-.055016.042105-.1100322.067669-.1650486.076692-.055016.00902-.1067959.00902-.1553397 0-.048543-.00902-.092233-.02406-.1310679-.045113-.035599-.02406-.063107-.04812-.082524-.072181l-.3689324-.4691724 1.9368932-1.5609022h1.0631068v5h1v1h-3.5194174z"
     fill="url(#b)"
     id="path9" />
  <g
     fill="#69696e"
     transform="scale(-1 1)"
     id="g21"
     style="fill:#4b4b4f;fill-opacity:1">
    <rect
       height="1"
       ry=".5"
       width="10"
       x="-15"
       y="2"
       id="rect13"
       style="fill:#4b4b4f;fill-opacity:1" />
    <rect
       height="1"
       ry=".5"
       width="6.000002"
       x="-11"
       y="5"
       id="rect15"
       style="fill:#4b4b4f;fill-opacity:1" />
    <rect
       height="1"
       ry=".5"
       width="10"
       x="-14.999999"
       y="10"
       id="rect17"
       style="fill:#4b4b4f;fill-opacity:1" />
    <rect
       height="1"
       ry=".5"
       width="6.000002"
       x="-11"
       y="13"
       id="rect19"
       style="fill:#4b4b4f;fill-opacity:1" />
  </g>
  <g
     fill="#eaeaea"
     fill-opacity=".992157"
     transform="matrix(-1 0 0 1 0 1)"
     id="g31">
    <rect
       height="1"
       ry=".5"
       width="10"
       x="-15"
       y="2"
       id="rect23" />
    <rect
       height="1"
       ry=".5"
       width="6.000002"
       x="-11"
       y="5"
       id="rect25" />
    <rect
       height="1"
       ry=".5"
       width="10"
       x="-14.999999"
       y="10"
       id="rect27" />
    <rect
       height="1"
       ry=".5"
       width="6.000002"
       x="-11"
       y="13"
       id="rect29" />
  </g>
  <path
     inkscape:connector-curvature="0"
     style="fill:url(#a-1)"
     d="M 4,11.5 A 1.5,1.5 0 0 1 2.5,13 1.5,1.5 0 0 1 1,11.5 1.5,1.5 0 0 1 2.5,10 1.5,1.5 0 0 1 4,11.5 Z"
     id="path1105" />
</svg>
