<?xml version="1.0" encoding="UTF-8" standalone="no"?>
<svg
   xmlns:dc="http://purl.org/dc/elements/1.1/"
   xmlns:cc="http://creativecommons.org/ns#"
   xmlns:rdf="http://www.w3.org/1999/02/22-rdf-syntax-ns#"
   xmlns:svg="http://www.w3.org/2000/svg"
   xmlns="http://www.w3.org/2000/svg"
   xmlns:sodipodi="http://sodipodi.sourceforge.net/DTD/sodipodi-0.dtd"
   xmlns:inkscape="http://www.inkscape.org/namespaces/inkscape"
   viewBox="0 0 16 16"
   version="1.1"
   id="svg6"
   sodipodi:docname="sc_shadowed.svg"
   inkscape:version="0.92.3 (2405546, 2018-03-11)">
  <metadata
     id="metadata12">
    <rdf:RDF>
      <cc:Work
         rdf:about="">
        <dc:format>image/svg+xml</dc:format>
        <dc:type
           rdf:resource="http://purl.org/dc/dcmitype/StillImage" />
        <dc:title></dc:title>
      </cc:Work>
    </rdf:RDF>
  </metadata>
  <defs
     id="defs10" />
  <sodipodi:namedview
     pagecolor="#ffffff"
     bordercolor="#666666"
     borderopacity="1"
     objecttolerance="10"
     gridtolerance="10"
     guidetolerance="10"
     inkscape:pageopacity="0"
     inkscape:pageshadow="2"
     inkscape:window-width="1366"
     inkscape:window-height="692"
     id="namedview8"
     showgrid="false"
     inkscape:zoom="14.75"
     inkscape:cx="-0.71186441"
     inkscape:cy="7.4576271"
     inkscape:window-x="0"
     inkscape:window-y="0"
     inkscape:window-maximized="1"
     inkscape:current-layer="svg6" />
  <path
     d="m15 14.999245h-2.446153c-.356367.01507-.659316-.197505-.761234-.447488l-1.013125-3.552511h-4.423459l-1.2740549 3.541857c-.041025.120751-.1196578.227295-.2358973.319634-.1094017.09234-.2427351.138508-.4000001.138508h-2.4460767l5.0564107-13.99999927h2.9435893zm-8.3077693-4.9999995h3.6154623l-1.9076925-5.8356164c-.068376-.1704718-.1367521-.3693556-.2051282-.5966514s.8665895-.472349.805051-.7351597c-.0683761.2699137-.1367521.5185185-.2051282.7458142-.0683762.2272957-.1333333.4261796-.1948718.5966515z"
     fill="#eac282"
     id="path2"
     style="fill:#98989d;fill-opacity:1" />
  <path
     d="m13.000001 13.999999h-1.446154c-.356367.01507-.659316-.197505-.761234-.447488l-1.0131251-3.552511h-5.4233816l-1.2740549 3.541857c-.0410254.120751-.1196578.227295-.2358973.319634-.1094017.092339-.2427351.138508-.4000001.138508h-1.446154l5.0564107-13.99999883h1.897436zm-8.307693-4.999999h4.615385l-1.9076925-5.8356164c-.068376-.1704718-.1367521-.3693556-.2051282-.5966514s-.1333333-.472349-.1948718-.7351597c-.0683761.2699137-.1367521.5185185-.2051282.7458142s-.1333333.4261796-.1948718.5966515z"
     fill="#696969"
     id="path4"
     style="fill:#69696e;fill-opacity:1" />
</svg>
