<?xml version="1.0" encoding="UTF-8" standalone="no"?>
<svg
   xmlns:dc="http://purl.org/dc/elements/1.1/"
   xmlns:cc="http://creativecommons.org/ns#"
   xmlns:rdf="http://www.w3.org/1999/02/22-rdf-syntax-ns#"
   xmlns:svg="http://www.w3.org/2000/svg"
   xmlns="http://www.w3.org/2000/svg"
   xmlns:xlink="http://www.w3.org/1999/xlink"
   xmlns:sodipodi="http://sodipodi.sourceforge.net/DTD/sodipodi-0.dtd"
   xmlns:inkscape="http://www.inkscape.org/namespaces/inkscape"
   viewBox="0 0 16 16"
   version="1.1"
   id="svg10"
   sodipodi:docname="sc_setoptimalcolumnwidth.svg"
   inkscape:version="0.92.3 (unknown)"
   inkscape:export-filename="/home/rizmut/Dokumen/Rizmut/Github/libreoffice-style-sukapura/images_sukapura/cmd/sc_setoptimalcolumnwidth.png"
   inkscape:export-xdpi="96"
   inkscape:export-ydpi="96"><metadata
   id="metadata16">
  <rdf:RDF>
    <cc:Work
       rdf:about="">
      <dc:format>image/svg+xml</dc:format>
      <dc:type
         rdf:resource="http://purl.org/dc/dcmitype/StillImage" />
      <dc:title></dc:title>
    </cc:Work>
  </rdf:RDF>
</metadata>
<defs
   id="defs14">
  <linearGradient
     gradientTransform="translate(75,-7)"
     id="a-367"
     gradientUnits="userSpaceOnUse"
     x1="14"
     x2="13.79661"
     y1="22"
     y2="2.1355929">
    <stop
       offset="0"
       stop-color="#0040dd"
       id="stop2206" />
    <stop
       offset="1"
       stop-color="#0a84ff"
       id="stop2208" />
  </linearGradient>
  <linearGradient
     inkscape:collect="always"
     xlink:href="#a-367"
     id="linearGradient2182"
     x1="12.000031"
     y1="0.99996948"
     x2="5.0000305"
     y2="0.99996948"
     gradientUnits="userSpaceOnUse" />
  <linearGradient
     inkscape:collect="always"
     xlink:href="#a-367"
     id="linearGradient2186"
     gradientUnits="userSpaceOnUse"
     x1="12.000031"
     y1="2.9999695"
     x2="5.0000305"
     y2="2.9999695"
     gradientTransform="matrix(1,0,0,-1,0,15.999939)" />
</defs>
<sodipodi:namedview
   pagecolor="#ffffff"
   bordercolor="#666666"
   borderopacity="1"
   objecttolerance="10"
   gridtolerance="10"
   guidetolerance="10"
   inkscape:pageopacity="0"
   inkscape:pageshadow="2"
   inkscape:window-width="1366"
   inkscape:window-height="706"
   id="namedview12"
   showgrid="true"
   inkscape:zoom="20.85965"
   inkscape:cx="11.405057"
   inkscape:cy="7.9656061"
   inkscape:window-x="0"
   inkscape:window-y="0"
   inkscape:window-maximized="1"
   inkscape:current-layer="svg10">
  <inkscape:grid
     type="xygrid"
     id="grid823"
     spacingx="0.5"
     spacingy="0.5"
     empspacing="2" />
</sodipodi:namedview>


     /&gt;
 <g
   id="g2248"
   transform="rotate(90,8,7.9999695)">
  <path
     sodipodi:nodetypes="ccccc"
     style="fill:#ffffff"
     inkscape:connector-curvature="0"
     id="path2"
     d="m 1,6 v 4 H 15 V 6 Z" />
  <path
     id="path4"
     d="m 0,5 v 1 5 H 0.99804688 V 6 H 5 6 7.0957031 10 h 1 1 3.001953 v 5 H 16 V 6 5 h -4.314453 c -0.0382,0.00497 -0.07374,0.01549 -0.113281,0.017578 C 11.489226,5.0219647 11.403431,5.0119868 11.318359,5 h -1.316406 v 0.4804688 c 1.01e-4,0.00715 -0.0019,0.014328 -0.002,0.021484 V 5 H 7.0019531 7 5.6054688 C 5.543855,5.005337 5.4821189,5.0151151 5.421875,5.0117188 5.3959704,5.0102582 5.3729948,5.0027303 5.3476562,5 Z m 1,5 v 1 h 4 0.3574219 c 0.025319,-0.0027 0.048337,-0.01026 0.074219,-0.01172 0.060225,-0.0034 0.1219989,0.0064 0.1835938,0.01172 H 6 7 7.0117188 10.009766 11 11.328125 c 0.0851,-0.012 0.170817,-0.02197 0.253906,-0.01758 0.03956,0.0021 0.07506,0.01258 0.113281,0.01758 H 15 V 10 H 12 11 10.009766 9.9160156 7.1054688 7 6 5 Z"
     style="fill:#69696e;fill-opacity:1"
     inkscape:connector-curvature="0" />
  <path
     id="path2188"
     d="M 6,5 V 5.5 C 6,6.4498364 6.8515655,7 7.6269531,7 h 0.875 0.8710938 C 10.148435,7 11,6.4498364 11,5.5 V 5 Z"
     style="fill:#ffffff;fill-opacity:0.78431373"
     inkscape:connector-curvature="0" />
  <path
     style="fill:url(#linearGradient2182);fill-opacity:1"
     id="path6"
     d="M 8.484375,0 C 8.3285533,0.00245151 8.1823615,0.0776896 8.0898438,0.203125 L 5.1464844,3.1523438 C 4.7672758,3.5324167 5.1523373,4.0532126 5.5625,4 H 7 V 5.5 C 7,5.777 7.2795294,6 7.6269531,6 h 0.875 0.8710938 C 9.7204706,6 10,5.777 10,5.5 V 4 h 1.40625 c 0.424499,0.087554 0.84435,-0.4627748 0.439453,-0.8496094 L 8.8886719,0.1953125 C 8.7924623,0.07007545 8.6422593,-0.00245896 8.484375,0 Z"
     inkscape:connector-curvature="0" />
  <path
     inkscape:connector-curvature="0"
     style="fill:#ffffff;fill-opacity:0.78431373"
     d="M 6,11 V 10.5 C 6,9.5501636 6.8515655,9 7.6269531,9 h 0.875 0.8710938 C 10.148435,9 11,9.5501636 11,10.5 V 11 Z"
     id="path2239" />
  <path
     inkscape:connector-curvature="0"
     d="M 8.484375,15.999939 C 8.3285533,15.997488 8.1823615,15.92225 8.0898438,15.796814 L 5.1464844,12.847596 C 4.7672758,12.467523 5.1523373,11.946727 5.5625,11.999939 H 7 v -1.5 c 0,-0.277 0.2795294,-0.4999995 0.6269531,-0.4999995 h 0.875 0.8710938 C 9.7204706,9.9999395 10,10.222939 10,10.499939 v 1.5 h 1.40625 c 0.424499,-0.08755 0.84435,0.462775 0.439453,0.84961 l -2.9570311,2.955078 c -0.09621,0.125237 -0.2464126,0.197771 -0.4042969,0.195312 z"
     id="path2184"
     style="fill:url(#linearGradient2186);fill-opacity:1" />
  <path
     id="rect1530"
     d="m 5,6 v 4 H 6 V 6 Z m 6,0 v 4 h 1 V 6 Z"
     style="fill:#bababa;fill-opacity:1"
     inkscape:connector-curvature="0" />
</g>
</svg>
