<svg viewBox="0 0 16 16" xmlns="http://www.w3.org/2000/svg">/&amp;amp;amp;gt;<g fill-rule="evenodd"><path d="m2.4453125.00585938c-.7663717.02540224-1.44757478.72724665-1.44726562 1.49414062l.00195312 12.084746c-.00034705.588965.3830009 1.158881.9277343 1.382812.5447335.223932 1.2188306.08689 1.6328126-.332031l1.5625-2.080078 1.46875 1.919922c.067891.132974.1646517.249087.2832031.339844.3634954.505162.8402393.881318 1.3574219 1.027343.6426921.181463 1.2970469.146339 1.8906251-.0332.595992-.180268 1.225565-.539792 1.652344-1.171875.460989-.682748.563264-1.578603.248046-2.412109-.0025-.0059-.0051-.01175-.0078-.01758-.01362-.03414-.02883-.06656-.04492-.09961l-.0078-.01758-1.375001-2.088652 1.783203-.5292969c.617147.000835 1.211552-.4228356 1.414063-1.0058592.202416-.5827508-.002-1.2820289-.486328-1.6640625l-.002-.00195-9.875-6.47460942c-.0006491-.0006519-.0013-.001303-.00195-.001953-.2739345-.215473-.624292-.3297153-.9726384-.3183616z" fill="#98989d"/><path d="m2.4785156 1.0058594c-.2667743.0084656-.4786232.227232-.4785156.4941406l.00195 12.084746c-.0002603.441832.5351401.661928.8457031.347656l2.5449219-3.068359 2.09375 3.160156-.021484-.04883c.1815644.4801.6051357.781779 1.0390625.904297s.8981329.101352 1.3300781-.0293c.4319454-.130649.8429824-.376002 1.1113284-.773438.268347-.397435.34616-.954566.140625-1.498046-.0053-.01327-.01116-.0263-.01758-.03906l-2.068355-3.539822 3.371093-.5292969c.470032.0013.676269-.5924563.306641-.8828125l-9.8769528-6.4765625c-.0916215-.0720627-.2057669-.1094194-.3222656-.1054687z" fill="#fff"/><path d="m2.9707031 2.4824219.0019531 9.9460741 2.2148438-2.7363282c.2290156-.2313241.6174517-.169731.7636719.121093l2.4023437 3.7734382c.00734.01527.013859.03091.019531.04687.058539.15479.1754025.25063.3945312.3125s.5222897.05666.7871094-.02344.4816088-.231262.5878908-.388672c.105608-.156411.145735-.313576.03516-.609375l-2.3906287-4.2136445c-.1513185-.3161093.0792275-.6818388.4296876-.6816406l2.7832031-.5292969z"/></g></svg>