<svg viewBox="0 0 16 16" xmlns="http://www.w3.org/2000/svg" xmlns:xlink="http://www.w3.org/1999/xlink"><linearGradient id="a" gradientUnits="userSpaceOnUse" x1="-17.694915" x2="-17.694915" y1="5.220339" y2="1.220339"><stop offset="0" stop-color="#0040dd"/><stop offset="1" stop-color="#0a84ff"/></linearGradient><path d="m12.492188 0a.50005.50005 0 0 0 -.345704.14648438l-2.9999996 3.00000002a.50005.50005 0 0 0 .3535156.8535156h6a.50005.50005 0 0 0 .353516-.8535156l-3-3.00000002a.50005.50005 0 0 0 -.361328-.14648438z" fill="url(#a)"/><g fill="#4b4b4f"><path d="m7.0540942 12.120692h-4.3141993l-.8779773 2.573382h-1.8619176l4.0492923-11.0201302h1.7408172l4.0038796 11.0201302h-1.8694863zm-3.7843853-1.536461h3.2621401l-1.5970106-4.707775h-.045413z" transform="scale(.91837963 1.0888743)"/><path d="m8.9035338 16.161198v-9.085356l3.3744422.012155c1.006704.00363 1.792943.2079981 2.358698.6239942.565755.4118363.848632 1.0295906.848632 1.853263 0 .4118361-.118559.7799932-.355676 1.1044702-.237118.324477-.565755.565754-.985911.723833.540795.120639.956791.380636 1.247988.779993.291197.399356.436796.863192.436796 1.391507 0 .852792-.278717 1.501746-.836152 1.946862-.557435.440956-1.327028.661434-2.308779.661434zm1.5163062-4.130842v2.920293l2.263732.01215c.524148.0028.927672-.118559 1.210549-.355676.282877-.241278.424316-.588635.424316-1.042071 0-.482555-.118559-.856952-.355677-1.12319-.237117-.266237-.607354-.399356-1.110709-.399356zm0-1.12943 2.026614.01215c.470068.0028.840313-.110239 1.11071-.330717.274557-.224632.411836-.540789.411836-.9484658 0-.4492759-.143519-.7820728-.430556-.9983908-.287037-.220478-.707193-.330717-1.260468-.330717l-1.858136-.0121546z" transform="scale(1.0108346 .98928156)"/></g></svg>