<?xml version="1.0" encoding="UTF-8" standalone="no"?>
<svg
   xmlns:dc="http://purl.org/dc/elements/1.1/"
   xmlns:cc="http://creativecommons.org/ns#"
   xmlns:rdf="http://www.w3.org/1999/02/22-rdf-syntax-ns#"
   xmlns:svg="http://www.w3.org/2000/svg"
   xmlns="http://www.w3.org/2000/svg"
   xmlns:sodipodi="http://sodipodi.sourceforge.net/DTD/sodipodi-0.dtd"
   xmlns:inkscape="http://www.inkscape.org/namespaces/inkscape"
   viewBox="0 0 16 16"
   id="svg2"
   version="1.1"
   inkscape:version="0.92.3 (unknown)"
   sodipodi:docname="sc_styleupdatebyexample.svg"
   inkscape:export-filename="/home/rizmut/Dokumen/Rizmut/Github/libreoffice-style-sukapura/images_sukapura/cmd/sc_styleupdatebyexample.png"
   inkscape:export-xdpi="96"
   inkscape:export-ydpi="96"><metadata
   id="metadata10">
  <rdf:RDF>
    <cc:Work
       rdf:about="">
      <dc:format>image/svg+xml</dc:format>
      <dc:type
         rdf:resource="http://purl.org/dc/dcmitype/StillImage" />
      <dc:title />
    </cc:Work>
  </rdf:RDF>
</metadata>
<defs
   id="defs8" />
<sodipodi:namedview
   pagecolor="#ffffff"
   bordercolor="#666666"
   borderopacity="1"
   objecttolerance="10"
   gridtolerance="10"
   guidetolerance="10"
   inkscape:pageopacity="0"
   inkscape:pageshadow="2"
   inkscape:window-width="1366"
   inkscape:window-height="706"
   id="namedview6"
   showgrid="true"
   inkscape:zoom="20.85965"
   inkscape:cx="4.6288856"
   inkscape:cy="8.7759913"
   inkscape:window-x="0"
   inkscape:window-y="0"
   inkscape:window-maximized="1"
   inkscape:current-layer="svg2"
   inkscape:snap-smooth-nodes="true"
   inkscape:snap-global="true">
  <inkscape:grid
     type="xygrid"
     id="grid4138"
     spacingx="0.5"
     spacingy="0.5"
     empspacing="2" />
</sodipodi:namedview>




     /&amp;gt;
 <path
   style="fill:#0a84ff;fill-opacity:1;stroke:none;stroke-width:1;stroke-miterlimit:4;stroke-dasharray:none;stroke-opacity:1"
   d="M 8,0.50976562 C 3.8629242,0.50980204 0.50980204,3.8629242 0.50976562,8 c 0.002682,1.5541756 0.48861201,3.068345 1.39062498,4.333984 L 3.2871094,10.947266 6,8.5 2.4921875,8.1132812 C 2.4926209,5.0816039 4.9507447,2.6243547 7.9824219,2.625 8.9811715,2.6273911 9.9603418,2.9022341 10.814453,3.4199219 L 12.332031,1.9023438 C 11.067289,0.99997406 9.5536505,0.51357043 8,0.50976562 Z M 14.099609,3.6660156 12.607422,5.1582031 10,8 13.470703,8.1132812 C 13.471349,11.144959 11.014099,13.603083 7.9824219,13.603516 6.9359608,13.601039 5.9120136,13.299479 5.03125,12.734375 L 3.6679688,14.097656 C 4.9327112,15.000024 6.4463496,15.486429 8,15.490234 12.137076,15.490198 15.490198,12.137076 15.490234,8 15.487556,6.4458244 15.001622,4.9316545 14.099609,3.6660156 Z"
   id="path4"
   inkscape:connector-curvature="0"
   sodipodi:nodetypes="cccccccccccccccccccc" />
</svg>
