<svg viewBox="0 0 16 16" xmlns="http://www.w3.org/2000/svg"><g fill="#0a84ff" stroke="#0a84ff" stroke-linecap="round" stroke-linejoin="round" transform="translate(-8.996227 .000014)"><path d="m5.5217538 6.4916895-3.0146326 3.0032604 3.0146326 3.0038991z" transform="matrix(0 1.000071 -.99880824 0 21.979514 -2.007299)"/><path d="m11.5 3.5h2v3h-2z"/></g><g fill="#0a84ff" stroke="#0a84ff" stroke-linecap="round" stroke-linejoin="round" transform="matrix(1 0 0 -1 -8.996227 15.999986)"><path d="m5.5217538 6.4916895-3.0146326 3.0032604 3.0146326 3.0038991z" transform="matrix(0 1.000071 -.99880824 0 21.979514 -2.007299)"/><path d="m11.5 3.5h2v3h-2z"/></g><g fill="#69696e"><rect height="1" ry=".380151" width="7" x="6.999999" y="3.000001"/><rect height="1" ry=".440076" width="7" x="6.999999" y="9"/><rect height="1" ry=".5" width="8" x="6.999999" y="12"/><rect height="1" ry=".47603" width="8" x="6.999999" y="6"/></g></svg>