<?xml version="1.0" encoding="UTF-8" standalone="no"?>
<svg
   xmlns:dc="http://purl.org/dc/elements/1.1/"
   xmlns:cc="http://creativecommons.org/ns#"
   xmlns:rdf="http://www.w3.org/1999/02/22-rdf-syntax-ns#"
   xmlns:svg="http://www.w3.org/2000/svg"
   xmlns="http://www.w3.org/2000/svg"
   xmlns:xlink="http://www.w3.org/1999/xlink"
   xmlns:sodipodi="http://sodipodi.sourceforge.net/DTD/sodipodi-0.dtd"
   xmlns:inkscape="http://www.inkscape.org/namespaces/inkscape"
   viewBox="0 0 16 16"
   version="1.1"
   id="svg6"
   sodipodi:docname="sc_starshapes.concave-star6.svg"
   inkscape:version="0.92.3 (2405546, 2018-03-11)"><metadata
   id="metadata12">
  <rdf:RDF>
    <cc:Work
       rdf:about="">
      <dc:format>image/svg+xml</dc:format>
      <dc:type
         rdf:resource="http://purl.org/dc/dcmitype/StillImage" />
      <dc:title></dc:title>
    </cc:Work>
  </rdf:RDF>
</metadata>
<defs
   id="defs10">
  <linearGradient
     gradientTransform="translate(-28.745763,-2.4406778)"
     id="a"
     gradientUnits="userSpaceOnUse"
     x1="12"
     x2="12"
     y1="21.5"
     y2="2.5">
    <stop
       offset="0"
       stop-color="#e5eefc"
       id="stop1020" />
    <stop
       offset="1"
       stop-color="#fcfdff"
       id="stop1022" />
  </linearGradient>
  <linearGradient
     inkscape:collect="always"
     xlink:href="#a"
     id="linearGradient840"
     x1="8.6102381"
     y1="15.254237"
     x2="8.3389139"
     y2="0.27118644"
     gradientUnits="userSpaceOnUse" />
</defs>
<sodipodi:namedview
   pagecolor="#ffffff"
   bordercolor="#666666"
   borderopacity="1"
   objecttolerance="10"
   gridtolerance="10"
   guidetolerance="10"
   inkscape:pageopacity="0"
   inkscape:pageshadow="2"
   inkscape:window-width="1366"
   inkscape:window-height="716"
   id="namedview8"
   showgrid="false"
   inkscape:zoom="14.75"
   inkscape:cx="-1.6610169"
   inkscape:cy="8"
   inkscape:window-x="-8"
   inkscape:window-y="-8"
   inkscape:window-maximized="1"
   inkscape:current-layer="svg6" />
/&gt;<path
   d="m4.2499998.5s.6988125 3.2899592 0 4.6874999c-.6988125 1.3975429-3.7499999 2.8125-3.7499999 2.8125s3.0511874 1.4149567 3.7499999 2.8125001c.6988125 1.397546 0 4.6875 0 4.6875s2.1874688-2.812497 3.75-2.8125c1.5625313-.000002 3.7500002 2.8125 3.7500002 2.8125s-.698813-3.28996 0-4.6875c.698812-1.3975434 3.75-2.8125001 3.75-2.8125001s-3.051188-1.4149571-3.75-2.8125c-.698813-1.3975456 0-4.6874999 0-4.6874999s-2.1874689 2.8124978-3.7500002 2.8125c-1.5625312.0000021-3.75-2.8125-3.75-2.8125z"
   fill="#fff"
   stroke="#808080"
   stroke-linejoin="round"
   id="path2"
   style="fill-opacity:1;fill:url(#linearGradient840);stroke:#0a84ff;stroke-opacity:1" />
</svg>
