<?xml version="1.0" encoding="UTF-8" standalone="no"?>
<svg
   xmlns:dc="http://purl.org/dc/elements/1.1/"
   xmlns:cc="http://creativecommons.org/ns#"
   xmlns:rdf="http://www.w3.org/1999/02/22-rdf-syntax-ns#"
   xmlns:svg="http://www.w3.org/2000/svg"
   xmlns="http://www.w3.org/2000/svg"
   xmlns:xlink="http://www.w3.org/1999/xlink"
   xmlns:sodipodi="http://sodipodi.sourceforge.net/DTD/sodipodi-0.dtd"
   xmlns:inkscape="http://www.inkscape.org/namespaces/inkscape"
   viewBox="0 0 16 16"
   version="1.1"
   id="svg8"
   sodipodi:docname="sc_symbolshapes.octagon-bevel.svg"
   inkscape:version="0.92.3 (2405546, 2018-03-11)">
  <metadata
     id="metadata14">
    <rdf:RDF>
      <cc:Work
         rdf:about="">
        <dc:format>image/svg+xml</dc:format>
        <dc:type
           rdf:resource="http://purl.org/dc/dcmitype/StillImage" />
        <dc:title></dc:title>
      </cc:Work>
    </rdf:RDF>
  </metadata>
  <defs
     id="defs12">
    <linearGradient
       gradientTransform="translate(-24.610169,-14.372881)"
       id="a"
       gradientUnits="userSpaceOnUse"
       x1="12"
       x2="12"
       y1="21.5"
       y2="2.5">
      <stop
         offset="0"
         stop-color="#e5eefc"
         id="stop2" />
      <stop
         offset="1"
         stop-color="#fcfdff"
         id="stop4" />
    </linearGradient>
    <linearGradient
       inkscape:collect="always"
       xlink:href="#a"
       id="linearGradient839"
       x1="0"
       y1="8"
       x2="16"
       y2="8"
       gradientUnits="userSpaceOnUse" />
    <linearGradient
       inkscape:collect="always"
       xlink:href="#a"
       id="linearGradient847"
       x1="1"
       y1="8"
       x2="15"
       y2="8"
       gradientUnits="userSpaceOnUse" />
  </defs>
  <sodipodi:namedview
     pagecolor="#ffffff"
     bordercolor="#666666"
     borderopacity="1"
     objecttolerance="10"
     gridtolerance="10"
     guidetolerance="10"
     inkscape:pageopacity="0"
     inkscape:pageshadow="2"
     inkscape:window-width="1366"
     inkscape:window-height="716"
     id="namedview10"
     showgrid="false"
     inkscape:zoom="3.6875"
     inkscape:cx="-32.791166"
     inkscape:cy="-28.129176"
     inkscape:window-x="-8"
     inkscape:window-y="-8"
     inkscape:window-maximized="1"
     inkscape:current-layer="svg8" />
  <g
     fill="#fff"
     id="g6"
     style="fill-opacity:1.0;fill:url(#linearGradient839)">
    <path
       d="m5.5.5-5 5v5l5 5h5l5-5v-5l-5-5z"
       stroke="#808080"
       stroke-linecap="round"
       stroke-linejoin="round"
       id="path2"
       style="fill-opacity:1;fill:#0a84ff;stroke:#0a84ff;stroke-opacity:1" />
    <path
       d="m6.2864584 1 1.1666666 3.5h1.0937504l1.1666668-3.5zm-1.0572918.4375-3.7916666 3.7916666 3.390625 1.1302084 1.53125-1.53125zm5.5416674 0-1.1302086 3.390625 1.5312506 1.53125 3.390624-1.1302084zm-9.770834 4.8489584v3.4270834l3.5-1.1666668v-1.09375zm14 0-3.5 1.1666666v1.09375l3.5 1.1666668zm-10.171875 3.3541671-3.390625 1.1302085 3.7916666 3.791666 1.1302084-3.390624zm6.343751 0-1.5312506 1.5312505 1.1302086 3.390624 3.791666-3.791666zm-3.718751 1.8593745-1.1666666 3.5h3.4270838l-1.1666668-3.5z"
       id="path4"
       style="fill-opacity:1.0;fill:url(#linearGradient847);stroke:none" />
  </g>
</svg>
