<?xml version="1.0" encoding="UTF-8" standalone="no"?>
<svg
   xmlns:dc="http://purl.org/dc/elements/1.1/"
   xmlns:cc="http://creativecommons.org/ns#"
   xmlns:rdf="http://www.w3.org/1999/02/22-rdf-syntax-ns#"
   xmlns:svg="http://www.w3.org/2000/svg"
   xmlns="http://www.w3.org/2000/svg"
   xmlns:sodipodi="http://sodipodi.sourceforge.net/DTD/sodipodi-0.dtd"
   xmlns:inkscape="http://www.inkscape.org/namespaces/inkscape"
   viewBox="0 0 16 16"
   version="1.1"
   id="svg8"
   sodipodi:docname="sc_spelling.svg"
   inkscape:version="0.92.3 (unknown)">
  <metadata
     id="metadata14">
    <rdf:RDF>
      <cc:Work
         rdf:about="">
        <dc:format>image/svg+xml</dc:format>
        <dc:type
           rdf:resource="http://purl.org/dc/dcmitype/StillImage" />
        <dc:title></dc:title>
      </cc:Work>
    </rdf:RDF>
  </metadata>
  <defs
     id="defs12" />
  <sodipodi:namedview
     pagecolor="#ffffff"
     bordercolor="#666666"
     borderopacity="1"
     objecttolerance="10"
     gridtolerance="10"
     guidetolerance="10"
     inkscape:pageopacity="0"
     inkscape:pageshadow="2"
     inkscape:window-width="1366"
     inkscape:window-height="706"
     id="namedview10"
     showgrid="false"
     inkscape:zoom="14.75"
     inkscape:cx="-3.2881356"
     inkscape:cy="8"
     inkscape:window-x="0"
     inkscape:window-y="0"
     inkscape:window-maximized="1"
     inkscape:current-layer="svg8" />
  <path
     d="m9.0000004 10h-1.4708747q-.2548545 0-.4077671-.120482-.1529126-.128011-.2257281-.316265l-.6116504-1.9653612h-3.5606793l-.604369 1.9578312q-.058253.165662-.2257281.308735-.1601941.135542-.4004854.135542h-1.4927183l3.5242715-10h1.9514562zm-5.847088-3.7876504h2.6941745l-.9830097-3.1626507q-.0873786-.2334337-.1820388-.5421687-.0946602-.3162652-.1893203-.6852411-.0873787.3689759-.1820388.6852411-.0946603.3162651-.1747574.5496987z"
     fill="#696969"
     id="path2"
     style="fill:#69696e;fill-opacity:1" />
  <path
     d="m10 0v9.8964844h1.054688l.484374-.5683594.0332-.203125c.02303.029131.04707.052046.07031.080078l.564453-.6601562c-.19155-.087501-.369579-.2387416-.535156-.453125v-3.015625c.188596-.2479338.385657-.4358947.591797-.5644531.20614-.1331497.449767-.2011719.730469-.2011719.206139 0 .387026.039134.544921.1171875.162281.078053.297082.1999451.402344.3652344.109649.1652892.192985.378917.25.640625.02413.1087925.04287.2276034.05647.3563021.000455.014823.02876.00726.04314.010885l1.189453.2285157c.191863.037007.36084.1026203.513672.1855469-.0063-.4784665-.05867-.9157199-.16601-1.3046872-.114035-.4132231-.275802-.7634781-.486328-1.0527343-.210525-.2938476-.465425-.5196747-.763672-.6757813-.298245-.1561064-.633053-.234375-1.005859-.234375-.390351 0-.741331.085979-1.052735.2558594-.311402.1652892-.593271.3846741-.847656.6601562v-3.8632812z"
     fill="#696969"
     id="path4"
     style="fill:#69696e;fill-opacity:1" />
  <path
     d="m15.291698 7.0118053c-.08045-.015575-.163987-.01645-.249867.00164-.183019.0406-.35168.1463864-.470341.2950811l-5.252126 6.1698766-1.8813593-1.931437c-.3146717-.32309-.8872488-.323066-1.2019794 0-.3146887.323073-.3147137.910865 0 1.233975l2.5084787 2.575247.65325.643812.5748598-.697463 5.8531172-6.8673289c.415147-.4639881.0291-1.3148091-.534033-1.423429z"
     fill="#76a797"
     id="path6"
     style="fill:#32d74b;fill-opacity:1" />
</svg>
