<?xml version="1.0" encoding="UTF-8" standalone="no"?>
<svg
   xmlns:dc="http://purl.org/dc/elements/1.1/"
   xmlns:cc="http://creativecommons.org/ns#"
   xmlns:rdf="http://www.w3.org/1999/02/22-rdf-syntax-ns#"
   xmlns:svg="http://www.w3.org/2000/svg"
   xmlns="http://www.w3.org/2000/svg"
   xmlns:xlink="http://www.w3.org/1999/xlink"
   xmlns:sodipodi="http://sodipodi.sourceforge.net/DTD/sodipodi-0.dtd"
   xmlns:inkscape="http://www.inkscape.org/namespaces/inkscape"
   viewBox="0 0 16 16"
   version="1.1"
   id="svg10"
   sodipodi:docname="sc_setoptimalrowheight.svg"
   inkscape:version="0.92.3 (unknown)"
   inkscape:export-filename="/home/rizmut/Dokumen/Rizmut/Github/libreoffice-style-sukapura/images_sukapura/cmd/sc_setoptimalrowheight.png"
   inkscape:export-xdpi="96"
   inkscape:export-ydpi="96"><metadata
   id="metadata16">
  <rdf:RDF>
    <cc:Work
       rdf:about="">
      <dc:format>image/svg+xml</dc:format>
      <dc:type
         rdf:resource="http://purl.org/dc/dcmitype/StillImage" />
      <dc:title></dc:title>
    </cc:Work>
  </rdf:RDF>
</metadata>
<defs
   id="defs14">
  <linearGradient
     gradientTransform="translate(75,-7)"
     id="a-367"
     gradientUnits="userSpaceOnUse"
     x1="14"
     x2="13.79661"
     y1="22"
     y2="2.1355929">
    <stop
       offset="0"
       stop-color="#0040dd"
       id="stop2206" />
    <stop
       offset="1"
       stop-color="#0a84ff"
       id="stop2208" />
  </linearGradient>
  <linearGradient
     inkscape:collect="always"
     xlink:href="#a-367"
     id="linearGradient2182"
     x1="8.5"
     y1="6"
     x2="8.5"
     y2="0"
     gradientUnits="userSpaceOnUse" />
  <linearGradient
     inkscape:collect="always"
     xlink:href="#a-367"
     id="linearGradient2186"
     gradientUnits="userSpaceOnUse"
     x1="8.5"
     y1="6"
     x2="8.5"
     y2="0"
     gradientTransform="matrix(1,0,0,-1,0,15.999939)" />
</defs>
<sodipodi:namedview
   pagecolor="#ffffff"
   bordercolor="#666666"
   borderopacity="1"
   objecttolerance="10"
   gridtolerance="10"
   guidetolerance="10"
   inkscape:pageopacity="0"
   inkscape:pageshadow="2"
   inkscape:window-width="1366"
   inkscape:window-height="706"
   id="namedview12"
   showgrid="true"
   inkscape:zoom="20.85965"
   inkscape:cx="11.860482"
   inkscape:cy="7.9656061"
   inkscape:window-x="0"
   inkscape:window-y="0"
   inkscape:window-maximized="1"
   inkscape:current-layer="svg10">
  <inkscape:grid
     type="xygrid"
     id="grid823"
     spacingx="0.5"
     spacingy="0.5"
     empspacing="2" />
</sodipodi:namedview>


     /&gt;
 <g
   id="g2248">
  <path
     sodipodi:nodetypes="ccccc"
     style="fill:#ffffff"
     inkscape:connector-curvature="0"
     id="path2"
     d="m 1,6 v 4 H 15 V 6 Z" />
  <path
     id="path4"
     d="M 0 5 L 0 6 L 0 11 L 0.99804688 11 L 0.99804688 6 L 5 6 L 6 6 L 7.0957031 6 L 10 6 L 11 6 L 12 6 L 15.001953 6 L 15.001953 11 L 16 11 L 16 6 L 16 5 L 11.685547 5 C 11.647347 5.00497 11.611807 5.0154901 11.572266 5.0175781 C 11.489226 5.0219647 11.403431 5.0119868 11.318359 5 L 10.001953 5 L 10.001953 5.4804688 C 10.002054 5.4876183 10.000031 5.4947969 10 5.5019531 L 10 5 L 7.0019531 5 L 7 5 L 5.6054688 5 C 5.543855 5.005337 5.4821189 5.0151151 5.421875 5.0117188 C 5.3959704 5.0102582 5.3729948 5.0027303 5.3476562 5 L 0 5 z M 1 10 L 1 11 L 5 11 L 5.3574219 11 C 5.3827409 10.9973 5.4057586 10.989741 5.4316406 10.988281 C 5.4918656 10.984881 5.5536395 10.99468 5.6152344 11 L 6 11 L 7 11 L 7.0117188 11 L 10.009766 11 L 11 11 L 11.328125 11 C 11.413225 10.988 11.498942 10.978032 11.582031 10.982422 C 11.621591 10.984522 11.657091 10.995 11.695312 11 L 15 11 L 15 10 L 12 10 L 11 10 L 10.009766 10 L 9.9160156 10 L 7.1054688 10 L 7 10 L 6 10 L 5 10 L 1 10 z "
     style="fill:#69696e;fill-opacity:1" />
  <path
     id="path2188"
     d="M 6 5 L 6 5.5 C 6 6.4498364 6.8515655 7 7.6269531 7 L 8.5019531 7 L 9.3730469 7 C 10.148435 7 11 6.4498364 11 5.5 L 11 5 L 6 5 z "
     style="fill:#ffffff;fill-opacity:0.78431374" />
  <path
     style="fill-opacity:1;fill:url(#linearGradient2182)"
     id="path6"
     d="M 8.484375 0 C 8.3285533 0.00245151 8.1823615 0.0776896 8.0898438 0.203125 L 5.1464844 3.1523438 C 4.7672758 3.5324167 5.1523373 4.0532126 5.5625 4 L 7 4 L 7 5.5 C 7 5.777 7.2795294 6 7.6269531 6 L 8.5019531 6 L 9.3730469 6 C 9.7204706 6 10 5.777 10 5.5 L 10 4 L 11.40625 4 C 11.830749 4.0875543 12.2506 3.5372252 11.845703 3.1503906 L 8.8886719 0.1953125 C 8.7924623 0.07007545 8.6422593 -0.00245896 8.484375 0 z " />
  <path
     inkscape:connector-curvature="0"
     style="fill:#ffffff;fill-opacity:0.78431373"
     d="M 6,11 V 10.5 C 6,9.5501636 6.8515655,9 7.6269531,9 h 0.875 0.8710938 C 10.148435,9 11,9.5501636 11,10.5 V 11 Z"
     id="path2239" />
  <path
     inkscape:connector-curvature="0"
     d="M 8.484375,15.999939 C 8.3285533,15.997488 8.1823615,15.92225 8.0898438,15.796814 L 5.1464844,12.847596 C 4.7672758,12.467523 5.1523373,11.946727 5.5625,11.999939 H 7 v -1.5 c 0,-0.277 0.2795294,-0.4999995 0.6269531,-0.4999995 h 0.875 0.8710938 C 9.7204706,9.9999395 10,10.222939 10,10.499939 v 1.5 h 1.40625 c 0.424499,-0.08755 0.84435,0.462775 0.439453,0.84961 l -2.9570311,2.955078 c -0.09621,0.125237 -0.2464126,0.197771 -0.4042969,0.195312 z"
     id="path2184"
     style="fill:url(#linearGradient2186);fill-opacity:1" />
  <path
     id="rect1530"
     d="M 5 6 L 5 10 L 6 10 L 6 6 L 5 6 z M 11 6 L 11 10 L 12 10 L 12 6 L 11 6 z "
     style="fill:#bababa;fill-opacity:1" />
</g>
</svg>
