<svg viewBox="0 0 16 16" xmlns="http://www.w3.org/2000/svg">




     /&amp;amp;gt;
 <path d="m8 .50976562c-4.1370758.00003642-7.49019796 3.35315858-7.49023438 7.49023438.002682 1.5541756.48861201 3.068345 1.39062498 4.333984l1.3867188-1.386718 2.7128906-2.447266-3.5078125-.3867188c.0004334-3.0316773 2.4585572-5.4889265 5.4902344-5.4882812.9987496.0023911 1.9779199.2772341 2.8320311.7949219l1.517578-1.5175781c-1.264742-.90236974-2.7783805-1.38877337-4.332031-1.39257818zm6.099609 3.15624998-1.492187 1.4921875-2.607422 2.8417969 3.470703.1132812c.000646 3.0316778-2.456604 5.4898018-5.4882811 5.4902348-1.0464611-.002477-2.0704083-.304037-2.9511719-.869141l-1.3632812 1.363281c1.2647424.902368 2.7783808 1.388773 4.3320312 1.392578 4.137076-.000036 7.490198-3.353158 7.490234-7.490234-.002678-1.5541756-.488612-3.0683455-1.390625-4.3339844z" fill="#0a84ff"/></svg>