<?xml version="1.0" encoding="UTF-8" standalone="no"?>
<svg
   xmlns:dc="http://purl.org/dc/elements/1.1/"
   xmlns:cc="http://creativecommons.org/ns#"
   xmlns:rdf="http://www.w3.org/1999/02/22-rdf-syntax-ns#"
   xmlns:svg="http://www.w3.org/2000/svg"
   xmlns="http://www.w3.org/2000/svg"
   xmlns:xlink="http://www.w3.org/1999/xlink"
   xmlns:sodipodi="http://sodipodi.sourceforge.net/DTD/sodipodi-0.dtd"
   xmlns:inkscape="http://www.inkscape.org/namespaces/inkscape"
   viewBox="0 0 16 16"
   version="1.1"
   id="svg22"
   sodipodi:docname="sc_saveall.svg"
   inkscape:version="0.92.3 (unknown)"
   inkscape:export-filename="/home/rizmut/Dokumen/Rizmut/Github/libreoffice-style-sukapura/images_sukapura/cmd/sc_saveastemplate.png"
   inkscape:export-xdpi="96"
   inkscape:export-ydpi="96">
  <metadata
     id="metadata28">
    <rdf:RDF>
      <cc:Work
         rdf:about="">
        <dc:format>image/svg+xml</dc:format>
        <dc:type
           rdf:resource="http://purl.org/dc/dcmitype/StillImage" />
        <dc:title></dc:title>
      </cc:Work>
    </rdf:RDF>
  </metadata>
  <defs
     id="defs26">
    <linearGradient
       id="b-6"
       gradientUnits="userSpaceOnUse"
       x1="9"
       x2="9"
       y1="15"
       y2="10">
      <stop
         offset="0"
         stop-color="#dadada"
         id="stop3162" />
      <stop
         offset=".5"
         stop-color="#fff"
         id="stop3164" />
      <stop
         offset="1"
         stop-color="#fff"
         id="stop3166" />
    </linearGradient>
    <linearGradient
       id="c"
       gradientUnits="userSpaceOnUse"
       x1="15"
       x2="15"
       y1="18"
       y2="1">
      <stop
         offset="0"
         stop-color="#4f4f4f"
         id="stop3169" />
      <stop
         offset=".88235295"
         stop-color="#4f4f4f"
         stop-opacity=".498039"
         id="stop3171" />
      <stop
         offset="1"
         stop-color="#b7b7b7"
         id="stop3173" />
    </linearGradient>
    <filter
       style="color-interpolation-filters:sRGB"
       id="a-7"
       height="1.071"
       width="2.2780001"
       x="-0.639"
       y="-0.035500001">
      <feGaussianBlur
         stdDeviation=".26625"
         id="feGaussianBlur3159" />
    </filter>
    <filter
       style="color-interpolation-filters:sRGB"
       id="filter3775"
       height="1.071"
       width="2.2780001"
       x="-0.639"
       y="-0.035500001">
      <feGaussianBlur
         stdDeviation=".26625"
         id="feGaussianBlur3773" />
    </filter>
    <linearGradient
       y2="1"
       x2="15"
       y1="18"
       x1="15"
       gradientUnits="userSpaceOnUse"
       id="linearGradient3787"
       xlink:href="#c"
       inkscape:collect="always" />
    <linearGradient
       inkscape:collect="always"
       xlink:href="#c"
       id="linearGradient3846"
       gradientUnits="userSpaceOnUse"
       x1="15"
       y1="18"
       x2="15"
       y2="1" />
    <linearGradient
       inkscape:collect="always"
       xlink:href="#b-6"
       id="linearGradient4497"
       gradientUnits="userSpaceOnUse"
       x1="9"
       y1="15"
       x2="9"
       y2="10" />
    <linearGradient
       inkscape:collect="always"
       xlink:href="#c"
       id="linearGradient4499"
       gradientUnits="userSpaceOnUse"
       x1="15"
       y1="18"
       x2="15"
       y2="1" />
    <linearGradient
       inkscape:collect="always"
       xlink:href="#c"
       id="linearGradient4501"
       gradientUnits="userSpaceOnUse"
       x1="15"
       y1="18"
       x2="15"
       y2="1" />
    <linearGradient
       inkscape:collect="always"
       xlink:href="#b-6"
       id="linearGradient4527"
       gradientUnits="userSpaceOnUse"
       x1="9"
       y1="15"
       x2="9"
       y2="10" />
  </defs>
  <sodipodi:namedview
     pagecolor="#ffffff"
     bordercolor="#666666"
     borderopacity="1"
     objecttolerance="10"
     gridtolerance="10"
     guidetolerance="10"
     inkscape:pageopacity="0"
     inkscape:pageshadow="2"
     inkscape:window-width="1366"
     inkscape:window-height="699"
     id="namedview24"
     showgrid="true"
     inkscape:zoom="14.75"
     inkscape:cx="-4.2913433"
     inkscape:cy="3.9129248"
     inkscape:window-x="0"
     inkscape:window-y="0"
     inkscape:window-maximized="1"
     inkscape:current-layer="g4525"
     inkscape:snap-global="true">
    <inkscape:grid
       type="xygrid"
       id="grid3860"
       spacingx="0.5"
       spacingy="0.5"
       empspacing="2" />
  </sodipodi:namedview>
  <linearGradient
     id="a"
     gradientUnits="userSpaceOnUse"
     x1="10"
     x2="11.5000006"
     y1="4"
     y2="2.4999994">
    <stop
       offset="0"
       stop-color="#fff"
       id="stop2" />
    <stop
       offset=".77967989"
       stop-color="#f1f1f1"
       id="stop4" />
    <stop
       offset="1"
       stop-color="#d5d5d5"
       id="stop6" />
  </linearGradient>
  <radialGradient
     id="b"
     cx="10.994179"
     cy="4.42844"
     gradientTransform="matrix(1.4 .00000004 -.00000001 1.2 -4.39185 -2.314129)"
     gradientUnits="userSpaceOnUse"
     r="5">
    <stop
       offset="0"
       stop-color="#d7d7d7"
       id="stop9" />
    <stop
       offset=".49894297"
       stop-color="#f7f7f7"
       id="stop11" />
    <stop
       offset="1"
       stop-color="#fff"
       id="stop13" />
  </radialGradient>
  <g
     id="g4525"
     transform="translate(2,-2)">
    <g
       transform="matrix(0.62376786,0,0,0.62376786,-0.98278784,7.0197144)"
       id="g3858">
      <path
         inkscape:connector-curvature="0"
         style="fill:#3e3e3e"
         d="M 1,0 C 0.44600003,0 3.0230044e-8,0.446 3.0230044e-8,1 V 13 L 3.1992188,16 H 15 c 0.554,0 1,-0.446 1,-1 V 1 C 16,0.446 15.554,0 15,0 Z"
         id="path3176" />
      <g
         style="fill:#ffffff"
         id="g3182">
        <rect
           height="4.8094816"
           ry="0.28090799"
           width="9.6189623"
           x="3.1787271"
           y="1.5715551"
           id="rect3178" />
        <path
           sodipodi:nodetypes="ssscccccsssss"
           style="fill:url(#linearGradient4527)"
           inkscape:connector-curvature="0"
           d="m 4.1467612,9.7554501 c -0.554,0 -1.0134267,0.4461629 -1,0.9999999 l 0.083468,3.442969 c 0.013427,0.553838 0.4469243,1.031989 1,1 H 5.583468 v -4.007901 h 1.6031604 v 4.007901 h 4.6089176 c 0.554,0 0.999784,-0.445999 1,-1 l 0.0013,-3.442969 c 2.16e-4,-0.554 -0.446,-0.9999999 -1,-0.9999999 z"
           id="path3180" />
      </g>
      <path
         sodipodi:nodetypes="ccccc"
         inkscape:connector-curvature="0"
         d="m 5.5834679,11.190518 h 1.6031605 v 1 H 5.5834679 Z"
         id="path3184" />
      <path
         inkscape:connector-curvature="0"
         style="fill:url(#linearGradient3846);filter:url(#a-7)"
         d="m 14,1 h 1 v 18 h -1 z"
         transform="matrix(1,0,0,0.77777778,0.50000003,0.222222)"
         id="path3186" />
      <path
         inkscape:connector-curvature="0"
         style="fill:url(#linearGradient3787);filter:url(#a-7)"
         d="m 14,1 h 1.237288 V 14.5 H 14 Z"
         transform="matrix(1,0,0,0.77777778,-13.237288,0.222222)"
         id="path3188" />
      <path
         sodipodi:nodetypes="ccccc"
         inkscape:connector-curvature="0"
         style="fill:#bababa"
         d="M 4.7976907,4.7778762 H 11.99611 l 0.0158,1.6031605 H 4.8134937 Z"
         id="path3192" />
      <path
         sodipodi:nodetypes="ccccc"
         inkscape:connector-curvature="0"
         style="fill:#0a84ff"
         d="M 4.7818877,1.5715552 H 11.99611 V 3.1747157 H 4.7818877 Z"
         id="path3194" />
    </g>
    <g
       id="g4495"
       transform="matrix(0.62376786,0,0,0.62376786,3.0172122,3.0197144)">
      <path
         id="path4477"
         d="M 1,0 C 0.44600003,0 3.0230044e-8,0.446 3.0230044e-8,1 V 13 L 3.1992188,16 H 15 c 0.554,0 1,-0.446 1,-1 V 1 C 16,0.446 15.554,0 15,0 Z"
         style="fill:#3e3e3e"
         inkscape:connector-curvature="0" />
      <g
         id="g4483"
         style="fill:#ffffff">
        <rect
           id="rect4479"
           y="1.5715551"
           x="3.1787271"
           width="9.6189623"
           ry="0.28090799"
           height="4.8094816" />
        <path
           id="path4481"
           d="m 4.1467612,9.7554501 c -0.554,0 -1.0134267,0.4461629 -1,0.9999999 l 0.083468,3.442969 c 0.013427,0.553838 0.4469243,1.031989 1,1 H 5.583468 v -4.007901 h 1.6031604 v 4.007901 h 4.6089176 c 0.554,0 0.999784,-0.445999 1,-1 l 0.0013,-3.442969 c 2.16e-4,-0.554 -0.446,-0.9999999 -1,-0.9999999 z"
           inkscape:connector-curvature="0"
           style="fill:url(#linearGradient4497)"
           sodipodi:nodetypes="ssscccccsssss" />
      </g>
      <path
         id="path4485"
         d="m 5.5834679,11.190518 h 1.6031605 v 1 H 5.5834679 Z"
         inkscape:connector-curvature="0"
         sodipodi:nodetypes="ccccc" />
      <path
         id="path4487"
         transform="matrix(1,0,0,0.77777778,0.50000003,0.222222)"
         d="m 14,1 h 1 v 18 h -1 z"
         style="fill:url(#linearGradient4499);filter:url(#a-7)"
         inkscape:connector-curvature="0" />
      <path
         id="path4489"
         transform="matrix(1,0,0,0.77777778,-13.237288,0.222222)"
         d="m 14,1 h 1.237288 V 14.5 H 14 Z"
         style="fill:url(#linearGradient4501);filter:url(#a-7)"
         inkscape:connector-curvature="0" />
      <path
         id="path4491"
         d="M 4.7976907,4.7778762 H 11.99611 l 0.0158,1.6031605 H 4.8134937 Z"
         style="fill:#bababa"
         inkscape:connector-curvature="0"
         sodipodi:nodetypes="ccccc" />
      <path
         id="path4493"
         d="M 4.7818877,1.5715552 H 11.99611 V 3.1747157 H 4.7818877 Z"
         style="fill:#0a84ff"
         inkscape:connector-curvature="0"
         sodipodi:nodetypes="ccccc" />
    </g>
  </g>
</svg>
