<?xml version="1.0" encoding="UTF-8" standalone="no"?>
<svg
   xmlns:dc="http://purl.org/dc/elements/1.1/"
   xmlns:cc="http://creativecommons.org/ns#"
   xmlns:rdf="http://www.w3.org/1999/02/22-rdf-syntax-ns#"
   xmlns:svg="http://www.w3.org/2000/svg"
   xmlns="http://www.w3.org/2000/svg"
   xmlns:xlink="http://www.w3.org/1999/xlink"
   xmlns:sodipodi="http://sodipodi.sourceforge.net/DTD/sodipodi-0.dtd"
   xmlns:inkscape="http://www.inkscape.org/namespaces/inkscape"
   viewBox="0 0 16 16"
   version="1.1"
   id="svg6"
   sodipodi:docname="sc_symbolshapes.heart.svg"
   inkscape:version="0.92.3 (2405546, 2018-03-11)"><metadata
   id="metadata12">
  <rdf:RDF>
    <cc:Work
       rdf:about="">
      <dc:format>image/svg+xml</dc:format>
      <dc:type
         rdf:resource="http://purl.org/dc/dcmitype/StillImage" />
      <dc:title></dc:title>
    </cc:Work>
  </rdf:RDF>
</metadata>
<defs
   id="defs10">
  <linearGradient
     gradientTransform="translate(-38.169491,-12.610169)"
     id="a"
     gradientUnits="userSpaceOnUse"
     x1="12"
     x2="12"
     y1="21.5"
     y2="2.5">
    <stop
       offset="0"
       stop-color="#e5eefc"
       id="stop2" />
    <stop
       offset="1"
       stop-color="#fcfdff"
       id="stop4" />
  </linearGradient>
  <linearGradient
     inkscape:collect="always"
     xlink:href="#a"
     id="linearGradient848"
     x1="8"
     y1="15.500003"
     x2="8.0420523"
     y2="0.32965815"
     gradientUnits="userSpaceOnUse" />
</defs>
<sodipodi:namedview
   pagecolor="#ffffff"
   bordercolor="#666666"
   borderopacity="1"
   objecttolerance="10"
   gridtolerance="10"
   guidetolerance="10"
   inkscape:pageopacity="0"
   inkscape:pageshadow="2"
   inkscape:window-width="1366"
   inkscape:window-height="716"
   id="namedview8"
   showgrid="false"
   inkscape:zoom="10.429825"
   inkscape:cx="-7.149957"
   inkscape:cy="4.380527"
   inkscape:window-x="-8"
   inkscape:window-y="-8"
   inkscape:window-maximized="1"
   inkscape:current-layer="svg6" />
/&gt;<path
   d="m4.71875.499997c-2.3299505 0-4.21875 1.8887756-4.21875 4.21875 0 .4972513.0538773 1.004624.2636719 1.40625 2.1388106 3.992101 4.723284 4.356202 7.2070312 9.316406v.0293c.00619.01242.0231.01682.029297.0293.010247-.02063.01905-.03813.029297-.05859 2.4837469-4.960214 5.0682199-5.324315 7.2070299-9.316416.209794-.401626.263673-.9089987.263673-1.40625 0-2.3299744-1.888799-4.21875-4.21875-4.21875-1.318872 0-2.478643.6049321-3.2519531 1.5527344-.0084815.0103956-.0209091.0188187-.0292969.0292969-.0083877-.0104782-.0208154-.0189013-.0292969-.0292969-.7733097-.9478023-1.9330806-1.5527344-3.2519531-1.5527344z"
   fill="#fff"
   stroke="#808080"
   stroke-linejoin="round"
   id="path2"
   style="stroke:#0a84ff;stroke-opacity:0.81372547;fill-opacity:1;fill:url(#linearGradient848)" />
</svg>
