<svg viewBox="0 0 16 16" xmlns="http://www.w3.org/2000/svg">/&amp;amp;gt;<g fill-rule="evenodd"><path d="m2.4453125-1c-.7663717.02540224-1.44757478.72724665-1.44726562 1.49414062v14.12890638c-.00034705.588965.38300092 1.158881.92773432 1.382812.5447335.223932 1.2188306.08689 1.6328126-.332031l2.0625-2.080078.96875 1.919922a1.0015558 1.0015558 0 0 0 .2832031.339844c.3634954.505162.8402393.881318 1.3574219 1.027343.6426921.181463 1.2970469.146339 1.8906252-.0332.595992-.180268 1.225565-.539792 1.652344-1.171875.460989-.682748.563264-1.578603.248046-2.412109a1.0015558 1.0015558 0 0 0 -.0078-.01758c-.01362-.03414-.02883-.06656-.04492-.09961l-.0078-.01758-1.171876-2.445312h2.716797c.617147.000835 1.211552-.422836 1.414063-1.0058596.202416-.5827508-.002-1.2820289-.486328-1.6640625l-.002-.00195-11.009766-8.6914063a1.0015558 1.0015558 0 0 0 -.00195-.001953c-.2739345-.215473-.624292-.3297153-.9726384-.3183616z" fill="#98989d"/><path d="m2.4785156 0a.49419004.49419004 0 0 0 -.4785156.49414062v14.12890638a.49419004.49419004 0 0 0 .8457031.347656l3.0449219-3.068359 1.59375 3.160156-.021484-.04883c.1815644.4801.6051357.781779 1.0390625.904297s.8981329.101352 1.3300781-.0293c.4319448-.130649.8429818-.376002 1.1113278-.773438.268347-.397435.34616-.954566.140625-1.498046a.49419004.49419004 0 0 0 -.01758-.03906l-1.8652325-3.8964824h4.3046871a.49419004.49419004 0 0 0 .306641-.8828125l-11.0117188-8.69335935a.49419004.49419004 0 0 0 -.3222656-.10546875z" fill="#fff"/><path d="m2.9707031 1.4765625v11.9902345l2.7148438-2.736328a.47608227.47608227 0 0 1 .7636719.121093l1.9023437 3.773438a.47608227.47608227 0 0 1 .019531.04687c.058539.15479.1754025.25063.3945312.3125s.5222897.05666.7871094-.02344.4816086-.231262.5878906-.388672c.105608-.156411.145735-.313576.03516-.609375l-2.1875035-4.5703049a.47608227.47608227 0 0 1 .4296876-.6816406h3.7167972z"/></g></svg>