<svg viewBox="0 0 16 16" xmlns="http://www.w3.org/2000/svg" xmlns:xlink="http://www.w3.org/1999/xlink"><linearGradient id="a" gradientTransform="matrix(-1 0 0 1 26.009883 0)" gradientUnits="userSpaceOnUse" x1="20.871548" x2="20.939325" xlink:href="#c" y1="1.139827" y2="7.953386"/><linearGradient id="b" gradientUnits="userSpaceOnUse" x1="-13.007121" x2="-13.007121" xlink:href="#c" y1="-.9899" y2="-7.9899"/><linearGradient id="c" gradientTransform="translate(-26.983051 -6.983051)" gradientUnits="userSpaceOnUse" x1="14" x2="13.79661" y1="22" y2="2.135593"><stop offset="0" stop-color="#0040dd"/><stop offset="1" stop-color="#0a84ff"/></linearGradient><linearGradient id="d" gradientUnits="userSpaceOnUse" x1="20.871548" x2="20.939325" xlink:href="#c" y1="1.139827" y2="7.953386"/>




/&amp;amp;amp;amp;amp;amp;gt;<path d="m3.7792969 0-3.7792969 10.003906h.8828125l1.4179687-1.4218748.5527344-1.5820312h3.40625l1.0507813 3.003906h1.8125l-3.7851563-10.003906zm.7753906 2.1230469 1.3554687 3.8769531h-2.7089843z" fill="#4b4b4f"/><path d="m7.1308594 0 3.5859376 10.003906h.291015v-.5097654a1.4921604 1.4921604 0 0 1 1.470704-1.4921875 1.4921604 1.4921604 0 0 1 .599609.1171875l2.921875-8.1191406h-1.910156l-2.541016 7.8261719-2.5156249-7.8261719z" fill="#4b4b4f"/><g fill="none" stroke-linecap="round" stroke-linejoin="round" transform="matrix(-1 0 0 -1 21.007121 16.9899)"><path d="m-17.007122-4.9899001h8v1h-8z" fill="url(#b)" transform="scale(-1)"/><path d="m17.501953.98828125a.50258017.50258017 0 0 0 -.496094.50195315v6a.50258017.50258017 0 0 0 .857422.3554687l2.992188-3a.50258017.50258017 0 0 0 0-.7109375l-2.992188-3a.50258017.50258017 0 0 0 -.361328-.14648435z" fill="url(#d)"/><path d="m8.5079303.98828125a.50258017.50258017 0 0 1 .496094.50195315v6a.50258017.50258017 0 0 1 -.857422.3554687l-2.992188-3a.50258017.50258017 0 0 1 0-.7109375l2.992188-3a.50258017.50258017 0 0 1 .361328-.14648435z" fill="url(#a)"/></g></svg>