<?xml version="1.0" encoding="UTF-8" standalone="no"?>
<svg
   xmlns:dc="http://purl.org/dc/elements/1.1/"
   xmlns:cc="http://creativecommons.org/ns#"
   xmlns:rdf="http://www.w3.org/1999/02/22-rdf-syntax-ns#"
   xmlns:svg="http://www.w3.org/2000/svg"
   xmlns="http://www.w3.org/2000/svg"
   xmlns:sodipodi="http://sodipodi.sourceforge.net/DTD/sodipodi-0.dtd"
   xmlns:inkscape="http://www.inkscape.org/namespaces/inkscape"
   viewBox="0 0 16 16"
   version="1.1"
   id="svg23111"
   sodipodi:docname="sc_superscript.svg"
   inkscape:version="0.92.3 (2405546, 2018-03-11)">
  <metadata
     id="metadata23117">
    <rdf:RDF>
      <cc:Work
         rdf:about="">
        <dc:format>image/svg+xml</dc:format>
        <dc:type
           rdf:resource="http://purl.org/dc/dcmitype/StillImage" />
      </cc:Work>
    </rdf:RDF>
  </metadata>
  <defs
     id="defs23115" />
  <sodipodi:namedview
     pagecolor="#ffffff"
     bordercolor="#666666"
     borderopacity="1"
     objecttolerance="10"
     gridtolerance="10"
     guidetolerance="10"
     inkscape:pageopacity="0"
     inkscape:pageshadow="2"
     inkscape:window-width="1366"
     inkscape:window-height="716"
     id="namedview23113"
     showgrid="true"
     inkscape:zoom="14.75"
     inkscape:cx="-0.88800367"
     inkscape:cy="9.0815222"
     inkscape:window-x="-8"
     inkscape:window-y="-8"
     inkscape:window-maximized="1"
     inkscape:current-layer="svg23111">
    <inkscape:grid
       type="xygrid"
       id="grid23662" />
  </sodipodi:namedview>
  <linearGradient
     id="a"
     gradientUnits="userSpaceOnUse"
     x1="15"
     x2="15"
     y1="8"
     y2="0">
    <stop
       offset="0"
       stop-color="#0040dd"
       id="stop23102" />
    <stop
       offset="1"
       stop-color="#0a84ff"
       id="stop23104" />
  </linearGradient>
  <path
     d="m4.1351409 8.4382085-3.94215408-5.5829425h2.13089408l2.9406338 4.3044061 2.9193249-4.3044061h2.1095854l-3.9421543 5.5829425 4.1552433 5.8386495h-2.1308939l-3.1111054-4.560113-3.1537232 4.560113h-2.10958515z"
     fill="#69696e"
     transform="scale(.95179053 1.0506513)"
     id="path23107"
     style="fill:#4b4b4f;fill-opacity:1" />
  <path
     d="m15.316804 7.9957628h-5.310515v-.9058794l2.630848-2.8695223q.569565-.6346581.80824-1.0577634.244099-.4285298.244099-.8570596 0-.5641405-.320041-.9113039-.314617-.3471634-.851636-.3471634-.640082 0-.99267.3905588-.352588.3905588-.352588 1.0686123h-1.3181357q0-.7214489.3254657-1.2964383.33089-.58041373.938426-.90045497.61296-.32004124 1.410351-.32004124 1.149979 0 1.811759.58041378.667205.57498933.667205 1.59478173 0 .5912627-.336315 1.242194-.33089.6455069-1.09031 1.4700199l-1.931096 2.066707h3.666913z"
     fill="url(#a)"
     id="path23109"
     style="fill:url(#a)" />
</svg>
