<?xml version="1.0" encoding="UTF-8" standalone="no"?>
<svg
   xmlns:dc="http://purl.org/dc/elements/1.1/"
   xmlns:cc="http://creativecommons.org/ns#"
   xmlns:rdf="http://www.w3.org/1999/02/22-rdf-syntax-ns#"
   xmlns:svg="http://www.w3.org/2000/svg"
   xmlns="http://www.w3.org/2000/svg"
   xmlns:xlink="http://www.w3.org/1999/xlink"
   xmlns:sodipodi="http://sodipodi.sourceforge.net/DTD/sodipodi-0.dtd"
   xmlns:inkscape="http://www.inkscape.org/namespaces/inkscape"
   viewBox="0 0 16 16"
   version="1.1"
   id="svg12"
   sodipodi:docname="sc_toolsmacroedit.svg"
   inkscape:version="0.92.3 (unknown)"
   inkscape:export-filename="/home/rizmut/Dokumen/Rizmut/Github/libreoffice-style-sukapura/images_sukapura/cmd/sc_toolsmacroedit.png"
   inkscape:export-xdpi="96"
   inkscape:export-ydpi="96"><metadata
   id="metadata18">
  <rdf:RDF>
    <cc:Work
       rdf:about="">
      <dc:format>image/svg+xml</dc:format>
      <dc:type
         rdf:resource="http://purl.org/dc/dcmitype/StillImage" />
      <dc:title></dc:title>
    </cc:Work>
  </rdf:RDF>
</metadata>
<defs
   id="defs16">
  <linearGradient
     inkscape:collect="always"
     id="linearGradient895">
    <stop
       style="stop-color:#f6f6f6;stop-opacity:1;"
       offset="0"
       id="stop891" />
    <stop
       style="stop-color:#ffffff;stop-opacity:1"
       offset="1"
       id="stop893" />
  </linearGradient>
  <clipPath
     clipPathUnits="userSpaceOnUse"
     id="clipPath847">
    <rect
       style="opacity:1;fill:#98989d;fill-opacity:1;stroke:none;stroke-width:1;stroke-linecap:round;stroke-linejoin:round;stroke-miterlimit:4;stroke-dasharray:none;stroke-opacity:1"
       id="rect849"
       width="83.606392"
       height="73.251465"
       x="4857.6079"
       y="-1109.2346"
       rx="0.5"
       ry="0.5" />
  </clipPath>
  <linearGradient
     inkscape:collect="always"
     xlink:href="#linearGradient895"
     id="linearGradient897"
     x1="11.003906"
     y1="14.91016"
     x2="11"
     y2="1"
     gradientUnits="userSpaceOnUse" />
</defs>
<sodipodi:namedview
   pagecolor="#ffffff"
   bordercolor="#666666"
   borderopacity="1"
   objecttolerance="10"
   gridtolerance="10"
   guidetolerance="10"
   inkscape:pageopacity="0"
   inkscape:pageshadow="2"
   inkscape:window-width="1366"
   inkscape:window-height="706"
   id="namedview14"
   showgrid="true"
   inkscape:zoom="15.625"
   inkscape:cx="8.4225278"
   inkscape:cy="2.3369414"
   inkscape:window-x="0"
   inkscape:window-y="0"
   inkscape:window-maximized="1"
   inkscape:current-layer="svg12">
  <inkscape:grid
     type="xygrid"
     id="grid851" />
</sodipodi:namedview>



     /&gt;
 <path
   style="fill:url(#linearGradient897);fill-opacity:1"
   d="M 8.7773438,0.9765625 C 8.783224,0.98435938 8.7890834,0.99217191 8.7949219,1 H 4 v 0.017578 C 3.466003,1.1445981 3.1733862,1.5123693 3,2 v 9.982422 c -0.06906,0.0014 -0.1282364,0.0096 -0.1933594,0.01367 -0.3736689,-0.03397 -0.716301,0.0484 -1.0019531,0.210937 -0.6268889,0.267366 -0.86471507,0.984321 -0.8125,1.449219 -0.002239,0.03193 -0.0121649,0.0639 -0.0117188,0.0957 0.006895,0.491527 0.34398545,0.9582 1.14843745,1.152344 0.1609346,0.05069 0.3303102,0.08701 0.515625,0.09375 0.051496,0.0019 0.1071945,-0.006 0.1601563,-0.0078 C 2.8708698,14.993167 2.9296867,14.999828 3,15 h 4.2636719 c -0.00588,-0.0078 -0.01174,-0.01561 -0.017578,-0.02344 l 3.3632812,0.01758 0.002,0.0059 c 0.08568,-0.02039 0.176844,-0.07996 0.267578,-0.15625 0.04414,0.02062 0.08264,0.05003 0.128906,0.06641 0.596378,-0.212706 0.994966,-0.776982 0.996094,-1.410156 -3.62e-4,-0.129259 -0.01743,-0.257929 -0.05078,-0.382812 0.01356,-0.03435 0.04061,-0.08858 0.05078,-0.117188 l 0.04102,-9.2558594 c 0.07185,-0.00142 0.133578,-0.00936 0.201172,-0.013672 0.372474,0.032418 0.713474,-0.048175 0.998046,-0.2109376 0.625266,-0.2675418 1.856873,-0.734843 1.804688,-1.1992187 0.0022,-0.031933 0.01216,-0.063895 0.01172,-0.095703 -0.0065,-0.4611622 -1.301378,-0.8963342 -2.001953,-1.109375 -0.04379,-0.013315 -0.08581,-0.027577 -0.132813,-0.039063 -0.163354,-0.052324 -0.336726,-0.0907971 -0.525391,-0.0976563 -0.05341,-0.001942 -0.111027,0.007702 -0.166015,0.009766 -0.06434,-0.002776 -0.121219,-0.0115515 -0.189453,-0.0117188 z M 11.007812,14.910156 c -0.03347,0.01161 -0.06735,0.02204 -0.101562,0.03125 0.03421,-0.0092 0.06809,-0.01964 0.101562,-0.03125 z m -0.101562,0.03125 c -0.02649,0.0079 -0.05319,0.01506 -0.08008,0.02149 0.02689,-0.0064 0.05359,-0.01359 0.08008,-0.02149 z m -0.136719,0.0332 c -0.03817,0.0074 -0.07661,0.01322 -0.115234,0.01758 0.03862,-0.0044 0.07707,-0.01023 0.115234,-0.01758 z"
   id="path8"
   inkscape:connector-curvature="0"
   sodipodi:nodetypes="cccccccccsccccccccccccccccccccccccccccccccc" />
<path
   d="M 4.25,0 C 2.9429016,0 2,1.1080036 2,2.375 V 4.25 9.3925781 11.197266 C 0.92853829,11.437969 0,12.472476 0,13.625 0,14.971001 1.1942339,16 2.5,16 h 5.84375 2.410156 c 1.307098,0 2.249668,-1.108004 2.25,-2.375 V 11.75 6.6074219 4.5527344 C 14.075368,4.3120313 16,3.5275237 16,2.375 16,1.0289985 14.737672,0 13.431906,0 H 7.65625 Z m 0,1 H 8.7363281 12.503906 C 13.269266,1 15,1.6498765 15,2.375 15,3.1001235 13.269069,3.7326694 12.503906,3.75 h -0.5 V 6.2148438 11.75 l -0.01131,1.807118 c -0.0045,0.723658 -1.010183,1.417191 -1.453646,1.420255 L 7.2636719,15 H 2.5 C 1.7346411,15 1,14.350123 1,13.625 1,13.53436 1.0116205,13.444588 1.0332031,13.357422 1.1842818,12.747255 1.8303106,12 2.5,12 H 3 V 9.7851562 4.25 2.375 C 3,1.5644776 3.4795984,1 4.25,1 Z"
   id="path10"
   style="fill:#98989d;fill-opacity:1"
   inkscape:connector-curvature="0"
   sodipodi:nodetypes="sscccsscsscccsscsscssscccsscsscscccss" />
<circle
   style="opacity:1;fill:#98989d;fill-opacity:1;stroke:none;stroke-width:1;stroke-linecap:round;stroke-linejoin:round;stroke-miterlimit:4;stroke-dasharray:none;stroke-opacity:1"
   id="path853"
   cx="2.5"
   cy="13.5"
   r="1.5" />
<path
   style="opacity:1;fill:#c93400;fill-opacity:1;stroke:none;stroke-width:1;stroke-linecap:round;stroke-linejoin:round;stroke-miterlimit:4;stroke-dasharray:none;stroke-opacity:1"
   d="m 0,11 v 3 H 8.087891 C 8.2995246,14.598592 8.8650981,14.999109 9.5,15 9.671876,14.999143 9.842325,14.96875 10.003906,14.91016 9.476632,14.723498 9.078292,14.253813 9.011719,13.669926 H 9 V 13.5 12 11 Z"
   id="rect869"
   inkscape:connector-curvature="0"
   sodipodi:nodetypes="ccccccccccc" />
<path
   style="opacity:1;fill:#c93400;fill-opacity:1;stroke:none;stroke-width:1;stroke-linecap:round;stroke-linejoin:round;stroke-miterlimit:4;stroke-dasharray:none;stroke-opacity:1"
   d="m 2,11 v 0.197266 C 0.92853829,11.437969 0,12.472476 0,13.625 0,14.971001 1.1942339,16 2.5,16 h 8.25 c 0.08644,0 0.166915,-0.01793 0.25,-0.02734 v -1.15039 c -0.17551,0.09242 -0.342241,0.153648 -0.464844,0.154296 l -0.287109,0.002 c 0.05558,0.0097 0.111657,0.01618 0.167969,0.01953 L 9,14.990234 H 8.0429688 L 6.2636719,15 H 2.5 C 2.4026034,14.999866 2.3073567,14.988693 2.2148438,14.970703 1.9365234,14.916582 1.6877095,14.784126 1.4863281,14.597656 1.2076251,14.353425 1.020856,14.024235 1.0058594,13.669922 H 1 V 13.625 13.5 12 H 2.5 3 v -1 z m 8.605469,3.994141 0.002,0.0059 h -0.0957 c 0.0313,-9.74e-4 0.06257,-0.0029 0.09375,-0.0059 z"
   id="rect883"
   inkscape:connector-curvature="0"
   sodipodi:nodetypes="ccssscccccccccccccccccccccccc" />
<path
   style="opacity:1;fill:#ff9500;fill-opacity:1;stroke:none;stroke-width:1;stroke-linecap:round;stroke-linejoin:round;stroke-miterlimit:4;stroke-dasharray:none;stroke-opacity:1"
   d="m 1,12 v 1.5 0.169922 H 1.011719 C 1.0980261,14.426912 1.7381069,14.998952 2.5,15 c 0.1023627,7e-6 0.2044573,-0.01046 0.3046875,-0.03125 v 0.02148 H 8 l 1.416016,0.0078 C 8.6870585,14.956132 8.0941793,14.395412 8.011719,13.669922 H 8 V 13.5 12 Z m 8.605469,2.994141 c -0.03118,0.0029 -0.06245,0.0049 -0.09375,0.0059 h 0.0957 z"
   id="path861"
   inkscape:connector-curvature="0"
   sodipodi:nodetypes="cccccccccccccccccc" />
<path
   style="opacity:1;fill:#c93400;fill-opacity:1;stroke:none;stroke-width:1;stroke-linecap:round;stroke-linejoin:round;stroke-miterlimit:4;stroke-dasharray:none;stroke-opacity:1"
   d="M 14 0.052734375 L 14 1.1035156 C 14.189533 1.1726419 14.367347 1.2668533 14.513672 1.4023438 C 14.702846 1.5681194 14.844333 1.7746512 14.923828 2 L 14 2 L 14 4 L 14 4.8027344 L 14 5 L 16 5 L 16 2.375 L 16 2 L 15.964844 2 C 15.795923 1.0093317 14.975152 0.25047227 14 0.052734375 z "
   id="path899" />
<path
   style="opacity:1;fill:#ff0000;fill-opacity:1;stroke:none;stroke-width:1;stroke-linecap:round;stroke-linejoin:round;stroke-miterlimit:4;stroke-dasharray:none;stroke-opacity:1"
   d="M 13.416016,1 C 13.587892,1.000857 13.838419,1.0449256 14,1.1035156 13.472726,1.2901776 13.078292,1.7461913 13.011719,2.3300783 h -0.01172 V 2.5 4 5 H 12 V 2 h 0.0039 c 0.211633,-0.598592 0.777207,-0.999109 1.41211,-1 z"
   id="path916"
   inkscape:connector-curvature="0"
   sodipodi:nodetypes="cccccccccccc" />
<path
   style="opacity:1;fill:#c93400;fill-opacity:1;stroke:none;stroke-width:1;stroke-linecap:round;stroke-linejoin:round;stroke-miterlimit:4;stroke-dasharray:none;stroke-opacity:1"
   d="M 14 0.052734375 C 13.024848 0.25047227 12.204073 1.0093317 12.035156 2 L 12 2 L 12 2.375 L 12 5 L 14 5 L 14 4.8027344 L 14 4 L 13 4 L 13 2.5 L 13 2.3300781 L 13.011719 2.3300781 C 13.025001 2.2132205 13.061016 2.1058596 13.099609 2 L 13.076172 2 C 13.130455 1.84612 13.222537 1.7074711 13.330078 1.578125 C 13.340639 1.5651392 13.352292 1.5536311 13.363281 1.5410156 C 13.40439 1.49482 13.439035 1.4437876 13.486328 1.4023438 C 13.5298 1.3620904 13.580394 1.3322191 13.628906 1.2988281 C 13.639579 1.2912733 13.649281 1.282679 13.660156 1.2753906 C 13.766275 1.2068063 13.879258 1.1475525 14 1.1035156 L 14 0.052734375 z "
   id="path928" />
<path
   style="opacity:1;fill:#ff9500;fill-opacity:1;stroke:none;stroke-width:1;stroke-linecap:round;stroke-linejoin:round;stroke-miterlimit:4;stroke-dasharray:none;stroke-opacity:1"
   d="M 14.021484,1.095703 C 13.485103,1.2796077 13.078409,1.7433337 13.011719,2.330078 H 13 V 2.5 4 h 2 V 2.5 2.3300781 H 14.98828 C 14.922743,1.7552437 14.536532,1.288197 14.021484,1.095703 Z"
   id="path903"
   inkscape:connector-curvature="0"
   sodipodi:nodetypes="cccccccccc" />
<circle
   style="opacity:1;fill:#ff0000;fill-opacity:1;stroke:none;stroke-width:1;stroke-linecap:round;stroke-linejoin:round;stroke-miterlimit:4;stroke-dasharray:none;stroke-opacity:1"
   id="path967"
   cx="11.5"
   cy="11.5"
   r="0" />
<path
   style="fill:#f6f6f6;fill-opacity:0.78431374"
   d="M 13.570312 4.9980469 C 13.56384 4.9980469 13.557261 4.9999355 13.550781 5 L 13.589844 5 C 13.58333 4.9999367 13.576821 4.9980469 13.570312 4.9980469 z M 13.003906 5.0898438 C 12.678359 5.1840385 12.366443 5.3487062 12.115234 5.5996094 L 10.867188 6.8457031 L 10.316406 7.3828125 A 1.5028785 1.5028785 0 0 0 10.285156 7.4160156 L 6.7597656 11.066406 A 1.5028785 1.5028785 0 0 0 6.5234375 11.382812 L 6.2519531 11.875 A 1.5028785 1.5028785 0 0 0 6.1699219 12.050781 L 5.1015625 14.763672 A 1.5028785 1.5028785 0 0 0 5.1640625 16 L 8.34375 16 L 10.089844 16 A 1.5028785 1.5028785 0 0 0 10.179688 15.953125 L 10.757812 15.615234 A 1.5028785 1.5028785 0 0 0 11.097656 15.34375 L 13.003906 13.304688 L 13.003906 11.75 L 13.003906 6.6074219 L 13.003906 5.0898438 z M 11.996094 13.019531 L 11.992188 13.417969 C 11.986287 13.316759 11.979319 13.215274 11.953125 13.117188 C 11.964452 13.088492 11.983643 13.049447 11.996094 13.019531 z M 10.878906 14.84375 C 10.890342 14.849092 10.901198 14.855185 10.912109 14.861328 C 10.898229 14.867859 10.884759 14.872868 10.871094 14.878906 C 10.8318 14.895338 10.800449 14.898595 10.763672 14.910156 C 10.802307 14.885348 10.839962 14.876495 10.878906 14.84375 z M 7.2558594 14.990234 L 8 14.990234 L 7.2597656 14.994141 C 7.2586674 14.99268 7.2569561 14.991696 7.2558594 14.990234 z "
   id="path895" />
<g
   id="g12"
   transform="translate(-0.49557219,-0.5)"
   style="fill:#eac282">
  <path
     style="fill:#a2a2a7;fill-opacity:1;stroke:#848489;stroke-linecap:square;stroke-linejoin:miter;stroke-opacity:1"
     id="path827"
     d="M 8.0648836,13.101074 6.9955722,15.81356 9.9183494,15.156465 Z"
     inkscape:connector-curvature="0"
     sodipodi:nodetypes="cccc" />
  <path
     d="m 11.861005,8.958496 -3.524935,3.651053 2.158551,2.207933 3.493336,-3.734963 z"
     id="path8-3"
     style="fill:#ffcc00;fill-opacity:1;stroke:#c89e00;stroke-opacity:1"
     inkscape:connector-curvature="0"
     sodipodi:nodetypes="ccccc" />
  <path
     d="m 14.065594,7 c -0.142171,0 -0.283638,0.05379 -0.392578,0.1625977 l -1.255371,1.2524416 2.135742,2.1372067 1.283203,-1.229004 c 0.21788,-0.2175952 0.21788,-0.5675602 0,-0.7851562 L 14.459637,7.1625977 C 14.350696,7.0537997 14.207766,7 14.065594,7 Z"
     id="path10-6"
     style="fill:#e68497;fill-opacity:1;stroke:#b6496c;stroke-opacity:1"
     inkscape:connector-curvature="0" />
  <path
     inkscape:connector-curvature="0"
     style="fill:#ffe014"
     d="M 13.411678,10.101871 12.859477,9.5663202 9.2676444,13 9.9955722,13.5 Z"
     id="path14"
     sodipodi:nodetypes="ccccc" />
</g>
</svg>
