<?xml version="1.0" encoding="UTF-8" standalone="no"?>
<svg
   xmlns:dc="http://purl.org/dc/elements/1.1/"
   xmlns:cc="http://creativecommons.org/ns#"
   xmlns:rdf="http://www.w3.org/1999/02/22-rdf-syntax-ns#"
   xmlns:svg="http://www.w3.org/2000/svg"
   xmlns="http://www.w3.org/2000/svg"
   xmlns:sodipodi="http://sodipodi.sourceforge.net/DTD/sodipodi-0.dtd"
   xmlns:inkscape="http://www.inkscape.org/namespaces/inkscape"
   viewBox="0 0 16 16"
   version="1.1"
   id="svg12"
   sodipodi:docname="sc_tabledialog.svg"
   inkscape:version="0.92.3 (2405546, 2018-03-11)"><metadata
   id="metadata18">
  <rdf:RDF>
    <cc:Work
       rdf:about="">
      <dc:format>image/svg+xml</dc:format>
      <dc:type
         rdf:resource="http://purl.org/dc/dcmitype/StillImage" />
      <dc:title></dc:title>
    </cc:Work>
  </rdf:RDF>
</metadata>
<defs
   id="defs16">
  <linearGradient
     gradientTransform="translate(-1,-5)"
     id="a-2"
     gradientUnits="userSpaceOnUse"
     x1="11"
     x2="11"
     y1="21"
     y2="3">
    <stop
       offset="0"
       stop-color="#f7f7f7"
       id="stop2-2" />
    <stop
       offset=".22222222"
       stop-color="#fff"
       id="stop4-9" />
    <stop
       offset=".83333331"
       stop-color="#fff"
       id="stop6-3" />
    <stop
       offset="1"
       stop-color="#f7f7f7"
       id="stop8-6" />
  </linearGradient>
  <linearGradient
     gradientTransform="matrix(1,0,0,0.53846154,-6,5.3076923)"
     id="b"
     gradientUnits="userSpaceOnUse"
     x1="12"
     x2="12"
     y1="18"
     y2="5">
    <stop
       offset="0"
       stop-color="#cfcfcf"
       id="stop11" />
    <stop
       offset="0.15476191"
       stop-color="#e7e7e7"
       id="stop13" />
    <stop
       offset="0.15476191"
       stop-color="#fff"
       id="stop15" />
    <stop
       offset=".5"
       stop-color="#f3f3f3"
       id="stop17" />
    <stop
       offset="0.85714287"
       stop-color="#f9f9f9"
       id="stop19" />
    <stop
       offset="0.85714287"
       stop-color="#fcfcfc"
       id="stop21" />
    <stop
       offset="1"
       stop-color="#fff"
       id="stop23" />
  </linearGradient>
  <linearGradient
     gradientTransform="matrix(1,0,0,0.39999999,-6,6.6999997)"
     id="c"
     gradientUnits="userSpaceOnUse"
     x1="12"
     x2="12"
     y1="12"
     y2="18.250002">
    <stop
       offset="0"
       stop-color="#f8f8f8"
       id="stop26" />
    <stop
       offset="1"
       stop-color="#fff"
       id="stop28" />
  </linearGradient>
</defs>
<sodipodi:namedview
   pagecolor="#ffffff"
   bordercolor="#666666"
   borderopacity="1"
   objecttolerance="10"
   gridtolerance="10"
   guidetolerance="10"
   inkscape:pageopacity="0"
   inkscape:pageshadow="2"
   inkscape:window-width="1366"
   inkscape:window-height="685"
   id="namedview14"
   showgrid="true"
   inkscape:zoom="20.85965"
   inkscape:cx="-1.7208513"
   inkscape:cy="7.3756182"
   inkscape:window-x="0"
   inkscape:window-y="0"
   inkscape:window-maximized="1"
   inkscape:current-layer="svg12">
  <inkscape:grid
     type="xygrid"
     id="grid1642" />
</sodipodi:namedview>





     /&amp;amp;gt;
 <g
   id="g1640">
  <path
     id="path2"
     fill="#69696e"
     d="m0 5v9.5c-.00038442.276301.22369855.500384.5.5h15c.276301.000384.500384-.223699.5-.5v-9.5h-.998047v9.001953h-14.00390612v-9.001953z" />
  <path
     id="path4"
     fill="#fff"
     d="m1 5h14v9h-14z" />
  <path
     id="path6"
     fill="#0a84ff"
     d="m0 1h16v4h-16z" />
  <path
     id="path8"
     fill="#bababa"
     d="m5 5v4h-4v1h4v4h1v-4h4v4h1v-4h4v-1h-4v-4h-1v4h-4v-4z" />
  <path
     id="path10"
     fill="#0040dd"
     d="m.50195312 1.0019531c-.27630145-.000384-.50038441.223699-.49999999.5v3.4980469h.99804687 14v-1h-4v-2h4.003906v3h.998047v-3.4980469c.000384-.276301-.223699-.500384-.5-.5zm.49804688.9980469h4v2h-4zm5 0h4v2h-4z" />
</g>
<g
   id="g1633">
  <path
     id="rect1628"
     d="m 9,6 v 9 h 3 v -3 h 4 V 6 Z"
     style="opacity:1;fill:#ffffff;fill-opacity:0.78431373;stroke:none;stroke-width:1;stroke-linecap:round;stroke-linejoin:round;stroke-miterlimit:4;stroke-dasharray:none;stroke-opacity:0"
     inkscape:connector-curvature="0"
     sodipodi:nodetypes="ccccccc" />
  <g
     transform="translate(8)"
     id="g937">
    <path
       sodipodi:nodetypes="ccccc"
       inkscape:connector-curvature="0"
       style="fill:url(#a-2)"
       d="m 2,8 h 6 v 8 H 2 Z"
       id="path31" />
    <path
       sodipodi:nodetypes="ccccc"
       inkscape:connector-curvature="0"
       style="fill:#626262;stroke-width:0.77459669"
       d="m 2,7 h 6 v 9 H 2 Z"
       id="path35" />
    <path
       sodipodi:nodetypes="ccccc"
       inkscape:connector-curvature="0"
       style="fill:url(#b);stroke-width:0.7337994"
       d="m 3,8 h 4 v 7 H 3 Z"
       id="path37" />
    <path
       sodipodi:nodetypes="ccccc"
       inkscape:connector-curvature="0"
       style="fill:#dadada;stroke-width:0.91287094"
       d="m 4,9 h 2 v 2.5 H 4 Z"
       id="path39" />
    <path
       sodipodi:nodetypes="ccccc"
       inkscape:connector-curvature="0"
       style="fill:url(#c);stroke-width:0.63245553"
       d="M 4,11.5 H 6 V 14 H 4 Z"
       id="path41" />
    <g
       transform="translate(-2,-6)"
       style="fill:#a2a2a7"
       id="g51" />
  </g>
</g>
</svg>
