<?xml version="1.0" encoding="UTF-8" standalone="no"?>
<svg
   xmlns:dc="http://purl.org/dc/elements/1.1/"
   xmlns:cc="http://creativecommons.org/ns#"
   xmlns:rdf="http://www.w3.org/1999/02/22-rdf-syntax-ns#"
   xmlns:svg="http://www.w3.org/2000/svg"
   xmlns="http://www.w3.org/2000/svg"
   xmlns:xlink="http://www.w3.org/1999/xlink"
   xmlns:sodipodi="http://sodipodi.sourceforge.net/DTD/sodipodi-0.dtd"
   xmlns:inkscape="http://www.inkscape.org/namespaces/inkscape"
   viewBox="0 0 16 16"
   version="1.1"
   id="svg16"
   sodipodi:docname="sc_toggleanchortype.svg"
   inkscape:version="0.92.3 (unknown)"><metadata
   id="metadata22">
  <rdf:RDF>
    <cc:Work
       rdf:about="">
      <dc:format>image/svg+xml</dc:format>
      <dc:type
         rdf:resource="http://purl.org/dc/dcmitype/StillImage" />
      <dc:title></dc:title>
    </cc:Work>
  </rdf:RDF>
</metadata>
<defs
   id="defs20">
  <linearGradient
     gradientTransform="translate(75,-7)"
     id="a-367"
     gradientUnits="userSpaceOnUse"
     x1="14"
     x2="13.79661"
     y1="22"
     y2="2.1355929">
    <stop
       offset="0"
       stop-color="#0040dd"
       id="stop2206" />
    <stop
       offset="1"
       stop-color="#0a84ff"
       id="stop2208" />
  </linearGradient>
  <linearGradient
     inkscape:collect="always"
     xlink:href="#a-367"
     id="linearGradient1473"
     x1="7"
     y1="16"
     x2="7"
     y2="0"
     gradientUnits="userSpaceOnUse" />
</defs>
<sodipodi:namedview
   pagecolor="#ffffff"
   bordercolor="#666666"
   borderopacity="1"
   objecttolerance="10"
   gridtolerance="10"
   guidetolerance="10"
   inkscape:pageopacity="0"
   inkscape:pageshadow="2"
   inkscape:window-width="1366"
   inkscape:window-height="706"
   id="namedview18"
   showgrid="true"
   inkscape:zoom="14.75"
   inkscape:cx="-1.4915254"
   inkscape:cy="8"
   inkscape:window-x="0"
   inkscape:window-y="0"
   inkscape:window-maximized="1"
   inkscape:current-layer="svg16">
  <inkscape:grid
     type="xygrid"
     id="grid1475" />
</sodipodi:namedview>



     /&gt;
 <g
   fill="#4d82b8"
   id="g14"
   style="fill-opacity:1;fill:url(#linearGradient1473)">
  <path
     d="m7.5 0a2.5 2.5 0 0 0 -2.5 2.5 2.5 2.5 0 0 0 2.5 2.5 2.5 2.5 0 0 0 2.5-2.5 2.5 2.5 0 0 0 -2.5-2.5zm0 1a1.5 1.5 0 0 1 1.5 1.5 1.5 1.5 0 0 1 -1.5 1.5 1.5 1.5 0 0 1 -1.5-1.5 1.5 1.5 0 0 1 1.5-1.5z"
     id="path2"
     style="fill-opacity:1.0;fill:url(#linearGradient1473)" />
  <path
     d="m7 4h1v11h-1z"
     id="path4"
     style="fill-opacity:1.0;fill:url(#linearGradient1473)" />
  <path
     d="m3.4902344 10.996094a.50005.50005 0 0 0 -.2675782.08789l-2.99999995 2a .50005.50005 0 1 0  .5546875.832032l3.00000005-2a .50005.50005 0 0 0 -.2871094-.919922z"
     fill-rule="evenodd"
     id="path6"
     style="fill-opacity:1.0;fill:url(#linearGradient1473)" />
  <path
     d="m11.501953 10.996094a.50005.50005 0 0 0 -.273437.919922l3 2a .50005.50005 0 1 0  .554687-.832032l-3-2a .50005.50005 0 0 0 -.28125-.08789z"
     fill-rule="evenodd"
     id="path8"
     style="fill-opacity:1.0;fill:url(#linearGradient1473)" />
  <path
     d="m2.5683594 12.722656-.8417969.560547c1.4240904 1.7199 3.5404821 2.715807 5.7734375 2.716797 2.2335984-.002 4.350101-.999344 5.773438-2.720703l-.835938-.556641c-1.23401 1.444104-3.0379695 2.276152-4.9375 2.277344-1.8974829-.002902-3.6989618-.834793-4.9316406-2.277344z"
     id="path10"
     style="fill-opacity:1.0;fill:url(#linearGradient1473)" />
  <rect
     height="1"
     ry=".5"
     width="7"
     x="4"
     y="7"
     id="rect12"
     style="fill-opacity:1.0;fill:url(#linearGradient1473)" />
</g>
</svg>
