<?xml version="1.0" encoding="UTF-8" standalone="no"?>
<svg
   xmlns:dc="http://purl.org/dc/elements/1.1/"
   xmlns:cc="http://creativecommons.org/ns#"
   xmlns:rdf="http://www.w3.org/1999/02/22-rdf-syntax-ns#"
   xmlns:svg="http://www.w3.org/2000/svg"
   xmlns="http://www.w3.org/2000/svg"
   xmlns:sodipodi="http://sodipodi.sourceforge.net/DTD/sodipodi-0.dtd"
   xmlns:inkscape="http://www.inkscape.org/namespaces/inkscape"
   viewBox="0 0 16 16"
   version="1.1"
   id="svg14"
   sodipodi:docname="sc_trackchangesbar.svg"
   inkscape:export-filename="/home/rizmut/Documents/Rizmut/Github/libreoffice-style-sukapura/images_sukapura/cmd/sc_trackchangesbar.png"
   inkscape:export-xdpi="96"
   inkscape:export-ydpi="96"
   inkscape:version="0.92.3 (2405546, 2018-03-11)">
  <metadata
     id="metadata20">
    <rdf:RDF>
      <cc:Work
         rdf:about="">
        <dc:format>image/svg+xml</dc:format>
        <dc:type
           rdf:resource="http://purl.org/dc/dcmitype/StillImage" />
      </cc:Work>
    </rdf:RDF>
  </metadata>
  <defs
     id="defs18">
    <linearGradient
       id="a"
       gradientUnits="userSpaceOnUse"
       x1="10"
       x2="11.500001"
       y1="4"
       y2="2.4999993">
      <stop
         offset="0"
         stop-color="#fff"
         id="stop976" />
      <stop
         offset=".77967989"
         stop-color="#f1f1f1"
         id="stop978" />
      <stop
         offset="1"
         stop-color="#d5d5d5"
         id="stop980" />
    </linearGradient>
    <radialGradient
       id="b"
       cx="10.994179"
       cy="4.4284401"
       gradientTransform="matrix(1.4,4e-8,-1e-8,1.2,-4.39185,-2.314129)"
       gradientUnits="userSpaceOnUse"
       r="5">
      <stop
         offset="0"
         stop-color="#d7d7d7"
         id="stop983" />
      <stop
         offset=".49894297"
         stop-color="#f7f7f7"
         id="stop985" />
      <stop
         offset="1"
         stop-color="#fff"
         id="stop987" />
    </radialGradient>
  </defs>
  <sodipodi:namedview
     pagecolor="#ffffff"
     bordercolor="#666666"
     borderopacity="1"
     objecttolerance="10"
     gridtolerance="10"
     guidetolerance="10"
     inkscape:pageopacity="0"
     inkscape:pageshadow="2"
     inkscape:window-width="1366"
     inkscape:window-height="685"
     id="namedview16"
     showgrid="false"
     inkscape:zoom="20.85965"
     inkscape:cx="9.91906"
     inkscape:cy="9.5876888"
     inkscape:window-x="0"
     inkscape:window-y="0"
     inkscape:window-maximized="1"
     inkscape:current-layer="svg14" />
  <path
     style="fill:url(#b)"
     d="M 3 1 L 3 15 L 5.2246094 15 L 5.9179688 12.423828 A 1.4002673 1.4002673 0 0 1 6.6484375 11.533203 A 1.4002673 1.4002673 0 0 1 6.7890625 11.375 L 10.392578 7.8925781 A 1.4002673 1.4002673 0 0 1 10.705078 7.6660156 A 1.4002673 1.4002673 0 0 1 10.933594 7.3632812 L 12.1875 6.1132812 C 12.417966 5.8830955 12.702444 5.7284183 13 5.6367188 L 13 3.7050781 L 10.304688 1 L 3 1 z M 13 13.496094 L 11.505859 15 L 13 15 L 13 13.496094 z "
     id="path990" />
  <path
     style="fill:#98989d;fill-opacity:1"
     d="M 3 0 C 2.446 0 2 0.446 2 1 L 2 15 C 2 15.554 2.446 16 3 16 L 5.234375 16 A 1.4002673 1.4002673 0 0 1 5.1875 15.136719 L 5.2246094 15 L 3 15 L 3 1 L 9 1 L 9 4.5 C 9 4.777 9.223 5 9.5 5 L 13 5 L 13 5.6367188 C 13.187883 5.5788176 13.379842 5.5410156 13.570312 5.5410156 C 13.713227 5.5410158 13.857568 5.5615693 14 5.59375 L 14 4.5 L 14 3.6367188 L 10.363281 0 L 9.5 0 L 3 0 z M 10 1 L 13 4 L 10 4 L 10 1 z M 4.5 4 C 4.223 4 4 4.223 4 4.5 C 4 4.777 4.223 5 4.5 5 L 7.5 5 C 7.777 5 8 4.777 8 4.5 C 8 4.223 7.777 4 7.5 4 L 4.5 4 z M 4.5 10 C 4.223 10 4 10.223 4 10.5 C 4 10.777 4.223 11 4.5 11 L 7.1777344 11 L 7.9355469 10.267578 C 7.8514923 10.1103 7.6914669 10 7.5 10 L 4.5 10 z M 14 12.488281 L 13 13.496094 L 13 15 L 11.505859 15 L 10.564453 15.947266 C 10.543936 15.967908 10.51822 15.981311 10.496094 16 L 13 16 C 13.554 16 14 15.554 14 15 L 14 12.488281 z M 4.5 13 C 4.223 13 4 13.223 4 13.5 C 4 13.777 4.223 14 4.5 14 L 5.4941406 14 L 5.7636719 13 L 4.5 13 z "
     id="path4" />
  <rect
     fill="#d65532"
     height="1"
     ry=".5"
     width="7"
     x="4"
     y="7"
     id="rect6"
     style="fill:#ff9f0a;fill-opacity:1" />
  <g
     id="g12"
     transform="translate(-0.49557221,-0.0593083)"
     style="fill:#eac282">
    <path
       style="fill:#a2a2a7;fill-opacity:1;stroke:#848489;stroke-linecap:square;stroke-linejoin:miter;stroke-opacity:1"
       id="path827"
       d="M 8.1886082,12.694294 7.1192968,15.40678 10.042074,14.749685 Z"
       inkscape:connector-curvature="0"
       sodipodi:nodetypes="cccc" />
    <path
       d="m 11.861005,8.958496 -3.4012104,3.244273 2.1585514,2.207933 3.369611,-3.328183 z"
       id="path8"
       style="fill:#ffcc00;fill-opacity:1;stroke:#c89e00;stroke-opacity:1"
       inkscape:connector-curvature="0"
       sodipodi:nodetypes="ccccc" />
    <path
       d="m 14.065594,7 c -0.142171,0 -0.283638,0.05379 -0.392578,0.1625977 l -1.255371,1.2524416 2.135742,2.1372067 1.283203,-1.229004 c 0.21788,-0.2175952 0.21788,-0.5675602 0,-0.7851562 L 14.459637,7.1625977 C 14.350696,7.0537997 14.207766,7 14.065594,7 Z"
       id="path10"
       style="fill:#e68497;fill-opacity:1;stroke:#b6496c;stroke-opacity:1"
       inkscape:connector-curvature="0" />
    <path
       inkscape:connector-curvature="0"
       style="fill:#ffe014"
       d="M 13.326039,10.010668 12.787568,9.5183808 9.2506952,13.016949 9.7511023,13.541425 Z"
       id="path14"
       sodipodi:nodetypes="ccccc" />
  </g>
  <path
     inkscape:connector-curvature="0"
     style="fill:url(#a)"
     d="m 10,1 3,3 h -3 z"
     id="path994" />
</svg>
