<?xml version="1.0" encoding="UTF-8" standalone="no"?>
<svg
   xmlns:dc="http://purl.org/dc/elements/1.1/"
   xmlns:cc="http://creativecommons.org/ns#"
   xmlns:rdf="http://www.w3.org/1999/02/22-rdf-syntax-ns#"
   xmlns:svg="http://www.w3.org/2000/svg"
   xmlns="http://www.w3.org/2000/svg"
   xmlns:xlink="http://www.w3.org/1999/xlink"
   xmlns:sodipodi="http://sodipodi.sourceforge.net/DTD/sodipodi-0.dtd"
   xmlns:inkscape="http://www.inkscape.org/namespaces/inkscape"
   viewBox="0 0 16 16"
   version="1.1"
   id="svg22"
   sodipodi:docname="sc_toggleobjectrotatemode.svg"
   inkscape:version="0.92.3 (unknown)"
   inkscape:export-filename="/home/rizmut/Dokumen/Rizmut/Github/libreoffice-style-sukapura/images_sukapura/cmd/sc_toggleobjectrotatemode.png"
   inkscape:export-xdpi="96"
   inkscape:export-ydpi="96"
   width="16"
   height="16">
  <metadata
     id="metadata28">
    <rdf:RDF>
      <cc:Work
         rdf:about="">
        <dc:format>image/svg+xml</dc:format>
        <dc:type
           rdf:resource="http://purl.org/dc/dcmitype/StillImage" />
        <dc:title />
      </cc:Work>
    </rdf:RDF>
  </metadata>
  <defs
     id="defs26">
    <linearGradient
       gradientTransform="translate(36.035322,-5.662838)"
       id="a"
       gradientUnits="userSpaceOnUse"
       x1="7"
       x2="7"
       y1="20"
       y2="3">
      <stop
         offset="0"
         stop-color="#f5f5f5"
         id="stop1005" />
      <stop
         offset="0.25"
         stop-color="#fdfdfd"
         id="stop1007" />
      <stop
         offset="1"
         stop-color="#fff"
         id="stop1009" />
    </linearGradient>
    <linearGradient
       gradientTransform="translate(75,-7)"
       id="a-367"
       gradientUnits="userSpaceOnUse"
       x1="14"
       x2="13.79661"
       y1="22"
       y2="2.1355929">
      <stop
         offset="0"
         stop-color="#0040dd"
         id="stop2206" />
      <stop
         offset="1"
         stop-color="#0a84ff"
         id="stop2208" />
    </linearGradient>
    <linearGradient
       inkscape:collect="always"
       xlink:href="#a-367"
       id="linearGradient2417"
       x1="15"
       y1="4"
       x2="15"
       y2="0"
       gradientUnits="userSpaceOnUse" />
    <linearGradient
       inkscape:collect="always"
       xlink:href="#a-367"
       id="linearGradient2425"
       gradientUnits="userSpaceOnUse"
       x1="15"
       y1="4"
       x2="15"
       y2="0"
       gradientTransform="translate(-12)" />
    <linearGradient
       inkscape:collect="always"
       xlink:href="#a-367"
       id="linearGradient2429"
       gradientUnits="userSpaceOnUse"
       gradientTransform="translate(-12,12)"
       x1="15"
       y1="4"
       x2="15"
       y2="0" />
    <linearGradient
       inkscape:collect="always"
       xlink:href="#a-367"
       id="linearGradient2437"
       x1="12"
       y1="16"
       x2="12"
       y2="7"
       gradientUnits="userSpaceOnUse" />
    <linearGradient
       inkscape:collect="always"
       xlink:href="#a"
       id="linearGradient2462"
       x1="5"
       y1="14"
       x2="5"
       y2="2"
       gradientUnits="userSpaceOnUse" />
  </defs>
  <sodipodi:namedview
     pagecolor="#ffffff"
     bordercolor="#666666"
     borderopacity="1"
     objecttolerance="10"
     gridtolerance="10"
     guidetolerance="10"
     inkscape:pageopacity="0"
     inkscape:pageshadow="2"
     inkscape:window-width="1366"
     inkscape:window-height="706"
     id="namedview24"
     showgrid="true"
     inkscape:zoom="8"
     inkscape:cx="4.016633"
     inkscape:cy="-8.449319"
     inkscape:window-x="0"
     inkscape:window-y="0"
     inkscape:window-maximized="1"
     inkscape:current-layer="svg22">
    <inkscape:grid
       type="xygrid"
       id="grid1602" />
  </sodipodi:namedview>
  <path
     style="fill:#69696e;fill-opacity:1"
     d="m 4,1 v 1 h 8 1 V 1 H 12 Z M 1,4 V 8.0292969 12 H 2 V 7.4257812 4 Z M 14,4 V 7.5371094 15 h 1 V 8.1171875 4 Z M 4,14 v 1 H 7.4257812 7.8828125 9 14 V 14 H 9 8.4628906 7.4257812 Z"
     id="path14"
     inkscape:connector-curvature="0"
     sodipodi:nodetypes="cccccccccccccccccccccccccccccccc" />
  <path
     style="fill:url(#linearGradient2462);fill-opacity:1"
     d="M 2,2 V 14 H 14 V 2 Z"
     id="path2"
     inkscape:connector-curvature="0"
     sodipodi:nodetypes="ccccc" />
  <path
     style="fill:#ffffff;fill-opacity:0.78431374"
     d="M 11.970703 6 A 1.0001 1.0001 0 0 0 11.380859 6.2148438 L 9.3808594 7.7929688 A 1.0001 1.0001 0 0 0 9.4199219 9.3925781 L 11.419922 10.814453 A 1.0001 1.0001 0 0 0 12.925781 10.378906 C 13.528851 10.720706 14 11.247883 14 12 C 14 13.116414 13.116414 14 12 14 C 10.883586 14 10 13.116414 10 12 A 1.0001 1.0001 0 0 0 9 11 L 8 11 A 1.0001 1.0001 0 0 0 7 12 C 7 12.710984 7.1551192 13.386045 7.4257812 14 C 7.5845198 14.360073 7.7939841 14.689824 8.0292969 15 L 9 15 L 12 15 L 14 15 L 14 14.234375 L 15 14.234375 L 15 13 L 15 8.1171875 C 14.690827 7.8889248 14.357697 7.6931342 14 7.5371094 C 13.679978 7.3975183 13.349262 7.277308 13 7.203125 L 13 7 A 1.0001 1.0001 0 0 0 11.970703 6 z "
     id="path2480" />
  <path
     inkscape:connector-curvature="0"
     style="fill:#ffffff"
     d="M 1,1 H 3 V 3 H 1 Z"
     id="path8" />
  <path
     inkscape:connector-curvature="0"
     style="fill:#ffffff"
     d="m 1,13 h 2 v 2 H 1 Z"
     id="path10" />
  <path
     inkscape:connector-curvature="0"
     style="fill:url(#linearGradient2417);fill-opacity:1"
     d="m 13,0 c -0.554,0 -1,0.446 -1,1 v 2 c 0,0.554 0.446,1 1,1 h 2 c 0.554,0 1,-0.446 1,-1 V 1 C 16,0.446 15.554,0 15,0 Z m 0,1 h 2 v 2 h -2 z"
     id="path22" />
  <path
     inkscape:connector-curvature="0"
     style="fill:#ffffff"
     d="m 13,1 h 2 v 2 h -2 z"
     id="path24" />
  <path
     id="path2423"
     d="M 1,0 C 0.446,0 0,0.446 0,1 V 3 C 0,3.554 0.446,4 1,4 H 3 C 3.554,4 4,3.554 4,3 V 1 C 4,0.446 3.554,0 3,0 Z M 1,1 H 3 V 3 H 1 Z"
     style="fill:url(#linearGradient2425);fill-opacity:1"
     inkscape:connector-curvature="0" />
  <path
     inkscape:connector-curvature="0"
     style="fill:url(#linearGradient2429);fill-opacity:1"
     d="m 1,12 c -0.554,0 -1,0.446 -1,1 v 2 c 0,0.554 0.446,1 1,1 h 2 c 0.554,0 1,-0.446 1,-1 V 13 C 4,12.446 3.554,12 3,12 Z m 0,1 h 2 v 2 H 1 Z"
     id="path2427" />
  <path
     inkscape:connector-curvature="0"
     style="fill:url(#linearGradient2437);fill-opacity:1"
     d="M 12,7 10,8.578125 12,10 V 9 a 3,3 0 0 1 3,3 3,3 0 0 1 -3,3 3,3 0 0 1 -3,-3 H 8 a 4,4 0 0 0 4,4 4,4 0 0 0 4,-4 4,4 0 0 0 -4,-4 z"
     id="path12-7" />
</svg>
