<?xml version="1.0" encoding="UTF-8" standalone="no"?>
<svg
   xmlns:dc="http://purl.org/dc/elements/1.1/"
   xmlns:cc="http://creativecommons.org/ns#"
   xmlns:rdf="http://www.w3.org/1999/02/22-rdf-syntax-ns#"
   xmlns:svg="http://www.w3.org/2000/svg"
   xmlns="http://www.w3.org/2000/svg"
   xmlns:sodipodi="http://sodipodi.sourceforge.net/DTD/sodipodi-0.dtd"
   xmlns:inkscape="http://www.inkscape.org/namespaces/inkscape"
   viewBox="0 0 16 16"
   version="1.1"
   id="svg6"
   sodipodi:docname="sc_unsetcellsreadonly.svg"
   inkscape:version="0.92.3 (unknown)"
   inkscape:export-filename="/home/rizmut/Dokumen/Rizmut/Github/libreoffice-style-sukapura/images_sukapura/cmd/sc_unsetcellsreadonly.png"
   inkscape:export-xdpi="96"
   inkscape:export-ydpi="96"><metadata
   id="metadata12">
  <rdf:RDF>
    <cc:Work
       rdf:about="">
      <dc:format>image/svg+xml</dc:format>
      <dc:type
         rdf:resource="http://purl.org/dc/dcmitype/StillImage" />
      <dc:title></dc:title>
    </cc:Work>
  </rdf:RDF>
</metadata>
<defs
   id="defs10" />
<sodipodi:namedview
   pagecolor="#ffffff"
   bordercolor="#666666"
   borderopacity="1"
   objecttolerance="10"
   gridtolerance="10"
   guidetolerance="10"
   inkscape:pageopacity="0"
   inkscape:pageshadow="2"
   inkscape:window-width="1366"
   inkscape:window-height="699"
   id="namedview8"
   showgrid="true"
   inkscape:snap-smooth-nodes="false"
   inkscape:zoom="41.7193"
   inkscape:cx="13.875541"
   inkscape:cy="6.7999269"
   inkscape:window-x="0"
   inkscape:window-y="0"
   inkscape:window-maximized="1"
   inkscape:current-layer="g831">
  <inkscape:grid
     type="xygrid"
     id="grid822" />
</sodipodi:namedview>



     /&amp;gt;
 <g
   id="g826"
   transform="translate(-1)">
  <path
     style="fill:#ffcc00;fill-opacity:1"
     id="path4"
     d="m 2,9 h 12 v 6 H 2 Z"
     inkscape:connector-curvature="0" />
  <path
     id="rect824"
     d="M 2,8 C 1.446,8 1,8.446 1,9 v 6 c 0,0.554 0.446,1 1,1 h 12 c 0.554,0 1,-0.446 1,-1 V 9 C 15,8.446 14.554,8 14,8 H 12 11 5 4 Z m 0,1 h 12 v 6 H 2 Z"
     style="opacity:1;fill:#a48200;fill-opacity:1;stroke:none;stroke-width:1;stroke-linecap:round;stroke-linejoin:round;stroke-miterlimit:4;stroke-dasharray:none;stroke-opacity:0"
     inkscape:connector-curvature="0" />
  <rect
     y="11"
     x="2"
     height="1"
     width="12"
     id="rect832"
     style="opacity:1;fill:#a05a00;fill-opacity:1;stroke:none;stroke-width:0.40824828;stroke-linecap:round;stroke-linejoin:round;stroke-miterlimit:4;stroke-dasharray:none;stroke-opacity:0" />
  <rect
     style="opacity:1;fill:#a05a00;fill-opacity:1;stroke:none;stroke-width:0.40824828;stroke-linecap:round;stroke-linejoin:round;stroke-miterlimit:4;stroke-dasharray:none;stroke-opacity:0"
     id="rect834"
     width="12"
     height="1"
     x="2"
     y="13" />
</g>
<g
   id="g831"
   transform="translate(4)">
  <path
     sodipodi:nodetypes="ssccsssccss"
     inkscape:connector-curvature="0"
     id="path841"
     d="M 8,1 C 6.3431458,1 5,2.3431458 5,4 V 8 H 6 V 4 C 6,2.8954305 6.8954305,2 8,2 c 1.1045695,0 2,0.8954305 2,2 v 4 h 1 V 4 C 11,2.3431458 9.6568542,1 8,1 Z"
     style="fill:#ebebeb;fill-opacity:1" />
  <path
     id="path2"
     d="M 8,0 A 4,4 0 0 0 4,4 V 8 H 5 V 4 a 3,3 0 0 1 3,-3 3,3 0 0 1 3,3 v 4 h 1 V 4 A 4,4 0 0 0 8,0 Z"
     style="fill:#69696e;fill-opacity:1"
     inkscape:connector-curvature="0" />
  <path
     sodipodi:nodetypes="ssccsssccss"
     inkscape:connector-curvature="0"
     id="path836"
     d="M 8,2 C 6.8954305,2 6,2.8954305 6,4 V 8 H 7 V 4 C 7,3.4477153 7.4477152,3 8,3 8.5522848,3 9,3.4477153 9,4 v 4 h 1 V 4 C 10,2.8954305 9.1045695,2 8,2 Z"
     style="fill:#69696e;fill-opacity:1;stroke-width:0.5" />
  <rect
     style="opacity:1;fill:#69696e;fill-opacity:1;stroke:none;stroke-width:1;stroke-linecap:round;stroke-linejoin:round;stroke-miterlimit:4;stroke-dasharray:none;stroke-opacity:0"
     id="rect835"
     width="3"
     height="1"
     x="9"
     y="7" />
</g>
</svg>
