<svg viewBox="0 0 16 16" xmlns="http://www.w3.org/2000/svg" xmlns:xlink="http://www.w3.org/1999/xlink"><linearGradient id="a" gradientUnits="userSpaceOnUse" x1="3.422874" x2="7.422874" y1="-3.422874" y2="9.577126"><stop offset="0" stop-color="#fff"/><stop offset="1" stop-color="#fff" stop-opacity="0"/></linearGradient>



     /&amp;amp;gt;
 <g fill="#0a84ff" transform="matrix(.70710678 -.70710678 .70710678 .70710678 -4.242641 9.171573)"><path d="m6.2871094-.09570312a.49979081.49979081 0 0 0 -.3378906.14648437l-4.5957032 4.59570315a.49979081.49979081 0 0 0 0 .7070312l4.5957032 4.5957032a.49979081.49979081 0 0 0 .8535156-.3535157v-9.19140622a.49979081.49979081 0 0 0 -.515625-.5z" fill="#0a84ff"/><path d="m2 4v2h8a4 4 0 0 1 4 4 4 4 0 0 1 -4 4c-.554 0-1 .446-1 1s.446 1 1 1a6 6 0 0 0 6-6 6 6 0 0 0 -6-6z" fill="#0a84ff"/><path d="m9.8125 3.171875a6 6 0 0 0 -4.15625 1.7578125l-2.2597656 2.2597656-2.54296878-2.5429687a.49979081.49979081 0 0 0 -.71875.0117187.49979081.49979081 0 0 0 -.13476562.3417969v5.585938.914062a.49979081.49979081 0 0 0 .1640625.369141c4.6321154-3.8653125 7.6213852-9.3066738 13.1152345-7.6484379a6 6 0 0 0 -3.466797-1.0488281z" fill="url(#a)" transform="matrix(.70710678 .70710678 -.70710678 .70710678 9.485281 -3.485281)"/></g></svg>