<svg viewBox="0 0 16 16" xmlns="http://www.w3.org/2000/svg">



     /&amp;amp;gt;
 <g fill="#69696e"><path d="m12.983245-.00000046.018912 7.40444806c-.0063 1.2986063-.416088 2.3608157-1.229265 3.1866284-.8069.825813-1.9037812 1.289151-3.2906425 1.390014l-.4822495.01891c-1.5066355 0-2.7075312-.406602-3.6026871-1.219807-.8951559-.8132047-1.3490377-1.9321492-1.3616456-3.3568337l-.0189115-7.42335976h1.7966157l.0189115 7.36662456c.00256.9960153.2742203 1.7714002.8226608 2.3261449.5484406.54844 1.330126.82266 2.3450562.82266 1.0275381 0 1.8123756-.27422 2.354513-.82266.54844-.5484407.825213-1.3206736.822659-2.316689l-.018911-7.37608046z"/><rect height="1" ry=".5" width="14" x="1" y="15"/><rect height="1" ry=".5" width="14" x="1" y="13"/></g></svg>