<?xml version="1.0" encoding="UTF-8" standalone="no"?>
<svg
   xmlns:dc="http://purl.org/dc/elements/1.1/"
   xmlns:cc="http://creativecommons.org/ns#"
   xmlns:rdf="http://www.w3.org/1999/02/22-rdf-syntax-ns#"
   xmlns:svg="http://www.w3.org/2000/svg"
   xmlns="http://www.w3.org/2000/svg"
   xmlns:xlink="http://www.w3.org/1999/xlink"
   xmlns:sodipodi="http://sodipodi.sourceforge.net/DTD/sodipodi-0.dtd"
   xmlns:inkscape="http://www.inkscape.org/namespaces/inkscape"
   viewBox="0 0 16 16"
   version="1.1"
   id="svg15"
   sodipodi:docname="sc_undo.svg"
   inkscape:version="0.92.3 (unknown)"><metadata
   id="metadata21">
  <rdf:RDF>
    <cc:Work
       rdf:about="">
      <dc:format>image/svg+xml</dc:format>
      <dc:type
         rdf:resource="http://purl.org/dc/dcmitype/StillImage" />
    </cc:Work>
  </rdf:RDF>
</metadata>
<defs
   id="defs19">
  <linearGradient
     gradientTransform="translate(75,-7)"
     id="a-367"
     gradientUnits="userSpaceOnUse"
     x1="14"
     x2="13.79661"
     y1="22"
     y2="2.1355929">
    <stop
       offset="0"
       stop-color="#0040dd"
       id="stop2206" />
    <stop
       offset="1"
       stop-color="#0a84ff"
       id="stop2208" />
  </linearGradient>
  <linearGradient
     inkscape:collect="always"
     xlink:href="#a-367"
     id="linearGradient855"
     x1="3.6039922"
     y1="9.8696003"
     x2="10.82254"
     y2="2.4869266"
     gradientUnits="userSpaceOnUse" />
</defs>
<sodipodi:namedview
   pagecolor="#ffffff"
   bordercolor="#666666"
   borderopacity="1"
   objecttolerance="10"
   gridtolerance="10"
   guidetolerance="10"
   inkscape:pageopacity="0"
   inkscape:pageshadow="2"
   inkscape:window-width="1366"
   inkscape:window-height="697"
   id="namedview17"
   showgrid="false"
   inkscape:zoom="14.75"
   inkscape:cx="-1.7966102"
   inkscape:cy="8"
   inkscape:window-x="0"
   inkscape:window-y="0"
   inkscape:window-maximized="1"
   inkscape:current-layer="g13" />
<linearGradient
   id="a"
   gradientUnits="userSpaceOnUse"
   x1="3.422874"
   x2="7.422874"
   y1="-3.422874"
   y2="9.577126">
  <stop
     offset="0"
     stop-color="#fff"
     id="stop2" />
  <stop
     offset="1"
     stop-color="#fff"
     stop-opacity="0"
     id="stop4" />
</linearGradient>




     /&amp;amp;gt;
 <g
   fill="#0a84ff"
   transform="matrix(.70710678 -.70710678 .70710678 .70710678 -4.242641 9.171573)"
   id="g13">
  <g
     id="g847"
     style="fill-opacity:1;fill:url(#linearGradient855)">
    <path
       id="path7"
       fill="#0a84ff"
       d="m6.2871094-.09570312a.49979081.49979081 0 0 0 -.3378906.14648437l-4.5957032 4.59570315a.49979081.49979081 0 0 0 0 .7070312l4.5957032 4.5957032a.49979081.49979081 0 0 0 .8535156-.3535157v-9.19140622a.49979081.49979081 0 0 0 -.515625-.5z"
       style="fill-opacity:1.0;fill:url(#linearGradient855)" />
    <path
       id="path9"
       fill="#0a84ff"
       d="m2 4v2h8a4 4 0 0 1 4 4 4 4 0 0 1 -4 4c-.554 0-1 .446-1 1s.446 1 1 1a6 6 0 0 0 6-6 6 6 0 0 0 -6-6z"
       style="fill-opacity:1.0;fill:url(#linearGradient855)" />
  </g>
</g>
</svg>
