<svg height="16" viewBox="0 0 16 16" width="16" xmlns="http://www.w3.org/2000/svg" xmlns:xlink="http://www.w3.org/1999/xlink"><linearGradient id="a" gradientUnits="userSpaceOnUse" x1="-23.118644" x2="-23.118644" y1="19.61017" y2="9.61017"><stop offset="0" stop-color="#2a9240"/><stop offset="1" stop-color="#32d74b"/></linearGradient><g fill="#69696e"><rect height="1" ry=".5" width="14" x="1" y="1"/><rect height="1" ry=".47603" width="3" x="1" y="10"/><rect height="1" ry=".5" width="14" x="1" y="14"/><rect height="1" ry=".344197" width="3" x="1" y="7"/><rect height="1" ry=".464045" width="3" x="1" y="4"/><rect height="1" ry=".47603" width="3" x="12" y="10"/><rect height="1" ry=".344197" width="3" x="12" y="7"/><rect height="1" ry=".464045" width="3" x="12" y="4"/></g><rect fill="url(#a)" height="10" ry="1" width="6" x="5" y="3"/><g fill="#ebebeb" fill-opacity=".992157"><rect height="1" ry=".5" width="14" x="1" y="2"/><rect height="1" ry=".47603" width="3" x="1" y="11"/><rect height="1" ry=".5" width="14" x="1" y="15"/><rect height="1" ry=".464045" width="3" x="1" y="5"/><rect height="1" ry=".344197" width="3" x="1" y="8"/><rect height="1" ry=".47603" width="3" x="12" y="11"/><rect height="1" ry=".464045" width="3" x="12" y="5"/><rect height="1" ry=".344197" width="3" x="12" y="8"/></g></svg>