<svg viewBox="0 0 16 16" xmlns="http://www.w3.org/2000/svg" xmlns:xlink="http://www.w3.org/1999/xlink"><linearGradient id="a" gradientUnits="userSpaceOnUse" x1="83" x2="83" y1="9" y2="1"><stop offset="0" stop-color="#0040dd"/><stop offset="1" stop-color="#0a84ff"/></linearGradient>


     /&amp;gt;
 <rect fill="url(#a)" height="8" ry="1" width="16" y="8"/><g fill="#69696e" stroke-width=".281322"><path d="m6.0732906 5.9121647h-3.3516919l-.752757 2.0879393h-1.08792626l3.05498476-8.00010399h.9230889l3.0604793 8.00010399h-1.0824316zm-3.0330064-.8681431h2.7198155l-1.3626551-3.7418069z"/><path d="m8.9964053 8.000104v-8.00010399h2.6154187q1.302215 0 1.956069.53846854.659349.53846855.659349 1.59342725 0 .5604469-.318685.9945185-.318685.428577-.868143.6648438.64836.181321 1.021991.6923166.379126.5055011.379126 1.208807 0 1.076937-.697811 1.6923296-.697812.6153927-1.972553.6153927zm1.0549587-3.7418069v2.8791583h1.741781q.736273 0 1.159356-.3791258.428577-.3846204.428577-1.0549588 0-1.4450737-1.571449-1.4450737zm0-.8461648h1.593427q.692317 0 1.10441-.3461584.417588-.3461583.417588-.9395726 0-.6593493-.38462-.9560564-.384621-.30220174-1.170345-.30220174h-1.56046z"/></g><g fill="#fff"><path d="m2.4805826 14h1.2475728v-3.168421c0-.138346.00485-.282707.014563-.433083l-.8398058.672181c-.055016.0421-.1100322.06767-.1650486.07669-.055016.009-.1067959.009-.1553397 0-.048543-.009-.092233-.02406-.1310679-.04511-.035599-.02406-.063107-.04812-.082524-.07218l-.3689324-.469175 1.9368932-1.560902h1.0631068v5h1v1h-3.5194174z"/><path d="m12.089087 9q.409799 0 .743875.125093.33853.120625.57461.344006.240535.223381.36971.540581.133631.312732.133631.692479 0 .326136-.09354.607595-.09354.276992-.249443.531646-.155902.250186-.365256.491437-.209355.236784-.44098.478035l-1.256125 1.317944q.200445-.06254.400891-.09382.200445-.03574.374165-.03574h1.340757q.169265 0 .271714.09829.106904.098283.106904.259116v.643336h-4v-.361876q0-.102755.04009-.218913.04454-.120625.151448-.22338l1.719376-1.773642q.218263-.227848.383074-.433358.169265-.20551.280623-.406552.115813-.20551.17372-.411021.05791-.209977.05791-.437825 0-.411021-.2049-.620998-.2049-.209978-.579065-.209978-.160356 0-.293986.04915-.133631.04915-.240535.134028-.106904.08488-.182628.201043-.07572.116158-.115813.250186-.07127.205509-.195991.268056-.120267.06254-.334075.0268l-.57016-.09828q.06682-.433358.240534-.755027.17372-.326134.432072-.54058.262806-.218913.601336-.326136.338529-.111695.726057-.111695z"/></g></svg>