<?xml version="1.0" encoding="UTF-8" standalone="no"?>
<svg
   xmlns:dc="http://purl.org/dc/elements/1.1/"
   xmlns:cc="http://creativecommons.org/ns#"
   xmlns:rdf="http://www.w3.org/1999/02/22-rdf-syntax-ns#"
   xmlns:svg="http://www.w3.org/2000/svg"
   xmlns="http://www.w3.org/2000/svg"
   xmlns:sodipodi="http://sodipodi.sourceforge.net/DTD/sodipodi-0.dtd"
   xmlns:inkscape="http://www.inkscape.org/namespaces/inkscape"
   viewBox="0 0 16 16"
   version="1.1"
   id="svg21"
   sodipodi:docname="sc_wordcountdialog.svg"
   inkscape:version="0.92.3 (2405546, 2018-03-11)"><metadata
   id="metadata27">
  <rdf:RDF>
    <cc:Work
       rdf:about="">
      <dc:format>image/svg+xml</dc:format>
      <dc:type
         rdf:resource="http://purl.org/dc/dcmitype/StillImage" />
    </cc:Work>
  </rdf:RDF>
</metadata>
<defs
   id="defs25" />
<sodipodi:namedview
   pagecolor="#ffffff"
   bordercolor="#666666"
   borderopacity="1"
   objecttolerance="10"
   gridtolerance="10"
   guidetolerance="10"
   inkscape:pageopacity="0"
   inkscape:pageshadow="2"
   inkscape:window-width="1366"
   inkscape:window-height="716"
   id="namedview23"
   showgrid="true"
   inkscape:zoom="20.85965"
   inkscape:cx="1.478278"
   inkscape:cy="9.5232324"
   inkscape:window-x="-8"
   inkscape:window-y="-8"
   inkscape:window-maximized="1"
   inkscape:current-layer="svg21">
  <inkscape:grid
     type="xygrid"
     id="grid1411" />
</sodipodi:namedview>
<linearGradient
   id="a"
   gradientUnits="userSpaceOnUse"
   x1="83"
   x2="83"
   y1="9"
   y2="1">
  <stop
     offset="0"
     stop-color="#0040dd"
     id="stop2" />
  <stop
     offset="1"
     stop-color="#0a84ff"
     id="stop4" />
</linearGradient>



     /&amp;gt;
 <g
   aria-label="AB"
   style="font-style:normal;font-weight:normal;font-size:11.25247669px;line-height:1.25;font-family:sans-serif;letter-spacing:0px;word-spacing:0px;fill:#4b4b4f;fill-opacity:1;stroke:none;stroke-width:0.28131196"
   id="text832"
   transform="translate(0.9617316)">
  <path
     inkscape:connector-curvature="0"
     d="M 5.120756,6.1317214 H 1.9889632 L 1.3516159,7.9998083 H 0 L 2.9394898,6.6310167e-7 H 4.2031956 L 7.1097192,7.9998083 H 5.7526089 Z M 2.3735693,5.0163636 H 4.7416442 L 3.5823314,1.5988633 h -0.032966 z"
     style="font-style:normal;font-variant:normal;font-weight:500;font-stretch:normal;font-family:Roboto;-inkscape-font-specification:'Roboto Medium';fill:#4b4b4f;fill-opacity:1;stroke-width:0.28131196"
     id="path841" />
  <path
     inkscape:connector-curvature="0"
     d="M 8.0382684,7.9998083 V 6.6310167e-7 h 2.6592766 q 1.329638,0 2.076873,0.54943733689833 0.747235,0.543943 0.747235,1.6318289 0,0.543943 -0.313179,0.9725041 -0.31318,0.4285611 -0.868111,0.6373473 0.714268,0.1593368 1.098874,0.6867967 0.384607,0.5274598 0.384607,1.2252452 0,1.1263466 -0.736246,1.7142445 -0.736246,0.5824036 -2.032919,0.5824036 z M 9.3734011,4.3625331 v 2.5713668 h 1.6812779 q 0.692291,0 1.065909,-0.3131793 0.373617,-0.3186737 0.373617,-0.9175604 0,-0.6373473 -0.313179,-0.9889872 -0.313179,-0.3516399 -0.977999,-0.3516399 z m 0,-0.9944816 h 1.4724919 q 0.620864,0 0.977999,-0.2912017 0.362628,-0.2966962 0.362628,-0.8351448 0,-0.5933923 -0.379111,-0.8790997 Q 11.428297,1.0714035 10.697545,1.0714035 H 9.3734011 Z"
     style="font-style:normal;font-variant:normal;font-weight:500;font-stretch:normal;font-family:Roboto;-inkscape-font-specification:'Roboto Medium';fill:#4b4b4f;fill-opacity:1;stroke-width:0.28131196"
     id="path843" />
</g>
<rect
   fill="url(#a)"
   height="8"
   ry="1"
   width="16"
   y="8"
   id="rect7" />
<g
   fill="#fff"
   id="g19">
  <path
     d="m2.4805826 14h1.2475728v-3.168421c0-.138346.00485-.282707.014563-.433083l-.8398058.672181c-.055016.0421-.1100322.06767-.1650486.07669-.055016.009-.1067959.009-.1553397 0-.048543-.009-.092233-.02406-.1310679-.04511-.035599-.02406-.063107-.04812-.082524-.07218l-.3689324-.469175 1.9368932-1.560902h1.0631068v5h1v1h-3.5194174z"
     id="path15" />
  <path
     d="m12.089087 9q.409799 0 .743875.125093.33853.120625.57461.344006.240535.223381.36971.540581.133631.312732.133631.692479 0 .326136-.09354.607595-.09354.276992-.249443.531646-.155902.250186-.365256.491437-.209355.236784-.44098.478035l-1.256125 1.317944q.200445-.06254.400891-.09382.200445-.03574.374165-.03574h1.340757q.169265 0 .271714.09829.106904.098283.106904.259116v.643336h-4v-.361876q0-.102755.04009-.218913.04454-.120625.151448-.22338l1.719376-1.773642q.218263-.227848.383074-.433358.169265-.20551.280623-.406552.115813-.20551.17372-.411021.05791-.209977.05791-.437825 0-.411021-.2049-.620998-.2049-.209978-.579065-.209978-.160356 0-.293986.04915-.133631.04915-.240535.134028-.106904.08488-.182628.201043-.07572.116158-.115813.250186-.07127.205509-.195991.268056-.120267.06254-.334075.0268l-.57016-.09828q.06682-.433358.240534-.755027.17372-.326134.432072-.54058.262806-.218913.601336-.326136.338529-.111695.726057-.111695z"
     id="path17" />
</g>
</svg>
