<svg viewBox="0 0 16 16" xmlns="http://www.w3.org/2000/svg" xmlns:xlink="http://www.w3.org/1999/xlink"><linearGradient id="a" gradientUnits="userSpaceOnUse" x1="83" x2="83" y1="9" y2="1"><stop offset="0" stop-color="#0040dd"/><stop offset="1" stop-color="#0a84ff"/></linearGradient>



     /&amp;amp;gt;
 <g fill="#4b4b4f" stroke-width=".281312" transform="translate(.961732)"><path d="m5.120756 6.1317214h-3.1317928l-.6373473 1.8680869h-1.3516159l2.9394898-7.99980764h1.2637058l2.9065236 7.99980764h-1.3571103zm-2.7471867-1.1153578h2.3680749l-1.1593128-3.4175003h-.032966z"/><path d="m8.0382684 7.9998083v-7.99980764h2.6592766q1.329638 0 2.076873.54943734.747235.543943.747235 1.6318289 0 .543943-.313179.9725041-.31318.4285611-.868111.6373473.714268.1593368 1.098874.6867967.384607.5274598.384607 1.2252452 0 1.1263466-.736246 1.7142445-.736246.5824036-2.032919.5824036zm1.3351327-3.6372752v2.5713668h1.6812779q.692291 0 1.065909-.3131793.373617-.3186737.373617-.9175604 0-.6373473-.313179-.9889872-.313179-.3516399-.977999-.3516399zm0-.9944816h1.4724919q.620864 0 .977999-.2912017.362628-.2966962.362628-.8351448 0-.5933923-.379111-.8790997-.379112-.2912018-1.109864-.2912018h-1.3241439z"/></g><rect fill="url(#a)" height="8" ry="1" width="16" y="8"/><g fill="#fff"><path d="m2.4805826 14h1.2475728v-3.168421c0-.138346.00485-.282707.014563-.433083l-.8398058.672181c-.055016.0421-.1100322.06767-.1650486.07669-.055016.009-.1067959.009-.1553397 0-.048543-.009-.092233-.02406-.1310679-.04511-.035599-.02406-.063107-.04812-.082524-.07218l-.3689324-.469175 1.9368932-1.560902h1.0631068v5h1v1h-3.5194174z"/><path d="m12.089087 9q.409799 0 .743875.125093.33853.120625.57461.344006.240535.223381.36971.540581.133631.312732.133631.692479 0 .326136-.09354.607595-.09354.276992-.249443.531646-.155902.250186-.365256.491437-.209355.236784-.44098.478035l-1.256125 1.317944q.200445-.06254.400891-.09382.200445-.03574.374165-.03574h1.340757q.169265 0 .271714.09829.106904.098283.106904.259116v.643336h-4v-.361876q0-.102755.04009-.218913.04454-.120625.151448-.22338l1.719376-1.773642q.218263-.227848.383074-.433358.169265-.20551.280623-.406552.115813-.20551.17372-.411021.05791-.209977.05791-.437825 0-.411021-.2049-.620998-.2049-.209978-.579065-.209978-.160356 0-.293986.04915-.133631.04915-.240535.134028-.106904.08488-.182628.201043-.07572.116158-.115813.250186-.07127.205509-.195991.268056-.120267.06254-.334075.0268l-.57016-.09828q.06682-.433358.240534-.755027.17372-.326134.432072-.54058.262806-.218913.601336-.326136.338529-.111695.726057-.111695z"/></g></svg>