<?xml version="1.0" encoding="UTF-8" standalone="no"?>
<svg
   xmlns:dc="http://purl.org/dc/elements/1.1/"
   xmlns:cc="http://creativecommons.org/ns#"
   xmlns:rdf="http://www.w3.org/1999/02/22-rdf-syntax-ns#"
   xmlns:svg="http://www.w3.org/2000/svg"
   xmlns="http://www.w3.org/2000/svg"
   xmlns:xlink="http://www.w3.org/1999/xlink"
   xmlns:sodipodi="http://sodipodi.sourceforge.net/DTD/sodipodi-0.dtd"
   xmlns:inkscape="http://www.inkscape.org/namespaces/inkscape"
   viewBox="0 0 16 16"
   version="1.1"
   id="svg4"
   sodipodi:docname="sc_window3d.svg"
   inkscape:version="0.92.4 (unknown)"><metadata
   id="metadata10">
  <rdf:RDF>
    <cc:Work
       rdf:about="">
      <dc:format>image/svg+xml</dc:format>
      <dc:type
         rdf:resource="http://purl.org/dc/dcmitype/StillImage" />
    </cc:Work>
  </rdf:RDF>
</metadata>
<defs
   id="defs8">
  <linearGradient
     id="a"
     gradientUnits="userSpaceOnUse"
     x1="91"
     x2="91"
     y1="15"
     y2="-5">
    <stop
       offset="0"
       stop-color="#0040dd"
       id="stop2" />
    <stop
       offset="1"
       stop-color="#0a84ff"
       id="stop4" />
  </linearGradient>
  <linearGradient
     inkscape:collect="always"
     xlink:href="#a"
     id="linearGradient873"
     x1="7"
     y1="16"
     x2="7"
     y2="0"
     gradientUnits="userSpaceOnUse" />
</defs>
<sodipodi:namedview
   pagecolor="#ffffff"
   bordercolor="#666666"
   borderopacity="1"
   objecttolerance="10"
   gridtolerance="10"
   guidetolerance="10"
   inkscape:pageopacity="0"
   inkscape:pageshadow="2"
   inkscape:window-width="1360"
   inkscape:window-height="714"
   id="namedview6"
   showgrid="true"
   inkscape:zoom="7.375"
   inkscape:cx="1.8107516"
   inkscape:cy="4.6814146"
   inkscape:window-x="0"
   inkscape:window-y="28"
   inkscape:window-maximized="1"
   inkscape:current-layer="svg4">
  <inkscape:grid
     type="xygrid"
     id="grid875" />
</sodipodi:namedview>
/&amp;gt;<path
   d="m4 0v.02148438l-3.625 3.62500002-.35351562.3535156h-.02148438v12h1 11l.353516-.353516 3.646484-3.646484v-.216797-1.197265-9.585938-.29296875-.70703125h-11.9785156zm1 1h9.292969l-3 3h-.292969-6zm-1 .4355469v2.5644531h-.4140625-.171875-1.9785156zm11 .2714843v9.2929688h-3v-6.2929688l.353516-.3535156zm-14 3.2929688h1.4140625.59375.9921875v6 .5l-3 3zm4 0h6v6h-6zm0 7h6v3h-9zm7 0h2.585938l-2.585938 2.585938z"
   fill="#0040dd"
   id="path2"
   style="fill-opacity:1;fill:url(#linearGradient873)" />
</svg>
