<svg viewBox="0 0 16 16" xmlns="http://www.w3.org/2000/svg" xmlns:xlink="http://www.w3.org/1999/xlink"><linearGradient id="a" gradientUnits="userSpaceOnUse" x1="83" x2="83" y1="9" y2="1"><stop offset="0" stop-color="#0040dd"/><stop offset="1" stop-color="#0a84ff"/></linearGradient>





     /&amp;amp;amp;gt;
 <g fill="#4b4b4f" stroke-width=".281312" transform="translate(.961732)"><path d="m8.0382684 7.9998083v-7.99980764h2.6592766c.886425 0 1.578716.18314578 2.076873.54943734.498157.36262867.76385.7253047.76385 1.450562 0 .3626287-.121008.5054989-.329794.7912063-.208787.2857074-.498157.4981565-.868111.6373473.476179.1062245.84247.3351567 1.098874.6867967.256405.3516398.401556.9194594.401556 1.3846497 0 .7508977-.262364 1.5254728-.753195 1.9174047-.490831.3882691-1.16847.5824036-2.032919.5824036zm.9999996-4.0053267v2.9339315l2.016411.00549c.461526.00126.81683-.1043931 1.065909-.3131793.249078-.2124523.390566-.721466.390566-1.1207238 0-.4248982-.121342-.9139651-.330128-1.1483917s-.534787-.3505166-.977999-.3516399zm0-.9944816 1.807625.00549c.413907.00126.739909-.097067.977999-.2912017.241752-.1977975.379243-.2948813.379243-.653847 0-.3955949-.142985-.5073612-.395726-.6978328-.252741-.1941377-.622696-.291205-1.109864-.291205l-1.659277-.00549z"/><path d="m2.9386586 0-2.9394531 8h1.3515625l.6875-2h3.0371094l.6777344 2h1.3574218l-2.9082031-8zm.6113282 1.5996094h.033203l1.1523438 3.4003906h-2.3535156z"/></g><rect fill="url(#a)" height="8" ry="1" width="16" y="8"/><g fill="#fff"><path d="m2.4805826 14h1.2475728v-3.168421c0-.138346.00485-.282707.014563-.433083l-.8398058.672181c-.055016.0421-.1100322.06767-.1650486.07669-.055016.009-.1067959.009-.1553397 0-.048543-.009-.092233-.02406-.1310679-.04511-.035599-.02406-.063107-.04812-.082524-.07218l-.3689324-.469175 1.9368932-1.560902h1.0631068v5h1v1h-3.5194174z"/><path d="m12.089087 9q.409799 0 .743875.125093.33853.120625.57461.344006.240535.223381.36971.540581.133631.312732.133631.692479 0 .326136-.09354.607595-.09354.276992-.249443.531646-.155902.250186-.365256.491437-.209355.236784-.44098.478035l-1.256125 1.317944q.200445-.06254.400891-.09382.200445-.03574.374165-.03574h1.340757q.169265 0 .271714.09829.106904.098283.106904.259116v.643336h-4v-.361876q0-.102755.04009-.218913.04454-.120625.151448-.22338l1.719376-1.773642q.218263-.227848.383074-.433358.169265-.20551.280623-.406552.115813-.20551.17372-.411021.05791-.209977.05791-.437825 0-.411021-.2049-.620998-.2049-.209978-.579065-.209978-.160356 0-.293986.04915-.133631.04915-.240535.134028-.106904.08488-.182628.201043-.07572.116158-.115813.250186-.07127.205509-.195991.268056-.120267.06254-.334075.0268l-.57016-.09828q.06682-.433358.240534-.755027.17372-.326134.432072-.54058.262806-.218913.601336-.326136.338529-.111695.726057-.111695z"/></g></svg>