<svg height="16" viewBox="0 0 16 16" width="16" xmlns="http://www.w3.org/2000/svg" xmlns:xlink="http://www.w3.org/1999/xlink"><linearGradient id="a" gradientUnits="userSpaceOnUse" x1="83" x2="83" y1="6" y2="-4"><stop offset="0" stop-color="#0040dd"/><stop offset="1" stop-color="#0a84ff"/></linearGradient><rect fill="url(#a)" height="10" ry="1" width="6" x="5" y="3"/><g fill="#69696e"><rect height="1" ry=".5" width="14" x="1" y="1"/><rect height="1" ry=".398305" width="14" x="1" y="10"/><rect height="1" ry=".5" width="14" x="1" y="14"/><rect height="1" ry=".344197" width="14" x="1" y="7"/><rect height="1" ry=".423729" width="14" x="1" y="4"/></g><g fill="#ebebeb" fill-opacity=".992157"><rect height="1" ry=".5" width="14" x="1" y="2"/><rect height="1" ry=".449153" width="14" x="1" y="11"/><rect height="1" ry=".5" width="14" x="1" y="15"/><rect height="1" ry=".464045" width="14" x="1" y="5"/><rect height="1" ry=".344197" width="14" x="1" y="8"/></g></svg>