<svg height="16" viewBox="0 0 16 16" width="16" xmlns="http://www.w3.org/2000/svg" xmlns:xlink="http://www.w3.org/1999/xlink"><linearGradient id="a" gradientUnits="userSpaceOnUse" x1="91.482937" x2="84.192389" y1="-4.6592" y2="-11.949748"><stop offset="0" stop-color="#0040dd"/><stop offset="1" stop-color="#0a84ff"/></linearGradient><g fill="#69696e"><rect height="1" ry=".5" width="14" x="1" y="1"/><rect height="1" ry=".5" width="14" x="1" y="14"/><rect height="1" ry=".5" width="5" x="1" y="11"/><rect height="1" ry=".5" width="5" x="1" y="4"/><rect height="1" ry=".488015" width="3" x="1" y="7"/></g><g fill="#ececec" fill-opacity=".992157"><rect height="1" ry=".5" width="14" x="1" y="2"/><rect height="1" ry=".5" width="14" x="1" y="15"/><rect height="1" ry=".5" width="5" x="1" y="12"/><rect height="1" ry=".5" width="5" x="1" y="5"/><rect height="1" ry=".488015" width="3" x="1" y="8"/></g><rect fill="url(#a)" height="7.510029" ry=".751003" transform="matrix(.70710678 .70710678 -.70710678 .70710678 0 0)" width="7.510029" x="8.972908" y="-5.169229"/></svg>