<?xml version="1.0" encoding="UTF-8" standalone="no"?>
<svg
   xmlns:dc="http://purl.org/dc/elements/1.1/"
   xmlns:cc="http://creativecommons.org/ns#"
   xmlns:rdf="http://www.w3.org/1999/02/22-rdf-syntax-ns#"
   xmlns:svg="http://www.w3.org/2000/svg"
   xmlns="http://www.w3.org/2000/svg"
   xmlns:xlink="http://www.w3.org/1999/xlink"
   xmlns:sodipodi="http://sodipodi.sourceforge.net/DTD/sodipodi-0.dtd"
   xmlns:inkscape="http://www.inkscape.org/namespaces/inkscape"
   viewBox="0 0 16 16"
   version="1.1"
   id="svg1002"
   sodipodi:docname="sc_zoompagewidth.svg"
   inkscape:version="0.92.3 (unknown)"
   inkscape:export-filename="/home/rizmut/Dokumen/Rizmut/Github/libreoffice-style-sukapura/images_sukapura/cmd/sc_zoompagewidth.png"
   inkscape:export-xdpi="96"
   inkscape:export-ydpi="96">
  <metadata
     id="metadata1008">
    <rdf:RDF>
      <cc:Work
         rdf:about="">
        <dc:format>image/svg+xml</dc:format>
        <dc:type
           rdf:resource="http://purl.org/dc/dcmitype/StillImage" />
        <dc:title></dc:title>
      </cc:Work>
    </rdf:RDF>
  </metadata>
  <defs
     id="defs1006">
    <linearGradient
       inkscape:collect="always"
       xlink:href="#a-6"
       id="linearGradient1583"
       x1="8"
       y1="16"
       x2="8"
       y2="0"
       gradientUnits="userSpaceOnUse"
       gradientTransform="translate(1.9970669,3.0017429)" />
    <linearGradient
       gradientTransform="translate(-29.694915,1.220339)"
       id="a-6"
       gradientUnits="userSpaceOnUse"
       x1="14"
       x2="13.79661"
       y1="22"
       y2="2.1355929">
      <stop
         offset="0"
         stop-color="#0040dd"
         id="stop2" />
      <stop
         offset="1"
         stop-color="#0a84ff"
         id="stop4" />
    </linearGradient>
  </defs>
  <sodipodi:namedview
     pagecolor="#ffffff"
     bordercolor="#666666"
     borderopacity="1"
     objecttolerance="10"
     gridtolerance="10"
     guidetolerance="10"
     inkscape:pageopacity="0"
     inkscape:pageshadow="2"
     inkscape:window-width="1366"
     inkscape:window-height="706"
     id="namedview1004"
     showgrid="true"
     inkscape:zoom="10.429825"
     inkscape:cx="-6.382466"
     inkscape:cy="-2.5478708"
     inkscape:window-x="0"
     inkscape:window-y="0"
     inkscape:window-maximized="1"
     inkscape:current-layer="svg1002">
    <inkscape:grid
       type="xygrid"
       id="grid1575" />
  </sodipodi:namedview>
  <linearGradient
     id="a"
     gradientUnits="userSpaceOnUse"
     x1="10"
     x2="11.500001"
     y1="4"
     y2="2.499999">
    <stop
       offset="0"
       stop-color="#fff"
       id="stop982" />
    <stop
       offset=".77967989"
       stop-color="#f1f1f1"
       id="stop984" />
    <stop
       offset="1"
       stop-color="#d5d5d5"
       id="stop986" />
  </linearGradient>
  <radialGradient
     id="b"
     cx="10.994179"
     cy="4.42844"
     gradientTransform="matrix(1.4 .00000004 -.00000001 1.2 -4.39185 -2.314129)"
     gradientUnits="userSpaceOnUse"
     r="5">
    <stop
       offset="0"
       stop-color="#d7d7d7"
       id="stop989" />
    <stop
       offset=".49894297"
       stop-color="#f7f7f7"
       id="stop991" />
    <stop
       offset="1"
       stop-color="#fff"
       id="stop993" />
  </radialGradient>
  <path
     d="m3 1v14h10v-11.2949219l-2.695312-2.7050781z"
     fill="url(#b)"
     id="path996" />
  <path
     d="m3 0c-.554 0-1 .446-1 1v14c0 .554.446 1 1 1h10c.554 0 1-.446 1-1v-10.5-.8632812l-3.636719-3.6367188h-.863281zm0 1h6v3.5c0 .277.223.5.5.5h3.5v10h-10zm7 0 3 3h-3z"
     id="path998"
     fill="#98989d" />
  <path
     d="m10 1 3 3h-3z"
     fill="url(#a)"
     id="path1000" />
  <path
     style="fill:#ffffff;fill-opacity:0.78431373"
     d="M 6.5039062,7 C 6.1519133,6.9983806 5.8099635,7.1208961 5.5390625,7.3457031 a 1.0001,1.0001 0 0 0 -0.00195,0.00195 l -3,2.5 c -0.7040248,0.5866968 -0.7040276,1.7179918 0,2.3046878 l 3,2.5 C 6.4601243,15.422089 7.998093,14.70132 7.9980469,13.5 v -0.002 V 8.5 C 7.997973,7.6862784 7.3193748,7.004318 6.5058594,7 Z"
     id="path1577" />
  <path
     id="path1582"
     d="M 9.5032336,7 C 9.8552265,6.99838 10.197176,7.1208961 10.468077,7.3457031 a 1.0001,1.0001 0 0 1 0.002,0.00195 l 3,2.5 c 0.704025,0.5866969 0.704028,1.7179919 0,2.3046879 l -3,2.5 C 9.5470155,15.422089 8.0090468,14.70132 8.0090929,13.5 V 13.498 8.5 C 8.0091668,7.6862784 8.687765,7.004318 9.5012804,7 Z"
     style="fill:#ffffff;fill-opacity:0.78431373"
     inkscape:connector-curvature="0" />
  <path
     inkscape:connector-curvature="0"
     d="M 6.5,8 C 6.3823681,7.99931 6.2682584,8.040113 6.1777344,8.1152343 l -3,2.4999997 c -0.24089,0.199955 -0.24089,0.569577 0,0.769531 l 3,2.5 C 6.5036604,14.15657 6.9986679,13.924385 6.9980469,13.5 v -5 C 6.9980219,8.22463 6.7753681,8.0011 6.5,8 Z M 9.498047,8 C 9.222679,8.0011 9.000025,8.22463 9,8.5 v 5 c -6.21e-4,0.424388 0.494386,0.65657 0.820313,0.384765 l 2.999999,-2.5 c 0.240891,-0.199954 0.240891,-0.569576 0,-0.769531 L 9.820313,8.1152343 C 9.729793,8.0401134 9.615679,7.99931 9.498047,8 Z"
     id="path8"
     style="fill:url(#linearGradient1583);fill-opacity:1"
     sodipodi:nodetypes="cccccccccccccccc" />
</svg>
