<?xml version="1.0" encoding="UTF-8" standalone="no"?>
<svg
   xmlns:dc="http://purl.org/dc/elements/1.1/"
   xmlns:cc="http://creativecommons.org/ns#"
   xmlns:rdf="http://www.w3.org/1999/02/22-rdf-syntax-ns#"
   xmlns:svg="http://www.w3.org/2000/svg"
   xmlns="http://www.w3.org/2000/svg"
   xmlns:sodipodi="http://sodipodi.sourceforge.net/DTD/sodipodi-0.dtd"
   xmlns:inkscape="http://www.inkscape.org/namespaces/inkscape"
   viewBox="0 0 16 16"
   version="1.1"
   id="svg8"
   sodipodi:docname="sc_zoomoptimal.svg"
   inkscape:version="0.92.3 (unknown)"
   inkscape:export-filename="/home/rizmut/Dokumen/Rizmut/Github/libreoffice-style-sukapura/images_sukapura/cmd/sc_zoomoptimal.png"
   inkscape:export-xdpi="96"
   inkscape:export-ydpi="96"><metadata
   id="metadata14">
  <rdf:RDF>
    <cc:Work
       rdf:about="">
      <dc:format>image/svg+xml</dc:format>
      <dc:type
         rdf:resource="http://purl.org/dc/dcmitype/StillImage" />
      <dc:title></dc:title>
    </cc:Work>
  </rdf:RDF>
</metadata>
<defs
   id="defs12" />
<sodipodi:namedview
   pagecolor="#ffffff"
   bordercolor="#666666"
   borderopacity="1"
   objecttolerance="10"
   gridtolerance="10"
   guidetolerance="10"
   inkscape:pageopacity="0"
   inkscape:pageshadow="2"
   inkscape:window-width="1366"
   inkscape:window-height="699"
   id="namedview10"
   showgrid="true"
   inkscape:zoom="20.85965"
   inkscape:cx="4.2226417"
   inkscape:cy="7.2652848"
   inkscape:window-x="0"
   inkscape:window-y="0"
   inkscape:window-maximized="1"
   inkscape:current-layer="svg8">
  <inkscape:grid
     type="xygrid"
     id="grid1527" />
</sodipodi:namedview>



     /&amp;gt;
 <path
   d="m6 0a6 6 0 0 0 -6 6 6 6 0 0 0 6 6 6 6 0 0 0 3.875-1.417969l5.277344 5.267578a.50005.50005 0 1 0  .705078-.708984l-5.28125-5.2714844a6 6 0 0 0 1.423828-3.8691406 6 6 0 0 0 -.417969-2.1855469 6 6 0 0 0 -.001953 0l-.84375.6035157a5 5 0 0 1  .263672 1.5820312 5 5 0 0 1 -5 5 5 5 0 0 1 -5-5 5 5 0 0 1 5-5 5 5 0 0 1  .0546875.0019531l.7285156-.94335935a6 6 0 0 0 -.7832031-.05859375z"
   fill="#808080"
   id="path2"
   style="fill:#69696e;fill-opacity:1" />
<path
   d="m6 1a5 5 0 0 0 -5 5 5 5 0 0 0 5 5 5 5 0 0 0 5-5 5 5 0 0 0 -.261719-1.5839844l-6.1562498 4.3984375c-.8490967.6091406-1.9458253-.3280112-1.4765624-1.2617187l1.3554687-2.7128906c-.4926938-.316639-.6090798-.9869867-.2519531-1.4511719l1.8457031-2.3867188a5 5 0 0 0 -.0546875-.0019531z"
   fill="#fff"
   id="path4" />
<path
   d="m8.0943758 0h4.9056242l-3 3h1l-7 5 2-4h-1z"
   fill="#eac082"
   fill-rule="evenodd"
   id="path6"
   style="fill:#ff9500;fill-opacity:1" />
</svg>
