<?xml version="1.0" encoding="UTF-8" standalone="no"?>
<svg
   xmlns:dc="http://purl.org/dc/elements/1.1/"
   xmlns:cc="http://creativecommons.org/ns#"
   xmlns:rdf="http://www.w3.org/1999/02/22-rdf-syntax-ns#"
   xmlns:svg="http://www.w3.org/2000/svg"
   xmlns="http://www.w3.org/2000/svg"
   xmlns:xlink="http://www.w3.org/1999/xlink"
   xmlns:sodipodi="http://sodipodi.sourceforge.net/DTD/sodipodi-0.dtd"
   xmlns:inkscape="http://www.inkscape.org/namespaces/inkscape"
   viewBox="0 0 16 16"
   version="1.1"
   id="svg8"
   sodipodi:docname="sc_zoomprevious.svg"
   inkscape:version="0.92.3 (unknown)"
   inkscape:export-filename="/home/rizmut/Dokumen/Rizmut/Github/libreoffice-style-sukapura/images_sukapura/cmd/sc_zoomprevious.png"
   inkscape:export-xdpi="96"
   inkscape:export-ydpi="96"><metadata
   id="metadata14">
  <rdf:RDF>
    <cc:Work
       rdf:about="">
      <dc:format>image/svg+xml</dc:format>
      <dc:type
         rdf:resource="http://purl.org/dc/dcmitype/StillImage" />
      <dc:title />
    </cc:Work>
  </rdf:RDF>
</metadata>
<defs
   id="defs12">
  <linearGradient
     gradientTransform="translate(75,-7)"
     id="a-367"
     gradientUnits="userSpaceOnUse"
     x1="14"
     x2="13.79661"
     y1="22"
     y2="2.1355929">
    <stop
       offset="0"
       stop-color="#0040dd"
       id="stop2206" />
    <stop
       offset="1"
       stop-color="#0a84ff"
       id="stop2208" />
  </linearGradient>
  <linearGradient
     inkscape:collect="always"
     xlink:href="#a-367"
     id="linearGradient849"
     x1="13"
     y1="7"
     x2="13"
     y2="1"
     gradientUnits="userSpaceOnUse"
     gradientTransform="matrix(-1,0,0,1,16.02254,0)" />
</defs>
<sodipodi:namedview
   pagecolor="#ffffff"
   bordercolor="#666666"
   borderopacity="1"
   objecttolerance="10"
   gridtolerance="10"
   guidetolerance="10"
   inkscape:pageopacity="0"
   inkscape:pageshadow="2"
   inkscape:window-width="1366"
   inkscape:window-height="699"
   id="namedview10"
   showgrid="true"
   inkscape:zoom="20.85965"
   inkscape:cx="-4.2053993"
   inkscape:cy="11.950771"
   inkscape:window-x="0"
   inkscape:window-y="0"
   inkscape:window-maximized="1"
   inkscape:current-layer="svg8"
   inkscape:snap-global="false">
  <inkscape:grid
     type="xygrid"
     id="grid821"
     spacingx="0.5"
     spacingy="0.5"
     empspacing="2" />
</sodipodi:namedview>




     /&amp;gt;
 <path
   style="opacity:1;fill:#69696e;fill-opacity:1;stroke:none;stroke-width:1;stroke-linecap:round;stroke-linejoin:round;stroke-miterlimit:4;stroke-dasharray:none;stroke-opacity:0"
   d="M 6 0 A 6 6 0 0 0 0 6 A 6 6 0 0 0 6 12 A 6 6 0 0 0 9.4746094 10.886719 L 14.132812 15.542969 C 14.328681 15.738837 14.643975 15.738837 14.839844 15.542969 L 15.546875 14.835938 C 15.742744 14.640069 15.742744 14.324775 15.546875 14.128906 L 10.886719 9.4707031 A 6 6 0 0 0 12 6 A 6 6 0 0 0 6 0 z M 6 1 A 4.9992638 4.9992638 0 0 1 11 6 A 4.9992638 4.9992638 0 0 1 9.5097656 9.5585938 A 4.9992638 4.9992638 0 0 1 9.484375 9.5859375 L 9.46875 9.5996094 A 4.9992638 4.9992638 0 0 1 6 11 A 4.9992638 4.9992638 0 0 1 1 6 A 4.9992638 4.9992638 0 0 1 6 1 z "
   id="path855" />
<path
   style="fill:#ffffff;fill-opacity:0.78431374"
   d="M 4.2265625 0.26757812 A 6 6 0 0 0 0 6 A 6 6 0 0 0 0.001953125 6.0546875 L 1.1523438 7.2050781 A 4.9992638 4.9992638 0 0 1 1 6 A 4.9992638 4.9992638 0 0 1 4.9082031 1.1269531 A 0.96164204 0.96164204 0 0 0 4.7089844 0.828125 C 4.5858711 0.60630846 4.4254576 0.4117201 4.2304688 0.26757812 A 6 6 0 0 0 4.2265625 0.26757812 z M 9.4492188 2.3886719 A 4.9992638 4.9992638 0 0 1 9.5859375 2.515625 C 9.543338 2.4697752 9.4971743 2.4289116 9.4492188 2.3886719 z "
   id="path822" />
<path
   d="M 3.544024,0.99023438 C 3.815631,1.0090735 4.022254,1.2417412 4.008868,1.5136719 L 4.02254,1.5 V 3 h 3 1.5 c 0.277,0 0.5,0.223 0.5,0.5 v 2 c 0,0.277 -0.223,0.5 -0.5,0.5 h -1.5 -3 L 4.03034,7.5078125 4.02254,7.5 C 4.03154,7.9555964 3.476174,8.1847827 3.161212,7.8554688 L 0.2002743,4.8945312 c -0.002,-0.00129 -0.0039,-0.00259 -0.0059,-0.00391 -0.259957,-0.2008058 -0.259037,-0.5934459 0.002,-0.7929688 L 3.153399,1.140625 c 0.09072,-0.092848 0.21399,-0.14677856 0.34375,-0.15039062 0.01562,-7.3276e-4 0.03127,-7.3276e-4 0.04687,0 z"
   id="path6"
   style="fill:url(#linearGradient849);fill-opacity:1"
   inkscape:connector-curvature="0"
   sodipodi:nodetypes="cccccsssscccccccccccc" />
</svg>
