<?xml version="1.0" encoding="UTF-8" standalone="no"?>
<svg
   xmlns:dc="http://purl.org/dc/elements/1.1/"
   xmlns:cc="http://creativecommons.org/ns#"
   xmlns:rdf="http://www.w3.org/1999/02/22-rdf-syntax-ns#"
   xmlns:svg="http://www.w3.org/2000/svg"
   xmlns="http://www.w3.org/2000/svg"
   xmlns:xlink="http://www.w3.org/1999/xlink"
   xmlns:sodipodi="http://sodipodi.sourceforge.net/DTD/sodipodi-0.dtd"
   xmlns:inkscape="http://www.inkscape.org/namespaces/inkscape"
   viewBox="0 0 16 16"
   version="1.1"
   id="svg16"
   sodipodi:docname="sc_zoompanning.svg"
   inkscape:version="0.92.3 (unknown)"
   inkscape:export-filename="/home/rizmut/Dokumen/Rizmut/Github/libreoffice-style-sukapura/images_sukapura/cmd/sc_zoompanning.png"
   inkscape:export-xdpi="96"
   inkscape:export-ydpi="96"><metadata
   id="metadata22">
  <rdf:RDF>
    <cc:Work
       rdf:about="">
      <dc:format>image/svg+xml</dc:format>
      <dc:type
         rdf:resource="http://purl.org/dc/dcmitype/StillImage" />
      <dc:title></dc:title>
    </cc:Work>
  </rdf:RDF>
</metadata>
<defs
   id="defs20">
  <linearGradient
     gradientTransform="translate(-29.694915,1.220339)"
     id="a-6"
     gradientUnits="userSpaceOnUse"
     x1="14"
     x2="13.79661"
     y1="22"
     y2="2.1355929">
    <stop
       offset="0"
       stop-color="#0040dd"
       id="stop2" />
    <stop
       offset="1"
       stop-color="#0a84ff"
       id="stop4" />
  </linearGradient>
  <linearGradient
     inkscape:collect="always"
     xlink:href="#a-6"
     id="linearGradient888"
     x1="15"
     y1="15"
     x2="15"
     y2="1"
     gradientUnits="userSpaceOnUse" />
  <linearGradient
     inkscape:collect="always"
     xlink:href="#a-6"
     id="linearGradient890"
     x1="15"
     y1="15"
     x2="15"
     y2="1"
     gradientUnits="userSpaceOnUse" />
  <linearGradient
     inkscape:collect="always"
     xlink:href="#a-6"
     id="linearGradient892"
     x1="15"
     y1="15"
     x2="15"
     y2="1"
     gradientUnits="userSpaceOnUse" />
  <linearGradient
     inkscape:collect="always"
     xlink:href="#a-6"
     id="linearGradient894"
     gradientUnits="userSpaceOnUse"
     x1="15.009775"
     y1="1.0019375"
     x2="0.0097754998"
     y2="1.0019375" />
  <linearGradient
     inkscape:collect="always"
     xlink:href="#a-6"
     id="linearGradient896"
     gradientUnits="userSpaceOnUse"
     x1="15.009775"
     y1="1.0019375"
     x2="0.0097754998"
     y2="1.0019375" />
</defs>
<sodipodi:namedview
   pagecolor="#ffffff"
   bordercolor="#666666"
   borderopacity="1"
   objecttolerance="10"
   gridtolerance="10"
   guidetolerance="10"
   inkscape:pageopacity="0"
   inkscape:pageshadow="2"
   inkscape:window-width="1366"
   inkscape:window-height="706"
   id="namedview18"
   showgrid="true"
   showguides="false"
   inkscape:zoom="10.429825"
   inkscape:cx="16.134119"
   inkscape:cy="4.5189971"
   inkscape:window-x="0"
   inkscape:window-y="0"
   inkscape:window-maximized="1"
   inkscape:current-layer="svg16">
  <inkscape:grid
     type="xygrid"
     id="grid829" />
</sodipodi:namedview>


     /&gt;
 <rect
   height="1"
   ry=".5"
   width="13"
   x="1"
   y="8"
   id="rect2"
   fill="#4d82b8"
   style="stroke:none;fill-opacity:1;fill:url(#linearGradient892)" />
<rect
   height="13"
   ry=".5"
   width="1"
   x="7"
   y="2"
   id="rect4"
   fill="#4d82b8"
   style="stroke:none;fill-opacity:1;fill:url(#linearGradient890)" />
<g
   fill="none"
   stroke="#4d82b8"
   stroke-linecap="round"
   stroke-linejoin="round"
   id="g14"
   style="stroke:none;fill-opacity:1;fill:url(#linearGradient888)">
  <path
     style="fill:url(#linearGradient888);fill-opacity:1.0;stroke:none"
     d="m 7.5,1 a 0.49617796,0.49617796 0 0 0 -0.2695312,0.083984 l -3,2 A 0.49617796,0.49617796 0 0 0 4.5058594,3.9921875 H 10.505859 A 0.49617796,0.49617796 0 0 0 10.78125,3.0839844 l -3,-2 A 0.49617796,0.49617796 0 0 0 7.5,1 Z"
     id="path10" />
  <path
     id="path834"
     d="m 7.5,15.992162 a 0.49617796,0.49617796 0 0 1 -0.2695312,-0.08398 l -3,-2 a 0.49617796,0.49617796 0 0 1 0.2753906,-0.908207 h 5.9999996 a 0.49617796,0.49617796 0 0 1 0.275391,0.908203 l -3,2 A 0.49617796,0.49617796 0 0 1 7.5,15.992162 Z"
     style="fill:url(#linearGradient888);fill-opacity:1.0;stroke:none"
     inkscape:connector-curvature="0" />
  <g
     id="g842"
     transform="rotate(90,7.5058565,8.496081)"
     style="stroke:none;fill-opacity:1.0;fill:url(#linearGradient888)">
    <path
       style="fill:url(#linearGradient894);fill-opacity:1;stroke:none"
       d="M 7.5,1 A 0.49617796,0.49617796 0 0 0 7.2304688,1.083984 l -3,2 A 0.49617796,0.49617796 0 0 0 4.5058594,3.9921875 H 10.505859 A 0.49617796,0.49617796 0 0 0 10.78125,3.0839844 l -3,-2 A 0.49617796,0.49617796 0 0 0 7.5,1 Z"
       id="path836"
       inkscape:connector-curvature="0" />
    <path
       id="path838"
       d="m 7.5,15.992162 a 0.49617796,0.49617796 0 0 1 -0.2695312,-0.08398 l -3,-2 a 0.49617796,0.49617796 0 0 1 0.2753906,-0.908207 h 5.9999996 a 0.49617796,0.49617796 0 0 1 0.275391,0.908203 l -3,2 A 0.49617796,0.49617796 0 0 1 7.5,15.992162 Z"
       style="fill:url(#linearGradient896);fill-opacity:1;stroke:none"
       inkscape:connector-curvature="0" />
  </g>
</g>
</svg>
