<?xml version="1.0" encoding="UTF-8" standalone="no"?>
<svg
   xmlns:dc="http://purl.org/dc/elements/1.1/"
   xmlns:cc="http://creativecommons.org/ns#"
   xmlns:rdf="http://www.w3.org/1999/02/22-rdf-syntax-ns#"
   xmlns:svg="http://www.w3.org/2000/svg"
   xmlns="http://www.w3.org/2000/svg"
   xmlns:xlink="http://www.w3.org/1999/xlink"
   xmlns:sodipodi="http://sodipodi.sourceforge.net/DTD/sodipodi-0.dtd"
   xmlns:inkscape="http://www.inkscape.org/namespaces/inkscape"
   viewBox="0 0 16 16"
   version="1.1"
   id="svg8"
   sodipodi:docname="sc_zoom100percent.svg"
   inkscape:version="0.92.3 (unknown)"
   inkscape:export-filename="/home/rizmut/Dokumen/Rizmut/Github/libreoffice-style-sukapura/images_sukapura/cmd/sc_zoom100percent.png"
   inkscape:export-xdpi="96"
   inkscape:export-ydpi="96"><metadata
   id="metadata14">
  <rdf:RDF>
    <cc:Work
       rdf:about="">
      <dc:format>image/svg+xml</dc:format>
      <dc:type
         rdf:resource="http://purl.org/dc/dcmitype/StillImage" />
      <dc:title></dc:title>
    </cc:Work>
  </rdf:RDF>
</metadata>
<defs
   id="defs12">
  <linearGradient
     gradientTransform="translate(75,-7)"
     id="a-367"
     gradientUnits="userSpaceOnUse"
     x1="14"
     x2="13.79661"
     y1="22"
     y2="2.1355929">
    <stop
       offset="0"
       stop-color="#0040dd"
       id="stop2206" />
    <stop
       offset="1"
       stop-color="#0a84ff"
       id="stop2208" />
  </linearGradient>
  <linearGradient
     inkscape:collect="always"
     xlink:href="#a-367"
     id="linearGradient1396"
     x1="8.001132"
     y1="9.9322033"
     x2="8"
     y2="2.2033899"
     gradientUnits="userSpaceOnUse" />
</defs>
<sodipodi:namedview
   pagecolor="#ffffff"
   bordercolor="#666666"
   borderopacity="1"
   objecttolerance="10"
   gridtolerance="10"
   guidetolerance="10"
   inkscape:pageopacity="0"
   inkscape:pageshadow="2"
   inkscape:window-width="1366"
   inkscape:window-height="706"
   id="namedview10"
   showgrid="true"
   inkscape:zoom="14.75"
   inkscape:cx="0.53202569"
   inkscape:cy="6.3772264"
   inkscape:window-x="0"
   inkscape:window-y="0"
   inkscape:window-maximized="1"
   inkscape:current-layer="svg8"
   inkscape:snap-global="false">
  <inkscape:grid
     type="xygrid"
     id="grid821"
     spacingx="0.5"
     spacingy="0.5"
     empspacing="2" />
</sodipodi:namedview>





     /&amp;gt;
 <path
   style="opacity:1;fill:#69696e;fill-opacity:1;stroke:none;stroke-width:1;stroke-linecap:round;stroke-linejoin:round;stroke-miterlimit:4;stroke-dasharray:none;stroke-opacity:0"
   d="M 6 0 A 6 6 0 0 0 0 6 A 6 6 0 0 0 6 12 A 6 6 0 0 0 9.4746094 10.886719 L 14.132812 15.542969 C 14.328681 15.738837 14.643975 15.738837 14.839844 15.542969 L 15.546875 14.835938 C 15.742744 14.640069 15.742744 14.324775 15.546875 14.128906 L 10.886719 9.4707031 A 6 6 0 0 0 12 6 A 6 6 0 0 0 6 0 z M 6 1 A 4.9992638 4.9992638 0 0 1 11 6 A 4.9992638 4.9992638 0 0 1 9.5097656 9.5585938 A 4.9992638 4.9992638 0 0 1 9.484375 9.5859375 L 9.46875 9.5996094 A 4.9992638 4.9992638 0 0 1 6 11 A 4.9992638 4.9992638 0 0 1 1 6 A 4.9992638 4.9992638 0 0 1 6 1 z "
   id="path855" />
<path
   inkscape:connector-curvature="0"
   style="fill:url(#linearGradient1396);fill-opacity:1"
   d="M 4,9 H 6 V 3.275587 L 4.3216996,4.5371775 C 4.2245827,4.6181082 4.1294891,4.6464339 4.0364188,4.6221547 3.9473951,4.593829 3.8846738,4.5533636 3.848255,4.5007587 L 3.5265554,4.0576631 5.8512898,2 H 7 v 7 h 1 v 1 H 4 Z"
   id="path6" />
</svg>
