<svg viewBox="0 0 128 128" xmlns="http://www.w3.org/2000/svg" xmlns:xlink="http://www.w3.org/1999/xlink"><filter id="a" color-interpolation-filters="sRGB" height="1.094553" width="1.097492" x="-.048746" y="-.047277"><feGaussianBlur stdDeviation=".36559322"/></filter><linearGradient id="b" gradientTransform="matrix(2.75 0 0 2.775 3.505225 -.357079)" gradientUnits="userSpaceOnUse" x1="5.9981" x2="5.9981" y1="42.011559" y2="3.01156"><stop offset="0" stop-color="#f5f5f5"/><stop offset=".3888889" stop-color="#fdfdfd"/><stop offset="1" stop-color="#fff"/></linearGradient><path d="m22 118.44068h84v2.55932h-84z" filter="url(#a)" opacity=".15" stroke-width="1.015418"/><path d="m23 8c-1.662 0-3 1.338-3 3v106c0 1.662 1.338 3 3 3h82c1.662 0 3-1.338 3-3v-69l-39-40z" fill="#2a9240"/><path d="m22.000147 9.9918v2 104 2h1.999997 80.000006 2v-2-66-.8752l-.62497-.6248-37.750007-38-.499969-.5h-.875016-42.250044z" fill="#f9f9f9"/><path d="m24 12h42.75l37.25 37.625v65.375l-80 1z" fill="url(#b)" stroke-width="2.762472"/><path d="m82 8.0019531c-1.779038.00105-2.669603 2.1517099-1.412109 3.4101559l23.999999 24c1.25845 1.257501 3.40911.366934 3.41016-1.412109v-24c.00006-1.1035174-.89453-1.9981098-1.99805-1.9980469z" fill="#2a9240"/><path d="m30.99878 47.995184v2 8 2 8 2 8 2 8 2 8 2h60v-2-50h-58z" fill="#2a9240"/><g fill="#fff" transform="translate(832.57143 85.92354)"><path d="m-799.57265-35.928356h17v8h-17z"/><path d="m-780.57441-35.928356h17.99994v8h-17.99994z"/><path d="m-760.57265-35.928356h17v8h-17z"/><path d="m-799.57265-25.928356h17v8h-17z"/><path d="m-760.57265-25.928356h17v8h-17z"/><path d="m-780.57441-15.928356h17.99994v8.0000004h-17.99994z"/><path d="m-760.57265-15.928356h17v8.0000004h-17z"/><path d="m-799.57265-15.928356h17v8.0000004h-17z"/><path d="m-780.57441-5.9283556h17.99994v8h-17.99994z"/><path d="m-799.57265-5.9283556h17v8h-17z"/><path d="m-780.57441 4.0716444h17.99994v7.9999996h-17.99994z"/><path d="m-799.57265 4.0716444h17v7.9999996h-17z"/></g><path d="m55.99878 75.995184h39v27.999996h-39z" fill="#2a9240"/><path d="m57.99878 77.995184h35v23.999996h-35z" fill="#fff"/><path d="m59.99878 84.995184h7v15.999896h-7z" fill="#0040dd"/><path d="m67.99878 79.995184h7v20.999896h-7z" fill="#d70015"/><path d="m75.99878 90.995184h7v9.999896h-7z" fill="#ffd60a"/><path d="m83.99878 86.995184h7v13.999996h-7z" fill="#2a9240"/><path d="m57.99878 100.99518h35v1h-35z" fill="none" opacity=".75"/><path d="m51.99702 59.995184h17.99994v8h-17.99994z" fill="#fff"/></svg>