<svg viewBox="0 0 128 128" xmlns="http://www.w3.org/2000/svg" xmlns:xlink="http://www.w3.org/1999/xlink"><filter id="a" color-interpolation-filters="sRGB" height="1.094553" width="1.097492" x="-.048746" y="-.047277"><feGaussianBlur stdDeviation=".36559322"/></filter><linearGradient id="b" gradientTransform="matrix(2.75 0 0 2.775 3.505225 -.357079)" gradientUnits="userSpaceOnUse" x1="5.9981" x2="5.9981" y1="42.011559" y2="3.01156"><stop offset="0" stop-color="#f5f5f5"/><stop offset=".3888889" stop-color="#fdfdfd"/><stop offset="1" stop-color="#fff"/></linearGradient><path d="m22 118.44068h84v2.55932h-84z" filter="url(#a)" opacity=".15" stroke-width="1.015418"/><path d="m23 8c-1.662 0-3 1.338-3 3v106c0 1.662 1.338 3 3 3h82c1.662 0 3-1.338 3-3v-69l-39-40z" fill="#925100"/><path d="m22.000147 9.9918v2 104 2h1.999997 80.000006 2v-2-66-.8752l-.62497-.6248-37.750007-38-.499969-.5h-.875016-42.250044z" fill="#f9f9f9"/><path d="m24 12h42.75l37.25 37.625v65.375l-80 1z" fill="url(#b)" stroke-width="2.762472"/><path d="m82 8.0019531c-1.779038.00105-2.669603 2.1517099-1.412109 3.4101559l23.999999 24c1.25845 1.257501 3.40911.366934 3.41016-1.412109v-24c.00006-1.1035174-.89453-1.9981098-1.99805-1.9980469z" fill="#925100"/><circle cx="50.995579" cy="67.994064" fill="#f09e6f" r="16.99995"/><circle cx="51.004639" cy="67.998161" fill="#ff9500" r="19.00008" stroke="#ad3a00" stroke-width="2.000006"/><path d="m61.999239 93.998599c-.5523-.0001-.9999-.4477-1-1v-32c.0001-.5523.4477-.9999 1-1h32c.5523.0001.9999.4477 1 1v32c-.0001.5523-.4477.9999-1 1zm1-2h30v-30h-30z" fill="#925100"/><path d="m62.999239 91.998599h30v-30h-30z" fill="#ff9500"/><path d="m55.599539 68.077699c-.2217.079-.4124.2313-.5295.424l-9.8301 16.0413-10.058499 15.715301c-.4092.5886-.1611 1.7898 1.0709 1.7394h19.725099 19.3839c1.1879 0 1.4314-1.2862.7975-2.390001l-9.4439-15.0647-9.8301-16.0413c-.2412-.4057-.825-.5983-1.2853-.424zm.3779 2.8974 8.9984 14.4866 8.9983 14.557301h-17.9967-17.996599l8.998199-14.557301z" fill="#925100"/><path d="m73.991157 100.00275h-18.000038-18.000037l9.000128-14.500016 8.999909-14.499993 8.999909 14.499993z" fill="#ffd60a"/><path id="c" d="m33.49924 98.498599h5v5.000001h-5z" fill="#fff" stroke="#98989d"/><g fill="#fff" stroke="#98989d"><use height="1085" transform="translate(40.000001)" width="5033" xlink:href="#c"/><use height="1085" transform="translate(20.000001 -31.999999)" width="5033" xlink:href="#c"/></g></svg>