<svg height="48" width="48" xmlns="http://www.w3.org/2000/svg" xmlns:xlink="http://www.w3.org/1999/xlink"><filter id="a" color-interpolation-filters="sRGB" height="1.094553" width="1.097492" x="-.048746" y="-.047277"><feGaussianBlur stdDeviation=".36559322"/></filter><linearGradient id="b" gradientUnits="userSpaceOnUse" x1="30.999302" x2="30.999302" y1="34.998367" y2="18.998369"><stop offset="0" stop-color="#d36118"/><stop offset="1" stop-color="#f09e6f"/></linearGradient><linearGradient id="c" gradientUnits="userSpaceOnUse" x1="7.000306" x2="7.000306" y1="42.999999" y2="4.5"><stop offset="0" stop-color="#f5f5f5"/><stop offset=".3888889" stop-color="#fdfdfd"/><stop offset="1" stop-color="#fff"/></linearGradient><path d="m8 42.940678h32v2.559322h-32z" filter="url(#a)" opacity=".15" stroke-width="1.015418"/><path d="m8.9996938 2.9789143c-1.107999-.00146-2 .8810264-2 1.9765625v38.0468752c0 1.095536.8920003 1.975784 2 1.976562l30.0006122.021086c1.108.000779 2-.881026 2-1.976562l-.000306-24.023438-15.999694-16z" fill="#ad3a00"/><path d="m8.0003062 4v.75 38.50004.72723h.74999l30.5000418.02109h.74998v-.72723l-.000306-23.50003v-.3282l-.23436-.2343-14.905674-15.0000103-.18748-.1875h-.32813l-15.5940718-.0210897z" fill="#f9f9f9"/><path d="m8.9996938 4.9789143 15.0006122.0210857 14.999694 15 .000306 23-30.0006122-.021086z" fill="url(#c)"/><path d="m30 3c-.890637.0003496-1.336587 1.0770367-.707031 1.7070312l10 9.9999998c.629995.629556 1.706681.183606 1.707031-.707031l.000306-10c-.000055-.5522619-.447738-.9999448-1-1z" fill="#ad3a00"/><path d="m21.312501 34.25 1.599609 1.414062-5.658203 4.333985h2.927735l3.818359-3.373047 3.816406 3.373047h2.927735l-5.658203-4.333985 1.599609-1.414062h-1.927735l-.757812.582031-.759766-.582031z" fill="#98989d"/><path d="m11.999298 17.998353h24.00001v18.000036h-24.00001z" fill="#ad3a00"/><rect fill="url(#b)" height="16" rx="1" width="22" x="12.999297" y="18.998354"/><rect fill="#fff" height="16.000017" rx="1" width="22" x="12.999297" y="18.998354"/><g fill="#ad3a00" transform="translate(4.000001)"><path d="m10.999296 20.998353h18v2h-18z"/><path d="m14.999295 24.998353h5v2h-5z"/><path d="m12.999529 25.997904a.999999.99999953 0 0 1 -1.999998 0 .999999.99999953 0 1 1 1.999998 0z"/><path d="m14.999295 27.998353h5v2h-5z"/><path d="m12.999529 28.997904a.999999.99999953 0 0 1 -1.999998 0 .999999.99999953 0 1 1 1.999998 0z"/><path d="m14.999295 30.998353h5v2h-5z"/><path d="m12.999529 31.997904a.999999.99999953 0 0 1 -1.999998 0 .999999.99999953 0 1 1 1.999998 0z"/><path d="m20.999295 24.998353h8.000006v8.000018h-8.000006z"/></g><path d="m25.999296 25.998353h6.000005v6.000018h-6.000005z" fill="#fff"/><path d="m26.499308 31.498381 1.5-3 2 1 1.5-3" fill="none" stroke="#0040dd" stroke-linecap="round" stroke-linejoin="round"/><path d="m21.999296 35.998355h4v1.000027h-4z" fill="#98989d"/></svg>