<svg viewBox="0 0 32 32" xmlns="http://www.w3.org/2000/svg" xmlns:xlink="http://www.w3.org/1999/xlink"><filter id="a" color-interpolation-filters="sRGB" height="1.094553" width="1.097492" x="-.048746" y="-.047277"><feGaussianBlur stdDeviation=".36559322"/></filter><linearGradient id="b" gradientUnits="userSpaceOnUse" x1="-39.900205" x2="-39.900205" y1="24.122624" y2="-2.177072"><stop offset="0" stop-color="#f5f5f5"/><stop offset=".3888889" stop-color="#fdfdfd"/><stop offset="1" stop-color="#fff"/></linearGradient><path d="m6 27.940678h20v2.559322h-20z" filter="url(#a)" opacity=".15" stroke-width="1.015418"/><path d="m6 2c-.554 0-1 .446-1 1v25.988281c0 .554.446 1 1 1h20c.554 0 1-.446 1-1v-17.328125l-9.664062-9.660156z" fill="#007018"/><path d="m6 3v.5 25 .5h.4999 18.9996.5v-.5l.0025-16.01156v-.2188l-.1562-.1562-9.004113-8.98844-.125-.125h-.2188-9.997987z" fill="#f9f9f9"/><path d="m6.9981 4 9.0019-.01156 9 9-.0025 15.01156h-17.9994z" fill="url(#b)"/><path d="m20.5 2c-.444396.00155-.666668.5381963-.353516.8535156l6 6c.315319.3131528.851964.0908811.853516-.3535156v-6c-.000383-.2759834-.224017-.4996166-.5-.5z" fill="#007018"/><g transform="translate(.00109 1.00362)"><path d="m7.99891 11.99636h16v13.00003h-16z" fill="#fff"/><g fill="#2a9240"><path d="m7.99891 11.99636h15.99999v4h-15.99999z" fill="#32d74b"/><path d="m7.99891 11.99638v1 2 1 2 1 2 1 2 1h16v-1-11-1h-1-4-1-4-1-4zm1 1h4v2h-4zm5 0h4v2h-4zm5 0h4v2h-4zm-10 3h4v2h-4zm5 0h4v2h-4zm5 0h4v2h-4zm-10 3h4v2h-4zm5 0h4v2h-4zm5 0h4v2h-4zm-10 3h4v2h-4zm5 0h4v2h-4zm5 0h4v2h-4z" fill="#007018"/><path d="m15.99891 17.99636h8v7.99996h-8z" fill="#32d74b"/></g><path d="m16.99891 18.99636h6v5.99996h-6z" fill="#ccc"/><path d="m16.99891 18.99636h6v5.99996h-6z" fill="#fff"/><path d="m17.99891 21.99636h2v2.99997h-2z" fill="#0040dd"/><path d="m19.99891 19.99636h2v4.99996h-2z" fill="#ffd60a"/><path d="m17.99891 21.99636h1v2h-1z" fill="#0040dd"/><path d="m19.99891 19.99636h1v3.99999h-1z" fill="#ffd60a"/></g></svg>