<svg viewBox="0 0 32 32" xmlns="http://www.w3.org/2000/svg" xmlns:xlink="http://www.w3.org/1999/xlink"><filter id="a" color-interpolation-filters="sRGB" height="1.094553" width="1.097492" x="-.048746" y="-.047277"><feGaussianBlur stdDeviation=".36559322"/></filter><linearGradient id="b" gradientUnits="userSpaceOnUse" x1="-39.900205" x2="-39.900205" y1="24.122624" y2="-2.177072"><stop offset="0" stop-color="#f5f5f5"/><stop offset=".3888889" stop-color="#fdfdfd"/><stop offset="1" stop-color="#fff"/></linearGradient><path d="m6 27.940678h20v2.559322h-20z" filter="url(#a)" opacity=".15" stroke-width="1.015418"/><path d="m6 2c-.554 0-1 .446-1 1v25.988281c0 .554.446 1 1 1h20c.554 0 1-.446 1-1v-17.328125l-9.664062-9.660156z" fill="#616165"/><path d="m6 3v.5 25 .5h.4999 18.9996.5v-.5l.0025-16.01156v-.2188l-.1562-.1562-9.004113-8.98844-.125-.125h-.2188-9.997987z" fill="#f9f9f9"/><path d="m6.9981 4 9.0019-.01156 9 9-.0025 15.01156h-17.9994z" fill="url(#b)"/><path d="m20.5 2c-.444396.00155-.666668.5381963-.353516.8535156l6 6c.315319.3131528.851964.0908811.853516-.3535156v-6c-.000383-.2759834-.224017-.4996166-.5-.5z" fill="#616165"/><path d="m8 13h16v14h-16z" fill="#fff"/><g fill="#ff9500" transform="translate(0 1)"><path d="m8 25h16v1h-16z"/><path d="m8 12h16v1h-16z"/><path d="m9 12v14h-1v-14z"/><path d="m24 12v14h-1v-14z"/></g><path d="m21.992428 14.996373v2h-.999933v-.899999h-5.500229l-2.100039 8.899984h-1.400025l-1.9998648-4.999993-1.0000828-.000015v-1.000007l2.0000146.00003 1.599922 3.999985 1.900142-8" fill="#616165"/><g stroke="#98989d" stroke-linecap="round" stroke-linejoin="round" stroke-width="1.3" transform="translate(0 1)"><path d="m21 18.50003-5 5" fill="none"/><path d="m16 18.50003 5 5" fill="#98989d"/></g><g transform="translate(.5009 .00368)"><path id="c" d="m6.4991 3.99632h1v1h-1z" fill="#98989d"/><path id="d" d="m2.4991 3.99632h3v1h-3z" fill="#98989d"/><g fill="#98989d"><use height="1085" transform="translate(0 2)" width="5033" xlink:href="#d"/><use height="1085" transform="translate(0 4)" width="5033" xlink:href="#d"/><use height="1085" transform="translate(0 6)" width="5033" xlink:href="#d"/><use height="1085" transform="translate(0 8)" width="5033" xlink:href="#d"/><use height="1085" transform="translate(0 10)" width="5033" xlink:href="#d"/><use height="1085" transform="translate(0 12)" width="5033" xlink:href="#d"/><use height="1085" transform="translate(0 14)" width="5033" xlink:href="#d"/><use height="1085" transform="translate(0 16)" width="5033" xlink:href="#d"/><use height="1085" transform="translate(0 18)" width="5033" xlink:href="#d"/><use height="1085" transform="translate(0 20)" width="5033" xlink:href="#d"/><use height="1085" transform="translate(0 22)" width="5033" xlink:href="#d"/><use height="1085" transform="translate(0 24)" width="5033" xlink:href="#d"/><use height="1085" transform="translate(0 2)" width="5033" xlink:href="#c"/><use height="1085" transform="translate(0 4)" width="5033" xlink:href="#c"/><use height="1085" transform="translate(0 6)" width="5033" xlink:href="#c"/><use height="1085" transform="translate(0 8)" width="5033" xlink:href="#c"/><use height="1085" transform="translate(0 10)" width="5033" xlink:href="#c"/><use height="1085" transform="translate(0 12)" width="5033" xlink:href="#c"/><use height="1085" transform="translate(0 14)" width="5033" xlink:href="#c"/><use height="1085" transform="translate(0 16)" width="5033" xlink:href="#c"/><use height="1085" transform="translate(0 18)" width="5033" xlink:href="#c"/><use height="1085" transform="translate(0 20)" width="5033" xlink:href="#c"/><use height="1085" transform="translate(0 22)" width="5033" xlink:href="#c"/><use height="1085" transform="translate(0 24)" width="5033" xlink:href="#c"/></g></g></svg>