<svg height="297mm" viewBox="0 0 210 297" width="210mm" xmlns="http://www.w3.org/2000/svg" xmlns:xlink="http://www.w3.org/1999/xlink"><linearGradient id="a" gradientUnits="userSpaceOnUse" x1="-46.093097" x2="-27.307679" y1="269.333338" y2="269.333338"><stop offset="0" stop-color="#f5f5f5"/><stop offset=".3888889" stop-color="#fdfdfd"/><stop offset="1" stop-color="#fff"/></linearGradient><linearGradient id="b" gradientUnits="userSpaceOnUse" x1="31.617708" x2="50.403126" y1="274.51041" y2="274.51041"><stop offset="0" stop-color="#0040dd"/><stop offset="1" stop-color="#0a84ff"/></linearGradient><linearGradient id="c" gradientUnits="userSpaceOnUse" x1="58.076041" x2="76.861459" y1="274.51041" y2="274.51041"><stop offset="0" stop-color="#2a9240"/><stop offset="1" stop-color="#32d74b"/></linearGradient><linearGradient id="d" gradientUnits="userSpaceOnUse" x1="130.301783" x2="135.272092" y1="380.214208" y2="380.214208"><stop offset="0" stop-color="#d70015"/><stop offset="1" stop-color="#ff453a"/></linearGradient><linearGradient id="e" gradientUnits="userSpaceOnUse" x1="132.29167" x2="151.07709" y1="274.51041" y2="274.51041"><stop offset="0" stop-color="#e5eefc"/><stop offset="1" stop-color="#fcfdff"/></linearGradient><rect fill="#007aff" height="18.520834" ry=".264583" width="18.520834" x="7.9375" y="48.291668"/><rect fill="#a2845e" height="18.520834" ry=".264583" width="18.520834" x="7.9375" y="72.104172"/><rect fill="#8e8e93" height="18.520834" ry=".264583" width="18.520834" x="7.9375" y="95.916664"/><rect fill="#28cd41" height="18.520834" ry=".264583" width="18.520834" x="7.9375" y="119.72916"/><rect fill="#ff9500" height="18.520834" ry=".264583" width="18.520834" x="7.9375" y="143.54167"/><rect fill="#0a84ff" height="18.520834" ry=".264583" width="18.520834" x="31.75" y="48.291668"/><rect fill="#ac8e68" height="18.520834" ry=".264583" width="18.520834" x="31.75" y="72.104172"/><rect fill="#98989d" height="18.520834" ry=".264583" width="18.520834" x="31.75" y="95.916664"/><rect fill="#32d74b" height="18.520834" ry=".264583" width="18.520834" x="31.75" y="119.72916"/><rect fill="#ff9f0a" height="18.520834" ry=".264583" width="18.520834" x="31.75" y="143.54167"/><rect fill="#ff2d55" height="18.520834" ry=".264583" width="18.520834" x="7.9375" y="167.35417"/><rect fill="#af52de" height="18.520834" ry=".264583" width="18.520834" x="7.9375" y="191.16667"/><rect fill="#ff3b30" height="18.520834" ry=".264583" width="18.520834" x="7.9375" y="214.97917"/><rect fill="#fc0" height="18.520834" ry=".264583" width="18.520834" x="7.9375" y="238.79166"/><rect fill="#ff375f" height="18.520834" ry=".264583" width="18.520834" x="31.75" y="167.35417"/><rect fill="#bf5af2" height="18.520834" ry=".264583" width="18.520834" x="31.75" y="191.16667"/><rect fill="#ff453a" height="18.520834" ry=".264583" width="18.520834" x="31.75" y="214.97917"/><rect fill="#ffd60a" height="18.520834" ry=".264583" width="18.520834" x="31.75" y="238.79166"/><text font-family="sans-serif" font-size="10.583333" letter-spacing="0" stroke-width=".264583" word-spacing="0" x="8.044272" xml:space="preserve" y="44.336349"><tspan font-size="4.233333" stroke-width=".264583" x="8.044272" y="44.336349">Aqua          Dark</tspan></text><rect fill="#0070f5" height="18.520834" ry=".264583" width="18.520834" x="58.208332" y="48.291668"/><rect fill="#987a54" height="18.520834" ry=".264583" width="18.520834" x="58.208332" y="72.104172"/><rect fill="#848489" height="18.520834" ry=".264583" width="18.520834" x="58.208332" y="95.916664"/><rect fill="#1ec337" height="18.520834" ry=".264583" width="18.520834" x="58.208332" y="119.72916"/><rect fill="#f58b00" height="18.520834" ry=".264583" width="18.520834" x="58.208332" y="143.54167"/><rect fill="#148eff" height="18.520834" ry=".264583" width="18.520834" x="82.020828" y="48.291668"/><rect fill="#b69872" height="18.520834" ry=".264583" width="18.520834" x="82.020828" y="72.104172"/><rect fill="#a2a2a7" height="18.520834" ry=".264583" width="18.520834" x="82.020828" y="95.916664"/><rect fill="#3ce155" height="18.520834" ry=".264583" width="18.520834" x="82.020828" y="119.72916"/><rect fill="#ffa914" height="18.520834" ry=".264583" width="18.520834" x="82.020828" y="143.54167"/><rect fill="#f5234b" height="18.520834" ry=".264583" width="18.520834" x="58.208332" y="167.35417"/><rect fill="#9f4bc9" height="18.520834" ry=".264583" width="18.520834" x="58.208332" y="191.16667"/><rect fill="#f53126" height="18.520834" ry=".264583" width="18.520834" x="58.208332" y="214.97917"/><rect fill="#f5c200" height="18.520834" ry=".264583" width="18.520834" x="58.208332" y="238.79166"/><rect fill="#ff4169" height="18.520834" ry=".264583" width="18.520834" x="82.020828" y="167.35417"/><rect fill="#cc65ff" height="18.520834" ry=".264583" width="18.520834" x="82.020828" y="191.16667"/><rect fill="#ff4f44" height="18.520834" ry=".264583" width="18.520834" x="82.020828" y="214.97917"/><rect fill="#ffe014" height="18.520834" ry=".264583" width="18.520834" x="82.020828" y="238.79166"/><text font-family="sans-serif" font-size="10.583333" letter-spacing="0" stroke-width=".264583" word-spacing="0" x="58.315113" xml:space="preserve" y="44.336353"><tspan font-size="4.233333" stroke-width=".264583" x="58.315113" y="44.336353">Aqua          Dark</tspan></text><rect fill="#0040dd" height="18.520834" ry=".264583" width="18.520834" x="108.47917" y="48.291668"/><rect fill="#7f6545" height="18.520834" ry=".264583" width="18.520834" x="108.47917" y="72.104172"/><rect fill="#69696e" height="18.520834" ry=".264583" width="18.520834" x="108.47917" y="95.916664"/><rect fill="#2a9240" height="18.520834" ry=".264583" width="18.520834" x="108.47917" y="119.72916"/><rect fill="#c93400" height="18.520834" ry=".264583" width="18.520834" x="108.47917" y="143.54167"/><rect fill="#409cff" height="18.520834" ry=".264583" width="18.520834" x="132.29167" y="48.291668"/><rect fill="#b59469" height="18.520834" ry=".264583" width="18.520834" x="132.29167" y="72.104172"/><rect fill="#98989d" height="18.520834" ry=".264583" width="18.520834" x="132.29167" y="95.916664"/><rect fill="#28cd41" height="18.520834" ry=".264583" width="18.520834" x="132.29167" y="119.72916"/><rect fill="#ff9500" height="18.520834" ry=".264583" width="18.520834" x="132.29167" y="143.54167"/><rect fill="#d30f45" height="18.520834" ry=".264583" width="18.520834" x="108.47917" y="167.35417"/><rect fill="#8944ab" height="18.520834" ry=".264583" width="18.520834" x="108.47917" y="191.16667"/><rect fill="#d70015" height="18.520834" ry=".264583" width="18.520834" x="108.47917" y="214.97917"/><rect fill="#a05a00" height="18.520834" ry=".264583" width="18.520834" x="108.47917" y="238.79166"/><rect fill="#ff6482" height="18.520834" ry=".264583" width="18.520834" x="132.29167" y="167.35417"/><rect fill="#da8fff" height="18.520834" ry=".264583" width="18.520834" x="132.29167" y="191.16667"/><rect fill="#ff6961" height="18.520834" ry=".264583" width="18.520834" x="132.29167" y="214.97917"/><rect fill="#fc0" height="18.520834" ry=".264583" width="18.520834" x="132.29167" y="238.79166"/><text font-family="sans-serif" font-size="10.583333" letter-spacing="0" stroke-width=".264583" word-spacing="0" x="108.58595" xml:space="preserve" y="44.336353"><tspan font-size="4.233333" stroke-width=".264583" x="108.58595" y="44.336353">Aqua          Dark</tspan></text><text font-family="sans-serif" font-size="10.583333" letter-spacing="0" stroke-width=".264583" word-spacing="0" x="8.002351" xml:space="preserve" y="35.975014"><tspan font-size="4.938889" stroke-width=".264583" x="8.002351" y="35.975014">Normal                     Vibrant                     Accessible              Accessible + Vibrant</tspan></text><rect fill="#0040dd" height="18.520834" ry=".264583" width="18.520834" x="158.74998" y="48.291668"/><rect fill="#775d3b" height="18.520834" ry=".264583" width="18.520834" x="158.74998" y="72.104172"/><rect fill="#616165" height="18.520834" ry=".264583" width="18.520834" x="158.74998" y="95.916664"/><rect fill="#007018" height="18.520834" ry=".264583" width="18.520834" x="158.74998" y="119.72916"/><rect fill="#ad3a00" height="18.520834" ry=".264583" width="18.520834" x="158.74998" y="143.54166"/><rect fill="#409cff" height="18.520834" ry=".264583" width="18.520834" x="182.56248" y="48.291668"/><rect fill="#b59469" height="18.520834" ry=".264583" width="18.520834" x="182.56248" y="72.104172"/><rect fill="#98989d" height="18.520834" ry=".264583" width="18.520834" x="182.56248" y="95.916664"/><rect fill="#28cd41" height="18.520834" ry=".264583" width="18.520834" x="182.56248" y="119.72916"/><rect fill="#ff9500" height="18.520834" ry=".264583" width="18.520834" x="182.56248" y="143.54166"/><rect fill="#c11032" height="18.520834" ry=".264583" width="18.520834" x="158.74998" y="167.35417"/><rect fill="#8944ab" height="18.520834" ry=".264583" width="18.520834" x="158.74998" y="191.16667"/><rect fill="#c20618" height="18.520834" ry=".264583" width="18.520834" x="158.74998" y="214.97917"/><rect fill="#925100" height="18.520834" ry=".264583" width="18.520834" x="158.74998" y="238.79166"/><rect fill="#ff3a5f" height="18.520834" ry=".264583" width="18.520834" x="182.56248" y="167.35417"/><rect fill="#da8fff" height="18.520834" ry=".264583" width="18.520834" x="182.56248" y="191.16667"/><rect fill="#ff4136" height="18.520834" ry=".264583" width="18.520834" x="182.56248" y="214.97917"/><rect fill="#fc0" height="18.520834" ry=".264583" width="18.520834" x="182.56248" y="238.79166"/><g stroke-width=".264583"><text font-family="sans-serif" font-size="10.583333" letter-spacing="0" word-spacing="0" x="158.85677" xml:space="preserve" y="44.336353"><tspan font-size="4.233333" stroke-width=".264583" x="158.85677" y="44.336353">Aqua          Dark</tspan></text><g stroke="#000" stroke-opacity=".998039"><rect fill="url(#a)" height="18.520834" rx=".132291" ry=".132292" width="18.520834" x="7.9375" y="265.25"/><rect fill="url(#b)" height="18.520834" rx=".132291" ry=".132292" width="18.520834" x="31.75" y="265.25"/><rect fill="url(#c)" height="18.520834" rx=".132291" ry=".132292" width="18.520834" x="58.208332" y="265.25"/><rect fill="#4b4b4f" height="18.520834" rx=".132291" ry=".132292" width="18.520834" x="82.153122" y="265.25"/><rect fill="url(#d)" height="18.520834" rx=".132291" ry=".132292" width="18.520834" x="108.61147" y="265.25"/><rect fill="url(#e)" height="18.520834" rx=".132291" ry=".132292" width="18.520834" x="132.42397" y="265.25"/></g></g></svg>