<svg viewBox="0 0 128 128" xmlns="http://www.w3.org/2000/svg" xmlns:xlink="http://www.w3.org/1999/xlink"><filter id="a" color-interpolation-filters="sRGB" height="1.094553" width="1.097492" x="-.048746" y="-.047277"><feGaussianBlur stdDeviation=".36559322"/></filter><linearGradient id="b" gradientTransform="matrix(2.75 0 0 2.775 3.505225 -.357079)" gradientUnits="userSpaceOnUse" x1="5.9981" x2="5.9981" y1="42.011559" y2="3.01156"><stop offset="0" stop-color="#f5f5f5"/><stop offset=".3888889" stop-color="#fdfdfd"/><stop offset="1" stop-color="#fff"/></linearGradient><path d="m22 118.44068h84v2.55932h-84z" filter="url(#a)" opacity=".15" stroke-width="1.015418"/><path d="m23 8c-1.662 0-3 1.338-3 3v106c0 1.662 1.338 3 3 3h82c1.662 0 3-1.338 3-3v-69l-39-40z" fill="#8944ab"/><path d="m22.000147 9.9918v2 104 2h1.999997 80.000006 2v-2-66-.8752l-.62497-.6248-37.750007-38-.499969-.5h-.875016-42.250044z" fill="#f9f9f9"/><path d="m24 12h42.75l37.25 37.625v65.375l-80 1z" fill="url(#b)" stroke-width="2.762472"/><path d="m82 8.0019531c-1.779038.00105-2.669603 2.1517099-1.412109 3.4101559l23.999999 24c1.25845 1.257501 3.40911.366934 3.41016-1.412109v-24c.00006-1.1035174-.89453-1.9981098-1.99805-1.9980469z" fill="#8944ab"/><path d="m31 47.998047v3h14v-3zm16 0v3h15v-3zm17 0v3h15v-3zm17 0v3h14v-3zm-50 5v4h14v-4zm16 0v4h15v-4zm17 0v4h15v-4zm17 0v4h14v-4zm-50 6v4h9.814453v-1.675781c0-1.108.892-2 2-2 8.508062-.380345-11.167045-.324219-11.814453-.324219zm51.339844.324219c1.108 0 2 .892 2 2v1.675781h10.660156v-4c-.169969-.398483-18.85138.324219-12.660156.324219zm-51.339844 5.675781v4h9.814453v-4zm53.339844 0v4h10.660156v-4zm-53.339844 6v4h9.814453v-4zm53.339844 0v4h10.660156v-4zm-53.339844 6v4h9.814453v-4zm53.339844 0v4h10.660156v-4zm-53.339844 6v4h9.814453v-4zm53.339844 0v4h10.660156v-4zm-53.339844 6v4h10.589844c-.469734-.365337-.775391-.930388-.775391-1.574219v-2.425781zm53.339844 0v2.425781c0 .643831-.307611 1.208882-.777344 1.574219h11.4375v-4zm-53.339844 6v4h14v-4zm16 0v4h15v-4zm17 0v4h15v-4zm17 0v4h14v-4zm-50 6.000003v3h14v-3zm16 0v3h15v-3zm17 0v3h15v-3zm17 0v3h14v-3z" fill="#8944ab"/><path d="m62.99924 54.96725c-6.6937 0-12.762.7304-17.2188 1.9375-2.2282.6036-4.0271 1.2932-5.375 2.1563-1.3477.863-2.4062 1.9891-2.4062 3.4375-.062 8.7636.0002 17.6812.0002 26.5v.5c0 1.3963.9899 2.5081 2.3438 3.375 1.3536.8669 3.2039 1.5826 5.4374 2.1875 4.4672 1.2098 10.5182 1.9375 17.2188 1.9375s12.7517-.7277 17.2188-1.9375c2.2335-.6049 4.0837-1.3206 5.4374-2.1875 1.3539-.8669 2.3438-1.9787 2.3438-3.375v-27c0-1.3529-1.3173-2.7252-2.406-3.4375-1.3478-.8631-3.1466-1.5527-5.375-2.1563-4.4568-1.2071-10.5251-1.9375-17.2188-1.9375zm0 2.0625c6.5612 0 12.5205.7295 16.75 1.875 2.1148.5728 3.7938 1.2452 4.875 1.9375 1.0811.6924 1.4062 1.3098 1.4062 1.6563s-.3251.9639-1.4062 1.6562c-1.0812.6924-2.7602 1.3648-4.875 1.9375-4.2295 1.1456-10.1888 1.875-16.75 1.875-6.5611 0-12.5205-.7294-16.75-1.875-2.1148-.5727-3.7939-1.2451-4.875-1.9375-1.0812-.6923-1.4063-1.3097-1.4062-1.6562 0-.3465.325-.9639 1.4062-1.6563 1.0811-.6923 2.7602-1.3647 4.875-1.9375 4.2295-1.1455 10.1889-1.875 16.75-1.875zm-23 8.5938c.1377.1.2601.2189.4062.3125 1.3479.863 3.1467 1.5527 5.375 2.1562 4.4568 1.207 10.5251 1.9375 17.2188 1.9375s12.762-.7305 17.2188-1.9375c2.2283-.6035 4.0272-1.2932 5.375-2.1562.1461-.094.2685-.2128.4062-.3125v5.375.5c0 .3986-.3624.9991-1.4375 1.6875s-2.7341 1.3661-4.8437 1.9375c-4.2193 1.1427-10.1646 1.875-16.7188 1.875s-12.4994-.7323-16.7188-1.875c-2.1096-.5714-3.7686-1.2491-4.8437-1.9375s-1.4375-1.2889-1.4375-1.6875v-.5zm0 9c.1172.083.22.1708.3438.25 1.3536.8669 3.2039 1.5826 5.4374 2.1875 4.4672 1.2098 10.5182 1.9375 17.2188 1.9375s12.7517-.7277 17.2188-1.9375c2.2335-.6049 4.0837-1.3206 5.4374-2.1875.1238-.079.2266-.1666.3438-.25v5.375.5c0 .3986-.3624.9991-1.4375 1.6875s-2.7341 1.3661-4.8437 1.9375c-4.2193 1.1427-10.1646 1.875-16.7188 1.875s-12.4994-.7323-16.7188-1.875c-2.1096-.5714-3.7686-1.2491-4.8437-1.9375s-1.4375-1.2889-1.4375-1.6875v-.5zm0 9c.1172.083.22.1708.3438.25 1.3536.8669 3.2039 1.5826 5.4374 2.1875 4.4672 1.2098 10.5182 1.9375 17.2188 1.9375s12.7517-.7277 17.2188-1.9375c2.2335-.6049 4.0837-1.3206 5.4374-2.1875.1238-.079.2266-.1666.3438-.25v5.375.5c0 .3986-.3624.9991-1.4375 1.6875s-2.7341 1.3661-4.8437 1.9375c-4.2193 1.1427-10.1646 1.875-16.7188 1.875s-12.4994-.7323-16.7188-1.875c-2.1096-.5714-3.7686-1.2491-4.8437-1.9375s-1.4375-1.2889-1.4375-1.6875v-.5z" fill="none" stroke="#fff" stroke-width="2"/><path d="m62.996094 56.5a23.499916 6.0000281 0 0 0 -23.5 6 23.499916 6.0000281 0 0 0 .333984.998047h-.830078v7.5.5c0 .168665.03154.334566.07813.5h-.07813v8 .5c0 .167878.03001.335322.07617.5h-.07617v8 .5c0 3.5898 10.7452 6.5 24 6.5s24-2.9102 24-6.5v-.5-8h-.07813c.046209-.164761.07813-.332035.07813-.5v-.5-8h-.07813c.046592-.165434.07813-.331335.07813-.5v-.5-7.5h-.857422a23.499916 6.0000281 0 0 0 .353516-.998047 23.499916 6.0000281 0 0 0 -23.5-6z" fill="#fff"/><path d="m62.99924 54.96725c-6.6937 0-12.762.7304-17.2188 1.9375-2.2282.6036-4.0271 1.2932-5.375 2.1563-1.3477.863-2.375 1.9891-2.375 3.4375h-.031v26.5.5c0 1.3963.9899 2.5081 2.3438 3.375 1.3536.8669 3.2039 1.5826 5.4374 2.1875 4.4672 1.2098 10.5182 1.9375 17.2188 1.9375s12.7517-.7277 17.2188-1.9375c2.2335-.6049 4.0837-1.3206 5.4374-2.1875 1.3539-.8669 2.3438-1.9787 2.3438-3.375v-27h-.031c0-1.4484-1.0273-2.5745-2.375-3.4375-1.3478-.8631-3.1466-1.5527-5.375-2.1563-4.4568-1.2071-10.5251-1.9375-17.2188-1.9375zm0 2.0625c6.5612 0 12.5205.7295 16.75 1.875 2.1148.5728 3.7938 1.2452 4.875 1.9375 1.0811.6924 1.4062 1.3098 1.4062 1.6563s-.3251.9639-1.4062 1.6562c-1.0812.6924-2.7602 1.3648-4.875 1.9375-4.2295 1.1456-10.1888 1.875-16.75 1.875-6.5611 0-12.5205-.7294-16.75-1.875-2.1148-.5727-3.7939-1.2451-4.875-1.9375-1.0812-.6923-1.4063-1.3097-1.4062-1.6562 0-.3465.325-.9639 1.4062-1.6563 1.0811-.6923 2.7602-1.3647 4.875-1.9375 4.2295-1.1455 10.1889-1.875 16.75-1.875zm-23 8.5938c.1377.1.2601.2189.4062.3125 1.3479.863 3.1467 1.5527 5.375 2.1562 4.4568 1.207 10.5251 1.9375 17.2188 1.9375s12.762-.7305 17.2188-1.9375c2.2283-.6035 4.0272-1.2932 5.375-2.1562.1461-.094.2685-.2128.4062-.3125v5.375.5c0 .3986-.3624.9991-1.4375 1.6875s-2.7341 1.3661-4.8437 1.9375c-4.2193 1.1427-10.1646 1.875-16.7188 1.875s-12.4994-.7323-16.7188-1.875c-2.1096-.5714-3.7686-1.2491-4.8437-1.9375s-1.4375-1.2889-1.4375-1.6875v-.5zm0 9c.1172.083.22.1708.3438.25 1.3536.8669 3.2039 1.5826 5.4374 2.1875 4.4672 1.2098 10.5182 1.9375 17.2188 1.9375s12.7517-.7277 17.2188-1.9375c2.2335-.6049 4.0837-1.3206 5.4374-2.1875.1238-.079.2266-.1666.3438-.25v5.375.5c0 .3986-.3624.9991-1.4375 1.6875s-2.7341 1.3661-4.8437 1.9375c-4.2193 1.1427-10.1646 1.875-16.7188 1.875s-12.4994-.7323-16.7188-1.875c-2.1096-.5714-3.7686-1.2491-4.8437-1.9375s-1.4375-1.2889-1.4375-1.6875v-.5zm0 9c.1172.083.22.1708.3438.25 1.3536.8669 3.2039 1.5826 5.4374 2.1875 4.4672 1.2098 10.5182 1.9375 17.2188 1.9375s12.7517-.7277 17.2188-1.9375c2.2335-.6049 4.0837-1.3206 5.4374-2.1875.1238-.079.2266-.1666.3438-.25v5.375.5c0 .3986-.3624.9991-1.4375 1.6875s-2.7341 1.3661-4.8437 1.9375c-4.2193 1.1427-10.1646 1.875-16.7188 1.875s-12.4994-.7323-16.7188-1.875c-2.1096-.5714-3.7686-1.2491-4.8437-1.9375s-1.4375-1.2889-1.4375-1.6875v-.5z" fill="none"/><path d="m63 54.966797c-6.6937 0-12.76195.7304-17.21875 1.9375-2.2282.6036-4.0271 1.29315-5.375 2.15625-1.3477.863-2.40625 1.9891-2.40625 3.4375-.062 8.7636 0 17.6812 0 26.5v.5c0 1.3963.98985 2.5081 2.34375 3.375 1.3536.8669 3.204 1.5826 5.4375 2.1875 4.4672 1.2098 10.51815 1.9375 17.21875 1.9375s12.75165-.7277 17.21875-1.9375c2.2335-.6049 4.0838-1.3206 5.4375-2.1875 1.3539-.8669 2.34375-1.9787 2.34375-3.375v-27c0-1.3529-1.31755-2.7252-2.40625-3.4375-1.3478-.8631-3.1466-1.55265-5.375-2.15625-4.4568-1.2071-10.52505-1.9375-17.21875-1.9375zm0 2.0625c6.5612 0 12.5205.7295 16.75 1.875 2.1148.5728 3.7938 1.2452 4.875 1.9375 1.0811.6924 1.40625 1.30975 1.40625 1.65625s-.32515.96395-1.40625 1.65625c-1.0812.6924-2.7602 1.3648-4.875 1.9375-4.2295 1.1456-10.1888 1.875-16.75 1.875-6.5611 0-12.5205-.7294-16.75-1.875-2.1148-.5727-3.7939-1.2451-4.875-1.9375-1.0812-.6923-1.40635-1.30975-1.40625-1.65625 0-.3465.32505-.96385 1.40625-1.65625 1.0811-.6923 2.7602-1.3647 4.875-1.9375 4.2295-1.1455 10.1889-1.875 16.75-1.875zm-23 8.59375c.1377.1.26015.2189.40625.3125 1.3479.863 3.1467 1.55275 5.375 2.15625 4.4568 1.207 10.52505 1.9375 17.21875 1.9375s12.76195-.7305 17.21875-1.9375c2.2283-.6035 4.0272-1.29325 5.375-2.15625.1461-.094.26855-.2128.40625-.3125v5.375.5c0 .3986-.3624.9991-1.4375 1.6875s-2.73415 1.3661-4.84375 1.9375c-4.2193 1.1427-10.16455 1.875-16.71875 1.875s-12.49935-.7323-16.71875-1.875c-2.1096-.5714-3.76865-1.2491-4.84375-1.9375s-1.4375-1.2889-1.4375-1.6875v-.5zm0 9c.1172.083.21995.1708.34375.25 1.3536.8669 3.204 1.5826 5.4375 2.1875 4.4672 1.2098 10.51815 1.9375 17.21875 1.9375s12.75165-.7277 17.21875-1.9375c2.2335-.6049 4.0838-1.3206 5.4375-2.1875.1238-.079.22655-.1666.34375-.25v5.375.5c0 .3986-.3624.9991-1.4375 1.6875s-2.73415 1.3661-4.84375 1.9375c-4.2193 1.1427-10.16455 1.875-16.71875 1.875s-12.49935-.7323-16.71875-1.875c-2.1096-.5714-3.76865-1.2491-4.84375-1.9375s-1.4375-1.2889-1.4375-1.6875v-.5zm0 9c.1172.083.21995.1708.34375.25 1.3536.8669 3.204 1.5826 5.4375 2.1875 4.4672 1.2098 10.51815 1.9375 17.21875 1.9375s12.75165-.7277 17.21875-1.9375c2.2335-.6049 4.0838-1.3206 5.4375-2.1875.1238-.079.22655-.1666.34375-.25v5.375.5c0 .3986-.3624.9991-1.4375 1.6875s-2.73415 1.3661-4.84375 1.9375c-4.2193 1.1427-10.16455 1.875-16.71875 1.875s-12.49935-.7323-16.71875-1.875c-2.1096-.5714-3.76865-1.2491-4.84375-1.9375s-1.4375-1.2889-1.4375-1.6875v-.5z" fill="#8944ab"/><path id="c" d="m40.49924 66.49855v4.0657.4239c0 3.0433 9.8483 5.5104 21.9969 5.5104s23.0031-2.4671 23.0031-5.5104v-.4239-4.0381c-1.9668 1.6873-10.2916 4.1764-22.9341 4.1764-12.6424 0-20.226-2.5166-22.0659-4.204z" fill="none" stroke="#fff"/><use height="1085" transform="translate(0 8.999999)" width="5033" xlink:href="#c"/><use height="1085" transform="translate(0 17.999999)" width="5033" xlink:href="#c"/></svg>