<svg viewBox="0 0 128 128" xmlns="http://www.w3.org/2000/svg" xmlns:xlink="http://www.w3.org/1999/xlink"><filter id="a" color-interpolation-filters="sRGB" height="1.094553" width="1.097492" x="-.048746" y="-.047277"><feGaussianBlur stdDeviation=".36559322"/></filter><linearGradient id="b" gradientTransform="matrix(2.75 0 0 2.775 3.505225 -.357079)" gradientUnits="userSpaceOnUse" x1="5.9981" x2="5.9981" y1="42.011559" y2="3.01156"><stop offset="0" stop-color="#f5f5f5"/><stop offset=".3888889" stop-color="#fdfdfd"/><stop offset="1" stop-color="#fff"/></linearGradient><path d="m22 118.44068h84v2.55932h-84z" filter="url(#a)" opacity=".15" stroke-width="1.015418"/><path d="m23 8c-1.662 0-3 1.338-3 3v106c0 1.662 1.338 3 3 3h82c1.662 0 3-1.338 3-3v-69l-39-40z" fill="#ad3a00"/><path d="m22.000147 9.9918v2 104 2h1.999997 80.000006 2v-2-66-.8752l-.62497-.6248-37.750007-38-.499969-.5h-.875016-42.250044z" fill="#f9f9f9"/><path d="m24 12h42.75l37.25 37.625v65.375l-80 1z" fill="url(#b)" stroke-width="2.762472"/><path d="m82 8.0019531c-1.779038.00105-2.669603 2.1517099-1.412109 3.4101559l23.999999 24c1.25845 1.257501 3.40911.366934 3.41016-1.412109v-24c.00006-1.1035174-.89453-1.9981098-1.99805-1.9980469z" fill="#ad3a00"/><g fill="#98989d" transform="translate(895.35638 480.52334)"><path d="m-834.23592-385.52465-12.12121 7.9999h4.8844l2.69908-.5569 9.4165-7.443z"/><path d="m-830.35715-385.52465 12 7.9999h-5.00561l-2.5431-.4389-9.45128-7.561z"/><path d="m-835.23593-385.52465-12.12121 7.9999h5.87879l10.12122-7.9999z"/><path d="m-835.3572-387.52475h6v3h-6z"/><path d="m-829.35714-385.52465 12 7.9999h-6l-10.00001-7.9999z"/></g><path d="m30.99924 47.99859h64v46h-64z" fill="#ad3a00"/><rect fill="none" height="42.000023" rx="1" width="60" x="32.999264" y="49.998558"/><rect fill="#fff" height="42.000023" rx="1" width="60" x="32.999264" y="49.998558"/><rect fill="none" height="31.427435" rx="2" transform="rotate(90)" width="15.674944" x="76.323631" y="-78.426689"/><g fill="#ad3a00" transform="translate(895.35638 480.52334)"><path d="m-851.35714-411.52475h15v4h-15z"/><path d="m-851.35714-404.52475h15v4h-15z"/><path d="m-851.35714-397.52475h15v4h-15z"/><ellipse cx="-856.35712" cy="-409.52148" rx="1.999997" ry="1.999998"/><ellipse cx="-856.35712" cy="-402.52148" rx="1.999997" ry="1.999998"/><ellipse cx="-856.35712" cy="-395.52148" rx="1.999997" ry="1.999998"/><path d="m-858.35714-426.52475h51.99997v4h-51.99997z"/><path d="m-832.35714-411.52475h26v18h-26z"/></g><path d="m64.99924 70.99859h22v14h-22z" fill="#e6e6e6"/><path d="m64.99924 70.99859h22v14.0001h-22z" fill="#fff"/><path d="m67.49924 82.49859 5.5-5.5 4 4 7.5-7.5" fill="none" stroke="#0040dd" stroke-linecap="round" stroke-linejoin="round" stroke-width="1.5"/><path d="m46.99924 60.99859h32v4h-32z" fill="#ad3a00"/></svg>