<svg viewBox="0 0 32 32" xmlns="http://www.w3.org/2000/svg" xmlns:xlink="http://www.w3.org/1999/xlink"><filter id="a" color-interpolation-filters="sRGB" height="1.094553" width="1.097492" x="-.048746" y="-.047277"><feGaussianBlur stdDeviation=".36559322"/></filter><linearGradient id="b" gradientUnits="userSpaceOnUse" x1="-39.900205" x2="-39.900205" y1="24.122624" y2="-2.177072"><stop offset="0" stop-color="#f5f5f5"/><stop offset=".3888889" stop-color="#fdfdfd"/><stop offset="1" stop-color="#fff"/></linearGradient><path d="m6 27.940678h20v2.559322h-20z" filter="url(#a)" opacity=".15" stroke-width="1.015418"/><path d="m6 2c-.554 0-1 .446-1 1v25.988281c0 .554.446 1 1 1h20c.554 0 1-.446 1-1v-17.328125l-9.664062-9.660156z" fill="#8944ab"/><path d="m6 3v.5 25 .5h.4999 18.9996.5v-.5l.0025-16.01156v-.2188l-.1562-.1562-9.004113-8.98844-.125-.125h-.2188-9.997987z" fill="#f9f9f9"/><path d="m6.9981 4 9.0019-.01156 9 9-.0025 15.01156h-17.9994z" fill="url(#b)"/><path d="m20.5 2c-.444396.00155-.666668.5381963-.353516.8535156l6 6c.315319.3131528.851964.0908811.853516-.3535156v-6c-.000383-.2759834-.224017-.4996166-.5-.5z" fill="#8944ab"/><g fill="#fff" stroke="#8944ab" transform="translate(0 1)"><path d="m8.4969 19.49638v4c0 1.10457 3.3579 2 7.5 2s7.5-.89543 7.5-2v-4z"/><path d="m8.4969 14.99638v4c0 1.10457 3.3579 2 7.5 2s7.5-.89543 7.5-2v-4z"/><ellipse cx="15.999883" cy="14.4971" rx="7.500004" ry="1.999998" stroke-width=".999999"/></g></svg>