<svg height="48" width="48" xmlns="http://www.w3.org/2000/svg" xmlns:xlink="http://www.w3.org/1999/xlink"><filter id="a" color-interpolation-filters="sRGB" height="1.094553" width="1.097492" x="-.048746" y="-.047277"><feGaussianBlur stdDeviation=".36559322"/></filter><linearGradient id="b" gradientUnits="userSpaceOnUse" x1="7.000306" x2="7.000306" y1="42.999999" y2="4.5"><stop offset="0" stop-color="#f5f5f5"/><stop offset=".3888889" stop-color="#fdfdfd"/><stop offset="1" stop-color="#fff"/></linearGradient><path d="m8 42.940678h32v2.559322h-32z" filter="url(#a)" opacity=".15" stroke-width="1.015418"/><path d="m8.9996938 2.9789143c-1.107999-.00146-2 .8810264-2 1.9765625v38.0468752c0 1.095536.8920003 1.975784 2 1.976562l30.0006122.021086c1.108.000779 2-.881026 2-1.976562l-.000306-24.023438-15.999694-16z" fill="#8944ab"/><path d="m8.0003062 4v.75 38.50004.72723h.74999l30.5000418.02109h.74998v-.72723l-.000306-23.50003v-.3282l-.23436-.2343-14.905674-15.0000103-.18748-.1875h-.32813l-15.5940718-.0210897z" fill="#f9f9f9"/><path d="m8.9996938 4.9789143 15.0006122.0210857 14.999694 15 .000306 23-30.0006122-.021086z" fill="url(#b)"/><path d="m30 3c-.890637.0003496-1.336587 1.0770367-.707031 1.7070312l10 9.9999998c.629995.629556 1.706681.183606 1.707031-.707031l.000306-10c-.000055-.5522619-.447738-.9999448-1-1z" fill="#8944ab"/><g stroke="#8944ab"><path d="m12.499313 31.998603v3.5.5c0 1.933 5.148698 3.5 11.499998 3.5s11.5-1.567 11.5-3.5v-.5-3.5z" fill="#fff"/><path d="m35.498548 26.499758a11.500004 3.5000022 0 1 1 -23.000008 0 11.500004 3.5000022 0 1 1 23.000008 0z" stroke-width=".999998"/><g fill="#fff"><path d="m12.499313 27.498602v3.500001.5c0 1.933 5.148698 3.5 11.499998 3.5s11.5-1.567 11.5-3.5v-.5-3.500001z"/><path d="m12.499511 22.4986v3.5.5c0 1.933001 5.14873 3.500001 11.5 3.500001s11.5-1.567 11.5-3.500001v-.5-3.5z"/><path d="m35.499548 21.999758a11.500004 3.5000022 0 1 1 -23.000008 0 11.500004 3.5000022 0 1 1 23.000008 0z" stroke-width=".999998"/></g></g></svg>