<svg height="96" width="96" xmlns="http://www.w3.org/2000/svg" xmlns:xlink="http://www.w3.org/1999/xlink"><filter id="a" color-interpolation-filters="sRGB" height="1.094553" width="1.097492" x="-.048746" y="-.047277"><feGaussianBlur stdDeviation=".36559322"/></filter><linearGradient id="b" gradientUnits="userSpaceOnUse" x1="14.987305" x2="14.987305" y1="87" y2="9"><stop offset="0" stop-color="#f5f5f5"/><stop offset=".3888889" stop-color="#fdfdfd"/><stop offset="1" stop-color="#fff"/></linearGradient><text x="446.73111" y="-244.83366"><tspan x="446.73111" y="-244.83366"/></text><path d="m17.012696 6c-1.108 0-1.999648.8920001-2 2l-.02539 80c-.000352 1.108.892 2 2 2h62c1.108 0 1.958459-.892779 2-2l.02539-53.984375-28.025391-28.015625z" fill="#2a9240"/><path d="m15.986105 7v1.5l.0012 80.04554v.45446h1.499981 61.000059 1.49996v-1.45446l-.000001-52.003348v-.6564l-.46872-.4686-27.311935-27.00002-.37496-.375h-.65626l-33.689344-.042172z" fill="#f9f9f9" stroke-width="2"/><path d="m60.012696 6c-.890637.0003496-1.336587 1.0770367-.707031 1.7070312l20 19.9999998c.629995.629556 1.706681.183606 1.707031-.707031v-20c-.000055-.5522619-.447738-.9999448-1-1z" fill="#2a9240"/><path d="m16.988504 7.996712 33.501226.04546 28.497575 26.957828v53l-62.000001-.0033z" fill="url(#b)" stroke-width="2"/><path d="m16 88.44068h64v2.55932h-64z" filter="url(#a)" opacity=".15" stroke-width="1.015418"/><path d="m25 38v36h43v-36zm1 1h13v6h-13zm14 0h13v6h-13zm14 0h13v6h-13zm-28 7h13v6h-13zm14 0h13v6h-13zm14 0h13v6h-13zm-28 7h13v6h-13zm14 0h13v6h-13zm14 0h13v6h-13zm-28 7h13v6h-13zm14 0h13v6h-13zm14 0h13v6h-13zm-28 7h13v6h-13zm14 0h13v6h-13zm14 0h13v6h-13z" fill="#2a9240"/><path d="m44 58h27v19h-27z" fill="#fff"/><path d="m43 57v21h29v-21zm1 1h27v19h-27z" fill="#2a9240"/><path d="m46 64h5v12h-5z" fill="#0040dd"/><path d="m52 60h5v16h-5z" fill="#d70015"/><path d="m58 68h5v8h-5z" fill="#ffd60a"/><path d="m64 65h5v11h-5z" fill="#2a9240"/></svg>