<svg height="48" width="48" xmlns="http://www.w3.org/2000/svg" xmlns:xlink="http://www.w3.org/1999/xlink"><filter id="a" color-interpolation-filters="sRGB" height="1.094553" width="1.097492" x="-.048746" y="-.047277"><feGaussianBlur stdDeviation=".36559322"/></filter><linearGradient id="b" gradientUnits="userSpaceOnUse" x1="7.000306" x2="7.000306" y1="42.999999" y2="4.5"><stop offset="0" stop-color="#f5f5f5"/><stop offset=".3888889" stop-color="#fdfdfd"/><stop offset="1" stop-color="#fff"/></linearGradient><path d="m8 42.940678h32v2.559322h-32z" filter="url(#a)" opacity=".15" stroke-width="1.015418"/><path d="m8.9996938 2.9789143c-1.107999-.00146-2 .8810264-2 1.9765625v38.0468752c0 1.095536.8920003 1.975784 2 1.976562l30.0006122.021086c1.108.000779 2-.881026 2-1.976562l-.000306-24.023438-15.999694-16z" fill="#616165"/><path d="m8.0003062 4v.75 38.50004.72723h.74999l30.5000418.02109h.74998v-.72723l-.000306-23.50003v-.3282l-.23436-.2343-14.905674-15.0000103-.18748-.1875h-.32813l-15.5940718-.0210897z" fill="#f9f9f9"/><path d="m8.9996938 4.9789143 15.0006122.0210857 14.999694 15 .000306 23-30.0006122-.021086z" fill="url(#b)"/><path d="m30 3c-.890637.0003496-1.336587 1.0770367-.707031 1.7070312l10 9.9999998c.629995.629556 1.706681.183606 1.707031-.707031l.000306-10c-.000055-.5522619-.447738-.9999448-1-1z" fill="#616165"/><g fill="#ff9500" transform="translate(4.000001)"><path d="m7.9992914 36.998365h23.9999996v1h-23.9999996z"/><path d="m7.9992914 19.998365h23.9999996v1h-23.9999996z"/><path d="m9.9992914 17.998365v22h-1v-22z"/><path d="m30.99929 17.998365v22h-1v-22z"/></g><g fill="#98989d"><g transform="translate(4.000001)"><path d="m28.991623 21.994771v2.999992h-1.499899v-1.399995h-9.300062l-2.100039 12.399988h-2.399958l-2.000015-6.299995h-1.200129v-1.700005l2.500132.00003 1.749881 4.999977 1.750032-11.000007" fill="#616165"/><g fill="none" stroke="#616165" stroke-linecap="round" stroke-linejoin="round" stroke-width="2"><path d="m26.999311 27.998392-7 7"/><path d="m19.999311 27.998392 7 7"/></g></g><g transform="translate(1.49915)"><g><path d="m8.50085 5.99834h1v1h-1z"/><path d="m8.50085 8.99834h1v1h-1z"/><path d="m8.50085 11.99834h1v1h-1z"/><path d="m8.50085 14.99834h1v1h-1z"/><path d="m8.50085 17.99834h1v1h-1z"/><path d="m8.50085 20.99834h1v1h-1z"/><path d="m8.50085 23.99834h1v1h-1z"/><path d="m8.50085 26.99834h1v1h-1z"/><path d="m8.50085 29.99834h1v1h-1z"/><path d="m8.50085 32.99834h1v1h-1z"/><path d="m8.50085 35.99834h1v1h-1z"/><path d="m8.50085 38.99834h1v1h-1z"/><path d="m8.50085 41.99834h1v1h-1z"/></g><g><path d="m3.50085 5.99834h4v1h-4z"/><path d="m3.50085 8.99834h4v1h-4z"/><path d="m3.50085 11.99834h4v1h-4z"/><path d="m3.50085 14.99834h4v1h-4z"/><path d="m3.50085 17.99834h4v1h-4z"/><path d="m3.50085 20.99834h4v1h-4z"/><path d="m3.50085 23.99834h4v1h-4z"/><path d="m3.50085 26.99834h4v1h-4z"/><path d="m3.50085 29.99834h4v1h-4z"/><path d="m3.50085 32.99834h4v1h-4z"/><path d="m3.50085 35.99834h4v1h-4z"/><path d="m3.50085 38.99834h4v1h-4z"/><path d="m3.50085 41.99834h4v1h-4z"/></g></g></g></svg>