<svg viewBox="0 0 32 32" xmlns="http://www.w3.org/2000/svg" xmlns:xlink="http://www.w3.org/1999/xlink"><filter id="a" color-interpolation-filters="sRGB" height="1.094553" width="1.097492" x="-.048746" y="-.047277"><feGaussianBlur stdDeviation=".36559322"/></filter><linearGradient id="b" gradientUnits="userSpaceOnUse" x1="-39.900205" x2="-39.900205" y1="24.122624" y2="-2.177072"><stop offset="0" stop-color="#f5f5f5"/><stop offset=".3888889" stop-color="#fdfdfd"/><stop offset="1" stop-color="#fff"/></linearGradient><path d="m6 27.940678h20v2.559322h-20z" filter="url(#a)" opacity=".15" stroke-width="1.015418"/><path d="m6 2c-.554 0-1 .446-1 1v25.988281c0 .554.446 1 1 1h20c.554 0 1-.446 1-1v-17.328125l-9.664062-9.660156z" fill="#925100"/><path d="m6 3v.5 25 .5h.4999 18.9996.5v-.5l.0025-16.01156v-.2188l-.1562-.1562-9.004113-8.98844-.125-.125h-.2188-9.997987z" fill="#f9f9f9"/><path d="m6.9981 4 9.0019-.01156 9 9-.0025 15.01156h-17.9994z" fill="url(#b)"/><path d="m20.5 2c-.444396.00155-.666668.5381963-.353516.8535156l6 6c.315319.3131528.851964.0908811.853516-.3535156v-6c-.000383-.2759834-.224017-.4996166-.5-.5z" fill="#925100"/><g stroke="#ff9500" transform="translate(0 1)"><path d="m17.499038 16.996269a4.4999962 4.4999962 0 0 1 -4.499996 4.499996 4.4999962 4.4999962 0 0 1 -4.4999966-4.499996 4.4999962 4.4999962 0 0 1 4.4999966-4.499996 4.4999962 4.4999962 0 0 1 4.499996 4.499996z" fill="#ffa914" stroke="#ad3a00" stroke-width=".999997"/><path d="m16.49891 21.49636h7v-5.99998h-7z" fill="#ff9500" stroke="#925100" stroke-linecap="round" stroke-linejoin="round" stroke-width=".999999"/><path d="m19.49891 24.4964h-11l5-9z" fill="#ffd60a" stroke="#a05a00" stroke-linecap="round" stroke-linejoin="round"/><g fill="#fff" stroke="#98989d"><path d="m12.49891 15.49636h2v2h-2z"/><path d="m17.49891 23.49636h2v2h-2z"/><path d="m8.49891 23.49636h2v2h-2z"/></g></g><g transform="translate(.5009 .00368)"><path id="c" d="m6.4991 3.99632h1v1h-1z" fill="#98989d"/><path id="d" d="m2.4991 3.99632h3v1h-3z" fill="#98989d"/><g fill="#98989d"><use height="1085" transform="translate(0 2)" width="5033" xlink:href="#d"/><use height="1085" transform="translate(0 4)" width="5033" xlink:href="#d"/><use height="1085" transform="translate(0 6)" width="5033" xlink:href="#d"/><use height="1085" transform="translate(0 8)" width="5033" xlink:href="#d"/><use height="1085" transform="translate(0 10)" width="5033" xlink:href="#d"/><use height="1085" transform="translate(0 12)" width="5033" xlink:href="#d"/><use height="1085" transform="translate(0 14)" width="5033" xlink:href="#d"/><use height="1085" transform="translate(0 16)" width="5033" xlink:href="#d"/><use height="1085" transform="translate(0 18)" width="5033" xlink:href="#d"/><use height="1085" transform="translate(0 20)" width="5033" xlink:href="#d"/><use height="1085" transform="translate(0 22)" width="5033" xlink:href="#d"/><use height="1085" transform="translate(0 24)" width="5033" xlink:href="#d"/><use height="1085" transform="translate(0 2)" width="5033" xlink:href="#c"/><use height="1085" transform="translate(0 4)" width="5033" xlink:href="#c"/><use height="1085" transform="translate(0 6)" width="5033" xlink:href="#c"/><use height="1085" transform="translate(0 8)" width="5033" xlink:href="#c"/><use height="1085" transform="translate(0 10)" width="5033" xlink:href="#c"/><use height="1085" transform="translate(0 12)" width="5033" xlink:href="#c"/><use height="1085" transform="translate(0 14)" width="5033" xlink:href="#c"/><use height="1085" transform="translate(0 16)" width="5033" xlink:href="#c"/><use height="1085" transform="translate(0 18)" width="5033" xlink:href="#c"/><use height="1085" transform="translate(0 20)" width="5033" xlink:href="#c"/><use height="1085" transform="translate(0 22)" width="5033" xlink:href="#c"/><use height="1085" transform="translate(0 24)" width="5033" xlink:href="#c"/></g></g></svg>