<svg height="96" width="96" xmlns="http://www.w3.org/2000/svg" xmlns:xlink="http://www.w3.org/1999/xlink"><filter id="a" color-interpolation-filters="sRGB" height="1.094553" width="1.097492" x="-.048746" y="-.047277"><feGaussianBlur stdDeviation=".36559322"/></filter><linearGradient id="b" gradientUnits="userSpaceOnUse" x1="14.987305" x2="14.987305" y1="87" y2="9"><stop offset="0" stop-color="#f5f5f5"/><stop offset=".3888889" stop-color="#fdfdfd"/><stop offset="1" stop-color="#fff"/></linearGradient><text x="446.73111" y="-244.83366"><tspan x="446.73111" y="-244.83366"/></text><path d="m17.012696 6c-1.108 0-1.999648.8920001-2 2l-.02539 80c-.000352 1.108.892 2 2 2h62c1.108 0 1.958459-.892779 2-2l.02539-53.984375-28.025391-28.015625z" fill="#ad3a00"/><path d="m15.986105 7v1.5l.0012 80.04554v.45446h1.499981 61.000059 1.49996v-1.45446l-.000001-52.003348v-.6564l-.46872-.4686-27.311935-27.00002-.37496-.375h-.65626l-33.689344-.042172z" fill="#f9f9f9" stroke-width="2"/><path d="m60.012696 6c-.890637.0003496-1.336587 1.0770367-.707031 1.7070312l20 19.9999998c.629995.629556 1.706681.183606 1.707031-.707031v-20c-.000055-.5522619-.447738-.9999448-1-1z" fill="#ad3a00"/><path d="m16.988504 7.996712 33.501226.04546 28.497575 26.957828v53l-62.000001-.0033z" fill="url(#b)" stroke-width="2"/><path d="m16 88.44068h64v2.55932h-64z" filter="url(#a)" opacity=".15" stroke-width="1.015418"/><rect fill="none" height="31.500017" rx=".75" width="45" x="25.500017" y="40.249973"/><path d="m25 40h46v32h-46z" fill="#fff"/><rect fill="none" height="23.570576" rx="1.5" transform="rotate(90)" width="11.756208" x="59.993778" y="-59.570587"/><path d="m51.375 64.624998 4.125-4.125 3 3 5.625-5.625" fill="none" stroke="#0040dd" stroke-linecap="round" stroke-linejoin="round" stroke-width="1.125"/><g fill="#ad3a00"><path d="m29 43h38v3h-38z"/><path d="m36 48h24v2h-24z"/><path d="m33 55h12v2h-12z"/><path d="m33 60h12v2h-12z"/><path d="m33 66h12v2h-12z"/><circle cx="30" cy="56" r="1"/><circle cx="30" cy="61" r="1"/><circle cx="30" cy="67" r="1"/><path d="m48 55v13h19v-13zm1 1h17v11h-17z"/><path d="m25 39c-.554 0-1 .446-1 1v32c0 .554.446 1 1 1h46c.554 0 1-.446 1-1v-32c0-.554-.446-1-1-1zm0 1h46v32h-46z"/></g><rect fill="none" height="31.500017" rx=".75" width="45" x="25.500017" y="40.249973"/><path d="m25 40h46v32h-46z" fill="#fff"/><rect fill="none" height="23.570576" rx="1.5" transform="rotate(90)" width="11.756208" x="59.993778" y="-59.570587"/><path d="m51.375 64.624998 4.125-4.125 3 3 5.625-5.625" fill="none" stroke="#0040dd" stroke-linecap="round" stroke-linejoin="round" stroke-width="1.125"/><g fill="#ad3a00"><path d="m29 43h38v3h-38z"/><path d="m36 48h24v2h-24z"/><path d="m33 55h12v2h-12z"/><path d="m33 60h12v2h-12z"/><path d="m33 66h12v2h-12z"/><circle cx="30" cy="56" r="1"/><circle cx="30" cy="61" r="1"/><circle cx="30" cy="67" r="1"/><path d="m48 55v13h19v-13zm1 1h17v11h-17z"/><path d="m25 39c-.554 0-1 .446-1 1v32c0 .554.446 1 1 1h46c.554 0 1-.446 1-1v-32c0-.554-.446-1-1-1zm0 1h46v32h-46z"/></g><g fill="#98989d" transform="translate(3 4)"><path d="m15 6h3v3h-3z"/><path d="m6 6h7v3h-7z"/><path d="m15 14h3v3h-3z"/><path d="m6 14h7v3h-7z"/><path d="m15 22h3v3h-3z"/><path d="m6 22h7v3h-7z"/><path d="m15 30h3v3h-3z"/><path d="m6 30h7v3h-7z"/><path d="m15 38h3v3h-3z"/><path d="m6 38h7v3h-7z"/><path d="m15 46h3v3h-3z"/><path d="m6 46h7v3h-7z"/><path d="m15 54h3v3h-3z"/><path d="m6 54h7v3h-7z"/><path d="m15 62h3v3h-3z"/><path d="m6 62h7v3h-7z"/><path d="m15 70h3v3h-3z"/><path d="m6 70h7v3h-7z"/><path d="m15 78h3v3h-3z"/><path d="m6 78h7v3h-7z"/></g></svg>