<svg height="96" width="96" xmlns="http://www.w3.org/2000/svg" xmlns:xlink="http://www.w3.org/1999/xlink"><filter id="a" color-interpolation-filters="sRGB" height="1.094553" width="1.097492" x="-.048746" y="-.047277"><feGaussianBlur stdDeviation=".36559322"/></filter><linearGradient id="b" gradientUnits="userSpaceOnUse" x1="14.987305" x2="14.987305" y1="87" y2="9"><stop offset="0" stop-color="#f5f5f5"/><stop offset=".3888889" stop-color="#fdfdfd"/><stop offset="1" stop-color="#fff"/></linearGradient><text x="446.73111" y="-244.83366"><tspan x="446.73111" y="-244.83366"/></text><path d="m17.012696 6c-1.108 0-1.999648.8920001-2 2l-.02539 80c-.000352 1.108.892 2 2 2h62c1.108 0 1.958459-.892779 2-2l.02539-53.984375-28.025391-28.015625z" fill="#0040dd"/><path d="m15.986105 7v1.5l.0012 80.04554v.45446h1.499981 61.000059 1.49996v-1.45446l-.000001-40.664184v-11.339164-.6564l-.46872-.4686-27.311935-27.00002-.37496-.375h-.65626l-33.689344-.042172z" fill="#f9f9f9" stroke-width="2"/><path d="m60.012696 6c-.890637.0003496-1.336587 1.0770367-.707031 1.7070312l20 19.9999998c.629995.629556 1.706681.183606 1.707031-.707031v-20c-.000055-.5522619-.447738-.9999448-1-1z" fill="#0040dd"/><path d="m16.988504 7.996712 33.501226.04546 28.497575 26.957828v53l-62.000001-.0033z" fill="url(#b)" stroke-width="2"/><path d="m16 88.44068h64v2.55932h-64z" filter="url(#a)" opacity=".15" stroke-width="1.015418"/><g transform="translate(-.249197 -30.9973)"><path d="m26.249197 67.997302v1.999998h13.5v-1.999998zm0 6v1.999998h13.5v-1.999998zm0 6v1.999998h13.5v-1.999998zm0 6v1.999998h13.5v-1.999998zm0 6v1.999998h48.000001v-1.999998zm0 6v1.999996h48.000001v-1.999996zm0 5.999998v2h31.500001v-2z" fill="#0040dd"/><path d="m43.249197 68.7473 30.999025.0015v21h-31.499415z" fill="#fff"/><path d="m43.249197 67.9973 30.999025.0015v21l-30.999025-.0015z" fill="#0040dd"/><path d="m59.449813 78.20573c-2.693978-2.276475-4.04991-5.125-5.849873-7.87495-.526342.161925-.506235.100351-.899985 0 0 0-2.407972 4.64365-3.599925 6.499975-1.191937 1.8564-4.851275 4.33322-4.851275 4.33322v1.8333l23.199475-.0015s-6.194638-3.386523-7.998418-4.789923z" fill="#fff"/><path d="m65.299692 73.08073c1.799963.916726 5.677267 4.85877 7.948012 7.166596v2.74995l-21.448244.250105c3.600442-4.58325 9.00033-8.333275 13.500232-10.166651z" fill="#fff"/><path d="m73.248709 81.913975h-1.160159l-4.639315.915103s-6.328527-1.123323-7.092567-1.123323c-.75069 0-3.15681.458325-3.607058.458325-.315555 0-2.249693-.916649-2.707073-.916649-.754642 0-1.624267.97395-3.874214 1.374975 0 0-.646425-1.46085-1.068293-1.374975-2.69994 1.0599-4.851275.666544-4.851275.666544v6.083326h28.99895l.000749-6.083326h.000105z" fill="#2a9240"/><path d="m73.248747 73.500398c-2.48528 0-3.999608-2.016265-3.99961-4.501547l3.99961.0015z" fill="#ffd60a"/><path d="m44.249197 68.9973v19h29v-19zm1 1h27v17h-27z" fill="#fff"/></g><g fill="#98989d" transform="translate(3 4)"><path d="m15 6h3v3h-3z"/><path d="m6 6h7v3h-7z"/><path d="m15 14h3v3h-3z"/><path d="m6 14h7v3h-7z"/><path d="m15 22h3v3h-3z"/><path d="m6 22h7v3h-7z"/><path d="m15 30h3v3h-3z"/><path d="m6 30h7v3h-7z"/><path d="m15 38h3v3h-3z"/><path d="m6 38h7v3h-7z"/><path d="m15 46h3v3h-3z"/><path d="m6 46h7v3h-7z"/><path d="m15 54h3v3h-3z"/><path d="m6 54h7v3h-7z"/><path d="m15 62h3v3h-3z"/><path d="m6 62h7v3h-7z"/><path d="m15 70h3v3h-3z"/><path d="m6 70h7v3h-7z"/><path d="m15 78h3v3h-3z"/><path d="m6 78h7v3h-7z"/></g></svg>