<svg height="48" width="48" xmlns="http://www.w3.org/2000/svg" xmlns:xlink="http://www.w3.org/1999/xlink"><filter id="a" color-interpolation-filters="sRGB" height="1.094553" width="1.097492" x="-.048746" y="-.047277"><feGaussianBlur stdDeviation=".36559322"/></filter><linearGradient id="b" gradientUnits="userSpaceOnUse" x1="7.000306" x2="7.000306" y1="42.999999" y2="4.5"><stop offset="0" stop-color="#f5f5f5"/><stop offset=".3888889" stop-color="#fdfdfd"/><stop offset="1" stop-color="#fff"/></linearGradient><path d="m8 42.940678h32v2.559322h-32z" filter="url(#a)" opacity=".15" stroke-width="1.015418"/><path d="m8.9996938 2.9789143c-1.107999-.00146-2 .8810264-2 1.9765625v38.0468752c0 1.095536.8920003 1.975784 2 1.976562l30.0006122.021086c1.108.000779 2-.881026 2-1.976562l-.000306-24.023438-15.999694-16z" fill="#0040dd"/><path d="m8.0003062 4v.75 38.50004.72723h.74999l30.5000418.02109h.74998v-.72723l-.000306-23.50003v-.3282l-.23436-.2343-14.905674-15.0000103-.18748-.1875h-.32813l-15.5940718-.0210897z" fill="#f9f9f9"/><path d="m8.9996938 4.9789143 15.0006122.0210857 14.999694 15 .000306 23-30.0006122-.021086z" fill="url(#b)"/><g fill="#0040dd"><path d="m30 3c-.890637.0003496-1.336587 1.0770367-.707031 1.7070312l10 9.9999998c.629995.629556 1.706681.183606 1.707031-.707031l.000306-10c-.000055-.5522619-.447738-.9999448-1-1z"/><g transform="translate(-203.0007 842.63618)"><path d="m216.0007-816.63618 6.9993-.002v1l-6.9993.002z"/><path d="m216.0007-824.63618 6.9993-.002.0007 1.002-6.9993.002z"/><path d="m216.0007-812.63618 21.99999-.0003.001 1.0017-21.99999.0003z"/><path d="m216.0007-804.63612 16.0001-.0003.00099 1.00164-16.0001.0003z"/><path d="m216.0007-820.63618 6.9993-.002.0007 1.0017-6.9993.002z"/><path d="m216.0007-808.63618 21.99999-.0003v1l-21.99999.0003z"/></g><path d="m21.999301 17.9983 13.000699.0017v10.00009l-13.000699-.0017z"/></g><path d="m22.999301 18.99836 11.001089.0017v8.00002l-11.001089-.0017z" fill="#fff"/><path d="m29.00039 25.00008-2.501089-4.5017-3.5 5.5v1l11.000719.0017v-1l-2.49963-3z" fill="#98989d"/><path d="m34.00039 22.000066c-1.656854 0-2.999999-1.343145-3-3h3z" fill="#ffd60a"/><g fill="#98989d" transform="translate(1.49915)"><g><path d="m8.50085 5.99834h1v1h-1z"/><path d="m8.50085 8.99834h1v1h-1z"/><path d="m8.50085 11.99834h1v1h-1z"/><path d="m8.50085 14.99834h1v1h-1z"/><path d="m8.50085 17.99834h1v1h-1z"/><path d="m8.50085 20.99834h1v1h-1z"/><path d="m8.50085 23.99834h1v1h-1z"/><path d="m8.50085 26.99834h1v1h-1z"/><path d="m8.50085 29.99834h1v1h-1z"/><path d="m8.50085 32.99834h1v1h-1z"/><path d="m8.50085 35.99834h1v1h-1z"/><path d="m8.50085 38.99834h1v1h-1z"/><path d="m8.50085 41.99834h1v1h-1z"/></g><g><path d="m3.50085 5.99834h4v1h-4z"/><path d="m3.50085 8.99834h4v1h-4z"/><path d="m3.50085 11.99834h4v1h-4z"/><path d="m3.50085 14.99834h4v1h-4z"/><path d="m3.50085 17.99834h4v1h-4z"/><path d="m3.50085 20.99834h4v1h-4z"/><path d="m3.50085 23.99834h4v1h-4z"/><path d="m3.50085 26.99834h4v1h-4z"/><path d="m3.50085 29.99834h4v1h-4z"/><path d="m3.50085 32.99834h4v1h-4z"/><path d="m3.50085 35.99834h4v1h-4z"/><path d="m3.50085 38.99834h4v1h-4z"/><path d="m3.50085 41.99834h4v1h-4z"/></g></g></svg>