<svg height="280" viewBox="0 0 71.4375 74.083334" width="270" xmlns="http://www.w3.org/2000/svg" xmlns:xlink="http://www.w3.org/1999/xlink"><radialGradient id="a" cx="191.93558" cy="260.01675" gradientTransform="matrix(1 0 0 .25 0 195.01257)" gradientUnits="userSpaceOnUse" r="96.589157"><stop offset="0" stop-color="#555753"/><stop offset="1" stop-color="#555753" stop-opacity="0"/></radialGradient><linearGradient id="b" gradientUnits="userSpaceOnUse" x1="231.126698" x2="212.276564" y1="204.394366" y2="181.445562"><stop offset="0" stop-color="#898989"/><stop offset="1" stop-color="#7a7a7a"/></linearGradient><linearGradient id="c" gradientUnits="userSpaceOnUse" x1="194.112284" x2="140.400074" y1="252.031827" y2="184.408617"><stop offset="0" stop-color="#898989"/><stop offset="1" stop-color="#707070"/></linearGradient><linearGradient id="d" gradientUnits="userSpaceOnUse" x1="567.72363" x2="585.23859" y1="331.86993" y2="291.02176"><stop offset="0" stop-color="#6c6c6c"/><stop offset="1" stop-color="#707070"/></linearGradient><linearGradient id="e" gradientUnits="userSpaceOnUse" x1="569.92737" x2="563.19971" y1="285.49387" y2="250.52078"><stop offset="0" stop-color="#8f8f8f"/><stop offset="1" stop-color="#666"/></linearGradient><linearGradient id="f" gradientUnits="userSpaceOnUse" x1="528.46619" x2="519.39166" y1="315.15857" y2="272.37897"><stop offset="0" stop-color="#595959"/><stop offset="1" stop-color="#4c4c4c" stop-opacity=".775701"/></linearGradient><g transform="matrix(.1972271 0 0 .1972271 1.303436 12.746817)"><ellipse cx="191.93558" cy="260.01675" fill="url(#a)" opacity=".3" rx="96.589157" ry="24.147289"/><g stroke-width="2.36286" transform="matrix(1.391253 0 0 1.3941714 -533.2445 -225.05627)"><path d="m559.75808 352.07323 33.31466-61.47602c1.4697-6.023-1.97313-6.16331-4.46182-7.44618l-46.99645-8.57892 2.21262 69.1107z" fill="url(#d)"/><path d="m559.31747 346.69112 14.16089-46.14743 10.17818 2.20805-.66382-20.53451-15.48846-4.41604z" fill-opacity=".107477"/><path d="m485.05138 287.38962-1.10631-19.92757c.81928-3.92383 1.5123-7.70468 9.91499-7.30657l69.82249 3.37595c5.16976-.0763 10.142 2.33077 8.24048 10.11308l-10.97805 75.7902-73.01716-32.89932z" fill="#505050"/><path d="m528.3785 282.32959 38.49996-37.75695 16.59481 56.52507z" fill="url(#e)"/><path d="m468.46614 280.93576-4.3808-24.98078 68.84124-6.55746 6.57121 59.95387-52.88259 1.5613z" fill="#8f8f8f"/><path d="m544.71405 266.54035 14.16089.8832c3.79744 1.64666 6.08533 4.38887 6.63793 8.39048l-.88505 18.98883-19.80312-6.95521-4.86783-16.78084z" fill-opacity=".11215"/><path d="m471.35917 266.91442 4.8504-3.82518 57.8891-2.10775 1.2517 10.4607z" fill-opacity=".126168"/><path d="m472.21806 306.59934-2.36914-32.51324c-.81217-6.08743 1.18095-8.12639 5.59972-8.99383l78.19002 4.43735c2.71862.0101 7.73133 1.27887 7.30633 10.16335l-.88507 66.65054-86.07177-26.27534z" fill="url(#f)"/><rect fill="#7b7b7b" height="5.874827" ry="1.26712" transform="matrix(.98134031 .19227896 -.19305644 .98118765 0 0)" width="5.886236" x="600.6347" y="127.99949"/><path d="m472.92377 295.17395-2.65977-17.64268c.90631-2.25.54746-4.97343 7.82287-4.84002l23.01087 1.42254c4.90509.4923 10.90201.80331 13.75661 4.97878l5.78892 4.6839c1.69034-1.9149 2.44219-4.29805 5.63247-5.46455l23.78151 1.24904c2.51701.70025 6.06338 2.54259 6.2583 11.55361l3.59852 55.4261z" fill-opacity=".126168"/><path d="m469.81615 274.04758c.62297-3.91962-.19841-8.50446 7.7442-9.05285l77.7744 4.85764" fill="none" stroke="#808080" stroke-width=".625174"/><rect fill="#a8a8a8" height="5.874827" ry="1.26712" transform="matrix(.98134031 .19227896 -.19305644 .98118765 0 0)" width="5.886236" x="627.01733" y="179.05994"/></g><g stroke-width="1.534967"><path d="m124.95277 257.26328c-4.88419-.38486-5.76876-3.03066-6.66089-5.66718l-20.145839-79.32442c-1.67798-7.40574 2.828419-8.16449 5.761819-9.56796l70.61563 4.29105 66.80033 68.95486 6.15672 26.47379-4.3096 3.38617z" fill="url(#c)"/><path d="m97.856111 168.00842 70.821619 2.63511c3.13973.074 5.38735 1.16797 7.09263 2.88173l47.31855 47.84413 1.84712-1.42718-47.32942-50.02311c-2.71918-4.04212-5.82304-3.44367-8.15751-3.77935l-65.8838-2.80165c-4.070029 1.55675-5.380759 3.11356-5.709189 4.67032z" fill="#8a8a8a"/><path d="m192.78009 168.98941 30.46413 1.02472 10.23929 10.42239 7.71129 32.01412c1.46309 7.34601-5.30607 5.33868-9.75322.82983l-40.94001-40.8612z" fill="url(#b)"/><path d="m190.45715 172.50421 30.71224 1.55633c5.86482.67401 6.41044 4.33998 8.09271 7.3667l10.68716 31.95689-.10534-7.15908-6.28869-27.37528c-1.31402-4.47205-3.66066-8.3999-10.45286-9.31137l-26.31674-2.20884c-2.74584-.0411-5.21459.65281-5.63942 2.49662z" fill="#8a8a8a"/></g></g></svg>