<?xml version="1.0" encoding="UTF-8" standalone="no"?>
<svg
   xmlns:dc="http://purl.org/dc/elements/1.1/"
   xmlns:cc="http://creativecommons.org/ns#"
   xmlns:rdf="http://www.w3.org/1999/02/22-rdf-syntax-ns#"
   xmlns:svg="http://www.w3.org/2000/svg"
   xmlns="http://www.w3.org/2000/svg"
   xmlns:sodipodi="http://sodipodi.sourceforge.net/DTD/sodipodi-0.dtd"
   xmlns:inkscape="http://www.inkscape.org/namespaces/inkscape"
   viewBox="0 0 16 16"
   version="1.1"
   id="svg11"
   sodipodi:docname="sc20245.svg"
   inkscape:version="0.92.3 (unknown)"><metadata
   id="metadata17">
  <rdf:RDF>
    <cc:Work
       rdf:about="">
      <dc:format>image/svg+xml</dc:format>
      <dc:type
         rdf:resource="http://purl.org/dc/dcmitype/StillImage" />
      <dc:title></dc:title>
    </cc:Work>
  </rdf:RDF>
</metadata>
<defs
   id="defs15" />
<sodipodi:namedview
   pagecolor="#ffffff"
   bordercolor="#666666"
   borderopacity="1"
   objecttolerance="10"
   gridtolerance="10"
   guidetolerance="10"
   inkscape:pageopacity="0"
   inkscape:pageshadow="2"
   inkscape:window-width="1366"
   inkscape:window-height="706"
   id="namedview13"
   showgrid="false"
   inkscape:zoom="14.75"
   inkscape:cx="-0.71186441"
   inkscape:cy="8"
   inkscape:window-x="0"
   inkscape:window-y="0"
   inkscape:window-maximized="1"
   inkscape:current-layer="svg11" />
<linearGradient
   id="a"
   gradientUnits="userSpaceOnUse"
   x1="-14.163615"
   x2="-14.129716"
   y1="1.364407"
   y2="-7.245763">
  <stop
     offset="0"
     stop-color="#0040dd"
     id="stop2" />
  <stop
     offset="1"
     stop-color="#0a84ff"
     id="stop4" />
</linearGradient>





     /&amp;amp;amp;gt;
 <path
   d="m5.5364663 1.0000351c-.2826966-.00348741-.5134911.2532544-.5136411.5712738v7.8572248c.0003644.3914471.3424145.6666763.6718345.5405141l8.9857803-3.4298459c.436841-.1695915.46197-.8538975.03906-1.0634501l-8.9838292-4.4273788c-.0628333-.0310838-.1305756-.0475313-.1992067-.0483413z"
   fill="url(#a)"
   id="path7" />
<path
   d="m2.9771752 1c-.554 0-1 .446-1 1v13c0 .554.446 1 1 1s1-.446 1-1v-13c0-.554-.446-1-1-1z"
   fill="#98989d"
   id="path9" />
<g
   style="fill:#eac282"
   transform="translate(-0.49557199,-0.5)"
   id="g984">
  <path
     style="fill:#a2a2a7;stroke:#848489;stroke-linecap:square"
     inkscape:connector-curvature="0"
     d="M 8.0648836,13.101074 6.9955722,15.81356 9.9183494,15.156465 Z"
     id="path976" />
  <path
     style="fill:#ffcc00;stroke:#c89e00"
     inkscape:connector-curvature="0"
     d="m 11.861005,8.958496 -3.524935,3.651053 2.158551,2.207933 3.493336,-3.734963 z"
     id="path978" />
  <path
     style="fill:#e68497;stroke:#b6496c"
     inkscape:connector-curvature="0"
     d="m 14.065594,7 c -0.142171,0 -0.283638,0.05379 -0.392578,0.1625977 l -1.255371,1.2524416 2.135742,2.1372067 1.283203,-1.229004 c 0.21788,-0.2175952 0.21788,-0.5675602 0,-0.7851562 L 14.459637,7.1625977 C 14.350696,7.0537997 14.207766,7 14.065594,7 Z"
     id="path980" />
  <path
     style="fill:#ffe014"
     inkscape:connector-curvature="0"
     d="M 13.411678,10.101871 12.859477,9.5663202 9.2676444,13 9.9955722,13.5 Z"
     id="path982" />
</g>
</svg>
