<?xml version="1.0" encoding="UTF-8" standalone="no"?>
<svg
   xmlns:dc="http://purl.org/dc/elements/1.1/"
   xmlns:cc="http://creativecommons.org/ns#"
   xmlns:rdf="http://www.w3.org/1999/02/22-rdf-syntax-ns#"
   xmlns:svg="http://www.w3.org/2000/svg"
   xmlns="http://www.w3.org/2000/svg"
   xmlns:xlink="http://www.w3.org/1999/xlink"
   xmlns:sodipodi="http://sodipodi.sourceforge.net/DTD/sodipodi-0.dtd"
   xmlns:inkscape="http://www.inkscape.org/namespaces/inkscape"
   viewBox="0 0 16 16"
   version="1.1"
   id="svg12"
   sodipodi:docname="sr20018.svg"
   inkscape:version="0.92.3 (unknown)"><metadata
   id="metadata18">
  <rdf:RDF>
    <cc:Work
       rdf:about="">
      <dc:format>image/svg+xml</dc:format>
      <dc:type
         rdf:resource="http://purl.org/dc/dcmitype/StillImage" />
      <dc:title></dc:title>
    </cc:Work>
  </rdf:RDF>
</metadata>
<defs
   id="defs16">
  <linearGradient
     gradientTransform="rotate(90,24.937234,21.49952)"
     id="a"
     gradientUnits="userSpaceOnUse"
     x1="17"
     x2="6"
     y1="3"
     y2="3">
    <stop
       offset="0"
       stop-color="#0040dd"
       id="stop1060" />
    <stop
       offset="1"
       stop-color="#0a84ff"
       id="stop1062" />
  </linearGradient>
  <linearGradient
     inkscape:collect="always"
     xlink:href="#a"
     id="linearGradient849"
     x1="6.5154095"
     y1="9.713089"
     x2="14.808876"
     y2="9.713089"
     gradientUnits="userSpaceOnUse" />
  <linearGradient
     inkscape:collect="always"
     xlink:href="#a"
     id="linearGradient875"
     gradientUnits="userSpaceOnUse"
     x1="10.5"
     y1="13"
     x2="10.5"
     y2="6.5" />
  <linearGradient
     inkscape:collect="always"
     xlink:href="#a"
     id="linearGradient877"
     gradientUnits="userSpaceOnUse"
     x1="10.5"
     y1="13"
     x2="10.5"
     y2="6.5" />
</defs>
<sodipodi:namedview
   pagecolor="#ffffff"
   bordercolor="#666666"
   borderopacity="1"
   objecttolerance="10"
   gridtolerance="10"
   guidetolerance="10"
   inkscape:pageopacity="0"
   inkscape:pageshadow="2"
   inkscape:window-width="1366"
   inkscape:window-height="706"
   id="namedview14"
   showgrid="false"
   inkscape:zoom="14.75"
   inkscape:cx="0.52862252"
   inkscape:cy="6.0810298"
   inkscape:window-x="0"
   inkscape:window-y="0"
   inkscape:window-maximized="1"
   inkscape:current-layer="svg12">
  <inkscape:grid
     type="xygrid"
     id="grid819" />
</sodipodi:namedview>

/&amp;amp;amp;gt;<path
   d="m0 5v9.5c-.00038442.276301.22369855.500384.5.5h15c.276301.000384.500384-.223699.5-.5v-9.5h-.998047v9.001953h-14.00390612v-9.001953z"
   fill="#69696e"
   id="path2" />
<path
   d="m1 5h14v9h-14z"
   fill="#fff"
   id="path4" />
<path
   d="m0 1h16v4h-16z"
   fill="#fff"
   id="path6"
   style="fill:#a2a2a7;fill-opacity:1" />
<path
   d="M 5 5 L 5 9 L 1 9 L 1 10 L 5 10 L 5 14 L 6 14 L 6 10 L 6 9 L 6 5 L 5 5 z "
   id="path8"
   style="fill:#aeaeb1;fill-opacity:1" />
<path
   d="m.50195312 1.0019531c-.27630145-.000384-.50038441.223699-.49999999.5v3.4980469h.99804687 14v-1h-4v-2h4.003906v3h.998047v-3.4980469c.000384-.276301-.223699-.500384-.5-.5zm.49804688.9980469h4v2h-4zm5 0h4v2h-4z"
   fill="#69696e"
   id="path10" />
<g
   aria-label="fn"
   style="font-style:normal;font-weight:normal;font-size:8.8371582px;line-height:1.25;font-family:sans-serif;letter-spacing:0px;word-spacing:0px;fill:url(#linearGradient849);fill-opacity:1;stroke:none;stroke-width:0.22092895"
   id="text827">
  <path
     d="M 6.5154097,9.0852537 V 8.455261 H 7.2446479 V 7.8641034 q 0,-0.7464982 0.3883516,-1.1521099 0.3926667,-0.4099268 1.0916998,-0.4099268 0.1467106,0 0.2934212,0.02589 0.1510257,0.021575 0.3322565,0.064725 L 9.2468165,7.0399349 q -0.07767,-0.01726 -0.1898608,-0.030205 -0.1078755,-0.012945 -0.224381,-0.012945 -0.3754066,0 -0.5566374,0.224381 Q 8.0947065,7.4412316 8.0947065,7.8641034 V 8.455261 H 9.0699008 V 9.0852537 H 8.0947065 v 3.3743443 l 0.7033481,0.120821 v 0.543692 H 6.5412998 V 12.580419 L 7.2446479,12.459598 V 9.0852537 Z"
     style="font-style:normal;font-variant:normal;font-weight:normal;font-stretch:normal;font-family:'Roboto Slab';-inkscape-font-specification:'Roboto Slab';fill:url(#linearGradient875);fill-opacity:1;stroke-width:0.22092895"
     id="path851" />
  <path
     d="M 9.6135931,12.580419 10.316941,12.459598 V 9.1240889 L 9.6135931,9.0032684 V 8.455261 h 1.4627909 l 0.06041,0.694718 q 0.233011,-0.3710916 0.582527,-0.5738975 0.353832,-0.2071209 0.802594,-0.2071209 0.755128,0 1.16937,0.4444469 0.414242,0.4401319 0.414242,1.3635455 v 2.282645 l 0.703348,0.120821 v 0.543692 h -2.256755 v -0.543692 l 0.703348,-0.120821 v -2.265384 q 0,-0.6170482 -0.245956,-0.8759493 -0.241641,-0.2589011 -0.742183,-0.2589011 -0.366777,0 -0.651568,0.1769158 Q 11.335286,9.4131951 11.167,9.7195615 v 2.7400365 l 0.703348,0.120821 v 0.543692 H 9.6135931 Z"
     style="font-style:normal;font-variant:normal;font-weight:normal;font-stretch:normal;font-family:'Roboto Slab';-inkscape-font-specification:'Roboto Slab';fill:url(#linearGradient877);fill-opacity:1;stroke-width:0.22092895"
     id="path853" />
</g>
</svg>
