<svg viewBox="0 0 16 16" xmlns="http://www.w3.org/2000/svg" xmlns:xlink="http://www.w3.org/1999/xlink"><linearGradient id="a" gradientUnits="userSpaceOnUse" x1="8" x2="8" y1="4" y2="14"><stop offset="0" stop-color="#68caf8"/><stop offset=".5" stop-color="#70cef9"/><stop offset=".71428573" stop-color="#79d3fb"/><stop offset=".9285714" stop-color="#67c1ed"/><stop offset="1" stop-color="#67bfea"/></linearGradient><g fill-rule="evenodd" transform="translate(1 -1)"><path d="m3.5 2.5000002c.265199.0000511.519519.1054326.707031.2929688l3.207031 1.7070312 5.085938-.0000004c.552262.0000552.999945.4477381 1 1.0000002v9h-1-12v-8.5-2.5c.000055-.5522619.447738-.9999448 1-1z" fill="#94ddff" stroke="#2bbcff"/><path d="m.5 14.5h1 12v-7c.29761-.9920364-1.78201-.9921875-.742188-.9921875h-.002-1-1-8.9785156c-1.02113938 0-1.02076208-.0005516-1.27924988.9902344z" fill="url(#a)" stroke="#15b0f5"/></g><path d="m11 4.5v1h-2v1.5h-3v7h3 3 2v-9.5z" fill="#fff" fill-opacity=".784314"/><g fill="#98989d"><path d="m7 10v1 3a3.5 2 0 0 0 3.5 2 3.5 2 0 0 0 3.5-2h1c.554 0 1-.446 1-1v-2c0-.554-.446-1-1-1h-1zm1 1h5v2 1a2.5 1 0 0 1 -2.5 1 2.5 1 0 0 1 -2.5-1zm6 0h1v2h-1z"/><path d="m8 8h1v1h-1z"/><path d="m10 7h1v2h-1z"/><path d="m12 6h1v3h-1z"/></g><path d="m8 11v3a2.5 1 0 0 0 2.5 1 2.5 1 0 0 0 2.5-1v-3zm6 0v2h1v-2z" fill="#fff"/></svg>