<?xml version="1.0" encoding="UTF-8" standalone="no"?>
<svg
   xmlns:dc="http://purl.org/dc/elements/1.1/"
   xmlns:cc="http://creativecommons.org/ns#"
   xmlns:rdf="http://www.w3.org/1999/02/22-rdf-syntax-ns#"
   xmlns:svg="http://www.w3.org/2000/svg"
   xmlns="http://www.w3.org/2000/svg"
   xmlns:sodipodi="http://sodipodi.sourceforge.net/DTD/sodipodi-0.dtd"
   xmlns:inkscape="http://www.inkscape.org/namespaces/inkscape"
   viewBox="0 0 24 24"
   version="1.1"
   id="svg20"
   sodipodi:docname="lx03251.svg"
   inkscape:version="0.92.3 (unknown)"
   inkscape:export-filename="/home/rizmut/Dokumen/Rizmut/Github/libreoffice-style-sukapura/images_sukapura/res/lx03251.png"
   inkscape:export-xdpi="96"
   inkscape:export-ydpi="96">
  <metadata
     id="metadata26">
    <rdf:RDF>
      <cc:Work
         rdf:about="">
        <dc:format>image/svg+xml</dc:format>
        <dc:type
           rdf:resource="http://purl.org/dc/dcmitype/StillImage" />
        <dc:title></dc:title>
      </cc:Work>
    </rdf:RDF>
  </metadata>
  <defs
     id="defs24" />
  <sodipodi:namedview
     pagecolor="#ffffff"
     bordercolor="#666666"
     borderopacity="1"
     objecttolerance="10"
     gridtolerance="10"
     guidetolerance="10"
     inkscape:pageopacity="0"
     inkscape:pageshadow="2"
     inkscape:window-width="1366"
     inkscape:window-height="706"
     id="namedview22"
     showgrid="false"
     inkscape:zoom="9.8333333"
     inkscape:cx="-4.9322034"
     inkscape:cy="12"
     inkscape:window-x="0"
     inkscape:window-y="0"
     inkscape:window-maximized="1"
     inkscape:current-layer="svg20" />
  <path
     d="m5 3v18h14v-12l-6-6z"
     fill="#fff"
     id="path2" />
  <g
     fill="#4d82b8"
     id="g18"
     style="fill:#0040dd;fill-opacity:1">
    <path
       d="m5 2c-.554 0-1 .446-1 1v18c0 .554.446 1 1 1h14c .554 0 1-.446 1-1v-9h-.002l.002-2.5c-.000025-.1325994-.05272-.2597597-.146484-.3535156l-7-7c-.093756-.0937682-.220916-.146459-.353516-.1464844h-2.5-4.5zm0 1h .4648438 4.5351562 2.292969l6.707031 6.7070312-.0078 7.5976568c-.000728.03338.0019.06675.0078.09961v3.595702h-14z"
       id="path4"
       style="fill:#0040dd;fill-opacity:1" />
    <path
       d="m15.411494 2.0075719c-.416024.1332524-.556031.766565-.235307 1.0643933l3.764927 3.7845094c.347817.331511 1.040564.047817 1.058886-.4336417v-3.7845094c-.000038-.3302491-.298947-.6307139-.627488-.6307516h-3.764929c-.06489-.010096-.131258-.010096-.196089 0z"
       id="path6"
       style="fill:#0040dd;fill-opacity:1" />
    <g
       stroke-width="5.01122"
       id="g16"
       style="fill:#0040dd;fill-opacity:1">
      <path
         d="m6 9h9v1h-9z"
         id="path8"
         style="fill:#0040dd;fill-opacity:1" />
      <path
         d="m6 15h12l-.000152 1h-11.999848z"
         id="path10"
         style="fill:#0040dd;fill-opacity:1" />
      <path
         d="m6.000114 18h7.999886l-.000114 1h-7.999886z"
         id="path12"
         style="fill:#0040dd;fill-opacity:1" />
      <path
         d="m6 12h12l-.000152 1h-11.999848z"
         id="path14"
         style="fill:#0040dd;fill-opacity:1" />
    </g>
  </g>
</svg>
