<?xml version="1.0" encoding="UTF-8" standalone="no"?>
<svg
   xmlns:dc="http://purl.org/dc/elements/1.1/"
   xmlns:cc="http://creativecommons.org/ns#"
   xmlns:rdf="http://www.w3.org/1999/02/22-rdf-syntax-ns#"
   xmlns:svg="http://www.w3.org/2000/svg"
   xmlns="http://www.w3.org/2000/svg"
   xmlns:xlink="http://www.w3.org/1999/xlink"
   xmlns:sodipodi="http://sodipodi.sourceforge.net/DTD/sodipodi-0.dtd"
   xmlns:inkscape="http://www.inkscape.org/namespaces/inkscape"
   viewBox="0 0 32 32"
   version="1.1"
   id="svg18"
   sodipodi:docname="odb_32_8.svg"
   inkscape:version="0.92.3 (unknown)"
   inkscape:export-filename="/home/rizmut/Dokumen/Rizmut/Github/libreoffice-style-sukapura/images_sukapura/res/odb_32_8.png"
   inkscape:export-xdpi="96"
   inkscape:export-ydpi="96">
  <metadata
     id="metadata24">
    <rdf:RDF>
      <cc:Work
         rdf:about="">
        <dc:format>image/svg+xml</dc:format>
        <dc:type
           rdf:resource="http://purl.org/dc/dcmitype/StillImage" />
        <dc:title></dc:title>
      </cc:Work>
    </rdf:RDF>
  </metadata>
  <defs
     id="defs22">
    <linearGradient
       gradientTransform="translate(-53.898305,-5.1770724)"
       id="a"
       gradientUnits="userSpaceOnUse"
       x1="7"
       x2="7"
       y1="20"
       y2="3">
      <stop
         offset="0"
         stop-color="#f5f5f5"
         id="stop971" />
      <stop
         offset=".3888889"
         stop-color="#fdfdfd"
         id="stop973" />
      <stop
         offset="1"
         stop-color="#fff"
         id="stop975" />
    </linearGradient>
    <linearGradient
       inkscape:collect="always"
       xlink:href="#a"
       id="linearGradient856"
       x1="15"
       y1="29.299696"
       x2="15"
       y2="3"
       gradientUnits="userSpaceOnUse" />
  </defs>
  <sodipodi:namedview
     pagecolor="#ffffff"
     bordercolor="#666666"
     borderopacity="1"
     objecttolerance="10"
     gridtolerance="10"
     guidetolerance="10"
     inkscape:pageopacity="0"
     inkscape:pageshadow="2"
     inkscape:window-width="1366"
     inkscape:window-height="706"
     id="namedview20"
     showgrid="true"
     inkscape:zoom="5.2149125"
     inkscape:cx="-4.4012423"
     inkscape:cy="14.754411"
     inkscape:window-x="0"
     inkscape:window-y="0"
     inkscape:window-maximized="1"
     inkscape:current-layer="svg18">
    <inkscape:grid
       type="xygrid"
       id="grid858" />
  </sodipodi:namedview>
  <path
     d="m4.6252731.00899256c-.9167679.17493262-1.6413825 1.06650924-1.6249431 1.99944994v27.9921785c.0001 1.046877.9528067 1.99935 1.99993 1.99945h21.99921c1.047123-.0001 1.99983-.952573 1.99993-1.99945v-17.454837c.012-.527977-.194993-1.057653-.56248-1.437106l-10.540471-10.53734203c-.379547-.36729853-.909349-.5745787-1.43745-.56234341h-11.458739c-.1245956-.01199538-.2503512-.01199538-.3749869 0z"
     fill="#9868b9"
     id="path2"
     style="fill:#8944ab;fill-opacity:1" />
  <path
     d="m21.658437.0153901c-.665617.21319788-.889629 1.2265076-.376487 1.7030241l6.023769 6.0552478c.556481.5304157 1.664862.07657 1.694181-.6938328v-6.0552278c-.00006-.52841648-.478303-1.00915133-1.003965-1.0092113h-6.023769c-.103796-.01599385-.209993-.01599385-.313729 0z"
     fill="#9868b9"
     id="path4"
     style="fill:#8944ab;fill-opacity:1" />
  <g
     fill="#fff"
     id="g16">
    <path
       d="m4.9982 2.01156v.5 27 .5h.4999 20.9996.5v-.5-17-.2188l-.1562-.1562-9.9373-10-.125-.125h-.2188-11.0623z"
       id="path6" />
    <path
       d="m5.9981 3.01156h10.0584l9.941 10v16h-19.9994z"
       id="path8"
       style="stroke:none;fill-opacity:1;fill:url(#linearGradient856)" />
    <path
       d="m8.4969 19.49638v4c0 1.10457 3.3579 2 7.5 2s7.5-.89543 7.5-2v-4z"
       stroke="#9868b9"
       id="path10"
       style="stroke:#8944ab;stroke-opacity:1" />
    <path
       d="m8.4969 14.99638v4c0 1.10457 3.3579 2 7.5 2s7.5-.89543 7.5-2v-4z"
       stroke="#9868b9"
       id="path12"
       style="stroke:#8944ab;stroke-opacity:1" />
    <ellipse
       cx="15.999883"
       cy="14.4971"
       rx="7.500004"
       ry="1.999998"
       stroke="#9868b9"
       stroke-width=".999999"
       id="ellipse14"
       style="stroke:#8944ab;stroke-opacity:1" />
  </g>
</svg>
