<?xml version="1.0" encoding="UTF-8" standalone="no"?>
<svg
   xmlns:dc="http://purl.org/dc/elements/1.1/"
   xmlns:cc="http://creativecommons.org/ns#"
   xmlns:rdf="http://www.w3.org/1999/02/22-rdf-syntax-ns#"
   xmlns:svg="http://www.w3.org/2000/svg"
   xmlns="http://www.w3.org/2000/svg"
   xmlns:xlink="http://www.w3.org/1999/xlink"
   xmlns:sodipodi="http://sodipodi.sourceforge.net/DTD/sodipodi-0.dtd"
   xmlns:inkscape="http://www.inkscape.org/namespaces/inkscape"
   viewBox="0 0 32 32"
   version="1.1"
   id="svg28"
   sodipodi:docname="odf_32_8.svg"
   inkscape:version="0.92.3 (unknown)"
   inkscape:export-filename="/home/rizmut/Dokumen/Rizmut/Github/libreoffice-style-sukapura/images_sukapura/res/odf_32_8.png"
   inkscape:export-xdpi="96"
   inkscape:export-ydpi="96">
  <metadata
     id="metadata34">
    <rdf:RDF>
      <cc:Work
         rdf:about="">
        <dc:format>image/svg+xml</dc:format>
        <dc:type
           rdf:resource="http://purl.org/dc/dcmitype/StillImage" />
        <dc:title />
      </cc:Work>
    </rdf:RDF>
  </metadata>
  <defs
     id="defs32">
    <linearGradient
       inkscape:collect="always"
       xlink:href="#a"
       id="linearGradient856"
       x1="15"
       y1="29.299696"
       x2="15"
       y2="3"
       gradientUnits="userSpaceOnUse" />
    <linearGradient
       gradientTransform="translate(-53.898305,-5.1770724)"
       id="a"
       gradientUnits="userSpaceOnUse"
       x1="7"
       x2="7"
       y1="20"
       y2="3">
      <stop
         offset="0"
         stop-color="#f5f5f5"
         id="stop971" />
      <stop
         offset=".3888889"
         stop-color="#fdfdfd"
         id="stop973" />
      <stop
         offset="1"
         stop-color="#fff"
         id="stop975" />
    </linearGradient>
  </defs>
  <sodipodi:namedview
     pagecolor="#ffffff"
     bordercolor="#666666"
     borderopacity="1"
     objecttolerance="10"
     gridtolerance="10"
     guidetolerance="10"
     inkscape:pageopacity="0"
     inkscape:pageshadow="2"
     inkscape:window-width="1366"
     inkscape:window-height="706"
     id="namedview30"
     showgrid="false"
     inkscape:zoom="3.6875"
     inkscape:cx="-14.546217"
     inkscape:cy="-3.6292025"
     inkscape:window-x="0"
     inkscape:window-y="0"
     inkscape:window-maximized="1"
     inkscape:current-layer="svg28" />
  <path
     d="m4.6252931.00899256c-.9167679.17493262-1.6413825 1.06650924-1.6249431 1.99944994v27.9921785c.0001 1.046877.9528067 1.99935 1.99993 1.99945h21.99921c1.047123-.0001 1.99983-.952573 1.99993-1.99945v-17.454837c.012-.527977-.194993-1.057653-.56248-1.437106l-10.540471-10.53734203c-.379547-.36729853-.909349-.5745787-1.43745-.56234341h-11.458739c-.1245956-.01199538-.2503512-.01199538-.3749869 0z"
     fill="#808080"
     id="path2"
     style="fill:#616165;fill-opacity:1" />
  <path
     d="m21.658457.0153901c-.665617.21319788-.889629 1.2265076-.376487 1.7030241l6.023769 6.0552478c.556481.5304157 1.664862.07657 1.694181-.6938328v-6.0552278c-.00006-.52841648-.478303-1.00915133-1.003965-1.0092113h-6.023769c-.103796-.01599385-.209993-.01599385-.313729 0z"
     fill="#808080"
     id="path4"
     style="fill:#616165;fill-opacity:1" />
  <path
     inkscape:connector-curvature="0"
     d="m 4.9982,2.01156 v 0.5 27 0.5 h 0.4999 20.9996 0.5 v -0.5 -17 -0.2188 l -0.1562,-0.1562 -9.9373,-10 -0.125,-0.125 H 16.5604 5.4981 Z"
     id="path6"
     style="fill:#f9f9f9" />
  <path
     inkscape:connector-curvature="0"
     d="m 5.9981,3.01156 h 10.0584 l 9.941,10 v 16 H 5.9981 Z"
     id="path8"
     style="fill:url(#linearGradient856);fill-opacity:1;stroke:none" />
  <path
     d="m8 12h16v14h-16z"
     fill="#fff"
     id="path10" />
  <g
     fill="#e78e46"
     id="g20"
     style="fill:#ff9500;fill-opacity:1">
    <path
       d="m8 25h16v1h-16z"
       id="path12"
       style="fill:#ff9500;fill-opacity:1" />
    <path
       d="m8 12h16v1h-16z"
       id="path14"
       style="fill:#ff9500;fill-opacity:1" />
    <path
       d="m9 12v14h-1v-14z"
       id="path16"
       style="fill:#ff9500;fill-opacity:1" />
    <path
       d="m24 12v14h-1v-14z"
       id="path18"
       style="fill:#ff9500;fill-opacity:1" />
  </g>
  <path
     d="m21.992428 13.996373v2h-.999933v-.899999h-5.500229l-2.100039 8.899984h-1.400025l-1.9998648-4.999993-1.0000828-.000015v-1.000007l2.0000146.00003 1.599922 3.999985 1.900142-8"
     fill="#808080"
     id="path22"
     style="fill:#616165;fill-opacity:1" />
  <path
     d="m21 18.50003-5 5"
     fill="none"
     stroke="#808080"
     stroke-linecap="round"
     stroke-linejoin="round"
     stroke-width="1.3"
     id="path24" />
  <path
     d="m16 18.50003 5 5"
     fill="#808080"
     stroke="#808080"
     stroke-linecap="round"
     stroke-linejoin="round"
     stroke-width="1.3"
     id="path26" />
</svg>
