<?xml version="1.0" encoding="UTF-8" standalone="no"?>
<svg
   xmlns:dc="http://purl.org/dc/elements/1.1/"
   xmlns:cc="http://creativecommons.org/ns#"
   xmlns:rdf="http://www.w3.org/1999/02/22-rdf-syntax-ns#"
   xmlns:svg="http://www.w3.org/2000/svg"
   xmlns="http://www.w3.org/2000/svg"
   xmlns:xlink="http://www.w3.org/1999/xlink"
   xmlns:sodipodi="http://sodipodi.sourceforge.net/DTD/sodipodi-0.dtd"
   xmlns:inkscape="http://www.inkscape.org/namespaces/inkscape"
   viewBox="0 0 32 32"
   version="1.1"
   id="svg32"
   sodipodi:docname="ods_32_8.svg"
   inkscape:version="0.92.3 (unknown)"
   inkscape:export-filename="/home/rizmut/Dokumen/Rizmut/Github/libreoffice-style-sukapura/images_sukapura/res/ods_32_8.png"
   inkscape:export-xdpi="96"
   inkscape:export-ydpi="96">
  <metadata
     id="metadata38">
    <rdf:RDF>
      <cc:Work
         rdf:about="">
        <dc:format>image/svg+xml</dc:format>
        <dc:type
           rdf:resource="http://purl.org/dc/dcmitype/StillImage" />
        <dc:title></dc:title>
      </cc:Work>
    </rdf:RDF>
  </metadata>
  <defs
     id="defs36">
    <linearGradient
       gradientTransform="translate(-53.898305,-5.1770724)"
       id="a"
       gradientUnits="userSpaceOnUse"
       x1="7"
       x2="7"
       y1="20"
       y2="3">
      <stop
         offset="0"
         stop-color="#f5f5f5"
         id="stop971" />
      <stop
         offset=".3888889"
         stop-color="#fdfdfd"
         id="stop973" />
      <stop
         offset="1"
         stop-color="#fff"
         id="stop975" />
    </linearGradient>
    <linearGradient
       inkscape:collect="always"
       xlink:href="#a"
       id="linearGradient1445"
       x1="15"
       y1="29"
       x2="15"
       y2="3"
       gradientUnits="userSpaceOnUse" />
  </defs>
  <sodipodi:namedview
     pagecolor="#ffffff"
     bordercolor="#666666"
     borderopacity="1"
     objecttolerance="10"
     gridtolerance="10"
     guidetolerance="10"
     inkscape:pageopacity="0"
     inkscape:pageshadow="2"
     inkscape:window-width="1366"
     inkscape:window-height="706"
     id="namedview34"
     showgrid="true"
     inkscape:zoom="2.6074563"
     inkscape:cx="-34.210031"
     inkscape:cy="-15.980784"
     inkscape:window-x="0"
     inkscape:window-y="0"
     inkscape:window-maximized="1"
     inkscape:current-layer="svg32">
    <inkscape:grid
       type="xygrid"
       id="grid1447" />
  </sodipodi:namedview>
  <path
     d="m4.6252931.00899256c-.9167679.17493262-1.6413825 1.06650924-1.6249431 1.99944994v27.9921785c.0001 1.046877.9528067 1.99935 1.99993 1.99945h21.99921c1.047123-.0001 1.99983-.952573 1.99993-1.99945v-17.454837c.012-.527977-.194993-1.057653-.56248-1.437106l-10.540471-10.53734203c-.379547-.36729853-.909349-.5745787-1.43745-.56234341h-11.458739c-.1245956-.01199538-.2503512-.01199538-.3749869 0z"
     fill="#76a797"
     id="path2"
     style="fill:#007018;fill-opacity:1" />
  <path
     d="m21.658457.0153901c-.665617.21319788-.889629 1.2265076-.376487 1.7030241l6.023769 6.0552478c.556481.5304157 1.664862.07657 1.694181-.6938328v-6.0552278c-.00006-.52841648-.478303-1.00915133-1.003965-1.0092113h-6.023769c-.103796-.01599385-.209993-.01599385-.313729 0z"
     fill="#76a797"
     id="path4"
     style="fill:#007018;fill-opacity:1" />
  <path
     d="m5.00018 2.01156v.5 27 .5h.49999 20.9996.49999v-.5-17-.2188l-.15624-.1562-9.93731-10-.12499-.125h-.21875-11.0623z"
     fill="#fff"
     id="path6" />
  <path
     d="m6.00016 3.01156h10.05841l9.9409 10v16h-19.99931z"
     fill="#fff"
     id="path8"
     style="fill-opacity:1;fill:url(#linearGradient1445)" />
  <path
     d="m7.99891 11.99636h16v13.00003h-16z"
     fill="#fff"
     id="path10" />
  <g
     fill="#76a797"
     id="g18">
    <path
       d="m7.99891 11.99636h15.99999v4h-15.99999z"
       id="path12"
       style="fill:#32d74b;fill-opacity:1" />
    <path
       d="m7.99891 11.99638v1 2 1 2 1 2 1 2 1h16v-1-11-1h-1-4-1-4-1-4zm1 1h4v2h-4zm5 0h4v2h-4zm5 0h4v2h-4zm-10 3h4v2h-4zm5 0h4v2h-4zm5 0h4v2h-4zm-10 3h4v2h-4zm5 0h4v2h-4zm5 0h4v2h-4zm-10 3h4v2h-4zm5 0h4v2h-4zm5 0h4v2h-4z"
       id="path14"
       style="fill:#007018;fill-opacity:1" />
    <path
       d="m15.99891 17.99636h8v7.99996h-8z"
       id="path16"
       style="fill:#32d74b;fill-opacity:1" />
  </g>
  <path
     d="m16.99891 18.99636h6v5.99996h-6z"
     fill="#ccc"
     id="path20" />
  <path
     d="m16.99891 18.99636h6v5.99996h-6z"
     fill="#fff"
     id="path22" />
  <path
     d="m17.99891 21.99636h2v2.99997h-2z"
     fill="#4d82b8"
     id="path24" />
  <path
     d="m19.99891 19.99636h2v4.99996h-2z"
     fill="#eac282"
     id="path26" />
  <path
     d="m17.99891 21.99636h1v2h-1z"
     fill="#4d82b8"
     id="path28" />
  <path
     d="m19.99891 19.99636h1v3.99999h-1z"
     fill="#eac282"
     id="path30" />
</svg>
