<?xml version="1.0" encoding="UTF-8" standalone="no"?>
<svg
   xmlns:dc="http://purl.org/dc/elements/1.1/"
   xmlns:cc="http://creativecommons.org/ns#"
   xmlns:rdf="http://www.w3.org/1999/02/22-rdf-syntax-ns#"
   xmlns:svg="http://www.w3.org/2000/svg"
   xmlns="http://www.w3.org/2000/svg"
   xmlns:xlink="http://www.w3.org/1999/xlink"
   xmlns:sodipodi="http://sodipodi.sourceforge.net/DTD/sodipodi-0.dtd"
   xmlns:inkscape="http://www.inkscape.org/namespaces/inkscape"
   viewBox="0 0 32 32"
   version="1.1"
   id="svg24"
   sodipodi:docname="odt_32_8.svg"
   inkscape:version="0.92.3 (unknown)">
  <metadata
     id="metadata30">
    <rdf:RDF>
      <cc:Work
         rdf:about="">
        <dc:format>image/svg+xml</dc:format>
        <dc:type
           rdf:resource="http://purl.org/dc/dcmitype/StillImage" />
        <dc:title></dc:title>
      </cc:Work>
    </rdf:RDF>
  </metadata>
  <defs
     id="defs28">
    <linearGradient
       gradientTransform="translate(-53.898305,-5.1770724)"
       id="a"
       gradientUnits="userSpaceOnUse"
       x1="7"
       x2="7"
       y1="20"
       y2="3">
      <stop
         offset="0"
         stop-color="#f5f5f5"
         id="stop971" />
      <stop
         offset=".3888889"
         stop-color="#fdfdfd"
         id="stop973" />
      <stop
         offset="1"
         stop-color="#fff"
         id="stop975" />
    </linearGradient>
    <linearGradient
       inkscape:collect="always"
       xlink:href="#a"
       id="linearGradient1569"
       x1="10"
       y1="28.621731"
       x2="10"
       y2="3"
       gradientUnits="userSpaceOnUse" />
  </defs>
  <sodipodi:namedview
     pagecolor="#ffffff"
     bordercolor="#666666"
     borderopacity="1"
     objecttolerance="10"
     gridtolerance="10"
     guidetolerance="10"
     inkscape:pageopacity="0"
     inkscape:pageshadow="2"
     inkscape:window-width="1366"
     inkscape:window-height="706"
     id="namedview26"
     showgrid="true"
     inkscape:zoom="5.2149125"
     inkscape:cx="-11.749543"
     inkscape:cy="29.793422"
     inkscape:window-x="0"
     inkscape:window-y="0"
     inkscape:window-maximized="1"
     inkscape:current-layer="svg24">
    <inkscape:grid
       type="xygrid"
       id="grid1571" />
  </sodipodi:namedview>
  <path
     d="m4.6252931.00899256c-.9167679.17493262-1.6413825 1.06650924-1.6249431 1.99944994v27.9921785c.0001 1.046877.9528067 1.99935 1.99993 1.99945h21.99921c1.047123-.0001 1.99983-.952573 1.99993-1.99945v-17.454837c.012-.527977-.194993-1.057653-.56248-1.437106l-10.540471-10.53734203c-.379547-.36729853-.909349-.5745787-1.43745-.56234341h-11.458739c-.1245956-.01199538-.2503512-.01199538-.3749869 0z"
     fill="#4d82b8"
     id="path2"
     style="fill:#0040dd;fill-opacity:1" />
  <path
     d="m21.658457.0153901c-.665617.21319788-.889629 1.2265076-.376487 1.7030241l6.023769 6.0552478c.556481.5304157 1.664862.07657 1.694181-.6938328v-6.0552278c-.00006-.52841648-.478303-1.00915133-1.003965-1.0092113h-6.023769c-.103796-.01599385-.209993-.01599385-.313729 0z"
     fill="#4d82b8"
     id="path4"
     style="fill:#0040dd;fill-opacity:1" />
  <path
     d="m5.00048 2.01156v.5 27 .5h.49999 20.9996.49999v-.5-17-.2188l-.15624-.1562-9.93731-10-.12499-.125h-.21875-11.0623z"
     fill="#fff"
     id="path6" />
  <path
     d="m6.00046 3.01156h10.05841l9.9409 10v16h-19.99931z"
     fill="#fff"
     id="path8"
     style="fill-opacity:1;fill:url(#linearGradient1569)" />
  <g
     fill="#4d82b8"
     id="g18">
    <path
       d="m7.99888 15.99636h4.9999v2h-4.9999z"
       id="path10"
       style="fill:#0040dd;fill-opacity:1" />
    <path
       d="m7.99888 11.99636h4.9999v2h-4.9999z"
       id="path12"
       style="fill:#0040dd;fill-opacity:1" />
    <path
       d="m7.99888 19.99636h15.99968v2h-15.99968z"
       id="path14"
       style="fill:#0040dd;fill-opacity:1" />
    <path
       d="m7.99888 23.99636h11.99976v2h-11.99976z"
       id="path16"
       style="fill:#0040dd;fill-opacity:1" />
  </g>
  <path
     d="m15.998957 12.99641h6.999867v4h-6.999867z"
     fill="#fff"
     id="path20" />
  <path
     d="m14.998047 11.996094v6h9v-6zm1 1h7v3.5l-1.5-1.5-1.5 1-2-2.5-2 3z"
     fill="#4d82b8"
     id="path22"
     style="fill:#0040dd;fill-opacity:1" />
</svg>
