<svg viewBox="0 0 24 24" xmlns="http://www.w3.org/2000/svg" xmlns:xlink="http://www.w3.org/1999/xlink"><linearGradient id="a" gradientUnits="userSpaceOnUse" x1="13" x2="13" y1="21" y2="15"><stop offset="0" stop-color="#dadada"/><stop offset=".5" stop-color="#fff"/><stop offset="1" stop-color="#fff"/></linearGradient><linearGradient id="b" gradientUnits="userSpaceOnUse" x1="4" x2="4" y1="18" y2="3"><stop offset="0" stop-color="#4f4f4f"/><stop offset=".80000001" stop-color="#4f4f4f" stop-opacity=".498039"/><stop offset="1" stop-color="#b7b7b7"/></linearGradient><filter id="c" color-interpolation-filters="sRGB" height="1.082452" width="2.278" x="-.639" y="-.041226"><feGaussianBlur stdDeviation=".26625"/></filter><linearGradient id="d" gradientUnits="userSpaceOnUse" x1="21" x2="21" y1="20" y2="3"><stop offset="0" stop-color="#4f4f4f"/><stop offset=".88235295" stop-color="#4f4f4f" stop-opacity=".498039"/><stop offset="1" stop-color="#b7b7b7"/></linearGradient><filter id="e" color-interpolation-filters="sRGB" height="1.071" width="2.278" x="-.639" y="-.0355"><feGaussianBlur stdDeviation=".26625"/></filter><filter id="f" color-interpolation-filters="sRGB" height="1.168" width="1.126" x="-.063" y="-.084"><feGaussianBlur stdDeviation=".1575"/></filter><g fill="#fff"><rect height="8" ry="1" width="16" x="4" y="3"/><path d="m8 15c-.554 0-1 .446-1 1v4c0 .554.446 1 1 1h2v-5h2v5h5c.554 0 1-.446 1-1v-4c0-.554-.446-1-1-1z"/></g><path d="m4 2c-.554 0-1 .446-1 1v15l3 4h12.167969a3.0067284 3.0067284 0 0 1 -.173828-1 3.0067284 3.0067284 0 0 1 3.005859-3.005859 3.0067284 3.0067284 0 0 1 1 .173828v-15.167969c0-.554-.446-1-1-1z" fill="#3e3e3e"/><g fill="#fff"><rect height="8" ry=".46741" width="13" x="6" y="3"/><path d="m8 15c-.554 0-1 .446-1 1v4c0 .554.446 1 1 1h2v-5h2v5h5c.554 0 1-.446 1-1v-4c0-.554-.446-1-1-1z" fill="url(#a)"/></g><rect fill="url(#b)" filter="url(#c)" height="15.5" rx=".351695" width="1" x="3.5" y="3"/><path d="m10 16h2v.5h-2z" fill="#2a2a2a"/><path d="m20 3v15.167969a3.0067284 3.0067284 0 0 1 1-.173828v-14.994141z" fill="url(#d)" filter="url(#e)"/><path d="m4.5 12h15.5v4.5c-.332428-1.585337-1.430373-1.690577-3-2.5h-12.5z" fill="#3b3b3b" filter="url(#f)"/><path d="m8 3h9v1h-9z" fill="#0a84ff"/><path d="m8 6h9v1h-9z" fill="#bababa"/><path d="m8 8h9v1h-9z" fill="#bababa"/><circle cx="21" cy="21" fill="#ff9f0a" r="2"/></svg>