<svg viewBox="0 0 16 16" xmlns="http://www.w3.org/2000/svg" xmlns:xlink="http://www.w3.org/1999/xlink"><linearGradient id="a"><stop offset="0" stop-color="#4f4f4f"/><stop offset=".88235295" stop-color="#4f4f4f" stop-opacity=".498039"/><stop offset="1" stop-color="#b7b7b7"/></linearGradient><filter id="b" color-interpolation-filters="sRGB" height="1.071" width="2.278" x="-.639" y="-.0355"><feGaussianBlur stdDeviation=".26625"/></filter><linearGradient id="c" gradientUnits="userSpaceOnUse" x1="9" x2="9" y1="15" y2="10"><stop offset="0" stop-color="#dadada"/><stop offset=".5" stop-color="#fff"/><stop offset="1" stop-color="#fff"/></linearGradient><linearGradient id="d" gradientTransform="matrix(1 0 0 .77777778 -5.5 -1.333333)" gradientUnits="userSpaceOnUse" x1="21" x2="21" xlink:href="#a" y1="20" y2="3"/><linearGradient id="e" gradientUnits="userSpaceOnUse" x1="15" x2="15" xlink:href="#a" y1="18" y2="1"/>




     /&amp;amp;gt;
 <path d="m1 0c-.554 0-1 .446-1 1v12l3.1992188 3h8.5703122a3 3 0 0 1 -.769531-2 3 3 0 0 1 3-3 3 3 0 0 1 2 .767578v-10.767578c0-.554-.446-1-1-1z" fill="#3e3e3e"/><g fill="#fff"><rect height="6" ry=".280908" width="12" x="2" y="1"/><path d="m4.5 10c-.554 0-1 .446-1 1v3c0 .554.4469243 1.031989 1 1h1v-4h2v4h3.675781a2.9986498 2.9986498 0 0 1 -.173828-1 2.9986498 2.9986498 0 0 1 1.998047-2.824219v-.175781c0-.554-.446-1-1-1z" fill="url(#c)"/></g><path d="m5.5 11h2v1h-2z"/><path d="m14.5 1v10.046875a2.9986498 2.9986498 0 0 1 1 .361328v-10.408203z" fill="url(#d)" filter="url(#b)"/><path d="m14 1h1.237288v13.5h-1.237288z" fill="url(#e)" filter="url(#b)" transform="matrix(1 0 0 .77777778 -13.237288 .222222)"/><path d="m4 5h8v1h-8z" fill="#bababa"/><path d="m4 3h8v1h-8z" fill="#bababa"/><path d="m4 1h8v1h-8z" fill="#0a84ff"/><circle cx="14" cy="14" fill="#ff9f0a" r="2"/></svg>