<?xml version="1.0" encoding="UTF-8" standalone="no"?>
<svg
   xmlns:dc="http://purl.org/dc/elements/1.1/"
   xmlns:cc="http://creativecommons.org/ns#"
   xmlns:rdf="http://www.w3.org/1999/02/22-rdf-syntax-ns#"
   xmlns:svg="http://www.w3.org/2000/svg"
   xmlns="http://www.w3.org/2000/svg"
   xmlns:xlink="http://www.w3.org/1999/xlink"
   xmlns:sodipodi="http://sodipodi.sourceforge.net/DTD/sodipodi-0.dtd"
   xmlns:inkscape="http://www.inkscape.org/namespaces/inkscape"
   viewBox="0 0 16 16"
   version="1.1"
   id="svg18"
   sodipodi:docname="sx03251.svg"
   inkscape:version="0.92.3 (unknown)"
   inkscape:export-filename="/home/rizmut/Dokumen/Rizmut/Github/libreoffice-style-sukapura/images_sukapura/res/sx03251.png"
   inkscape:export-xdpi="96"
   inkscape:export-ydpi="96">
  <metadata
     id="metadata24">
    <rdf:RDF>
      <cc:Work
         rdf:about="">
        <dc:format>image/svg+xml</dc:format>
        <dc:type
           rdf:resource="http://purl.org/dc/dcmitype/StillImage" />
        <dc:title></dc:title>
      </cc:Work>
    </rdf:RDF>
  </metadata>
  <defs
     id="defs22">
    <linearGradient
       gradientTransform="translate(-24.000115,-7.2657973)"
       id="a"
       gradientUnits="userSpaceOnUse"
       x1="-43.898304"
       x2="-43.898304"
       y1="23.444658"
       y2="-2.177072">
      <stop
         offset="0"
         stop-color="#f5f5f5"
         id="stop2" />
      <stop
         offset=".3888889"
         stop-color="#fdfdfd"
         id="stop4" />
      <stop
         offset="1"
         stop-color="#fff"
         id="stop6" />
    </linearGradient>
    <linearGradient
       inkscape:collect="always"
       xlink:href="#a"
       id="linearGradient854"
       x1="2.0001099"
       y1="14.99933"
       x2="2.0001099"
       y2="0.99932998"
       gradientUnits="userSpaceOnUse" />
  </defs>
  <sodipodi:namedview
     pagecolor="#ffffff"
     bordercolor="#666666"
     borderopacity="1"
     objecttolerance="10"
     gridtolerance="10"
     guidetolerance="10"
     inkscape:pageopacity="0"
     inkscape:pageshadow="2"
     inkscape:window-width="1366"
     inkscape:window-height="706"
     id="namedview20"
     showgrid="false"
     inkscape:zoom="14.75"
     inkscape:cx="-0.71186441"
     inkscape:cy="8"
     inkscape:window-x="0"
     inkscape:window-y="0"
     inkscape:window-maximized="1"
     inkscape:current-layer="svg18" />
  <path
     d="m1.8125656.00599937c-.4583913.08746719-.82070444.53319998-.8124846.99962503v13.9947496c.00005.523384.4764109.999575.999981.999625h11.999772c.52357-.00005.999931-.476241.999981-.999625v-7.9969996c.006-.263961-.0975-.5287717-.281245-.7184805l-5.9998857-5.99774999c-.1897764-.18363112-.4546813-.28726224-.7187363-.28114454h-5.999886c-.0622988-.00599774-.1251776-.00599774-.1874964 0z"
     fill="#4d82b8"
     id="path2"
     style="fill:#0040dd;fill-opacity:1" />
  <path
     d="m11.343634.00599937c-.331493.10559039-.443051.60743213-.187496.8434336l2.999943 2.99887503c.277145.2626914.829134.037886.843734-.3436211v-2.99887503c-.00003-.26169182-.238205-.49978251-.49999-.4998125h-2.999943c-.0517-.007997-.104589-.007997-.156248 0z"
     fill="#4d82b8"
     id="path4"
     style="fill:#0040dd;fill-opacity:1" />
  <path
     d="m2.00011.99933v.5 13 .5h.49999 10.99979.5v-.5-7.3125-.2188l-.15625-.125-5.6874-5.7187-.15624-.125h-.1875-5.3124z"
     fill="#fff"
     id="path6"
     style="fill-opacity:1;fill:url(#linearGradient854)" />
  <g
     fill="#4d82b8"
     stroke-width="5.01122"
     id="g16"
     style="fill:#0040dd;fill-opacity:1">
    <path
       d="m3.999935 7.99822h7.999848v1h-7.999848z"
       id="path8"
       style="fill:#0040dd;fill-opacity:1" />
    <path
       d="m3.999935 5.99822h5.999886v1h-5.999886z"
       id="path10"
       style="fill:#0040dd;fill-opacity:1" />
    <path
       d="m3.999935 9.99822h7.999848v1h-7.999848z"
       id="path12"
       style="fill:#0040dd;fill-opacity:1" />
    <path
       d="m3.999935 11.99822h5.999886v1h-5.999886z"
       id="path14"
       style="fill:#0040dd;fill-opacity:1" />
  </g>
</svg>
