<svg viewBox="0 0 128 128" xmlns="http://www.w3.org/2000/svg" xmlns:xlink="http://www.w3.org/1999/xlink"><filter id="a" color-interpolation-filters="sRGB" height="1.094553" width="1.097492" x="-.048746" y="-.047277"><feGaussianBlur stdDeviation=".36559322"/></filter><linearGradient id="b" gradientUnits="userSpaceOnUse" x1="100" x2="128" y1="112" y2="124"><stop offset="0" stop-color="#cdd4df"/><stop offset="1" stop-color="#b3bece"/></linearGradient><filter id="c" color-interpolation-filters="sRGB" height="1.035462" width="1.018138" x="-.009069" y="-.017731"><feGaussianBlur stdDeviation=".068164053"/></filter><linearGradient id="d" gradientUnits="userSpaceOnUse" x1="97" x2="127" y1="119" y2="119"><stop offset="0" stop-color="#feaf38"/><stop offset="1" stop-color="#ef7e02"/></linearGradient><linearGradient id="e" gradientTransform="matrix(2.75 0 0 2.775 3.505225 -.357079)" gradientUnits="userSpaceOnUse" x1="5.9981" x2="5.9981" y1="42.011559" y2="3.01156"><stop offset="0" stop-color="#f5f5f5"/><stop offset=".3888889" stop-color="#fdfdfd"/><stop offset="1" stop-color="#fff"/></linearGradient><path d="m22 118.44068h84v2.55932h-84z" filter="url(#a)" opacity=".15" stroke-width="1.015418"/><path d="m23 8c-1.662 0-3 1.338-3 3v106c0 1.662 1.338 3 3 3h82c1.662 0 3-1.338 3-3v-69l-39-40z" fill="#925100"/><path d="m22.000147 9.9918v2 104 2h1.999997 80.000006 2v-2-66-.8752l-.62497-.6248-37.750007-38-.499969-.5h-.875016-42.250044z" fill="#f9f9f9"/><path d="m24 12h42.75l37.25 37.625v65.375l-80 1z" fill="url(#e)" stroke-width="2.762472"/><path d="m82 8.0019531c-1.779038.00105-2.669603 2.1517099-1.412109 3.4101559l23.999999 24c1.25845 1.257501 3.40911.366934 3.41016-1.412109v-24c.00006-1.1035174-.89453-1.9981098-1.99805-1.9980469z" fill="#925100"/><circle cx="50.995579" cy="67.994064" fill="#f09e6f" r="16.99995"/><circle cx="51.004639" cy="67.998161" fill="#ff9500" r="19.00008" stroke="#ad3a00" stroke-width="2.000006"/><path d="m61.999239 93.998599c-.5523-.0001-.9999-.4477-1-1v-32c.0001-.5523.4477-.9999 1-1h32c.5523.0001.9999.4477 1 1v32c-.0001.5523-.4477.9999-1 1zm1-2h30v-30h-30z" fill="#925100"/><path d="m62.999239 91.998599h30v-30h-30z" fill="#ff9500"/><path d="m55.599539 68.077699c-.2217.079-.4124.2313-.5295.424l-9.8301 16.0413-10.058499 15.715301c-.4092.5886-.1611 1.7898 1.0709 1.7394h19.725099 19.3839c1.1879 0 1.4314-1.2862.7975-2.390001l-9.4439-15.0647-9.8301-16.0413c-.2412-.4057-.825-.5983-1.2853-.424zm.3779 2.8974 8.9984 14.4866 8.9983 14.557301h-17.9967-17.996599l8.998199-14.557301z" fill="#925100"/><path d="m73.991157 100.00275h-18.000038-18.000037l9.000128-14.500016 8.999909-14.499993 8.999909 14.499993z" fill="#ffd60a"/><path id="f" d="m33.49924 98.498599h5v5.000001h-5z" fill="#fff" stroke="#98989d"/><g fill="#fff" stroke="#98989d"><use height="1085" transform="translate(40.000001)" width="5033" xlink:href="#f"/><use height="1085" transform="translate(20.000001 -31.999999)" width="5033" xlink:href="#f"/></g><path d="m91 122.44068h30v2.55932h-30z" filter="url(#a)" opacity=".15" stroke-width="1.015418"/><path d="m106 87c-6.60373 0-12 5.396273-12 12v4h-1c-2.735406 0-5 2.26459-5 5v12h17c1.662 0 3-1.338 3-3v-14h-6v-4c0-2.23283 1.76717-4 4-4 .73628 0 1.41166.207278 2 .544922v-8.363281c-.65207-.110652-1.31751-.181641-2-.181641z" fill="#fff" fill-opacity=".784314"/><g transform="translate(-6 -4)"><path d="m99 109c-1.662 0-3 1.338-3 3v13c0 1.662 1.338 3 3 3h26c1.662 0 3-1.338 3-3v-13c0-1.662-1.338-3-3-3h-3-4-12-4z" fill="url(#b)"/><path d="m99 109c-1.662 0-3 1.338-3 3v13c0 1.662 1.338 3 3 3h26c1.662 0 3-1.338 3-3v-13c0-1.662-1.338-3-3-3h-3-4-12-4zm0 1h26c1.108 0 2 .892 2 2v13c0 1.108-.892 2-2 2h-26c-1.108 0-2-.892-2-2v-13c0-1.108.892-2 2-2z" fill="#627899"/><path d="m112 93c-5.52285 0-10 4.477153-10 10v6h4v-6c0-3.313709 2.68629-6 6-6s6 2.686291 6 6v6h4v-6c0-5.522847-4.47715-10-10-10z" fill="#627899"/><path d="m112 93.980469c-4.99308 0-9.01953 4.026454-9.01953 9.019531v5.01953.98047h2.01953v-.98047h.0195v-5.01953c0-.24022.0132-.47683.0371-.71094.35872-3.511567 3.3401-6.269529 6.94336-6.269529 3.84348 0 6.98047 3.13699 6.98047 6.980469v5.01953h.01957v.98047h2.01953v-.98047-5.01953c0-4.993077-4.02645-9.019531-9.01953-9.019531z" fill="#ebebeb"/><path d="m112 93.980469c-4.99308 0-9.01953 4.026454-9.01953 9.019531v.20703c0-4.820361 4.02645-8.70703 9.01953-8.70703s9.01953 3.886669 9.01953 8.70703v-.20703c0-4.993077-4.02645-9.019531-9.01953-9.019531z" fill="#fff" filter="url(#c)"/><rect fill="url(#d)" height="8" rx=".016949" ry="1" width="30" x="97" y="115"/><rect fill="#5f3519" height="1" rx=".016949" ry=".125" transform="scale(1 -1)" width="30" x="97" y="-124"/><g fill="#341f07"><path d="m97 115 5 8h4l-5-8z"/><path d="m105 115 5 8h4l-5-8z"/><path d="m113 115 5 8h4l-5-8z"/><path d="m121 115 5 8h.98242c.009 0 .0176-.446.0176-1v-3.80078l-2.00002-3.19922z"/></g><path d="m99 110c-1.108 0-2 .892-2 2 0-.554.446-1 1-1h28c.554 0 1 .446 1 1 0-1.108-.892-2-2-2z" fill="#e7e7e7"/><rect fill="#a28b6c" height="1" rx="0" ry="1" width="30" x="97" y="114"/></g></svg>