<?xml version="1.0" encoding="UTF-8" standalone="no"?>
<svg
   xmlns:dc="http://purl.org/dc/elements/1.1/"
   xmlns:cc="http://creativecommons.org/ns#"
   xmlns:rdf="http://www.w3.org/1999/02/22-rdf-syntax-ns#"
   xmlns:svg="http://www.w3.org/2000/svg"
   xmlns="http://www.w3.org/2000/svg"
   xmlns:xlink="http://www.w3.org/1999/xlink"
   xmlns:sodipodi="http://sodipodi.sourceforge.net/DTD/sodipodi-0.dtd"
   xmlns:inkscape="http://www.inkscape.org/namespaces/inkscape"
   viewBox="0 0 32 32"
   version="1.1"
   id="svg1049"
   sodipodi:docname="datastreams.svg"
   inkscape:version="0.92.4 (unknown)">
  <metadata
     id="metadata1055">
    <rdf:RDF>
      <cc:Work
         rdf:about="">
        <dc:format>image/svg+xml</dc:format>
        <dc:type
           rdf:resource="http://purl.org/dc/dcmitype/StillImage" />
        <dc:title></dc:title>
      </cc:Work>
    </rdf:RDF>
  </metadata>
  <defs
     id="defs1053">
    <linearGradient
       gradientTransform="translate(48,10)"
       id="g"
       gradientUnits="userSpaceOnUse"
       x1="11.135593"
       x2="10.576271"
       y1="13.889831"
       y2="5.2457628">
      <stop
         offset="0"
         stop-color="#e5eefc"
         id="stop12" />
      <stop
         offset="1"
         stop-color="#fcfdff"
         id="stop14" />
    </linearGradient>
    <linearGradient
       gradientTransform="matrix(0.78571427,0,0,0.78571427,-0.57142843,-0.57142843)"
       inkscape:collect="always"
       xlink:href="#g"
       id="linearGradient1646"
       x1="23"
       y1="29"
       x2="23"
       y2="17"
       gradientUnits="userSpaceOnUse" />
  </defs>
  <sodipodi:namedview
     pagecolor="#ffffff"
     bordercolor="#666666"
     borderopacity="1"
     objecttolerance="10"
     gridtolerance="10"
     guidetolerance="10"
     inkscape:pageopacity="0"
     inkscape:pageshadow="2"
     inkscape:window-width="1360"
     inkscape:window-height="714"
     id="namedview1051"
     showgrid="true"
     inkscape:zoom="14.75"
     inkscape:cx="26.543172"
     inkscape:cy="7.4095114"
     inkscape:window-x="0"
     inkscape:window-y="28"
     inkscape:window-maximized="1"
     inkscape:current-layer="svg1049">
    <inkscape:grid
       type="xygrid"
       id="grid1600" />
  </sodipodi:namedview>
  <radialGradient
     id="a"
     cx="22"
     cy="9.076923"
     gradientTransform="matrix(1.3 .00000001 -.00000002 1.5 -6.6 -6.615385)"
     gradientUnits="userSpaceOnUse"
     r="10">
    <stop
       offset="0"
       stop-color="#d7d7d7"
       id="stop1029" />
    <stop
       offset=".29999998"
       stop-color="#f7f7f7"
       id="stop1031" />
    <stop
       offset="1"
       stop-color="#fff"
       id="stop1033" />
  </radialGradient>
  <linearGradient
     id="b"
     gradientUnits="userSpaceOnUse"
     x1="20"
     x2="23"
     y1="9"
     y2="6">
    <stop
       offset="0"
       stop-color="#fff"
       id="stop1036" />
    <stop
       offset=".77967989"
       stop-color="#f1f1f1"
       id="stop1038" />
    <stop
       offset="1"
       stop-color="#d5d5d5"
       id="stop1040" />
  </linearGradient>
  <path
     d="m6 3v26h19.99762l.00238-19-7-7z"
     fill="url(#a)"
     id="path1043" />
  <path
     d="m5.9976202 2c-.554 0-1 .446-1 1v26c0 .554.446 1 1 1h19.9999998c.554 0 .892483-.456533 1-1v-10.109375-10.5052752l-6.508082-6.3853498zm0 1h12.9999998v6c0 .6726441.491378 1 1 1h6v19h-19.9999998z"
     fill="#98989d"
     id="path1045" />
  <path
     d="m20 9h6l-6-6z"
     fill="url(#b)"
     fill-rule="evenodd"
     id="path1047" />
  <path
     style="opacity:1;fill:#ffffff;fill-opacity:0.78431374;stroke:none;stroke-width:1;stroke-linecap:round;stroke-linejoin:miter;stroke-miterlimit:4;stroke-dasharray:none;stroke-opacity:1"
     d="M 23 15 A 8 8 0 0 0 15 23 A 8 8 0 0 0 19.128906 30 L 25.998047 30 C 26.552047 30 26.89053 29.543467 26.998047 29 L 26.998047 18.890625 L 26.998047 16.078125 A 8 8 0 0 0 23 15 z "
     id="path1673" />
  <g
     transform="matrix(1.2727273,0,0,1.2727273,0.72727198,0.72727198)"
     id="g24">
    <path
       inkscape:connector-curvature="0"
       style="opacity:1;fill:url(#linearGradient1646);fill-opacity:1;stroke:none;stroke-width:0.78571427;stroke-linecap:round;stroke-linejoin:miter;stroke-miterlimit:4;stroke-dasharray:none;stroke-opacity:1"
       d="M 22.214286,17.5 A 4.7142856,4.7142856 0 0 1 17.5,22.214286 4.7142856,4.7142856 0 0 1 12.785715,17.5 4.7142856,4.7142856 0 0 1 17.5,12.785715 4.7142856,4.7142856 0 0 1 22.214286,17.5 Z"
       id="path1626" />
    <circle
       style="fill:#ffffff"
       cx="17.5"
       cy="17.5"
       r="4.5"
       id="circle6" />
    <path
       inkscape:connector-curvature="0"
       style="fill:#0040dd;stroke-width:1.27272725"
       d="m 23,16 a 7.0000001,7.0000001 0 0 0 -7,7 7.0000001,7.0000001 0 0 0 7,7 7.0000001,7.0000001 0 0 0 7,-7 7.0000001,7.0000001 0 0 0 -7,-7 z m 0,1 a 6,6 0 0 1 6,6 6,6 0 0 1 -6,6 6,6 0 0 1 -6,-6 6,6 0 0 1 6,-6 z"
       transform="matrix(0.78571427,0,0,0.78571427,-0.57142799,-0.57142799)"
       id="path8" />
    <path
       d="m 12.76221,16.714286 h 9.844933 V 17.5 H 12.76221 Z"
       id="path10"
       inkscape:connector-curvature="0"
       style="fill:#0040dd"
       sodipodi:nodetypes="ccccc" />
    <g
       style="fill:none;stroke:#0040dd"
       id="g22">
      <path
         inkscape:connector-curvature="0"
         d="m 17,22 c -1.387224,-2.634108 -2.531504,-5.332342 0,-9"
         id="path12"
         style="stroke-width:0.78571427;stroke-linecap:square;stroke-miterlimit:4;stroke-dasharray:none" />
      <path
         inkscape:connector-curvature="0"
         d="m 18.004067,22 c 1.387224,-2.634108 2.531504,-5.332342 0,-9"
         id="path14"
         style="stroke-width:0.78571427;stroke-linecap:square;stroke-miterlimit:4;stroke-dasharray:none" />
      <g
         style="stroke-opacity:0.99215698"
         id="g20">
        <path
           inkscape:connector-curvature="0"
           d="m 13.478658,14.449432 c 2.336607,1.442656 5.670005,1.336285 8.006729,0"
           id="path16"
           style="stroke-width:0.78571427;stroke-miterlimit:4;stroke-dasharray:none" />
        <path
           inkscape:connector-curvature="0"
           d="m 13.478658,20.56596 c 2.336607,-1.442656 5.670005,-1.336285 8.006729,0"
           id="path18"
           style="stroke-width:0.78571427;stroke-miterlimit:4;stroke-dasharray:none" />
      </g>
    </g>
  </g>
</svg>
