<?xml version="1.0" encoding="UTF-8" standalone="no"?>
<svg
   xmlns:dc="http://purl.org/dc/elements/1.1/"
   xmlns:cc="http://creativecommons.org/ns#"
   xmlns:rdf="http://www.w3.org/1999/02/22-rdf-syntax-ns#"
   xmlns:svg="http://www.w3.org/2000/svg"
   xmlns="http://www.w3.org/2000/svg"
   xmlns:sodipodi="http://sodipodi.sourceforge.net/DTD/sodipodi-0.dtd"
   xmlns:inkscape="http://www.inkscape.org/namespaces/inkscape"
   viewBox="0 0 32 32"
   version="1.1"
   id="svg28"
   sodipodi:docname="menubar.svg"
   inkscape:version="0.92.4 (unknown)">
  <metadata
     id="metadata34">
    <rdf:RDF>
      <cc:Work
         rdf:about="">
        <dc:format>image/svg+xml</dc:format>
        <dc:type
           rdf:resource="http://purl.org/dc/dcmitype/StillImage" />
        <dc:title></dc:title>
      </cc:Work>
    </rdf:RDF>
  </metadata>
  <defs
     id="defs32" />
  <sodipodi:namedview
     pagecolor="#ffffff"
     bordercolor="#666666"
     borderopacity="1"
     objecttolerance="10"
     gridtolerance="10"
     guidetolerance="10"
     inkscape:pageopacity="0"
     inkscape:pageshadow="2"
     inkscape:window-width="1360"
     inkscape:window-height="714"
     id="namedview30"
     showgrid="true"
     inkscape:pagecheckerboard="true"
     inkscape:zoom="14.75"
     inkscape:cx="14.128645"
     inkscape:cy="18.837019"
     inkscape:window-x="0"
     inkscape:window-y="28"
     inkscape:window-maximized="1"
     inkscape:current-layer="svg28">
    <inkscape:grid
       type="xygrid"
       id="grid841" />
  </sodipodi:namedview>
  <linearGradient
     id="a"
     gradientUnits="userSpaceOnUse"
     x1="-8.694915"
     x2="-8.694915"
     y1="21.220339"
     y2="7.220339">
    <stop
       offset="0"
       stop-color="#0040dd"
       id="stop2" />
    <stop
       offset="1"
       stop-color="#0a84ff"
       id="stop4" />
  </linearGradient>
  <linearGradient
     id="b"
     gradientUnits="userSpaceOnUse"
     x1="15"
     x2="15"
     y1="11"
     y2="10">
    <stop
       offset="0"
       stop-color="#48484c"
       id="stop7" />
    <stop
       offset="1"
       stop-color="#48484c"
       stop-opacity="0"
       id="stop9" />
  </linearGradient>
  <rect
     style="opacity:1;fill:#ffffff;fill-opacity:1;stroke:none;stroke-width:2;stroke-linecap:round;stroke-linejoin:miter;stroke-miterlimit:4;stroke-dasharray:none;stroke-opacity:1"
     id="rect843"
     width="24"
     height="15"
     x="4"
     y="12" />
  <path
     d="m3 13v14c0 .554.446 1 1 1h24c.554 0 1-.446 1-1v-14h-1v14h-24v-14z"
     fill="#69696e"
     id="path12" />
  <path
     d="m6 4c-1.662 0-3 1.338-3 3v6h1v-5.4609375c0-1.4063076 1.1327549-2.5390625 2.5390625-2.5390625h18.9218755c1.406307 0 2.539062 1.1327549 2.539062 2.5390625v5.4609375h1v-6c0-1.662-1.338-3-3-3z"
     fill="#69696e"
     id="path14" />
  <path
     d="m6.5390625 5c-1.4063076 0-2.5390625 1.1327549-2.5390625 2.5390625v3.4609375h24v-3.4609375c0-1.4063076-1.132755-2.5390625-2.539062-2.5390625z"
     fill="#c8c8cb"
     id="path16" />
  <path
     d="m4 10h24v1h-24z"
     fill="url(#b)"
     id="path18" />
  <path
     d="m 2,8 v 4 h 16 4 7 V 8 h -7 -4 z m 1,1 h 15 c 1.332899,4.01e-4 2.66682,-3.5e-4 4,0 1.666476,4.37e-4 4.332557,0 6,0 v 2 c -1.667443,0 -4.333524,-4.36e-4 -6,0 -1.33318,3.49e-4 -2.667101,-3.99e-4 -4,0 -4.99837,0.0015 -9.995586,0.0046 -15,0 z"
     id="path20"
     inkscape:connector-curvature="0"
     style="fill:#c93400"
     sodipodi:nodetypes="cccccccccccsccsscc" />
  <path
     d="m 3,9 h 25 v 2 H 3 Z"
     id="path22"
     inkscape:connector-curvature="0"
     style="fill:#ff9500"
     sodipodi:nodetypes="ccccc" />
  <path
     d="m20 5c-1.090703 0-2 .9092972-2 2v5h-2c-.78519.000308-1.547193.508947-1.847656 1.234375s-.121426 1.624281.433594 2.179687l5 5c.740475.740169 2.087649.740169 2.828124 0l5-5c.55502-.555406.734057-1.454259.433594-2.179687s-1.062466-1.234067-1.847656-1.234375h-2v-5c0-1.0907028-.909297-2-2-2z"
     fill="#fff"
     fill-opacity=".784314"
     id="path24" />
  <path
     d="m20 6c-.554 0-1 .446-1 1v6h-3a1.0001 1.0001 0 0 0 -.707031 1.707031l5 5a1.0001 1.0001 0 0 0 1.414062 0l5-5a1.0001 1.0001 0 0 0 -.707031-1.707031h-3v-6c0-.554-.446-1-1-1z"
     fill="url(#a)"
     id="path26" />
</svg>
