<svg viewBox="0 0 128 128" xmlns="http://www.w3.org/2000/svg" xmlns:xlink="http://www.w3.org/1999/xlink"><filter id="a" color-interpolation-filters="sRGB" height="1.094553" width="1.097492" x="-.048746" y="-.047277"><feGaussianBlur stdDeviation=".36559322"/></filter><linearGradient id="b" gradientUnits="userSpaceOnUse" x1="100" x2="128" y1="112" y2="124"><stop offset="0" stop-color="#cdd4df"/><stop offset="1" stop-color="#b3bece"/></linearGradient><filter id="c" color-interpolation-filters="sRGB" height="1.035462" width="1.018138" x="-.009069" y="-.017731"><feGaussianBlur stdDeviation=".068164053"/></filter><linearGradient id="d" gradientUnits="userSpaceOnUse" x1="97" x2="127" y1="119" y2="119"><stop offset="0" stop-color="#feaf38"/><stop offset="1" stop-color="#ef7e02"/></linearGradient><linearGradient id="e" gradientTransform="matrix(2.75 0 0 2.775 3.505225 -.357079)" gradientUnits="userSpaceOnUse" x1="5.9981" x2="5.9981" y1="42.011559" y2="3.01156"><stop offset="0" stop-color="#f5f5f5"/><stop offset=".3888889" stop-color="#fdfdfd"/><stop offset="1" stop-color="#fff"/></linearGradient><path d="m22 118.44068h84v2.55932h-84z" filter="url(#a)" opacity=".15" stroke-width="1.015418"/><path d="m23 8c-1.662 0-3 1.338-3 3v106c0 1.662 1.338 3 3 3h82c1.662 0 3-1.338 3-3v-69l-39-40z" fill="#0040dd"/><path d="m22.000147 9.9918v2 104 2h1.999997 80.000006 2v-2-66-.8752l-.62497-.6248-37.750007-38-.499969-.5h-.875016-42.250044z" fill="#f9f9f9"/><path d="m24 12h42.75l37.25 37.625v65.375l-80 1z" fill="url(#e)" stroke-width="2.762472"/><path d="m82 8.0019531c-1.779038.00105-2.669603 2.1517099-1.412109 3.4101559l23.999999 24c1.25845 1.257501 3.40911.366934 3.41016-1.412109v-24c.00006-1.1035174-.89453-1.9981098-1.99805-1.9980469z" fill="#0040dd"/><g fill="#fff"><path d="m52.00078 49h41.99922v28h-41.99922z"/><path d="m32.00003 57.00218 16.0013-.0021-.0013 2.00206-16.0013.0021z"/><path d="m32.00003 49.00218 16.0013-.0021-.0013 2.00206-16.0013.0021z"/><path d="m32.00003 81.00206 62.00127-.00206v2.00007l-62.00127.0021z"/><path d="m32.00003 65.00218 16.0013-.0021-.0013 2.00206-16.0013.0021z"/><path d="m32.00003 89.00206 62.00127-.00206v2.00007l-62.00127.0021z"/><path d="m32.00003 97.00206 40.00127-.00206v2.00007l-40.00127.0021z"/><path d="m32.00003 73.00218 16.0013-.0021-.0013 2.00206-16.0013.0021z"/></g><g fill="#0040dd"><path d="m32 48-.0013 2.00206 16.0013-.00206.0013-2.00206zm0 8-.0013 2.00206 16.0013-.00206.0013-2.00206zm0 8-.0013 2.00206 16.0013-.00206.0013-2.00206zm0 8-.0013 2.00206 16.0013-.00206.0013-2.00206zm0 8v2l62.0013-.0021v-2zm0 8v2l62.0013-.0021v-2zm0 8v2l40.0013-.0021v-2z"/><path d="m52.00078 48h41.99922v28h-41.99922z"/><path d="m54.00011 50.0001h37.99923v23.9999h-37.99923z"/></g><path d="m73.6016 61.61124c-3.59197-3.0353-5.39988-6.5-7.79983-10.1666-.70179.2159-.67498.1338-1.19998 0 0 0-4.21252 5.85806-5.80179 8.33316-1.58925 2.4752-4.80059 6.1111-4.80059 6.1111v2.4444l28.60067.00014s-6.59344-4.8509-8.99848-6.7221z" fill="#fff"/><path d="m81.40144 55.11124c2.39995 1.2223 7.56891 6.47836 10.59657 9.55546v3.6666l-28.59688.00014c4.80059-6.111 12.00044-10.7777 18.00031-13.2222z" fill="#fff"/><path d="m91.99935 66.8889h-1.54688l-7.85105 1.22234s-6.77196-1.8333-7.79068-1.8333c-1.00092 0-4.20908.6111-4.80941.6111-.42074 0-2.99959-1.2222-3.60943-1.2222-1.00619 0-2.16569 1.2986-5.16562 1.8333 0 0-1.86379-1.94794-2.42628-1.83344-3.59992 1.4132-4.80059 1.2222-4.80059 1.2222v7.1111h37.9986l.001-7.1111h.00014z" fill="#2a9240"/><path d="m91.9994 56.00413c-3.313707 0-5.999998-2.686291-6-6h6z" fill="#ffd60a"/><path d="m54 50v24h38v-24zm1 1h36v22h-36z" fill="#fff"/><path d="m91 122.44068h30v2.55932h-30z" filter="url(#a)" opacity=".15" stroke-width="1.015418"/><path d="m106 87c-6.60373 0-12 5.396273-12 12v4h-1c-2.735406 0-5 2.26459-5 5v12h17c1.662 0 3-1.338 3-3v-14h-6v-4c0-2.23283 1.76717-4 4-4 .73628 0 1.41166.207278 2 .544922v-8.363281c-.65207-.110652-1.31751-.181641-2-.181641z" fill="#fff" fill-opacity=".784314"/><g transform="translate(-6 -4)"><path d="m99 109c-1.662 0-3 1.338-3 3v13c0 1.662 1.338 3 3 3h26c1.662 0 3-1.338 3-3v-13c0-1.662-1.338-3-3-3h-3-4-12-4z" fill="url(#b)"/><path d="m99 109c-1.662 0-3 1.338-3 3v13c0 1.662 1.338 3 3 3h26c1.662 0 3-1.338 3-3v-13c0-1.662-1.338-3-3-3h-3-4-12-4zm0 1h26c1.108 0 2 .892 2 2v13c0 1.108-.892 2-2 2h-26c-1.108 0-2-.892-2-2v-13c0-1.108.892-2 2-2z" fill="#627899"/><path d="m112 93c-5.52285 0-10 4.477153-10 10v6h4v-6c0-3.313709 2.68629-6 6-6s6 2.686291 6 6v6h4v-6c0-5.522847-4.47715-10-10-10z" fill="#627899"/><path d="m112 93.980469c-4.99308 0-9.01953 4.026454-9.01953 9.019531v5.01953.98047h2.01953v-.98047h.0195v-5.01953c0-.24022.0132-.47683.0371-.71094.35872-3.511567 3.3401-6.269529 6.94336-6.269529 3.84348 0 6.98047 3.13699 6.98047 6.980469v5.01953h.01957v.98047h2.01953v-.98047-5.01953c0-4.993077-4.02645-9.019531-9.01953-9.019531z" fill="#ebebeb"/><path d="m112 93.980469c-4.99308 0-9.01953 4.026454-9.01953 9.019531v.20703c0-4.820361 4.02645-8.70703 9.01953-8.70703s9.01953 3.886669 9.01953 8.70703v-.20703c0-4.993077-4.02645-9.019531-9.01953-9.019531z" fill="#fff" filter="url(#c)"/><rect fill="url(#d)" height="8" rx=".016949" ry="1" width="30" x="97" y="115"/><rect fill="#5f3519" height="1" rx=".016949" ry=".125" transform="scale(1 -1)" width="30" x="97" y="-124"/><g fill="#341f07"><path d="m97 115 5 8h4l-5-8z"/><path d="m105 115 5 8h4l-5-8z"/><path d="m113 115 5 8h4l-5-8z"/><path d="m121 115 5 8h.98242c.009 0 .0176-.446.0176-1v-3.80078l-2.00002-3.19922z"/></g><path d="m99 110c-1.108 0-2 .892-2 2 0-.554.446-1 1-1h28c.554 0 1 .446 1 1 0-1.108-.892-2-2-2z" fill="#e7e7e7"/><rect fill="#a28b6c" height="1" rx="0" ry="1" width="30" x="97" y="114"/></g></svg>