<svg viewBox="0 0 32 32" xmlns="http://www.w3.org/2000/svg" xmlns:xlink="http://www.w3.org/1999/xlink"><linearGradient id="a" gradientUnits="userSpaceOnUse" x1="17" x2="17" y1="29" y2="18"><stop offset="0" stop-color="#0040dd"/><stop offset="1" stop-color="#0a84ff"/></linearGradient><g fill="#808080"><g fill="#4b4b4f" stroke-width=".421877" transform="translate(3)"><path d="m22.629502 5h-5.629502v3h2.548178c.881165 0 1.649431.1514502 2.304798.4543507.655366.3029005 1.153775.7324685 1.495227 1.2887039.341451.5562354.512177 1.2005874.512177 1.9330554 0 1.123486-.382756 1.61962-1.148268 2.302523-.760005.682903-1.798128 1.029861-3.114368 1.040876h-4.601334v-12.0279029h7.633092zm-5.629502 5v3h2.539917c1.293733.0067 2.333072-.5 2.23871-1.340411-.093969-1.433943-1.126573-1.659589-2.180883-1.659589z" fill="#4b4b4f"/><path d="m10.408203 3-4.408203 11.998047h2.0273438l1.0292968-2.998047h4.5546874l1.015625 2.998047h2.035156l-4.359375-11.998047zm.914063 2.3984375h.050781l1.560547 4.6015625h-3.1914065z" transform="translate(-3)"/></g><path d="m4 18c-.5577284 0-1.0058594.448131-1.0058594 1.005858v8.988212c0 .557728.448131 1.005859 1.0058594 1.005859h23.988282c.557728 0 1.005859-.448131 1.005859-1.005859v-8.988212c0-.557727-.448131-1.005858-1.005859-1.005858z" fill="url(#a)"/></g><g fill="#fff"><path d="m8.5606797 25.833333h1.4555023v-3.696491c0-.161404.0057-.329825.01699-.505263l-.9797738.784211c-.064185.04912-.1283709.07895-.1925567.08947-.064185.0105-.1245952.0105-.1812296 0-.056634-.0105-.1076052-.02806-.1529126-.05263-.041532-.02807-.073625-.05614-.096278-.08421l-.4304213-.547367 2.259709-1.821053h1.240291v5.833333h1.166667v1.166667h-4.1059873z"/><path d="m21.437269 20q.478098 0 .867853.145942.394952.140729.670379.40134.280624.260611.431328.630678.155903.364854.155903.807892 0 .380492-.10913.708861-.10913.323158-.291017.620254-.181885.291884-.426132.573343-.244247.276248-.514477.557707l-1.465479 1.537602q.233853-.07297.467707-.109457.233852-.0417.436525-.0417h1.564217q.197476 0 .317.114672.124721.114666.124721.302305v.750559h-4.666667v-.422189q0-.119881.04677-.255399.05196-.140729.176689-.26061l2.005939-2.069248q.25464-.265823.44692-.505585.197475-.239761.327394-.474311.135114-.239761.202673-.479524.06756-.244973.06756-.510796 0-.479524-.23905-.724498-.23905-.244974-.675576-.244974-.187082 0-.342984.05734-.155902.05734-.280623.156366-.124722.09903-.213066.234551-.08834.135518-.135116.291884-.08315.23976-.228656.312732-.140311.07296-.389754.03127l-.665187-.11466q.07795-.505585.280623-.880865.202673-.380491.504084-.630677.306607-.255398.701558-.380492.394955-.130313.847071-.130313z"/></g></svg>