<?xml version="1.0" encoding="UTF-8" standalone="no"?>
<svg
   xmlns:dc="http://purl.org/dc/elements/1.1/"
   xmlns:cc="http://creativecommons.org/ns#"
   xmlns:rdf="http://www.w3.org/1999/02/22-rdf-syntax-ns#"
   xmlns:svg="http://www.w3.org/2000/svg"
   xmlns="http://www.w3.org/2000/svg"
   xmlns:xlink="http://www.w3.org/1999/xlink"
   xmlns:sodipodi="http://sodipodi.sourceforge.net/DTD/sodipodi-0.dtd"
   xmlns:inkscape="http://www.inkscape.org/namespaces/inkscape"
   viewBox="0 0 24 24"
   version="1.1"
   id="svg8"
   sodipodi:docname="lc_exportdirecttopdf.svg"
   inkscape:version="0.92.3 (unknown)"
   inkscape:export-filename="/home/rizmut/Dokumen/Rizmut/Github/libreoffice-style-colibrex/images_colibrex/cmd/lc_exportdirecttopdf.png"
   inkscape:export-xdpi="96"
   inkscape:export-ydpi="96">
  <metadata
     id="metadata14">
    <rdf:RDF>
      <cc:Work
         rdf:about="">
        <dc:format>image/svg+xml</dc:format>
        <dc:type
           rdf:resource="http://purl.org/dc/dcmitype/StillImage" />
        <dc:title />
      </cc:Work>
    </rdf:RDF>
  </metadata>
  <defs
     id="defs12">
    <linearGradient
       inkscape:collect="always"
       xlink:href="#linearGradient882"
       id="linearGradient884"
       x1="18"
       y1="11"
       x2="19.428572"
       y2="9.5714283"
       gradientUnits="userSpaceOnUse"
       gradientTransform="matrix(1.4,0,0,1.4,-10.2,-7.4)" />
    <linearGradient
       inkscape:collect="always"
       id="linearGradient882">
      <stop
         style="stop-color:#ffffff;stop-opacity:1;"
         offset="0"
         id="stop878" />
      <stop
         id="stop886"
         offset="0.77967989"
         style="stop-color:#f1f1f1;stop-opacity:1" />
      <stop
         style="stop-color:#d5d5d5;stop-opacity:1"
         offset="1"
         id="stop880" />
    </linearGradient>
    <linearGradient
       inkscape:collect="always"
       id="linearGradient870">
      <stop
         style="stop-color:#d7d7d7;stop-opacity:1"
         offset="0"
         id="stop866" />
      <stop
         id="stop874"
         offset="0.29999998"
         style="stop-color:#f7f7f7;stop-opacity:1" />
      <stop
         style="stop-color:#ffffff;stop-opacity:1"
         offset="1"
         id="stop868" />
    </linearGradient>
    <radialGradient
       inkscape:collect="always"
       xlink:href="#linearGradient870"
       id="radialGradient857"
       cx="17"
       cy="6.5555553"
       fx="17"
       fy="6.5555553"
       r="7"
       gradientTransform="matrix(1.4285714,-6.3025743e-8,6.3025743e-8,1.4285714,-7.2857139,-4.365078)"
       gradientUnits="userSpaceOnUse" />
  </defs>
  <sodipodi:namedview
     pagecolor="#ffffff"
     bordercolor="#666666"
     borderopacity="1"
     objecttolerance="10"
     gridtolerance="10"
     guidetolerance="10"
     inkscape:pageopacity="0"
     inkscape:pageshadow="2"
     inkscape:window-width="1366"
     inkscape:window-height="706"
     id="namedview10"
     showgrid="true"
     inkscape:zoom="19.666667"
     inkscape:cx="2.6835297"
     inkscape:cy="10.948432"
     inkscape:window-x="0"
     inkscape:window-y="0"
     inkscape:window-maximized="1"
     inkscape:current-layer="svg8">
    <inkscape:grid
       type="xygrid"
       id="grid821" />
  </sodipodi:namedview>
  <path
     sodipodi:nodetypes="cccccc"
     inkscape:connector-curvature="0"
     d="M 5,4 V 21 H 19 V 7.7294095 L 15,4 Z"
     id="path2"
     style="fill:url(#radialGradient857);fill-opacity:1" />
  <path
     inkscape:connector-curvature="0"
     style="fill:#a1a1a1;fill-opacity:1"
     d="M 5,3 C 4.446,3 4,3.446 4,4 v 17 c 0,0.554 0.446,1 1,1 h 5.183594 a 1.0001,1.0001 0 0 1 0.228515,-0.488281 c 0.003,-0.0032 9.07e-4,-0.0085 0.0039,-0.01172 a 1.0001,1.0001 0 0 1 0.0078,-0.0078 c 0.07109,-0.07214 0.01823,-0.01806 0.01953,-0.01758 a 1.0001,1.0001 0 0 1 0.08594,-0.08008 C 10.690459,21.259773 10.827874,21.131254 10.976562,21 H 5 V 4 h 9 v 4 c 0,0.554 0.446,1 1,1 h 4 v 7.623047 c 0.281406,0.183398 0.615707,0.347736 1,0.494141 V 8.25 8.0410156 C 20,7.5903357 20.098038,7.6156035 19.394531,6.9746094 L 16.087891,3.7363281 C 15.378366,2.9994706 15.377722,3 14.994141,3 H 14.662109 14 Z M 19,20.121094 V 21 h -3.181641 c -0.490395,0.259154 -1.00132,0.591845 -1.535156,1 H 20 V 21.246094 21 20.169922 c -0.05069,-0.01448 -0.105973,-0.02633 -0.15625,-0.04102 -0.281796,-0.02259 -0.5625,-0.01731 -0.84375,-0.0078 z"
     id="path4-7" />
  <path
     style="fill:#ffffff;fill-opacity:1"
     d="M 16.138672 10 C 15.578625 9.99033 15.15086 10.358845 14.894531 10.832031 A 1.0001 1.0001 0 0 0 14.677734 11.222656 C 14.674434 11.241046 14.654944 11.250911 14.652344 11.269531 A 1.0001 1.0001 0 0 0 14.652344 11.271484 C 14.648444 11.299694 14.653944 11.301605 14.652344 11.328125 C 14.652236 11.329925 14.652442 11.330231 14.652344 11.332031 A 1.0001 1.0001 0 0 0 14.640625 11.548828 C 14.649565 11.725832 14.649556 11.935364 14.660156 12.173828 C 14.614296 12.860201 14.638085 13.493316 14.703125 14.083984 C 14.681158 14.816862 14.607587 15.507883 14.402344 16.207031 C 13.993089 17.601108 13.096585 19.12856 10.976562 21 L 15.818359 21 C 16.477062 20.651902 17.101578 20.420305 17.695312 20.28125 C 18.062155 20.195331 18.420984 20.142891 18.777344 20.119141 C 18.851748 20.114241 18.92578 20.123594 19 20.121094 L 19 16.623047 C 18.795549 16.489802 18.608722 16.350059 18.462891 16.197266 C 18.071131 15.786804 17.784634 15.099899 17.626953 14.160156 C 17.657843 13.199234 17.627954 12.27034 17.583984 11.398438 A 1.0001 1.0001 0 0 0 17.583984 11.396484 C 17.543762 10.633939 16.903889 10.01506 16.140625 10 L 16.138672 10 z "
     id="path1449" />
  <path
     inkscape:connector-curvature="0"
     id="path876"
     d="m 15,4 4,4 h -4 z"
     style="fill:url(#linearGradient884);fill-opacity:1;stroke:none;stroke-width:1.39999998px;stroke-linecap:butt;stroke-linejoin:miter;stroke-opacity:1"
     sodipodi:nodetypes="cccc" />
  <path
     inkscape:connector-curvature="0"
     style="fill:none;stroke:#ff453a;stroke-width:0.94852901;stroke-linecap:round;stroke-linejoin:round;stroke-opacity:1"
     d="m 11.473603,22.526341 c 5.226938,-4.370563 4.807709,-7.688322 4.637891,-11.052586 -0.748906,5.401898 2.038932,7.334389 6.414603,7.709274 -3.299738,-1.04046 -6.796542,-0.976274 -11.052494,3.343312 z"
     id="path8" />
</svg>
