<?xml version="1.0" encoding="UTF-8" standalone="no"?>
<svg
   xmlns:dc="http://purl.org/dc/elements/1.1/"
   xmlns:cc="http://creativecommons.org/ns#"
   xmlns:rdf="http://www.w3.org/1999/02/22-rdf-syntax-ns#"
   xmlns:svg="http://www.w3.org/2000/svg"
   xmlns="http://www.w3.org/2000/svg"
   xmlns:xlink="http://www.w3.org/1999/xlink"
   xmlns:sodipodi="http://sodipodi.sourceforge.net/DTD/sodipodi-0.dtd"
   xmlns:inkscape="http://www.inkscape.org/namespaces/inkscape"
   viewBox="0 0 24 24"
   version="1.1"
   id="svg24"
   sodipodi:docname="lc_insertendnote.svg"
   inkscape:version="0.92.3 (unknown)"
   inkscape:export-filename="/home/rizmut/Dokumen/Rizmut/Github/libreoffice-style-calibre/images_calibre/cmd/lc_insertendnote.png"
   inkscape:export-xdpi="96"
   inkscape:export-ydpi="96">
  <metadata
     id="metadata30">
    <rdf:RDF>
      <cc:Work
         rdf:about="">
        <dc:format>image/svg+xml</dc:format>
        <dc:type
           rdf:resource="http://purl.org/dc/dcmitype/StillImage" />
      </cc:Work>
    </rdf:RDF>
  </metadata>
  <defs
     id="defs28">
    <linearGradient
       inkscape:collect="always"
       id="linearGradient825">
      <stop
         style="stop-color:#ffffff;stop-opacity:1;"
         offset="0"
         id="stop821" />
      <stop
         id="stop829"
         offset="0.5"
         style="stop-color:#ffffff;stop-opacity:1;" />
      <stop
         style="stop-color:#ffffff;stop-opacity:1"
         offset="0.75"
         id="stop831" />
      <stop
         style="stop-color:#dfdfdf;stop-opacity:1"
         offset="1"
         id="stop823" />
    </linearGradient>
    <linearGradient
       inkscape:collect="always"
       xlink:href="#linearGradient825"
       id="linearGradient864"
       x1="11"
       y1="14.5"
       x2="19.084745"
       y2="7.6864405"
       gradientUnits="userSpaceOnUse" />
    <linearGradient
       inkscape:collect="always"
       xlink:href="#linearGradient825"
       id="linearGradient872"
       x1="11"
       y1="14.5"
       x2="20"
       y2="7"
       gradientUnits="userSpaceOnUse" />
    <linearGradient
       inkscape:collect="always"
       xlink:href="#linearGradient825"
       id="linearGradient880"
       x1="11"
       y1="14.5"
       x2="20"
       y2="7"
       gradientUnits="userSpaceOnUse" />
  </defs>
  <sodipodi:namedview
     pagecolor="#ffffff"
     bordercolor="#666666"
     borderopacity="1"
     objecttolerance="10"
     gridtolerance="10"
     guidetolerance="10"
     inkscape:pageopacity="0"
     inkscape:pageshadow="2"
     inkscape:window-width="1366"
     inkscape:window-height="707"
     id="namedview26"
     showgrid="false"
     inkscape:zoom="4.9166667"
     inkscape:cx="28.95602"
     inkscape:cy="1.2648026"
     inkscape:window-x="0"
     inkscape:window-y="0"
     inkscape:window-maximized="1"
     inkscape:current-layer="svg24" />
  <g
     transform="translate(-8 -4)"
     id="g6">
    <path
       d="m11 6c-.554 0-1 .446-1 1v15c0 .554.446 1 1 1h9c.554 0 1-.446 1-1v-15c0-.554-.446-1-1-1zm0 1h9v15h-9z"
       fill="#808080"
       id="path2"
       style="fill:#bababa;fill-opacity:1" />
    <path
       d="m11 7h9v15h-9z"
       fill="#fff"
       id="path4"
       style="fill-opacity:1;fill:url(#linearGradient880)" />
  </g>
  <g
     transform="translate(-4 -2)"
     id="g12">
    <path
       d="m11 6c-.554 0-1 .446-1 1v15c0 .554.446 1 1 1h9c.554 0 1-.446 1-1v-15c0-.554-.446-1-1-1zm0 1h9v15h-9z"
       fill="#808080"
       id="path8"
       style="fill:#bababa;fill-opacity:1" />
    <path
       d="m11 7h9v15h-9z"
       fill="#fff"
       id="path10"
       style="fill-opacity:1;fill:url(#linearGradient872)" />
  </g>
  <path
     d="m11 6c-.554 0-1 .446-1 1v15c0 .554.446 1 1 1h8v-1h-8v-15h9v3.283203c.296519-.175464.636031-.283203 1-.283203v-3c0-.554-.446-1-1-1z"
     fill="#808080"
     id="path14"
     style="fill:#bababa;fill-opacity:1" />
  <path
     d="m11 7v15h8v-8a1.0001 1.0001 0 0 1 .482422-.853516c-.252344-.334808-.482422-.702403-.482422-1.146484 0-.726734.407943-1.366449 1-1.716797v-3.283203z"
     fill="#fff"
     id="path16"
     style="fill-opacity:1;fill:url(#linearGradient864)" />
  <g
     fill="#4d82b8"
     id="g22">
    <rect
       height="2"
       ry="1"
       width="2"
       x="20"
       y="11"
       id="rect18" />
    <path
       d="m20 14h2v9h-2z"
       id="path20" />
  </g>
</svg>
