<?xml version="1.0" encoding="UTF-8" standalone="no"?>
<svg
   xmlns:dc="http://purl.org/dc/elements/1.1/"
   xmlns:cc="http://creativecommons.org/ns#"
   xmlns:rdf="http://www.w3.org/1999/02/22-rdf-syntax-ns#"
   xmlns:svg="http://www.w3.org/2000/svg"
   xmlns="http://www.w3.org/2000/svg"
   xmlns:xlink="http://www.w3.org/1999/xlink"
   xmlns:sodipodi="http://sodipodi.sourceforge.net/DTD/sodipodi-0.dtd"
   xmlns:inkscape="http://www.inkscape.org/namespaces/inkscape"
   viewBox="0 0 24 24"
   version="1.1"
   id="svg14"
   sodipodi:docname="lc_insertdraw.svg"
   inkscape:version="0.92.3 (unknown)"
   inkscape:export-filename="/home/rizmut/Dokumen/Rizmut/Github/libreoffice-style-colibrex/images_colibrex/cmd/lc_insertdraw.png"
   inkscape:export-xdpi="96"
   inkscape:export-ydpi="96">
  <metadata
     id="metadata20">
    <rdf:RDF>
      <cc:Work
         rdf:about="">
        <dc:format>image/svg+xml</dc:format>
        <dc:type
           rdf:resource="http://purl.org/dc/dcmitype/StillImage" />
      </cc:Work>
    </rdf:RDF>
  </metadata>
  <defs
     id="defs18">
    <linearGradient
       inkscape:collect="always"
       id="linearGradient834">
      <stop
         style="stop-color:#e5eefc;stop-opacity:1;"
         offset="0"
         id="stop830" />
      <stop
         style="stop-color:#fcfdff;stop-opacity:1"
         offset="1"
         id="stop832" />
    </linearGradient>
    <linearGradient
       inkscape:collect="always"
       xlink:href="#linearGradient834"
       id="linearGradient844"
       x1="15.910008"
       y1="20.17746"
       x2="15.600084"
       y2="9.6787214"
       gradientUnits="userSpaceOnUse" />
    <linearGradient
       inkscape:collect="always"
       xlink:href="#linearGradient834"
       id="linearGradient852"
       x1="7.6021867"
       y1="19.680824"
       x2="8"
       y2="9"
       gradientUnits="userSpaceOnUse" />
    <linearGradient
       inkscape:collect="always"
       xlink:href="#linearGradient834"
       id="linearGradient860"
       x1="7.9617324"
       y1="18.530277"
       x2="7.8944492"
       y2="9.9730864"
       gradientUnits="userSpaceOnUse" />
    <linearGradient
       inkscape:collect="always"
       xlink:href="#linearGradient834"
       id="linearGradient832"
       x1="8.1774597"
       y1="18.817915"
       x2="8"
       y2="9"
       gradientUnits="userSpaceOnUse" />
  </defs>
  <sodipodi:namedview
     pagecolor="#ffffff"
     bordercolor="#666666"
     borderopacity="1"
     objecttolerance="10"
     gridtolerance="10"
     guidetolerance="10"
     inkscape:pageopacity="0"
     inkscape:pageshadow="2"
     inkscape:window-width="1366"
     inkscape:window-height="706"
     id="namedview16"
     showgrid="false"
     inkscape:zoom="9.8333332"
     inkscape:cx="3.6671477"
     inkscape:cy="2.2647887"
     inkscape:window-x="0"
     inkscape:window-y="0"
     inkscape:window-maximized="1"
     inkscape:current-layer="svg14" />
  <path
     d="m3 8c-.554 0-1 .446-1 1v10c0 .554.446 1 1 1h10c.554 0 1-.446 1-1v-10c0-.554-.446-1-1-1zm0 1h10v10h-10z"
     fill="#808080"
     id="path2"
     style="fill:#0a84ff;fill-opacity:1" />
  <path
     d="m3 9h10v10h-10z"
     fill="#fff"
     id="path4"
     style="fill-opacity:1;fill:url(#linearGradient860)" />
  <g
     transform="translate(8 -6)"
     id="g10">
    <path
       d="m8 8a6 6 0 0 0 -6 6 6 6 0 0 0 6 6 6 6 0 0 0 6-6 6 6 0 0 0 -6-6zm0 1a5 5 0 0 1 5 5 5 5 0 0 1 -5 5 5 5 0 0 1 -5-5 5 5 0 0 1 5-5z"
       fill="#808080"
       id="path6"
       style="fill:#0a84ff;fill-opacity:1" />
    <path
       id="circle8"
       style="fill-opacity:1;fill:url(#linearGradient852)"
       fill="#fff"
       r="5"
       cy="14"
       cx="8" />
    <path
       style="fill:url(#linearGradient832);fill-opacity:1"
       id="path824"
       d="m 8,9 c 2.761424,0 5,2.238576 5,5 0,2.761424 -2.238576,5 -5,5 C 5.2385763,19 3,16.761424 3,14 3,11.238576 5.2385763,9 8,9 Z"
       inkscape:connector-curvature="0"
       sodipodi:nodetypes="sssss" />
  </g>
  <path
     d="m15 21.533351 6.533351-6.533352-6.533351-6.5333503-6.5333514 6.5333503z"
     style="fill:url(#linearGradient844);fill-rule:evenodd;stroke:#0a84ff;stroke-width:0.933336;stroke-linecap:round;stroke-linejoin:round;stroke-opacity:1;fill-opacity:1"
     id="path12" />
  <circle
     style="opacity:1;fill:#658ae2;fill-opacity:1;stroke:none;stroke-width:7;stroke-miterlimit:4;stroke-dasharray:none"
     id="path873"
     cx="264.50848"
     cy="239.8983"
     r="4.9830508" />
</svg>
