<?xml version="1.0" encoding="UTF-8" standalone="no"?>
<svg
   xmlns:dc="http://purl.org/dc/elements/1.1/"
   xmlns:cc="http://creativecommons.org/ns#"
   xmlns:rdf="http://www.w3.org/1999/02/22-rdf-syntax-ns#"
   xmlns:svg="http://www.w3.org/2000/svg"
   xmlns="http://www.w3.org/2000/svg"
   xmlns:xlink="http://www.w3.org/1999/xlink"
   xmlns:sodipodi="http://sodipodi.sourceforge.net/DTD/sodipodi-0.dtd"
   xmlns:inkscape="http://www.inkscape.org/namespaces/inkscape"
   viewBox="0 0 24 24"
   version="1.1"
   id="svg12"
   sodipodi:docname="lc_insertbookmark.svg"
   inkscape:export-filename="/home/rizmut/Dokumen/Rizmut/Github/libreoffice-style-colibrex/images_colibrex/cmd/lc_insertbookmark.png"
   inkscape:export-xdpi="96"
   inkscape:export-ydpi="96"
   inkscape:version="0.92.3 (unknown)">
  <metadata
     id="metadata18">
    <rdf:RDF>
      <cc:Work
         rdf:about="">
        <dc:format>image/svg+xml</dc:format>
        <dc:type
           rdf:resource="http://purl.org/dc/dcmitype/StillImage" />
      </cc:Work>
    </rdf:RDF>
  </metadata>
  <defs
     id="defs16">
    <linearGradient
       inkscape:collect="always"
       xlink:href="#linearGradient882"
       id="linearGradient884"
       x1="18"
       y1="11"
       x2="19.428572"
       y2="9.5714283"
       gradientUnits="userSpaceOnUse"
       gradientTransform="matrix(1.4,0,0,1.4,-10.2,-8.4)" />
    <linearGradient
       inkscape:collect="always"
       id="linearGradient882">
      <stop
         style="stop-color:#ffffff;stop-opacity:1;"
         offset="0"
         id="stop878" />
      <stop
         id="stop886"
         offset="0.77967989"
         style="stop-color:#f1f1f1;stop-opacity:1" />
      <stop
         style="stop-color:#d5d5d5;stop-opacity:1"
         offset="1"
         id="stop880" />
    </linearGradient>
    <linearGradient
       inkscape:collect="always"
       id="linearGradient870">
      <stop
         style="stop-color:#d7d7d7;stop-opacity:1"
         offset="0"
         id="stop866" />
      <stop
         id="stop874"
         offset="0.29999998"
         style="stop-color:#f7f7f7;stop-opacity:1" />
      <stop
         style="stop-color:#ffffff;stop-opacity:1"
         offset="1"
         id="stop868" />
    </linearGradient>
    <radialGradient
       inkscape:collect="always"
       xlink:href="#linearGradient870"
       id="radialGradient866"
       cx="16.169491"
       cy="7.1751413"
       fx="16.169491"
       fy="7.1751413"
       r="7"
       gradientTransform="matrix(1,0,0,1.2857143,0,-3.4285714)"
       gradientUnits="userSpaceOnUse" />
  </defs>
  <sodipodi:namedview
     pagecolor="#ffffff"
     bordercolor="#666666"
     borderopacity="1"
     objecttolerance="10"
     gridtolerance="10"
     guidetolerance="10"
     inkscape:pageopacity="0"
     inkscape:pageshadow="2"
     inkscape:window-width="1366"
     inkscape:window-height="706"
     id="namedview14"
     showgrid="false"
     inkscape:zoom="9.8333333"
     inkscape:cx="16.788315"
     inkscape:cy="11.452494"
     inkscape:window-x="0"
     inkscape:window-y="0"
     inkscape:window-maximized="1"
     inkscape:current-layer="svg12" />
  <path
     d="m5 3v18h5v-10c0-1.0907028.909297-2 2-2 .545351 0 1.044541.2281347 1.408203.5917969.262983-.343382.627453-.5976924 1.111328-.5917969.211155.0024613.417984.0532845.605469.1445312h.001953l3.873047 1.8847658v-4.3007814l-4-3.7285156zm10.044922 8.328125v5.427734l3.955078-1.492187v-2.009766zm3.955078 6.074219-3.996094 1.505859c-.360204.136249-.687987-.020578-1.003906-.164062v2.255859h5z"
     fill="#fff"
     id="path2"
     style="fill-opacity:1;fill:url(#radialGradient866)" />
  <path
     d="m5 2c-.554 0-1 .446-1 1v18c0 .554.446 1 1 1h5v-1h-5v-18h9v4c0 .554.446 1 1 1h4v3.029297l1 .486328v-.625-3.640625-.2089844c0-.4506799.098038-.4254121-.605469-1.0664062l-3.30664-3.2382813c-.709525-.7368575-.710169-.7363281-1.09375-.7363281h-.332032-.662109zm14 11.253906v2.009766l1-.376953v-1.146485zm1 3.771485-1 .376953v3.597656h-5v1h5c.554 0 1-.446 1-1z"
     fill="#808080"
     id="path4"
     style="fill:#98989d;fill-opacity:1" />
  <path
     d="m15 7h4l-4-4z"
     fill="#fff"
     fill-rule="evenodd"
     id="path6" />
  <path
     d="m14.507927 10.000201c-.254427-.0030999-.462142.225115-.462277.507799v6.9842c.000328.347953.308173.592601.604651.480457l8.087202-3.048752c.393157-.150748.415773-.75902.03515-.945289l-8.085442-3.935448c-.05655-.02763-.117518-.04225-.179286-.04297z"
     fill="#4d82b8"
     id="path8"
     style="fill:#0a84ff;fill-opacity:1" />
  <path
     d="m12 10c-.554 0-1 .446-1 1v11c0 .554.446 1 1 1s1-.446 1-1v-11c0-.554-.446-1-1-1z"
     fill="#808080"
     id="path10"
     style="fill:#98989d;fill-opacity:1" />
  <path
     inkscape:connector-curvature="0"
     id="path876"
     d="m 15,3 4,4 h -4 z"
     style="fill:url(#linearGradient884);fill-opacity:1;stroke:none;stroke-width:1.39999998px;stroke-linecap:butt;stroke-linejoin:miter;stroke-opacity:1"
     sodipodi:nodetypes="cccc" />
</svg>
