<?xml version="1.0" encoding="UTF-8" standalone="no"?>
<svg
   xmlns:dc="http://purl.org/dc/elements/1.1/"
   xmlns:cc="http://creativecommons.org/ns#"
   xmlns:rdf="http://www.w3.org/1999/02/22-rdf-syntax-ns#"
   xmlns:svg="http://www.w3.org/2000/svg"
   xmlns="http://www.w3.org/2000/svg"
   xmlns:xlink="http://www.w3.org/1999/xlink"
   xmlns:sodipodi="http://sodipodi.sourceforge.net/DTD/sodipodi-0.dtd"
   xmlns:inkscape="http://www.inkscape.org/namespaces/inkscape"
   viewBox="0 0 24 24"
   version="1.1"
   id="svg8"
   sodipodi:docname="lc_insertfootnote.svg"
   inkscape:version="0.92.3 (unknown)"
   inkscape:export-filename="/home/rizmut/Dokumen/Rizmut/Github/libreoffice-style-calibre/images_calibre/cmd/lc_insertfootnote.png"
   inkscape:export-xdpi="96"
   inkscape:export-ydpi="96">
  <metadata
     id="metadata14">
    <rdf:RDF>
      <cc:Work
         rdf:about="">
        <dc:format>image/svg+xml</dc:format>
        <dc:type
           rdf:resource="http://purl.org/dc/dcmitype/StillImage" />
      </cc:Work>
    </rdf:RDF>
  </metadata>
  <defs
     id="defs12">
    <linearGradient
       inkscape:collect="always"
       id="linearGradient825">
      <stop
         style="stop-color:#ffffff;stop-opacity:1;"
         offset="0"
         id="stop821" />
      <stop
         id="stop829"
         offset="0.5"
         style="stop-color:#ffffff;stop-opacity:1;" />
      <stop
         style="stop-color:#ffffff;stop-opacity:1"
         offset="0.75"
         id="stop831" />
      <stop
         style="stop-color:#dfdfdf;stop-opacity:1"
         offset="1"
         id="stop823" />
    </linearGradient>
    <linearGradient
       inkscape:collect="always"
       xlink:href="#linearGradient825"
       id="linearGradient827"
       x1="5"
       y1="12"
       x2="18"
       y2="3"
       gradientUnits="userSpaceOnUse" />
  </defs>
  <sodipodi:namedview
     pagecolor="#ffffff"
     bordercolor="#666666"
     borderopacity="1"
     objecttolerance="10"
     gridtolerance="10"
     guidetolerance="10"
     inkscape:pageopacity="0"
     inkscape:pageshadow="2"
     inkscape:window-width="1366"
     inkscape:window-height="707"
     id="namedview10"
     showgrid="false"
     inkscape:zoom="9.8333333"
     inkscape:cx="-1.0677966"
     inkscape:cy="11.186441"
     inkscape:window-x="0"
     inkscape:window-y="0"
     inkscape:window-maximized="1"
     inkscape:current-layer="svg8" />
  <path
     d="m5 3v18h13v-4.892578c-.157532.018023-.317687.020854-.474609-.019531-.01639-.00417-.032669-.008672-.048829-.013672-.266932-.083795-.579671-.239065-.80664-.5625l-.47461-.646485c-.305358-.41509-.245328-.994252.138672-1.33789l1.666016-1.488282v-9.039062z"
     fill="#fff"
     id="path2"
     style="fill-opacity:1;fill:url(#linearGradient827)" />
  <path
     d="m5 2c-.554 0-1 .446-1 1v18c0 .554.446 1 1 1h13 .972656v-6.355469l-.066406.064453c-.02003.01975-.04088.038651-.0625.056641-.206896.170095-.516862.304399-.84375.341797v4.892578h-13v-18h13v9.039062l1-.894531v-8.144531c0-.554-.446-1-1-1z"
     fill="#808080"
     id="path4"
     style="fill:#bababa;fill-opacity:1" />
  <path
     d="m19.972751 22v-8.720406l-1.763785 1.712613c-.14766.121396-.292243.163885-.433751.127466-.135355-.04249-.230718-.103185-.286092-.182094l-.489123-.664643 3.662167-3.272936h1.337833v11 1h-2.027249z"
     fill="#4d82b8"
     id="path6" />
</svg>
