<?xml version="1.0" encoding="UTF-8" standalone="no"?>
<svg
   xmlns:dc="http://purl.org/dc/elements/1.1/"
   xmlns:cc="http://creativecommons.org/ns#"
   xmlns:rdf="http://www.w3.org/1999/02/22-rdf-syntax-ns#"
   xmlns:svg="http://www.w3.org/2000/svg"
   xmlns="http://www.w3.org/2000/svg"
   xmlns:xlink="http://www.w3.org/1999/xlink"
   xmlns:sodipodi="http://sodipodi.sourceforge.net/DTD/sodipodi-0.dtd"
   xmlns:inkscape="http://www.inkscape.org/namespaces/inkscape"
   viewBox="0 0 24 24"
   version="1.1"
   id="svg6"
   sodipodi:docname="lc_navigator.svg"
   inkscape:version="0.92.3 (unknown)">
  <metadata
     id="metadata12">
    <rdf:RDF>
      <cc:Work
         rdf:about="">
        <dc:format>image/svg+xml</dc:format>
        <dc:type
           rdf:resource="http://purl.org/dc/dcmitype/StillImage" />
        <dc:title></dc:title>
      </cc:Work>
    </rdf:RDF>
  </metadata>
  <defs
     id="defs10">
    <linearGradient
       inkscape:collect="always"
       id="linearGradient850">
      <stop
         style="stop-color:#60afff;stop-opacity:1"
         offset="0"
         id="stop846" />
      <stop
         style="stop-color:#47a3ff;stop-opacity:1"
         offset="1"
         id="stop848" />
    </linearGradient>
    <clipPath
       clipPathUnits="userSpaceOnUse"
       id="clipPath835">
      <circle
         style="opacity:1;fill:#0a84ff;fill-opacity:1;stroke:#0a84ff;stroke-width:1;stroke-linecap:round;stroke-linejoin:round;stroke-miterlimit:4;stroke-dasharray:none;stroke-opacity:1"
         id="circle837"
         cx="735.45764"
         cy="-971.79663"
         r="122.0339" />
    </clipPath>
    <radialGradient
       inkscape:collect="always"
       xlink:href="#linearGradient850"
       id="radialGradient852"
       cx="12"
       cy="12"
       fx="12"
       fy="12"
       r="10"
       gradientUnits="userSpaceOnUse" />
  </defs>
  <sodipodi:namedview
     pagecolor="#ffffff"
     bordercolor="#666666"
     borderopacity="1"
     objecttolerance="10"
     gridtolerance="10"
     guidetolerance="10"
     inkscape:pageopacity="0"
     inkscape:pageshadow="2"
     inkscape:window-width="1366"
     inkscape:window-height="706"
     id="namedview8"
     showgrid="true"
     inkscape:zoom="4.9166667"
     inkscape:cx="6.4114423"
     inkscape:cy="2.5797802"
     inkscape:window-x="0"
     inkscape:window-y="0"
     inkscape:window-maximized="1"
     inkscape:current-layer="svg6">
    <inkscape:grid
       type="xygrid"
       id="grid839" />
  </sodipodi:namedview>
  <circle
     cx="12"
     cy="12"
     r="9.5"
     id="circle2"
     style="fill:url(#radialGradient852);fill-opacity:1;stroke:#0070f5;stroke-opacity:1"
     stroke-linejoin="round"
     stroke-linecap="round"
     stroke="#808080"
     fill="#fff" />
  <path
     style="fill:#d70015;fill-opacity:1"
     d="M 16.279297 7 C 16.204897 7.000902 16.131086 7.0134194 16.060547 7.0371094 L 11.832031 8.4453125 C 10.933242 8.4906425 10.108697 8.8873976 9.4980469 9.4980469 L 10.585938 10.585938 A 2 2 0 0 1 10.607422 10.564453 A 2 2 0 0 1 12 10 A 2 2 0 0 1 13.433594 10.607422 A 2 2 0 0 1 13.566406 10.755859 A 2 2 0 0 1 14 12 A 2 2 0 0 1 13.414062 13.414062 L 14.501953 14.501953 C 15.112603 13.891304 15.509359 13.06676 15.554688 12.167969 L 16.962891 7.9394531 C 17.117179 7.4747841 16.768895 6.996143 16.279297 7 z M 12.833984 13.814453 A 2 2 0 0 1 12.726562 13.863281 A 2 2 0 0 0 12.833984 13.814453 z M 12.707031 13.869141 A 2 2 0 0 1 12.548828 13.923828 A 2 2 0 0 0 12.707031 13.869141 z M 12.240234 13.982422 A 2 2 0 0 1 12.152344 13.992188 A 2 2 0 0 0 12.240234 13.982422 z "
     id="path4" />
  <path
     style="opacity:1;fill:#b5b1af;fill-opacity:1;stroke:none;stroke-width:1;stroke-linecap:round;stroke-linejoin:round;stroke-miterlimit:4;stroke-dasharray:none;stroke-opacity:1"
     d="M 9.4980469 9.4980469 C 8.8873968 10.108696 8.4906415 10.93324 8.4453125 11.832031 L 7.0371094 16.060547 C 6.8530864 16.617783 7.3822171 17.146914 7.9394531 16.962891 L 12.167969 15.554688 C 13.066758 15.509358 13.891303 15.112603 14.501953 14.501953 L 13.414062 13.414062 A 2 2 0 0 1 12 14 A 2 2 0 0 1 11.603516 13.960938 A 2 2 0 0 1 11.601562 13.960938 A 2 2 0 0 1 10.216797 12.90625 A 2 2 0 0 1 10.136719 12.724609 A 2 2 0 0 1 10.029297 12.339844 A 2 2 0 0 1 10 12 A 2 2 0 0 1 10.470703 10.710938 A 2 2 0 0 1 10.585938 10.585938 L 9.4980469 9.4980469 z "
     id="rect841" />
  <path
     style="fill:#ff4f44;stroke:none;stroke-width:1px;stroke-linecap:butt;stroke-linejoin:miter;stroke-opacity:1;fill-opacity:1"
     d="M 16.279297 7 C 16.204897 7.000902 16.131086 7.0134194 16.060547 7.0371094 L 11.832031 8.4453125 C 10.933242 8.4906425 10.108697 8.8873975 9.4980469 9.4980469 L 10.585938 10.585938 A 2 2 0 0 1 10.607422 10.564453 A 2 2 0 0 1 12 10 A 2 2 0 0 1 13.216797 10.416016 L 16.726562 7.1757812 C 16.603524 7.0743497 16.456455 6.9986044 16.279297 7 z "
     id="path854" />
  <path
     style="fill:#ffffff;stroke:none;stroke-width:1px;stroke-linecap:butt;stroke-linejoin:miter;stroke-opacity:1;fill-opacity:1"
     d="M 9.4980469 9.4980469 C 8.8873968 10.108696 8.4906415 10.93324 8.4453125 11.832031 L 7.0371094 16.060547 C 7.0293141 16.084151 7.0306786 16.107408 7.0253906 16.130859 L 10.322266 13.087891 A 2 2 0 0 1 10.216797 12.90625 A 2 2 0 0 1 10.136719 12.724609 A 2 2 0 0 1 10.029297 12.339844 A 2 2 0 0 1 10 12 A 2 2 0 0 1 10.470703 10.710938 A 2 2 0 0 1 10.585938 10.585938 L 9.4980469 9.4980469 z "
     id="path856" />
</svg>
