<?xml version="1.0" encoding="UTF-8" standalone="no"?>
<svg
   xmlns:dc="http://purl.org/dc/elements/1.1/"
   xmlns:cc="http://creativecommons.org/ns#"
   xmlns:rdf="http://www.w3.org/1999/02/22-rdf-syntax-ns#"
   xmlns:svg="http://www.w3.org/2000/svg"
   xmlns="http://www.w3.org/2000/svg"
   xmlns:xlink="http://www.w3.org/1999/xlink"
   xmlns:sodipodi="http://sodipodi.sourceforge.net/DTD/sodipodi-0.dtd"
   xmlns:inkscape="http://www.inkscape.org/namespaces/inkscape"
   viewBox="0 0 24 24"
   version="1.1"
   id="svg12"
   sodipodi:docname="lc_printpreview.svg"
   inkscape:version="0.92.3 (unknown)"
   inkscape:export-filename="/home/rizmut/Dokumen/Rizmut/Github/libreoffice-style-calibre/images_calibre/cmd/lc_printpreview.png"
   inkscape:export-xdpi="96"
   inkscape:export-ydpi="96">
  <metadata
     id="metadata18">
    <rdf:RDF>
      <cc:Work
         rdf:about="">
        <dc:format>image/svg+xml</dc:format>
        <dc:type
           rdf:resource="http://purl.org/dc/dcmitype/StillImage" />
      </cc:Work>
    </rdf:RDF>
  </metadata>
  <defs
     id="defs16">
    <linearGradient
       inkscape:collect="always"
       xlink:href="#linearGradient882"
       id="linearGradient884"
       x1="18"
       y1="11"
       x2="19.428572"
       y2="9.5714283"
       gradientUnits="userSpaceOnUse"
       gradientTransform="matrix(1.4,0,0,1.4,-10.2,-7.4)" />
    <linearGradient
       inkscape:collect="always"
       id="linearGradient882">
      <stop
         style="stop-color:#ffffff;stop-opacity:1;"
         offset="0"
         id="stop878" />
      <stop
         id="stop886"
         offset="0.77967989"
         style="stop-color:#f1f1f1;stop-opacity:1" />
      <stop
         style="stop-color:#d5d5d5;stop-opacity:1"
         offset="1"
         id="stop880" />
    </linearGradient>
    <radialGradient
       inkscape:collect="always"
       xlink:href="#linearGradient870"
       id="radialGradient857"
       cx="16.299999"
       cy="7.9555554"
       fx="16.299999"
       fy="7.9555554"
       r="7"
       gradientTransform="matrix(1.4285714,-6.3025743e-8,6.3025743e-8,1.4285714,-7.285714,-4.365078)"
       gradientUnits="userSpaceOnUse" />
    <linearGradient
       inkscape:collect="always"
       id="linearGradient870">
      <stop
         style="stop-color:#d7d7d7;stop-opacity:1"
         offset="0"
         id="stop866" />
      <stop
         id="stop874"
         offset="0.29999998"
         style="stop-color:#f7f7f7;stop-opacity:1" />
      <stop
         style="stop-color:#ffffff;stop-opacity:1"
         offset="1"
         id="stop868" />
    </linearGradient>
  </defs>
  <sodipodi:namedview
     pagecolor="#ffffff"
     bordercolor="#666666"
     borderopacity="1"
     objecttolerance="10"
     gridtolerance="10"
     guidetolerance="10"
     inkscape:pageopacity="0"
     inkscape:pageshadow="2"
     inkscape:window-width="1366"
     inkscape:window-height="707"
     id="namedview14"
     showgrid="true"
     inkscape:zoom="6.9532167"
     inkscape:cx="-6.1825698"
     inkscape:cy="18.509429"
     inkscape:window-x="0"
     inkscape:window-y="0"
     inkscape:window-maximized="1"
     inkscape:current-layer="svg12">
    <inkscape:grid
       type="xygrid"
       id="grid828" />
  </sodipodi:namedview>
  <path
     style="fill:url(#radialGradient857);fill-opacity:1"
     d="M 5 4 L 5 21 L 15.5 21 C 12.474279 21 10 18.525721 10 15.5 C 10 12.474279 12.474279 10 15.5 10 C 16.826717 10 18.047431 10.476297 19 11.265625 L 19 7.7285156 L 15 4 L 5 4 z M 18.128906 20.238281 C 17.318733 20.688111 16.438566 20.9987 15.501953 21 L 18.890625 21 L 18.128906 20.238281 z "
     id="path2-3" />
  <path
     d="m5 3c-.554 0-1 .446-1 1v17c0 .554.446 1 1 1h14.890625l-1-1h-3.388672-.001953-10.5v-17h9v4c0 .554.446 1 1 1h4v2.265625c.380836.315573.715237.682422 1 1.087891v-4.103516-.2089844c0-.4506799.098038-.4254121-.605469-1.0664062l-3.30664-3.2382813c-.709525-.7368575-.710169-.7363281-1.09375-.7363281h-.332032-.662109z"
     id="path4"
     fill="#808080"
     style="fill:#bababa;fill-opacity:1" />
  <path
     d="m15.5 11a4.5 4.5 0 0 0 -4.5 4.5 4.5 4.5 0 0 0 4.5 4.5 4.5 4.5 0 0 0 2.8125-.992188l3.839844 3.839844a.50005.50005 0 1 0 .707031-.707031l-3.837891-3.837891a4.5 4.5 0 0 0 .978516-2.802734 4.5 4.5 0 0 0 -4.5-4.5zm0 1a3.5 3.5 0 0 1 3.5 3.5 3.5 3.5 0 0 1 -3.5 3.5 3.5 3.5 0 0 1 -3.5-3.5 3.5 3.5 0 0 1 3.5-3.5z"
     fill="#4d82b8"
     id="path8" />
  <circle
     cx="15.5"
     cy="15.5"
     fill="#fff"
     r="3.5"
     id="circle10" />
  <path
     inkscape:connector-curvature="0"
     id="path876"
     d="m 15,4 4,4 h -4 z"
     style="fill:url(#linearGradient884);fill-opacity:1;stroke:none;stroke-width:1.39999998px;stroke-linecap:butt;stroke-linejoin:miter;stroke-opacity:1"
     sodipodi:nodetypes="cccc" />
</svg>
