<?xml version="1.0" encoding="UTF-8" standalone="no"?>
<svg
   xmlns:dc="http://purl.org/dc/elements/1.1/"
   xmlns:cc="http://creativecommons.org/ns#"
   xmlns:rdf="http://www.w3.org/1999/02/22-rdf-syntax-ns#"
   xmlns:svg="http://www.w3.org/2000/svg"
   xmlns="http://www.w3.org/2000/svg"
   xmlns:sodipodi="http://sodipodi.sourceforge.net/DTD/sodipodi-0.dtd"
   xmlns:inkscape="http://www.inkscape.org/namespaces/inkscape"
   viewBox="0 0 24 24"
   version="1.1"
   id="svg6"
   sodipodi:docname="lc_styleupdatebyexample.svg"
   inkscape:version="0.92.3 (unknown)">
  <metadata
     id="metadata12">
    <rdf:RDF>
      <cc:Work
         rdf:about="">
        <dc:format>image/svg+xml</dc:format>
        <dc:type
           rdf:resource="http://purl.org/dc/dcmitype/StillImage" />
      </cc:Work>
    </rdf:RDF>
  </metadata>
  <defs
     id="defs10" />
  <sodipodi:namedview
     pagecolor="#ffffff"
     bordercolor="#666666"
     borderopacity="1"
     objecttolerance="10"
     gridtolerance="10"
     guidetolerance="10"
     inkscape:pageopacity="0"
     inkscape:pageshadow="2"
     inkscape:window-width="1366"
     inkscape:window-height="706"
     id="namedview8"
     showgrid="false"
     inkscape:zoom="9.8333333"
     inkscape:cx="-4.5762712"
     inkscape:cy="12"
     inkscape:window-x="0"
     inkscape:window-y="0"
     inkscape:window-maximized="1"
     inkscape:current-layer="svg6" />
  <path
     d="m9.8964844 4-7.8964844 16h2.3476562c.2450593 0 .4626205-.068532.6523438-.205078.1897233-.144578.327106-.305715.4140625-.482422l1.4941406-3.216797h3.1582029c.098518-.75523.3179-1.472059.638672-2.132812h-2.8124999l2.4199219-5.1914066c.110672-.2570282.232799-.5552287.367188-.8925782.142291-.3373493.285442-.7021287.427734-1.0957031.055339.3935744.110681.7583538.166016 1.0957031.063242.3293173.122401.6181915.177734.8671876l.708984 3.2128902c.690822-.66361 1.516996-1.181767 2.431641-1.519531l-1.623047-6.439453zm5.6835936 10.367188c-.352329.188875-.661976.443774-.912109.75-.07129.087275-.136146.180242-.197266.27539a3 3 0 0 0 -.0625.103516c-.040323.068812-.076537.14062-.111328.21289a3 3 0 0 0 -.054687.111328c-.043069.100096-.07929.202958-.111329.308594a3 3 0 0 0 -.039062.150391c-.017077.069194-.032751.139804-.044922.210937a3 3 0 0 0 -.021484.150391c-.013783.115634-.025086.231835-.025391.351563-.000005.001985.000001.003872 0 .005859a3 3 0 0 0 0 .001953c.000415.118034.009337.235196.023438.351562a3 3 0 0 0 .009765.070313c.055998.385467.18465.75789.384766 1.095703a3 3 0 0 0 .001953.007813 3 3 0 0 0 1.054687 1.052734c.00258.0015.005243.002381.007813.003906.223325.132309.461756.232661.708984.302735a3 3 0 0 0 .060547.015625c.095266.024858.191638.045162.289063.060547a3 3 0 0 0 .101562.013671c.118165.014538.237532.024977.357422.025391z"
     fill="#696969"
     id="path2"
     style="fill:#69696e;fill-opacity:1" />
  <path
     d="m17 11a6 6 0 0 0 -6 6 6 6 0 0 0 1.113281 3.472656l1.445313-1.445312a4 4 0 0 1 -.558594-2.027344 4 4 0 0 1 4-4 4 4 0 0 1 2.027344.558594l1.443359-1.44336a6 6 0 0 0 -3.470703-1.115234zm4.886719 2.527344-1.445313 1.445312a4 4 0 0 1 .558594 2.027344 4 4 0 0 1 -4 4 4 4 0 0 1 -2.027344-.558594l-1.443359 1.44336a6 6 0 0 0 3.470703 1.115234 6 6 0 0 0 6-6 6 6 0 0 0 -1.113281-3.472656z"
     fill="#4d82b8"
     id="path4"
     style="fill:#0a84ff;fill-opacity:1" />
</svg>
