<?xml version="1.0" encoding="UTF-8" standalone="no"?>
<svg
   xmlns:dc="http://purl.org/dc/elements/1.1/"
   xmlns:cc="http://creativecommons.org/ns#"
   xmlns:rdf="http://www.w3.org/1999/02/22-rdf-syntax-ns#"
   xmlns:svg="http://www.w3.org/2000/svg"
   xmlns="http://www.w3.org/2000/svg"
   xmlns:xlink="http://www.w3.org/1999/xlink"
   xmlns:sodipodi="http://sodipodi.sourceforge.net/DTD/sodipodi-0.dtd"
   xmlns:inkscape="http://www.inkscape.org/namespaces/inkscape"
   viewBox="0 0 16 16"
   version="1.1"
   id="svg20"
   sodipodi:docname="sc_inserthyperlink.svg"
   inkscape:version="0.92.3 (unknown)"
   inkscape:export-filename="/home/rizmut/Dokumen/Rizmut/Github/libreoffice-style-colibrex/images_colibrex/cmd/sc_inserthyperlink.png"
   inkscape:export-xdpi="96"
   inkscape:export-ydpi="96"><metadata
   id="metadata26">
  <rdf:RDF>
    <cc:Work
       rdf:about="">
      <dc:format>image/svg+xml</dc:format>
      <dc:type
         rdf:resource="http://purl.org/dc/dcmitype/StillImage" />
      <dc:title></dc:title>
    </cc:Work>
  </rdf:RDF>
</metadata>
<defs
   id="defs24">
  <linearGradient
     inkscape:collect="always"
     id="linearGradient834">
    <stop
       style="stop-color:#e5eefc;stop-opacity:1;"
       offset="0"
       id="stop830" />
    <stop
       style="stop-color:#fcfdff;stop-opacity:1"
       offset="1"
       id="stop832" />
  </linearGradient>
  <linearGradient
     inkscape:collect="always"
     xlink:href="#linearGradient834"
     id="linearGradient853"
     x1="8"
     y1="14"
     x2="8.8085938"
     y2="2.1347656"
     gradientUnits="userSpaceOnUse" />
</defs>
<sodipodi:namedview
   pagecolor="#ffffff"
   bordercolor="#666666"
   borderopacity="1"
   objecttolerance="10"
   gridtolerance="10"
   guidetolerance="10"
   inkscape:pageopacity="0"
   inkscape:pageshadow="2"
   inkscape:window-width="1366"
   inkscape:window-height="706"
   id="namedview22"
   showgrid="false"
   inkscape:zoom="10.429825"
   inkscape:cx="5.1867953"
   inkscape:cy="7.2483088"
   inkscape:window-x="0"
   inkscape:window-y="0"
   inkscape:window-maximized="1"
   inkscape:current-layer="svg20" />



     /&amp;gt;
 <path
   d="m7.5 2a6.5 6.5 0 0 0 -6.5 6.5 6.5 6.5 0 0 0 3 5.46875v-1.96875c0-.554.446-1 1-1h8.498047a6.5 6.5 0 0 0 .501953-2.5 6.5 6.5 0 0 0 -6.5-6.5z"
   fill="#fff"
   id="path2"
   style="fill-opacity:1;fill:url(#linearGradient853)" />
<path
   d="m7.5 1a7.5 7.5 0 0 0 -7.5 7.5 7.5 7.5 0 0 0 4 6.626953v-1.162109a6.5 6.5 0 0 1 -2.9765625-4.964844h3.9921875c.0165811.6678192.0862218 1.334284.1796875 2h1.0019531c-.0996067-.666349-.1741755-1.3323365-.1914062-2h2.9980468c-.0270201.6732454-.1105751 1.338132-.21875 2h1.0019532c.1012334-.661004.1793959-1.3261255.2050781-2h3.9824215a6.5 6.5 0 0 1 -.488281 2h1.076172a7.5 7.5 0 0 0 .4375-2.5 7.5 7.5 0 0 0 -7.5-7.5zm0 1a6.5 6.5 0 0 1 .1738281.0097656c.4200261.9880681.7338265 1.95703.953125 2.9101563-.7378934.0568561-1.4804429.0630368-2.2246093.0039062.2226983-.9691826.5350971-1.9427316.9375-2.9199219a6.5 6.5 0 0 1 .1601562-.0039062zm1.3085938.1347656a6.5 6.5 0 0 1 3.5312502 2.0371094c-.897462.294082-1.804048.5020181-2.7167971.6347656-.1941237-.8799294-.461571-1.7698655-.8144531-2.671875zm-2.5839844.0019532c-.3379646.8882829-.6215073 1.7760693-.8183594 2.6640624-.8990868-.1363371-1.8001054-.3525906-2.703125-.6738281a6.5 6.5 0 0 1 3.5214844-1.9902343zm-4.1699219 2.8222656c1.0584046.4008072 2.1190856.6646097 3.1777344.8261718-.1208492.7388647-.1919346 1.4775733-.2167969 2.2148438h-3.9902344a6.5 6.5 0 0 1 1.0292969-3.0410156zm10.9316405.0585937a6.5 6.5 0 0 1 .992188 2.9824219h-3.97461c-.0161178-.7295773-.0767694-1.465632-.1953122-2.2109375 1.0726912-.1573908 2.1353522-.4084171 3.1777342-.7714844zm-4.1621092.8945313c.11524.7041159.1723577 1.3992429.1894531 2.0878906h-3.0039063c.0256351-.6939615.0903478-1.3893669.2070313-2.0859375.8732457.0753852 1.7437086.0703933 2.6074219-.0019531z"
   fill="#808080"
   id="path4"
   style="fill:#0a84ff;fill-opacity:1" />
<g
   fill="#4d82b8"
   id="g18"
   style="fill:#98989d;fill-opacity:1">
  <path
     d="m5 15c0 .554.446 1 1 1h3c.554 0 1-.446 1-1z"
     id="path6"
     style="fill:#98989d;fill-opacity:1" />
  <path
     d="m5 13c0-.554.446-1 1-1h3c.554 0 1 .446 1 1z"
     id="path8"
     style="fill:#98989d;fill-opacity:1" />
  <path
     d="m11 15c0 .554.446 1 1 1h3c.554 0 1-.446 1-1z"
     id="path10"
     style="fill:#98989d;fill-opacity:1" />
  <path
     d="m11 13c0-.554.446-1 1-1h3c.554 0 1 .446 1 1z"
     id="path12"
     style="fill:#98989d;fill-opacity:1" />
  <path
     d="m8 14c0-.554.446-1 1-1h3c.554 0 1 .446 1 1z"
     id="path14"
     style="fill:#98989d;fill-opacity:1" />
  <path
     d="m8 14c0 .554.446 1 1 1h3c.554 0 1-.446 1-1z"
     id="path16"
     style="fill:#98989d;fill-opacity:1" />
</g>
</svg>
