<?xml version="1.0" encoding="UTF-8" standalone="no"?>
<svg
   xmlns:dc="http://purl.org/dc/elements/1.1/"
   xmlns:cc="http://creativecommons.org/ns#"
   xmlns:rdf="http://www.w3.org/1999/02/22-rdf-syntax-ns#"
   xmlns:svg="http://www.w3.org/2000/svg"
   xmlns="http://www.w3.org/2000/svg"
   xmlns:xlink="http://www.w3.org/1999/xlink"
   xmlns:sodipodi="http://sodipodi.sourceforge.net/DTD/sodipodi-0.dtd"
   xmlns:inkscape="http://www.inkscape.org/namespaces/inkscape"
   viewBox="0 0 16 16"
   version="1.1"
   id="svg14"
   sodipodi:docname="sc_insertdraw.svg"
   inkscape:version="0.92.3 (unknown)"><metadata
   id="metadata20">
  <rdf:RDF>
    <cc:Work
       rdf:about="">
      <dc:format>image/svg+xml</dc:format>
      <dc:type
         rdf:resource="http://purl.org/dc/dcmitype/StillImage" />
    </cc:Work>
  </rdf:RDF>
</metadata>
<defs
   id="defs18">
  <linearGradient
     inkscape:collect="always"
     id="linearGradient834">
    <stop
       style="stop-color:#e5eefc;stop-opacity:1;"
       offset="0"
       id="stop830" />
    <stop
       style="stop-color:#fcfdff;stop-opacity:1"
       offset="1"
       id="stop832" />
  </linearGradient>
  <linearGradient
     inkscape:collect="always"
     xlink:href="#linearGradient834"
     id="linearGradient847"
     x1="5"
     y1="14"
     x2="5"
     y2="5"
     gradientUnits="userSpaceOnUse" />
  <linearGradient
     inkscape:collect="always"
     xlink:href="#linearGradient834"
     id="linearGradient849"
     x1="14"
     y1="8"
     x2="14"
     y2="-3.9999995"
     gradientUnits="userSpaceOnUse" />
  <linearGradient
     inkscape:collect="always"
     xlink:href="#linearGradient834"
     id="linearGradient851"
     x1="9.5"
     y1="15.650501"
     x2="9.5"
     y2="5.5658803"
     gradientUnits="userSpaceOnUse" />
</defs>
<sodipodi:namedview
   pagecolor="#ffffff"
   bordercolor="#666666"
   borderopacity="1"
   objecttolerance="10"
   gridtolerance="10"
   guidetolerance="10"
   inkscape:pageopacity="0"
   inkscape:pageshadow="2"
   inkscape:window-width="1366"
   inkscape:window-height="706"
   id="namedview16"
   showgrid="true"
   inkscape:zoom="7.375"
   inkscape:cx="-14.404965"
   inkscape:cy="6.9593268"
   inkscape:window-x="0"
   inkscape:window-y="0"
   inkscape:window-maximized="1"
   inkscape:current-layer="svg14">
  <inkscape:grid
     type="xygrid"
     id="grid853" />
</sodipodi:namedview>


     /&amp;gt;
 <path
   d="m1 4c-.554 0-1 .446-1 1v8c0 .554.446 1 1 1h8c.554 0 1-.446 1-1v-8c0-.554-.446-1-1-1zm0 1h8v8h-8z"
   fill="#808080"
   id="path2"
   style="fill:#658ae2;fill-opacity:1" />
<path
   d="m1 4.9999996v8.0000004h8v-8.0000004z"
   fill="#fff"
   id="path4"
   style="fill-opacity:1;fill:url(#linearGradient847)" />
<g
   transform="matrix(.83333333 0 0 .83333333 -.666667 3.333333)"
   id="g10">
  <path
     d="m14-4a6 6 0 0 0 -6 6 6 6 0 0 0 6 6 6 6 0 0 0 6-6 6 6 0 0 0 -6-6zm0 1a5 5 0 0 1 5 5 5 5 0 0 1 -5 5 5 5 0 0 1 -5-5 5 5 0 0 1 5-5z"
     fill="#808080"
     id="path6"
     style="fill:#658ae2;fill-opacity:1" />
  <path
     d="m14-3a5 5 0 0 0 -5 5 5 5 0 0 0 5 5 5 5 0 0 0 5-5 5 5 0 0 0 -5-5z"
     fill="#fff"
     id="path8"
     style="fill-opacity:1;fill:url(#linearGradient849)" />
</g>
<path
   d="m9.4999996 15.650501 5.0423114-5.042311-5.0423114-5.0423098-5.0423104 5.0423098z"
   style="fill:url(#linearGradient851);fill-rule:evenodd;stroke:#658ae2;stroke-width:0.915416;stroke-linecap:round;stroke-linejoin:round;fill-opacity:1;stroke-opacity:1"
   id="path12" />
</svg>
