<?xml version="1.0" encoding="UTF-8" standalone="no"?>
<svg
   xmlns:dc="http://purl.org/dc/elements/1.1/"
   xmlns:cc="http://creativecommons.org/ns#"
   xmlns:rdf="http://www.w3.org/1999/02/22-rdf-syntax-ns#"
   xmlns:svg="http://www.w3.org/2000/svg"
   xmlns="http://www.w3.org/2000/svg"
   xmlns:sodipodi="http://sodipodi.sourceforge.net/DTD/sodipodi-0.dtd"
   xmlns:inkscape="http://www.inkscape.org/namespaces/inkscape"
   viewBox="0 0 16 16"
   version="1.1"
   id="svg18"
   sodipodi:docname="sc_spacing.svg"
   inkscape:version="0.92.3 (unknown)"
   inkscape:export-filename="/home/rizmut/Dokumen/Rizmut/Github/libreoffice-style-colibrex/images_colibrex/cmd/sc_spacing.png"
   inkscape:export-xdpi="96"
   inkscape:export-ydpi="96"><metadata
   id="metadata24">
  <rdf:RDF>
    <cc:Work
       rdf:about="">
      <dc:format>image/svg+xml</dc:format>
      <dc:type
         rdf:resource="http://purl.org/dc/dcmitype/StillImage" />
      <dc:title></dc:title>
    </cc:Work>
  </rdf:RDF>
</metadata>
<defs
   id="defs22" />
<sodipodi:namedview
   pagecolor="#ffffff"
   bordercolor="#666666"
   borderopacity="1"
   objecttolerance="10"
   gridtolerance="10"
   guidetolerance="10"
   inkscape:pageopacity="0"
   inkscape:pageshadow="2"
   inkscape:window-width="1366"
   inkscape:window-height="706"
   id="namedview20"
   showgrid="true"
   inkscape:zoom="20.85965"
   inkscape:cx="2.1293238"
   inkscape:cy="7.8618852"
   inkscape:window-x="0"
   inkscape:window-y="0"
   inkscape:window-maximized="1"
   inkscape:current-layer="svg18">
  <inkscape:grid
     type="xygrid"
     id="grid1387" />
</sodipodi:namedview>
/&amp;gt;<g
   id="g1424">
  <path
     id="path2"
     d="M 3.3066406 0 L 0 10 L 0.8828125 10 L 2.2578125 8.6230469 L 2.5546875 7.5976562 L 5.8964844 7.5976562 L 6.46875 9.5625 C 6.5142951 9.688002 6.5859959 9.793565 6.6816406 9.8789062 C 6.7772854 9.9592275 6.9050452 10 7.0644531 10 L 8.4433594 10 L 5.1367188 0 L 3.3066406 0 z M 7.7402344 0 L 11 9.8183594 L 11 9 L 11.085938 9 C 11.094272 8.9750821 11.09754 8.9480634 11.107422 8.9238281 C 11.316832 8.4102468 11.867457 7.9904289 12.496094 7.9902344 A 1.0001 1.0001 0 0 1 12.5 7.9902344 C 12.775142 7.991311 13.040132 8.0741624 13.271484 8.2148438 L 16 0 L 14.550781 0 C 14.400482 0 14.274676 0.044404185 14.169922 0.13476562 C 14.065168 0.220107 13.993467 0.32203816 13.957031 0.4375 L 12.255859 6.3261719 C 12.182987 6.5319952 12.114544 6.7579224 12.050781 7.0039062 C 11.991573 7.2448701 11.936818 7.4976076 11.886719 7.7636719 C 11.82751 7.5026277 11.763631 7.2507295 11.695312 7.0097656 C 11.626995 6.7688018 11.558552 6.5456669 11.490234 6.3398438 L 9.7832031 0.4375 C 9.7331035 0.30697792 9.658793 0.20141503 9.5585938 0.12109375 C 9.4629489 0.04077247 9.336494 0 9.1816406 0 L 7.7402344 0 z M 4.2148438 1.8222656 C 4.2740523 2.0682496 4.3333695 2.2969691 4.3925781 2.5078125 C 4.4517868 2.7136358 4.509799 2.8932056 4.5644531 3.0488281 L 5.4863281 6.2128906 L 2.9589844 6.2128906 L 3.8808594 3.0566406 C 3.930959 2.9010181 3.9857132 2.7186559 4.0449219 2.5078125 C 4.1041305 2.2969691 4.1601896 2.0682496 4.2148438 1.8222656 z "
     style="fill:#69696e;fill-opacity:1" />
  <g
     id="g16"
     stroke-linejoin="round"
     stroke-linecap="round"
     stroke="#4d82b8"
     fill="none">
    <g
       id="g8"
       transform="matrix(-1 0 0 -1 21.007121 16.9899)">
      <path
         style="fill:#0a84ff;fill-opacity:1;stroke:#0a84ff;stroke-opacity:1"
         id="path4"
         transform="rotate(-180,10.503561,8.49495)"
         d="M 12.5 9.4941406 L 12.5 15.494141 L 15.5 12.5 L 12.5 9.4941406 z " />
      <path
         style="stroke:#0a84ff;stroke-opacity:1"
         sodipodi:nodetypes="cc"
         inkscape:connector-curvature="0"
         id="path6"
         d="m 5.5071212,4.4898959 14.9928788,0" />
      <path
         inkscape:connector-curvature="0"
         d="M 17.507142,7.4957594 V 1.495759 l 3,2.994141 z"
         id="path1394"
         style="fill:#0a84ff;fill-opacity:1;stroke:#0a84ff;stroke-opacity:1" />
    </g>
  </g>
</g>
</svg>
