<svg viewBox="0 0 24 24" xmlns="http://www.w3.org/2000/svg" xmlns:xlink="http://www.w3.org/1999/xlink"><linearGradient id="a" gradientUnits="userSpaceOnUse" x1="39.97919" x2="45.979233" y1="16.000114" y2="10.000071"><stop offset="0" stop-color="#fefefe"/><stop offset="1" stop-color="#e9e9e9"/></linearGradient><path d="m6.5 1.75c-1.9217007 0-3.5 1.5782993-3.5 3.5v14.25c0 1.921701 1.5782995 3.5 3.5 3.5h11c1.921701 0 3.5-1.578299 3.5-3.5v-9.25c0-.4076641-.153027-.6941136-.378906-1.046875-.183732-.2870406-.500989-.4607591-.841797-.4609375h-5.771485v-5.8164063c-.000049-.2642424-.104673-.5177265-.291015-.7050781-.440297-.4432429-.606631-.3507775-.859375-.3984375-.252745-.0476599-.535886-.0722656-.857422-.0722656zm0 .25h5.5c.308022 0 .577482.02441.810547.068359s.387239-.015436.728515.328125c.140055.1405539.218712.3308759.21875.5292968v5.9941407c.000001.053537.0187.072266.07227.072266h5.949219c.255432.0003003.493153.1305687.630859.3457031.214384.3348149.33984.5853555.33984.9121094v9.25c0 1.787525-1.462475 3.25-3.25 3.25h-11c-1.7875246 0-3.25-1.462475-3.25-3.25v-14.25c0-1.7875248 1.4624752-3.25 3.25-3.25z" fill-opacity=".05"/><path d="m6.5 2c-1.7875248 0-3.25 1.4624752-3.25 3.25v14.25c0 1.787525 1.4624754 3.25 3.25 3.25h11c1.787525 0 3.25-1.462475 3.25-3.25v-9.25c0-.3267539-.125456-.5772945-.339844-.9121094-.137706-.2151344-.375427-.3454028-.630859-.3457031h-5.949219c-.05356 0-.07226-.018728-.07227-.072266v-5.9941403c-.000034-.1984209-.078691-.3887429-.218746-.5292968-.341276-.3435613-.49545-.284176-.728515-.328125-.233065-.0439491-.502525-.0683594-.810547-.0683594zm0 .25h5.5c.294509 0 .550286.022262.763672.0625s.357351.017839.599609.2617188c.09258.093594.144508.2199188.144531.3515624v5.9941407c.000001.1875918.134647.3222656.322266.3222656h5.949219c.170751-.000244.329822.086656.421875.2304687.202896.3168683.298828.5314998.298828.7773438v9.25c0 1.653349-1.346651 3-3 3h-11c-1.6533488 0-3-1.346651-3-3v-14.25c0-1.6533489 1.3466511-3 3-3z" fill-opacity=".12"/><path d="m6.5 2.25c-1.6533489 0-3 1.3466511-3 3v14.25c0 1.653349 1.3466512 3 3 3h11c1.653349 0 3-1.346651 3-3v-9.25c0-.245844-.09593-.4604755-.298828-.7773438-.092053-.1438123-.251124-.2307127-.421875-.2304687h-5.949219c-.187619 0-.322265-.1346738-.322266-.3222656v-5.9941407c-.000022-.1316434-.051956-.2579682-.144531-.3515624-.242258-.2438795-.386223-.2214806-.599609-.2617188s-.469163-.0625-.763672-.0625zm0 .25h5.5c.280996 0 .52309.0220665.716797.0585938.193707.0365271.325511.0472085.46875.1914062.046287.0467972.072255.1099596.072265.1757812v5.9941407c.000001.3216463.25059.5722656.572266.5722656h5.949219c.085375-.0001218.164907.0433284.210937.1152344.191406.2989216.259766.4776451.259766.6425781v9.25c0 1.519173-1.230827 2.75-2.75 2.75h-11c-1.519173 0-2.75-1.230827-2.75-2.75v-14.25c0-1.5191731 1.2308269-2.75 2.75-2.75z" fill-opacity=".19"/><path d="m6.5 2.5c-1.5191746 0-2.75 1.2308254-2.75 2.75v14.25c0 1.519175 1.2308255 2.75 2.75 2.75h11c1.519175 0 2.75-1.230825 2.75-2.75v-9.25c0-.164933-.06836-.3436562-.259766-.6425781-.04603-.071906-.125562-.1153562-.210937-.1152344h-5.949219c-.321676 0-.572266-.250619-.572266-.5722656v-5.9941407c-.000011-.0658217-.025978-.128984-.072265-.1757812-.143239-.1441978-.275043-.154879-.46875-.1914062-.193707-.0365273-.435801-.0585938-.716797-.0585938z" fill-opacity=".3"/><path d="m6.5 2c-1.3849986 0-2.5 1.1150014-2.5 2.5v15c0 1.384999 1.1150014 2.5 2.5 2.5h11c1.384999 0 2.5-1.115001 2.5-2.5v-10c0-.084023-.04079-.2268372-.220703-.5078125h-5.949219c-.455733 0-.822266-.3665644-.822266-.8222656v-5.9941407c-.088441-.0890319-.472847-.1757812-1.007812-.1757812z" fill="#f23b30"/><g stroke-width="1.55451"><path d="m12.019531 2c-.011642.0580812-.017732.1178142-.017578.1777344v5.9921875c0 1.0020771.826009 1.828125 1.828125 1.828125h5.947266c.075374.0001142.149396-.0101304.222656-.0273438v-.2558593c-.071512.0224387-.145584.0352701-.220703.0351562h-5.949219c-.866439 0-1.580078-.7136761-1.580078-1.5800781v-5.9921875c-.000146-.0565288.007839-.1118153.021484-.1660156-.080644-.0049077-.161808-.0113344-.251953-.0117188z" fill-opacity=".05"/><path d="m12.271484 2.0117188c-.013645.0542004-.02163.1094868-.021484.1660156v5.9921875c0 .8664029.713638 1.5800781 1.580078 1.5800781h5.949219c.075119.0001139.149191-.0127175.220703-.0351562v-.2148438c0-.0129214-.003572-.0308842-.005859-.046875-.066975.0315166-.140778.0489404-.214844.0488281h-5.949219c-.731138 0-1.332031-.6009287-1.332031-1.3320312v-5.9941407c-.000124-.0481179.010993-.0953539.025391-.140625-.07766-.0103353-.159944-.0178382-.251954-.0234374z" fill-opacity=".12"/><path d="m12.523438 2.0351562c-.014398.0452711-.025515.0925071-.025391.140625v5.9941407c0 .7311025.600893 1.3320312 1.332031 1.3320312h5.949219c.074066.0001123.147869-.0173115.214844-.0488281-.007999-.0559309-.032235-.1328223-.087891-.2421875a.25325384.25325384 0 0 1 -.126953.0351563h-5.949219c-.591518 0-1.076172-.4846868-1.076172-1.0761719v-5.9941407a.25325384.25325384 0 0 1 .023438-.09375c-.071438-.0184231-.155689-.0338037-.253906-.046875z" fill-opacity=".19"/><path d="m12.777344 2.0820312a.25325384.25325384 0 0 0 -.023438.09375v5.9941407c0 .5914857.484653 1.0761719 1.076172 1.0761719h5.949219a.25325384.25325384 0 0 0 .126953-.0351563c-.031903-.0626899-.071481-.1321178-.126953-.21875h-5.949219c-.056966 0-.112378-.0066648-.166016-.0175781-.053637-.0109133-.105071-.0261322-.154296-.046875-.049225-.0207429-.096896-.0466832-.140625-.0761719s-.083944-.0624585-.121094-.0996094-.070122-.0773644-.099609-.1210937c-.029488-.0437294-.055431-.0914009-.076172-.140625-.020742-.0492242-.035963-.1006617-.046875-.1542969-.010913-.0536352-.017579-.109053-.017579-.1660156v-5.9941407c-.033469-.033693-.120106-.0652887-.230468-.09375z" fill-opacity=".3"/><path d="m13.007061 2.17485v5.9944664c0 .4557017.366876.8226104.82261.8226104h5.949231c-.13411-.2709492-.328046-.5561846-.594442-.8226104l-5.346705-5.346706c-.258934-.3276577-.546938-.5259964-.822611-.6474497z" fill="url(#a)"/></g><path d="m9.8392757 15.003477c.3736983-.732471.7984073-1.557666 1.1383433-2.386249l.134408-.327068c-.444013-1.689622-.710262-3.0458834-.472402-3.9227976.064036-.2286327.328839-.3673628.611955-.3673628l.172519.00255h.03166c.387604-.00595.570102.4870975.590823.678794.0342.3192578-.113501.8595656-.113501.8595656 0-.2181868.0085-.5707383-.129163-.874972-.160302-.3520272-.313419-.5623195-.450689-.5956555-.06931.046291-.136675.1421601-.159763.3265714-.0478.2585671-.06212.5849403-.06212.7531797 0 .5944221.117045 1.3790102.347052 2.1878202.04338-.125222.08157-.245541.111928-.358277.04717-.177665.34701-1.3553831.34701-1.3553831s-.07556 1.5677301-.181109 2.0421171c-.02262.100235-.04757.199378-.07355.300847.379283 1.059752.990443 2.005549 1.719529 2.686302.287452.268644.650506.485272.994115.682709.750373-.107223 1.441302-.157864 2.017596-.151486.764703.01006 1.32603.123182 1.553274.34708.11129.108824.15646.240255.170477.387589.0033.05732-.02458.191994-.03276.225797.0082-.04092.0082-.242125-.605676-.438074-.483472-.154548-1.388294-.149743-2.473984-.03417 1.255815.614393 2.479228.919661 2.867015.736653.09479-.04619.209767-.203715.209767-.203715s-.06834.310513-.117413.388126c-.06264.08434-.185473.175696-.301952.206494-.612323.163364-2.206246-.214671-3.595815-1.008642-1.552423.228633-3.257353.651003-4.6241028 1.099268-1.3429952 2.35365-2.3526582 3.434521-3.1740124 3.023348l-.301982-.151855c-.1227565-.070216-.1414938-.241135-.1131044-.380319.09577-.468532.6832759-1.174216 1.8633894-1.878838.1270228-.07686.6928569-.376036.6928569-.376036s-.4188975.405432-.517035.485002c-.9419417.771889-1.6371801 1.743057-1.6197468 2.119505l.00341.03282c.8001505-.114027 2.000022-1.742632 3.5426651-4.761019m.488872.250318c-.25766.485275-.5095088.935198-.7420251 1.348313 1.2861881-.538876 2.6704281-.883717 3.9882791-1.128692-.177098-.122289-.349007-.251779-.510784-.388666-.725655-.614364-1.278903-1.380838-1.679984-2.187395-.254329.685175-.55675 1.413267-1.0555 2.356485" fill="#fff" stroke-width=".036732"/></svg>