<svg viewBox="0 0 16 16" xmlns="http://www.w3.org/2000/svg" xmlns:xlink="http://www.w3.org/1999/xlink"><linearGradient id="a" gradientUnits="userSpaceOnUse" x1="39.97919" x2="45.979233" y1="16.000114" y2="10.000071"><stop offset="0" stop-color="#fefefe"/><stop offset="1" stop-color="#e9e9e9"/></linearGradient><path d="m3.5 1.5c-.8309992 0-1.5.6690008-1.5 1.5v10.777344c0 .830999.6690008 1.722656 1.5 1.722656h9c.830999 0 1.5-.919001 1.5-1.75v-6.7441406c0-.075854-.05691-.4038753-.158203-.5058594l-5.341797-4.875-.5-.125h-.25l.5.125 5.341797 4.875c.101293.1019841.158203.4300054.158203.5058594v6.4941406c0 .830999-.669001 1.75-1.5 1.75h-8.5c-.8309992 0-1.5-.891657-1.5-1.722656v-10.527344c0-.8309992.6690008-1.5 1.5-1.5z" fill-opacity=".15"/><path d="m3.75 1.5c-.831 0-1.5.669-1.5 1.5v10.52723c0 .831.669 1.72277 1.5 1.72277h8.5c.831 0 1.5-.919 1.5-1.75v-6.4941406c0-.0758541-.05691-.4038752-.158203-.5058594l-5.341797-4.875-.5-.125z" fill-opacity=".24"/><path d="m4 1c-.8309992 0-1.5.6690008-1.5 1.5v11c0 .830999.6690008 1.5 1.5 1.5h8c.830999 0 1.5-.669001 1.5-1.5v-6.9941406c0-.075854-.05691-.4038753-.158203-.5058594h-4.2539064c-.3258993 0-.5878906-.2620139-.5878906-.5878906v-4.2871094c-.091496-.049166-.2378516-.1176266-.5-.125z" fill="#f2f2f7"/><g stroke-width="1.11164"><path d="m7.515625 1a1.0027208 1.0027208 0 0 0 -.0175781.125v4.2871094c0 .8632497.7265623 1.5898437 1.5898437 1.5898437h4.2539064a1.0027208 1.0027208 0 0 0 .158203-.0136719v-.2597656a.74794708.74794708 0 0 1 -.158203.0195313h-4.2539064c-.7267409 0-1.3359375-.6092259-1.3359375-1.3359375v-4.2871094a.74794708.74794708 0 0 1 .015625-.125zm.6425781.015625c.0361315.0051571.0709679.0103741.1015625.0175781-.0307625-.0073491-.0651243-.0121694-.1015625-.0175781z" fill-opacity=".05"/><path d="m7.7675781 1a.74794708.74794708 0 0 0 -.015625.125v4.2871094c0 .7267124.6091958 1.3359375 1.3359375 1.3359375h4.2539064a.74794708.74794708 0 0 0 .158203-.0195313v-.2226562c0-.0068344-.002991-.0245776-.003906-.0351563a.49658835.49658835 0 0 1 -.154297.0253907h-4.2539064c-.592032 0-1.0839844-.4919795-1.0839844-1.0839844v-4.2871094a.49658835.49658835 0 0 1 .0195313-.1230469c-.0079779-.0003479-.0152348-.0017224-.0234375-.0019531zm.2558594.0019531c.0491591.0021933.0935852.0075551.1347656.0136719-.0413743-.0059054-.0853237-.011516-.1347656-.0136719zm.1347656.0136719c.0411805.0061168.0791155.0129886.1132813.0214844-.0340684-.0084788-.0720583-.0156006-.1132813-.0214844zm.1132813.0214844c.045149.0115059.0841664.0255743.1191406.0390625-.0349217-.0138518-.0728809-.0275496-.1191406-.0390625zm5.1328126 5.0644531c.007326.0172356.012998.0358585.019531.0546875-.002907-.0089433-.004626-.0187877-.007812-.0273438-.000538-.0013661-.001411-.0025493-.001954-.0039062-.003252-.0081028-.006338-.0157211-.009765-.0234375zm.03125.0839844c.003883.0120955.00625.0248045.009765.0371093.003961.0138603.01018.027161.013672.0410157-.006722-.0260588-.015157-.0525921-.023437-.078125z" fill-opacity=".12"/><path d="m8.4992755 1.125037v4.2867057c0 .3258771.2623577.5882573.5882574.5882573h4.2543571c-.095903-.1937586-.234589-.3977334-.425091-.5882573l-3.8234854-3.8234854c-.1851658-.2343114-.3911193-.3761455-.5882574-.462998z" fill="url(#a)"/><path d="m8.0234375 1.0019531a.49658835.49658835 0 0 0 -.0195313.1230469v4.2871094c0 .5920061.4919512 1.0839844 1.0839844 1.0839844h4.2539064a.49658835.49658835 0 0 0 .154297-.0253907c-.008084-.0934789-.0491-.3122229-.121094-.4277343.028549.0475797.05096.1132065.070312.1796874a.24652715.24652715 0 0 1 -.103515.0234376h-4.2539064c-.458019 0-.8339844-.3759902-.8339844-.8339844v-4.2871094a.24652715.24652715 0 0 1 .0175782-.0878906c-.0683317-.0169916-.1497286-.0307697-.2480469-.0351563zm.2480469.0351563c.0401791.0102394.0753395.0212911.1074218.0332031-.0324421-.0123539-.0657477-.0228403-.1074218-.0332031z" fill-opacity=".19"/><path d="m8.2714844 1.0371094a.24652715.24652715 0 0 0 -.0175782.0878906v4.2871094c0 .4579947.3759649.8339844.8339844.8339844h4.2539064a.24652715.24652715 0 0 0 .103515-.0234376c-.02619-.0899706-.059712-.1785541-.103515-.2226562h-4.2539064c-.3258989 0-.5878906-.2620143-.5878906-.5878906v-4.2871094c-.0528386-.0283932-.1273499-.0621091-.2285156-.0878906z" fill-opacity=".26"/></g></svg>