<svg height="16" viewBox="0 0 16 16" width="16" xmlns="http://www.w3.org/2000/svg"><path d="m4 1v3l4-.00781v-2.99219zm0 4v4h4v-4.007812z" fill="#fff"/><path d="m8 4h-4v1zm0-.00391v.00391h-4v1h4z" fill="#bababa"/><path d="m3 0v5h1v-1-3h4v3 1h1v-5zm0 4v1.105469 4.394531c-.0003844.276301.2236986.500384.5.5h5c.276301.000384.500384-.223699.5-.5v-4.5-.888672-.111328h-1v1h.113281l-.111328.111328v3.890625h-4.0039061v-3.896484h.00195v-.105469-1z" fill="#69696e"/><path d="m9 11h4v3h-4z" fill="#32d74b"/><path d="m8 10v5h6v-1-3-1zm1 1h4v3h-4z" fill="#007018"/></svg>