<svg viewBox="0 0 32 32" xmlns="http://www.w3.org/2000/svg"><path d="m24 4h-18v24h18z" fill="#b69872"/><path d="m5.5 3c-.277 0-.5.223-.5.5v25c0 .277.223.5.5.5h19c.277 0 .5-.223.5-.5v-1.5-6-10-6-1.5c0 .277-.223-.5-.5-.5zm.5 1h18v1.5 5 11 5 1.5h-18z" fill="#7f6545"/><path d="m25 21v6h.5c.277 0 .5-.223.5-.5v-5c0-.277-.223-.5-.5-.5z" fill="#ff4f44"/><path d="m25 5v6h.5c.237967 0 .5-.223.5-.5v-5c0-.277-.223-.5-.5-.5z" fill="#148eff"/><path d="m25 13v6h.5c.277 0 .5-.223.5-.5v-5c0-.277-.223-.5-.5-.5z" fill="#3ce155"/><path d="m7 4h1v24h-1z" fill="#7f6545"/><path d="m15.5 9a2.5 2.5 0 0 0 -2.5 2.5 2.5 2.5 0 0 0 2.5 2.5 2.5 2.5 0 0 0 2.5-2.5 2.5 2.5 0 0 0 -2.5-2.5zm.5 5a4 4 0 0 0 -4 4h8a4 4 0 0 0 -4-4z" fill="#a2845e"/></svg>