<?xml version="1.0" encoding="UTF-8" standalone="no"?>
<svg
   xmlns:dc="http://purl.org/dc/elements/1.1/"
   xmlns:cc="http://creativecommons.org/ns#"
   xmlns:rdf="http://www.w3.org/1999/02/22-rdf-syntax-ns#"
   xmlns:svg="http://www.w3.org/2000/svg"
   xmlns="http://www.w3.org/2000/svg"
   xmlns:xlink="http://www.w3.org/1999/xlink"
   xmlns:sodipodi="http://sodipodi.sourceforge.net/DTD/sodipodi-0.dtd"
   xmlns:inkscape="http://www.inkscape.org/namespaces/inkscape"
   viewBox="0 0 32 32"
   version="1.1"
   id="svg20"
   sodipodi:docname="alignverticalcenter.svg"
   inkscape:export-filename="/home/rizmut/Dokumen/Rizmut/Github/libreoffice-style-sukapura/images_sukapura/cmd/32/alignbottom.png"
   inkscape:export-xdpi="96"
   inkscape:export-ydpi="96"
   inkscape:version="0.92.3 (unknown)">
  <metadata
     id="metadata26">
    <rdf:RDF>
      <cc:Work
         rdf:about="">
        <dc:format>image/svg+xml</dc:format>
        <dc:type
           rdf:resource="http://purl.org/dc/dcmitype/StillImage" />
        <dc:title></dc:title>
      </cc:Work>
    </rdf:RDF>
  </metadata>
  <defs
     id="defs24">
    <linearGradient
       gradientTransform="translate(-25.830508,-3.5932203)"
       id="a"
       gradientUnits="userSpaceOnUse"
       x1="14"
       x2="13.79661"
       y1="22"
       y2="2.1355929">
      <stop
         offset="0"
         stop-color="#0040dd"
         id="stop2" />
      <stop
         offset="1"
         stop-color="#0a84ff"
         id="stop4" />
    </linearGradient>
    <linearGradient
       inkscape:collect="always"
       xlink:href="#a"
       id="linearGradient1615"
       x1="13"
       y1="14.999883"
       x2="13"
       y2="25.999884"
       gradientUnits="userSpaceOnUse"
       gradientTransform="matrix(1,0,0,-1,4,26.999883)" />
    <linearGradient
       inkscape:collect="always"
       xlink:href="#a"
       id="linearGradient1743"
       gradientUnits="userSpaceOnUse"
       gradientTransform="translate(4,4.000117)"
       x1="16"
       y1="25.999884"
       x2="16"
       y2="14.999883" />
  </defs>
  <sodipodi:namedview
     pagecolor="#ffffff"
     bordercolor="#666666"
     borderopacity="1"
     objecttolerance="10"
     gridtolerance="10"
     guidetolerance="10"
     inkscape:pageopacity="0"
     inkscape:pageshadow="2"
     inkscape:window-width="1366"
     inkscape:window-height="699"
     id="namedview22"
     showgrid="true"
     inkscape:zoom="3.6875"
     inkscape:cx="29.880109"
     inkscape:cy="15.811162"
     inkscape:window-x="0"
     inkscape:window-y="0"
     inkscape:window-maximized="1"
     inkscape:current-layer="svg20"
     inkscape:snap-smooth-nodes="false">
    <inkscape:grid
       type="xygrid"
       id="grid833"
       spacingx="0.5"
       spacingy="0.5"
       empspacing="2" />
  </sodipodi:namedview>
  <g
     id="g1752">
    <path
       inkscape:connector-curvature="0"
       style="fill:url(#linearGradient1743);fill-opacity:1;stroke:none;stroke-width:2;stroke-linecap:round;stroke-linejoin:round"
       d="m 14.984375,19.000117 c -0.259774,0.0041 -0.50774,0.109213 -0.691406,0.292969 l -5,5 C 8.6634128,24.923081 9.1093631,25.999768 10,26.000118 h 3 V 29.5 c 0,0.277 0.223,0.5 0.5,0.5 h 3 c 0.277,0 0.5,-0.223 0.5,-0.5 v -3.499882 h 3.009766 c 0.890637,-3.5e-4 1.336587,-1.077037 0.707031,-1.707032 l -5.009766,-5 c -0.191323,-0.191412 -0.452053,-0.297113 -0.722656,-0.292969 z"
       id="path1739"
       sodipodi:nodetypes="cccccssssccccc" />
    <path
       sodipodi:nodetypes="cccccssssccccc"
       id="path12"
       d="m 14.984375,11.999883 c -0.259774,-0.0041 -0.50774,-0.109213 -0.691406,-0.292969 l -5,-5 C 8.6634128,6.0769195 9.1093631,5.0002323 10,4.9998827 h 3 V 1.5 C 13,1.223 13.223,1 13.5,1 h 3 C 16.777,1 17,1.223 17,1.5 v 3.4998827 h 3.009766 c 0.890637,3.496e-4 1.336587,1.0770368 0.707031,1.7070313 l -5.009766,5 c -0.191323,0.191412 -0.452053,0.297113 -0.722656,0.292969 z"
       style="fill:url(#linearGradient1615);fill-opacity:1;stroke:none;stroke-width:2;stroke-linecap:round;stroke-linejoin:round"
       inkscape:connector-curvature="0" />
    <g
       id="g14"
       transform="scale(-1)">
      <rect
         id="rect6"
         y="-13.971516"
         x="-29"
         width="26"
         ry="0.5"
         height="1"
         style="fill:#69696e;fill-opacity:1" />
      <rect
         id="rect8"
         y="-18"
         x="-21"
         width="17.999998"
         ry="0.5"
         height="1"
         style="fill:#69696e;fill-opacity:1" />
      <rect
         id="rect10"
         y="-14.971516"
         x="-29"
         width="26"
         ry="0.5"
         height="1"
         style="fill:#eaeaea;fill-opacity:0.99215698" />
      <rect
         id="rect12"
         y="-19"
         x="-21"
         width="17.999998"
         ry="0.5"
         height="1"
         style="fill:#eaeaea;fill-opacity:0.99215698" />
    </g>
  </g>
</svg>
