<svg viewBox="0 0 32 32" xmlns="http://www.w3.org/2000/svg" xmlns:xlink="http://www.w3.org/1999/xlink"><linearGradient id="a" gradientUnits="userSpaceOnUse" x1="7" x2="7" xlink:href="#c" y1="11" y2="3"/><linearGradient id="b" gradientUnits="userSpaceOnUse" x1="7" x2="7" xlink:href="#c" y1="21" y2="13"/><linearGradient id="c" gradientTransform="translate(-25.830508 -3.59322)" gradientUnits="userSpaceOnUse" x1="14" x2="13.79661" y1="22" y2="2.135593"><stop offset="0" stop-color="#0040dd"/><stop offset="1" stop-color="#0a84ff"/></linearGradient><g fill="#69696e" transform="scale(-1 1)"><rect height="1" ry=".5" width="14.999998" x="-28" y="4"/><rect height="1" ry=".392136" width="15.000005" x="-28" y="14"/><rect height="1" ry=".436441" width="15.000001" x="-28" y="24"/><rect height="1" ry=".5" width="8.999999" x="-22" y="27"/><rect height="1" ry=".5" width="8.999999" x="-22" y="17"/><rect height="1" ry=".5" width="9.000002" x="-22" y="7"/></g><g fill="#eaeaea" fill-opacity=".992157" transform="matrix(-1 0 0 1 0 1)"><rect height="1" ry=".5" width="14.999998" x="-28" y="4"/><rect height="1" ry=".392136" width="15.000005" x="-28" y="14"/><rect height="1" ry=".436441" width="15.000001" x="-28" y="24"/><rect height="1" ry=".5" width="8.999999" x="-22" y="27"/><rect height="1" ry=".5" width="8.999999" x="-22" y="17"/><rect height="1" ry=".5" width="9.000002" x="-22" y="7"/></g><path d="m10 10.999997h-.8435898q-.1435897 0-.2333333-.07306-.083761-.07306-.1316239-.182647l-.6700854-1.923897h-3.2427352l-.6641025 1.917808q-.035898.1035-.1376068.182648-.095726.079151-.2333333.079151h-.8435898l2.9495727-8h1.1068376l2.9435897 8zm-4.8461539-2.97108h2.6923078l-1.1128205-3.2207q-.059829-.146119-.1196582-.340943-.059829-.194825-.1136752-.420092-.059829.231355-.1196582.42618-.059829.194825-.1136752.340944z" fill="url(#a)"/><path d="m4 21v-8h2.727889c.526076 0 .977323.04871 1.353741.146119.380952.09335.691609.231354.931971.414003.244898.178589.424036.397767.537414.657534.113379.255708.170069.545916.170069.870624 0 .194825-.03401.383562-.102036.56621-.06349.182648-.160999.351091-.292517.505327-.131519.154237-.297052.294267-.496598.420092-.199547.125824-.435374.227295-.707483.304414.621315.109589 1.088435.31862 1.40136.627092.31746.304414.47619.706241.47619 1.20548 0 .340943-.06576.651446-.197279.931507-.13152.280061-.324264.521562-.578231.724505-.253968.198884-.566893.353119-.938775.462709-.367347.109589-.789115.164384-1.265305.164384zm1.000001-3.640792v2.764078h1.999997c.312925 0 .580498-.0345.802719-.1035.226758-.07306.410432-.172502.551021-.298326.145125-.125825.249433-.276002.312925-.450533.06802-.178589.102036-.371385.102036-.578385 0-.409945-.145125-.734654-.435374-.974125-.285711-.239472-.730154-.359209-1.333327-.359209zm0-.779299h1.680269c.303855 0 .569161-.03247.795918-.09741.226757-.069.414966-.162355.564625-.280061.14966-.117707.260771-.259767.333333-.42618.0771-.166413.115644-.351091.115644-.554033 0-.466769-.142857-.807712-.42857-1.022831-.281179-.219179-.725623-.328768-1.333332-.328768h-1.7278885z" fill="url(#b)"/></svg>