<svg viewBox="0 0 32 32" xmlns="http://www.w3.org/2000/svg" xmlns:xlink="http://www.w3.org/1999/xlink"><linearGradient id="a" gradientUnits="userSpaceOnUse" x1="5.975326" x2="5.975326" xlink:href="#c" y1="20.976406" y2="12.976407"/><linearGradient id="b" gradientUnits="userSpaceOnUse" x1="7" x2="7" xlink:href="#c" y1="10" y2="4"/><linearGradient id="c" gradientTransform="translate(-25.830508 -3.59322)" gradientUnits="userSpaceOnUse" x1="14" x2="13.79661" y1="22" y2="2.135593"><stop offset="0" stop-color="#0040dd"/><stop offset="1" stop-color="#0a84ff"/></linearGradient><path d="m8.0432612 9.9278355q-.0861819-.1723639-.1400456-.6140461-.6948416.7217736-1.6590017.7217736-.8618191 0-1.4166151-.4847734-.5494097-.4901596-.5494097-1.2388649 0-.9102964.6894553-1.4112288.6948416-.5063187 1.9498657-.5063187h.9695464v-.4578414q0-.5224778-.3124094-.8295009-.3124094-.3124094-.9210691-.3124094-.5332506 0-.8941373.2693185-.3608868.2693184-.3608868.6517507h-1.0018647q0-.4362959.3070231-.8402736.3124094-.4093641.8402736-.6463644.5332505-.2370002 1.1688421-.2370002 1.0072511 0 1.5782062.5063187.5709552.5009324.5925007 1.3842969v2.6824119q0 .8025691.204682 1.2765696v.086182zm-1.6536153-.7594781q.4686141 0 .8887509-.2423866.4201368-.2423866.6086597-.6302052v-1.195774h-.7810235q-1.8313656 0-1.8313656 1.0718875 0 .4686141.3124094.7325462.3124095.2639321.8025691.2639321z" fill="url(#b)" transform="matrix(1 0 0 .98417588 0 .063171)"/><path d="m8.938403 18.400481q0 1.33582-.6140461 2.149161-.6140462.807956-1.6482291.807956-1.1042057 0-1.707479-.781024l-.0484773.673296h-.9156828v-8.273463h.9964783v3.08639q.6032734-.748706 1.6643881-.748706 1.0611148 0 1.6643881.802569.6086598.802569.6086598 2.197639zm-.9964784-.113114q0-1.018024-.3932049-1.57282-.393205-.554796-1.1311376-.554796-.9857056 0-1.4166151.915683v2.520821q.4578414.915683 1.4273879.915683.7163871 0 1.1149784-.554796.3985913-.554796.3985913-1.669775z" fill="url(#a)" transform="matrix(1 0 0 .98417588 .024674 .08639)"/><g fill="#69696e" transform="scale(-1 1)"><rect height="1" ry=".5" width="14.999998" x="-28" y="4"/><rect height="1" ry=".392136" width="15.000005" x="-28" y="14"/><rect height="1" ry=".436441" width="15.000001" x="-28" y="24"/><rect height="1" ry=".5" width="8.999999" x="-22" y="27"/><rect height="1" ry=".5" width="8.999999" x="-22" y="17"/><rect height="1" ry=".5" width="9.000002" x="-22" y="7"/></g><g fill="#eaeaea" fill-opacity=".992157" transform="matrix(-1 0 0 1 0 1)"><rect height="1" ry=".5" width="14.999998" x="-28" y="4"/><rect height="1" ry=".392136" width="15.000005" x="-28" y="14"/><rect height="1" ry=".436441" width="15.000001" x="-28" y="24"/><rect height="1" ry=".5" width="8.999999" x="-22" y="27"/><rect height="1" ry=".5" width="8.999999" x="-22" y="17"/><rect height="1" ry=".5" width="9.000002" x="-22" y="7"/></g></svg>