<?xml version="1.0" encoding="UTF-8" standalone="no"?>
<svg
   xmlns:dc="http://purl.org/dc/elements/1.1/"
   xmlns:cc="http://creativecommons.org/ns#"
   xmlns:rdf="http://www.w3.org/1999/02/22-rdf-syntax-ns#"
   xmlns:svg="http://www.w3.org/2000/svg"
   xmlns="http://www.w3.org/2000/svg"
   xmlns:sodipodi="http://sodipodi.sourceforge.net/DTD/sodipodi-0.dtd"
   xmlns:inkscape="http://www.inkscape.org/namespaces/inkscape"
   viewBox="0 0 32 32"
   version="1.1"
   id="svg12"
   sodipodi:docname="backcolor.svg"
   inkscape:version="0.92.3 (2405546, 2018-03-11)">
  <metadata
     id="metadata18">
    <rdf:RDF>
      <cc:Work
         rdf:about="">
        <dc:format>image/svg+xml</dc:format>
        <dc:type
           rdf:resource="http://purl.org/dc/dcmitype/StillImage" />
        <dc:title></dc:title>
      </cc:Work>
    </rdf:RDF>
  </metadata>
  <defs
     id="defs16" />
  <sodipodi:namedview
     pagecolor="#ffffff"
     bordercolor="#666666"
     borderopacity="1"
     objecttolerance="10"
     gridtolerance="10"
     guidetolerance="10"
     inkscape:pageopacity="0"
     inkscape:pageshadow="2"
     inkscape:window-width="1366"
     inkscape:window-height="692"
     id="namedview14"
     showgrid="false"
     inkscape:zoom="7.375"
     inkscape:cx="34.003257"
     inkscape:cy="11.015046"
     inkscape:window-x="0"
     inkscape:window-y="0"
     inkscape:window-maximized="1"
     inkscape:current-layer="svg12" />
  <path
     d="m4.1818182 2.9999999c-.6547273 0-1.1818182.5203333-1.1818182 1.1666667v11.6666674c0 .646333.5270909 1.166666 1.1818182 1.166666h9.9023438l6.555398-6.464518c.183703-.181851.42305-.29879.68093-.332682.0386-.243204.15414-.468123.330078-.6425785l.258523-.2552084v-5.1383465c0-.6463334-.527091-1.1666667-1.181818-1.1666667z"
     fill="#eac282"
     id="path2"
     style="fill:#fbe35a;fill-opacity:1" />
  <path
     d="m10.024038 15.883158q-.3028844 0-.4627401-.0779-.1598559-.08569-.2524038-.334954l-.1850962-.514118q-.3197115.257058-.6141828.451802-.2944711.194742-.6141826.327166-.3112981.132425-.6730769.194743-.3533654.070103-.7908655.070103-.5384614 0-.9843748-.132423-.4459134-.140216-.7740385-.405065-.3197115-.264849-.4963942-.654333-.1766826-.397275-.1766826-.911393 0-.428433.2355769-.856865.2355769-.42843.7992788-.771175.5721153-.350537 1.514423-.576437.9507212-.23369 2.3641825-.264849v-.412853q0-.747809-.3365383-1.0983453-.3365385-.3505357-.967548-.3505357-.471154 0-.7824521.1012652-.3028844.101265-.5384614.2259007-.235577.1168451-.4375001.2181111-.201923.101265-.4543268.101265-.2187499 0-.3786057-.101265-.1514424-.109055-.2439904-.2570587l-.3870192-.6231746q.7235576-.6231745 1.5985577-.9269721.8749999-.3037976 1.8930287-.3037976.7319712 0 1.3124999.2259008.5805288.2181111.9843745.6231745.403847.3972737.614184.9503412.210336.5530675.210336 1.2151905v4.868551zm-2.9278843-1.230769q.5721153 0 .984375-.186953.420673-.194741.8329325-.592016v-1.246349q-.8329325.03116-1.388221.132424-.5468751.09348-.875.249271-.3281249.148004-.4711539.350535-.1346153.202532-.1346153.436222 0 .467381.2776443.662123.2860575.194743.7740384.194743z"
     fill="#fff"
     id="path4" />
  <path
     d="m13 5v11h1.310629c.124157 0 .226006-.02495.303605-.07598.07759-.05613.130206-.153112.156078-.290903l.08338-.490624c.124157.147996.251245.283479.380575.40596.06182.05394.135836.09363.203115.14111l1.043372-1.057233c-.04833.0034-.09318.01302-.143251.01302-.258659 0-.503594-.04848-.731215-.145451-.227621-.09697-.438421-.265963-.635002-.505821v-3.351885c.222447-.27558.456003-.4845.699144-.627393.24314-.1479967.528415-.2236036.859499-.2236036.24314 0 .459459.043497.645693.1302545.191409.086756.348356.2222401.472511.4059601.129332.18372.227803.421169.295052.712059.06725.285786.100492.633769.100492 1.042036 0 .414054-.0375.766208-.104762 1.07243l2.061085-2.090584c-.03263-.209373-.068328-.415553-.124007-.605685-.134504-.4592995-.326824-.84861-.575137-1.1701199-.248314-.3266134-.548346-.5776215-.900123-.751135-.351776-.1735132-.746899-.2605092-1.186621-.2605092-.460415 0-.874915.095566-1.242212.2843893-.367297.18372-.700565.4275677-1.00061.7337675v-4.2940597z"
     fill="#fff"
     id="path6" />
  <path
     d="m 22.486191,10.385056 -7.540456,7.435895 3.894082,3.841527 7.51382,-7.464818 z"
     id="path8"
     style="fill:#fbe35a;fill-opacity:1;stroke:#f5c200;stroke-opacity:1"
     inkscape:connector-curvature="0"
     sodipodi:nodetypes="ccccc" />
  <path
     d="m 25.482663,7.8450719 c -0.258511,0 -0.51574,0.096553 -0.713827,0.2918617 l -2.282645,2.2481224 3.883427,3.836269 2.333254,-2.206052 c 0.396171,-0.390582 0.396171,-1.018766 0,-1.409349 L 26.199152,8.1369336 C 26.001065,7.941642 25.741174,7.8450719 25.482663,7.8450719 Z"
     id="path10"
     style="fill:#fbe35a;fill-opacity:1;stroke:#f5c200;stroke-opacity:1"
     inkscape:connector-curvature="0"
     sodipodi:nodetypes="sccccccs" />
  <path
     sodipodi:nodetypes="ccccc"
     inkscape:connector-curvature="0"
     style="fill:#98989d;fill-opacity:1;stroke:#616165;stroke-opacity:1"
     id="path840"
     d="m 14.945735,17.820951 -2.660867,4.353589 1.363728,0.849959 5.191221,-1.362021 z" />
</svg>
