<?xml version="1.0" encoding="UTF-8" standalone="no"?>
<svg
   xmlns:dc="http://purl.org/dc/elements/1.1/"
   xmlns:cc="http://creativecommons.org/ns#"
   xmlns:rdf="http://www.w3.org/1999/02/22-rdf-syntax-ns#"
   xmlns:svg="http://www.w3.org/2000/svg"
   xmlns="http://www.w3.org/2000/svg"
   xmlns:xlink="http://www.w3.org/1999/xlink"
   xmlns:sodipodi="http://sodipodi.sourceforge.net/DTD/sodipodi-0.dtd"
   xmlns:inkscape="http://www.inkscape.org/namespaces/inkscape"
   viewBox="0 0 32 32"
   version="1.1"
   id="svg34"
   sodipodi:docname="bulletsandnumberingdialog.svg"
   inkscape:version="0.92.3 (unknown)">
  <metadata
     id="metadata40">
    <rdf:RDF>
      <cc:Work
         rdf:about="">
        <dc:format>image/svg+xml</dc:format>
        <dc:type
           rdf:resource="http://purl.org/dc/dcmitype/StillImage" />
        <dc:title></dc:title>
      </cc:Work>
    </rdf:RDF>
  </metadata>
  <defs
     id="defs38">
    <linearGradient
       gradientTransform="translate(-25.830508,-3.5932203)"
       id="a"
       gradientUnits="userSpaceOnUse"
       x1="14"
       x2="13.79661"
       y1="22"
       y2="2.1355929">
      <stop
         offset="0"
         stop-color="#0040dd"
         id="stop2" />
      <stop
         offset="1"
         stop-color="#0a84ff"
         id="stop4" />
    </linearGradient>
    <linearGradient
       inkscape:collect="always"
       xlink:href="#a"
       id="linearGradient1215"
       gradientUnits="userSpaceOnUse"
       gradientTransform="matrix(-1,0,0,1,-29.010942,26.95119)"
       x1="-31.010942"
       y1="-4.95119"
       x2="-31.010942"
       y2="-16.951191" />
    <linearGradient
       inkscape:collect="always"
       xlink:href="#a"
       id="linearGradient872"
       x1="6.0508475"
       y1="20.86441"
       x2="6.1336298"
       y2="13.000006"
       gradientUnits="userSpaceOnUse" />
    <linearGradient
       inkscape:collect="always"
       xlink:href="#a"
       id="linearGradient874"
       x1="5.762712"
       y1="10.864407"
       x2="5.762712"
       y2="3.2033899"
       gradientUnits="userSpaceOnUse" />
    <linearGradient
       id="a-3"
       gradientUnits="userSpaceOnUse"
       x1="11"
       x2="11"
       y1="21"
       y2="3"
       gradientTransform="translate(2,2)">
      <stop
         offset="0"
         stop-color="#f7f7f7"
         id="stop2-6" />
      <stop
         offset=".22222222"
         stop-color="#fff"
         id="stop4-7" />
      <stop
         offset=".83333331"
         stop-color="#fff"
         id="stop6-5" />
      <stop
         offset="1"
         stop-color="#f7f7f7"
         id="stop8" />
    </linearGradient>
    <linearGradient
       id="b-3"
       gradientUnits="userSpaceOnUse"
       x1="12.117647"
       x2="12.117647"
       y1="17.352942"
       y2="5.8235288"
       gradientTransform="matrix(0.60714286,0,0,0.60714286,12.142857,10.964286)">
      <stop
         offset="0"
         stop-color="#cfcfcf"
         id="stop11-5" />
      <stop
         offset="0.07142864"
         stop-color="#e7e7e7"
         id="stop13-6" />
      <stop
         offset="0.07142864"
         stop-color="#fff"
         id="stop15" />
      <stop
         offset=".5"
         stop-color="#f3f3f3"
         id="stop17" />
      <stop
         offset="0.93333334"
         stop-color="#f9f9f9"
         id="stop19" />
      <stop
         offset="0.93333334"
         stop-color="#fcfcfc"
         id="stop21" />
      <stop
         offset="1"
         stop-color="#fff"
         id="stop23" />
    </linearGradient>
    <linearGradient
       id="c"
       gradientUnits="userSpaceOnUse"
       x1="12"
       x2="12"
       y1="12"
       y2="17"
       gradientTransform="matrix(0.60714286,0,0,0.60714286,12.142857,10.964286)">
      <stop
         offset="0"
         stop-color="#f8f8f8"
         id="stop26" />
      <stop
         offset="1"
         stop-color="#fff"
         id="stop28" />
    </linearGradient>
  </defs>
  <sodipodi:namedview
     pagecolor="#ffffff"
     bordercolor="#666666"
     borderopacity="1"
     objecttolerance="10"
     gridtolerance="10"
     guidetolerance="10"
     inkscape:pageopacity="0"
     inkscape:pageshadow="2"
     inkscape:window-width="1366"
     inkscape:window-height="699"
     id="namedview36"
     showgrid="false"
     inkscape:zoom="5.2149125"
     inkscape:cx="12.480055"
     inkscape:cy="21.448764"
     inkscape:window-x="0"
     inkscape:window-y="0"
     inkscape:window-maximized="1"
     inkscape:current-layer="svg34" />
  <path
     d="m6.13363 13.000006c.4098 0 .781737.0556 1.115812.16679.338531.107223.625836.260115.861917.458675.240534.19856.425389.438818.554566.720774.133629.277985.200444.585753.200444.923306 0 .289898-.04677.55994-.140311.810126-.09354.246215-.218263.482502-.374164.708861-.155902.222387-.33853.440804-.547885.655249-.209354.210474-.429844.422934-.661471.63738l-2.142538 1.918833 3.432071-.0038c.169265 0 .305122.04368.407573.13105.106904.08735.160356.202514.160356.345478v.527272h-6v-.482501c0-.09134.02005-.188633.06014-.291885.04455-.107222.120271-.206502.227172-.29784l2.579068-2.364854c.218263-.202532.4098-.395135.57461-.57781.169266-.182677.309578-.363367.420936-.542071.115813-.182675.202673-.365351.260579-.548027.05791-.186647.08686-.381236.08686-.583767 0-.365351-.10245-.64135-.30735-.827997s-.494432-.27997-.868597-.27997c-.160356 0-.307349.02184-.44098.06553-.13363.04368-.253897.103253-.360802.178704-.106903.07545-.198217.164805-.273942.268057-.07572.103251-.133626.214445-.173718.333581-.07127.182676-.169268.301812-.293988.357409-.120267.05559-.287305.06751-.501112.03574l-.855236-.13105c.06681-.38521.187079-.720779.360798-1.006706.173719-.289898.389755-.530156.648107-.720774.262807-.194589.563475-.339538.902005-.434846.33853-.09928.701559-.148921 1.08908-.148916z"
     fill="#0a84ff"
     id="path2"
     style="fill-opacity:1;fill:url(#linearGradient872)" />
  <path
     d="m6.90625 3-2.90625 2.341797.552734.703125c.02913.03609.0716.07329.125.109375.05825.03158.122493.05288.195313.06641s.151845.01353.234375 0c.08252-.01354.163574-.05208.246094-.115234l1.259765-1.007813c-.01455.225564-.02148.442872-.02148.650391l-.000004 5.251949h1.408203v-8z"
     fill="#0a84ff"
     id="path4"
     style="fill-opacity:1;fill:url(#linearGradient874)" />
  <g
     fill="#69696e"
     transform="scale(-1 1)"
     id="g18">
    <rect
       height="1"
       ry=".5"
       width="14.999998"
       x="-28"
       y="4"
       id="rect6" />
    <rect
       height="1"
       ry=".392136"
       width="15.000005"
       x="-28"
       y="14"
       id="rect8" />
    <rect
       height="1"
       ry=".436441"
       width="15.000001"
       x="-28"
       y="24"
       id="rect10" />
    <rect
       height="1"
       ry=".5"
       width="8.999999"
       x="-22"
       y="27"
       id="rect12" />
    <rect
       height="1"
       ry=".5"
       width="8.999999"
       x="-22"
       y="17"
       id="rect14" />
    <rect
       height="1"
       ry=".5"
       width="9.000002"
       x="-22"
       y="7"
       id="rect16" />
  </g>
  <g
     fill="#eaeaea"
     fill-opacity=".992157"
     transform="matrix(-1 0 0 1 0 1)"
     id="g32">
    <rect
       height="1"
       ry=".5"
       width="14.999998"
       x="-28"
       y="4"
       id="rect20" />
    <rect
       height="1"
       ry=".392136"
       width="15.000005"
       x="-28"
       y="14"
       id="rect22" />
    <rect
       height="1"
       ry=".436441"
       width="15.000001"
       x="-28"
       y="24"
       id="rect24" />
    <rect
       height="1"
       ry=".5"
       width="8.999999"
       x="-22"
       y="27"
       id="rect26" />
    <rect
       height="1"
       ry=".5"
       width="8.999999"
       x="-22"
       y="17"
       id="rect28" />
    <rect
       height="1"
       ry=".5"
       width="9.000002"
       x="-22"
       y="7"
       id="rect30" />
  </g>
  <g
     transform="matrix(1.33333,0,0,1.33333,-0.99992,8e-5)"
     id="g895">
    <path
       id="path31"
       d="m 15.749979,12.749972 h 7.500019 v 10.500026 h -7.500019 z"
       style="fill:url(#a-3)"
       inkscape:connector-curvature="0"
       sodipodi:nodetypes="ccccc" />
    <path
       id="path33"
       d="m 16,12 c -0.554,0 -1,0.446 -1,1 v 10 c 0,0.554 0.446,1 1,1 h 7 c 0.554,0 1,-0.446 1,-1 V 13 c 0,-0.554 -0.446,-1 -1,-1 z m -0.250021,0.749972 h 7.500019 v 10.500026 h -7.500019 z"
       style="fill:#848489"
       inkscape:connector-curvature="0"
       sodipodi:nodetypes="sssssssssccccc" />
    <path
       id="path35"
       d="m 16.874982,13.499974 h 5.250013 v 9.000022 h -5.250013 z"
       style="fill:#626262;stroke-width:0.60714287"
       inkscape:connector-curvature="0"
       sodipodi:nodetypes="ccccc" />
    <path
       id="path37"
       d="m 17.249983,14.249976 h 4.500011 v 7.500018 h -4.500011 z"
       style="fill:url(#b-3);stroke-width:0.60714287"
       inkscape:connector-curvature="0"
       sodipodi:nodetypes="ccccc" />
    <path
       id="path39"
       d="m 17.999992,14.999977 h 3 L 21,18 h -3 z"
       style="fill:#dadada;stroke-width:0.60714287"
       inkscape:connector-curvature="0"
       sodipodi:nodetypes="ccccc" />
    <path
       id="path41"
       d="m 18,18 h 3 v 3 h -3 z"
       style="fill:url(#c);stroke-width:0.60714287"
       inkscape:connector-curvature="0"
       sodipodi:nodetypes="ccccc" />
  </g>
</svg>
