<?xml version="1.0" encoding="UTF-8" standalone="no"?>
<svg
   xmlns:dc="http://purl.org/dc/elements/1.1/"
   xmlns:cc="http://creativecommons.org/ns#"
   xmlns:rdf="http://www.w3.org/1999/02/22-rdf-syntax-ns#"
   xmlns:svg="http://www.w3.org/2000/svg"
   xmlns="http://www.w3.org/2000/svg"
   xmlns:xlink="http://www.w3.org/1999/xlink"
   xmlns:sodipodi="http://sodipodi.sourceforge.net/DTD/sodipodi-0.dtd"
   xmlns:inkscape="http://www.inkscape.org/namespaces/inkscape"
   viewBox="0 0 32 32"
   version="1.1"
   id="svg1177"
   sodipodi:docname="bulletsandnumberingdialog.svg"
   inkscape:version="0.92.3 (2405546, 2018-03-11)">
  <metadata
     id="metadata1183">
    <rdf:RDF>
      <cc:Work
         rdf:about="">
        <dc:format>image/svg+xml</dc:format>
        <dc:type
           rdf:resource="http://purl.org/dc/dcmitype/StillImage" />
      </cc:Work>
    </rdf:RDF>
  </metadata>
  <defs
     id="defs1181" />
  <sodipodi:namedview
     pagecolor="#ffffff"
     bordercolor="#666666"
     borderopacity="1"
     objecttolerance="10"
     gridtolerance="10"
     guidetolerance="10"
     inkscape:pageopacity="0"
     inkscape:pageshadow="2"
     inkscape:window-width="1366"
     inkscape:window-height="716"
     id="namedview1179"
     showgrid="false"
     inkscape:zoom="7.375"
     inkscape:cx="-9.0169492"
     inkscape:cy="16"
     inkscape:window-x="-8"
     inkscape:window-y="-8"
     inkscape:window-maximized="1"
     inkscape:current-layer="svg1177" />
  <linearGradient
     id="a"
     gradientUnits="userSpaceOnUse"
     x1="6.711865"
     x2="6.423729"
     xlink:href="#c"
     y1="18.940678"
     y2="14.059322" />
  <linearGradient
     id="b"
     gradientUnits="userSpaceOnUse"
     x1="6.644068"
     x2="6.423729"
     xlink:href="#c"
     y1="9.144068"
     y2="3.991525" />
  <linearGradient
     id="c"
     gradientTransform="translate(-25.830508 -3.59322)"
     gradientUnits="userSpaceOnUse"
     x1="14"
     x2="13.79661"
     y1="22"
     y2="2.135593">
    <stop
       offset="0"
       stop-color="#0040dd"
       id="stop1095" />
    <stop
       offset="1"
       stop-color="#0a84ff"
       id="stop1097" />
  </linearGradient>
  <linearGradient
     id="d"
     gradientUnits="userSpaceOnUse"
     x1="13"
     x2="13"
     y1="23"
     y2="5">
    <stop
       offset="0"
       stop-color="#f7f7f7"
       id="stop1100" />
    <stop
       offset=".22222222"
       stop-color="#fff"
       id="stop1102" />
    <stop
       offset=".83333331"
       stop-color="#fff"
       id="stop1104" />
    <stop
       offset="1"
       stop-color="#f7f7f7"
       id="stop1106" />
  </linearGradient>
  <linearGradient
     id="e"
     gradientUnits="userSpaceOnUse"
     x1="19.5"
     x2="19.5"
     y1="21.500001"
     y2="14.5">
    <stop
       offset="0"
       stop-color="#cfcfcf"
       id="stop1109" />
    <stop
       offset=".07142864"
       stop-color="#e7e7e7"
       id="stop1111" />
    <stop
       offset=".07142864"
       stop-color="#fff"
       id="stop1113" />
    <stop
       offset=".5"
       stop-color="#f3f3f3"
       id="stop1115" />
    <stop
       offset=".93333334"
       stop-color="#f9f9f9"
       id="stop1117" />
    <stop
       offset=".93333334"
       stop-color="#fcfcfc"
       id="stop1119" />
    <stop
       offset="1"
       stop-color="#fff"
       id="stop1121" />
  </linearGradient>
  <linearGradient
     id="f"
     gradientUnits="userSpaceOnUse"
     x1="19.428571"
     x2="19.428571"
     y1="18.25"
     y2="21.285715">
    <stop
       offset="0"
       stop-color="#f8f8f8"
       id="stop1124" />
    <stop
       offset="1"
       stop-color="#fff"
       id="stop1126" />
  </linearGradient>
  <g
     fill="#69696e"
     transform="scale(-1 1)"
     id="g1141"
     style="fill:#4b4b4f;fill-opacity:1">
    <rect
       height="1"
       ry=".5"
       width="14.999998"
       x="-28"
       y="4"
       id="rect1129"
       style="fill:#4b4b4f;fill-opacity:1" />
    <rect
       height="1"
       ry=".392136"
       width="15.000005"
       x="-28"
       y="14"
       id="rect1131"
       style="fill:#4b4b4f;fill-opacity:1" />
    <rect
       height="1"
       ry=".436441"
       width="15.000001"
       x="-28"
       y="24"
       id="rect1133"
       style="fill:#4b4b4f;fill-opacity:1" />
    <rect
       height="1"
       ry=".5"
       width="8.999999"
       x="-22"
       y="27"
       id="rect1135"
       style="fill:#4b4b4f;fill-opacity:1" />
    <rect
       height="1"
       ry=".5"
       width="8.999999"
       x="-22"
       y="17"
       id="rect1137"
       style="fill:#4b4b4f;fill-opacity:1" />
    <rect
       height="1"
       ry=".5"
       width="9.000002"
       x="-22"
       y="7"
       id="rect1139"
       style="fill:#4b4b4f;fill-opacity:1" />
  </g>
  <g
     fill="#eaeaea"
     fill-opacity=".992157"
     transform="matrix(-1 0 0 1 0 1)"
     id="g1155">
    <rect
       height="1"
       ry=".5"
       width="14.999998"
       x="-28"
       y="4"
       id="rect1143" />
    <rect
       height="1"
       ry=".392136"
       width="15.000005"
       x="-28"
       y="14"
       id="rect1145" />
    <rect
       height="1"
       ry=".436441"
       width="15.000001"
       x="-28"
       y="24"
       id="rect1147" />
    <rect
       height="1"
       ry=".5"
       width="8.999999"
       x="-22"
       y="27"
       id="rect1149" />
    <rect
       height="1"
       ry=".5"
       width="8.999999"
       x="-22"
       y="17"
       id="rect1151" />
    <rect
       height="1"
       ry=".5"
       width="9.000002"
       x="-22"
       y="7"
       id="rect1153" />
  </g>
  <g
     transform="matrix(1.33333 0 0 1.33333 -.99992 .00008)"
     id="g1171">
    <path
       d="m15.749979 12.749972h7.500019v10.500026h-7.500019z"
       fill="url(#d)"
       id="path1157" />
    <path
       d="m16 12c-.554 0-1 .446-1 1v10c0 .554.446 1 1 1h7c.554 0 1-.446 1-1v-10c0-.554-.446-1-1-1zm-.250021.749972h7.500019v10.500026h-7.500019z"
       fill="#848489"
       id="path1159" />
    <g
       stroke-width=".607143"
       id="g1169">
      <path
         d="m16.874982 13.499974h5.250013v9.000022h-5.250013z"
         fill="#626262"
         id="path1161" />
      <path
         d="m17.249983 14.249976h4.500011v7.500018h-4.500011z"
         fill="url(#e)"
         id="path1163" />
      <path
         d="m17.999992 14.999977h3l.000008 3.000023h-3z"
         fill="#dadada"
         id="path1165" />
      <path
         d="m18 18h3v3h-3z"
         fill="url(#f)"
         id="path1167" />
    </g>
  </g>
  <path
     d="m9 6.5a2.5 2.5 0 0 1 -2.5 2.5 2.5 2.5 0 0 1 -2.5-2.5 2.5 2.5 0 0 1 2.5-2.5 2.5 2.5 0 0 1 2.5 2.5z"
     fill="url(#b)"
     id="path1173" />
  <path
     d="m9 16.5a2.5 2.5 0 0 1 -2.5 2.5 2.5 2.5 0 0 1 -2.5-2.5 2.5 2.5 0 0 1 2.5-2.5 2.5 2.5 0 0 1 2.5 2.5z"
     fill="url(#a)"
     id="path1175" />
</svg>
