<svg viewBox="0 0 32 32" xmlns="http://www.w3.org/2000/svg" xmlns:xlink="http://www.w3.org/1999/xlink"><linearGradient id="a" gradientTransform="translate(-31.24444 -10.571812)" gradientUnits="userSpaceOnUse" x1="-14.118644" x2="-14.118644" y1="29.61017" y2="11.61017"><stop offset="0" stop-color="#2a9240"/><stop offset="1" stop-color="#32d74b"/></linearGradient><linearGradient id="b" gradientUnits="userSpaceOnUse" x1="17.028484" x2="17.028484" xlink:href="#a" y1="16.014242" y2="10.014242"/><linearGradient id="c" gradientUnits="userSpaceOnUse" x1="17.028484" x2="17.028484" xlink:href="#a" y1="23.014242" y2="17.014242"/><path d="m7 3c-.554 0-1 .446-1 1v19c0 .554.446 1 1 1h8.330078c.138298-.200937.298211-.388765.498047-.541016-.202611-.148079-.440009-.23749-.585937-.458984h-8.242188v-19h17v10.041016c.340135.02626.673072.08786 1 .175781v-10.216797c0-.554-.446-1-1-1zm9.103516 20.181641-.03125.01563c.0067-.0035.01478-.0025.02148-.0059.0044-.0022.0054-.0077.0098-.0098z" fill="#98989d"/><path d="m10 9h17v19h-17z" fill="#fff" fill-opacity=".96124"/><path d="m7 4v19h10.242188c-.00712-.010806-.016782-.017819-.023438-.029297-.264298-.455785-.329301-1.070854-.146484-1.625v-.001953c1.136209-3.438498 3.876616-5.451703 6.763672-5.324219.055607.002456.108814.017219.164062.021485v-12.041016z" fill="#fff"/><path d="m10 8c-.554 0-1 .446-1 1v11.708984 7.291016c0 .554.446 1 1 1h6.996094 10.003906c.554 0 1-.446 1-1v-11.708984-7.291016c0-.554-.446-1-1-1h-6.996094zm0 1h10.005859 6.994141v8.091797 10.908203h-10.005859-6.994141v-8.091797z" fill="#98989d"/><path d="m23.835938 16.019531c-2.887057-.127484-5.627463 1.885721-6.763672 5.324219v.002c-.182817.554146-.117814 1.169215.146484 1.625.143075.246735.396879.332977.609375.488281-.620977.473108-.996153 1.220002-.806641 2l-.02734-.236328v2.777297.972656c-.00013.0092.002.01812.002.02734h10.003856c.554 0 1-.446 1-1v-11.70898c-.317679.236234-.56689.570771-.732422.955078-.087778-.055277-.178826-.101495-.267578-.154297-.990188-.589104-2.038777-1.022576-3.164062-1.072266zm-5.732422 7.16211c-.0044.0021-.0054.0076-.0098.0098-.0067.0034-.01482.0024-.02148.0059z" fill="#fff" fill-opacity=".784314"/><g fill="none" stroke="#0040dd" stroke-linecap="round" stroke-width="2" transform="translate(6.971516 6.985758)"><g stroke="url(#b)"><path d="m22 14.985758v-4" stroke-linecap="square"/><path d="m18.014242 14.985658h4" stroke-linecap="square"/><path d="m22 14.985758c-2.453409-4.923729-8.144068-5.6165863-10 0"/></g><g stroke="url(#c)"><path d="m12.021791 18v4" stroke-linecap="square"/><path d="m16.007549 18.0001h-4" stroke-linecap="square"/><path d="m12.021791 18c3.139849 4.949153 8.016949 5.413196 10 0"/></g></g></svg>