<?xml version="1.0" encoding="UTF-8" standalone="no"?>
<svg
   xmlns:dc="http://purl.org/dc/elements/1.1/"
   xmlns:cc="http://creativecommons.org/ns#"
   xmlns:rdf="http://www.w3.org/1999/02/22-rdf-syntax-ns#"
   xmlns:svg="http://www.w3.org/2000/svg"
   xmlns="http://www.w3.org/2000/svg"
   xmlns:xlink="http://www.w3.org/1999/xlink"
   xmlns:sodipodi="http://sodipodi.sourceforge.net/DTD/sodipodi-0.dtd"
   xmlns:inkscape="http://www.inkscape.org/namespaces/inkscape"
   viewBox="0 0 32 32"
   version="1.1"
   id="svg4"
   sodipodi:docname="calloutshapes.cloud-callout.svg"
   inkscape:version="0.92.3 (2405546, 2018-03-11)">
  <metadata
     id="metadata10">
    <rdf:RDF>
      <cc:Work
         rdf:about="">
        <dc:format>image/svg+xml</dc:format>
        <dc:type
           rdf:resource="http://purl.org/dc/dcmitype/StillImage" />
        <dc:title></dc:title>
      </cc:Work>
    </rdf:RDF>
  </metadata>
  <defs
     id="defs8">
    <linearGradient
       gradientTransform="translate(-45.220339,7.1186442)"
       id="a"
       gradientUnits="userSpaceOnUse"
       x1="12"
       x2="12"
       y1="21.5"
       y2="2.5">
      <stop
         offset="0"
         stop-color="#e5eefc"
         id="stop1020" />
      <stop
         offset="1"
         stop-color="#fcfdff"
         id="stop1022" />
    </linearGradient>
    <linearGradient
       inkscape:collect="always"
       xlink:href="#a"
       id="linearGradient835"
       x1="18.728813"
       y1="28.338984"
       x2="19.644066"
       y2="3.7966101"
       gradientUnits="userSpaceOnUse" />
  </defs>
  <sodipodi:namedview
     pagecolor="#ffffff"
     bordercolor="#666666"
     borderopacity="1"
     objecttolerance="10"
     gridtolerance="10"
     guidetolerance="10"
     inkscape:pageopacity="0"
     inkscape:pageshadow="2"
     inkscape:window-width="1366"
     inkscape:window-height="716"
     id="namedview6"
     showgrid="false"
     inkscape:zoom="7.375"
     inkscape:cx="-3.3220339"
     inkscape:cy="16"
     inkscape:window-x="-8"
     inkscape:window-y="-8"
     inkscape:window-maximized="1"
     inkscape:current-layer="svg4" />
  <path
     d="m16 3.500225a12.499775 7.8123754 0 0 0 -12.4997754 7.81236 12.499775 7.8123754 0 0 0 12.4997754 7.812359 12.499775 7.8123754 0 0 0 12.499775-7.812359 12.499775 7.8123754 0 0 0 -12.499775-7.81236zm-4.687416 15.624719a4.6874186 2.343708 0 0 0 -4.6874156 2.343708 4.6874186 2.343708 0 0 0 4.6874156 2.343708 4.6874186 2.343708 0 0 0 4.687416-2.343708 4.6874186 2.343708 0 0 0 -4.687416-2.343708zm-3.1249435 4.687416a3.1249398 1.5624719 0 0 0 -3.124944 1.562472 3.1249398 1.5624719 0 0 0 3.124944 1.562472 3.1249398 1.5624719 0 0 0 3.1249435-1.562472 3.1249398 1.5624719 0 0 0 -3.1249435-1.562472zm-3.124944 3.124944a1.5624719.78123597 0 0 0 -1.5624719.781236 1.5624719.78123597 0 0 0 1.5624719.781235 1.5624719.78123597 0 0 0 1.5624719-.781235 1.5624719.78123597 0 0 0 -1.5624719-.781236z"
     fill="#fff"
     stroke="#808080"
     stroke-linecap="round"
     stroke-linejoin="round"
     stroke-width="1.000449"
     id="path2"
     style="fill-opacity:1;fill:url(#linearGradient835);stroke:#0a84ff;stroke-opacity:1" />
</svg>
