<svg viewBox="0 0 32 32" xmlns="http://www.w3.org/2000/svg" xmlns:xlink="http://www.w3.org/1999/xlink"><linearGradient id="a" gradientUnits="userSpaceOnUse" x1="-5.952789" x2="-5.687041" y1="10.970532" y2="4.470532"><stop offset="0" stop-color="#0040dd"/><stop offset="1" stop-color="#0a84ff"/></linearGradient><path d="m12.568782 28.720942q-.132886-.651139-.212617-1.142816-.06644-.504965-.07973-1.00993-.73087 1.036507-1.913551 1.7408-1.1693928.691005-2.5248249.691005-2.245765 0-3.428446-1.142815-1.1693924-1.156104-1.1693924-3.175964 0-2.059725 1.6610688-3.215829 1.6743573-1.169392 4.5313956-1.169392h2.8437499v-1.421875q0-1.262412-.770736-1.993283-.770736-.744158-2.1793223-.744158-1.2624123 0-2.0597253.651139-.7840244.63785-.7840244 1.541471h-2.4982485l-.026577-.07973q-.079731-1.568049 1.4750291-2.870327 1.5680489-1.302278 4.0397192-1.302278 2.4450932 0 3.9334112 1.249124 1.488317 1.235835 1.488317 3.57462v6.923335q0 .770736.07973 1.488317.07973.717582.292349 1.408587zm-4.345356-1.913552q1.4218749 0 2.56469-.73087 1.142816-.73087 1.488318-1.674357v-2.338785h-2.9367698q-1.5813374 0-2.538113.797313-.9434871.797313-.9434871 1.873686 0 .956775.5979848 1.514894.5979847.558119 1.7673771.558119z" fill="#4b4b4f"/><path d="m29.000001 22.076667q0 3.10952-1.501606 5.023071-1.488318 1.900263-4.106162 1.900263-1.421875 0-2.47167-.54483-1.049796-.55812-1.7408-1.634492l-.318926 1.900263h-2.139456v-20.7301386h2.617844v8.0528616q.677716-.956776 1.674358-1.461741 1.009929-.504965 2.352073-.504965 2.65771 0 4.146028 2.126168 1.488317 2.126168 1.488317 5.59448zm-2.617844-.27906q0-2.47167-.91691-4.026431-.903622-1.568049-2.764019-1.568049-1.209258 0-2.046436.597985-.82389.584696-1.315567 1.581338v6.23233q.504965 1.063084 1.315567 1.661068.82389.597985 2.073014.597985 1.847108 0 2.750729-1.315566.903622-1.315567.903622-3.4816z" fill="#4b4b4f"/><path d="m19 2.9921875a1.0081374 1.0081374 0 0 0 -.712891 1.7207031l5 5.0000004a1.0081374 1.0081374 0 0 0 1.425782 0l5-5.0000004a1.0081374 1.0081374 0 0 0 -.712891-1.7207031z" fill="url(#a)"/></svg>