<?xml version="1.0" encoding="UTF-8" standalone="no"?>
<svg
   xmlns:dc="http://purl.org/dc/elements/1.1/"
   xmlns:cc="http://creativecommons.org/ns#"
   xmlns:rdf="http://www.w3.org/1999/02/22-rdf-syntax-ns#"
   xmlns:svg="http://www.w3.org/2000/svg"
   xmlns="http://www.w3.org/2000/svg"
   xmlns:xlink="http://www.w3.org/1999/xlink"
   xmlns:sodipodi="http://sodipodi.sourceforge.net/DTD/sodipodi-0.dtd"
   xmlns:inkscape="http://www.inkscape.org/namespaces/inkscape"
   viewBox="0 0 32 32"
   version="1.1"
   id="svg6"
   sodipodi:docname="circlecut.svg"
   inkscape:version="0.92.3 (2405546, 2018-03-11)">
  <metadata
     id="metadata12">
    <rdf:RDF>
      <cc:Work
         rdf:about="">
        <dc:format>image/svg+xml</dc:format>
        <dc:type
           rdf:resource="http://purl.org/dc/dcmitype/StillImage" />
        <dc:title></dc:title>
      </cc:Work>
    </rdf:RDF>
  </metadata>
  <defs
     id="defs10">
    <linearGradient
       gradientTransform="translate(-42.779661,-11.050847)"
       id="a"
       gradientUnits="userSpaceOnUse"
       x1="12"
       x2="12"
       y1="21.5"
       y2="2.5">
      <stop
         offset="0"
         stop-color="#e5eefc"
         id="stop2" />
      <stop
         offset="1"
         stop-color="#fcfdff"
         id="stop4" />
    </linearGradient>
    <linearGradient
       inkscape:collect="always"
       xlink:href="#a"
       id="linearGradient848"
       x1="15.118732"
       y1="28.114016"
       x2="15.707033"
       y2="4.0917969"
       gradientUnits="userSpaceOnUse" />
  </defs>
  <sodipodi:namedview
     pagecolor="#ffffff"
     bordercolor="#666666"
     borderopacity="1"
     objecttolerance="10"
     gridtolerance="10"
     guidetolerance="10"
     inkscape:pageopacity="0"
     inkscape:pageshadow="2"
     inkscape:window-width="1366"
     inkscape:window-height="716"
     id="namedview8"
     showgrid="false"
     inkscape:zoom="7.375"
     inkscape:cx="-9.0169492"
     inkscape:cy="16"
     inkscape:window-x="-8"
     inkscape:window-y="-8"
     inkscape:window-maximized="1"
     inkscape:current-layer="svg6" />
  <path
     d="m15.707033 4.0917967 12.072266 13.6718753c-.934146 6.186787-6.403019 10.686256-12.701172 10.201172-6.474647-.498678-11.370325-6.042684-11.064455-12.529297.297529-6.3097358 5.43862-11.1818065 11.693361-11.3437503z"
     fill="#fff"
     id="path2"
     style="stroke:none;fill-opacity:1;fill:url(#linearGradient848)" />
  <path
     d="m16.006224 3.001953c-7.02268-.1219949-12.661722 5.3688221-12.992552 12.384766-.33083 7.015943 4.985282 13.034847 11.988282 13.574219 7.002999.539371 13.235714-4.369693 13.98315-11.35355.02846-.273789-.241739-.514858-.502681-.773404l-11.765625-13.3242185c-.309231-.3686162-.435197-.5024404-.710574-.5078125zm-.299192 1.0898438 12.072266 13.6718752c-.934146 6.186787-6.403019 10.686256-12.701172 10.201172-6.474646-.498678-11.370324-6.042684-11.064454-12.529297.297529-6.3097357 5.43862-11.1818064 11.69336-11.3437502z"
     fill="#808080"
     id="path4"
     style="fill:#0a84ff;fill-opacity:1" />
</svg>
