<?xml version="1.0" encoding="UTF-8" standalone="no"?>
<svg
   xmlns:dc="http://purl.org/dc/elements/1.1/"
   xmlns:cc="http://creativecommons.org/ns#"
   xmlns:rdf="http://www.w3.org/1999/02/22-rdf-syntax-ns#"
   xmlns:svg="http://www.w3.org/2000/svg"
   xmlns="http://www.w3.org/2000/svg"
   xmlns:sodipodi="http://sodipodi.sourceforge.net/DTD/sodipodi-0.dtd"
   xmlns:inkscape="http://www.inkscape.org/namespaces/inkscape"
   viewBox="0 0 32 32"
   version="1.1"
   id="svg6"
   sodipodi:docname="circlepie_unfilled.svg"
   inkscape:version="0.92.3 (2405546, 2018-03-11)">
  <metadata
     id="metadata12">
    <rdf:RDF>
      <cc:Work
         rdf:about="">
        <dc:format>image/svg+xml</dc:format>
        <dc:type
           rdf:resource="http://purl.org/dc/dcmitype/StillImage" />
        <dc:title></dc:title>
      </cc:Work>
    </rdf:RDF>
  </metadata>
  <defs
     id="defs10">
    <linearGradient
       gradientTransform="translate(-40.338983,-12.677966)"
       id="a"
       gradientUnits="userSpaceOnUse"
       x1="12"
       x2="12"
       y1="21.5"
       y2="2.5">
      <stop
         offset="0"
         stop-color="#e5eefc"
         id="stop2" />
      <stop
         offset="1"
         stop-color="#fcfdff"
         id="stop4" />
    </linearGradient>
  </defs>
  <sodipodi:namedview
     pagecolor="#ffffff"
     bordercolor="#666666"
     borderopacity="1"
     objecttolerance="10"
     gridtolerance="10"
     guidetolerance="10"
     inkscape:pageopacity="0"
     inkscape:pageshadow="2"
     inkscape:window-width="1366"
     inkscape:window-height="716"
     id="namedview8"
     showgrid="false"
     inkscape:zoom="7.375"
     inkscape:cx="-3.3220339"
     inkscape:cy="16"
     inkscape:window-x="-8"
     inkscape:window-y="-8"
     inkscape:window-maximized="1"
     inkscape:current-layer="svg6" />
  <path
     d="m15.516916 2.9999996c-5.258945-.0106027-9.5009628 3.1522199-11.5208221 8.0078124-2.0198596 4.855593-.9121582 10.453392 2.8027342 14.175782 3.7148929 3.722389 9.3102669 4.840144 14.1699219 2.830078s8.03125-6.263192 8.03125-11.522147c-.000028-.276131-.223869-.499972-.5-.5h-12.506522l.02344-12.4895723c.0011-.2768941-.223105-.5019285-.500002-.5019531zm-.501953 1.0742188-.02344 12.4173066c.000028.276131.223869.499973.5.5h12.434256c-.198589 4.649335-3.01074 8.307702-7.339841 10.098319-4.488393 1.856503-9.648992.824729-13.0800786-2.613282-3.4310864-3.43801-4.451486-8.601296-2.5859375-13.085937 1.7993196-4.3254315 5.4453811-7.1271278 10.0950411-7.3164066z"
     fill="#4d82b8"
     id="path2"
     style="fill:#0a84ff;fill-opacity:0.9401961" />
  <path
     d="m8.5052387 21.495951 6.9897613-4.991899"
     fill="none"
     stroke="#4d82b8"
     stroke-linecap="round"
     stroke-width=".999265"
     id="path4"
     style="stroke:#0a84ff;stroke-opacity:0.94117647" />
</svg>
