<?xml version="1.0" encoding="UTF-8" standalone="no"?>
<svg
   xmlns:dc="http://purl.org/dc/elements/1.1/"
   xmlns:cc="http://creativecommons.org/ns#"
   xmlns:rdf="http://www.w3.org/1999/02/22-rdf-syntax-ns#"
   xmlns:svg="http://www.w3.org/2000/svg"
   xmlns="http://www.w3.org/2000/svg"
   xmlns:xlink="http://www.w3.org/1999/xlink"
   xmlns:sodipodi="http://sodipodi.sourceforge.net/DTD/sodipodi-0.dtd"
   xmlns:inkscape="http://www.inkscape.org/namespaces/inkscape"
   viewBox="0 0 32 32"
   version="1.1"
   id="svg25"
   sodipodi:docname="closedoc.svg"
   inkscape:version="0.92.3 (2405546, 2018-03-11)"
   inkscape:export-filename="/home/rizmut/Documents/Rizmut/Github/libreoffice-style-sukapura/images_sukapura/cmd/32/closedoc.png"
   inkscape:export-xdpi="96"
   inkscape:export-ydpi="96">
  <metadata
     id="metadata31">
    <rdf:RDF>
      <cc:Work
         rdf:about="">
        <dc:format>image/svg+xml</dc:format>
        <dc:type
           rdf:resource="http://purl.org/dc/dcmitype/StillImage" />
        <dc:title></dc:title>
      </cc:Work>
    </rdf:RDF>
  </metadata>
  <defs
     id="defs29">
    <radialGradient
       id="b"
       cx="17"
       cy="6.5555549"
       gradientTransform="matrix(1.4285714,-6e-8,6e-8,1.4285714,-7.285714,-4.365078)"
       gradientUnits="userSpaceOnUse"
       r="7">
      <stop
         offset="0"
         stop-color="#d7d7d7"
         id="stop9" />
      <stop
         offset=".29999998"
         stop-color="#f7f7f7"
         id="stop11" />
      <stop
         offset="1"
         stop-color="#fff"
         id="stop13" />
    </radialGradient>
    <linearGradient
       id="a-9"
       gradientUnits="userSpaceOnUse"
       x1="15"
       x2="17"
       y1="7"
       y2="4.999999">
      <stop
         offset="0"
         stop-color="#fff"
         id="stop2-9" />
      <stop
         offset=".77967989"
         stop-color="#f1f1f1"
         id="stop4-1" />
      <stop
         offset="1"
         stop-color="#d5d5d5"
         id="stop6-4" />
    </linearGradient>
    <linearGradient
       inkscape:collect="always"
       xlink:href="#a-2"
       id="linearGradient857"
       gradientUnits="userSpaceOnUse"
       x1="17.008224"
       y1="-16.365831"
       x2="16.831358"
       y2="14.603049"
       gradientTransform="matrix(0.70710678,0.70710678,0.70710678,-0.70710678,-9.8975076,-5.6933993)" />
    <linearGradient
       gradientTransform="translate(-25.830508,-3.5932203)"
       id="a-2"
       gradientUnits="userSpaceOnUse"
       x1="14"
       x2="13.79661"
       y1="22"
       y2="2.1355929">
      <stop
         offset="0"
         stop-color="#0040dd"
         id="stop2-97" />
      <stop
         offset="1"
         stop-color="#0a84ff"
         id="stop4-5" />
    </linearGradient>
    <linearGradient
       inkscape:collect="always"
       xlink:href="#a-2"
       id="linearGradient2282"
       gradientUnits="userSpaceOnUse"
       x1="17.008224"
       y1="-16.365831"
       x2="16.831358"
       y2="14.603049"
       gradientTransform="matrix(1,0,0,-1,-7.9899,15.000042)" />
  </defs>
  <sodipodi:namedview
     pagecolor="#ffffff"
     bordercolor="#666666"
     borderopacity="1"
     objecttolerance="10"
     gridtolerance="10"
     guidetolerance="10"
     inkscape:pageopacity="0"
     inkscape:pageshadow="2"
     inkscape:window-width="1366"
     inkscape:window-height="685"
     id="namedview27"
     showgrid="true"
     inkscape:zoom="7.375"
     inkscape:cx="12.802617"
     inkscape:cy="27.90557"
     inkscape:window-x="0"
     inkscape:window-y="0"
     inkscape:window-maximized="1"
     inkscape:current-layer="g844"
     inkscape:snap-smooth-nodes="false"
     inkscape:snap-global="true">
    <inkscape:grid
       type="xygrid"
       id="grid838"
       spacingx="0.5"
       spacingy="0.5"
       empspacing="2" />
  </sodipodi:namedview>
  <linearGradient
     id="a"
     gradientUnits="userSpaceOnUse"
     x1="13"
     x2="13"
     y1="10"
     y2="26">
    <stop
       offset="0"
       stop-color="#68caf8"
       id="stop2" />
    <stop
       offset=".5"
       stop-color="#70cef9"
       id="stop4" />
    <stop
       offset=".71428573"
       stop-color="#79d3fb"
       id="stop6" />
    <stop
       offset=".9285714"
       stop-color="#67c1ed"
       id="stop8" />
    <stop
       offset="1"
       stop-color="#67bfea"
       id="stop10" />
  </linearGradient>
  <g
     id="g846">
    <path
       id="path13"
       d="m19.603826 6.4999999c-.324636.0000601-.635955.1240384-.865493.3446692l-4.728087 3.6553309h-10.510246c-.6760366.000065-.9999324.35028-1 1l-.033898 15h1.2241232 22.0342168.775558v-13-6c-.000068-.6497199-.323963-.9999351-1-1z"
       stroke="#15b0f5"
       fill-rule="evenodd"
       fill="#94ddff" />
    <path
       id="path15"
       d="M 2.466102,26.5 H 3.6894531 25.724609 26.5 V 15 c 0,-1 -0.5,-1.5 -1,-1.5 H 22.5 4 c -1.2500514,0.0041 -1.1959312,-0.168916 -1.5,1 z"
       inkscape:connector-curvature="0"
       style="fill:url(#a);stroke:#15b0f5"
       sodipodi:nodetypes="cccccccccc" />
    <path
       style="fill:#3bc1f1"
       sodipodi:nodetypes="ccccc"
       inkscape:connector-curvature="0"
       d="M 2.0019532,23.5 H 27.001953 L 27,23 H 2 Z"
       id="path17" />
    <path
       id="path831"
       d="M 2.0000002,24.5 H 27 l -0.002,-0.5 h -25 z"
       inkscape:connector-curvature="0"
       sodipodi:nodetypes="ccccc"
       style="fill:#3bc1f1" />
    <path
       style="fill:#3bc1f1"
       sodipodi:nodetypes="ccccc"
       inkscape:connector-curvature="0"
       d="M 2.0000002,25.5 H 27 L 26.998,25 h -25 z"
       id="path833" />
  </g>
  <g
     transform="translate(11,-1)"
     id="g844">
    <path
       style="fill:url(#b)"
       inkscape:connector-curvature="0"
       id="path16"
       d="m 10,3 v 12 h 9 V 6.7294095 L 15,3 Z"
       sodipodi:nodetypes="cccccc" />
    <path
       style="fill:#98989d"
       inkscape:connector-curvature="0"
       id="path18"
       d="M 10,2 C 9.446,2 9,2.446 9,3 v 12 c 0,0.554 0.446,1 1,1 h 9 c 0.554,0 1,-0.446 1,-1 V 10.890625 7.2494041 7.0414802 C 20,6.5908003 20.09887,6.6148851 19.395363,5.973891 L 16.087974,2.7368575 C 15.378449,2 15.376751,2 14.99317,2 H 14.661613 14 Z m 0,1 h 4 v 4 c 0,0.554 0.446,1 1,1 h 4 v 7 h -9 z"
       sodipodi:nodetypes="ssssssccsccsccsccsscccc" />
    <path
       style="fill:#ffffff;fill-rule:evenodd"
       inkscape:connector-curvature="0"
       id="path20"
       d="m 15,7 h 4 L 15,3 Z"
       sodipodi:nodetypes="cccc" />
    <path
       style="fill:url(#a-9)"
       inkscape:connector-curvature="0"
       id="path22"
       d="m 15,3 4,4 h -4 z"
       sodipodi:nodetypes="cccc" />
    <path
       style="fill:#ffffff;fill-opacity:0.78431373;stroke:none;stroke-width:2;stroke-linecap:round;stroke-linejoin:round"
       d="m 8.4804688,12.333984 c -0.6294299,2e-6 -1.2699515,0.236754 -1.7519532,0.71875 L 2.8242188,16.958984 1.4003906,15.535156 C 0.8509917,14.98614 -0.0382783,14.808255 -0.75585938,15.105469 -1.4734404,15.402682 -1.9762584,16.156897 -1.9765625,16.933594 v 7.070312 c 1.036e-4,1.03579 0.9427262,1.978412 1.97851563,1.978516 H 7.0722656 c 0.7766967,-3.05e-4 1.5309119,-0.503122 1.828125,-1.220703 0.2972132,-0.717581 0.1193287,-1.606851 -0.4296875,-2.15625 l -0.00586,-0.0059 -1.4296876,-1.429687 3.9042968,-3.904297 c 0.965069,-0.965061 0.965055,-2.540803 0,-3.505859 L 10.232422,13.052734 C 9.7504194,12.570732 9.1099003,12.333983 8.4804688,12.333984 Z"
       id="path2313" />
    <path
       style="fill:url(#linearGradient857);fill-opacity:1;stroke:none;stroke-width:2;stroke-linecap:round;stroke-linejoin:round"
       d="m 9.540817,13.744866 c -0.5753726,-0.575372 -1.5459484,-0.575366 -2.1213203,0 L 2.8233026,18.34106 0.70888765,16.226645 a 1.0001,1.0001 0 0 0 -1.7069998,0.707107 v 7.071068 a 1.0001,1.0001 0 0 0 0.9998932,0.999893 H 7.0728488 a 1.0001,1.0001 0 0 0 0.7071066,-1.707 l -0.00691,-0.0069 -2.1213204,-2.121321 4.596195,-4.596194 c 0.575379,-0.575374 0.575372,-1.545947 0,-2.12132 z"
       id="rect2"
       inkscape:connector-curvature="0" />
  </g>
</svg>
