<?xml version="1.0" encoding="UTF-8" standalone="no"?>
<svg
   xmlns:dc="http://purl.org/dc/elements/1.1/"
   xmlns:cc="http://creativecommons.org/ns#"
   xmlns:rdf="http://www.w3.org/1999/02/22-rdf-syntax-ns#"
   xmlns:svg="http://www.w3.org/2000/svg"
   xmlns="http://www.w3.org/2000/svg"
   xmlns:xlink="http://www.w3.org/1999/xlink"
   xmlns:sodipodi="http://sodipodi.sourceforge.net/DTD/sodipodi-0.dtd"
   xmlns:inkscape="http://www.inkscape.org/namespaces/inkscape"
   viewBox="0 0 32 32"
   version="1.1"
   id="svg8"
   sodipodi:docname="crookrotate.svg"
   inkscape:version="0.92.3 (unknown)">
  <metadata
     id="metadata14">
    <rdf:RDF>
      <cc:Work
         rdf:about="">
        <dc:format>image/svg+xml</dc:format>
        <dc:type
           rdf:resource="http://purl.org/dc/dcmitype/StillImage" />
        <dc:title></dc:title>
      </cc:Work>
    </rdf:RDF>
  </metadata>
  <defs
     id="defs12">
    <linearGradient
       gradientTransform="translate(-29.694915,1.220339)"
       id="a"
       gradientUnits="userSpaceOnUse"
       x1="14"
       x2="13.79661"
       y1="22"
       y2="2.1355929">
      <stop
         offset="0"
         stop-color="#0040dd"
         id="stop2" />
      <stop
         offset="1"
         stop-color="#0a84ff"
         id="stop4" />
    </linearGradient>
    <linearGradient
       inkscape:collect="always"
       xlink:href="#a"
       id="linearGradient1574"
       x1="12.244068"
       y1="18.875423"
       x2="12.410169"
       y2="11.011018"
       gradientUnits="userSpaceOnUse" />
  </defs>
  <sodipodi:namedview
     pagecolor="#ffffff"
     bordercolor="#666666"
     borderopacity="1"
     objecttolerance="10"
     gridtolerance="10"
     guidetolerance="10"
     inkscape:pageopacity="0"
     inkscape:pageshadow="2"
     inkscape:window-width="1366"
     inkscape:window-height="706"
     id="namedview10"
     showgrid="false"
     inkscape:zoom="7.375"
     inkscape:cx="-2.9830508"
     inkscape:cy="16"
     inkscape:window-x="0"
     inkscape:window-y="0"
     inkscape:window-maximized="1"
     inkscape:current-layer="svg8" />
  <path
     d="m4.3 4.3685542c6.860913.082537 14.045691 1.1773944 22.912907 3.5559472l-4.575797 19.5850696c-6.531794-1.542593-11.99726-2.455379-18.33711-2.409571z"
     fill="#fff"
     id="path2" />
  <path
     d="m9.5 10.8-3.9 3.882668 3.9 3.882665v-1.941333c4.587053 0 6.527318.215394 9.799321 1.120055l-.699321 2.155945 5.2-2.73-2.6-5.07-.703784 1.992744c-3.388951-.897477-6.639991-1.351411-10.996216-1.351411z"
     fill="#4d82b8"
     id="path4"
     style="fill-opacity:1;fill:url(#linearGradient1574)" />
  <path
     d="m3 3v23.4c7.323133-.119886 13.34444.705393 20.8 2.6l5.2-22.1c-10.298183-2.9295767-18.345739-3.8606138-26-3.9zm1.3 1.3685542c6.860913.082537 14.045691 1.1773944 22.912907 3.5559485l-4.575797 19.5850683c-6.531794-1.542593-11.99726-2.455379-18.33711-2.409571z"
     fill="#808080"
     id="path6"
     style="fill:#69696e;fill-opacity:1" />
</svg>
