<?xml version="1.0" encoding="UTF-8" standalone="no"?>
<svg
   xmlns:dc="http://purl.org/dc/elements/1.1/"
   xmlns:cc="http://creativecommons.org/ns#"
   xmlns:rdf="http://www.w3.org/1999/02/22-rdf-syntax-ns#"
   xmlns:svg="http://www.w3.org/2000/svg"
   xmlns="http://www.w3.org/2000/svg"
   xmlns:sodipodi="http://sodipodi.sourceforge.net/DTD/sodipodi-0.dtd"
   xmlns:inkscape="http://www.inkscape.org/namespaces/inkscape"
   viewBox="0 0 32 32"
   version="1.1"
   id="svg38"
   sodipodi:docname="crop.svg"
   inkscape:version="0.92.3 (unknown)">
  <metadata
     id="metadata44">
    <rdf:RDF>
      <cc:Work
         rdf:about="">
        <dc:format>image/svg+xml</dc:format>
        <dc:type
           rdf:resource="http://purl.org/dc/dcmitype/StillImage" />
        <dc:title></dc:title>
      </cc:Work>
    </rdf:RDF>
  </metadata>
  <defs
     id="defs42" />
  <sodipodi:namedview
     pagecolor="#ffffff"
     bordercolor="#666666"
     borderopacity="1"
     objecttolerance="10"
     gridtolerance="10"
     guidetolerance="10"
     inkscape:pageopacity="0"
     inkscape:pageshadow="2"
     inkscape:window-width="1366"
     inkscape:window-height="706"
     id="namedview40"
     showgrid="true"
     inkscape:zoom="7.375"
     inkscape:cx="20.875348"
     inkscape:cy="36.296074"
     inkscape:window-x="0"
     inkscape:window-y="0"
     inkscape:window-maximized="1"
     inkscape:current-layer="g16">
    <inkscape:grid
       type="xygrid"
       id="grid859"
       spacingx="0.5"
       spacingy="0.5"
       empspacing="2" />
  </sodipodi:namedview>
  <path
     d="m4 4v12h10v-1c0-.554.446-1 1-1v-10z"
     fill="#fff"
     id="path2" />
  <g
     fill="#808080"
     id="g16"
     style="fill:#69696e;fill-opacity:1">
    <path
       d="m 3,3 v 13 h 11 2 V 14 13 3 Z M 4,4 H 15 V 15 H 4.1933594 4 Z"
       id="path4"
       style="fill:#69696e;fill-opacity:1"
       inkscape:connector-curvature="0"
       sodipodi:nodetypes="cccccccccccccc" />
    <rect
       height="1"
       ry=".5"
       width="3"
       x="25"
       y="3"
       id="rect8"
       style="fill:#69696e;fill-opacity:1" />
    <rect
       height="1"
       ry=".5"
       width="5"
       x="18"
       y="3"
       id="rect10"
       style="fill:#69696e;fill-opacity:1" />
    <rect
       height="1"
       ry=".483051"
       width="8"
       x="8"
       y="27"
       id="rect12"
       style="fill:#69696e;fill-opacity:1" />
    <rect
       height="1"
       ry=".5"
       width="3"
       x="3"
       y="27"
       id="rect14"
       style="fill:#69696e;fill-opacity:1" />
    <path
       inkscape:connector-curvature="0"
       style="fill:#32d74b;fill-rule:evenodd;stroke:#28cd41"
       d="M 4.5,14.5 4.46691,13.90159 7.5,11.5 10,13 l 3,-3 1.5,3 v 1.5 z"
       id="path2376"
       sodipodi:nodetypes="cccccccc" />
    <circle
       style="fill:#ffd60a;stroke:#ffcc00"
       cx="7.5"
       cy="7.5"
       r="2.0059969"
       id="circle2374" />
  </g>
  <g
     fill="#4d82b8"
     transform="translate(6 6)"
     id="g26"
     style="fill:#000000;fill-opacity:1">
    <rect
       height="2"
       ry="1"
       width="10"
       x="12"
       y="20"
       id="rect18"
       style="fill:#000000;fill-opacity:1" />
    <rect
       height="2"
       ry="1"
       transform="rotate(90)"
       width="10"
       x="12"
       y="-22"
       id="rect20"
       style="fill:#000000;fill-opacity:1" />
    <path
       style="fill:#000000;fill-opacity:1"
       d="M 20.875 20 C 20.390716 20 20 20.390716 20 20.875 L 20 21.125 C 20 21.609284 20.390716 22 20.875 22 L 25 22 L 25 20 L 20.875 20 z M 26 20 L 26 22 L 29.125 22 C 29.609284 22 30 21.609284 30 21.125 L 30 20.875 C 30 20.390716 29.609284 20 29.125 20 L 26 20 z "
       transform="translate(-6,-6)"
       id="rect22" />
    <path
       style="fill:#000000;fill-opacity:1"
       d="M 20.982422 20 C 20.438381 20 20 20.438381 20 20.982422 L 20 25 L 22 25 L 22 20.982422 C 22 20.438381 21.561619 20 21.017578 20 L 20.982422 20 z M 20 26 L 20 29.017578 C 20 29.561619 20.438381 30 20.982422 30 L 21.017578 30 C 21.561619 30 22 29.561619 22 29.017578 L 22 26 L 20 26 z "
       transform="translate(-6,-6)"
       id="rect24" />
  </g>
  <g
     fill="#808080"
     id="g36">
    <rect
       height="3"
       ry=".5"
       width="1"
       x="3"
       y="25"
       id="rect28" />
    <rect
       height="5"
       ry=".5"
       width="1"
       x="3"
       y="18"
       id="rect30" />
    <rect
       height="8"
       ry=".5"
       width="1"
       x="27"
       y="8"
       id="rect32" />
    <rect
       height="3"
       ry=".5"
       width="1"
       x="27"
       y="3"
       id="rect34" />
  </g>
</svg>
