<?xml version="1.0" encoding="UTF-8" standalone="no"?>
<svg
   xmlns:dc="http://purl.org/dc/elements/1.1/"
   xmlns:cc="http://creativecommons.org/ns#"
   xmlns:rdf="http://www.w3.org/1999/02/22-rdf-syntax-ns#"
   xmlns:svg="http://www.w3.org/2000/svg"
   xmlns="http://www.w3.org/2000/svg"
   xmlns:sodipodi="http://sodipodi.sourceforge.net/DTD/sodipodi-0.dtd"
   xmlns:inkscape="http://www.inkscape.org/namespaces/inkscape"
   viewBox="0 0 32 32"
   version="1.1"
   id="svg44"
   sodipodi:docname="crop.svg"
   inkscape:version="0.92.3 (2405546, 2018-03-11)">
  <metadata
     id="metadata50">
    <rdf:RDF>
      <cc:Work
         rdf:about="">
        <dc:format>image/svg+xml</dc:format>
        <dc:type
           rdf:resource="http://purl.org/dc/dcmitype/StillImage" />
      </cc:Work>
    </rdf:RDF>
  </metadata>
  <defs
     id="defs48" />
  <sodipodi:namedview
     pagecolor="#ffffff"
     bordercolor="#666666"
     borderopacity="1"
     objecttolerance="10"
     gridtolerance="10"
     guidetolerance="10"
     inkscape:pageopacity="0"
     inkscape:pageshadow="2"
     inkscape:window-width="1366"
     inkscape:window-height="716"
     id="namedview46"
     showgrid="false"
     inkscape:zoom="7.375"
     inkscape:cx="-3.3220339"
     inkscape:cy="16"
     inkscape:window-x="-8"
     inkscape:window-y="-8"
     inkscape:window-maximized="1"
     inkscape:current-layer="svg44" />
  <path
     d="m4 4v12h10v-1c0-.554.446-1 1-1v-10z"
     fill="#fff"
     id="path2" />
  <g
     fill="#69696e"
     id="g20">
    <g
       fill="#69696e"
       id="g14">
      <path
         d="m3 3v13h11 2v-2-1-10zm1 1h11v11h-10.8066406-.1933594z"
         id="path4" />
      <rect
         height="1"
         ry=".5"
         width="3"
         x="25"
         y="3"
         id="rect6" />
      <rect
         height="1"
         ry=".5"
         width="5"
         x="18"
         y="3"
         id="rect8" />
      <rect
         height="1"
         ry=".483051"
         width="8"
         x="8"
         y="27"
         id="rect10" />
      <rect
         height="1"
         ry=".5"
         width="3"
         x="3"
         y="27"
         id="rect12" />
    </g>
    <path
       d="m4.5 14.5-.03309-.59841 3.03309-2.40159 2.5 1.5 3-3 1.5 3v1.5z"
       fill="#32d74b"
       fill-rule="evenodd"
       stroke="#28cd41"
       id="path16" />
    <circle
       cx="7.5"
       cy="7.5"
       fill="#ffd60a"
       r="2.005997"
       stroke="#fc0"
       id="circle18" />
  </g>
  <g
     transform="translate(6 6)"
     id="g32"
     style="fill:#4b4b4f;fill-opacity:1">
    <rect
       height="2"
       ry="1"
       width="10"
       x="12"
       y="20"
       id="rect22"
       style="fill:#4b4b4f;fill-opacity:1" />
    <rect
       height="2"
       ry="1"
       transform="rotate(90)"
       width="10"
       x="12"
       y="-22"
       id="rect24"
       style="fill:#4b4b4f;fill-opacity:1" />
    <g
       transform="translate(-6 -6)"
       id="g30"
       style="fill:#4b4b4f;fill-opacity:1">
      <path
         d="m20.875 20c-.484284 0-.875.390716-.875.875v.25c0 .484284.390716.875.875.875h4.125v-2zm5.125 0v2h3.125c.484284 0 .875-.390716.875-.875v-.25c0-.484284-.390716-.875-.875-.875z"
         id="path26"
         style="fill:#4b4b4f;fill-opacity:1" />
      <path
         d="m20.982422 20c-.544041 0-.982422.438381-.982422.982422v4.017578h2v-4.017578c0-.544041-.438381-.982422-.982422-.982422zm-.982422 6v3.017578c0 .544041.438381.982422.982422.982422h.035156c.544041 0 .982422-.438381.982422-.982422v-3.017578z"
         id="path28"
         style="fill:#4b4b4f;fill-opacity:1" />
    </g>
  </g>
  <g
     fill="#808080"
     id="g42">
    <rect
       height="3"
       ry=".5"
       width="1"
       x="3"
       y="25"
       id="rect34" />
    <rect
       height="5"
       ry=".5"
       width="1"
       x="3"
       y="18"
       id="rect36" />
    <rect
       height="8"
       ry=".5"
       width="1"
       x="27"
       y="8"
       id="rect38" />
    <rect
       height="3"
       ry=".5"
       width="1"
       x="27"
       y="3"
       id="rect40" />
  </g>
</svg>
