<?xml version="1.0" encoding="UTF-8" standalone="no"?>
<svg
   xmlns:dc="http://purl.org/dc/elements/1.1/"
   xmlns:cc="http://creativecommons.org/ns#"
   xmlns:rdf="http://www.w3.org/1999/02/22-rdf-syntax-ns#"
   xmlns:svg="http://www.w3.org/2000/svg"
   xmlns="http://www.w3.org/2000/svg"
   xmlns:xlink="http://www.w3.org/1999/xlink"
   xmlns:sodipodi="http://sodipodi.sourceforge.net/DTD/sodipodi-0.dtd"
   xmlns:inkscape="http://www.inkscape.org/namespaces/inkscape"
   viewBox="0 0 32 32"
   version="1.1"
   id="svg29"
   sodipodi:docname="currencyfield.svg"
   inkscape:version="0.92.3 (2405546, 2018-03-11)"
   inkscape:export-filename="/home/rizmut/Documents/Rizmut/Github/libreoffice-style-sukapura/images_sukapura/cmd/lc_currencyfield.png"
   inkscape:export-xdpi="96"
   inkscape:export-ydpi="96"
   width="32"
   height="32">
  <metadata
     id="metadata35">
    <rdf:RDF>
      <cc:Work
         rdf:about="">
        <dc:format>image/svg+xml</dc:format>
        <dc:type
           rdf:resource="http://purl.org/dc/dcmitype/StillImage" />
        <dc:title></dc:title>
      </cc:Work>
    </rdf:RDF>
  </metadata>
  <defs
     id="defs33">
    <linearGradient
       gradientTransform="translate(-31.118644,6.6101695)"
       id="a"
       gradientUnits="userSpaceOnUse"
       x1="14"
       x2="13.79661"
       y1="22"
       y2="2.1355929">
      <stop
         offset="0"
         stop-color="#0040dd"
         id="stop1586"
         style="stop-color:#2a9240;stop-opacity:1" />
      <stop
         offset="1"
         stop-color="#0a84ff"
         id="stop1588"
         style="stop-color:#32d74b;stop-opacity:1" />
    </linearGradient>
    <linearGradient
       inkscape:collect="always"
       xlink:href="#a"
       id="linearGradient2174"
       x1="11.779661"
       y1="18"
       x2="12.322034"
       y2="6.8135595"
       gradientUnits="userSpaceOnUse"
       gradientTransform="matrix(1.33333,0,0,1.33333,4.0000001e-5,-2.66662)" />
    <linearGradient
       gradientTransform="translate(-29.898305,-2.9397842)"
       id="a-2"
       gradientUnits="userSpaceOnUse"
       x1="7"
       x2="7"
       y1="20"
       y2="3">
      <stop
         offset="0"
         stop-color="#f5f5f5"
         id="stop2344" />
      <stop
         offset=".3888889"
         stop-color="#fdfdfd"
         id="stop2346" />
      <stop
         offset="1"
         stop-color="#fff"
         id="stop2348" />
    </linearGradient>
    <linearGradient
       inkscape:collect="always"
       xlink:href="#a-2"
       id="linearGradient2939"
       x1="10.745763"
       y1="17.084745"
       x2="11.118644"
       y2="7.0169492"
       gradientUnits="userSpaceOnUse"
       gradientTransform="matrix(1.33333,0,0,1.33333,4e-5,-2.66662)" />
  </defs>
  <sodipodi:namedview
     pagecolor="#ffffff"
     bordercolor="#666666"
     borderopacity="1"
     objecttolerance="10"
     gridtolerance="10"
     guidetolerance="10"
     inkscape:pageopacity="0"
     inkscape:pageshadow="2"
     inkscape:window-width="1366"
     inkscape:window-height="685"
     id="namedview31"
     showgrid="true"
     inkscape:zoom="8"
     inkscape:cx="-5.427792"
     inkscape:cy="14.410796"
     inkscape:window-x="0"
     inkscape:window-y="0"
     inkscape:window-maximized="1"
     inkscape:current-layer="svg29">
    <inkscape:grid
       type="xygrid"
       id="grid1638"
       spacingx="0.5"
       spacingy="0.5"
       empspacing="2" />
  </sodipodi:namedview>
  <rect
     style="fill:url(#linearGradient2939);fill-opacity:1;stroke-width:1.33333004"
     id="rect821"
     width="27.333302"
     height="13.99999"
     x="2"
     y="6"
     ry="0" />
  <path
     inkscape:connector-curvature="0"
     id="path3"
     d="M 1,5 V 21 H 29.666016 31 V 19.666016 6.3339844 5 H 29.666016 Z M 2,6 2.017578,8 A 2,2 0 0 0 4,6 h 24 a 2,2 0 0 0 1.982422,2 L 30,6 V 20 L 29.98242,18 A 2,2 0 0 0 28,20 H 4 A 2,2 0 0 0 2.0175781,18 L 2,20 Z m 14,3 a 4,4 0 0 0 -4,4 4,4 0 0 0 4,4 4,4 0 0 0 4,-4 4,4 0 0 0 -4,-4 z"
     style="fill:url(#linearGradient2174);fill-opacity:1;stroke-width:1.33333004" />
  <g
     id="g2285">
    <path
       sodipodi:nodetypes="sscccccccscsscscccccccccccc"
       inkscape:connector-curvature="0"
       id="ellipse2251"
       d="m 10.999997,19 c -2.065683,0 -3.9929294,1.006208 -3.9980439,2.246094 -8.5e-6,0.0021 -0.00195,0.0038 -0.00195,0.0059 V 24 C 7.2130775,25.137604 9.0939496,25.999617 11,26 c 1.905301,-9.79e-4 3.78701,-0.862841 4,-2 V 21.238281 H 14.9961 C 14.97331,20.007285 13.054721,18.999782 11.000003,19 Z m 0.0039,1.001953 C 12.522686,20.001953 14,20.559644 14,21.25 14,21.940356 12.522686,22.501953 11.003903,22.501953 9.4851198,22.501953 8,21.940356 8,21.25 c 0,-0.0013 -8.4e-6,-0.0026 0,-0.0039 0.00453,-0.688606 1.4879216,-1.244147 3.003903,-1.244147 z M 11.000003,22 c -0.02084,5.46e-4 -0.04168,0.0012 -0.0625,0.002 h 0.15039 C 11.058613,22.001142 11.029313,22.0005 11.000003,22 Z M 8,22.771484 C 8.6845287,23.216362 9.9104972,23.500116 10.999997,23.5 12.09158,23.500116 13.313244,23.218675 14,22.775391 V 24 c -0.261274,0.581808 -1.689725,1.00172 -2.996097,1.001953 C 9.6982645,25.001298 8.2611271,24.581482 8,24 Z"
       style="opacity:1;fill:#ff9500;fill-opacity:1;stroke:none;stroke-width:3.13115239;stroke-linecap:round;stroke-linejoin:round;stroke-miterlimit:4;stroke-dasharray:none;stroke-opacity:1" />
    <path
       sodipodi:nodetypes="scssssccccccccccc"
       inkscape:connector-curvature="0"
       id="rect2278"
       d="m 11.003903,20.001953 c -1.5159814,0 -2.999372,0.555541 -3.003903,1.244141 -8.4e-6,0.0013 0,0.0026 0,0.0039 0,0.690356 1.4851198,1.251953 3.003903,1.251953 C 12.522686,22.501947 14,21.94035 14,21.249994 14,20.559644 12.522686,20.001953 11.003903,20.001953 Z M 11.000003,22 c 0.02931,5e-4 0.05861,0.0011 0.08789,0.002 h -0.15039 c 0.02082,-8e-4 0.04166,-0.0014 0.0625,-0.002 z M 8,22.771484 V 24 c 0.2611271,0.581482 1.6982645,1.001298 3.003903,1.001953 C 12.310275,25.00172 13.738726,24.581808 14,24 V 22.775391 C 13.313244,23.218675 12.09158,23.500116 10.999997,23.5 9.910497,23.500116 8.6845287,23.216362 8,22.771484 Z"
       style="opacity:1;fill:#ffffff;fill-opacity:1;stroke:none;stroke-width:2;stroke-linecap:round;stroke-linejoin:round;stroke-miterlimit:4;stroke-dasharray:none;stroke-opacity:1" />
  </g>
  <g
     id="g2303"
     transform="translate(9)">
    <path
       style="opacity:1;fill:#ff9500;fill-opacity:1;stroke:none;stroke-width:3.13115239;stroke-linecap:round;stroke-linejoin:round;stroke-miterlimit:4;stroke-dasharray:none;stroke-opacity:1"
       d="m 10.999997,19 c -2.065683,0 -3.9929294,1.006208 -3.9980439,2.246094 -8.5e-6,0.0021 -0.00195,0.0038 -0.00195,0.0059 V 24 C 7.2130775,25.137604 9.0939496,25.999617 11,26 c 1.905301,-9.79e-4 3.78701,-0.862841 4,-2 V 21.238281 H 14.9961 C 14.97331,20.007285 13.054721,18.999782 11.000003,19 Z m 0.0039,1.001953 C 12.522686,20.001953 14,20.559644 14,21.25 14,21.940356 12.522686,22.501953 11.003903,22.501953 9.4851198,22.501953 8,21.940356 8,21.25 c 0,-0.0013 -8.4e-6,-0.0026 0,-0.0039 0.00453,-0.688606 1.4879216,-1.244147 3.003903,-1.244147 z M 11.000003,22 c -0.02084,5.46e-4 -0.04168,0.0012 -0.0625,0.002 h 0.15039 C 11.058613,22.001142 11.029313,22.0005 11.000003,22 Z M 8,22.771484 C 8.6845287,23.216362 9.9104972,23.500116 10.999997,23.5 12.09158,23.500116 13.313244,23.218675 14,22.775391 V 24 c -0.261274,0.581808 -1.689725,1.00172 -2.996097,1.001953 C 9.6982645,25.001298 8.2611271,24.581482 8,24 Z"
       id="path2299"
       inkscape:connector-curvature="0"
       sodipodi:nodetypes="sscccccccscsscscccccccccccc" />
    <path
       style="opacity:1;fill:#ffffff;fill-opacity:1;stroke:none;stroke-width:2;stroke-linecap:round;stroke-linejoin:round;stroke-miterlimit:4;stroke-dasharray:none;stroke-opacity:1"
       d="m 11.003903,20.001953 c -1.5159814,0 -2.999372,0.555541 -3.003903,1.244141 -8.4e-6,0.0013 0,0.0026 0,0.0039 0,0.690356 1.4851198,1.251953 3.003903,1.251953 C 12.522686,22.501947 14,21.94035 14,21.249994 14,20.559644 12.522686,20.001953 11.003903,20.001953 Z M 11.000003,22 c 0.02931,5e-4 0.05861,0.0011 0.08789,0.002 h -0.15039 c 0.02082,-8e-4 0.04166,-0.0014 0.0625,-0.002 z M 8,22.771484 V 24 c 0.2611271,0.581482 1.6982645,1.001298 3.003903,1.001953 C 12.310275,25.00172 13.738726,24.581808 14,24 V 22.775391 C 13.313244,23.218675 12.09158,23.500116 10.999997,23.5 9.910497,23.500116 8.6845287,23.216362 8,22.771484 Z"
       id="path2301"
       inkscape:connector-curvature="0"
       sodipodi:nodetypes="scssssccccccccccc" />
  </g>
  <g
     transform="translate(16)"
     id="g2309">
    <path
       sodipodi:nodetypes="sscccccccscsscscccccccccccc"
       inkscape:connector-curvature="0"
       id="path2305"
       d="m 10.999997,19 c -2.065683,0 -3.9929294,1.006208 -3.9980439,2.246094 -8.5e-6,0.0021 -0.00195,0.0038 -0.00195,0.0059 V 24 C 7.2130775,25.137604 9.0939496,25.999617 11,26 c 1.905301,-9.79e-4 3.78701,-0.862841 4,-2 V 21.238281 H 14.9961 C 14.97331,20.007285 13.054721,18.999782 11.000003,19 Z m 0.0039,1.001953 C 12.522686,20.001953 14,20.559644 14,21.25 14,21.940356 12.522686,22.501953 11.003903,22.501953 9.4851198,22.501953 8,21.940356 8,21.25 c 0,-0.0013 -8.4e-6,-0.0026 0,-0.0039 0.00453,-0.688606 1.4879216,-1.244147 3.003903,-1.244147 z M 11.000003,22 c -0.02084,5.46e-4 -0.04168,0.0012 -0.0625,0.002 h 0.15039 C 11.058613,22.001142 11.029313,22.0005 11.000003,22 Z M 8,22.771484 C 8.6845287,23.216362 9.9104972,23.500116 10.999997,23.5 12.09158,23.500116 13.313244,23.218675 14,22.775391 V 24 c -0.261274,0.581808 -1.689725,1.00172 -2.996097,1.001953 C 9.6982645,25.001298 8.2611271,24.581482 8,24 Z"
       style="opacity:1;fill:#ff9500;fill-opacity:1;stroke:none;stroke-width:3.13115239;stroke-linecap:round;stroke-linejoin:round;stroke-miterlimit:4;stroke-dasharray:none;stroke-opacity:1" />
    <path
       sodipodi:nodetypes="scssssccccccccccc"
       inkscape:connector-curvature="0"
       id="path2307"
       d="m 11.003903,20.001953 c -1.5159814,0 -2.999372,0.555541 -3.003903,1.244141 -8.4e-6,0.0013 0,0.0026 0,0.0039 0,0.690356 1.4851198,1.251953 3.003903,1.251953 C 12.522686,22.501947 14,21.94035 14,21.249994 14,20.559644 12.522686,20.001953 11.003903,20.001953 Z M 11.000003,22 c 0.02931,5e-4 0.05861,0.0011 0.08789,0.002 h -0.15039 c 0.02082,-8e-4 0.04166,-0.0014 0.0625,-0.002 z M 8,22.771484 V 24 c 0.2611271,0.581482 1.6982645,1.001298 3.003903,1.001953 C 12.310275,25.00172 13.738726,24.581808 14,24 V 22.775391 C 13.313244,23.218675 12.09158,23.500116 10.999997,23.5 9.910497,23.500116 8.6845287,23.216362 8,22.771484 Z"
       style="opacity:1;fill:#ffffff;fill-opacity:1;stroke:none;stroke-width:2;stroke-linecap:round;stroke-linejoin:round;stroke-miterlimit:4;stroke-dasharray:none;stroke-opacity:1" />
  </g>
  <g
     transform="translate(9,-2.5)"
     id="g2315">
    <path
       sodipodi:nodetypes="sscccccccscsscscccccccccccc"
       inkscape:connector-curvature="0"
       id="path2311"
       d="m 10.999997,19 c -2.065683,0 -3.9929294,1.006208 -3.9980439,2.246094 -8.5e-6,0.0021 -0.00195,0.0038 -0.00195,0.0059 V 24 C 7.2130775,25.137604 9.0939496,25.999617 11,26 c 1.905301,-9.79e-4 3.78701,-0.862841 4,-2 V 21.238281 H 14.9961 C 14.97331,20.007285 13.054721,18.999782 11.000003,19 Z m 0.0039,1.001953 C 12.522686,20.001953 14,20.559644 14,21.25 14,21.940356 12.522686,22.501953 11.003903,22.501953 9.4851198,22.501953 8,21.940356 8,21.25 c 0,-0.0013 -8.4e-6,-0.0026 0,-0.0039 0.00453,-0.688606 1.4879216,-1.244147 3.003903,-1.244147 z M 11.000003,22 c -0.02084,5.46e-4 -0.04168,0.0012 -0.0625,0.002 h 0.15039 C 11.058613,22.001142 11.029313,22.0005 11.000003,22 Z M 8,22.771484 C 8.6845287,23.216362 9.9104972,23.500116 10.999997,23.5 12.09158,23.500116 13.313244,23.218675 14,22.775391 V 24 c -0.261274,0.581808 -1.689725,1.00172 -2.996097,1.001953 C 9.6982645,25.001298 8.2611271,24.581482 8,24 Z"
       style="opacity:1;fill:#ff9500;fill-opacity:1;stroke:none;stroke-width:3.13115239;stroke-linecap:round;stroke-linejoin:round;stroke-miterlimit:4;stroke-dasharray:none;stroke-opacity:1" />
    <path
       sodipodi:nodetypes="scssssccccccccccc"
       inkscape:connector-curvature="0"
       id="path2313"
       d="m 11.003903,20.001953 c -1.5159814,0 -2.999372,0.555541 -3.003903,1.244141 -8.4e-6,0.0013 0,0.0026 0,0.0039 0,0.690356 1.4851198,1.251953 3.003903,1.251953 C 12.522686,22.501947 14,21.94035 14,21.249994 14,20.559644 12.522686,20.001953 11.003903,20.001953 Z M 11.000003,22 c 0.02931,5e-4 0.05861,0.0011 0.08789,0.002 h -0.15039 c 0.02082,-8e-4 0.04166,-0.0014 0.0625,-0.002 z M 8,22.771484 V 24 c 0.2611271,0.581482 1.6982645,1.001298 3.003903,1.001953 C 12.310275,25.00172 13.738726,24.581808 14,24 V 22.775391 C 13.313244,23.218675 12.09158,23.500116 10.999997,23.5 9.910497,23.500116 8.6845287,23.216362 8,22.771484 Z"
       style="opacity:1;fill:#ffffff;fill-opacity:1;stroke:none;stroke-width:2;stroke-linecap:round;stroke-linejoin:round;stroke-miterlimit:4;stroke-dasharray:none;stroke-opacity:1" />
  </g>
  <g
     id="g2321"
     transform="translate(16,-2.5)">
    <path
       style="opacity:1;fill:#ff9500;fill-opacity:1;stroke:none;stroke-width:3.13115239;stroke-linecap:round;stroke-linejoin:round;stroke-miterlimit:4;stroke-dasharray:none;stroke-opacity:1"
       d="m 10.999997,19 c -2.065683,0 -3.9929294,1.006208 -3.9980439,2.246094 -8.5e-6,0.0021 -0.00195,0.0038 -0.00195,0.0059 V 24 C 7.2130775,25.137604 9.0939496,25.999617 11,26 c 1.905301,-9.79e-4 3.78701,-0.862841 4,-2 V 21.238281 H 14.9961 C 14.97331,20.007285 13.054721,18.999782 11.000003,19 Z m 0.0039,1.001953 C 12.522686,20.001953 14,20.559644 14,21.25 14,21.940356 12.522686,22.501953 11.003903,22.501953 9.4851198,22.501953 8,21.940356 8,21.25 c 0,-0.0013 -8.4e-6,-0.0026 0,-0.0039 0.00453,-0.688606 1.4879216,-1.244147 3.003903,-1.244147 z M 11.000003,22 c -0.02084,5.46e-4 -0.04168,0.0012 -0.0625,0.002 h 0.15039 C 11.058613,22.001142 11.029313,22.0005 11.000003,22 Z M 8,22.771484 C 8.6845287,23.216362 9.9104972,23.500116 10.999997,23.5 12.09158,23.500116 13.313244,23.218675 14,22.775391 V 24 c -0.261274,0.581808 -1.689725,1.00172 -2.996097,1.001953 C 9.6982645,25.001298 8.2611271,24.581482 8,24 Z"
       id="path2317"
       inkscape:connector-curvature="0"
       sodipodi:nodetypes="sscccccccscsscscccccccccccc" />
    <path
       style="opacity:1;fill:#ffffff;fill-opacity:1;stroke:none;stroke-width:2;stroke-linecap:round;stroke-linejoin:round;stroke-miterlimit:4;stroke-dasharray:none;stroke-opacity:1"
       d="m 11.003903,20.001953 c -1.5159814,0 -2.999372,0.555541 -3.003903,1.244141 -8.4e-6,0.0013 0,0.0026 0,0.0039 0,0.690356 1.4851198,1.251953 3.003903,1.251953 C 12.522686,22.501947 14,21.94035 14,21.249994 14,20.559644 12.522686,20.001953 11.003903,20.001953 Z M 11.000003,22 c 0.02931,5e-4 0.05861,0.0011 0.08789,0.002 h -0.15039 c 0.02082,-8e-4 0.04166,-0.0014 0.0625,-0.002 z M 8,22.771484 V 24 c 0.2611271,0.581482 1.6982645,1.001298 3.003903,1.001953 C 12.310275,25.00172 13.738726,24.581808 14,24 V 22.775391 C 13.313244,23.218675 12.09158,23.500116 10.999997,23.5 9.910497,23.500116 8.6845287,23.216362 8,22.771484 Z"
       id="path2319"
       inkscape:connector-curvature="0"
       sodipodi:nodetypes="scssssccccccccccc" />
  </g>
  <g
     transform="translate(16,-5)"
     id="g2327">
    <path
       sodipodi:nodetypes="sscccccccscsscscccccccccccc"
       inkscape:connector-curvature="0"
       id="path2323"
       d="m 10.999997,19 c -2.065683,0 -3.9929294,1.006208 -3.9980439,2.246094 -8.5e-6,0.0021 -0.00195,0.0038 -0.00195,0.0059 V 24 C 7.2130775,25.137604 9.0939496,25.999617 11,26 c 1.905301,-9.79e-4 3.78701,-0.862841 4,-2 V 21.238281 H 14.9961 C 14.97331,20.007285 13.054721,18.999782 11.000003,19 Z m 0.0039,1.001953 C 12.522686,20.001953 14,20.559644 14,21.25 14,21.940356 12.522686,22.501953 11.003903,22.501953 9.4851198,22.501953 8,21.940356 8,21.25 c 0,-0.0013 -8.4e-6,-0.0026 0,-0.0039 0.00453,-0.688606 1.4879216,-1.244147 3.003903,-1.244147 z M 11.000003,22 c -0.02084,5.46e-4 -0.04168,0.0012 -0.0625,0.002 h 0.15039 C 11.058613,22.001142 11.029313,22.0005 11.000003,22 Z M 8,22.771484 C 8.6845287,23.216362 9.9104972,23.500116 10.999997,23.5 12.09158,23.500116 13.313244,23.218675 14,22.775391 V 24 c -0.261274,0.581808 -1.689725,1.00172 -2.996097,1.001953 C 9.6982645,25.001298 8.2611271,24.581482 8,24 Z"
       style="opacity:1;fill:#ff9500;fill-opacity:1;stroke:none;stroke-width:3.13115239;stroke-linecap:round;stroke-linejoin:round;stroke-miterlimit:4;stroke-dasharray:none;stroke-opacity:1" />
    <path
       sodipodi:nodetypes="scssssccccccccccc"
       inkscape:connector-curvature="0"
       id="path2325"
       d="m 11.003903,20.001953 c -1.5159814,0 -2.999372,0.555541 -3.003903,1.244141 -8.4e-6,0.0013 0,0.0026 0,0.0039 0,0.690356 1.4851198,1.251953 3.003903,1.251953 C 12.522686,22.501947 14,21.94035 14,21.249994 14,20.559644 12.522686,20.001953 11.003903,20.001953 Z M 11.000003,22 c 0.02931,5e-4 0.05861,0.0011 0.08789,0.002 h -0.15039 c 0.02082,-8e-4 0.04166,-0.0014 0.0625,-0.002 z M 8,22.771484 V 24 c 0.2611271,0.581482 1.6982645,1.001298 3.003903,1.001953 C 12.310275,25.00172 13.738726,24.581808 14,24 V 22.775391 C 13.313244,23.218675 12.09158,23.500116 10.999997,23.5 9.910497,23.500116 8.6845287,23.216362 8,22.771484 Z"
       style="opacity:1;fill:#ffffff;fill-opacity:1;stroke:none;stroke-width:2;stroke-linecap:round;stroke-linejoin:round;stroke-miterlimit:4;stroke-dasharray:none;stroke-opacity:1" />
  </g>
</svg>
