<svg viewBox="0 0 32 32" xmlns="http://www.w3.org/2000/svg" xmlns:xlink="http://www.w3.org/1999/xlink"><linearGradient id="a" gradientUnits="userSpaceOnUse" x1="11" x2="11" y1="11" y2="2"><stop offset="0" stop-color="#0040dd"/><stop offset="1" stop-color="#0a84ff"/></linearGradient><linearGradient id="b" gradientTransform="translate(-31.24444 -10.571812)" gradientUnits="userSpaceOnUse" x1="-14.118644" x2="-14.118644" y1="29.61017" y2="11.61017"><stop offset="0" stop-color="#2a9240"/><stop offset="1" stop-color="#32d74b"/></linearGradient><linearGradient id="c" gradientUnits="userSpaceOnUse" x1="17.912489" x2="17.351206" xlink:href="#b" y1="23.285395" y2="10.415366"/><linearGradient id="d" gradientUnits="userSpaceOnUse" x1="17.912489" x2="17.477264" xlink:href="#b" y1="23.285395" y2="9.031728"/><path d="m3 11h7v17h-7z" fill="#fff"/><path d="m3 4h24v6h-24z" fill="#fff"/><path d="m2 11v17c0 .554.446 1 1 1h8v-1-5-1-5 1-7h-1v7h-7v-7zm1 6h7v5h-7zm0 6h7v5h-7z" fill="#98989d"/><path d="m3 3c-.554 0-1 .446-1 1v7h1 7 1 17v-7c0-.554-.446-1-1-1zm0 1h7v6h-7zm8 0h8v6h-8zm9 0h7v6h-7z" fill="url(#a)"/><g fill="none" stroke-linecap="round" stroke-width="1.857358"><g stroke="url(#d)" transform="matrix(1.0808435 0 0 1.0727684 5.109812 5.311048)"><path d="m22.103281 14.624734v-4.6608387" stroke-linecap="square"/><path d="m17.477265 14.624734h4.626016" stroke-linecap="square"/><path d="m22.103281 14.624734c-3.298903-5.1712264-8.367676-4.7679319-10.177236 0" stroke-linecap="round"/></g><g stroke="url(#c)" transform="matrix(-1.0808435 0 0 -1.0727684 41.890188 40.702225)"><path d="m22.103281 14.624734v-4.6608387" stroke-linecap="square"/><path d="m17.477265 14.624734h4.626016" stroke-linecap="square"/><path d="m22.103281 14.624734c-3.298903-5.1712264-8.367676-4.7679319-10.177236 0" stroke-linecap="round"/></g></g></svg>