<?xml version="1.0" encoding="UTF-8" standalone="no"?>
<svg
   xmlns:dc="http://purl.org/dc/elements/1.1/"
   xmlns:cc="http://creativecommons.org/ns#"
   xmlns:rdf="http://www.w3.org/1999/02/22-rdf-syntax-ns#"
   xmlns:svg="http://www.w3.org/2000/svg"
   xmlns="http://www.w3.org/2000/svg"
   xmlns:sodipodi="http://sodipodi.sourceforge.net/DTD/sodipodi-0.dtd"
   xmlns:inkscape="http://www.inkscape.org/namespaces/inkscape"
   viewBox="0 0 32 32"
   version="1.1"
   id="svg8"
   sodipodi:docname="datafilterautofilter.svg"
   inkscape:version="0.92.3 (unknown)"
   width="32"
   height="32">
  <metadata
     id="metadata14">
    <rdf:RDF>
      <cc:Work
         rdf:about="">
        <dc:format>image/svg+xml</dc:format>
        <dc:type
           rdf:resource="http://purl.org/dc/dcmitype/StillImage" />
        <dc:title></dc:title>
      </cc:Work>
    </rdf:RDF>
  </metadata>
  <defs
     id="defs12" />
  <sodipodi:namedview
     pagecolor="#ffffff"
     bordercolor="#666666"
     borderopacity="1"
     objecttolerance="10"
     gridtolerance="10"
     guidetolerance="10"
     inkscape:pageopacity="0"
     inkscape:pageshadow="2"
     inkscape:window-width="1366"
     inkscape:window-height="699"
     id="namedview10"
     showgrid="true"
     inkscape:zoom="9.8333334"
     inkscape:cx="-3.5876966"
     inkscape:cy="8.3990797"
     inkscape:window-x="0"
     inkscape:window-y="0"
     inkscape:window-maximized="1"
     inkscape:current-layer="svg8">
    <inkscape:grid
       type="xygrid"
       id="grid834"
       spacingx="0.5"
       spacingy="0.5"
       empspacing="2" />
  </sodipodi:namedview>
  <g
     style="fill-rule:evenodd"
     id="g8">
    <path
       style="fill:#848489;fill-opacity:1"
       inkscape:connector-curvature="0"
       d="M 6.707031,5.5 4.5,6 v 1.5 l 8,10.5 v 6.5 L 17.386719,27.990234 19.382812,24 H 18 c -0.890637,-3.5e-4 -1.336587,-1.077036 -0.707031,-1.707031 L 19.5,20.085938 V 18 l 8,-10.5 V 6 L 25.707031,5.5 Z"
       id="path2-3"
       sodipodi:nodetypes="ccccccccccccccc" />
    <path
       style="fill:#ff9500;fill-opacity:1"
       inkscape:connector-curvature="0"
       d="m 24,17 h 7 l -5,5 h 3 l -12,9 4,-8 h -3 z"
       id="path4-6" />
    <path
       style="fill:#69696e;fill-opacity:1"
       inkscape:connector-curvature="0"
       d="M 6.707031,5 C 6.5744315,5.0000255 6.4472713,5.052716 6.3535154,5.1464844 l -2.207031,0.5 C 4.0527163,5.7402403 4.0000255,5.8674005 4,6 V 7.5 C 3.999859,7.6092992 4.035533,7.7156344 4.1015625,7.8027344 L 12,18.167969 V 24.5 c 1.16e-4,0.161184 0.07792,0.312429 0.208984,0.40625 l 4.951172,3.537109 0.453125,-0.904297 L 13,24.242188 V 18 c 1.41e-4,-0.109299 -0.03553,-0.215634 -0.101562,-0.302734 L 5,7.3320312 v -1.125 L 6.9140622,6 H 25.5 L 27,6.2070312 v 1.125 L 19.101562,17.697266 C 19.035533,17.784366 18.999859,17.890701 19,18 v 2.585938 l 1,-1 V 18.167969 L 27.898438,7.8027344 C 27.964468,7.7156343 28.000141,7.6092991 28,7.5 V 6 C 27.999975,5.8674006 27.94728,5.7402403 27.853516,5.6464844 l -1.792969,-0.5 C 25.966791,5.0527162 25.839631,5.0000254 25.707031,5 Z"
       id="path6-7"
       sodipodi:nodetypes="cccccccccccccccccccccccccccccccc" />
  </g>
  <ellipse
     style="opacity:1;fill:#cdcdd0;fill-opacity:1;stroke:#69696e;stroke-width:1.00230575;stroke-linecap:round;stroke-linejoin:round;stroke-miterlimit:4;stroke-dasharray:none;stroke-opacity:1"
     id="path832"
     cy="5.8150325"
     cx="16"
     ry="2.3150325"
     rx="11.5" />
</svg>
