<svg viewBox="0 0 32 32" xmlns="http://www.w3.org/2000/svg" xmlns:xlink="http://www.w3.org/1999/xlink"><linearGradient id="a" gradientUnits="userSpaceOnUse" x1="15" x2="15" y1="20" y2="17"><stop offset="0" stop-color="#0040dd"/><stop offset="1" stop-color="#0a84ff"/></linearGradient><radialGradient id="b" cx="22" cy="9.076923" gradientTransform="matrix(1.3 .00000001 -.00000002 1.5 -6.6 -6.615385)" gradientUnits="userSpaceOnUse" r="10"><stop offset="0" stop-color="#d7d7d7"/><stop offset=".29999998" stop-color="#f7f7f7"/><stop offset="1" stop-color="#fff"/></radialGradient><linearGradient id="c" gradientUnits="userSpaceOnUse" x1="20" x2="23" y1="9" y2="6"><stop offset="0" stop-color="#fff"/><stop offset=".77967989" stop-color="#f1f1f1"/><stop offset="1" stop-color="#d5d5d5"/></linearGradient><linearGradient id="d" gradientUnits="userSpaceOnUse" x1="17.028484" x2="17.028484" xlink:href="#e" y1="16.014242" y2="10.014242"/><linearGradient id="e" gradientTransform="translate(-31.24444 -10.571812)" gradientUnits="userSpaceOnUse" x1="-14.118644" x2="-14.118644" y1="29.61017" y2="11.61017"><stop offset="0" stop-color="#2a9240"/><stop offset="1" stop-color="#32d74b"/></linearGradient><linearGradient id="f" gradientUnits="userSpaceOnUse" x1="17.028484" x2="17.028484" xlink:href="#e" y1="23.014242" y2="17.014242"/><path d="m6 3v26h19.99762l.0024-19-7-7z" fill="url(#b)"/><path d="m5.9976202 2c-.554 0-1 .446-1 1v26c0 .554.446 1 1 1h19.9999998c.554 0 .892483-.456533 1-1v-10.109375-10.5052752l-6.508082-6.3853498zm0 1h12.9999998v6c0 .6726441.491378 1 1 1h6v19h-19.9999998z" fill="#98989d"/><path d="m20 9h6l-6-6z" fill="url(#c)" fill-rule="evenodd"/><path d="m18.998047 15v15h-12.998047c-.554 0-.892483-.456533-1-1v-10.109375-3.890625z" fill="#fff" fill-opacity=".784314"/><g transform="translate(-13)"><path d="m15 17h15v13h-15z" fill="#98989d"/><g fill="#fff"><path d="m16 20h6v4h-6z"/><path d="m23 20h6v4h-6z"/><path d="m16 25h6v4h-6z"/><path d="m23 25h6v4h-6z"/></g><path d="m15 17h15v3h-15z" fill="url(#a)"/></g><path d="m23.835938 16.019531c-2.887057-.127484-5.627463 1.885721-6.763672 5.324219v.002c-.182817.554146-.117814 1.169215.146484 1.625.143075.246735.396879.332977.609375.488281-.620977.473108-.996153 1.220002-.806641 2l-.02734-.236328v2.777297.972656c-.00013.0092.002.01812.002.02734h10.003856c.554 0 1-.446 1-1v-11.70898c-.317679.236234-.56689.570771-.732422.955078-.087778-.055277-.178826-.101495-.267578-.154297-.990188-.589104-2.038777-1.022576-3.164062-1.072266zm-5.732422 7.16211c-.0044.0021-.0054.0076-.0098.0098-.0067.0034-.01482.0024-.02148.0059z" fill="#fff" fill-opacity=".784314"/><g fill="none" stroke="#0040dd" stroke-linecap="round" stroke-width="2" transform="translate(6.971516 6.985758)"><g stroke="url(#d)"><path d="m22 14.985758v-4" stroke-linecap="square"/><path d="m18.014242 14.985658h4" stroke-linecap="square"/><path d="m22 14.985758c-2.453409-4.923729-8.144068-5.6165863-10 0"/></g><g stroke="url(#f)"><path d="m12.021791 18v4" stroke-linecap="square"/><path d="m16.007549 18.0001h-4" stroke-linecap="square"/><path d="m12.021791 18c3.139849 4.949153 8.016949 5.413196 10 0"/></g></g></svg>