<svg viewBox="0 0 32 32" xmlns="http://www.w3.org/2000/svg"><g fill="#69696e"><path d="m3 7v1 3.736328.263672a13 4 0 0 0 13 4 13 4 0 0 0 13-4v-.263672-.736328-3-.5-.5a13 4 0 0 1 -.226562.7265625l-.773438.7734375v.037109a13 4 0 0 1 -12 2.462891 13 4 0 0 1 -12-2.4707031v-.0292969l-.7832031-.7832031a13 4 0 0 1 -.2167969-.7167969zm25 2.5292969v3.0078121a13 4 0 0 1 -12 2.462891 13 4 0 0 1 -12-2.470703v-2.9921876a13 4 0 0 0 12 2.4628906 13 4 0 0 0 12-2.4707031z"/><ellipse cx="16" cy="7" rx="13" ry="4"/><path d="m3 14v1 3.736328.263672a13 4 0 0 0 13 4 13 4 0 0 0 13-4v-.263672-.736328-3-.5-.5a13 4 0 0 1 -.226562.726563l-.773438.773437v.03711a13 4 0 0 1 -12 2.46289 13 4 0 0 1 -12-2.470703v-.029297l-.7832031-.783203a13 4 0 0 1 -.2167969-.716797zm25 2.529297v3.007812a13 4 0 0 1 -12 2.462891 13 4 0 0 1 -12-2.470703v-2.992188a13 4 0 0 0 12 2.462891 13 4 0 0 0 12-2.470703z"/><path d="m3 21v1 3.736328.263672a13 4 0 0 0 13 4 13 4 0 0 0 13-4v-.263672-.736328-3-.5-.5a13 4 0 0 1 -.226562.726563l-.773438.773437v.03711a13 4 0 0 1 -12 2.46289 13 4 0 0 1 -12-2.470703v-.029297l-.7832031-.783203a13 4 0 0 1 -.2167969-.716797zm25 2.529297v3.007812a13 4 0 0 1 -12 2.462891 13 4 0 0 1 -12-2.470703v-2.992188a13 4 0 0 0 12 2.462891 13 4 0 0 0 12-2.470703z"/></g><path d="m16 4c6.627417 0 12 1.3431458 12 3s-5.372583 3-12 3-12-1.3431458-12-3 5.372583-3 12-3z" fill="#fff"/><g fill="#848489"><path d="m28 23.529297v3.007812c-2.01714 1.491118-6.750822 2.462664-12 2.462891-5.255346-.001539-9.9907552-.976521-12-2.470703v-2.992188c2.0171395 1.491118 6.750822 2.462664 12 2.462891 5.255346-.0015 9.990755-.976521 12-2.470703z"/><path d="m28 16.529297v3.007812c-2.01714 1.491118-6.750822 2.462664-12 2.462891-5.255346-.001539-9.9907552-.976521-12-2.470703v-2.992188c2.0171395 1.491118 6.750822 2.462664 12 2.462891 5.255346-.0015 9.990755-.976521 12-2.470703z"/><path d="m28 9.529297v3.007812c-2.01714 1.491118-6.750822 2.462664-12 2.462891-5.255346-.001539-9.9907552-.976521-12-2.470703v-2.992188c2.0171395 1.491118 6.750822 2.462664 12 2.462891 5.255346-.0015 9.990755-.976521 12-2.470703z"/></g><g fill-rule="evenodd"><path d="m3.0429688 7.3085938a13 4 0 0 0 .0332031.0859374 13 4 0 0 1 -.0332031-.0859374zm23.4121092 2.0605468a13 4 0 0 1 -.501953.203125 13 4 0 0 0 .501953-.203125zm.78711.6230469a13 4 0 0 1 -.199219.1074215c.070241-.035031.132305-.071614.199219-.1074215zm-22.4570318.0214845c.0716909.037811.1452915.074395.2207032.111328a13 4 0 0 1 -.2207032-.111328zm21.2773438.511719a13 4 0 0 1 -.189453.066406c.062191-.022451.128807-.043503.189453-.066406zm-1.177734.382812a13 4 0 0 1 -.310547.089844c.106538-.028871.207028-.059883.310547-.089844zm-17.7148441.021485c.1012403.028874.2045235.056143.3085937.083984a13 4 0 0 1 -.3085937-.083984zm1.4121093.349609c.0950291.020358.1844943.04293.28125.0625a13 4 0 0 1 -.28125-.0625zm13.2050778.294922a13 4 0 0 1 -.384765.058593c.130166-.018381.256775-.038919.384765-.058593zm-11.488281.015625c.111503.016773.224767.033029.337891.048828a13 4 0 0 1 -.337891-.048828zm1.675781.208984c.109293.010977.215774.023107.326172.033203a13 4 0 0 1 -.326172-.033203zm6.183594.140625a13 4 0 0 1 -.423828.019531c.142332-.005938.282732-.012172.423828-.019531zm-4.234375.005859c.130685.006513.262807.01033.394531.015626a13 4 0 0 1 -.394531-.015626zm15.076172 4.140626a1.50015 1.50015 0 0 0 -.560547.353515l-4.783203 4.783203c.295196-.066696.588884-.135054.865234-.208984a13 4 0 0 1 -.867187.210937l-1.253906 1.253907a13 4 0 0 0 6.599609-3.478516v-.263672-.736328zm-1.757812.90625a13 4 0 0 1 -.199219.107421c.070241-.035031.132305-.071614.199219-.107421zm-22.4570318.021484c.0716909.037811.1452915.074395.2207032.111328a13 4 0 0 1 -.2207032-.111328zm21.2773438.511719a13 4 0 0 1 -.189453.066406c.062191-.022451.128807-.043503.189453-.066406zm-1.177734.382812a13 4 0 0 1 -.310547.089844c.106538-.028871.207028-.059883.310547-.089844zm-17.7148441.021485c.1012403.028874.2045235.056143.3085937.083984a13 4 0 0 1 -.3085937-.083984zm1.4121093.349609c.0950291.020358.1844943.04293.28125.0625a13 4 0 0 1 -.28125-.0625zm13.2050778.294922a13 4 0 0 1 -.384765.058593c.130166-.018382.256775-.038919.384765-.058593zm-11.488281.015625c.111503.016773.224767.033029.337891.048828a13 4 0 0 1 -.337891-.048828zm1.675781.208984c.109293.010977.215774.023107.326172.033203a13 4 0 0 1 -.326172-.033203zm6.183594.140625a13 4 0 0 1 -.423828.019531c.142332-.005938.282732-.012172.423828-.019531zm-4.234375.005859c.130685.006513.262807.01033.394531.015626a13 4 0 0 1 -.394531-.015626zm14.076172.591797a13 4 0 0 1 -.785156.476563c.289976-.15294.559879-.310032.785156-.476563zm-1.005859.587891a13 4 0 0 1 -.982422.425781 13 4 0 0 1 -1.181641.378907c.416837-.118887.816694-.243302 1.181641-.378907.358454-.133192.680055-.277698.982422-.425781zm2.005859.875a13 4 0 0 1 -.226562.726562l-.773438.773438v.037109a13 4 0 0 1 -7.912109 2.253907l-3.648438 3.648437a1.50015 1.50015 0 0 0 -.351562.558594c.538193-.001653 1.068691-.016004 1.59375-.037109a13 4 0 0 1 -1.59375.039062 1.50015 1.50015 0 0 0 -.001953.998047 13 4 0 0 0 12.914062-3.998047v-.263672-.736328-3-.5zm-24.2148438 3.013672c.0716909.037811.1452915.074395.2207032.111328a13 4 0 0 1 -.2207032-.111328zm2.3847657.916016c.1012403.028873.2045235.056143.3085937.083984a13 4 0 0 1 -.3085937-.083984zm1.4121093.349609c.0950291.020358.1844943.04293.28125.0625a13 4 0 0 1 -.28125-.0625zm1.7167968.310547c.111503.016773.224767.033029.337891.048828a13 4 0 0 1 -.337891-.048828zm1.675781.208984c.109293.010977.215774.023107.326172.033203a13 4 0 0 1 -.326172-.033203zm6.183594.140625a13 4 0 0 1 -.423828.019531c.142332-.005938.282732-.012172.423828-.019531zm-4.234375.005859c.130685.006513.262807.01033.394531.015626a13 4 0 0 1 -.394531-.015626zm14.076172.591797a13 4 0 0 1 -.785156.476563c.289976-.15294.559879-.310032.785156-.476563zm-1.005859.587891a13 4 0 0 1 -.982422.425781 13 4 0 0 1 -1.181641.378907c.416837-.118887.816694-.243302 1.181641-.378907.358454-.133192.680055-.277698.982422-.425781zm-2.472657.888672a13 4 0 0 1 -1.103515.265625c.382565-.081956.751126-.171352 1.103515-.265625zm-1.384765.328125a13 4 0 0 1 -1.435547.248047c.494995-.074463.976019-.155102 1.435547-.248047zm-1.773438.296875a13 4 0 0 1 -1.33789.160156c.456585-.045856.902911-.099407 1.33789-.160156zm-1.664062.193359a13 4 0 0 1 -1.623047.113281c.55101-.027457 1.094003-.064899 1.623047-.113281z" fill="#fff" fill-opacity=".784314"/><path d="m29.5 17.5-12 12h12zm-2 5v1.476392 3.523608h-4.5-.5z" fill="#fc0" stroke="#c89e00" stroke-linecap="round" stroke-linejoin="round"/></g></svg>