<?xml version="1.0" encoding="UTF-8" standalone="no"?>
<svg
   xmlns:dc="http://purl.org/dc/elements/1.1/"
   xmlns:cc="http://creativecommons.org/ns#"
   xmlns:rdf="http://www.w3.org/1999/02/22-rdf-syntax-ns#"
   xmlns:svg="http://www.w3.org/2000/svg"
   xmlns="http://www.w3.org/2000/svg"
   xmlns:sodipodi="http://sodipodi.sourceforge.net/DTD/sodipodi-0.dtd"
   xmlns:inkscape="http://www.inkscape.org/namespaces/inkscape"
   viewBox="0 0 32 32"
   version="1.1"
   id="svg37"
   sodipodi:docname="dbformedit.svg"
   inkscape:version="0.92.4 (unknown)">
  <metadata
     id="metadata43">
    <rdf:RDF>
      <cc:Work
         rdf:about="">
        <dc:format>image/svg+xml</dc:format>
        <dc:type
           rdf:resource="http://purl.org/dc/dcmitype/StillImage" />
        <dc:title></dc:title>
      </cc:Work>
    </rdf:RDF>
  </metadata>
  <defs
     id="defs41" />
  <sodipodi:namedview
     pagecolor="#ffffff"
     bordercolor="#666666"
     borderopacity="1"
     objecttolerance="10"
     gridtolerance="10"
     guidetolerance="10"
     inkscape:pageopacity="0"
     inkscape:pageshadow="2"
     inkscape:window-width="1360"
     inkscape:window-height="714"
     id="namedview39"
     showgrid="true"
     inkscape:zoom="5.2149125"
     inkscape:cx="-7.1526347"
     inkscape:cy="1.6974297"
     inkscape:window-x="0"
     inkscape:window-y="28"
     inkscape:window-maximized="1"
     inkscape:current-layer="svg37">
    <inkscape:grid
       type="xygrid"
       id="grid850" />
  </sodipodi:namedview>
  <linearGradient
     id="a"
     gradientUnits="userSpaceOnUse"
     x1="70"
     x2="70"
     y1="42"
     y2="24">
    <stop
       offset="0"
       stop-color="#e9e9e9"
       id="stop2" />
    <stop
       offset=".2857143"
       stop-color="#f2f2f2"
       id="stop4" />
    <stop
       offset="1"
       stop-color="#fbfbfb"
       id="stop6" />
  </linearGradient>
  <linearGradient
     id="b"
     gradientUnits="userSpaceOnUse"
     x1="16"
     x2="16"
     y1="3"
     y2="29">
    <stop
       offset="0"
       stop-color="#848489"
       id="stop9" />
    <stop
       offset="1"
       stop-color="#616165"
       id="stop11" />
  </linearGradient>
  <linearGradient
     id="c"
     gradientUnits="userSpaceOnUse"
     x1="11"
     x2="11"
     y1="9"
     y2="27">
    <stop
       offset="0"
       stop-color="#fff"
       id="stop14" />
    <stop
       offset="1"
       stop-color="#fff"
       stop-opacity="0"
       id="stop16" />
  </linearGradient>
  <path
     d="m4 9h24v19h-24z"
     fill="url(#a)"
     id="path19" />
  <path
     d="m4 3c-.554 0-1 .446-1 1v24c0 .554.446 1 1 1h24c.554 0 1-.446 1-1v-24c0-.554-.446-1-1-1zm0 6h24v19h-24z"
     fill="url(#b)"
     id="path21" />
  <g
     fill="#616165"
     id="g31">
    <path
       d="m15 14c-.554 0-1 .446-1 1v2c0 .554.446 1 1 1h8c.554 0 1-.446 1-1v-2c0-.554-.446-1-1-1zm0 1h8v2h-8z"
       id="path23" />
    <path
       d="m9 14c-.554 0-1 .446-1 1v2c0 .554.446 1 1 1h2c.554 0 1-.446 1-1v-2c0-.554-.446-1-1-1zm0 1h2v2h-2z"
       id="path25" />
    <path
       d="m15 21c-.554 0-1 .446-1 1v2c0 .554.446 1 1 1h8c.554 0 1-.446 1-1v-2c0-.554-.446-1-1-1zm0 1h8v2h-8z"
       id="path27" />
    <path
       d="m9 21c-.554 0-1 .446-1 1v2c0 .554.446 1 1 1h2c.554 0 1-.446 1-1v-2c0-.554-.446-1-1-1zm0 1h2v2h-2z"
       id="path29" />
  </g>
  <rect
     fill="none"
     height="18"
     rx="1.5"
     ry="1.414397"
     stroke="url(#c)"
     width="23"
     x="4.5"
     y="9.5"
     id="rect33" />
  <g
     style="fill:#eac282;stroke-width:0.85711199"
     transform="matrix(1.1667513,0,0,1.1666667,2.6640989,2.6706513)"
     id="g977">
    <path
       style="fill:#a2a2a7;stroke:#848489"
       inkscape:connector-curvature="0"
       d="m 11.437572,19.627857 -1.09644,4.02504 3.951909,-1.171525 c 1.653046,-0.339535 -2.065034,-3.99245 -2.855469,-2.853515 z"
       id="path967" />
    <path
       style="fill:#e68497;stroke:#b6496c"
       inkscape:connector-curvature="0"
       d="m 20.419922,11 c -0.189562,0 -0.378184,0.07172 -0.523438,0.216797 l -1.673828,1.669922 2.847656,2.849609 1.710938,-1.638672 c 0.290506,-0.290127 0.290506,-0.756747 0,-1.046875 L 20.945312,11.216797 C 20.800058,11.071733 20.609484,11 20.419922,11 Z"
       id="path969" />
    <path
       style="fill:none;stroke:#f398b3"
       inkscape:connector-curvature="0"
       d="m 19.288937,13.155429 1.143664,-1.12071 1.850278,1.787531"
       id="path971" />
    <path
       style="fill:#ffcc00;stroke:#c89e00"
       inkscape:connector-curvature="0"
       d="m 17.603733,13.488055 -5.652561,5.646711 2.855469,2.853515 5.633029,-5.668195 z"
       id="path973" />
    <path
       style="fill:#ffe014"
       inkscape:connector-curvature="0"
       d="m 19.761836,15.247137 -1.100691,-1.177408 -6.1837,6.223955 1.082595,1.146887 z"
       id="path975" />
  </g>
</svg>
