<svg viewBox="0 0 32 32" xmlns="http://www.w3.org/2000/svg" xmlns:xlink="http://www.w3.org/1999/xlink"><linearGradient id="a" gradientTransform="matrix(.79951909 0 0 .79951909 -1.770074 14.398087)" gradientUnits="userSpaceOnUse" x1="7" x2="7" xlink:href="#b" y1="22" y2="2"/><linearGradient id="b" gradientTransform="translate(-11 -1)" gradientUnits="userSpaceOnUse" x1="14" x2="13.79661" y1="22" y2="2.135593"><stop offset="0" stop-color="#0040dd"/><stop offset="1" stop-color="#0a84ff"/></linearGradient><linearGradient id="c" gradientTransform="matrix(.79951909 0 0 .79951909 -2.770074 14.398087)" gradientUnits="userSpaceOnUse" x1="18" x2="18" xlink:href="#b" y1="22" y2="12"/><path d="m1.0307693 31.987778 1.6820622-9.630832h-1.71283159l.25641189-1.466676h1.7025752l.1846165-1.312829q.2666684-1.671806 1.2923161-2.615402 1.0769301-.984621 2.7487358-.964108.5230803 0 1.3230855.17436l-.2256425 1.548728q-.4923109-.102565-.9948783-.123078-.9641088 0-1.5692409.605132-.5948757.594876-.7384663 1.589754l-.1641037 1.097443h2.2974508l-.2564119 1.466676h-2.2974508l-1.6718057 9.630832z" fill="url(#a)" transform="matrix(1.625774 0 0 1.625774 3.005842 -23.016554)"/><path d="m11.048956 26.613566 1.886732-2.619228h2.049508l-3.063164 4.025028 1.783146 3.980634h-1.834939l-1.117241-2.730212-1.9681201 2.730212h-2.0421096l3.1593508-4.143411-1.7239549-3.862251h1.8349388z" fill="url(#c)" transform="matrix(1.625774 0 0 1.625774 3.005842 -23.016554)"/></svg>