<?xml version="1.0" encoding="UTF-8" standalone="no"?>
<svg
   xmlns:dc="http://purl.org/dc/elements/1.1/"
   xmlns:cc="http://creativecommons.org/ns#"
   xmlns:rdf="http://www.w3.org/1999/02/22-rdf-syntax-ns#"
   xmlns:svg="http://www.w3.org/2000/svg"
   xmlns="http://www.w3.org/2000/svg"
   xmlns:sodipodi="http://sodipodi.sourceforge.net/DTD/sodipodi-0.dtd"
   xmlns:inkscape="http://www.inkscape.org/namespaces/inkscape"
   viewBox="0 0 32 32"
   version="1.1"
   id="svg34"
   sodipodi:docname="defaultnumbering.svg"
   inkscape:version="0.92.3 (2405546, 2018-03-11)">
  <metadata
     id="metadata40">
    <rdf:RDF>
      <cc:Work
         rdf:about="">
        <dc:format>image/svg+xml</dc:format>
        <dc:type
           rdf:resource="http://purl.org/dc/dcmitype/StillImage" />
        <dc:title></dc:title>
      </cc:Work>
    </rdf:RDF>
  </metadata>
  <defs
     id="defs38" />
  <sodipodi:namedview
     pagecolor="#ffffff"
     bordercolor="#666666"
     borderopacity="1"
     objecttolerance="10"
     gridtolerance="10"
     guidetolerance="10"
     inkscape:pageopacity="0"
     inkscape:pageshadow="2"
     inkscape:window-width="1366"
     inkscape:window-height="692"
     id="namedview36"
     showgrid="false"
     inkscape:zoom="7.375"
     inkscape:cx="-4.2033898"
     inkscape:cy="14.915254"
     inkscape:window-x="0"
     inkscape:window-y="0"
     inkscape:window-maximized="1"
     inkscape:current-layer="svg34" />
  <path
     d="m6.13363 13.000006c.4098 0 .781737.0556 1.115812.16679.338531.107223.625836.260115.861917.458675.240534.19856.425389.438818.554566.720774.133629.277985.200444.585753.200444.923306 0 .289898-.04677.55994-.140311.810126-.09354.246215-.218263.482502-.374164.708861-.155902.222387-.33853.440804-.547885.655249-.209354.210474-.429844.422934-.661471.63738l-2.142538 1.918833 3.432071-.0038c.169265 0 .305122.04368.407573.13105.106904.08735.160356.202514.160356.345478v.527272h-6v-.482501c0-.09134.02005-.188633.06014-.291885.04455-.107222.120271-.206502.227172-.29784l2.579068-2.364854c.218263-.202532.4098-.395135.57461-.57781.169266-.182677.309578-.363367.420936-.542071.115813-.182675.202673-.365351.260579-.548027.05791-.186647.08686-.381236.08686-.583767 0-.365351-.10245-.64135-.30735-.827997s-.494432-.27997-.868597-.27997c-.160356 0-.307349.02184-.44098.06553-.13363.04368-.253897.103253-.360802.178704-.106903.07545-.198217.164805-.273942.268057-.07572.103251-.133626.214445-.173718.333581-.07127.182676-.169268.301812-.293988.357409-.120267.05559-.287305.06751-.501112.03574l-.855236-.13105c.06681-.38521.187079-.720779.360798-1.006706.173719-.289898.389755-.530156.648107-.720774.262807-.194589.563475-.339538.902005-.434846.33853-.09928.701559-.148921 1.08908-.148916z"
     fill="#4d82b8"
     id="path2"
     style="fill:#0a84ff;fill-opacity:1" />
  <path
     d="m6.90625 3-2.90625 2.341797.552734.703125c.02913.03609.0716.07329.125.109375.05825.03158.122493.05288.195313.06641s.151845.01353.234375 0c .08252-.01354.163574-.05208.246094-.115234l1.259765-1.007813c-.01455.225564-.02148.442872-.02148.650391l-.000004 5.251949h1.408203v-8z"
     fill="#4d82b8"
     id="path4"
     style="fill:#0a84ff;fill-opacity:1" />
  <g
     fill="#808080"
     transform="scale(-1 1)"
     id="g18"
     style="fill:#69696e;fill-opacity:1">
    <rect
       height="1"
       ry=".5"
       width="14.999998"
       x="-28"
       y="4"
       id="rect6"
       style="fill:#69696e;fill-opacity:1" />
    <rect
       height="1"
       ry=".392136"
       width="15.000005"
       x="-28"
       y="14"
       id="rect8"
       style="fill:#69696e;fill-opacity:1" />
    <rect
       height="1"
       ry=".436441"
       width="15.000001"
       x="-28"
       y="24"
       id="rect10"
       style="fill:#69696e;fill-opacity:1" />
    <rect
       height="1"
       ry=".5"
       width="8.999999"
       x="-22"
       y="27"
       id="rect12"
       style="fill:#69696e;fill-opacity:1" />
    <rect
       height="1"
       ry=".5"
       width="8.999999"
       x="-22"
       y="17"
       id="rect14"
       style="fill:#69696e;fill-opacity:1" />
    <rect
       height="1"
       ry=".5"
       width="9.000002"
       x="-22"
       y="7"
       id="rect16"
       style="fill:#69696e;fill-opacity:1" />
  </g>
  <g
     fill="#eaeaea"
     fill-opacity=".992157"
     transform="matrix(-1 0 0 1 0 1)"
     id="g32">
    <rect
       height="1"
       ry=".5"
       width="14.999998"
       x="-28"
       y="4"
       id="rect20" />
    <rect
       height="1"
       ry=".392136"
       width="15.000005"
       x="-28"
       y="14"
       id="rect22" />
    <rect
       height="1"
       ry=".436441"
       width="15.000001"
       x="-28"
       y="24"
       id="rect24" />
    <rect
       height="1"
       ry=".5"
       width="8.999999"
       x="-22"
       y="27"
       id="rect26" />
    <rect
       height="1"
       ry=".5"
       width="8.999999"
       x="-22"
       y="17"
       id="rect28" />
    <rect
       height="1"
       ry=".5"
       width="9.000002"
       x="-22"
       y="7"
       id="rect30" />
  </g>
</svg>
