<svg viewBox="0 0 32 32" xmlns="http://www.w3.org/2000/svg" xmlns:xlink="http://www.w3.org/1999/xlink"><linearGradient id="a" gradientUnits="userSpaceOnUse" x1="15" x2="15" y1="4" y2="28"><stop offset="0" stop-color="#efefef"/><stop offset=".33333334" stop-color="#fff"/><stop offset=".8888889" stop-color="#fff"/><stop offset="1" stop-color="#f5f5f5"/></linearGradient><filter id="b" color-interpolation-filters="sRGB" height="1.116265" width="1.123983" x="-.061992" y="-.058132"><feGaussianBlur stdDeviation=".61991525"/></filter><path d="m4 4h24v25.59322h-24z" filter="url(#b)" opacity=".15" stroke-width="1.032659"/><path d="m4 3c-.554 0-1 .446-1 1v24c0 .554.446 1 1 1h24c.554 0 1-.446 1-1v-24c0-.554-.446-1-1-1zm0 1h24v9 1 4 1 4 1 4h-6-1-5-1-5-1-5v-4-1-4-1-4-1z" fill="#69696e"/><path d="m4 4h24v24h-24z" fill="url(#a)"/><path d="m3 3h26v6h-26z" fill="#0a84ff"/><path d="m9 9v4h-5v1h5v4h-5v1h5v4h-5v1h5v4h1v-4h5v4h1v-4h5v4h1v-4h6v-1h-6v-4h6v-1h-6v-4h6v-1h-6v-4h-1v4h-5v-4h-1v4h-5v-4zm1 5h5v4h-5zm6 0h5v4h-5zm-6 5h5v4h-5zm6 0h5v4h-5z" fill="#bababa"/><path d="m4 3c-.554 0-1 .446-1 1v5h1 5 1 5 1 5 1 6 1v-5c0-.554-.446-1-1-1zm0 1h5v4h-5zm6 0h5v4h-5zm6 0h5v4h-5zm6 0h6v4h-6z" fill="#0040dd"/><path d="m19.009766 16a1.0041282 1.0041282 0 0 0 -.611328.271484l-2.089844 1.982422a1.0041282 1.0041282 0 0 0 -.308594.650391v.166015a1.0041282 1.0041282 0 0 0 .285156.617188l4.228516 4.294922-4.226563 4.251953a1.0041282 1.0041282 0 0 0 -.287109.625v.152344a1.0041282 1.0041282 0 0 0 .294922.644531l.349609.34375h4.808594l2.558594-2.644531 2.560547 2.644531h2.427734v-4.503906l-1.5-1.515625 1.5-1.59375v-6.382813a1.0041282 1.0041282 0 0 0 -.039062-.003906h-.15625a1.0041282 1.0041282 0 0 0 -.636719.294922l-4.15625 4.220703-4.210938-4.224609a1.0041282 1.0041282 0 0 0 -.623047-.291016z" fill="#fff" fill-opacity=".784314"/><path d="m31 28.944338-4.895447-4.946153 4.7861-5.086414-2.008392-1.911762-4.867282 4.941173-4.925406-4.941173-2.089573 1.98208 4.925403 5.003525-4.925403 4.955562 2.089573 2.058824 4.922011-5.088233 4.928799 5.088233z" fill="#c20618"/></svg>