<?xml version="1.0" encoding="UTF-8" standalone="no"?>
<svg
   xmlns:dc="http://purl.org/dc/elements/1.1/"
   xmlns:cc="http://creativecommons.org/ns#"
   xmlns:rdf="http://www.w3.org/1999/02/22-rdf-syntax-ns#"
   xmlns:svg="http://www.w3.org/2000/svg"
   xmlns="http://www.w3.org/2000/svg"
   xmlns:xlink="http://www.w3.org/1999/xlink"
   xmlns:sodipodi="http://sodipodi.sourceforge.net/DTD/sodipodi-0.dtd"
   xmlns:inkscape="http://www.inkscape.org/namespaces/inkscape"
   viewBox="0 0 32 32"
   version="1.1"
   id="svg10"
   sodipodi:docname="designerdialog.svg"
   inkscape:version="0.92.3 (unknown)">
  <metadata
     id="metadata16">
    <rdf:RDF>
      <cc:Work
         rdf:about="">
        <dc:format>image/svg+xml</dc:format>
        <dc:type
           rdf:resource="http://purl.org/dc/dcmitype/StillImage" />
        <dc:title></dc:title>
      </cc:Work>
    </rdf:RDF>
  </metadata>
  <defs
     id="defs14">
    <filter
       inkscape:collect="always"
       style="color-interpolation-filters:sRGB"
       id="filter1489"
       x="-0.076526076"
       width="1.1530522"
       y="-0.06797941"
       height="1.1359588">
      <feGaussianBlur
         inkscape:collect="always"
         stdDeviation="0.44180839"
         id="feGaussianBlur1491" />
    </filter>
    <radialGradient
       inkscape:collect="always"
       xlink:href="#linearGradient2152"
       id="radialGradient2154"
       cx="55.498295"
       cy="20.746534"
       fx="55.498295"
       fy="20.746534"
       r="10.03901"
       gradientTransform="matrix(1,0,0,0.72181261,0,7.1016901)"
       gradientUnits="userSpaceOnUse" />
    <linearGradient
       inkscape:collect="always"
       id="linearGradient2152">
      <stop
         style="stop-color:#ffc765;stop-opacity:1"
         offset="0"
         id="stop2148" />
      <stop
         style="stop-color:#ffa914;stop-opacity:1"
         offset="1"
         id="stop2150" />
    </linearGradient>
    <radialGradient
       inkscape:collect="always"
       xlink:href="#linearGradient2226"
       id="radialGradient2228"
       cx="55.441967"
       cy="22.525862"
       fx="55.441967"
       fy="22.525862"
       r="2.2291842"
       gradientTransform="matrix(1.2258064,0,0,1.0478667,-12.519154,-1.0782398)"
       gradientUnits="userSpaceOnUse" />
    <linearGradient
       inkscape:collect="always"
       id="linearGradient2226">
      <stop
         style="stop-color:#ffe9c3;stop-opacity:1;"
         offset="0"
         id="stop2222" />
      <stop
         style="stop-color:#ffe9c3;stop-opacity:0;"
         offset="1"
         id="stop2224" />
    </linearGradient>
  </defs>
  <sodipodi:namedview
     pagecolor="#ffffff"
     bordercolor="#666666"
     borderopacity="1"
     objecttolerance="10"
     gridtolerance="10"
     guidetolerance="10"
     inkscape:pageopacity="0"
     inkscape:pageshadow="2"
     inkscape:window-width="1366"
     inkscape:window-height="706"
     id="namedview12"
     showgrid="false"
     inkscape:zoom="7.375"
     inkscape:cx="-1.4237288"
     inkscape:cy="16"
     inkscape:window-x="0"
     inkscape:window-y="0"
     inkscape:window-maximized="1"
     inkscape:current-layer="svg10" />
  <path
     d="m10.810547 3-7.810547 21h2.234375c.2429596 0 .4501253-.06852.6191406-.207031.1795787-.138508.2999007-.299341.3632813-.480469l1.7597656-5.033203h8.5859375l.626953 1.783203h2.595703l.214844-.212891-6.255859-16.849609zm1.458984 2.7480469c.09507.394216.195149.7606187.300781 1.1015625.105635.3409437.210772.6427297.316407.8984375l2.947265 8.4531251h-7.1289059l2.9453129-8.4375001c.09507-.2557077.195147-.5535876.300781-.8945313s.212725-.7162232.318359-1.1210937z"
     fill="#808080"
     id="path2"
     style="fill:#69696e;fill-opacity:1" />
  <g
     id="g2235"
     transform="matrix(0.79893533,0,0,0.79893533,-27.882846,5.7143622)">
    <path
       inkscape:connector-curvature="0"
       id="path1455"
       d="M 57.661017,18.305085 69.864407,6.3050847 70.983051,5.2881356 c 0.535947,-0.4093238 1.138074,-0.6755092 2.338983,-0.6101695 l 0.813559,0.6101695 c 0.306849,0.6596707 0.152068,1.3286734 0.101695,2.0338983 L 62.542373,24.101695 Z"
       style="fill:#d6d6d6;fill-opacity:1;stroke:#98989d;stroke-width:1.25166571;stroke-linecap:butt;stroke-linejoin:miter;stroke-miterlimit:4;stroke-dasharray:none;stroke-opacity:1"
       sodipodi:nodetypes="cccccccc" />
    <path
       inkscape:connector-curvature="0"
       id="path1459"
       d="M 59.389831,19.322034 72.20339,6.2033898 72.889831,5.6694915 73.245763,6 61.12279,21.267452 Z"
       style="fill:#f9f9f9;fill-opacity:1;stroke:none;stroke-width:1px;stroke-linecap:butt;stroke-linejoin:miter;stroke-opacity:1;filter:url(#filter1489)" />
    <path
       sodipodi:nodetypes="cccccc"
       inkscape:connector-curvature="0"
       id="path1457"
       d="m 54.915254,19.525424 c -2.355192,1.12312 -2.986044,2.645733 -4.067796,4.881356 -1.280902,3.099136 -3.365034,4.179849 -6,5.898305 4.002224,2.208107 12.344829,3.382311 15.355932,-1.016949 1.803572,-2.317145 5.097789,-5.637418 1.932203,-8.237289 -2.997587,-2.267403 -4.004437,-2.954713 -7.220339,-1.525423 z"
       style="fill:url(#radialGradient2154);fill-opacity:1;stroke:#f58b00;stroke-width:1.25166571;stroke-linecap:butt;stroke-linejoin:miter;stroke-miterlimit:4;stroke-dasharray:none;stroke-opacity:1" />
    <path
       id="path2137"
       d="m 49.395592,26.820763 c -1.20494,1.428749 -2.746668,2.309185 -4.547936,3.483925 4.002224,2.208106 12.344366,3.383635 15.355469,-1.015626 C 57.252957,26.090737 51.453042,27.4863 49.395592,26.820763 Z"
       style="fill:#0a84ff;fill-opacity:1;stroke:#0040dd;stroke-width:1.25166571;stroke-linecap:butt;stroke-linejoin:miter;stroke-miterlimit:4;stroke-dasharray:none;stroke-opacity:1"
       inkscape:connector-curvature="0"
       sodipodi:nodetypes="cccc" />
    <ellipse
       ry="2.3358879"
       rx="2.7325482"
       cy="22.525862"
       cx="55.441967"
       id="path2156"
       style="opacity:1;fill:url(#radialGradient2228);fill-opacity:1;stroke:none;stroke-width:1.22580647;stroke-linecap:round;stroke-linejoin:round;stroke-miterlimit:4;stroke-dasharray:none;stroke-opacity:1" />
  </g>
</svg>
