<svg viewBox="0 0 32 32" xmlns="http://www.w3.org/2000/svg" xmlns:xlink="http://www.w3.org/1999/xlink"><linearGradient id="a" gradientUnits="userSpaceOnUse" x1="90" x2="90" y1="-2" y2="-4"><stop offset="0" stop-color="#0040dd"/><stop offset="1" stop-color="#0a84ff"/></linearGradient><path d="m5 8v9.685547 8.314453h9.701172 2.597656 9.701172v-8.314453-9.685547z" fill="#fff"/><path d="m4 7v11.257812 8.742188h10.316406 3.367188 10.316406v-8.742188-11.257812zm1 1h22v9.685547 8.314453h-9.701172-2.597656-9.701172v-8.314453z" fill="#98989d"/><path d="m3 3h26v2h-26z" fill="url(#a)"/><path d="m13 10.5-1.5 5h-5l4 3-1 5 3.5-3 4.5 3-1.5-5 3.5-3h-4.5z" fill="#ffe014" stroke="#e4b500" stroke-linecap="round" stroke-linejoin="round"/><g fill="#e4b500"><path d="m14 9 .5 1h9.5v-1z"/><path d="m15 11 .5 1h9.5v-1z"/><path d="m16 13 .5 1h7.5v-1z"/><path d="m20 17 1.5-1h3.5v1z"/><path d="m18 19 1-1h5v1z"/><path d="m18.5 20 .5 1h5v-1z"/><path d="m19.5 22 .5 1h5v-1z"/></g></svg>