<svg viewBox="0 0 32 32" xmlns="http://www.w3.org/2000/svg" xmlns:xlink="http://www.w3.org/1999/xlink"><linearGradient id="a" gradientUnits="userSpaceOnUse" x1="6" x2="6" y1="29" y2="9"><stop offset="0" stop-color="#0078f6"/><stop offset="1" stop-color="#51cdfb"/></linearGradient><clipPath id="b"><rect height="20" ry="1.333333" width="6" x="3" y="9"/></clipPath><filter id="c" color-interpolation-filters="sRGB" height="1.0624" width="1.208" x="-.104" y="-.0312"><feGaussianBlur stdDeviation=".26"/></filter><linearGradient id="d" gradientUnits="userSpaceOnUse" x1="15" x2="15" y1="28.61017" y2="3"><stop offset="0" stop-color="#01bc23"/><stop offset="1" stop-color="#4ee581"/></linearGradient><clipPath id="e"><rect height="26" ry="1.3" width="6" x="13" y="3"/></clipPath><filter id="f" color-interpolation-filters="sRGB" height="1.048" width="1.208" x="-.104" y="-.024"><feGaussianBlur stdDeviation=".26"/></filter><linearGradient id="g" gradientUnits="userSpaceOnUse" x1="26" x2="26" y1="29" y2="13"><stop offset="0" stop-color="#f16813"/><stop offset="1" stop-color="#ffb232"/></linearGradient><clipPath id="h"><rect height="16" ry="1.333333" width="6" x="23" y="13"/></clipPath><filter id="i" color-interpolation-filters="sRGB" height="1.078" width="1.208" x="-.104" y="-.039"><feGaussianBlur stdDeviation=".26"/></filter><clipPath id="j"><path d="m14.300781 3c-.7202 0-1.300781.5805813-1.300781 1.3007812v23.3984378c0 .7202.580581 1.300781 1.300781 1.300781h1.285157l3.414062-3.414062v-21.2851568c0-.7201999-.580581-1.3007812-1.300781-1.3007812z"/></clipPath><clipPath id="k"><path d="m24.333984 13c-.738666 0-1.333984.595318-1.333984 1.333984v7.251954l6-6v-1.251954c0-.738666-.595318-1.333984-1.333984-1.333984z"/></clipPath><path d="m29.5 17.5-12 12h12zm-2 5v1.476392 3.523608h-4.5-.5z" fill="#fc0" fill-rule="evenodd" stroke="#c89e00" stroke-linecap="round" stroke-linejoin="round"/><rect fill="url(#a)" height="20" ry="1.333333" width="6" x="3" y="9"/><rect clip-path="url(#b)" fill="none" filter="url(#c)" height="20" ry="1.333333" stroke="#067ef6" width="6" x="3" y="9"/><g clip-path="url(#j)"><rect fill="url(#d)" height="26" ry="1.3" width="6" x="13" y="3"/><rect clip-path="url(#e)" fill="none" filter="url(#f)" height="26" ry="1.3" stroke="#05be27" width="6" x="13" y="3"/></g><g clip-path="url(#k)"><rect fill="url(#g)" height="16" ry="1.333333" width="6" x="23" y="13"/><rect clip-path="url(#h)" fill="none" filter="url(#i)" height="16" ry="1.333333" stroke="#f26e16" width="6" x="23" y="13"/></g></svg>