<svg viewBox="0 0 32 32" xmlns="http://www.w3.org/2000/svg"><path d="m10.794922 3-6.2558595 16.849609.0039063.003907-1.5429688 4.146484h2.234375c.2429596 0 .4501253-.06852.6191406-.207031.1795787-.138508.2999007-.299341.3632813-.480469l1.7597656-5.033203h8.5859375l1.759766 5.033203c.063381.181128.183704.341961.363281.480469.169016.138511.37618.207031.619141.207031h2.234374l-1.542968-4.146484.003906-.003907-6.255859-16.849609h-.015625-2.917969zm1.474609 2.7480469c.09507.394216.19515.7606187.300781 1.1015625.081317.2624551.16296.4785158.244141.6914062.024271.0688219.050576.1590645.074219.2226563l2.945312 8.4375001h-7.1289059l2.9453129-8.4375001c.023643-.0635918.049948-.1538344.074218-.2226563.081181-.2128904.162824-.4289511.244141-.6914062.105632-.3409438.205711-.7073465.300781-1.1015625z" fill="#69696e"/><g fill="#eac282" stroke-width=".857112" transform="matrix(1.1667513 0 0 1.1666667 2.664099 2.670651)"><path d="m11.437572 19.627857-1.09644 4.02504 3.951909-1.171525c1.653046-.339535-2.065034-3.99245-2.855469-2.853515z" fill="#a2a2a7" stroke="#848489"/><path d="m20.419922 11c-.189562 0-.378184.07172-.523438.216797l-1.673828 1.669922 2.847656 2.849609 1.710938-1.638672c.290506-.290127.290506-.756747 0-1.046875l-1.835938-1.833984c-.145254-.145064-.335828-.216797-.52539-.216797z" fill="#e68497" stroke="#b6496c"/><path d="m19.288937 13.155429 1.143664-1.12071 1.850278 1.787531" fill="none" stroke="#f398b3"/><path d="m17.603733 13.488055-5.652561 5.646711 2.855469 2.853515 5.633029-5.668195z" fill="#fc0" stroke="#c89e00"/><path d="m19.761836 15.247137-1.100691-1.177408-6.1837 6.223955 1.082595 1.146887z" fill="#ffe014"/></g></svg>