<?xml version="1.0" encoding="UTF-8" standalone="no"?>
<svg
   xmlns:dc="http://purl.org/dc/elements/1.1/"
   xmlns:cc="http://creativecommons.org/ns#"
   xmlns:rdf="http://www.w3.org/1999/02/22-rdf-syntax-ns#"
   xmlns:svg="http://www.w3.org/2000/svg"
   xmlns="http://www.w3.org/2000/svg"
   xmlns:sodipodi="http://sodipodi.sourceforge.net/DTD/sodipodi-0.dtd"
   xmlns:inkscape="http://www.inkscape.org/namespaces/inkscape"
   viewBox="0 0 32 32"
   version="1.1"
   id="svg16"
   sodipodi:docname="editstyle.svg"
   inkscape:version="0.92.3 (2405546, 2018-03-11)">
  <metadata
     id="metadata22">
    <rdf:RDF>
      <cc:Work
         rdf:about="">
        <dc:format>image/svg+xml</dc:format>
        <dc:type
           rdf:resource="http://purl.org/dc/dcmitype/StillImage" />
      </cc:Work>
    </rdf:RDF>
  </metadata>
  <defs
     id="defs20" />
  <sodipodi:namedview
     pagecolor="#ffffff"
     bordercolor="#666666"
     borderopacity="1"
     objecttolerance="10"
     gridtolerance="10"
     guidetolerance="10"
     inkscape:pageopacity="0"
     inkscape:pageshadow="2"
     inkscape:window-width="1366"
     inkscape:window-height="716"
     id="namedview18"
     showgrid="false"
     inkscape:zoom="7.375"
     inkscape:cx="-3.3220339"
     inkscape:cy="16"
     inkscape:window-x="-8"
     inkscape:window-y="-8"
     inkscape:window-maximized="1"
     inkscape:current-layer="svg16" />
  <g
     aria-label="A"
     style="font-style:normal;font-weight:normal;font-size:29.54058266px;line-height:1.25;font-family:sans-serif;letter-spacing:0px;word-spacing:0px;fill:#4b4b4f;fill-opacity:1;stroke:none;stroke-width:0.73851454"
     id="text14271">
    <path
       inkscape:connector-curvature="0"
       d="M 16.443273,19.097309 H 8.2215287 l -1.673197,4.904198 H 3 L 10.7169,2.9999988 h 3.317546 L 21.664802,24.001507 H 18.102046 Z M 9.2312166,16.169214 H 15.448009 L 12.404521,7.1974156 h -0.08654 z"
       style="font-style:normal;font-variant:normal;font-weight:500;font-stretch:normal;font-family:Roboto;-inkscape-font-specification:'Roboto Medium';fill:#4b4b4f;fill-opacity:1;stroke-width:0.73851454"
       id="path1523" />
  </g>
  <g
     fill="#eac282"
     stroke-width=".857112"
     transform="matrix(1.1667513 0 0 1.1666667 2.664099 2.670651)"
     id="g14">
    <path
       d="m11.437572 19.627857-1.09644 4.02504 3.951909-1.171525c1.653046-.339535-2.065034-3.99245-2.855469-2.853515z"
       fill="#a2a2a7"
       stroke="#848489"
       id="path4" />
    <path
       d="m20.419922 11c-.189562 0-.378184.07172-.523438.216797l-1.673828 1.669922 2.847656 2.849609 1.710938-1.638672c.290506-.290127.290506-.756747 0-1.046875l-1.835938-1.833984c-.145254-.145064-.335828-.216797-.52539-.216797z"
       fill="#e68497"
       stroke="#b6496c"
       id="path6" />
    <path
       d="m19.288937 13.155429 1.143664-1.12071 1.850278 1.787531"
       fill="none"
       stroke="#f398b3"
       id="path8" />
    <path
       d="m17.603733 13.488055-5.652561 5.646711 2.855469 2.853515 5.633029-5.668195z"
       fill="#fc0"
       stroke="#c89e00"
       id="path10" />
    <path
       d="m19.761836 15.247137-1.100691-1.177408-6.1837 6.223955 1.082595 1.146887z"
       fill="#ffe014"
       id="path12" />
  </g>
</svg>
