<svg viewBox="0 0 32 32" xmlns="http://www.w3.org/2000/svg" xmlns:xlink="http://www.w3.org/1999/xlink"><linearGradient id="a" gradientUnits="userSpaceOnUse" x1="-21.338983" x2="-18.118645" y1="9.694916" y2="-8.20339"><stop offset="0" stop-color="#e5eefc"/><stop offset="1" stop-color="#fcfdff"/></linearGradient><path d="m16 3.5002252c-6.9034354 0-12.4997754 5.59634-12.4997754 12.4997748 0 6.903435 5.59634 12.499775 12.4997754 12.499775 6.903435 0 12.499775-5.59634 12.499775-12.499775 0-6.9034348-5.59634-12.4997748-12.499775-12.4997748z" fill="url(#a)" stroke="#f5c200" stroke-linecap="round" stroke-linejoin="round" stroke-width="1.000449"/><g fill="#a05a00"><g fill="#a05a00"><path d="m8 18a8 6 0 0 0 8 6 8 6 0 0 0 8-6h-.5-.5-14-.5zm1.1484375 1h13.7109375a7 5 0 0 1 -6.859375 4 7 5 0 0 1 -6.8515625-4z"/><path d="m12 9a2 2 0 0 0 -2 2 2 2 0 0 0 2 2 2 2 0 0 0 2-2 2 2 0 0 0 -2-2zm0 1a1 1 0 0 1 1 1 1 1 0 0 1 -1 1 1 1 0 0 1 -1-1 1 1 0 0 1 1-1z"/><path d="m20 9a2 2 0 0 0 -2 2 2 2 0 0 0 2 2 2 2 0 0 0 2-2 2 2 0 0 0 -2-2zm0 1a1 1 0 0 1 1 1 1 1 0 0 1 -1 1 1 1 0 0 1 -1-1 1 1 0 0 1 1-1z"/></g><path d="m9.1484375 19h13.7109375c-.665329 2.328167-3.532729 4.000273-6.859375 4-3.32371-.002377-6.1868218-1.673886-6.8515625-4z" fill="#fff"/></g></svg>