<?xml version="1.0" encoding="UTF-8" standalone="no"?>
<svg
   xmlns:dc="http://purl.org/dc/elements/1.1/"
   xmlns:cc="http://creativecommons.org/ns#"
   xmlns:rdf="http://www.w3.org/1999/02/22-rdf-syntax-ns#"
   xmlns:svg="http://www.w3.org/2000/svg"
   xmlns="http://www.w3.org/2000/svg"
   xmlns:xlink="http://www.w3.org/1999/xlink"
   xmlns:sodipodi="http://sodipodi.sourceforge.net/DTD/sodipodi-0.dtd"
   xmlns:inkscape="http://www.inkscape.org/namespaces/inkscape"
   viewBox="0 0 32 32"
   version="1.1"
   id="svg10"
   sodipodi:docname="exportdirecttopdf.svg"
   inkscape:version="0.92.3 (2405546, 2018-03-11)">
  <metadata
     id="metadata16">
    <rdf:RDF>
      <cc:Work
         rdf:about="">
        <dc:format>image/svg+xml</dc:format>
        <dc:type
           rdf:resource="http://purl.org/dc/dcmitype/StillImage" />
        <dc:title></dc:title>
      </cc:Work>
    </rdf:RDF>
  </metadata>
  <defs
     id="defs14">
    <linearGradient
       inkscape:collect="always"
       id="linearGradient870">
      <stop
         style="stop-color:#d7d7d7;stop-opacity:1"
         offset="0"
         id="stop866" />
      <stop
         id="stop874"
         offset="0.50134563"
         style="stop-color:#f7f7f7;stop-opacity:1" />
      <stop
         style="stop-color:#ffffff;stop-opacity:1"
         offset="1"
         id="stop868" />
    </linearGradient>
    <radialGradient
       inkscape:collect="always"
       xlink:href="#linearGradient870"
       id="radialGradient883"
       cx="22.232128"
       cy="8.7722073"
       fx="22.232128"
       fy="8.7722073"
       r="10"
       gradientTransform="matrix(1,0,0,1.3,0,-4.8)"
       gradientUnits="userSpaceOnUse" />
    <linearGradient
       inkscape:collect="always"
       xlink:href="#linearGradient882"
       id="linearGradient879"
       x1="20"
       y1="9"
       x2="23"
       y2="6"
       gradientUnits="userSpaceOnUse" />
    <linearGradient
       inkscape:collect="always"
       id="linearGradient882">
      <stop
         style="stop-color:#ffffff;stop-opacity:1;"
         offset="0"
         id="stop878" />
      <stop
         id="stop886"
         offset="0.77967989"
         style="stop-color:#f1f1f1;stop-opacity:1" />
      <stop
         style="stop-color:#d5d5d5;stop-opacity:1"
         offset="1"
         id="stop880" />
    </linearGradient>
  </defs>
  <sodipodi:namedview
     pagecolor="#ffffff"
     bordercolor="#666666"
     borderopacity="1"
     objecttolerance="10"
     gridtolerance="10"
     guidetolerance="10"
     inkscape:pageopacity="0"
     inkscape:pageshadow="2"
     inkscape:window-width="1366"
     inkscape:window-height="692"
     id="namedview12"
     showgrid="false"
     inkscape:zoom="5.2149125"
     inkscape:cx="9.2153849"
     inkscape:cy="26.458524"
     inkscape:window-x="0"
     inkscape:window-y="0"
     inkscape:window-maximized="1"
     inkscape:current-layer="svg10" />
  <path
     d="m6 3v26h19.998047v-4.515625c-.73487-.033128-1.467932.005432-2.228516.183594-1.78596.418349-3.778477 1.500949-6.115234 3.873047a1.0001 1.0001 0 0 1 -.083985.074218c.034681-.02658.09153-.072016-.027343.027344a1.0001 1.0001 0 0 1 -.009766.009766c-.00447.003623-.011125.000306-.015625.003906h-.001953a1.0001 1.0001 0 0 1 -.642578.179688c-.551379.106606-1.127752.026941-1.462891-.337891-.334147-.363752-.365476-.943251-.214844-1.482422a1.0001 1.0001 0 0 1  .236329-.634766c.00302-.00322.000806-.008518.003906-.011718a1.0001 1.0001 0 0 1  .005859-.007813c.08132-.0827.032291-.032737.025391-.023437a1.0001 1.0001 0 0 1  .085937-.080079c2.886525-2.414009 4.051203-4.359528 4.572266-6.134765.244219-.832041.33324-1.65014.359375-2.511719-.075996-.677133-.100911-1.40304-.050781-2.189453-.01579-.303326-.013771-.560743-.025391-.791016a1.0001 1.0001 0 0 1  .013672-.214843c.000067-.0018-.000075-.002107 0-.003907.0014-.03282-.005-.036485 0-.072265a1.0001 1.0001 0 0 0 0-.001953c.00361-.02567.030256-.039213.035156-.064453a1.0001 1.0001 0 0 1  .185547-.335938c.152827-.316196.365515-.54132.677734-.695312a1.0001 1.0001 0 0 1  .667969-.242188c.182982.003367.31293.135834.476563.199219l.017578-.058594a1.0001 1.0001 0 0 1  .183594.144531c.452431.254615.817063.643025.845703 1.1875a1.0001 1.0001 0 0 0 0 .001953c.05163 1.022662.085848 2.107305.048828 3.228516.18659 1.124233.531484 1.961035 1.023437 2.476563.345629.362189.827998.670495 1.414063.935546l.001953-11.115234-7-7z"
     fill="#fff"
     id="path2"
     style="fill-opacity:1;fill:url(#radialGradient883)" />
  <path
     d="m5.9980469 2c-.554 0-1 .446-1 1v26c0 .554.446 1 1 1h20.0000001c.554 0 .892483-.456533 1-1v-4.339844c-.220251-.057874-.44904-.109387-.662109-.171875-.112573-.009119-.225483.001161-.337891-.003906v4.515625h-20.0000001v-26h13.0000001v6c0 .6726441.491378 1 1 1h6v11.115234c.255908.115737.525327.225906.822265.324219.060284.006026.117666.020651.177735.027344v-2.576172-10.5058594l-6.507813-6.3847656z"
     fill="#808080"
     id="path4"
     style="fill:#98989d;fill-opacity:1" />
  <path
     d="m 20,9 h 6 L 20,3 Z"
     id="path6-9"
     style="fill:url(#linearGradient879);fill-opacity:1;fill-rule:evenodd"
     inkscape:connector-curvature="0" />
  <path
     d="m21.970606 14.000067a.55341071.55350442 0 0 0 -.558315.476357c-.0056.04045.0076.06467.0023.10484h-.0069c.01351.267793.01132.524274.02506.788612-.06005.81227-.03097 1.546982.05241 2.235919-.02622.924023-.121785 1.847361-.401075 2.798887-.581312 1.980503-1.899528 4.119882-4.890387 6.621147l.0023.0023c-.01427.01442-.02674.01968-.04102.0342a.55341071.55350442 0 0 0  .747459.813684c.01608-.01344.02046-.02531.03646-.03875l.0023.0023c2.430633-2.467394 4.597768-3.677013 6.599516-4.145909.98838-.231521 1.943738-.279482 2.882731-.202851.887886.268814 1.818284.490368 2.853105.585761.04382.0041.07673.02129.120779.02506a.55341071.55350442 0 0 0  .211932-1.080352c-1.001874-.31596-2.03417-.544601-3.09922-.631346-1.070418-.353795-1.99032-.828648-2.65029-1.520241-.694141-.727403-1.092354-1.770793-1.296659-3.026811.04673-1.138003.004-2.24657-.05014-3.318551a.55341071.55350442 0 0 0 -.542467-.524328zm.268903 6.076412c.267185.524669.428775 1.146339.820383 1.55671.383972.402371.942639.604376 1.421995.898014-.401329.04357-.783292-.0119-1.194112.08433-.852792.199762-1.740284.647702-2.629779 1.107703.670429-1.029571 1.203954-2.03829 1.48808-3.006297.06512-.221854.04416-.422142.09343-.640461z"
     fill="#d65532"
     id="path8"
     style="fill:#ff453a;fill-opacity:1" />
</svg>
