<?xml version="1.0" encoding="UTF-8" standalone="no"?>
<svg
   xmlns:dc="http://purl.org/dc/elements/1.1/"
   xmlns:cc="http://creativecommons.org/ns#"
   xmlns:rdf="http://www.w3.org/1999/02/22-rdf-syntax-ns#"
   xmlns:svg="http://www.w3.org/2000/svg"
   xmlns="http://www.w3.org/2000/svg"
   xmlns:sodipodi="http://sodipodi.sourceforge.net/DTD/sodipodi-0.dtd"
   xmlns:inkscape="http://www.inkscape.org/namespaces/inkscape"
   viewBox="0 0 32 32"
   version="1.1"
   id="svg22"
   sodipodi:docname="exportdirecttopdf.svg"
   inkscape:version="0.92.3 (unknown)"
   inkscape:export-filename="/home/rizmut/Dokumen/Rizmut/Github/libreoffice-style-sukapura/images_sukapura/cmd/32/exportdirecttopdf.png"
   inkscape:export-xdpi="96"
   inkscape:export-ydpi="96">
  <metadata
     id="metadata28">
    <rdf:RDF>
      <cc:Work
         rdf:about="">
        <dc:format>image/svg+xml</dc:format>
        <dc:type
           rdf:resource="http://purl.org/dc/dcmitype/StillImage" />
        <dc:title></dc:title>
      </cc:Work>
    </rdf:RDF>
  </metadata>
  <defs
     id="defs26" />
  <sodipodi:namedview
     pagecolor="#ffffff"
     bordercolor="#666666"
     borderopacity="1"
     objecttolerance="10"
     gridtolerance="10"
     guidetolerance="10"
     inkscape:pageopacity="0"
     inkscape:pageshadow="2"
     inkscape:window-width="1366"
     inkscape:window-height="706"
     id="namedview24"
     showgrid="true"
     inkscape:zoom="10.429825"
     inkscape:cx="23.579077"
     inkscape:cy="10.500927"
     inkscape:window-x="0"
     inkscape:window-y="0"
     inkscape:window-maximized="1"
     inkscape:current-layer="svg22">
    <inkscape:grid
       type="xygrid"
       id="grid1524" />
  </sodipodi:namedview>
  <radialGradient
     id="a"
     cx="22"
     cy="9.076923"
     gradientTransform="matrix(1.3 .00000001 -.00000002 1.5 -6.6 -6.615385)"
     gradientUnits="userSpaceOnUse"
     r="10">
    <stop
       offset="0"
       stop-color="#d7d7d7"
       id="stop2" />
    <stop
       offset=".29999998"
       stop-color="#f7f7f7"
       id="stop4" />
    <stop
       offset="1"
       stop-color="#fff"
       id="stop6" />
  </radialGradient>
  <linearGradient
     id="b"
     gradientUnits="userSpaceOnUse"
     x1="20"
     x2="23"
     y1="9"
     y2="6">
    <stop
       offset="0"
       stop-color="#fff"
       id="stop9" />
    <stop
       offset=".77967989"
       stop-color="#f1f1f1"
       id="stop11" />
    <stop
       offset="1"
       stop-color="#d5d5d5"
       id="stop13" />
  </linearGradient>
  <g
     id="g838">
    <path
       id="path16"
       fill="url(#a)"
       d="m6 3v26h19.99762l.00238-19-7-7z" />
    <path
       id="path18"
       fill="#98989d"
       d="m5.9976202 2c-.554 0-1 .446-1 1v26c0 .554.446 1 1 1h19.9999998c.554 0 .892483-.456533 1-1v-10.109375-10.5052752l-6.508082-6.3853498zm0 1h12.9999998v6c0 .6726441.491378 1 1 1h6v19h-19.9999998z" />
    <path
       id="path20"
       fill-rule="evenodd"
       fill="url(#b)"
       d="m20 9h6l-6-6z" />
  </g>
  <path
     style="fill:#ffffff;fill-opacity:0.78431374;stroke:none"
     d="M 26.998047 12.990234 L 26.998047 18.890625 L 26.998047 21.466797 C 26.937978 21.460107 26.880592 21.445453 26.820312 21.439453 C 26.523374 21.34114 26.253955 21.230971 25.998047 21.115234 C 25.411982 20.850183 24.929613 20.541877 24.583984 20.179688 C 24.092031 19.66416 23.747137 18.827358 23.560547 17.703125 C 23.597567 16.581914 23.563349 15.497271 23.511719 14.474609 A 1.0001 1.0001 0 0 0 23.511719 14.472656 C 23.483079 13.928181 23.118447 13.539771 22.666016 13.285156 A 1.0001 1.0001 0 0 0 22.482422 13.140625 L 22.464844 13.199219 C 22.301211 13.135834 22.171263 13.0034 21.988281 13 A 1.0001 1.0001 0 0 0 21.320312 13.242188 C 21.008094 13.396178 20.795405 13.621304 20.642578 13.9375 A 1.0001 1.0001 0 0 0 20.457031 14.273438 C 20.452131 14.298677 20.425475 14.312221 20.421875 14.337891 A 1.0001 1.0001 0 0 0 20.421875 14.339844 C 20.416875 14.375624 20.423275 14.379289 20.421875 14.412109 C 20.4218 14.413909 20.421942 14.414216 20.421875 14.416016 A 1.0001 1.0001 0 0 0 20.408203 14.630859 C 20.419823 14.861132 20.417804 15.118549 20.433594 15.421875 C 20.383463 16.208288 20.408375 16.934195 20.484375 17.611328 C 20.45824 18.472907 20.369219 19.291006 20.125 20.123047 C 19.603937 21.898284 18.439259 23.843803 15.552734 26.257812 A 1.0001 1.0001 0 0 0 15.466797 26.337891 C 15.473697 26.328591 15.522726 26.278628 15.441406 26.361328 A 1.0001 1.0001 0 0 0 15.435547 26.369141 C 15.432453 26.372361 15.434641 26.377659 15.431641 26.380859 A 1.0001 1.0001 0 0 0 15.195312 27.015625 C 15.04468 27.554796 15.076009 28.134295 15.410156 28.498047 C 15.745295 28.862878 16.321668 28.942542 16.873047 28.835938 A 1.0001 1.0001 0 0 0 17.515625 28.65625 L 17.517578 28.65625 C 17.522088 28.652656 17.528703 28.655944 17.533203 28.652344 A 1.0001 1.0001 0 0 0 17.542969 28.642578 C 17.661839 28.543218 17.604993 28.588654 17.570312 28.615234 A 1.0001 1.0001 0 0 0 17.654297 28.541016 C 19.991054 26.168918 21.983571 25.086318 23.769531 24.667969 C 24.530115 24.489775 25.263177 24.451245 25.998047 24.484375 C 26.110455 24.489475 26.223364 24.479181 26.335938 24.488281 C 26.549007 24.550769 26.777796 24.602286 26.998047 24.660156 L 26.998047 29 C 26.890664 29.54279 26.552774 29.998865 26 30 C 26.554 30 27 29.554 27 29 L 27 13 C 27 12.996538 26.998082 12.993688 26.998047 12.990234 z "
     id="rect1526" />
  <path
     inkscape:connector-curvature="0"
     style="fill:#ff453a"
     d="m 21.970606,14.000067 a 0.55341071,0.55350442 0 0 0 -0.558315,0.476357 c -0.0056,0.04045 0.0076,0.06467 0.0023,0.10484 h -0.0069 c 0.01351,0.267793 0.01132,0.524274 0.02506,0.788612 -0.06005,0.81227 -0.03097,1.546982 0.05241,2.235919 -0.02622,0.924023 -0.121785,1.847361 -0.401075,2.798887 -0.581312,1.980503 -1.899528,4.119882 -4.890387,6.621147 l 0.0023,0.0023 c -0.01427,0.01442 -0.02674,0.01968 -0.04102,0.0342 a 0.55341071,0.55350442 0 0 0 0.747459,0.813684 c 0.01608,-0.01344 0.02046,-0.02531 0.03646,-0.03875 l 0.0023,0.0023 c 2.430633,-2.467394 4.597768,-3.677013 6.599516,-4.145909 0.98838,-0.231521 1.943738,-0.279482 2.882731,-0.202851 0.887886,0.268814 1.818284,0.490368 2.853105,0.585761 0.04382,0.0041 0.07673,0.02129 0.120779,0.02506 a 0.55341071,0.55350442 0 0 0 0.211932,-1.080352 c -1.001874,-0.31596 -2.03417,-0.544601 -3.09922,-0.631346 -1.070418,-0.353795 -1.99032,-0.828648 -2.65029,-1.520241 -0.694141,-0.727403 -1.092354,-1.770793 -1.296659,-3.026811 0.04673,-1.138003 0.004,-2.24657 -0.05014,-3.318551 a 0.55341071,0.55350442 0 0 0 -0.542467,-0.524328 z m 0.268903,6.076412 c 0.267185,0.524669 0.428775,1.146339 0.820383,1.55671 0.383972,0.402371 0.942639,0.604376 1.421995,0.898014 -0.401329,0.04357 -0.783292,-0.0119 -1.194112,0.08433 -0.852792,0.199762 -1.740284,0.647702 -2.629779,1.107703 0.670429,-1.029571 1.203954,-2.03829 1.48808,-3.006297 0.06512,-0.221854 0.04416,-0.422142 0.09343,-0.640461 z"
     id="path22" />
</svg>
