<?xml version="1.0" encoding="UTF-8" standalone="no"?>
<svg
   xmlns:dc="http://purl.org/dc/elements/1.1/"
   xmlns:cc="http://creativecommons.org/ns#"
   xmlns:rdf="http://www.w3.org/1999/02/22-rdf-syntax-ns#"
   xmlns:svg="http://www.w3.org/2000/svg"
   xmlns="http://www.w3.org/2000/svg"
   xmlns:xlink="http://www.w3.org/1999/xlink"
   xmlns:sodipodi="http://sodipodi.sourceforge.net/DTD/sodipodi-0.dtd"
   xmlns:inkscape="http://www.inkscape.org/namespaces/inkscape"
   viewBox="0 0 32 32"
   version="1.1"
   id="svg8"
   sodipodi:docname="flowchartshapes.flowchart-multidocument.svg"
   inkscape:version="0.92.3 (2405546, 2018-03-11)">
  <metadata
     id="metadata14">
    <rdf:RDF>
      <cc:Work
         rdf:about="">
        <dc:format>image/svg+xml</dc:format>
        <dc:type
           rdf:resource="http://purl.org/dc/dcmitype/StillImage" />
        <dc:title></dc:title>
      </cc:Work>
    </rdf:RDF>
  </metadata>
  <defs
     id="defs12">
    <linearGradient
       gradientTransform="translate(-50.508474,-13.084746)"
       id="a"
       gradientUnits="userSpaceOnUse"
       x1="12"
       x2="12"
       y1="21.5"
       y2="2.5">
      <stop
         offset="0"
         stop-color="#e5eefc"
         id="stop1020" />
      <stop
         offset="1"
         stop-color="#fcfdff"
         id="stop1022" />
    </linearGradient>
    <linearGradient
       inkscape:collect="always"
       xlink:href="#a"
       id="linearGradient839"
       x1="19.40678"
       y1="27.254469"
       x2="17.745762"
       y2="5.2883663"
       gradientUnits="userSpaceOnUse" />
  </defs>
  <sodipodi:namedview
     pagecolor="#ffffff"
     bordercolor="#666666"
     borderopacity="1"
     objecttolerance="10"
     gridtolerance="10"
     guidetolerance="10"
     inkscape:pageopacity="0"
     inkscape:pageshadow="2"
     inkscape:window-width="1366"
     inkscape:window-height="716"
     id="namedview10"
     showgrid="true"
     inkscape:snap-smooth-nodes="true"
     inkscape:zoom="10.429825"
     inkscape:cx="14.600336"
     inkscape:cy="9.6437266"
     inkscape:window-x="-8"
     inkscape:window-y="-8"
     inkscape:window-maximized="1"
     inkscape:current-layer="svg8">
    <inkscape:grid
       type="xygrid"
       id="grid841" />
  </sodipodi:namedview>
  <path
     d="m 6,8 v 2 h 17 v 8.884766 c 0.657622,-0.219159 1.230264,-0.376369 2,-0.472657 V 16.009766 14.337891 10.056641 8 H 10.474609 8.8496094 Z"
     id="path2"
     style="fill:#0a84ff;fill-opacity:1;stroke-width:0.76923102"
     inkscape:connector-curvature="0"
     sodipodi:nodetypes="cccccccccccc" />
  <path
     style="fill-opacity:1;fill:url(#linearGradient839);stroke:none"
     d="M 9.5 4.3007812 L 9.5 5.9707031 L 9.5 7 L 22 7 L 25 7 L 26 7 L 26 14.933594 C 26.956103 14.639058 28.090251 14.440069 29 14.326172 L 29 5.9707031 L 29 4.3007812 L 9.5 4.3007812 z M 7.0996094 9 C 7.0447776 9 7 9.0447776 7 9.0996094 L 7 10 L 22.900391 10 C 22.955222 10 23 10.044778 23 10.099609 L 23 18.296875 L 23.900391 18.099609 C 23.953955 18.087889 24 18.054831 24 18 L 24 9.0996094 C 24 9.0447776 23.955222 9 23.900391 9 L 7.0996094 9 z M 3 10.984375 L 3 12.65625 L 3 22.683594 L 3 24.353516 C 7.6669674 29.655582 10.450539 27.887837 15.085938 24.353516 C 18.211548 22.379499 19.737909 21.46687 22 21.091797 L 22 10.984375 L 3 10.984375 z "
     id="path4" />
  <path
     d="m9 4v1.5996094 1.4003906h1v-2h18v .9707031 7.1953129c-.569122.111964-1.311499.272675-2 .464843v1.335938c1.099593-.371326 2.288885-.639933 3-.675781v-.40625-.246094-7.6679689-1.9707031zm-6 6.994141v1.662109 10.027344 1.669922c4.5506533 5.844866 7.308856 3.440949 12-.353516 3.354417-2.118521 4.353267-2.77874 7-2.988281v-10.00586-.011718h-15.75zm1 1.005859h2.25 14.75v8c-2.164579.4861-3.754385 1.452038-6.607422 3.253906l-.048828.03125-.044922.035156c-2.301012 1.754473-4.3098867 3.536277-5.6640624 3.697266-1.275095.151588-2.6347656-.586792-4.6347656-3.017578v-1.316406-10.027344z"
     fill="#808080"
     id="path6"
     style="fill:#0a84ff;fill-opacity:1" />
</svg>
