<svg viewBox="0 0 32 32" xmlns="http://www.w3.org/2000/svg" xmlns:xlink="http://www.w3.org/1999/xlink"><linearGradient id="a" gradientUnits="userSpaceOnUse" x1="17" x2="17" y1="7" y2="5"><stop offset="0" stop-color="#0040dd"/><stop offset="1" stop-color="#0a84ff"/></linearGradient><path d="m14.033654 22.563186h-7.1222532l-1.5995879 4.436814h-2.3118131l6.4917581-17h1.9615381l6.503434 17h-2.300137zm-6.4450554-1.844779h5.7795334l-2.895605-7.951237z" fill="#4b4b4f"/><rect fill="url(#a)" height="2" ry=".97603" width="25" x="4" y="5"/><path d="m27.372105 26.810075q-.187296-.374592-.304356-1.334482-1.510071 1.568601-3.605441 1.568601-1.872957 0-3.078673-1.053538-1.19401-1.065244-1.19401-2.692375 0-1.978311 1.498365-3.066967 1.510072-1.100362 4.237565-1.100362h2.107076v-.995008q0-1.13548-.678946-1.802721-.678947-.678947-2.001723-.678947-1.158892 0-1.943193.585299-.7843.585299-.7843 1.416423h-2.177313q0-.948184.667241-1.826132.678947-.889655 1.826133-1.404718 1.158892-.515063 2.540198-.515063 2.189018 0 3.429852 1.100362 1.240834 1.088656 1.287658 3.008437v5.829578q0 1.744191.444827 2.774317v.187296zm-3.593736-1.650544q1.01842 0 1.931487-.526769.913066-.526769 1.322775-1.369599v-2.598728h-1.697367q-3.980033 0-3.980033 2.32949 0 1.01842.678947 1.592013.678947.573593 1.744191.573593z" fill="#4b4b4f"/></svg>