<svg viewBox="0 0 32 32" xmlns="http://www.w3.org/2000/svg"><path d="m13.62303 11.282127 8.698892 6.168373c1.06704.645062 1.38046 2.15007.138542 2.983633l-1.783445 2.391381-11.532872-8.382004 1.683126-2.497525c.584906-1.058447 1.45626-1.440346 2.795738-.663859z" fill="#dadada" stroke="#848489" stroke-width="1.179136"/><path d="m9.3716857 16.100398 10.0055563 7.161664-1.122741 2.706583c-.392773.483266-.235661 1.142247.15713 1.40584l1.688923 1.625514h-9.544418c-3.8936736 0-5.6823312-4.104653-3.8099181-7.732202z" fill="#ffa914" stroke="#f58b00"/><path d="m24.688599 2.8929211-7.742149 10.8590469 2.821472 1.999999 7.576271-11.0711396z" fill="#dadada" stroke="#848489" stroke-linecap="round"/><path d="m10.642487 14.120892 1.301076-2.213899h.59322l9.765298 6.978938" fill="none" stroke="#fff" stroke-linecap="square" stroke-linejoin="round"/><path d="m18.022721 13.751968 6.792373-9.5805086 1.56356 1.0889831" fill="none" stroke="#fff"/><path d="m6.0449219 24.882812c.2641089 2.290379 1.9164548 4.117188 4.5117191 4.117188h9.542968l-1.6875-1.625c-.208904-.140191-.342786-.393921-.371093-.671875z" fill="#148eff" stroke="#0070f5"/></svg>