<?xml version="1.0" encoding="UTF-8" standalone="no"?>
<svg
   xmlns:dc="http://purl.org/dc/elements/1.1/"
   xmlns:cc="http://creativecommons.org/ns#"
   xmlns:rdf="http://www.w3.org/1999/02/22-rdf-syntax-ns#"
   xmlns:svg="http://www.w3.org/2000/svg"
   xmlns="http://www.w3.org/2000/svg"
   xmlns:sodipodi="http://sodipodi.sourceforge.net/DTD/sodipodi-0.dtd"
   xmlns:inkscape="http://www.inkscape.org/namespaces/inkscape"
   height="32"
   viewBox="0 0 32 32"
   width="32"
   version="1.1"
   id="svg8"
   sodipodi:docname="goalseekdialog.svg"
   inkscape:version="0.92.3 (unknown)"
   inkscape:export-filename="/home/rizmut/Dokumen/Rizmut/Github/libreoffice-style-sukapura/images_sukapura/cmd/32/goalseekdialog.png"
   inkscape:export-xdpi="96"
   inkscape:export-ydpi="96">
  <metadata
     id="metadata14">
    <rdf:RDF>
      <cc:Work
         rdf:about="">
        <dc:format>image/svg+xml</dc:format>
        <dc:type
           rdf:resource="http://purl.org/dc/dcmitype/StillImage" />
        <dc:title></dc:title>
      </cc:Work>
    </rdf:RDF>
  </metadata>
  <defs
     id="defs12" />
  <sodipodi:namedview
     pagecolor="#ffffff"
     bordercolor="#666666"
     borderopacity="1"
     objecttolerance="10"
     gridtolerance="10"
     guidetolerance="10"
     inkscape:pageopacity="0"
     inkscape:pageshadow="2"
     inkscape:window-width="1366"
     inkscape:window-height="706"
     id="namedview10"
     showgrid="true"
     inkscape:zoom="29.5"
     inkscape:cx="25.298031"
     inkscape:cy="6.1990889"
     inkscape:window-x="0"
     inkscape:window-y="0"
     inkscape:window-maximized="1"
     inkscape:current-layer="svg8">
    <inkscape:grid
       type="xygrid"
       id="grid1883" />
  </sodipodi:namedview>
  <g
     id="g824">
    <path
       id="path2"
       fill-rule="evenodd"
       fill="#848489"
       d="m6.2929688 5.5-1.7929688.5v1.5l8 10.5v2.085938 7.171874l.572266.408203 2.927734 1.333985 2.927734-.947266.572266-.794922v-7.171874-2.085938l8-10.5v-1.5l-1.792969-.5h-.414062-18.5859378z" />
    <path
       id="path4"
       fill-rule="evenodd"
       fill="#69696e"
       d="m6.2929688 5c-.1326.0000254-.2597597.052716-.3535157.1464844l-1.7929687.5c-.0937681.0937559-.1464589.2209161-.1464844.3535156v1.5c-.000141.1092992.035533.2156344.1015625.3027344l7.8984375 10.3652346v1.417969 7.671874c.000116.161184.07792.699148.208984.792969l2.931641.949219h1.71875l2.931641-.949219c.131064-.093821.208868-.631785.208984-.792969v-7.671874-1.417969l7.898438-10.3652346c.06603-.0871001.101703-.1934353.101562-.3027344v-1.5c-.000025-.1325995-.05272-.2597597-.146484-.3535156l-1.792969-.5c-.093756-.0937682-.220916-.146459-.353516-.1464844h-.414062-18.5859378zm.6210937 1h18.1718755l1.914062.2070312v1.125l-7.898438 10.3652348c-.066031.0871-.101703.193435-.101562.302734v2.585938 6.414062l-3 1-3-1v-6.414062-2.585938c.000141-.109299-.03553-.215634-.101562-.302734l-7.898438-10.3652348v-1.125z" />
    <ellipse
       id="ellipse6"
       stroke-width="1.002306"
       stroke-linejoin="round"
       stroke-linecap="round"
       stroke="#69696e"
       ry="2.315033"
       rx="11.5"
       fill="#cdcdd0"
       cy="5.815033"
       cx="16" />
  </g>
  <rect
     height="8"
     rx="1.5"
     width="16"
     x="14"
     y="21"
     id="rect2"
     style="fill:#98989d" />
  <path
     d="m 15,22 v 6 h 14 v -6 z"
     id="path4-3"
     inkscape:connector-curvature="0"
     style="fill:#ffffff;stroke-width:1.30930698"
     sodipodi:nodetypes="ccccc" />
  <path
     d="m 23,23 v 4 h -0.5 v -4 z"
     id="path6"
     inkscape:connector-curvature="0"
     style="fill:#bababa;stroke-width:1.34164083"
     sodipodi:nodetypes="ccccc" />
  <path
     d="m 28,24 h -4 l 2,2.5 z"
     id="path8"
     inkscape:connector-curvature="0"
     style="fill:#69696e"
     sodipodi:nodetypes="cccc" />
</svg>
