<?xml version="1.0" encoding="UTF-8" standalone="no"?>
<svg
   xmlns:dc="http://purl.org/dc/elements/1.1/"
   xmlns:cc="http://creativecommons.org/ns#"
   xmlns:rdf="http://www.w3.org/1999/02/22-rdf-syntax-ns#"
   xmlns:svg="http://www.w3.org/2000/svg"
   xmlns="http://www.w3.org/2000/svg"
   xmlns:sodipodi="http://sodipodi.sourceforge.net/DTD/sodipodi-0.dtd"
   xmlns:inkscape="http://www.inkscape.org/namespaces/inkscape"
   viewBox="0 0 32 32"
   version="1.1"
   id="svg1819"
   sodipodi:docname="grow.svg"
   inkscape:version="0.92.3 (2405546, 2018-03-11)">
  <metadata
     id="metadata1825">
    <rdf:RDF>
      <cc:Work
         rdf:about="">
        <dc:format>image/svg+xml</dc:format>
        <dc:type
           rdf:resource="http://purl.org/dc/dcmitype/StillImage" />
      </cc:Work>
    </rdf:RDF>
  </metadata>
  <defs
     id="defs1823" />
  <sodipodi:namedview
     pagecolor="#ffffff"
     bordercolor="#666666"
     borderopacity="1"
     objecttolerance="10"
     gridtolerance="10"
     guidetolerance="10"
     inkscape:pageopacity="0"
     inkscape:pageshadow="2"
     inkscape:window-width="1366"
     inkscape:window-height="716"
     id="namedview1821"
     showgrid="true"
     inkscape:zoom="10.429825"
     inkscape:cx="17.944142"
     inkscape:cy="23.127772"
     inkscape:window-x="-8"
     inkscape:window-y="-8"
     inkscape:window-maximized="1"
     inkscape:current-layer="svg1819">
    <inkscape:grid
       type="xygrid"
       id="grid19562" />
  </sodipodi:namedview>
  <linearGradient
     id="a"
     gradientUnits="userSpaceOnUse"
     x1="21"
     x2="21"
     y1="9"
     y2="2">
    <stop
       offset="0"
       stop-color="#0040dd"
       id="stop1810" />
    <stop
       offset="1"
       stop-color="#0a84ff"
       id="stop1812" />
  </linearGradient>
  <path
     d="m12.962891 3-9.8281254 26.017578h4.6992188l2.109375-6.058594h10.0781246l2.126954 6.058594h4.716796l-7.197265-19.017578h-.658203c-.78514-.0003977-1.547212-.508994-1.847657-1.234375-.300444-.725381-.121326-1.6242529.433594-2.1796875l.566406-.5664063-1.142578-3.0195312zm2.019531 5.5214844 3.769531 10.7929686h-7.541015z"
     fill="#696969"
     id="path1815"
     style="fill:#4b4b4f;fill-opacity:1" />
  <path
     d="m23.994141 2a1.0001477 1.0001477 0 0 0 -.691407.2929688l-5 5a1.0001477 1.0001477 0 0 0 .707032 1.7070312h10a1.0001477 1.0001477 0 0 0 .707031-1.7070312l-5-5a1.0001477 1.0001477 0 0 0 -.722656-.2929688z"
     fill="url(#a)"
     id="path1817"
     style="fill:url(#a)" />
</svg>
