<svg viewBox="0 0 32 32" xmlns="http://www.w3.org/2000/svg" xmlns:xlink="http://www.w3.org/1999/xlink"><linearGradient id="a" gradientUnits="userSpaceOnUse" x1="-1.830508" x2="-1.830508" y1="5.40678" y2="-1.59322"><stop offset="0" stop-color="#0040dd"/><stop offset="1" stop-color="#0a84ff"/></linearGradient><path d="m12.962891 3-9.8281254 26.017578h4.6992188l2.109375-6.058594h10.0781246l2.126954 6.058594h4.716796l-7.197265-19.017578h-.658203c-.78514-.0003977-1.547212-.508994-1.847657-1.234375-.300444-.725381-.121326-1.6242529.433594-2.1796875l.566406-.5664063-1.142578-3.0195312zm2.019531 5.5214844 3.769531 10.7929686h-7.541015z" fill="#696969"/><path d="m23.994141 2a1.0001477 1.0001477 0 0 0 -.691407.2929688l-5 5a1.0001477 1.0001477 0 0 0 .707032 1.7070312h10a1.0001477 1.0001477 0 0 0 .707031-1.7070312l-5-5a1.0001477 1.0001477 0 0 0 -.722656-.2929688z" fill="url(#a)"/></svg>