<?xml version="1.0" encoding="UTF-8" standalone="no"?>
<svg
   xmlns:dc="http://purl.org/dc/elements/1.1/"
   xmlns:cc="http://creativecommons.org/ns#"
   xmlns:rdf="http://www.w3.org/1999/02/22-rdf-syntax-ns#"
   xmlns:svg="http://www.w3.org/2000/svg"
   xmlns="http://www.w3.org/2000/svg"
   xmlns:xlink="http://www.w3.org/1999/xlink"
   xmlns:sodipodi="http://sodipodi.sourceforge.net/DTD/sodipodi-0.dtd"
   xmlns:inkscape="http://www.inkscape.org/namespaces/inkscape"
   viewBox="0 0 32 32"
   version="1.1"
   id="svg8"
   sodipodi:docname="heading3parastyle.svg"
   inkscape:version="0.92.3 (2405546, 2018-03-11)">
  <metadata
     id="metadata14">
    <rdf:RDF>
      <cc:Work
         rdf:about="">
        <dc:format>image/svg+xml</dc:format>
        <dc:type
           rdf:resource="http://purl.org/dc/dcmitype/StillImage" />
        <dc:title></dc:title>
      </cc:Work>
    </rdf:RDF>
  </metadata>
  <defs
     id="defs12">
    <linearGradient
       gradientTransform="translate(-29.694915,1.220339)"
       id="a-6"
       gradientUnits="userSpaceOnUse"
       x1="14"
       x2="13.79661"
       y1="22"
       y2="2.1355929">
      <stop
         offset="0"
         stop-color="#0040dd"
         id="stop2" />
      <stop
         offset="1"
         stop-color="#0a84ff"
         id="stop4" />
    </linearGradient>
    <linearGradient
       inkscape:collect="always"
       xlink:href="#a-6"
       id="linearGradient841"
       x1="25.745762"
       y1="29.050848"
       x2="25.822998"
       y2="15"
       gradientUnits="userSpaceOnUse" />
  </defs>
  <sodipodi:namedview
     pagecolor="#ffffff"
     bordercolor="#666666"
     borderopacity="1"
     objecttolerance="10"
     gridtolerance="10"
     guidetolerance="10"
     inkscape:pageopacity="0"
     inkscape:pageshadow="2"
     inkscape:window-width="1366"
     inkscape:window-height="716"
     id="namedview10"
     showgrid="false"
     inkscape:zoom="7.375"
     inkscape:cx="-9.0169492"
     inkscape:cy="16"
     inkscape:window-x="-8"
     inkscape:window-y="-8"
     inkscape:window-maximized="1"
     inkscape:current-layer="svg8" />
  <path
     d="m3 3v26h4v-12h10v12h4v-1.263672c-.064152-.096805-.137892-.183524-.197266-.285156l-.005859-.009766c-.301637-.529561-.548808-1.122523-.751953-1.777344-.151284-.486048.086661-1.008182.552734-1.21289l.402344-.175781v-4.361329c-.4162-.16874-.687668-.586897-.623047-1.048828.104628-.752035.307608-1.438788.623047-2.048828v-13.816406h-4v10h-10v-10z"
     fill="#696969"
     id="path4"
     style="fill:#4b4b4f;fill-opacity:1" />
  <path
     d="m25.822998 15c-.576796 0-1.11771.08554-1.621582.257487-.497238.16507-.940383.417215-1.331543.754232-.391161.330141-.717021.746611-.975586 1.248698-.258563.495211-.434525 1.076006-.527344 1.743164l1.263428.225586c.324862.05502.574694.03477.74707-.06152.179006-.0963.320193-.301129.426271-.617513.125966-.412676.351895-.761626.676757-1.043619.324862-.281995.728912-.421551 1.21289-.421551.543647 0 .965086.157575 1.263428.473958.304973.316385.457032.786872.457032 1.412761 0 .295752-.03693.563636-.109868.804362-.07293.240727-.2076.45008-.406494.628906-.198895.171949-.47479.307029-.826173.403321-.344751.09632-.787896.148103-1.331542.154948v1.763672c.649723 0 1.162381.05178 1.540282.154947.377901.103168.664668.247239.856934.432943.198894.185704.32489.410841.377931.672201.05967.261361.0879.549502.0879.865885 0 .247606-.04345.495234-.12964.742838-.08619.247606-.214342.470464-.386718.669923-.172375.192583-.391789.350156-.656982.473958-.258565.116924-.562681.175456-.914063.175456-.285083 0-.537074-.04275-.755859-.132162-.218785-.08941-.414295-.210991-.586671-.362305-.165745-.158192-.315646-.336022-.448241-.535481-.132597-.206338-.258593-.426958-.37793-.660807-.09945-.213219-.271054-.348301-.516358-.403321-.238673-.0619-.49718-.03261-.775634.08432l-1.054693.462552c.185635.598377.407207 1.125158.665772 1.579101.265193.453943.578023.836652.936035 1.146159.36464.302628.783881.527723 1.26123.679037.483977.151314 1.042285.227864 1.672119.227864.596686 0 1.163668-.09005 1.700684-.268881.543645-.178825 1.01721-.446709 1.421631-.804361.411049-.357651.736911-.796614.975586-1.319336.245302-.5296.366943-1.141919.366943-1.836589 0-1.58192-.75162-2.637718-2.256591-3.167318.318231-.110051.602802-.25188.854735-.423828.251934-.171946.464831-.3813.637207-.628906.172375-.247604.300531-.535745.386719-.865885.09281-.33014.138428-.71285.138428-1.146159 0-.488332-.09123-.945314-.276855-1.371745-.179005-.433309-.437514-.809266-.775636-1.125651-.338121-.323261-.753044-.577642-1.243651-.763347-.48398-.185703-1.031414-.277994-1.641358-.277994z"
     fill="#4d82b8"
     id="path6"
     style="fill-opacity:1;fill:url(#linearGradient841)" />
</svg>
