<?xml version="1.0" encoding="UTF-8" standalone="no"?>
<svg
   xmlns:dc="http://purl.org/dc/elements/1.1/"
   xmlns:cc="http://creativecommons.org/ns#"
   xmlns:rdf="http://www.w3.org/1999/02/22-rdf-syntax-ns#"
   xmlns:svg="http://www.w3.org/2000/svg"
   xmlns="http://www.w3.org/2000/svg"
   xmlns:xlink="http://www.w3.org/1999/xlink"
   xmlns:sodipodi="http://sodipodi.sourceforge.net/DTD/sodipodi-0.dtd"
   xmlns:inkscape="http://www.inkscape.org/namespaces/inkscape"
   viewBox="0 0 32 32"
   version="1.1"
   id="svg8"
   sodipodi:docname="heading4parastyle.svg"
   inkscape:version="0.92.3 (2405546, 2018-03-11)">
  <metadata
     id="metadata14">
    <rdf:RDF>
      <cc:Work
         rdf:about="">
        <dc:format>image/svg+xml</dc:format>
        <dc:type
           rdf:resource="http://purl.org/dc/dcmitype/StillImage" />
        <dc:title></dc:title>
      </cc:Work>
    </rdf:RDF>
  </metadata>
  <defs
     id="defs12">
    <linearGradient
       gradientTransform="translate(-29.694915,1.220339)"
       id="a-6"
       gradientUnits="userSpaceOnUse"
       x1="14"
       x2="13.79661"
       y1="22"
       y2="2.1355929">
      <stop
         offset="0"
         stop-color="#0040dd"
         id="stop2" />
      <stop
         offset="1"
         stop-color="#0a84ff"
         id="stop4" />
    </linearGradient>
    <linearGradient
       inkscape:collect="always"
       xlink:href="#a-6"
       id="linearGradient841"
       x1="26.706654"
       y1="29"
       x2="26.525202"
       y2="15.000001"
       gradientUnits="userSpaceOnUse" />
  </defs>
  <sodipodi:namedview
     pagecolor="#ffffff"
     bordercolor="#666666"
     borderopacity="1"
     objecttolerance="10"
     gridtolerance="10"
     guidetolerance="10"
     inkscape:pageopacity="0"
     inkscape:pageshadow="2"
     inkscape:window-width="1366"
     inkscape:window-height="716"
     id="namedview10"
     showgrid="false"
     inkscape:zoom="14.75"
     inkscape:cx="8.5778658"
     inkscape:cy="16.898232"
     inkscape:window-x="-8"
     inkscape:window-y="-8"
     inkscape:window-maximized="1"
     inkscape:current-layer="svg8" />
  <path
     d="m3 3v26h4v-12h10v12h4v-2.236328c-.071446-.0435-.154489-.075317-.214844-.126953-.01539-.01321-.030372-.026886-.044922-.041016-.259178-.250777-.433143-.599323-.496093-.935547l-.003907-.017578-.226562-1.33789c-.040118-.236816.006332-.480159.130859-.685547l.855469-1.414063v-19.205078h-4v10h-10v-10z"
     fill="#696969"
     id="path4"
     style="fill:#4b4b4f;fill-opacity:1" />
  <path
     d="m28.611895 24h1.388105v1.518246c0 .140457-.03931.259846-.117944.358165-.07863.09832-.187501.147478-.326614.147478h-.943547v2.976111h-1.905242v-2.976111h-4.890121c-.139113 0-.26613-.04916-.381049-.147478-.108871-.105342-.178427-.238776-.20867-.400301l-.226814-1.339164 5.525202-9.136945h2.086694zm-1.905242-4.64936c0-.203662.003-.424881.0091-.663657.01209-.245799.03326-.49862.0635-.758465l-3.474799 6.071482h3.402218v-4.64936z"
     fill="#4d82b8"
     id="path6"
     style="fill-opacity:1;fill:url(#linearGradient841)" />
</svg>
