<?xml version="1.0" encoding="UTF-8" standalone="no"?>
<svg
   xmlns:dc="http://purl.org/dc/elements/1.1/"
   xmlns:cc="http://creativecommons.org/ns#"
   xmlns:rdf="http://www.w3.org/1999/02/22-rdf-syntax-ns#"
   xmlns:svg="http://www.w3.org/2000/svg"
   xmlns="http://www.w3.org/2000/svg"
   xmlns:xlink="http://www.w3.org/1999/xlink"
   xmlns:sodipodi="http://sodipodi.sourceforge.net/DTD/sodipodi-0.dtd"
   xmlns:inkscape="http://www.inkscape.org/namespaces/inkscape"
   viewBox="0 0 32 32"
   version="1.1"
   id="svg8"
   sodipodi:docname="heading2parastyle.svg"
   inkscape:version="0.92.3 (2405546, 2018-03-11)">
  <metadata
     id="metadata14">
    <rdf:RDF>
      <cc:Work
         rdf:about="">
        <dc:format>image/svg+xml</dc:format>
        <dc:type
           rdf:resource="http://purl.org/dc/dcmitype/StillImage" />
        <dc:title></dc:title>
      </cc:Work>
    </rdf:RDF>
  </metadata>
  <defs
     id="defs12">
    <linearGradient
       gradientTransform="translate(-29.694915,1.220339)"
       id="a-6"
       gradientUnits="userSpaceOnUse"
       x1="14"
       x2="13.79661"
       y1="22"
       y2="2.1355929">
      <stop
         offset="0"
         stop-color="#0040dd"
         id="stop2" />
      <stop
         offset="1"
         stop-color="#0a84ff"
         id="stop4" />
    </linearGradient>
    <linearGradient
       inkscape:collect="always"
       xlink:href="#a-6"
       id="linearGradient841"
       x1="25.830509"
       y1="28.779661"
       x2="25.222168"
       y2="15"
       gradientUnits="userSpaceOnUse" />
  </defs>
  <sodipodi:namedview
     pagecolor="#ffffff"
     bordercolor="#666666"
     borderopacity="1"
     objecttolerance="10"
     gridtolerance="10"
     guidetolerance="10"
     inkscape:pageopacity="0"
     inkscape:pageshadow="2"
     inkscape:window-width="1366"
     inkscape:window-height="716"
     id="namedview10"
     showgrid="false"
     inkscape:zoom="7.375"
     inkscape:cx="-3.3220339"
     inkscape:cy="16"
     inkscape:window-x="-8"
     inkscape:window-y="-8"
     inkscape:window-maximized="1"
     inkscape:current-layer="svg8" />
  <path
     d="m3 3v26h4v-12h10v12h2v-.845703c0-.29865.061965-.58692.162109-.857422.0025-.00719.005113-.014384.007813-.021484.139717-.353123.371393-.652998.640625-.894532l1.189453-1.146484v-5.050781l-.9375-.152344c-.546227-.088802-.916452-.604406-.826172-1.150391.127614-.772504.363615-1.475481.720703-2.09375 0 0 .001953-.001953.001953-.001953v-.001953c.281991-.493257.63218-.929083 1.041016-1.300781v-12.482422h-4v10h-10v-10z"
     fill="#696969"
     id="path4"
     style="fill:#4b4b4f;fill-opacity:1" />
  <path
     d="m25.222168 15c-.64588 0-1.249748.08603-1.813966.259765-.564214.166791-1.065894.420537-1.503905.761068-.430587.333582-.78957.755048-1.079101 1.26237-.289533.500371-.491669 1.087281-.603029 1.761393l1.425781.230143c.356348.0556.634518.03349.834962-.0638.207868-.09729.37194-.304666.490722-.624349.06681-.208488.16188-.402643.288087-.583333.126205-.180691.278369-.337359.456542-.469401.178175-.13204.38031-.238006.603028-.314453.222717-.07645.467602-.113937.734864-.113937.623607 0 1.106254.163276 1.447753.489908.341501.326632.512696.809854.512696 1.449219 0 .35443-.04997.694202-.146484 1.020834-.09651.319683-.24155.639627-.43457.959309-.185597.312732-.418576.630513-.700685.950196-.274684.319682-.59326.65501-.957031 1.00944l-4.299316 4.140299c-.178172.159842-.304177.331892-.378419.519532-.066816.180693-.100097.350578-.100097.51042v.845377h10v-1.501627c0-.250187-.08793-.450948-.266114-.603842-.170749-.152892-.399043-.230143-.681152-.230143h-3.352051c-.289531 0-.600982.02871-.935057.08432-.334077.04865-.666902.121457-1.000977.21875l3.139649-3.076171c.386042-.375279.754591-.745928 1.103514-1.114258.348925-.375279.653249-.756982.913087-1.146159.259837-.396128.466657-.810986.622559-1.241861.155901-.437827.234375-.909997.234375-1.417318 0-.590718-.11175-1.129086-.334472-1.615561-.215294-.493432-.524403-.914899-.925294-1.26238-.393467-.347481-.871329-.614445-1.435547-.802083-.556792-.19459-1.177352-.291667-1.860352-.291667z"
     fill="#4d82b8"
     id="path6"
     style="fill-opacity:1;fill:url(#linearGradient841)" />
</svg>
