<?xml version="1.0" encoding="UTF-8" standalone="no"?>
<svg
   xmlns:dc="http://purl.org/dc/elements/1.1/"
   xmlns:cc="http://creativecommons.org/ns#"
   xmlns:rdf="http://www.w3.org/1999/02/22-rdf-syntax-ns#"
   xmlns:svg="http://www.w3.org/2000/svg"
   xmlns="http://www.w3.org/2000/svg"
   xmlns:xlink="http://www.w3.org/1999/xlink"
   xmlns:sodipodi="http://sodipodi.sourceforge.net/DTD/sodipodi-0.dtd"
   xmlns:inkscape="http://www.inkscape.org/namespaces/inkscape"
   viewBox="0 0 32 32"
   version="1.1"
   id="svg8"
   sodipodi:docname="heading1parastyle.svg"
   inkscape:version="0.92.3 (2405546, 2018-03-11)">
  <metadata
     id="metadata14">
    <rdf:RDF>
      <cc:Work
         rdf:about="">
        <dc:format>image/svg+xml</dc:format>
        <dc:type
           rdf:resource="http://purl.org/dc/dcmitype/StillImage" />
        <dc:title></dc:title>
      </cc:Work>
    </rdf:RDF>
  </metadata>
  <defs
     id="defs12">
    <linearGradient
       gradientTransform="translate(-29.694915,1.220339)"
       id="a-6"
       gradientUnits="userSpaceOnUse"
       x1="14"
       x2="13.79661"
       y1="22"
       y2="2.1355929">
      <stop
         offset="0"
         stop-color="#0040dd"
         id="stop2" />
      <stop
         offset="1"
         stop-color="#0a84ff"
         id="stop4" />
    </linearGradient>
    <linearGradient
       inkscape:collect="always"
       xlink:href="#a-6"
       id="linearGradient841"
       x1="27.101698"
       y1="28.372881"
       x2="27"
       y2="14.999999"
       gradientUnits="userSpaceOnUse" />
  </defs>
  <sodipodi:namedview
     pagecolor="#ffffff"
     bordercolor="#666666"
     borderopacity="1"
     objecttolerance="10"
     gridtolerance="10"
     guidetolerance="10"
     inkscape:pageopacity="0"
     inkscape:pageshadow="2"
     inkscape:window-width="1366"
     inkscape:window-height="716"
     id="namedview10"
     showgrid="false"
     inkscape:zoom="7.375"
     inkscape:cx="-9.0169492"
     inkscape:cy="16"
     inkscape:window-x="-8"
     inkscape:window-y="-8"
     inkscape:window-maximized="1"
     inkscape:current-layer="svg8" />
  <path
     d="m3 3v26h4v-12h10v12h3.960938v-2a1.0001 1.0001 0 0 1  .039062-.273438v-6.332031c-.026984-.03306-.058211-.050631-.083984-.08789a1.0001 1.0001 0 0 1 -.007813-.011719l-.738281-1.09375a1.0001 1.0001 0 0 1  .15625-1.298828l.673828-.613282v-14.289062h-4v10h-10v-10z"
     fill="#696969"
     id="path4"
     style="fill:#4b4b4f;fill-opacity:1" />
  <path
     d="m21.961166 27 2.621355.000001v-7.726317c0-.322807.0097-.659649.02913-1.010526l-1.805821 1.56842c-.110033.09824-.220065.157894-.330097.178947-.110033.02105-.213593.02105-.310681 0-.09709-.02105-.184466-.05614-.262135-.105263-.0712-.05614-.126214-.11228-.165049-.168421l-.737864-1.094736 3.999996-3.642105 2-.000001v12.000001h2.000004v2h-7.038835z"
     fill="#4d82b8"
     id="path6"
     style="fill-opacity:1;fill:url(#linearGradient841)" />
</svg>
