<svg viewBox="0 0 32 32" xmlns="http://www.w3.org/2000/svg" xmlns:xlink="http://www.w3.org/1999/xlink"><filter id="a" color-interpolation-filters="sRGB" height="1.094553" width="1.097492" x="-.048746" y="-.047277"><feGaussianBlur stdDeviation=".36559322"/></filter><path d="m4 24.940678h24v2.559322h-24z" filter="url(#a)" opacity=".15" stroke-width="1.015418"/><path d="m4 8v9.685547 8.314453h10.701172 2.597656 10.701172v-8.314453-9.685547z" fill="#fff"/><path d="m3 7v11.257812 8.742188h11.316406 3.367188 11.316406v-8.742188-11.257812zm1 1h24v9.685547 8.314453h-10.701172-2.597656-10.701172v-8.314453z" fill="#98989d"/><path d="m7 11h18v2h-18z" fill="#ff9500"/><path d="m2 5h28v2h-28z" fill="#69696e"/><g fill="#98989d" transform="translate(0 1)"><path d="m7 15h1v1h-1z"/><path d="m7 21h1v1h-1z"/><path d="m7 18h1v1h-1z"/><path d="m10 15h14v1h-14z"/><path d="m10 21h9v1h-9z"/><path d="m10 18h11v1h-11z"/></g><path d="m3.5 26.5 25-19h-25z" fill="#fff" fill-rule="evenodd" stroke="#98989d" stroke-linejoin="bevel"/></svg>