<svg viewBox="0 0 32 32" xmlns="http://www.w3.org/2000/svg" xmlns:xlink="http://www.w3.org/1999/xlink"><linearGradient id="a" gradientUnits="userSpaceOnUse" x1="90" x2="90" y1="-2" y2="-4"><stop offset="0" stop-color="#0040dd"/><stop offset="1" stop-color="#0a84ff"/></linearGradient><path d="m5 8v9.685547 8.314453h9.701172 2.597656 9.701172v-8.314453-9.685547z" fill="#fff"/><path d="m4 7v11.257812 8.742188h10.316406 3.367188 10.316406v-8.742188-11.257812zm1 1h22v9.685547 8.314453h-9.701172-2.597656-9.701172v-8.314453z" fill="#98989d"/><path d="m7 11h18v2h-18z" fill="#ff9500"/><path d="m3 3h26v2h-26z" fill="url(#a)"/><g fill="#98989d"><path d="m7 15h8v1h-8z"/><path d="m7 21h8v1h-8z"/><path d="m7 18h8v1h-8z"/><path d="m17 15h8v1h-8z"/><path d="m17 21h8v1h-8z"/><path d="m17 18h8v1h-8z"/></g><path d="m4.5 26.5 23-19h-23z" fill="#fff" fill-rule="evenodd" stroke="#98989d" stroke-linejoin="bevel"/></svg>