<?xml version="1.0" encoding="UTF-8" standalone="no"?>
<svg
   xmlns:dc="http://purl.org/dc/elements/1.1/"
   xmlns:cc="http://creativecommons.org/ns#"
   xmlns:rdf="http://www.w3.org/1999/02/22-rdf-syntax-ns#"
   xmlns:svg="http://www.w3.org/2000/svg"
   xmlns="http://www.w3.org/2000/svg"
   xmlns:xlink="http://www.w3.org/1999/xlink"
   xmlns:sodipodi="http://sodipodi.sourceforge.net/DTD/sodipodi-0.dtd"
   xmlns:inkscape="http://www.inkscape.org/namespaces/inkscape"
   viewBox="0 0 32 32"
   version="1.1"
   id="svg22"
   sodipodi:docname="hyphenate.svg"
   inkscape:version="0.92.3 (2405546, 2018-03-11)">
  <metadata
     id="metadata28">
    <rdf:RDF>
      <cc:Work
         rdf:about="">
        <dc:format>image/svg+xml</dc:format>
        <dc:type
           rdf:resource="http://purl.org/dc/dcmitype/StillImage" />
        <dc:title></dc:title>
      </cc:Work>
    </rdf:RDF>
  </metadata>
  <defs
     id="defs26">
    <linearGradient
       gradientTransform="translate(-29.694915,1.220339)"
       id="a-6"
       gradientUnits="userSpaceOnUse"
       x1="14"
       x2="13.79661"
       y1="22"
       y2="2.1355929">
      <stop
         offset="0"
         stop-color="#0040dd"
         id="stop2" />
      <stop
         offset="1"
         stop-color="#0a84ff"
         id="stop4" />
    </linearGradient>
    <linearGradient
       inkscape:collect="always"
       xlink:href="#a-6"
       id="linearGradient903"
       x1="22"
       y1="28.5"
       x2="22"
       y2="16"
       gradientUnits="userSpaceOnUse" />
    <linearGradient
       inkscape:collect="always"
       xlink:href="#a-6"
       id="linearGradient905"
       x1="22"
       y1="28.5"
       x2="22"
       y2="16"
       gradientUnits="userSpaceOnUse" />
  </defs>
  <sodipodi:namedview
     pagecolor="#ffffff"
     bordercolor="#666666"
     borderopacity="1"
     objecttolerance="10"
     gridtolerance="10"
     guidetolerance="10"
     inkscape:pageopacity="0"
     inkscape:pageshadow="2"
     inkscape:window-width="1366"
     inkscape:window-height="716"
     id="namedview24"
     showgrid="true"
     inkscape:snap-global="true"
     inkscape:zoom="16"
     inkscape:cx="19.238851"
     inkscape:cy="7.948233"
     inkscape:window-x="-8"
     inkscape:window-y="-8"
     inkscape:window-maximized="1"
     inkscape:current-layer="svg22">
    <inkscape:grid
       type="xygrid"
       id="grid835" />
  </sodipodi:namedview>
  <path
     inkscape:connector-curvature="0"
     id="rect16"
     d="M 26.865234,16 C 26.386353,16 26,16.446 26,17 v 1.980469 a 3,3 0 0 1 -3,3 V 22 h -2 v 2 h 2 v -0.01953 a 5,5 0 0 0 5,-5 V 17 c 0,-0.554 -0.386353,-1 -0.865234,-1 z"
     style="stroke:none;fill-opacity:1;fill:url(#linearGradient903)" />
  <path
     style="fill:url(#linearGradient905);fill-opacity:1;stroke:none;stroke-width:2;stroke-linecap:round;stroke-linejoin:round"
     d="m 20.014812,17.001619 a 0.99897515,0.99897515 0 0 1 0.982422,0.998047 v 10 a 0.99897515,0.99897515 0 0 1 -1.705078,0.707031 l -5,-5 a 0.99897515,0.99897515 0 0 1 0,-1.414063 l 5,-5 a 0.99897515,0.99897515 0 0 1 0.722656,-0.291015 z"
     id="path12"
     inkscape:connector-curvature="0" />
  <g
     aria-label="AB"
     style="font-style:normal;font-weight:normal;font-size:16.87509727px;line-height:1.25;font-family:sans-serif;letter-spacing:0px;word-spacing:0px;fill:#4b4b4f;fill-opacity:1;stroke:none;stroke-width:0.42187744"
     id="text839">
    <path
       d="M 10.679488,12.195611 H 5.9828053 l -0.955816,2.80153 H 3 L 7.4082896,3.0000014 H 9.3034421 L 13.662293,14.997141 H 11.627064 Z M 6.5595909,10.522933 H 10.110942 L 8.3723455,5.3977814 h -0.049439 z"
       style="font-style:normal;font-variant:normal;font-weight:500;font-stretch:normal;font-family:Roboto;-inkscape-font-specification:'Roboto Medium';stroke-width:0.42187744;fill:#4b4b4f;fill-opacity:1"
       id="path848" />
    <path
       d="M 15.054818,14.997141 V 3.0000014 h 3.98806 q 1.99403,0 3.114642,0.8239794 1.120612,0.8157395 1.120612,2.4472187 0,0.8157395 -0.469668,1.4584434 -0.469668,0.6427039 -1.301887,0.9558161 1.071173,0.238954 1.647958,1.0299742 0.576786,0.7910198 0.576786,1.8374738 0,1.689158 -1.104132,2.570816 -1.104133,0.873418 -3.048724,0.873418 z m 2.00227,-5.4547435 v 3.8562235 h 2.521377 q 1.038214,0 1.59852,-0.469668 0.560306,-0.477908 0.560306,-1.376046 0,-0.955816 -0.469668,-1.483163 -0.469669,-0.5273465 -1.466684,-0.5273465 z m 0,-1.4914026 h 2.208265 q 0.931097,0 1.466683,-0.4367091 0.543826,-0.4449488 0.543826,-1.2524486 0,-0.8898977 -0.568545,-1.318367 -0.568546,-0.436709 -1.664439,-0.436709 h -1.98579 z"
       style="font-style:normal;font-variant:normal;font-weight:500;font-stretch:normal;font-family:Roboto;-inkscape-font-specification:'Roboto Medium';stroke-width:0.42187744;fill:#4b4b4f;fill-opacity:1"
       id="path850" />
  </g>
  <g
     aria-label="C"
     style="font-style:normal;font-weight:normal;font-size:16.87509727px;line-height:1.25;font-family:sans-serif;letter-spacing:0px;word-spacing:0px;fill:#4b4b4f;fill-opacity:1;stroke:none;stroke-width:0.42187744"
     id="text843">
    <path
       d="m 12.18737,24.847143 0.01648,0.04944 q 0.03296,1.820994 -1.18653,2.966326 -1.2112495,1.137091 -3.2876775,1.137091 -2.1011473,0 -3.4195143,-1.409005 Q 3,26.17375 3,23.973725 v -2.282423 q 0,-2.191785 1.2936476,-3.609029 1.3018874,-1.425485 3.3783154,-1.425485 2.1258667,0 3.345356,1.120612 1.227729,1.112372 1.19477,2.999285 l -0.01648,0.04944 h -1.936352 q 0,-1.21125 -0.6591833,-1.886913 -0.6509437,-0.675663 -1.9281117,-0.675663 -1.2277293,0 -1.9528311,0.972296 -0.716862,0.972295 -0.716862,2.438979 v 2.298902 q 0,1.483163 0.7333416,2.455458 0.7415814,0.972296 1.99403,0.972296 1.2442089,0 1.8869128,-0.667423 0.6427037,-0.667423 0.6427037,-1.886913 z"
       style="font-style:normal;font-variant:normal;font-weight:500;font-stretch:normal;font-family:Roboto;-inkscape-font-specification:'Roboto Medium';stroke-width:0.42187744;fill:#4b4b4f;fill-opacity:1"
       id="path845" />
  </g>
</svg>
