<?xml version="1.0" encoding="UTF-8" standalone="no"?>
<svg
   xmlns:dc="http://purl.org/dc/elements/1.1/"
   xmlns:cc="http://creativecommons.org/ns#"
   xmlns:rdf="http://www.w3.org/1999/02/22-rdf-syntax-ns#"
   xmlns:svg="http://www.w3.org/2000/svg"
   xmlns="http://www.w3.org/2000/svg"
   xmlns:xlink="http://www.w3.org/1999/xlink"
   xmlns:sodipodi="http://sodipodi.sourceforge.net/DTD/sodipodi-0.dtd"
   xmlns:inkscape="http://www.inkscape.org/namespaces/inkscape"
   viewBox="0 0 32 32"
   version="1.1"
   id="svg14"
   sodipodi:docname="incrementindent.svg"
   inkscape:version="0.92.3 (unknown)">
  <metadata
     id="metadata20">
    <rdf:RDF>
      <cc:Work
         rdf:about="">
        <dc:format>image/svg+xml</dc:format>
        <dc:type
           rdf:resource="http://purl.org/dc/dcmitype/StillImage" />
        <dc:title></dc:title>
      </cc:Work>
    </rdf:RDF>
  </metadata>
  <defs
     id="defs18">
    <linearGradient
       gradientTransform="translate(-25.830508,-3.5932203)"
       id="a"
       gradientUnits="userSpaceOnUse"
       x1="14"
       x2="13.79661"
       y1="22"
       y2="2.1355929">
      <stop
         offset="0"
         stop-color="#0040dd"
         id="stop2" />
      <stop
         offset="1"
         stop-color="#0a84ff"
         id="stop4" />
    </linearGradient>
    <linearGradient
       inkscape:collect="always"
       xlink:href="#a"
       id="linearGradient879"
       gradientUnits="userSpaceOnUse"
       gradientTransform="matrix(-1,0,0,1,-29.010942,26.95119)"
       x1="-31.010942"
       y1="-4.95119"
       x2="-31.010942"
       y2="-16.951191" />
    <linearGradient
       inkscape:collect="always"
       xlink:href="#a"
       id="linearGradient857"
       gradientUnits="userSpaceOnUse"
       gradientTransform="matrix(-1,0,0,1,-65.010944,26.95119)"
       x1="-31.010942"
       y1="-4.95119"
       x2="-31.010942"
       y2="-16.951191" />
    <linearGradient
       inkscape:collect="always"
       xlink:href="#a"
       id="linearGradient858"
       gradientUnits="userSpaceOnUse"
       gradientTransform="matrix(-1,0,0,1,-29.010944,26.95119)"
       x1="-31.010942"
       y1="-4.95119"
       x2="-31.010942"
       y2="-16.951191" />
  </defs>
  <sodipodi:namedview
     pagecolor="#ffffff"
     bordercolor="#666666"
     borderopacity="1"
     objecttolerance="10"
     gridtolerance="10"
     guidetolerance="10"
     inkscape:pageopacity="0"
     inkscape:pageshadow="2"
     inkscape:window-width="1366"
     inkscape:window-height="706"
     id="namedview16"
     showgrid="false"
     inkscape:zoom="14.75"
     inkscape:cx="9.7199452"
     inkscape:cy="16.677423"
     inkscape:window-x="0"
     inkscape:window-y="0"
     inkscape:window-maximized="1"
     inkscape:current-layer="g12" />
  <g
     transform="matrix(-1 0 0 1 31.999999 0)"
     id="g12">
    <path
       d="m3.5000005 3c-.277 0-.5.223-.5.5s.223.5.5.5h24.9999985c.277 0 .5-.223.5-.5s-.223-.5-.5-.5zm0 4c-.277 0-.5.223-.5.5s.223.5.5.5h24.9999985c.277 0 .5-.223.5-.5s-.223-.5-.5-.5zm14.9999985 4c-.277 0-.5.223-.5.5s.223.5.5.5h10c .277 0 .5-.223.5-.5s-.223-.5-.5-.5zm0 4c-.277 0-.5.223-.5.5s.223.5.5.5h10c .277 0 .5-.223.5-.5s-.223-.5-.5-.5zm0 4c-.277 0-.5.223-.5.5s.223.5.5.5h10c .277 0 .5-.223.5-.5s-.223-.5-.5-.5zm-14.9999985 5c-.277 0-.5.223-.5.5s.223.5.5.5h24.9999985c.277 0 .5-.223.5-.5s-.223-.5-.5-.5zm0 4c-.277 0-.5.223-.5.5s.223.5.5.5h24.9999985c.277 0 .5-.223.5-.5s-.223-.5-.5-.5z"
       fill="#808080"
       id="path2"
       style="fill:#69696e;fill-opacity:1" />
    <path
       d="m3.5000005 4c-.277 0-.5.223-.5.5s.223.5.5.5h24.9999985c.277 0 .5-.223.5-.5s-.223-.5-.5-.5zm0 4c-.277 0-.5.223-.5.5s.223.5.5.5h24.9999985c.277 0 .5-.223.5-.5s-.223-.5-.5-.5zm14.9999985 4c-.277 0-.5.223-.5.5s.223.5.5.5h10c .277 0 .5-.223.5-.5s-.223-.5-.5-.5zm0 4c-.277 0-.5.223-.5.5s.223.5.5.5h10c .277 0 .5-.223.5-.5s-.223-.5-.5-.5zm0 4c-.277 0-.5.223-.5.5s.223.5.5.5h10c .277 0 .5-.223.5-.5s-.223-.5-.5-.5zm-14.9999985 5c-.277 0-.5.223-.5.5s.223.5.5.5h24.9999985c.277 0 .5-.223.5-.5s-.223-.5-.5-.5zm0 4c-.277 0-.5.223-.5.5s.223.5.5.5h24.9999985c.277 0 .5-.223.5-.5s-.223-.5-.5-.5z"
       fill="#e9e9e9"
       fill-opacity=".992157"
       id="path4" />
    <path
       id="path855"
       d="m 15.00004,15.989883 -5,-5 v 3.990234 L 3.4999995,15 c -0.277,8.47e-4 -0.5,0.223 -0.5,0.5 v 1 c 0,0.277001 0.223,0.500847 0.5,0.5 L 10.00004,16.98012 v 4 0.0098 z"
       style="fill:url(#linearGradient857);fill-opacity:1;stroke:url(#linearGradient857);stroke-width:2;stroke-linecap:round;stroke-linejoin:round"
       inkscape:connector-curvature="0"
       sodipodi:nodetypes="cccsssscccc" />
  </g>
</svg>
