<?xml version="1.0" encoding="UTF-8" standalone="no"?>
<svg
   xmlns:dc="http://purl.org/dc/elements/1.1/"
   xmlns:cc="http://creativecommons.org/ns#"
   xmlns:rdf="http://www.w3.org/1999/02/22-rdf-syntax-ns#"
   xmlns:svg="http://www.w3.org/2000/svg"
   xmlns="http://www.w3.org/2000/svg"
   xmlns:xlink="http://www.w3.org/1999/xlink"
   xmlns:sodipodi="http://sodipodi.sourceforge.net/DTD/sodipodi-0.dtd"
   xmlns:inkscape="http://www.inkscape.org/namespaces/inkscape"
   viewBox="0 0 32 32"
   version="1.1"
   id="svg22"
   sodipodi:docname="insertpagenumberfield.svg"
   inkscape:version="0.92.3 (unknown)">
  <metadata
     id="metadata28">
    <rdf:RDF>
      <cc:Work
         rdf:about="">
        <dc:format>image/svg+xml</dc:format>
        <dc:type
           rdf:resource="http://purl.org/dc/dcmitype/StillImage" />
        <dc:title></dc:title>
      </cc:Work>
    </rdf:RDF>
  </metadata>
  <defs
     id="defs26">
    <linearGradient
       gradientTransform="translate(75,-7)"
       id="a-367"
       gradientUnits="userSpaceOnUse"
       x1="14"
       x2="13.79661"
       y1="22"
       y2="2.1355929">
      <stop
         offset="0"
         stop-color="#0040dd"
         id="stop2206" />
      <stop
         offset="1"
         stop-color="#0a84ff"
         id="stop2208" />
    </linearGradient>
    <linearGradient
       inkscape:collect="always"
       xlink:href="#a-367"
       id="linearGradient2675"
       x1="21.780487"
       y1="29.94449"
       x2="21.988281"
       y2="18"
       gradientUnits="userSpaceOnUse" />
  </defs>
  <sodipodi:namedview
     pagecolor="#ffffff"
     bordercolor="#666666"
     borderopacity="1"
     objecttolerance="10"
     gridtolerance="10"
     guidetolerance="10"
     inkscape:pageopacity="0"
     inkscape:pageshadow="2"
     inkscape:window-width="1366"
     inkscape:window-height="706"
     id="namedview24"
     showgrid="false"
     inkscape:zoom="10.429825"
     inkscape:cx="4.068682"
     inkscape:cy="12.638795"
     inkscape:window-x="0"
     inkscape:window-y="0"
     inkscape:window-maximized="1"
     inkscape:current-layer="svg22" />
  <radialGradient
     id="a"
     cx="22"
     cy="9.076923"
     gradientTransform="matrix(1.3 .00000001 -.00000002 1.5 -6.6 -6.615385)"
     gradientUnits="userSpaceOnUse"
     r="10">
    <stop
       offset="0"
       stop-color="#d7d7d7"
       id="stop2" />
    <stop
       offset=".29999998"
       stop-color="#f7f7f7"
       id="stop4" />
    <stop
       offset="1"
       stop-color="#fff"
       id="stop6" />
  </radialGradient>
  <linearGradient
     id="b"
     gradientUnits="userSpaceOnUse"
     x1="20"
     x2="23"
     y1="9"
     y2="6">
    <stop
       offset="0"
       stop-color="#fff"
       id="stop9" />
    <stop
       offset=".77967989"
       stop-color="#f1f1f1"
       id="stop11" />
    <stop
       offset="1"
       stop-color="#d5d5d5"
       id="stop13" />
  </linearGradient>
  <g
     id="g838">
    <path
       id="path16"
       d="m6 3v26h19.99762l.00238-19-7-7z"
       fill="url(#a)" />
    <path
       id="path18"
       d="m5.9976202 2c-.554 0-1 .446-1 1v26c0 .554.446 1 1 1h19.9999998c.554 0 .892483-.456533 1-1v-10.109375-10.5052752l-6.508082-6.3853498zm0 1h12.9999998v6c0 .6726441.491378 1 1 1h6v19h-19.9999998z"
       fill="#98989d" />
    <path
       id="path20"
       d="m20 9h6l-6-6z"
       fill-rule="evenodd"
       fill="url(#b)" />
  </g>
  <path
     style="fill:#ffffff;fill-opacity:0.78431374"
     d="M 21.988281 17 C 20.903894 17 19.999999 17.903895 20 18.988281 L 20 19 L 19.988281 19 C 18.903894 19 17.999996 19.903896 18 20.988281 L 18 21.011719 C 18 22.096104 18.903895 23 19.988281 23 L 20 23 L 20 25 L 19.964844 25 C 18.893067 25 18 25.893061 18 26.964844 L 18 27.035156 C 18 28.106939 18.893067 29 19.964844 29 L 20 29 L 20 29.011719 C 20 29.371335 20.106862 29.706469 20.279297 30 L 23.720703 30 C 23.893138 29.706468 24 29.371335 24 29.011719 L 24 29 L 25.998047 29 L 26 29 L 26 29.011719 C 26 29.349521 26.096438 29.664411 26.25 29.945312 C 26.650242 29.826321 26.908602 29.452116 26.998047 29 L 26.998047 18.890625 L 26.998047 17.28125 C 26.40771 17.62909 26 18.264444 26 18.988281 L 26 19 L 25.998047 19 L 24 19 L 24 18.988281 C 24 17.903895 23.096104 17 22.011719 17 L 21.988281 17 z M 24 23 L 25.998047 23 L 26 23 L 26 25 L 25.998047 25 L 24 25 L 24 23 z "
     id="path1503" />
  <path
     inkscape:connector-curvature="0"
     style="fill:url(#linearGradient2675);fill-opacity:1"
     d="M 21.988281,18 C 21.440921,18 21,18.440921 21,18.988281 V 20 H 19.988281 C 19.440921,20 19,20.440921 19,20.988281 v 0.02344 C 19,21.559079 19.440921,22 19.988281,22 H 21 v 4 H 19.964844 C 19.430763,26 19,26.430763 19,26.964844 v 0.07031 C 19,27.569237 19.430763,28 19.964844,28 H 21 v 1.011719 C 21,29.559079 21.440921,30 21.988281,30 h 0.02344 C 22.559079,30 23,29.559079 23,29.011719 V 28 h 4 v 1.011719 C 27,29.559079 27.440921,30 27.988281,30 h 0.02344 C 28.559079,30 29,29.559079 29,29.011719 V 28 h 1.035156 C 30.569237,28 31,27.569237 31,27.035156 v -0.07031 C 31,26.430763 30.569237,26 30.035156,26 H 29 v -4 h 1.011719 C 30.559079,22 31,21.559079 31,21.011719 v -0.02344 C 31,20.440921 30.559079,20 30.011719,20 H 29 V 18.988281 C 29,18.440921 28.559079,18 28.011719,18 h -0.02344 C 27.440921,18 27,18.440921 27,18.988281 V 20 H 23 V 18.988281 C 23,18.440921 22.559079,18 22.011719,18 Z M 23,22 h 4 v 4 h -4 z"
     id="path8" />
</svg>
