<?xml version="1.0" encoding="UTF-8" standalone="no"?>
<svg
   xmlns:dc="http://purl.org/dc/elements/1.1/"
   xmlns:cc="http://creativecommons.org/ns#"
   xmlns:rdf="http://www.w3.org/1999/02/22-rdf-syntax-ns#"
   xmlns:svg="http://www.w3.org/2000/svg"
   xmlns="http://www.w3.org/2000/svg"
   xmlns:xlink="http://www.w3.org/1999/xlink"
   xmlns:sodipodi="http://sodipodi.sourceforge.net/DTD/sodipodi-0.dtd"
   xmlns:inkscape="http://www.inkscape.org/namespaces/inkscape"
   viewBox="0 0 32 32"
   version="1.1"
   id="svg4"
   sodipodi:docname="insertmath.svg"
   inkscape:version="0.92.3 (unknown)">
  <metadata
     id="metadata10">
    <rdf:RDF>
      <cc:Work
         rdf:about="">
        <dc:format>image/svg+xml</dc:format>
        <dc:type
           rdf:resource="http://purl.org/dc/dcmitype/StillImage" />
        <dc:title></dc:title>
      </cc:Work>
    </rdf:RDF>
  </metadata>
  <defs
     id="defs8">
    <linearGradient
       gradientTransform="translate(-32.745763,2.6440678)"
       id="a"
       gradientUnits="userSpaceOnUse"
       x1="14"
       x2="13.79661"
       y1="22"
       y2="2.1355929">
      <stop
         offset="0"
         stop-color="#0040dd"
         id="stop1765" />
      <stop
         offset="1"
         stop-color="#0a84ff"
         id="stop1767" />
    </linearGradient>
    <linearGradient
       inkscape:collect="always"
       xlink:href="#a"
       id="linearGradient835"
       x1="15.474576"
       y1="28.881355"
       x2="15.033898"
       y2="3.7966101"
       gradientUnits="userSpaceOnUse" />
  </defs>
  <sodipodi:namedview
     pagecolor="#ffffff"
     bordercolor="#666666"
     borderopacity="1"
     objecttolerance="10"
     gridtolerance="10"
     guidetolerance="10"
     inkscape:pageopacity="0"
     inkscape:pageshadow="2"
     inkscape:window-width="1366"
     inkscape:window-height="699"
     id="namedview6"
     showgrid="false"
     inkscape:zoom="7.375"
     inkscape:cx="-1.4237288"
     inkscape:cy="16"
     inkscape:window-x="0"
     inkscape:window-y="0"
     inkscape:window-maximized="1"
     inkscape:current-layer="svg4" />
  <path
     d="m4.6732422 3c-.5411542 0-.9591218.195813-1.2542969.5865235-.2787764.3729507-.4189453.754407-.4189453 1.1451168v1.2584481h5.1644531c-.081994 3.3210382-.2684968 6.8582126-.5636719 9.1847156-.2951748 2.308743-.6488236 4.190592-1.058789 5.646875-.4099653 1.438526-.8613618 2.486255-1.3533203 3.14336-.4755597.639344-.9513934.959765-1.4269531.959765h-.7617188v3.16875c.6035994.715964 1.2691331.906446 2.0896485.906446 2.4333366-.0087 3.0516299-2.596803 3.7167538-4.476367.4099649-1.118853.7610749-2.502267 1.0562499-4.153907.2951748-1.651639.5330918-3.607229.7134768-5.862695.196783-2.255463.321505-5.5688546.370703-8.5169426h10.05387c-.04919 1.5628418-.116051 3.7064326-.198047 5.0028806-.08199 1.278688-.164294 2.458658-.246289 3.541992-.08199 1.065575-.1553 2.052271-.220898 2.958008-.04921.887977-.07363 1.711924-.07363 2.475585 0 3.178963.460388 5.480408 1.378711 6.901172.934719 1.403006 2.005253 2.104884 3.891095 2.104884.836329 0 1.516651-.134779 2.041406-.401173.541154-.266394.8125-.658019.8125-1.173047v-1.889062h-.934375c-.393565 0-.756207-.0534-1.08418-.159961-.311574-.106561-.589372-.330341-.835351-.667773s-.468452-.807894-.665235-1.411719c-.180385-.621585-.335998-1.4379-.467186-2.450196-.11479-1.012294-.203544-2.255839-.269142-3.729882-.0492-1.474044-.07363-3.241452-.07363-5.301562 0-.81694.0065-1.633257.02285-2.4501961.01639-.8169395.03439-2.4086933.05078-3.3499505h3.46836c.459161 0 .803818-.1424085 1.033398-.4265625.245977-.301912.368161-.6553963.368161-1.0638667v-1.4996592z"
     fill="#4d82b8"
     id="path2"
     style="fill-opacity:1;fill:url(#linearGradient835)" />
</svg>
