<svg viewBox="0 0 32 32" xmlns="http://www.w3.org/2000/svg" xmlns:xlink="http://www.w3.org/1999/xlink"><radialGradient id="a" cx="22" cy="9.076923" gradientTransform="matrix(1.3 .00000001 -.00000002 1.5 -6.6 -6.615385)" gradientUnits="userSpaceOnUse" r="10"><stop offset="0" stop-color="#d7d7d7"/><stop offset=".29999998" stop-color="#f7f7f7"/><stop offset="1" stop-color="#fff"/></radialGradient><linearGradient id="b" gradientUnits="userSpaceOnUse" x1="20" x2="23" y1="9" y2="6"><stop offset="0" stop-color="#fff"/><stop offset=".77967989" stop-color="#f1f1f1"/><stop offset="1" stop-color="#d5d5d5"/></linearGradient><path d="m6 3v26h10v-13c0-1.090703.909297-2 2-2 .534088 0 1.017278.229481 1.378906.580078.261798-.341429.639252-.587078 1.148438-.580078.24625.003229.475059.073014.666015.177734h.001953l4.804688 2.63086v-6.808594l-7-7zm19.998047 20.791016-4.935547 2.09375c-.364441.155082-.718555-.038173-1.0625-.181641v3.296875h5.998047z" fill="url(#a)"/><path d="m5.9980469 2c-.554 0-1 .446-1 1v26c0 .554.446 1 1 1h10.0019531v-1h-10.0019531v-26h13.0000001v6c0 .6726441.491378 1 1 1h6v6.806641l1 .548828v-8.9707034l-6.507813-6.3847656zm21.0000001 21.367188-1 .423828v5.208984h-5.998047v1h5.998047c.554 0 .892483-.456533 1-1z" fill="#98989d"/><path d="m20.513641 15.000039c-.282697-.0039-.513491.281395-.513641.634749v8.73025c.000364.434941.342414.740751.671834.600571l8.985781-3.810939c.436842-.188435.46197-.948776.03905-1.181612l-8.983823-4.919309c-.06283-.03454-.130575-.05281-.199206-.05371z" fill="#0a84ff"/><rect fill="#98989d" height="16" ry="1" width="2" x="17" y="15"/><path d="m20 9h6l-6-6z" fill="url(#b)" fill-rule="evenodd"/></svg>