<?xml version="1.0" encoding="UTF-8" standalone="no"?>
<svg
   xmlns:dc="http://purl.org/dc/elements/1.1/"
   xmlns:cc="http://creativecommons.org/ns#"
   xmlns:rdf="http://www.w3.org/1999/02/22-rdf-syntax-ns#"
   xmlns:svg="http://www.w3.org/2000/svg"
   xmlns="http://www.w3.org/2000/svg"
   xmlns:xlink="http://www.w3.org/1999/xlink"
   xmlns:sodipodi="http://sodipodi.sourceforge.net/DTD/sodipodi-0.dtd"
   xmlns:inkscape="http://www.inkscape.org/namespaces/inkscape"
   viewBox="0 0 32 32"
   version="1.1"
   id="svg22"
   sodipodi:docname="insertobject.svg"
   inkscape:version="0.92.3 (unknown)"
   inkscape:export-filename="/home/rizmut/Dokumen/Rizmut/Github/libreoffice-style-sukapura/images_sukapura/cmd/32/insertobject.png"
   inkscape:export-xdpi="96"
   inkscape:export-ydpi="96">
  <metadata
     id="metadata28">
    <rdf:RDF>
      <cc:Work
         rdf:about="">
        <dc:format>image/svg+xml</dc:format>
        <dc:type
           rdf:resource="http://purl.org/dc/dcmitype/StillImage" />
        <dc:title></dc:title>
      </cc:Work>
    </rdf:RDF>
  </metadata>
  <defs
     id="defs26">
    <linearGradient
       gradientTransform="translate(75,-7)"
       id="a-367"
       gradientUnits="userSpaceOnUse"
       x1="14"
       x2="13.79661"
       y1="22"
       y2="2.1355929">
      <stop
         offset="0"
         stop-color="#0040dd"
         id="stop2206" />
      <stop
         offset="1"
         stop-color="#0a84ff"
         id="stop2208" />
    </linearGradient>
    <linearGradient
       inkscape:collect="always"
       xlink:href="#a-367"
       id="linearGradient1536"
       x1="13"
       y1="20"
       x2="13"
       y2="11"
       gradientUnits="userSpaceOnUse" />
  </defs>
  <sodipodi:namedview
     pagecolor="#ffffff"
     bordercolor="#666666"
     borderopacity="1"
     objecttolerance="10"
     gridtolerance="10"
     guidetolerance="10"
     inkscape:pageopacity="0"
     inkscape:pageshadow="2"
     inkscape:window-width="1366"
     inkscape:window-height="706"
     id="namedview24"
     showgrid="true"
     inkscape:zoom="7.375"
     inkscape:cx="18.343206"
     inkscape:cy="11.928108"
     inkscape:window-x="0"
     inkscape:window-y="0"
     inkscape:window-maximized="1"
     inkscape:current-layer="svg22">
    <inkscape:grid
       type="xygrid"
       id="grid1538" />
  </sodipodi:namedview>
  <radialGradient
     id="a"
     cx="22"
     cy="9.076923"
     gradientTransform="matrix(1.3 .00000001 -.00000002 1.5 -6.6 -6.615385)"
     gradientUnits="userSpaceOnUse"
     r="10">
    <stop
       offset="0"
       stop-color="#d7d7d7"
       id="stop2" />
    <stop
       offset=".29999998"
       stop-color="#f7f7f7"
       id="stop4" />
    <stop
       offset="1"
       stop-color="#fff"
       id="stop6" />
  </radialGradient>
  <linearGradient
     id="b"
     gradientUnits="userSpaceOnUse"
     x1="20"
     x2="23"
     y1="9"
     y2="6">
    <stop
       offset="0"
       stop-color="#fff"
       id="stop9" />
    <stop
       offset=".77967989"
       stop-color="#f1f1f1"
       id="stop11" />
    <stop
       offset="1"
       stop-color="#d5d5d5"
       id="stop13" />
  </linearGradient>
  <g
     id="g838">
    <path
       id="path16"
       fill="url(#a)"
       d="m6 3v26h19.99762l.00238-19-7-7z" />
    <path
       id="path18"
       fill="#98989d"
       d="m5.9976202 2c-.554 0-1 .446-1 1v26c0 .554.446 1 1 1h19.9999998c.554 0 .892483-.456533 1-1v-10.109375-10.5052752l-6.508082-6.3853498zm0 1h12.9999998v6c0 .6726441.491378 1 1 1h6v19h-19.9999998z" />
    <path
       id="path20"
       fill-rule="evenodd"
       fill="url(#b)"
       d="m20 9h6l-6-6z" />
  </g>
  <path
     style="fill:#ffffff;fill-opacity:0.78431374"
     d="M 15.005859 16 C 14.392532 16 13.787387 16.165576 13.265625 16.480469 C 12.759154 16.782025 12.330323 17.207802 11.996094 17.716797 C 11.661104 18.222273 11.419402 18.800651 11.251953 19.439453 C 11.082099 20.082915 11 20.773201 11 21.503906 C 11 22.239251 11.081661 22.931783 11.251953 23.576172 C 11.420086 24.212414 11.663278 24.788816 11.998047 25.292969 C 12.332416 25.79652 12.758413 26.222004 13.263672 26.527344 A 1.0001172 1.0001172 0 0 0 13.271484 26.533203 C 13.794231 26.842793 14.396899 27 15.005859 27 C 15.61692 27 16.221273 26.842534 16.742188 26.53125 A 1.0001172 1.0001172 0 0 0 16.746094 26.527344 C 17.247817 26.22414 17.668878 25.800341 18 25.298828 L 18 26 A 1.0001172 1.0001172 0 0 0 19 27 L 23 27 A 1.0001172 1.0001172 0 0 0 23.5 26.865234 A 1.0001172 1.0001172 0 0 0 24 27 L 27 27 L 27 24 L 26.189453 24 L 26.189453 23 L 27 23 L 27 20 L 26.189453 20 L 26.189453 19 L 27 19 L 27 16 L 24 16 A 1.0001172 1.0001172 0 0 0 23 17 L 23 24 L 21.056641 24 L 21.056641 17 A 1.0001172 1.0001172 0 0 0 20.056641 16 L 19 16 A 1.0001172 1.0001172 0 0 0 18 17 L 18 17.707031 C 17.669465 17.202317 17.245508 16.778991 16.744141 16.480469 C 16.225054 16.16534 15.619788 16 15.005859 16 z M 15.005859 19.052734 C 15.155618 19.052734 15.231379 19.078678 15.326172 19.138672 A 1.0001172 1.0001172 0 0 0 15.341797 19.148438 C 15.445485 19.21142 15.547824 19.306172 15.65625 19.488281 A 1.0001172 1.0001172 0 0 0 15.664062 19.5 C 15.773231 19.677334 15.878062 19.936127 15.955078 20.28125 A 1.0001172 1.0001172 0 0 0 15.957031 20.289062 C 16.034804 20.622449 16.080078 21.029257 16.080078 21.503906 C 16.080078 21.978551 16.035492 22.386679 15.957031 22.726562 A 1.0001172 1.0001172 0 0 0 15.957031 22.730469 C 15.880101 23.071613 15.773409 23.332775 15.660156 23.519531 C 15.552978 23.696858 15.450893 23.791154 15.341797 23.857422 A 1.0001172 1.0001172 0 0 0 15.337891 23.861328 C 15.241064 23.920907 15.158545 23.947266 15.005859 23.947266 C 14.853178 23.947266 14.765683 23.919147 14.664062 23.857422 C 14.558701 23.791822 14.454983 23.694976 14.345703 23.519531 L 14.34375 23.517578 C 14.229807 23.329188 14.124224 23.068655 14.044922 22.732422 L 14.044922 22.728516 C 13.969255 22.388058 13.925781 21.980232 13.925781 21.503906 C 13.925781 21.027592 13.967952 20.621167 14.042969 20.287109 C 14.122813 19.941241 14.23043 19.680908 14.341797 19.5 A 1.0001172 1.0001172 0 0 0 14.345703 19.494141 C 14.459289 19.306834 14.56515 19.207797 14.667969 19.144531 A 1.0001172 1.0001172 0 0 0 14.673828 19.140625 C 14.773354 19.078443 14.856105 19.052734 15.005859 19.052734 z "
     id="path1540" />
  <g
     style="fill:url(#linearGradient1536);fill-opacity:1"
     transform="translate(6,6)"
     id="g14">
    <path
       inkscape:connector-curvature="0"
       d="m 12,15.503351 q 0,0.991808 -0.217823,1.816083 -0.21287,0.824274 -0.60891,1.420699 Q 10.782178,19.33656 10.227723,19.67163 9.6782176,20 9.0049504,20 8.3366335,20 7.7821781,19.67163 7.2277228,19.33656 6.8316832,18.740133 6.4356436,18.143708 6.2178218,17.319434 6,16.495159 6,15.503351 6,14.518242 6.2178218,13.693968 6.4356436,12.862993 6.8316832,12.266567 7.2277228,11.66344 7.7821781,11.33507 8.3366335,11 9.0049504,11 q 0.6732672,0 1.2227726,0.33507 0.554455,0.32837 0.945544,0.931497 0.39604,0.596426 0.60891,1.427401 Q 12,14.518242 12,15.503351 Z m -0.920792,0 q 0,-0.804171 -0.148516,-1.440805 -0.143563,-0.643335 -0.415841,-1.085629 -0.267327,-0.448995 -0.6534651,-0.683545 -0.3811881,-0.24125 -0.8564355,-0.24125 -0.4752477,0 -0.8613862,0.24125 -0.3811882,0.23455 -0.6534653,0.683545 -0.2722772,0.442294 -0.4207921,1.085629 -0.1435643,0.636634 -0.1435643,1.440805 0,0.804169 0.1435643,1.447505 0.1485149,0.636635 0.4207921,1.085629 0.2722771,0.442294 0.6534653,0.676843 0.3861385,0.23455 0.8613862,0.23455 0.4752474,0 0.8564355,-0.23455 0.3861381,-0.234549 0.6534651,-0.676843 0.272278,-0.448994 0.415841,-1.085629 0.148516,-0.643336 0.148516,-1.447505 z"
       id="path8"
       style="fill-opacity:1.0;fill:url(#linearGradient1536)" />
    <path
       inkscape:connector-curvature="0"
       d="M 14.056603,19 H 17 v 1 h -4 v -9 h 1.056603 z"
       id="path10"
       style="fill-opacity:1.0;fill:url(#linearGradient1536)" />
    <path
       inkscape:connector-curvature="0"
       d="m 22.999979,11 v 1 h -3.810153 v 3 H 22 v 1 h -2.810174 l 4.72e-4,3 h 3.813405 l -0.0069,1 H 18 v -9 h 5.00002 z"
       id="path12"
       style="fill-opacity:1.0;fill:url(#linearGradient1536)" />
  </g>
</svg>
