<?xml version="1.0" encoding="UTF-8" standalone="no"?>
<svg
   xmlns:dc="http://purl.org/dc/elements/1.1/"
   xmlns:cc="http://creativecommons.org/ns#"
   xmlns:rdf="http://www.w3.org/1999/02/22-rdf-syntax-ns#"
   xmlns:svg="http://www.w3.org/2000/svg"
   xmlns="http://www.w3.org/2000/svg"
   xmlns:xlink="http://www.w3.org/1999/xlink"
   xmlns:sodipodi="http://sodipodi.sourceforge.net/DTD/sodipodi-0.dtd"
   xmlns:inkscape="http://www.inkscape.org/namespaces/inkscape"
   viewBox="0 0 32 32"
   version="1.1"
   id="svg4"
   sodipodi:docname="insertsymbol.svg"
   inkscape:version="0.92.3 (2405546, 2018-03-11)">
  <metadata
     id="metadata10">
    <rdf:RDF>
      <cc:Work
         rdf:about="">
        <dc:format>image/svg+xml</dc:format>
        <dc:type
           rdf:resource="http://purl.org/dc/dcmitype/StillImage" />
        <dc:title></dc:title>
      </cc:Work>
    </rdf:RDF>
  </metadata>
  <defs
     id="defs8">
    <linearGradient
       gradientTransform="translate(-32.474576,4.6779661)"
       id="a"
       gradientUnits="userSpaceOnUse"
       x1="14"
       x2="13.79661"
       y1="22"
       y2="2.1355929">
      <stop
         offset="0"
         stop-color="#0040dd"
         id="stop2" />
      <stop
         offset="1"
         stop-color="#0a84ff"
         id="stop4" />
    </linearGradient>
    <linearGradient
       inkscape:collect="always"
       xlink:href="#a"
       id="linearGradient835"
       x1="13.410156"
       y1="29"
       x2="12.593221"
       y2="2.8474576"
       gradientUnits="userSpaceOnUse" />
  </defs>
  <sodipodi:namedview
     pagecolor="#ffffff"
     bordercolor="#666666"
     borderopacity="1"
     objecttolerance="10"
     gridtolerance="10"
     guidetolerance="10"
     inkscape:pageopacity="0"
     inkscape:pageshadow="2"
     inkscape:window-width="1366"
     inkscape:window-height="685"
     id="namedview6"
     showgrid="false"
     inkscape:zoom="7.375"
     inkscape:cx="-25.830508"
     inkscape:cy="13.830508"
     inkscape:window-x="0"
     inkscape:window-y="0"
     inkscape:window-maximized="1"
     inkscape:current-layer="svg4" />
  <path
     d="m16 3c-7.1797034 0-11.7000025 5.0927617-11.7 11.375 0 5.525 2.6498049 8.704281 6.691758 10.725v1.827334h-6.366758c-1.2906725-.345865-1.57131-1.661985-1.625-2.010937v4.083603h10.410156v-3.25-.660156l-.863281-.355469c-2.8476947-1.738123-4.7980642-5.294641-4.8022997-9.384375-.0000129-5.8335225 3.0554247-10.2533641 8.2554247-10.2533641s8.01574 4.4198416 8.015727 10.2533641c-.0043 4.089734-1.714908 7.646252-4.562602 9.384375l-.863281.355469v.660156 3.25h10.410156v-4.083603c-.05369.348952-.334328 1.665072-1.625 2.010937h-6.390727v-1.827334c4.041952-2.020719 6.715727-5.2 6.715727-10.725.000003-6.2822383-4.520296-11.375-11.7-11.375z"
     fill="#0a84ff"
     id="path2"
     style="fill-opacity:1;fill:url(#linearGradient835)" />
</svg>
