<?xml version="1.0" encoding="UTF-8" standalone="no"?>
<svg
   xmlns:dc="http://purl.org/dc/elements/1.1/"
   xmlns:cc="http://creativecommons.org/ns#"
   xmlns:rdf="http://www.w3.org/1999/02/22-rdf-syntax-ns#"
   xmlns:svg="http://www.w3.org/2000/svg"
   xmlns="http://www.w3.org/2000/svg"
   xmlns:sodipodi="http://sodipodi.sourceforge.net/DTD/sodipodi-0.dtd"
   xmlns:inkscape="http://www.inkscape.org/namespaces/inkscape"
   viewBox="0 0 32 32"
   version="1.1"
   id="svg8"
   sodipodi:docname="insertfootnote.svg"
   inkscape:version="0.92.3 (2405546, 2018-03-11)">
  <metadata
     id="metadata14">
    <rdf:RDF>
      <cc:Work
         rdf:about="">
        <dc:format>image/svg+xml</dc:format>
        <dc:type
           rdf:resource="http://purl.org/dc/dcmitype/StillImage" />
      </cc:Work>
    </rdf:RDF>
  </metadata>
  <defs
     id="defs12" />
  <sodipodi:namedview
     pagecolor="#ffffff"
     bordercolor="#666666"
     borderopacity="1"
     objecttolerance="10"
     gridtolerance="10"
     guidetolerance="10"
     inkscape:pageopacity="0"
     inkscape:pageshadow="2"
     inkscape:window-width="1366"
     inkscape:window-height="685"
     id="namedview10"
     showgrid="false"
     inkscape:zoom="7.375"
     inkscape:cx="-4.2033898"
     inkscape:cy="14.915254"
     inkscape:window-x="0"
     inkscape:window-y="0"
     inkscape:window-maximized="1"
     inkscape:current-layer="svg8" />
  <path
     d="m7 3c-.554 0-1 .446-1 1v24c0 .554.446 1 1 1h18c.554 0 1-.446 1-1v-.166016-8.11914l-.925781.724609c-.021596.017262-.050967.030294-.074219.046875v7.513672h-18v-24h18v11.755859l1-.86914v-10.886719c0-.554-.446-1-1-1z"
     fill="#98989d"
     id="path2" />
  <path
     d="m7 4v24h18v-7.513672c-.339567.242158-.841662.408827-1.3125.291016-.01639-.00417-.032668-.008672-.048828-.013672-.291307-.088903-.620379-.247459-.863281-.583984l-.572266-.757813c-.317073-.419137-.255635-1.012184.140625-1.357422l2.65625-2.308594v-11.755859z"
     fill="#fff"
     id="path4" />
  <path
     d="m27 27.833333v-10.173807l-2.549241 1.998049c-.177192.141628-.350692.191199-.520501.14871-.162426-.04957-.276862-.120382-.343311-.212443l-.586947-.775417 4.3946-3.818425h1.6054v12.833333 1.166667h-2z"
     fill="#0a84ff"
     id="path6"
     style="fill:#d70015;fill-opacity:1" />
</svg>
