<svg viewBox="0 0 32 32" xmlns="http://www.w3.org/2000/svg" xmlns:xlink="http://www.w3.org/1999/xlink"><linearGradient id="a" gradientTransform="translate(75 -7)" gradientUnits="userSpaceOnUse" x1="14" x2="13.79661" y1="22" y2="2.135593"><stop offset="0" stop-color="#0040dd"/><stop offset="1" stop-color="#0a84ff"/></linearGradient><linearGradient id="b" gradientUnits="userSpaceOnUse" x1="-23" x2="-23" y1="14" y2="-3"><stop offset="0" stop-color="#f5f5f5"/><stop offset=".3888889" stop-color="#fdfdfd"/><stop offset="1" stop-color="#fff"/></linearGradient><linearGradient id="c" gradientUnits="userSpaceOnUse" x1="10" x2="10" xlink:href="#a" y1="22" y2="21"/><linearGradient id="d" gradientUnits="userSpaceOnUse" x1="10" x2="10" xlink:href="#a" y1="19" y2="18"/><linearGradient id="e" gradientUnits="userSpaceOnUse" x1="25" x2="25" xlink:href="#a" y1="14" y2="9"/><path d="m3 7h26v18h-26z" fill="url(#b)"/><g fill="#4d82b8"><path d="m23 9h4v5h-4z" fill="url(#e)"/><path d="m5 18h13v1h-13z" fill="url(#d)"/><path d="m5 21h9v1h-9z" fill="url(#c)"/></g><path d="m3 6c-.554 0-1 .446-1 1v18c0 .554.446 1 1 1h26c.554 0 1-.446 1-1v-18c0-.554-.446-1-1-1zm0 1h26v18h-26z" fill="#98989d"/></svg>