<?xml version="1.0" encoding="UTF-8" standalone="no"?>
<svg
   xmlns:dc="http://purl.org/dc/elements/1.1/"
   xmlns:cc="http://creativecommons.org/ns#"
   xmlns:rdf="http://www.w3.org/1999/02/22-rdf-syntax-ns#"
   xmlns:svg="http://www.w3.org/2000/svg"
   xmlns="http://www.w3.org/2000/svg"
   xmlns:sodipodi="http://sodipodi.sourceforge.net/DTD/sodipodi-0.dtd"
   xmlns:inkscape="http://www.inkscape.org/namespaces/inkscape"
   viewBox="0 0 32 32"
   version="1.1"
   id="svg16"
   sodipodi:docname="insertendnote.svg"
   inkscape:version="0.92.3 (unknown)">
  <metadata
     id="metadata22">
    <rdf:RDF>
      <cc:Work
         rdf:about="">
        <dc:format>image/svg+xml</dc:format>
        <dc:type
           rdf:resource="http://purl.org/dc/dcmitype/StillImage" />
        <dc:title></dc:title>
      </cc:Work>
    </rdf:RDF>
  </metadata>
  <defs
     id="defs20" />
  <sodipodi:namedview
     pagecolor="#ffffff"
     bordercolor="#666666"
     borderopacity="1"
     objecttolerance="10"
     gridtolerance="10"
     guidetolerance="10"
     inkscape:pageopacity="0"
     inkscape:pageshadow="2"
     inkscape:window-width="1366"
     inkscape:window-height="706"
     id="namedview18"
     showgrid="false"
     inkscape:zoom="10.429825"
     inkscape:cx="0.63188057"
     inkscape:cy="18.343146"
     inkscape:window-x="0"
     inkscape:window-y="0"
     inkscape:window-maximized="1"
     inkscape:current-layer="svg16" />
  <path
     d="m27.5 14a1.5 1.5 0 0 0 -1.5 1.5 1.5 1.5 0 0 0 1.5 1.5 1.5 1.5 0 0 0 1.5-1.5 1.5 1.5 0 0 0 -1.5-1.5zm-1.5 4v11h3v-11z"
     fill="#4d82b8"
     id="path2"
     style="fill:#0a84ff;fill-opacity:1" />
  <path
     d="m4.2382812 3c-.6859074 0-1.2382812.5523738-1.2382812 1.2382812v18.5234378c0 .685907.5523738 1.238281 1.2382812 1.238281h10.5234378c.685907 0 1.238281-.552374 1.238281-1.238281v-18.5234378c0-.6859074-.552374-1.2382812-1.238281-1.2382812zm-.2382812 1h11v19h-11z"
     fill="#808080"
     id="path4"
     style="fill:#98989d;fill-opacity:1" />
  <path
     d="m4 4h11v19h-11z"
     fill="#fff"
     id="path6" />
  <path
     d="m8.238281 5c-.6859072 0-1.238281.5523738-1.238281 1.2382812v18.5234378c0 .685907.5523738 1.238281 1.238281 1.238281h10.523438c.685907 0 1.238281-.552374 1.238281-1.238281v-18.5234378c0-.6859074-.552374-1.2382812-1.238281-1.2382812zm-.238281 1h11v19h-11z"
     fill="#808080"
     id="path8"
     style="fill:#98989d;fill-opacity:1" />
  <path
     d="m8 6h11v19h-11z"
     fill="#fff"
     id="path10" />
  <path
     d="m12.238281 7c-.685907 0-1.238281.5523738-1.238281 1.2382812v18.5234378c0 .685907.552374 1.238281 1.238281 1.238281h10.523438c.685907 0 1.238281-.552374 1.238281-1.238281v-18.5234378c0-.6859074-.552374-1.2382812-1.238281-1.2382812zm-.238281 1h11v19h-11z"
     fill="#808080"
     id="path12"
     style="fill:#98989d;fill-opacity:1" />
  <path
     d="m12 8h11v19h-11z"
     fill="#fff"
     id="path14" />
</svg>
