<?xml version="1.0" encoding="UTF-8" standalone="no"?>
<svg
   xmlns:dc="http://purl.org/dc/elements/1.1/"
   xmlns:cc="http://creativecommons.org/ns#"
   xmlns:rdf="http://www.w3.org/1999/02/22-rdf-syntax-ns#"
   xmlns:svg="http://www.w3.org/2000/svg"
   xmlns="http://www.w3.org/2000/svg"
   xmlns:sodipodi="http://sodipodi.sourceforge.net/DTD/sodipodi-0.dtd"
   xmlns:inkscape="http://www.inkscape.org/namespaces/inkscape"
   height="32"
   width="32"
   version="1.1"
   id="svg34"
   sodipodi:docname="linestyle.svg"
   inkscape:version="0.92.3 (unknown)">
  <metadata
     id="metadata40">
    <rdf:RDF>
      <cc:Work
         rdf:about="">
        <dc:format>image/svg+xml</dc:format>
        <dc:type
           rdf:resource="http://purl.org/dc/dcmitype/StillImage" />
        <dc:title></dc:title>
      </cc:Work>
    </rdf:RDF>
  </metadata>
  <defs
     id="defs38" />
  <sodipodi:namedview
     pagecolor="#ffffff"
     bordercolor="#666666"
     borderopacity="1"
     objecttolerance="10"
     gridtolerance="10"
     guidetolerance="10"
     inkscape:pageopacity="0"
     inkscape:pageshadow="2"
     inkscape:window-width="1366"
     inkscape:window-height="699"
     id="namedview36"
     showgrid="true"
     inkscape:zoom="10.429825"
     inkscape:cx="5.9365595"
     inkscape:cy="8.9571943"
     inkscape:window-x="0"
     inkscape:window-y="0"
     inkscape:window-maximized="1"
     inkscape:current-layer="g32">
    <inkscape:grid
       type="xygrid"
       id="grid847" />
  </sodipodi:namedview>
  <g
     fill="#4d82b8"
     id="g32"
     style="fill:#616165;fill-opacity:1">
    <path
       d="m3 27h3v2h-3z"
       id="path4"
       style="fill:#616165;fill-opacity:1" />
    <path
       d="m13 27h3v2h-3z"
       id="path6"
       style="fill:#616165;fill-opacity:1" />
    <path
       d="m8 27h3v2h-3z"
       id="path8"
       style="fill:#616165;fill-opacity:1" />
    <path
       d="m3 21h5v2h-5z"
       id="path10"
       style="fill:#616165;fill-opacity:1" />
    <path
       d="m15 21h5v2h-5z"
       id="path12"
       style="fill:#616165;fill-opacity:1" />
    <path
       d="m10 21h3v2h-3z"
       id="path14"
       style="fill:#616165;fill-opacity:1" />
    <path
       d="m3 15h5v2h-5z"
       id="path16"
       style="fill:#616165;fill-opacity:1" />
    <path
       d="m24 15h5v2h-5z"
       id="path18"
       style="fill:#616165;fill-opacity:1" />
    <path
       d="m17 15h5v2h-5z"
       id="path20"
       style="fill:#616165;fill-opacity:1" />
    <path
       d="m10 15h5v2h-5z"
       id="path22"
       style="fill:#616165;fill-opacity:1" />
    <path
       d="m3 3h27v2h-27z"
       id="path24"
       style="fill:#616165;fill-opacity:1" />
    <path
       d="m19 9h11v2h-11z"
       id="path26"
       style="fill:#616165;fill-opacity:1" />
    <path
       d="m3 9h11v2h-11z"
       id="path28"
       style="fill:#616165;fill-opacity:1" />
    <path
       d="m15 9h3v2h-3z"
       id="path30"
       style="fill:#616165;fill-opacity:1" />
    <path
       style="fill:#616165;fill-opacity:1"
       id="path849"
       d="m 18,27 h 3 v 2 h -3 z"
       inkscape:connector-curvature="0" />
    <path
       inkscape:connector-curvature="0"
       d="m 23,27 h 3 v 2 h -3 z"
       id="path851"
       style="fill:#616165;fill-opacity:1" />
    <path
       style="fill:#616165;fill-opacity:1"
       id="path853"
       d="m 27,27 h 3 v 2 h -3 z"
       inkscape:connector-curvature="0" />
    <path
       style="fill:#616165;fill-opacity:1"
       id="path857"
       d="m 22,21 h 3 v 2 h -3 z"
       inkscape:connector-curvature="0" />
  </g>
</svg>
