<svg viewBox="0 0 32 32" xmlns="http://www.w3.org/2000/svg" xmlns:xlink="http://www.w3.org/1999/xlink"><linearGradient id="a" gradientTransform="translate(-25.830508 -3.59322)" gradientUnits="userSpaceOnUse" x1="14" x2="13.79661" y1="22" y2="2.135593"><stop offset="0" stop-color="#0040dd"/><stop offset="1" stop-color="#0a84ff"/></linearGradient><linearGradient id="b" gradientUnits="userSpaceOnUse" x1="6.050848" x2="6.13363" xlink:href="#a" y1="20.86441" y2="13.000006"/><linearGradient id="c" gradientUnits="userSpaceOnUse" x1="5.762712" x2="5.762712" xlink:href="#a" y1="10.864407" y2="3.20339"/><linearGradient id="d" gradientUnits="userSpaceOnUse" x1="13" x2="13" y1="23" y2="5"><stop offset="0" stop-color="#f7f7f7"/><stop offset=".22222222" stop-color="#fff"/><stop offset=".83333331" stop-color="#fff"/><stop offset="1" stop-color="#f7f7f7"/></linearGradient><linearGradient id="e" gradientUnits="userSpaceOnUse" x1="19.5" x2="19.5" y1="21.500001" y2="14.5"><stop offset="0" stop-color="#cfcfcf"/><stop offset=".07142864" stop-color="#e7e7e7"/><stop offset=".07142864" stop-color="#fff"/><stop offset=".5" stop-color="#f3f3f3"/><stop offset=".93333334" stop-color="#f9f9f9"/><stop offset=".93333334" stop-color="#fcfcfc"/><stop offset="1" stop-color="#fff"/></linearGradient><linearGradient id="f" gradientUnits="userSpaceOnUse" x1="19.428571" x2="19.428571" y1="18.25" y2="21.285715"><stop offset="0" stop-color="#f8f8f8"/><stop offset="1" stop-color="#fff"/></linearGradient><path d="m6.13363 13.000006c.4098 0 .781737.0556 1.115812.16679.338531.107223.625836.260115.861917.458675.240534.19856.425389.438818.554566.720774.133629.277985.200444.585753.200444.923306 0 .289898-.04677.55994-.140311.810126-.09354.246215-.218263.482502-.374164.708861-.155902.222387-.33853.440804-.547885.655249-.209354.210474-.429844.422934-.661471.63738l-2.142538 1.918833 3.432071-.0038c.169265 0 .305122.04368.407573.13105.106904.08735.160356.202514.160356.345478v.527272h-6v-.482501c0-.09134.02005-.188633.06014-.291885.04455-.107222.120271-.206502.227172-.29784l2.579068-2.364854c.218263-.202532.4098-.395135.57461-.57781.169266-.182677.309578-.363367.420936-.542071.115813-.182675.202673-.365351.260579-.548027.05791-.186647.08686-.381236.08686-.583767 0-.365351-.10245-.64135-.30735-.827997s-.494432-.27997-.868597-.27997c-.160356 0-.307349.02184-.44098.06553-.13363.04368-.253897.103253-.360802.178704-.106903.07545-.198217.164805-.273942.268057-.07572.103251-.133626.214445-.173718.333581-.07127.182676-.169268.301812-.293988.357409-.120267.05559-.287305.06751-.501112.03574l-.855236-.13105c.06681-.38521.187079-.720779.360798-1.006706.173719-.289898.389755-.530156.648107-.720774.262807-.194589.563475-.339538.902005-.434846.33853-.09928.701559-.148921 1.08908-.148916z" fill="url(#b)"/><path d="m6.90625 3-2.90625 2.341797.552734.703125c.02913.03609.0716.07329.125.109375.05825.03158.122493.05288.195313.06641s.151845.01353.234375 0c.08252-.01354.163574-.05208.246094-.115234l1.259765-1.007813c-.01455.225564-.02148.442872-.02148.650391l-.000004 5.251949h1.408203v-8z" fill="url(#c)"/><g fill="#69696e" transform="scale(-1 1)"><rect height="1" ry=".5" width="14.999998" x="-28" y="4"/><rect height="1" ry=".392136" width="15.000005" x="-28" y="14"/><rect height="1" ry=".436441" width="15.000001" x="-28" y="24"/><rect height="1" ry=".5" width="8.999999" x="-22" y="27"/><rect height="1" ry=".5" width="8.999999" x="-22" y="17"/><rect height="1" ry=".5" width="9.000002" x="-22" y="7"/></g><g fill="#eaeaea" fill-opacity=".992157" transform="matrix(-1 0 0 1 0 1)"><rect height="1" ry=".5" width="14.999998" x="-28" y="4"/><rect height="1" ry=".392136" width="15.000005" x="-28" y="14"/><rect height="1" ry=".436441" width="15.000001" x="-28" y="24"/><rect height="1" ry=".5" width="8.999999" x="-22" y="27"/><rect height="1" ry=".5" width="8.999999" x="-22" y="17"/><rect height="1" ry=".5" width="9.000002" x="-22" y="7"/></g><g transform="matrix(1.33333 0 0 1.33333 -.99992 .00008)"><path d="m15.749979 12.749972h7.500019v10.500026h-7.500019z" fill="url(#d)"/><path d="m16 12c-.554 0-1 .446-1 1v10c0 .554.446 1 1 1h7c.554 0 1-.446 1-1v-10c0-.554-.446-1-1-1zm-.250021.749972h7.500019v10.500026h-7.500019z" fill="#848489"/><g stroke-width=".607143"><path d="m16.874982 13.499974h5.250013v9.000022h-5.250013z" fill="#626262"/><path d="m17.249983 14.249976h4.500011v7.500018h-4.500011z" fill="url(#e)"/><path d="m17.999992 14.999977h3l.000008 3.000023h-3z" fill="#dadada"/><path d="m18 18h3v3h-3z" fill="url(#f)"/></g></g></svg>