<?xml version="1.0" encoding="UTF-8" standalone="no"?>
<svg
   xmlns:dc="http://purl.org/dc/elements/1.1/"
   xmlns:cc="http://creativecommons.org/ns#"
   xmlns:rdf="http://www.w3.org/1999/02/22-rdf-syntax-ns#"
   xmlns:svg="http://www.w3.org/2000/svg"
   xmlns="http://www.w3.org/2000/svg"
   xmlns:xlink="http://www.w3.org/1999/xlink"
   xmlns:sodipodi="http://sodipodi.sourceforge.net/DTD/sodipodi-0.dtd"
   xmlns:inkscape="http://www.inkscape.org/namespaces/inkscape"
   viewBox="0 0 32 32"
   version="1.1"
   id="svg12"
   sodipodi:docname="macrorecorder.svg"
   inkscape:export-filename="/home/rizmut/Dokumen/Rizmut/Github/libreoffice-style-sukapura/images_sukapura/cmd/32/macrorecorder.png"
   inkscape:export-xdpi="96"
   inkscape:export-ydpi="96"
   inkscape:version="0.92.3 (unknown)">
  <metadata
     id="metadata18">
    <rdf:RDF>
      <cc:Work
         rdf:about="">
        <dc:format>image/svg+xml</dc:format>
        <dc:type
           rdf:resource="http://purl.org/dc/dcmitype/StillImage" />
        <dc:title></dc:title>
      </cc:Work>
    </rdf:RDF>
  </metadata>
  <defs
     id="defs16">
    <linearGradient
       inkscape:collect="always"
       id="linearGradient895">
      <stop
         style="stop-color:#f6f6f6;stop-opacity:1;"
         offset="0"
         id="stop891" />
      <stop
         style="stop-color:#ffffff;stop-opacity:1"
         offset="1"
         id="stop893" />
    </linearGradient>
    <linearGradient
       inkscape:collect="always"
       xlink:href="#linearGradient895"
       id="linearGradient920"
       x1="23"
       y1="27"
       x2="23"
       y2="4"
       gradientUnits="userSpaceOnUse" />
    <linearGradient
       gradientTransform="translate(-31.118644,6.6101695)"
       id="a-36"
       gradientUnits="userSpaceOnUse"
       x1="14"
       x2="13.79661"
       y1="22"
       y2="2.1355929">
      <stop
         offset="0"
         stop-color="#0040dd"
         id="stop1586"
         style="stop-color:#2a9240;stop-opacity:1" />
      <stop
         offset="1"
         stop-color="#0a84ff"
         id="stop1588"
         style="stop-color:#32d74b;stop-opacity:1" />
    </linearGradient>
    <linearGradient
       inkscape:collect="always"
       id="linearGradient1832">
      <stop
         style="stop-color:#d70015;stop-opacity:1;"
         offset="0"
         id="stop1828" />
      <stop
         style="stop-color:#ff453a;stop-opacity:1"
         offset="1"
         id="stop1830" />
    </linearGradient>
    <linearGradient
       inkscape:collect="always"
       xlink:href="#linearGradient1832"
       id="linearGradient1237"
       x1="24"
       y1="30"
       x2="24"
       y2="18"
       gradientUnits="userSpaceOnUse" />
    <linearGradient
       inkscape:collect="always"
       xlink:href="#linearGradient1832"
       id="linearGradient1239"
       x1="24"
       y1="30"
       x2="24"
       y2="18"
       gradientUnits="userSpaceOnUse" />
  </defs>
  <sodipodi:namedview
     pagecolor="#ffffff"
     bordercolor="#666666"
     borderopacity="1"
     objecttolerance="10"
     gridtolerance="10"
     guidetolerance="10"
     inkscape:pageopacity="0"
     inkscape:pageshadow="2"
     inkscape:window-width="1366"
     inkscape:window-height="706"
     id="namedview14"
     showgrid="true"
     inkscape:snap-smooth-nodes="true"
     inkscape:zoom="7.375"
     inkscape:cx="26.95411"
     inkscape:cy="23.280824"
     inkscape:window-x="0"
     inkscape:window-y="0"
     inkscape:window-maximized="1"
     inkscape:current-layer="g1029">
    <inkscape:grid
       type="xygrid"
       id="grid862"
       spacingx="0.5"
       spacingy="0.5"
       empspacing="2" />
  </sodipodi:namedview>
  <g
     id="g991">
    <path
       sodipodi:nodetypes="ssccccsscccccssccccssccccs"
       inkscape:connector-curvature="0"
       id="path2"
       d="M 10.15625,3.5 C 8.4250311,3.5 6.5390625,4.4530874 6.5390625,6.625 v 3.125 5.091797 c -0.018245,-0.0038 -0.036474,-0.0077 -0.054687,-0.01172 L 6.5,22.5 c -1.725908,0 -3,1.149093 -3,2.875 0,1.725907 1.399094,3.125 3.125,3.125 H 8.1875 9.75 12.875 16 h 2.1875 1.15625 c 1.731219,0 3.550993,-0.954096 3.617188,-3.125 V 22.25 17.158203 c 0.01825,0.0038 0.03647,0.0077 0.05469,0.01172 L 23,9.5 c 1.725908,0 3,-1.1490933 3,-2.875 C 26,4.8990935 24.599073,3.4204465 22.875,3.5 H 21.3125 19.75 13.351562 11.3125 Z"
       style="fill:url(#linearGradient920);fill-opacity:1;stroke:none;stroke-opacity:1" />
    <path
       sodipodi:nodetypes="sssccccsscccccsssccccssccccssccccsscccscscccccsscccsss"
       inkscape:connector-curvature="0"
       style="fill:#98989d;fill-opacity:1;stroke:none"
       id="path4"
       d="M 10.15625,3 C 9.1988498,3 8.1971447,3.2555392 7.4003906,3.8457031 6.6036365,4.4358671 6.0390625,5.3941649 6.0390625,6.625 v 3.125 4.966797 c -0.01825,-0.0051 -0.03648,-0.01034 -0.054687,-0.01563 L 6,22.091797 C 4.304413,22.31831 3,23.58303 3,25.375 3,27.371232 4.6287695,29 6.625,29 h 1.5625 1.5625 3.125 4.236328 1.576172 1.15625 c 0.9574,0 1.959105,-0.255539 2.755859,-0.845703 0.796754,-0.590164 1.325683,-1.548978 1.361329,-2.779297 V 22.25 17.283203 c 0.01825,0.0051 0.03648,0.01034 0.05469,0.01563 L 24,9.9082031 C 25.695587,9.6816898 29,8.4169699 29,6.625 29,5.5 28.304139,3 24,3 H 21.8125 20.25 12.888672 11.3125 Z m 0,1 H 11.3125 13.734375 20.25 21.8125 24 c 2.125,0 4,1.1694179 4,2.625 0,1.472323 -3.030322,2.3496094 -4.539062,2.3496094 -0.27608,1.514e-4 -0.499849,0.2239204 -0.5,0.5 V 22.25 25.375 c 0,0.941077 -0.377413,1.54528 -0.957032,1.974609 C 21.424287,27.778939 20.617569,28 19.84375,28 H 18.6875 16.265625 12.875 9.75 8.1875 6.625 C 5.1694185,28 4,26.830582 4,25.375 c 0,-1.472323 1.0303222,-2.349609 2.5390625,-2.349609 0.2760796,-1.51e-4 0.4998486,-0.22392 0.5,-0.5 V 9.75 6.625 c 0,-0.9410775 0.3774121,-1.5452796 0.9570313,-1.9746094 C 8.5757128,4.2210608 9.3824313,4 10.15625,4 Z" />
    <circle
       r="0"
       cy="20.313559"
       cx="-24.838984"
       id="path967"
       style="opacity:1;fill:#ff0000;fill-opacity:1;stroke:none;stroke-width:1;stroke-linecap:round;stroke-linejoin:round;stroke-miterlimit:4;stroke-dasharray:none;stroke-opacity:1" />
    <path
       sodipodi:nodetypes="ccccscscccccccccccccccccccccccccccccccccccccccccccccccccccccccccccccccccccccc"
       inkscape:connector-curvature="0"
       id="path875"
       d="m 3,22 v 3.375 0.125 h 0.013672 C 3.0815221,27.437381 4.6716165,29 6.625,29 H 19.5 19.84375 c 0.05195,0 0.104156,-0.0079 0.15625,-0.0098 0.333444,-0.01211 0.669067,-0.05514 1,-0.130859 v -0.910156 -0.002 -0.113282 c -0.07777,0.02294 -0.158725,0.03526 -0.238281,0.05273 C 19.891297,27.616047 19.237185,26.89308 19.054688,26 H 19 V 25.5 23 22 H 7.0390625 6 Z m 1,1 H 4.0292969 6 6.5 6.6972656 18 v 2.5 0.5 h 0.05469 c 0.0128,0.05977 0.02778,0.119058 0.04492,0.177734 0.0013,0.0052 0.0026,0.01042 0.0039,0.01563 0.01427,0.04667 0.0299,0.09291 0.04687,0.138672 0.01166,0.03346 0.02404,0.06667 0.03711,0.09961 0.0088,0.02161 0.01793,0.0431 0.02734,0.06445 0.0088,0.02096 0.01795,0.04179 0.02734,0.0625 0.0026,0.0052 0.0052,0.01043 0.0078,0.01563 0.01437,0.03025 0.02935,0.0602 0.04492,0.08984 0.0077,0.0144 0.01549,0.02872 0.02344,0.04297 0.0108,0.01968 0.02187,0.03921 0.0332,0.05859 0.0019,0.0033 0.0039,0.0065 0.0059,0.0098 0.02126,0.0357 0.0434,0.07087 0.06641,0.105468 0.02383,0.03579 0.04858,0.07096 0.07422,0.105469 0.02027,0.02777 0.04111,0.05512 0.0625,0.08203 0.03385,0.04148 0.06902,0.08187 0.105469,0.121094 0.0223,0.02454 0.0451,0.04863 0.06836,0.07227 0.0032,0.0026 0.0065,0.0052 0.0098,0.0078 0.0317,0.03213 0.06426,0.06339 0.09766,0.09375 0.0039,0.0033 0.0078,0.0065 0.01172,0.0098 0.01864,0.01656 0.03752,0.03283 0.05664,0.04883 0.04001,0.03317 0.08105,0.06509 0.123047,0.0957 0.02822,0.02078 0.05687,0.04097 0.08594,0.06055 0.04341,0.02872 0.0877,0.05608 0.132812,0.08203 0.0213,0.01269 0.04279,0.02506 0.06445,0.03711 l 0.002,0.002 c 0.05559,0.02947 0.112269,0.05683 0.169922,0.08203 0.0162,0.0073 0.03248,0.0145 0.04883,0.02148 0.002,0.0013 0.0039,0.0026 0.0059,0.0039 0.06095,0.02457 0.122849,0.04672 0.185547,0.06641 0.01492,0.0054 0.0299,0.01056 0.04492,0.01563 0.02722,0.0076 0.05457,0.01479 0.08203,0.02148 0.0401,0.01142 0.08047,0.02184 0.121093,0.03125 0.0078,0.002 0.01562,0.0039 0.02344,0.0059 0.05439,0.01028 0.109109,0.01875 0.164062,0.02539 -0.05481,0.0039 -0.109297,0.01352 -0.164062,0.01563 V 28 H 19.84375 6.625 6.5 6 v -0.05273 C 5.0204479,27.745696 4.2552738,26.979754 4.0546875,26 H 4 v -0.5 -0.125 -2.349609 z"
       style="opacity:1;fill:#c93400;fill-opacity:1;stroke:none;stroke-width:1;stroke-linecap:round;stroke-linejoin:round;stroke-miterlimit:4;stroke-dasharray:none;stroke-opacity:1" />
    <path
       sodipodi:nodetypes="cccccccccccccccc"
       inkscape:connector-curvature="0"
       id="path870"
       d="m 4,23 v 2.5 0.5 h 0.054687 C 4.2552738,26.979754 5.0204479,27.745696 6,27.947266 V 28 H 6.5 20 v -0.05273 C 19.020448,27.745696 18.255274,26.979754 18.054688,26 H 18 V 25.5 23 H 6.5 6 Z"
       style="opacity:1;fill:#ff9500;fill-opacity:1;stroke:none;stroke-width:1;stroke-linecap:round;stroke-linejoin:round;stroke-miterlimit:4;stroke-dasharray:none;stroke-opacity:1" />
    <g
       transform="rotate(-180,16,16)"
       id="g928">
      <path
         id="path922"
         transform="rotate(180,16,16)"
         d="M 26 3.0625 L 26 4 L 26 4.0527344 A 2.5 2.5 0 0 1 27.945312 6 L 28 6 L 28 6.5 L 28 6.625 L 28 8.9746094 L 28 9 L 27.970703 9 L 26 9 L 26 10 L 29 10 L 29 6.625 L 29 6.5 L 28.986328 6.5 C 28.925915 4.7749631 27.655982 3.3547886 26 3.0625 z "
         style="opacity:1;fill:#c93400;fill-opacity:1;stroke:none;stroke-width:1;stroke-linecap:round;stroke-linejoin:round;stroke-miterlimit:4;stroke-dasharray:none;stroke-opacity:1" />
      <path
         id="path924"
         transform="rotate(180,16,16)"
         d="M 26 4.0527344 L 26 9 L 28 9 L 28 6.5 L 28 6 L 27.945312 6 A 2.5 2.5 0 0 0 26 4.0527344 z "
         style="opacity:1;fill:#ff9500;fill-opacity:1;stroke:none;stroke-width:1;stroke-linecap:round;stroke-linejoin:round;stroke-miterlimit:4;stroke-dasharray:none;stroke-opacity:1" />
      <path
         inkscape:connector-curvature="0"
         style="opacity:1;fill:#c93400;fill-opacity:1;stroke:none;stroke-width:1;stroke-linecap:round;stroke-linejoin:round;stroke-miterlimit:4;stroke-dasharray:none;stroke-opacity:1"
         d="M 6,28.9375 V 28 27.947266 A 2.5,2.5 0 0 0 7.945312,26 H 8 V 25.5 25.375 23.025391 23 H 7.970703 6 V 22 H 9 V 25.375 25.5 H 8.986328 C 8.925915,27.225037 7.655982,28.645211 6,28.9375 Z"
         id="path936" />
      <path
         inkscape:connector-curvature="0"
         style="opacity:1;fill:#ff9500;fill-opacity:1;stroke:none;stroke-width:1;stroke-linecap:round;stroke-linejoin:round;stroke-miterlimit:4;stroke-dasharray:none;stroke-opacity:1"
         d="M 6,27.947266 V 23 H 8 V 25.5 26 H 7.945312 A 2.5,2.5 0 0 1 6,27.947266 Z"
         id="path938" />
    </g>
  </g>
  <path
     style="opacity:1;fill:#ffffff;fill-opacity:0.78431374;stroke:none;stroke-width:1;stroke-linecap:round;stroke-linejoin:round;stroke-miterlimit:4;stroke-dasharray:none;stroke-opacity:1"
     d="M 24 17 A 7 7 0 0 0 17 24 A 7 7 0 0 0 19.111328 29 L 19.5 29 L 19.84375 29 C 19.895484 29 19.948047 28.991739 20 28.990234 C 20.003926 28.990092 20.007793 28.988432 20.011719 28.988281 C 20.339532 28.978066 20.667317 28.933173 20.992188 28.859375 C 20.994678 28.858809 20.99751 28.859945 21 28.859375 C 21.570151 28.728922 22.122829 28.507453 22.599609 28.154297 C 23.396363 27.564133 23.925291 26.605319 23.960938 25.375 L 23.960938 22.25 L 23.960938 17.283203 C 23.979187 17.288303 23.997415 17.293538 24.015625 17.298828 L 24.015625 17 A 7 7 0 0 0 24 17 z "
     id="path1031" />
  <g
     id="g1029">
    <path
       id="path6"
       d="m 24,18 a 6,6 0 0 0 -6,6 6,6 0 0 0 6,6 6,6 0 0 0 6,-6 6,6 0 0 0 -6,-6 z m 0,1 a 5,5 0 0 1 5,5 5,5 0 0 1 -5,5 5,5 0 0 1 -5,-5 5,5 0 0 1 5,-5 z"
       style="fill:url(#linearGradient1237);fill-opacity:1"
       inkscape:connector-curvature="0" />
    <circle
       id="circle8"
       r="5"
       cy="24"
       cx="24"
       style="fill:#ffffff" />
    <path
       style="fill:url(#linearGradient1239);fill-opacity:1"
       id="circle10"
       r="3"
       cy="24"
       cx="24" />
  </g>
  <circle
     r="0"
     cy="20.313559"
     cx="-24.838984"
     id="circle1113"
     style="opacity:1;fill:#ff0000;fill-opacity:1;stroke:none;stroke-width:1;stroke-linecap:round;stroke-linejoin:round;stroke-miterlimit:4;stroke-dasharray:none;stroke-opacity:1" />
  <g
     transform="rotate(-180,16,16)"
     id="g1127" />
</svg>
