<svg viewBox="0 0 32 32" xmlns="http://www.w3.org/2000/svg" xmlns:xlink="http://www.w3.org/1999/xlink"><linearGradient id="a" gradientUnits="userSpaceOnUse" x1="-30" x2="-30" y1="26" y2="6"><stop offset="0" stop-color="#0078f6"/><stop offset="1" stop-color="#51cdfb"/></linearGradient><path d="m4 5c-.554 0-1 .446-1 1v20c0 .554.446 1 1 1h24c.554 0 1-.446 1-1v-20c0-.554-.446-1-1-1zm0 1h24v20h-24z" fill="#98989d"/><path d="m4 6h24v20h-24z" fill="url(#a)"/><g fill="#fff"><path d="m27 13h-22v1 10 1h22v-1-10zm-1 1v10h-20v-10z"/><path d="m27 7h-22v1 3 1h22v-1-3zm-1 1v3h-20v-3z"/></g><path d="m29 16-11 11h11z" fill="#fff" fill-opacity=".784314"/><path d="m29.5 17.5-12 12h12zm-2 5v1.476392 3.523608h-4.5-.5z" fill="#fc0" fill-rule="evenodd" stroke="#c89e00" stroke-linecap="round" stroke-linejoin="round"/></svg>