<?xml version="1.0" encoding="UTF-8" standalone="no"?>
<svg
   xmlns:dc="http://purl.org/dc/elements/1.1/"
   xmlns:cc="http://creativecommons.org/ns#"
   xmlns:rdf="http://www.w3.org/1999/02/22-rdf-syntax-ns#"
   xmlns:svg="http://www.w3.org/2000/svg"
   xmlns="http://www.w3.org/2000/svg"
   xmlns:sodipodi="http://sodipodi.sourceforge.net/DTD/sodipodi-0.dtd"
   xmlns:inkscape="http://www.inkscape.org/namespaces/inkscape"
   viewBox="0 0 32 32"
   version="1.1"
   id="svg8"
   sodipodi:docname="navigator.svg"
   inkscape:version="0.92.3 (unknown)"
   inkscape:export-filename="/home/rizmut/Dokumen/Rizmut/Github/libreoffice-style-sukapura/images_sukapura/cmd/32/navigator.png"
   inkscape:export-xdpi="96"
   inkscape:export-ydpi="96">
  <metadata
     id="metadata14">
    <rdf:RDF>
      <cc:Work
         rdf:about="">
        <dc:format>image/svg+xml</dc:format>
        <dc:type
           rdf:resource="http://purl.org/dc/dcmitype/StillImage" />
        <dc:title></dc:title>
      </cc:Work>
    </rdf:RDF>
  </metadata>
  <defs
     id="defs12">
    <radialGradient
       gradientTransform="translate(-32.135593,1.8983051)"
       id="a"
       cx="12"
       cy="12"
       gradientUnits="userSpaceOnUse"
       r="10">
      <stop
         offset="0"
         stop-color="#60afff"
         id="stop2" />
      <stop
         offset="1"
         stop-color="#47a3ff"
         id="stop4" />
    </radialGradient>
  </defs>
  <sodipodi:namedview
     pagecolor="#ffffff"
     bordercolor="#666666"
     borderopacity="1"
     objecttolerance="10"
     gridtolerance="10"
     guidetolerance="10"
     inkscape:pageopacity="0"
     inkscape:pageshadow="2"
     inkscape:window-width="1366"
     inkscape:window-height="699"
     id="namedview10"
     showgrid="true"
     inkscape:snap-global="false"
     inkscape:zoom="5.2149125"
     inkscape:cx="35.335483"
     inkscape:cy="5.8856676"
     inkscape:window-x="0"
     inkscape:window-y="0"
     inkscape:window-maximized="1"
     inkscape:current-layer="svg8">
    <inkscape:grid
       type="xygrid"
       id="grid847" />
  </sodipodi:namedview>
  <circle
     cx="16"
     cy="16"
     fill="#fff"
     r="12"
     id="circle2"
     style="fill:#55aaff;fill-opacity:1" />
  <g
     id="g845"
     transform="matrix(1.4000855,0,0,1.4000855,44.192296,-3.458388)">
    <path
       id="path9"
       d="m -15.856296,8.8983051 c -0.0744,9.02e-4 -0.148211,0.01342 -0.21875,0.03711 l -4.228516,1.4082029 c -0.898789,0.04533 -1.723334,0.442085 -2.333984,1.052734 l 1.087891,1.087892 a 2,2 0 0 1 0.02148,-0.02149 2,2 0 0 1 1.392582,-0.564449 2,2 0 0 1 1.433594,0.607422 2,2 0 0 1 0.132812,0.148437 2,2 0 0 1 0.433594,1.244141 2,2 0 0 1 -0.585938,1.414062 l 1.087891,1.087891 c 0.61065,-0.610649 1.007406,-1.435193 1.052735,-2.333984 l 1.408203,-4.2285159 c 0.154288,-0.464669 -0.193996,-0.94331 -0.683594,-0.939453 z m -3.445313,6.8144529 a 2,2 0 0 1 -0.107422,0.04883 2,2 0 0 0 0.107422,-0.04883 z m -0.126953,0.05469 a 2,2 0 0 1 -0.158203,0.05469 2,2 0 0 0 0.158203,-0.05469 z m -0.466797,0.113281 a 2,2 0 0 1 -0.08789,0.0098 2,2 0 0 0 0.08789,-0.0098 z"
       style="fill:#d70015"
       inkscape:connector-curvature="0" />
    <path
       id="path11"
       d="m -22.637546,11.396352 c -0.61065,0.610649 -1.007406,1.435193 -1.052735,2.333984 l -1.408203,4.228516 c -0.184023,0.557236 0.345108,1.086367 0.902344,0.902344 l 4.228516,-1.408203 c 0.898789,-0.04533 1.723334,-0.442085 2.333984,-1.052735 l -1.087891,-1.087891 a 2,2 0 0 1 -1.414062,0.585938 2,2 0 0 1 -0.396484,-0.03906 2,2 0 0 1 -0.002,0 2,2 0 0 1 -1.384719,-1.05469 2,2 0 0 1 -0.08008,-0.181641 2,2 0 0 1 -0.10742,-0.384765 2,2 0 0 1 -0.0293,-0.339844 2,2 0 0 1 0.470703,-1.289062 2,2 0 0 1 0.115235,-0.125 z"
       style="fill:#b5b1af"
       inkscape:connector-curvature="0" />
    <path
       id="path13"
       d="m -15.856296,8.8983051 c -0.0744,9.02e-4 -0.148211,0.01342 -0.21875,0.03711 l -4.228516,1.4082029 c -0.898789,0.04533 -1.723334,0.442085 -2.333984,1.052734 l 1.087891,1.087892 a 2,2 0 0 1 0.02148,-0.02149 2,2 0 0 1 1.392582,-0.564449 2,2 0 0 1 1.216797,0.416016 l 3.509765,-3.2402349 c -0.123038,-0.101431 -0.270107,-0.177177 -0.447265,-0.175781 z"
       style="fill:#ff4f44"
       inkscape:connector-curvature="0" />
    <path
       id="path15"
       d="m -22.637546,11.396352 c -0.61065,0.610649 -1.007406,1.435193 -1.052735,2.333984 l -1.408203,4.228516 c -0.0078,0.0236 -0.0064,0.04686 -0.01172,0.07031 l 3.296876,-3.042966 a 2,2 0 0 1 -0.105469,-0.181641 2,2 0 0 1 -0.08008,-0.181641 2,2 0 0 1 -0.107422,-0.384765 2,2 0 0 1 -0.0293,-0.339844 2,2 0 0 1 0.470703,-1.289062 2,2 0 0 1 0.115235,-0.125 z"
       style="fill:#ffffff"
       inkscape:connector-curvature="0" />
  </g>
  <path
     d="m16 3c-7.1716829.0002268-12.9997729 5.8283171-13 13 .0002271 7.171683 5.8283171 12.999773 13 13 7.171683-.000227 12.999773-5.828317 13-13-.000227-7.1716828-5.828317-12.9997729-13-13zm0 1a12 12 0 0 1 12 12 12 12 0 0 1 -12 12 12 12 0 0 1 -12-12 12 12 0 0 1 12-12z"
     fill="#808080"
     id="path6"
     style="fill:#0070f5;fill-opacity:1" />
</svg>
