<?xml version="1.0" encoding="UTF-8" standalone="no"?>
<svg
   xmlns:dc="http://purl.org/dc/elements/1.1/"
   xmlns:cc="http://creativecommons.org/ns#"
   xmlns:rdf="http://www.w3.org/1999/02/22-rdf-syntax-ns#"
   xmlns:svg="http://www.w3.org/2000/svg"
   xmlns="http://www.w3.org/2000/svg"
   xmlns:xlink="http://www.w3.org/1999/xlink"
   xmlns:sodipodi="http://sodipodi.sourceforge.net/DTD/sodipodi-0.dtd"
   xmlns:inkscape="http://www.inkscape.org/namespaces/inkscape"
   viewBox="0 0 32 32"
   version="1.1"
   id="svg36"
   sodipodi:docname="nexttrackedchange.svg"
   inkscape:version="0.92.3 (unknown)"
   inkscape:export-filename="/home/rizmut/Dokumen/Rizmut/Github/libreoffice-style-sukapura/images_sukapura/cmd/32/nexttrackedchange.png"
   inkscape:export-xdpi="96"
   inkscape:export-ydpi="96">
  <metadata
     id="metadata42">
    <rdf:RDF>
      <cc:Work
         rdf:about="">
        <dc:format>image/svg+xml</dc:format>
        <dc:type
           rdf:resource="http://purl.org/dc/dcmitype/StillImage" />
        <dc:title></dc:title>
      </cc:Work>
    </rdf:RDF>
  </metadata>
  <defs
     id="defs40">
    <linearGradient
       id="b"
       gradientUnits="userSpaceOnUse"
       x1="20"
       x2="23"
       y1="9"
       y2="6">
      <stop
         offset="0"
         stop-color="#fff"
         id="stop1004" />
      <stop
         offset=".77967989"
         stop-color="#f1f1f1"
         id="stop1006" />
      <stop
         offset="1"
         stop-color="#d5d5d5"
         id="stop1008" />
    </linearGradient>
    <radialGradient
       id="a"
       cx="22"
       cy="9.0769234"
       gradientTransform="matrix(1.3,1e-8,-2e-8,1.5,-6.6,-6.615385)"
       gradientUnits="userSpaceOnUse"
       r="10">
      <stop
         offset="0"
         stop-color="#d7d7d7"
         id="stop997" />
      <stop
         offset=".29999998"
         stop-color="#f7f7f7"
         id="stop999" />
      <stop
         offset="1"
         stop-color="#fff"
         id="stop1001" />
    </radialGradient>
    <linearGradient
       gradientTransform="translate(-31.118644,6.6101695)"
       id="a-7"
       gradientUnits="userSpaceOnUse"
       x1="14"
       x2="13.79661"
       y1="22"
       y2="2.1355929">
      <stop
         offset="0"
         stop-color="#0040dd"
         id="stop1586"
         style="stop-color:#2a9240;stop-opacity:1" />
      <stop
         offset="1"
         stop-color="#0a84ff"
         id="stop1588"
         style="stop-color:#32d74b;stop-opacity:1" />
    </linearGradient>
    <linearGradient
       inkscape:collect="always"
       xlink:href="#a-367"
       id="linearGradient854"
       x1="27"
       y1="15"
       x2="27"
       y2="3.5"
       gradientUnits="userSpaceOnUse"
       gradientTransform="translate(0,17)" />
    <linearGradient
       gradientTransform="translate(75,-7)"
       id="a-367"
       gradientUnits="userSpaceOnUse"
       x1="14"
       x2="13.79661"
       y1="22"
       y2="2.1355929">
      <stop
         offset="0"
         stop-color="#0040dd"
         id="stop2206" />
      <stop
         offset="1"
         stop-color="#0a84ff"
         id="stop2208" />
    </linearGradient>
  </defs>
  <sodipodi:namedview
     pagecolor="#ffffff"
     bordercolor="#666666"
     borderopacity="1"
     objecttolerance="10"
     gridtolerance="10"
     guidetolerance="10"
     inkscape:pageopacity="0"
     inkscape:pageshadow="2"
     inkscape:window-width="1366"
     inkscape:window-height="699"
     id="namedview38"
     showgrid="true"
     inkscape:zoom="10.429825"
     inkscape:cx="17.045373"
     inkscape:cy="8.841996"
     inkscape:window-x="0"
     inkscape:window-y="0"
     inkscape:window-maximized="1"
     inkscape:current-layer="g1750"
     inkscape:snap-global="true">
    <inkscape:grid
       type="xygrid"
       id="grid1653" />
  </sodipodi:namedview>
  <g
     style="fill:#98989d;fill-opacity:1"
     id="g26">
    <rect
       height="1"
       ry="0.474576"
       width="4"
       x="8"
       y="22"
       id="rect20-5"
       style="fill:#98989d;fill-opacity:1" />
    <rect
       height="1"
       ry="0.474576"
       width="4"
       x="17"
       y="18"
       id="rect22-3"
       style="fill:#98989d;fill-opacity:1" />
    <rect
       height="1"
       ry="0.5"
       width="2"
       x="15"
       y="10"
       id="rect24"
       style="fill:#98989d;fill-opacity:1" />
  </g>
  <path
     style="fill:url(#a)"
     d="M 6,3 V 29 H 26 V 14.189453 10 L 19,3 Z M 25.998047,26.066406 26,29 h -0.002 z"
     id="path1011"
     inkscape:connector-curvature="0"
     sodipodi:nodetypes="ccccccccccc" />
  <path
     style="fill:#98989d;fill-opacity:1"
     d="M 5.9980469 2 C 5.4440469 2 4.9980469 2.446 4.9980469 3 L 4.9980469 29 C 4.9980469 29.554 5.4440469 30 5.9980469 30 L 13 30 L 13.482422 30 L 22.087891 30 L 24 30 L 25.998047 30 C 26.552047 30 26.89053 29.543467 26.998047 29 L 26.998047 26 L 27 26 L 27 13 L 26.998047 13 L 26.998047 8.3847656 L 20.490234 2 L 5.9980469 2 z M 5.9980469 3 L 18.998047 3 L 18.998047 9 C 18.998047 9.6726441 19.489425 10 19.998047 10 L 25.998047 10 L 25.998047 14.189453 C 25.998047 14.189453 26 14.189453 26 14.189453 L 26 26 L 26.064453 26 L 25.998047 26.066406 L 25.998047 29 L 24 29 L 23.082031 29 L 13.728516 29 L 13 29 L 5.9980469 29 L 5.9980469 3 z "
     id="path4" />
  <g
     id="g1750">
    <rect
       fill="#808080"
       style="fill:#98989d;fill-opacity:1"
       id="rect14"
       y="10"
       x="8"
       width="5"
       ry=".5"
       height="1" />
    <rect
       fill="#808080"
       style="fill:#98989d;fill-opacity:1"
       id="rect16"
       y="14"
       x="8"
       width="9"
       ry=".5"
       height="1" />
    <rect
       height="1"
       ry="0.474576"
       width="4"
       x="8"
       y="22"
       id="rect26"
       style="fill:#98989d;fill-opacity:1" />
    <path
       style="fill:#98989d;fill-opacity:1"
       d="M 14.474609 22 C 14.402797 22 14.33629 22.018558 14.275391 22.046875 C 14.113328 22.12223 14 22.283506 14 22.474609 L 14 22.525391 C 14 22.788308 14.211694 23 14.474609 23 L 15.228516 23 L 16.771484 23 L 17.525391 23 C 17.788306 23 18 22.788308 18 22.525391 L 18 22.474609 C 18 22.283506 17.886672 22.12223 17.724609 22.046875 C 17.66371 22.018558 17.597203 22 17.525391 22 L 14.474609 22 z "
       id="rect28" />
    <rect
       height="1"
       ry="0.5"
       width="2"
       x="15"
       y="10"
       id="rect32"
       style="fill:#98989d;fill-opacity:1" />
  </g>
  <path
     inkscape:connector-curvature="0"
     style="fill:url(#b);fill-rule:evenodd"
     d="m 20,9 h 6 L 20,3 Z"
     id="path1015" />
  <g
     style="fill:#ff9f0a;fill-opacity:1"
     id="g18">
    <rect
       height="1"
       ry="0.5"
       width="5"
       x="19"
       y="14"
       id="rect12"
       style="fill:#ff9f0a;fill-opacity:1" />
    <rect
       height="1"
       ry="0.5"
       width="7"
       x="8"
       y="18"
       id="rect14-5"
       style="fill:#ff9f0a;fill-opacity:1" />
    <rect
       height="1"
       ry="0.5"
       width="7"
       x="8"
       y="26"
       id="rect16-6"
       style="fill:#ff9f0a;fill-opacity:1" />
  </g>
  <path
     style="fill:#ffffff;fill-opacity:0.78431374;stroke:none"
     d="M 23.960938 20.003906 C 22.882863 20.021934 21.998996 20.921777 21.998047 22 L 21.998047 22.998047 L 16 22.998047 C 14.908065 22.998047 13.998047 23.908065 13.998047 25 L 13.998047 27 C 13.998047 28.091935 14.908065 29.001953 16 29.001953 L 21.998047 29.001953 L 21.998047 30 L 26.820312 30 L 27 29.820312 L 27 22.179688 L 25.40625 20.587891 C 25.024422 20.20643 24.502553 19.995549 23.962891 20.003906 A 1.002396 1.002396 0 0 0 23.960938 20.003906 z "
     id="path856" />
  <path
     style="fill:url(#linearGradient854);fill-opacity:1;stroke:none"
     d="M 23.978516,21.00586 C 23.435811,21.014935 23.000478,21.457219 23,22 v 2 h -7 c -0.554,0 -1,0.446 -1,1 v 2 c 0,0.554 0.446,1 1,1 h 7 v 2 c 0.0019,0.884497 1.070439,1.327166 1.697266,0.703125 l 4.005859,-4 c 0.387891,-0.388505 0.387891,-1.017745 0,-1.40625 l -4.005859,-4 c -0.19038,-0.190197 -0.449674,-0.295182 -0.71875,-0.291015 z"
     id="rect8"
     inkscape:connector-curvature="0"
     sodipodi:nodetypes="cccssssccccccc" />
</svg>
