<?xml version="1.0" encoding="UTF-8" standalone="no"?>
<svg
   xmlns:dc="http://purl.org/dc/elements/1.1/"
   xmlns:cc="http://creativecommons.org/ns#"
   xmlns:rdf="http://www.w3.org/1999/02/22-rdf-syntax-ns#"
   xmlns:svg="http://www.w3.org/2000/svg"
   xmlns="http://www.w3.org/2000/svg"
   xmlns:xlink="http://www.w3.org/1999/xlink"
   xmlns:sodipodi="http://sodipodi.sourceforge.net/DTD/sodipodi-0.dtd"
   xmlns:inkscape="http://www.inkscape.org/namespaces/inkscape"
   viewBox="0 0 32 32"
   version="1.1"
   id="svg6"
   sodipodi:docname="numberformatdecdecimals.svg"
   inkscape:export-filename="/home/rizmut/Dokumen/Rizmut/Github/libreoffice-style-sukapura/images_sukapura/cmd/32/numberformatincdecimals.png"
   inkscape:export-xdpi="96"
   inkscape:export-ydpi="96"
   inkscape:version="0.92.3 (unknown)">
  <metadata
     id="metadata12">
    <rdf:RDF>
      <cc:Work
         rdf:about="">
        <dc:format>image/svg+xml</dc:format>
        <dc:type
           rdf:resource="http://purl.org/dc/dcmitype/StillImage" />
        <dc:title></dc:title>
      </cc:Work>
    </rdf:RDF>
  </metadata>
  <defs
     id="defs10">
    <linearGradient
       inkscape:collect="always"
       xlink:href="#a"
       id="linearGradient857"
       gradientUnits="userSpaceOnUse"
       gradientTransform="translate(47.010595,34.941609)"
       x1="-31.010942"
       y1="-4.95119"
       x2="-31.010942"
       y2="-16.951191" />
    <linearGradient
       gradientTransform="translate(-25.830508,-3.5932203)"
       id="a"
       gradientUnits="userSpaceOnUse"
       x1="14"
       x2="13.79661"
       y1="22"
       y2="2.1355929">
      <stop
         offset="0"
         stop-color="#0040dd"
         id="stop2" />
      <stop
         offset="1"
         stop-color="#0a84ff"
         id="stop4" />
    </linearGradient>
    <linearGradient
       inkscape:collect="always"
       xlink:href="#a"
       id="linearGradient834"
       gradientUnits="userSpaceOnUse"
       gradientTransform="matrix(-1,0,0,1,-29.010942,26.95119)"
       x1="-31.010942"
       y1="-4.95119"
       x2="-31.010942"
       y2="-16.951191" />
  </defs>
  <sodipodi:namedview
     pagecolor="#ffffff"
     bordercolor="#666666"
     borderopacity="1"
     objecttolerance="10"
     gridtolerance="10"
     guidetolerance="10"
     inkscape:pageopacity="0"
     inkscape:pageshadow="2"
     inkscape:window-width="1366"
     inkscape:window-height="699"
     id="namedview8"
     showgrid="true"
     inkscape:zoom="22.627417"
     inkscape:cx="12.754678"
     inkscape:cy="10.616374"
     inkscape:window-x="0"
     inkscape:window-y="0"
     inkscape:window-maximized="1"
     inkscape:current-layer="svg6"
     inkscape:snap-global="true">
    <inkscape:grid
       type="xygrid"
       id="grid822"
       spacingx="0.5"
       spacingy="0.5"
       empspacing="2" />
  </sodipodi:namedview>
  <g
     id="g918"
     transform="matrix(1,0,0,-1,0,15.009581)">
    <g
       transform="matrix(0.75309173,0,0,-0.75309173,9.5612134,19.554258)"
       id="text910"
       style="font-style:normal;font-weight:normal;font-size:27.28469086px;line-height:1.25;font-family:sans-serif;letter-spacing:0px;word-spacing:0px;fill:#69696e;fill-opacity:1;stroke:none;stroke-width:0.68211728"
       aria-label="00">
      <path
         inkscape:connector-curvature="0"
         id="path912"
         style="font-style:normal;font-variant:normal;font-weight:normal;font-stretch:normal;font-family:Roboto;-inkscape-font-specification:Roboto;fill:#69696e;fill-opacity:1;stroke-width:0.68211728"
         d="m 14.447916,17.425518 q 0,4.329846 -1.478808,6.434817 -1.478809,2.104972 -4.6229437,2.104972 -3.1041665,0 -4.596298,-2.051681 -1.4921316,-2.065004 -1.545422,-6.155043 V 14.4679 q 0,-4.276555 1.478809,-6.3548815 1.4788089,-2.078326 4.6362658,-2.078326 3.1308119,0 4.6096209,2.011713 1.478809,1.9983905 1.518776,6.1816875 z m -2.464681,-3.370619 q 0,-3.130811 -0.879292,-4.5563297 -0.879292,-1.4388412 -2.7844239,-1.4388412 -1.8918096,0 -2.7577788,1.4255185 -0.8659692,1.4255184 -0.8926144,4.3831364 v 3.94349 q 0,3.144135 0.905937,4.649589 0.9192596,1.492131 2.7711014,1.492131 1.8251967,0 2.7044887,-1.412195 0.892614,-1.412196 0.932582,-4.44975 z" />
      <path
         inkscape:connector-curvature="0"
         id="path914"
         style="font-style:normal;font-variant:normal;font-weight:normal;font-stretch:normal;font-family:Roboto;-inkscape-font-specification:Roboto;fill:#69696e;fill-opacity:1;stroke-width:0.68211728"
         d="m 29.795556,17.425518 q 0,4.329846 -1.478809,6.434817 -1.478809,2.104972 -4.622944,2.104972 -3.104166,0 -4.596298,-2.051681 -1.492131,-2.065004 -1.545422,-6.155043 V 14.4679 q 0,-4.276555 1.478809,-6.3548815 1.478809,-2.078326 4.636266,-2.078326 3.130812,0 4.609621,2.011713 1.478809,1.9983905 1.518777,6.1816875 z m -2.464682,-3.370619 q 0,-3.130811 -0.879292,-4.5563297 -0.879292,-1.4388412 -2.784424,-1.4388412 -1.891809,0 -2.757779,1.4255185 -0.865969,1.4255184 -0.892614,4.3831364 v 3.94349 q 0,3.144135 0.905937,4.649589 0.91926,1.492131 2.771101,1.492131 1.825197,0 2.704489,-1.412195 0.892614,-1.412196 0.932582,-4.44975 z" />
    </g>
    <path
       inkscape:connector-curvature="0"
       d="M 6,3 H 9 V 0 H 6 Z"
       id="path6"
       style="fill:#69696e;fill-opacity:1" />
  </g>
  <g
     transform="matrix(0.75309173,0,0,0.75309173,9.5612134,12.445742)"
     id="g831"
     style="font-style:normal;font-weight:normal;font-size:27.28469086px;line-height:1.25;font-family:sans-serif;letter-spacing:0px;word-spacing:0px;fill:#69696e;fill-opacity:1;stroke:none;stroke-width:0.68211728"
     aria-label="00">
    <path
       inkscape:connector-curvature="0"
       id="path829"
       style="font-style:normal;font-variant:normal;font-weight:normal;font-stretch:normal;font-family:Roboto;-inkscape-font-specification:Roboto;fill:#69696e;fill-opacity:1;stroke-width:0.68211728"
       d="m 29.795556,17.425518 q 0,4.329846 -1.478809,6.434817 -1.478809,2.104972 -4.622944,2.104972 -3.104166,0 -4.596298,-2.051681 -1.492131,-2.065004 -1.545422,-6.155043 V 14.4679 q 0,-4.276555 1.478809,-6.3548815 1.478809,-2.078326 4.636266,-2.078326 3.130812,0 4.609621,2.011713 1.478809,1.9983905 1.518777,6.1816875 z m -2.464682,-3.370619 q 0,-3.130811 -0.879292,-4.5563297 -0.879292,-1.4388412 -2.784424,-1.4388412 -1.891809,0 -2.757779,1.4255185 -0.865969,1.4255184 -0.892614,4.3831364 v 3.94349 q 0,3.144135 0.905937,4.649589 0.91926,1.492131 2.771101,1.492131 1.825197,0 2.704489,-1.412195 0.892614,-1.412196 0.932582,-4.44975 z" />
  </g>
  <path
     inkscape:connector-curvature="0"
     d="m 17,28.990419 h 3 v 3 h -3 z"
     id="path825"
     style="fill:#69696e;fill-opacity:1" />
  <path
     style="fill:url(#linearGradient857);fill-opacity:1;stroke:none;stroke-width:2;stroke-linecap:round;stroke-linejoin:round"
     d="m 10.028948,17.992372 c 0.254767,0.007 0.497226,0.111095 0.677734,0.291016 l 5,5 c 0.391091,0.390231 0.391091,1.023832 0,1.414062 l -5,5 c -0.629468,0.629521 -1.7057966,0.183209 -1.7050778,-0.707031 v -3 H 1.4996511 c -0.277,0 -0.49999996,-0.223 -0.49999996,-0.5 v -3 c 0,-0.277 0.22299996,-0.5 0.49999996,-0.5 h 1.5 l 6.0019531,-0.01563 v -2.98437 c 1.911e-4,-0.56267 0.464904,-1.01413 1.0273438,-0.998047 z"
     id="path855"
     inkscape:connector-curvature="0"
     sodipodi:nodetypes="cccccccsssscccc" />
</svg>
