<?xml version="1.0" encoding="UTF-8" standalone="no"?>
<svg
   xmlns:dc="http://purl.org/dc/elements/1.1/"
   xmlns:cc="http://creativecommons.org/ns#"
   xmlns:rdf="http://www.w3.org/1999/02/22-rdf-syntax-ns#"
   xmlns:svg="http://www.w3.org/2000/svg"
   xmlns="http://www.w3.org/2000/svg"
   xmlns:sodipodi="http://sodipodi.sourceforge.net/DTD/sodipodi-0.dtd"
   xmlns:inkscape="http://www.inkscape.org/namespaces/inkscape"
   viewBox="0 0 32 32"
   version="1.1"
   id="svg6"
   sodipodi:docname="numberformatpercent.svg"
   inkscape:version="0.92.3 (unknown)">
  <metadata
     id="metadata12">
    <rdf:RDF>
      <cc:Work
         rdf:about="">
        <dc:format>image/svg+xml</dc:format>
        <dc:type
           rdf:resource="http://purl.org/dc/dcmitype/StillImage" />
        <dc:title></dc:title>
      </cc:Work>
    </rdf:RDF>
  </metadata>
  <defs
     id="defs10" />
  <sodipodi:namedview
     pagecolor="#ffffff"
     bordercolor="#666666"
     borderopacity="1"
     objecttolerance="10"
     gridtolerance="10"
     guidetolerance="10"
     inkscape:pageopacity="0"
     inkscape:pageshadow="2"
     inkscape:window-width="1366"
     inkscape:window-height="699"
     id="namedview8"
     showgrid="true"
     inkscape:zoom="14.75"
     inkscape:cx="18.487657"
     inkscape:cy="14.537492"
     inkscape:window-x="0"
     inkscape:window-y="0"
     inkscape:window-maximized="1"
     inkscape:current-layer="svg6">
    <inkscape:grid
       type="xygrid"
       id="grid822" />
  </sodipodi:namedview>
  <g
     aria-label="%"
     style="font-style:normal;font-weight:normal;font-size:35.58428955px;line-height:1.25;font-family:sans-serif;letter-spacing:0px;word-spacing:0px;fill:#69696e;fill-opacity:1;stroke:none;stroke-width:0.88960719"
     id="text821">
    <path
       d="m 4.5497818,8.2228301 q 0,-2.2935187 1.476887,-3.7530306 1.476887,-1.476887 3.8746565,-1.476887 2.4325197,0 3.8920317,1.476887 1.476887,1.4595119 1.476887,3.8399063 v 1.2510101 q 0,2.2761431 -1.476887,3.7356551 -1.459512,1.459512 -3.8572814,1.459512 -2.3456441,0 -3.8746565,-1.424761 Q 4.5497818,11.888985 4.5497818,9.4564651 Z m 2.953774,1.3378858 q 0,1.1988851 0.6602554,1.9460161 0.6776305,0.729756 1.7722644,0.729756 1.0772584,0 1.7375144,-0.729756 0.660255,-0.747131 0.660255,-2.0155166 V 8.2228301 q 0,-1.1988848 -0.67763,-1.9460159 -0.660256,-0.7471311 -1.7548897,-0.7471311 -1.0946339,0 -1.7548893,0.7645063 -0.6428802,0.747131 -0.6428802,1.9807661 z M 16.712381,22.453071 q 0,-2.328269 1.511637,-3.770406 1.511637,-1.442137 3.857281,-1.442137 2.36302,0 3.857282,1.442137 1.511637,1.442137 1.511637,3.892032 v 1.233635 q 0,2.258768 -1.459512,3.735655 -1.442136,1.459512 -3.874656,1.459512 -2.43252,0 -3.926782,-1.442137 -1.476887,-1.459511 -1.476887,-3.839906 z m 2.953774,1.355261 q 0,1.181509 0.67763,1.946016 0.695006,0.747131 1.772265,0.747131 1.112009,0 1.737514,-0.712381 0.64288,-0.729756 0.64288,-2.032892 v -1.303135 q 0,-1.21626 -0.67763,-1.946016 -0.677631,-0.729756 -1.737515,-0.729756 -1.077258,0 -1.754889,0.729756 -0.660255,0.729756 -0.660255,2.015516 z M 10.804833,26.762106 8.63294,25.511096 20.986666,5.7381848 23.158558,6.989195 Z"
       style="font-style:normal;font-variant:normal;font-weight:500;font-stretch:normal;font-family:Roboto;-inkscape-font-specification:'Roboto Medium';fill:#69696e;fill-opacity:1;stroke-width:0.88960719"
       id="path832" />
  </g>
</svg>
