<svg viewBox="0 0 32 32" xmlns="http://www.w3.org/2000/svg" xmlns:xlink="http://www.w3.org/1999/xlink"><linearGradient id="a" gradientUnits="userSpaceOnUse" x1="94.9" x2="94.9" y1="21.800003" y2="4"><stop offset="0" stop-color="#0040dd"/><stop offset="1" stop-color="#0a84ff"/></linearGradient><path d="m4 11c-.554 0-1 .446-1 1v13c0 .554.446 1 1 1h14c.554 0 1-.446 1-1v-13c0-.554-.446-1-1-1z" fill="#98989d"/><circle cx="21" cy="11" fill="#fff" r="7"/><path d="m21 3c-4.418278 0-8 3.581722-8 8s3.581722 8 8 8 8-3.581722 8-8-3.581722-8-8-8z" fill="#ffd60a"/><path d="m19.9 28.800004 8.900005-8.900004-8.900005-8.9-8.900006 8.9z" fill="url(#a)" fill-rule="evenodd"/></svg>