<svg viewBox="0 0 32 32" xmlns="http://www.w3.org/2000/svg" xmlns:xlink="http://www.w3.org/1999/xlink"><linearGradient id="a" gradientTransform="matrix(-1 0 0 1 3.02254 2)" gradientUnits="userSpaceOnUse" x1="18.5" x2="19" y1="28.5" y2="12"><stop offset="0" stop-color="#0040dd"/><stop offset="1" stop-color="#0a84ff"/></linearGradient><linearGradient id="b" gradientUnits="userSpaceOnUse" x1="13" x2="13" y1="10" y2="26"><stop offset="0" stop-color="#68caf8"/><stop offset=".5" stop-color="#70cef9"/><stop offset=".71428573" stop-color="#79d3fb"/><stop offset=".9285714" stop-color="#67c1ed"/><stop offset="1" stop-color="#67bfea"/></linearGradient><g transform="translate(1 -2)"><path d="m19.603826 6.4999999c-.324636.0000601-.635955.1240384-.865493.3446692l-4.728087 1.6553309h-10.510246c-.6760366.000065-.9999324.35028-1 1l-.033898 17h1.2241232 22.0342168.775558v-15-4c-.000068-.6497199-.323963-.9999351-1-1z" fill="#94ddff" fill-rule="evenodd" stroke="#15b0f5"/><path d="m2.466102 26.5h1.2233511 22.0351559.775391v-11.5c0-1-.500005-1.502336-1-1.5h-3-18.5c-1.2500514.0041-1.1959312-.168916-1.5 1z" fill="url(#b)" stroke="#15b0f5"/><g fill="#3bc1f1"><path d="m2.0019532 23.5h24.9999998l-.001953-.5h-25z"/><path d="m2.0000002 24.5h24.9999998l-.002-.5h-25z"/><path d="m2.0000002 25.5h24.9999998l-.002-.5h-25z"/></g></g><g transform="translate(3 -2)"><path d="m13.962891 11c-.807012.02933-1.248287.953639-.763672 1.599609 2.558023 3.410698 3.300781 6.900391 3.021484 9.400391h-2.720703c-.62556.000244-1.173389.415441-1.384766.925781-.211377.510341-.117966 1.192275.324219 1.634766l2.439453 2.439453h7.242188l2.439453-2.439453c.442185-.442491.535596-1.124425.324219-1.634766-.211377-.51034-.759206-.925537-1.384766-.925781h-2.210938c.210938-3.5-1.801537-8.374401-6.841796-10.894531-.150049-.075249-.316624-.111519-.484375-.105469z" fill="#fff" fill-opacity=".784314"/><path d="m13.5 23c-.445319.000174-.668295.538519-.353516.853516l5 5c.195265.195185.511767.195185.707032 0l5-5c.314779-.314997.091803-.853342-.353516-.853516h-3c0-4-1.5-8.5-6.5-11 3 4 3.5 8 3 11z" fill="url(#a)"/></g><path d="m3.0000004 28h24.9999996v1h-24.9999996z" fill="#b3b3b3"/><path d="m14 25v3h-2v1h6v-1h-2v-3z" fill="#808080"/></svg>