<?xml version="1.0" encoding="UTF-8" standalone="no"?>
<svg
   xmlns:dc="http://purl.org/dc/elements/1.1/"
   xmlns:cc="http://creativecommons.org/ns#"
   xmlns:rdf="http://www.w3.org/1999/02/22-rdf-syntax-ns#"
   xmlns:svg="http://www.w3.org/2000/svg"
   xmlns="http://www.w3.org/2000/svg"
   xmlns:sodipodi="http://sodipodi.sourceforge.net/DTD/sodipodi-0.dtd"
   xmlns:inkscape="http://www.inkscape.org/namespaces/inkscape"
   viewBox="0 0 32 32"
   version="1.1"
   id="svg25"
   sodipodi:docname="open.svg"
   inkscape:version="0.92.3 (unknown)">
  <metadata
     id="metadata31">
    <rdf:RDF>
      <cc:Work
         rdf:about="">
        <dc:format>image/svg+xml</dc:format>
        <dc:type
           rdf:resource="http://purl.org/dc/dcmitype/StillImage" />
      </cc:Work>
    </rdf:RDF>
  </metadata>
  <defs
     id="defs29" />
  <sodipodi:namedview
     pagecolor="#ffffff"
     bordercolor="#666666"
     borderopacity="1"
     objecttolerance="10"
     gridtolerance="10"
     guidetolerance="10"
     inkscape:pageopacity="0"
     inkscape:pageshadow="2"
     inkscape:window-width="1366"
     inkscape:window-height="706"
     id="namedview27"
     showgrid="true"
     inkscape:zoom="7.375"
     inkscape:cx="-3.3909023"
     inkscape:cy="14.164673"
     inkscape:window-x="0"
     inkscape:window-y="0"
     inkscape:window-maximized="1"
     inkscape:current-layer="svg25">
    <inkscape:grid
       type="xygrid"
       id="grid838" />
  </sodipodi:namedview>
  <linearGradient
     id="a"
     gradientUnits="userSpaceOnUse"
     x1="13"
     x2="13"
     y1="10"
     y2="26">
    <stop
       offset="0"
       stop-color="#68caf8"
       id="stop2" />
    <stop
       offset=".5"
       stop-color="#70cef9"
       id="stop4" />
    <stop
       offset=".71428573"
       stop-color="#79d3fb"
       id="stop6" />
    <stop
       offset=".9285714"
       stop-color="#67c1ed"
       id="stop8" />
    <stop
       offset="1"
       stop-color="#67bfea"
       id="stop10" />
  </linearGradient>
  <g
     id="g846">
    <path
       id="path13"
       stroke="#15b0f5"
       fill-rule="evenodd"
       fill="#94ddff"
       d="m19.603826 6.4999999c-.324636.0000601-.635955.1240384-.865493.3446692l-4.728087 3.6553309h-10.510246c-.6760366.000065-.9999324.35028-1 1l-.033898 15h1.2241232 22.0342168.775558v-13-6c-.000068-.6497199-.323963-.9999351-1-1z" />
    <path
       id="path15"
       stroke="#15b0f5"
       fill="url(#a)"
       d="m2.4667969 26.5h1.2226562 22.0351559.775391l3.732422-11.832031c.36461-1.168055.361939-1.097558-.91211-1.167969h-2.820312-19.1347656c-1.2500514.0041-1.2623375-.002914-1.5664063 1.166016l-2.2988281 8.833984z" />
    <g
       id="g23"
       fill="#3bc1f1">
      <path
         id="path17"
         d="m3 23-.171875.5h.2929688 23.2246092l.445313-.005859.15625-.494141h-.603516-23.2246094z" />
      <path
         id="path19"
         d="m2.6542969 24.001953-.171875.5h.0175781 23.224609l.484375-.003906.169922-.496094h-.658203z" />
      <path
         id="path21"
         d="m2.3105469 25.001953-.171875.5h.3613281 23.224609l.433594-.003906.15625-.496094h-.59375-23.2246092z" />
    </g>
  </g>
</svg>
