<?xml version="1.0" encoding="UTF-8" standalone="no"?>
<svg
   xmlns:dc="http://purl.org/dc/elements/1.1/"
   xmlns:cc="http://creativecommons.org/ns#"
   xmlns:rdf="http://www.w3.org/1999/02/22-rdf-syntax-ns#"
   xmlns:svg="http://www.w3.org/2000/svg"
   xmlns="http://www.w3.org/2000/svg"
   xmlns:sodipodi="http://sodipodi.sourceforge.net/DTD/sodipodi-0.dtd"
   xmlns:inkscape="http://www.inkscape.org/namespaces/inkscape"
   viewBox="0 0 32 32"
   version="1.1"
   id="svg25"
   sodipodi:docname="openremote.svg"
   inkscape:version="0.92.3 (unknown)">
  <metadata
     id="metadata31">
    <rdf:RDF>
      <cc:Work
         rdf:about="">
        <dc:format>image/svg+xml</dc:format>
        <dc:type
           rdf:resource="http://purl.org/dc/dcmitype/StillImage" />
        <dc:title></dc:title>
      </cc:Work>
    </rdf:RDF>
  </metadata>
  <defs
     id="defs29" />
  <sodipodi:namedview
     pagecolor="#ffffff"
     bordercolor="#666666"
     borderopacity="1"
     objecttolerance="10"
     gridtolerance="10"
     guidetolerance="10"
     inkscape:pageopacity="0"
     inkscape:pageshadow="2"
     inkscape:window-width="1366"
     inkscape:window-height="706"
     id="namedview27"
     showgrid="true"
     inkscape:zoom="7.375"
     inkscape:cx="-3.3909023"
     inkscape:cy="14.164673"
     inkscape:window-x="0"
     inkscape:window-y="0"
     inkscape:window-maximized="1"
     inkscape:current-layer="svg25">
    <inkscape:grid
       type="xygrid"
       id="grid838" />
  </sodipodi:namedview>
  <linearGradient
     id="a"
     gradientUnits="userSpaceOnUse"
     x1="13"
     x2="13"
     y1="10"
     y2="26">
    <stop
       offset="0"
       stop-color="#68caf8"
       id="stop2" />
    <stop
       offset=".5"
       stop-color="#70cef9"
       id="stop4" />
    <stop
       offset=".71428573"
       stop-color="#79d3fb"
       id="stop6" />
    <stop
       offset=".9285714"
       stop-color="#67c1ed"
       id="stop8" />
    <stop
       offset="1"
       stop-color="#67bfea"
       id="stop10" />
  </linearGradient>
  <g
     id="g846"
     transform="translate(0,-1)">
    <path
       id="path13"
       d="M 19.603826,6.4999999 C 19.27919,6.50006 18.967871,6.6240383 18.738333,6.8446691 L 14.010246,10.5 H 3.5 c -0.6760366,6.5e-5 -0.9999324,0.35028 -1,1 l -0.033898,15 H 3.6902252 25.724442 26.5 v -13 -6 c -6.8e-5,-0.6497199 -0.323963,-0.9999351 -1,-1 z"
       inkscape:connector-curvature="0"
       style="fill:#94ddff;fill-rule:evenodd;stroke:#15b0f5" />
    <path
       id="path15"
       d="M 2.4667969,26.5 H 3.6894531 25.724609 26.5 L 30.232422,14.667969 C 30.597032,13.499914 30.594361,13.570411 29.320312,13.5 H 26.5 7.3652344 C 6.115183,13.5041 6.1028969,13.497086 5.7988281,14.666016 L 3.5,23.5 Z"
       style="fill:url(#a);stroke:#15b0f5"
       inkscape:connector-curvature="0" />
    <g
       id="g23"
       style="fill:#3bc1f1">
      <path
         id="path17"
         d="M 3,23 2.828125,23.5 H 3.1210938 26.345703 l 0.445313,-0.0059 L 26.947266,23 H 26.34375 3.1191406 Z"
         inkscape:connector-curvature="0" />
      <path
         id="path19"
         d="m 2.6542969,24.001953 -0.171875,0.5 H 2.5 25.724609 l 0.484375,-0.0039 0.169922,-0.496094 h -0.658203 z"
         inkscape:connector-curvature="0" />
      <path
         id="path21"
         d="m 2.3105469,25.001953 -0.171875,0.5 H 2.5 25.724609 l 0.433594,-0.0039 0.15625,-0.496094 H 25.720703 2.4960938 Z"
         inkscape:connector-curvature="0" />
    </g>
  </g>
  <g
     id="g858">
    <path
       id="path2"
       d="M 3.0000004,28 H 25 v 1 H 3.0000004 Z"
       style="fill:#b3b3b3"
       inkscape:connector-curvature="0" />
    <path
       id="path4"
       d="m 14,26 v 2 h -2 v 1 h 6 v -1 h -2 v -2 z"
       style="fill:#808080"
       inkscape:connector-curvature="0" />
  </g>
</svg>
