<svg viewBox="0 0 32 32" xmlns="http://www.w3.org/2000/svg"><path d="m13.666016 2.0410156a1.0163865 1.0163865 0 0 0 -.953125.6660156l-9.7402348 26.5039068a1.0163865 1.0163865 0 0 0 .953125 1.365234h4.4785157a1.0163865 1.0163865 0 0 0 .9609375-.6875l1.8769536-5.5h8.921874l1.859376 5.498047a1.0163865 1.0163865 0 0 0 .96289.689453h4.496094a1.0163865 1.0163865 0 0 0 .955078-1.363281l-9.630859-26.5039066a1.0163865 1.0163865 0 0 0 -.955079-.6679688zm2.068359 9.2949224 2.484375 7.324218h-5.003906z" fill="#4b4b4f" transform="scale(1.0187658 .98157989)"/><path d="m20.892555 23.372122h-10.376346l-2.1116774 6.1894h-4.4782124l9.7392018-26.5051924h4.186946l9.629977 26.5051924h-4.496416zm-9.102058-3.695435h7.845974l-3.841069-11.3229598h-.109224z" fill="#fff" transform="scale(1.0187658 .98157989)"/><g fill="#eac282" stroke-width=".857112" transform="matrix(1.1667513 0 0 1.1666667 2.664099 2.670651)"><path d="m11.437572 19.627857-1.09644 4.02504 3.951909-1.171525c1.653046-.339535-2.065034-3.99245-2.855469-2.853515z" fill="#a2a2a7" stroke="#848489"/><path d="m20.419922 11c-.189562 0-.378184.07172-.523438.216797l-1.673828 1.669922 2.847656 2.849609 1.710938-1.638672c.290506-.290127.290506-.756747 0-1.046875l-1.835938-1.833984c-.145254-.145064-.335828-.216797-.52539-.216797z" fill="#e68497" stroke="#b6496c"/><path d="m19.288937 13.155429 1.143664-1.12071 1.850278 1.787531" fill="none" stroke="#f398b3"/><path d="m17.603733 13.488055-5.652561 5.646711 2.855469 2.853515 5.633029-5.668195z" fill="#fc0" stroke="#c89e00"/><path d="m19.761836 15.247137-1.100691-1.177408-6.1837 6.223955 1.082595 1.146887z" fill="#ffe014"/></g></svg>