<svg viewBox="0 0 32 32" xmlns="http://www.w3.org/2000/svg"><g transform="scale(1.0187658 .98157989)"><path d="m13.666016 2.0410156a1.0163865 1.0163865 0 0 0 -.953125.6660156l-9.7402348 26.5039068a1.0163865 1.0163865 0 0 0 .953125 1.365234h4.4785157a1.0163865 1.0163865 0 0 0 .9609375-.6875l1.8769536-5.5h8.921874l1.859376 5.498047a1.0163865 1.0163865 0 0 0 .96289.689453h4.496094a1.0163865 1.0163865 0 0 0 .955078-1.363281l-9.630859-26.5039066a1.0163865 1.0163865 0 0 0 -.955079-.6679688zm2.068359 9.2949224 2.484375 7.324218h-5.003906z" fill="#4b4b4f"/><path d="m20.892555 23.372122h-10.376346l-2.1116774 6.1894h-4.4782124l9.7392018-26.5051924h4.186946l9.629977 26.5051924h-4.496416zm-9.102058-3.695435h7.845974l-3.841069-11.3229598h-.109224z" fill="#fff"/></g></svg>