<svg viewBox="0 0 32 32" xmlns="http://www.w3.org/2000/svg" xmlns:xlink="http://www.w3.org/1999/xlink"><linearGradient id="a" gradientTransform="translate(28.000634 31.942948)" gradientUnits="userSpaceOnUse" x1="1.999366" x2="1.999366" xlink:href="#b" y1=".057052" y2="-12.627098"/><linearGradient id="b" gradientTransform="translate(-25.830508 -3.59322)" gradientUnits="userSpaceOnUse" x1="14" x2="13.79661" y1="22" y2="2.135593"><stop offset="0" stop-color="#0040dd"/><stop offset="1" stop-color="#0a84ff"/></linearGradient><linearGradient id="c" gradientTransform="matrix(1 0 0 -1 45.010858 5.02861)" gradientUnits="userSpaceOnUse" x1="-16.6786" x2="-16.746397" xlink:href="#b" y1="-9.717195" y2="1.808229"/><path d="m23.010083 29.971515-5-5h3.990234v-4.5c0-.277001.223-.5.5-.5h1c.277001 0 .5.222999.5.5v4.5h4 .0098z" fill="url(#a)" stroke="url(#a)" stroke-linecap="round" stroke-linejoin="round" stroke-width="2"/><path d="m23.010083 4.0000006-5 5h3.990234v4.5000004c0 .277001.223.5.5.5h1c.277001 0 .5-.222999.5-.5v-4.5000004h4 .0098z" fill="url(#c)" stroke="url(#c)" stroke-linecap="round" stroke-linejoin="round" stroke-width="2"/><path d="m3.5 7.0000012c-.277 0-.5.223-.5.5 0 .2770001.223.5.5.5h11c.277 0 .5-.2229999.5-.5 0-.277-.223-.5-.5-.5zm0 3.9999998c-.277 0-.5.223-.5.5s.223.5.5.5h11c.277 0 .5-.223.5-.5s-.223-.5-.5-.5zm0 8.999999c-.277 0-.5.223-.5.5s.223.5.5.5h11c.277 0 .5-.223.5-.5s-.223-.5-.5-.5zm0 4c-.277 0-.5.223-.5.5s.223.5.5.5h11c.277 0 .5-.223.5-.5s-.223-.5-.5-.5z" fill="#69696e"/><path d="m3.5 8.0000012c-.277 0-.5.223-.5.5 0 .2770001.223.4999996.5.4999996h11c.277 0 .5-.2229995.5-.4999996 0-.277-.223-.5-.5-.5zm0 3.9999998c-.277 0-.5.223-.5.5s.223.499999.5.499999h11c.277 0 .5-.222999.5-.499999s-.223-.5-.5-.5zm0 8.999999c-.277 0-.5.223-.5.5s.223.5.5.5h11c.277 0 .5-.223.5-.5s-.223-.5-.5-.5zm0 4c-.277 0-.5.223-.5.5s.223.5.5.5h11c.277 0 .5-.223.5-.5s-.223-.5-.5-.5z" fill="#eaeaea" fill-opacity=".992157"/></svg>