<?xml version="1.0" encoding="UTF-8" standalone="no"?>
<svg
   xmlns:dc="http://purl.org/dc/elements/1.1/"
   xmlns:cc="http://creativecommons.org/ns#"
   xmlns:rdf="http://www.w3.org/1999/02/22-rdf-syntax-ns#"
   xmlns:svg="http://www.w3.org/2000/svg"
   xmlns="http://www.w3.org/2000/svg"
   xmlns:xlink="http://www.w3.org/1999/xlink"
   xmlns:sodipodi="http://sodipodi.sourceforge.net/DTD/sodipodi-0.dtd"
   xmlns:inkscape="http://www.inkscape.org/namespaces/inkscape"
   viewBox="0 0 32 32"
   version="1.1"
   id="svg6"
   sodipodi:docname="paralefttoright.svg"
   inkscape:version="0.92.3 (unknown)">
  <metadata
     id="metadata12">
    <rdf:RDF>
      <cc:Work
         rdf:about="">
        <dc:format>image/svg+xml</dc:format>
        <dc:type
           rdf:resource="http://purl.org/dc/dcmitype/StillImage" />
      </cc:Work>
    </rdf:RDF>
  </metadata>
  <defs
     id="defs10">
    <linearGradient
       gradientTransform="translate(-25.830508,-3.5932203)"
       id="a"
       gradientUnits="userSpaceOnUse"
       x1="14"
       x2="13.79661"
       y1="22"
       y2="2.1355929">
      <stop
         offset="0"
         stop-color="#0040dd"
         id="stop2" />
      <stop
         offset="1"
         stop-color="#0a84ff"
         id="stop4" />
    </linearGradient>
    <linearGradient
       inkscape:collect="always"
       xlink:href="#a"
       id="linearGradient1173"
       gradientUnits="userSpaceOnUse"
       gradientTransform="matrix(-1,0,0,1,-29.010942,26.95119)"
       x1="-31.010942"
       y1="-4.95119"
       x2="-31.010942"
       y2="-16.951191" />
    <linearGradient
       inkscape:collect="always"
       xlink:href="#a"
       id="linearGradient847"
       x1="12.169492"
       y1="28.220339"
       x2="11.728772"
       y2="17.711864"
       gradientUnits="userSpaceOnUse" />
    <linearGradient
       inkscape:collect="always"
       xlink:href="#a"
       id="linearGradient855"
       x1="12.169492"
       y1="28.220339"
       x2="11.728772"
       y2="17.711864"
       gradientUnits="userSpaceOnUse" />
  </defs>
  <sodipodi:namedview
     pagecolor="#ffffff"
     bordercolor="#666666"
     borderopacity="1"
     objecttolerance="10"
     gridtolerance="10"
     guidetolerance="10"
     inkscape:pageopacity="0"
     inkscape:pageshadow="2"
     inkscape:window-width="1366"
     inkscape:window-height="706"
     id="namedview8"
     showgrid="false"
     inkscape:zoom="5.2149125"
     inkscape:cx="-7.4012276"
     inkscape:cy="1.6338495"
     inkscape:window-x="0"
     inkscape:window-y="0"
     inkscape:window-maximized="1"
     inkscape:current-layer="svg6" />
  <path
     d="m15.875 3c-4.349243 0-7.875 3.4929595-7.875 7.800781 0 2.004632.5860818 3.833141 1.6445312 5.222657.1125682-.020402.2271414-.033173.3457032-.033204.5395576.000032 1.0573616.218723 1.4335936.605469l1.8125 1.8125c.560866.141924 1.155701.226563 1.791016.226563v1.564453l1.265625 1.265625-.148438-.121094c1.151392.776706 1.145123 2.553697-.011719 3.322266l.154297-.125-1.259765 1.259765v3.232422h3.03125v-23.3984374l2.863281-.0351562v23.4003906h3.064453v-23.4003906l5.013672-1.2988282v-1.3007812z"
     fill="#69696e"
     id="path2" />
  <path
     d="m10 18v4h-6.5c-.277 0-.5.223-.5.5v1c0 .277.223.5.5.5h6.5v4l5-5z"
     fill="#0a84ff"
     stroke="#0a84ff"
     stroke-linecap="round"
     stroke-linejoin="round"
     stroke-width="2"
     id="path4"
     style="fill-opacity:1;fill:url(#linearGradient847);stroke:url(#linearGradient855)" />
</svg>
