<?xml version="1.0" encoding="UTF-8" standalone="no"?>
<svg
   xmlns:dc="http://purl.org/dc/elements/1.1/"
   xmlns:cc="http://creativecommons.org/ns#"
   xmlns:rdf="http://www.w3.org/1999/02/22-rdf-syntax-ns#"
   xmlns:svg="http://www.w3.org/2000/svg"
   xmlns="http://www.w3.org/2000/svg"
   xmlns:sodipodi="http://sodipodi.sourceforge.net/DTD/sodipodi-0.dtd"
   xmlns:inkscape="http://www.inkscape.org/namespaces/inkscape"
   viewBox="0 0 32 32"
   version="1.1"
   id="svg12"
   sodipodi:docname="paralefttoright.svg"
   inkscape:version="0.92.3 (2405546, 2018-03-11)">
  <metadata
     id="metadata18">
    <rdf:RDF>
      <cc:Work
         rdf:about="">
        <dc:format>image/svg+xml</dc:format>
        <dc:type
           rdf:resource="http://purl.org/dc/dcmitype/StillImage" />
        <dc:title></dc:title>
      </cc:Work>
    </rdf:RDF>
  </metadata>
  <defs
     id="defs16" />
  <sodipodi:namedview
     pagecolor="#ffffff"
     bordercolor="#666666"
     borderopacity="1"
     objecttolerance="10"
     gridtolerance="10"
     guidetolerance="10"
     inkscape:pageopacity="0"
     inkscape:pageshadow="2"
     inkscape:window-width="1366"
     inkscape:window-height="692"
     id="namedview14"
     showgrid="true"
     inkscape:snap-smooth-nodes="true"
     inkscape:zoom="20.85965"
     inkscape:cx="8.1519102"
     inkscape:cy="3.6935435"
     inkscape:window-x="0"
     inkscape:window-y="0"
     inkscape:window-maximized="1"
     inkscape:current-layer="svg12">
    <inkscape:grid
       type="xygrid"
       id="grid828"
       spacingx="0.5"
       spacingy="0.5"
       empspacing="2" />
  </sodipodi:namedview>
  <path
     d="m15.875 3c-4.349243 0-7.875 3.4929595-7.875 7.800781 0 2.004632.5860818 3.833141 1.6445312 5.222657.1125682-.020402.2271414-.033173.3457032-.033204.5395576.000032 1.0573616.218723 1.4335936.605469l1.8125 1.8125c.560866.141924 1.155701.226563 1.791016.226563v1.564453l1.265625 1.265625-.148438-.121094c1.151392.776706 1.145123 2.553697-.011719 3.322266l.154297-.125-1.259765 1.259765v3.232422h3.03125v-23.3984374l2.863281-.0351562v23.4003906h3.064453v-23.4003906l5.013672-1.2988282v-1.3007812z"
     fill="#696969"
     id="path4"
     style="fill:#69696e;fill-opacity:1" />
  <path
     inkscape:connector-curvature="0"
     style="fill:#0a84ff;fill-opacity:1;stroke:#0a84ff;stroke-width:2;stroke-linecap:round;stroke-linejoin:round;stroke-miterlimit:4;stroke-dasharray:none;stroke-opacity:1"
     id="path8"
     d="m 10,18 v 4 H 3.5 C 3.223,22 3,22.223 3,22.5 v 1 C 3,23.777 3.223,24 3.5,24 H 10 v 4 l 5,-5 z" />
</svg>
