<?xml version="1.0" encoding="UTF-8" standalone="no"?>
<svg
   xmlns:dc="http://purl.org/dc/elements/1.1/"
   xmlns:cc="http://creativecommons.org/ns#"
   xmlns:rdf="http://www.w3.org/1999/02/22-rdf-syntax-ns#"
   xmlns:svg="http://www.w3.org/2000/svg"
   xmlns="http://www.w3.org/2000/svg"
   xmlns:sodipodi="http://sodipodi.sourceforge.net/DTD/sodipodi-0.dtd"
   xmlns:inkscape="http://www.inkscape.org/namespaces/inkscape"
   viewBox="0 0 32 32"
   version="1.1"
   id="svg8"
   sodipodi:docname="patternfield.svg"
   inkscape:version="0.92.3 (2405546, 2018-03-11)">
  <metadata
     id="metadata14">
    <rdf:RDF>
      <cc:Work
         rdf:about="">
        <dc:format>image/svg+xml</dc:format>
        <dc:type
           rdf:resource="http://purl.org/dc/dcmitype/StillImage" />
        <dc:title></dc:title>
      </cc:Work>
    </rdf:RDF>
  </metadata>
  <defs
     id="defs12" />
  <sodipodi:namedview
     pagecolor="#ffffff"
     bordercolor="#666666"
     borderopacity="1"
     objecttolerance="10"
     gridtolerance="10"
     guidetolerance="10"
     inkscape:pageopacity="0"
     inkscape:pageshadow="2"
     inkscape:window-width="1366"
     inkscape:window-height="716"
     id="namedview10"
     showgrid="true"
     inkscape:zoom="14.75"
     inkscape:cx="25.600609"
     inkscape:cy="6.3623668"
     inkscape:window-x="-8"
     inkscape:window-y="-8"
     inkscape:window-maximized="1"
     inkscape:current-layer="svg8">
    <inkscape:grid
       type="xygrid"
       id="grid821" />
  </sodipodi:namedview>
  <path
     inkscape:connector-curvature="0"
     id="path827"
     style="font-style:italic;font-variant:normal;font-weight:500;font-stretch:normal;font-size:medium;line-height:1.25;font-family:Roboto;-inkscape-font-specification:'Roboto Medium Italic';letter-spacing:0px;word-spacing:0px;fill:#4b4b4f;fill-opacity:1;stroke:none;stroke-width:0.5546338"
     d="M 13.085235,20.089399 H 7.517232 L 5.6106783,23.772514 H 2.9999996 L 11.525328,8.0001154 h 2.448188 L 16.129222,23.772514 H 13.50771 Z M 8.6546646,17.890363 h 4.1814194 l -0.736623,-6.52128 -0.065,-0.01083 z" />
  <path
     inkscape:connector-curvature="0"
     id="path829"
     style="font-style:italic;font-variant:normal;font-weight:500;font-stretch:normal;font-size:medium;line-height:1.25;font-family:Roboto;-inkscape-font-specification:'Roboto Medium Italic';letter-spacing:0px;word-spacing:0px;fill:#4b4b4f;fill-opacity:1;stroke:none;stroke-width:0.5546338"
     d="m 25.156246,23.772514 q -0.04333,-0.368311 -0.05416,-0.72579 0,-0.357479 0.0325,-0.714958 -0.671627,0.725791 -1.549075,1.202429 -0.866615,0.465806 -1.798227,0.465806 -1.549075,0 -2.339861,-0.96411 -0.779954,-0.974942 -0.454973,-2.567348 0.357479,-1.809059 1.754896,-2.69734 1.397417,-0.899113 3.70478,-0.899113 h 1.711566 l 0.205821,-1.029106 q 0.194988,-0.974942 -0.184156,-1.462413 -0.368311,-0.498304 -1.278258,-0.498304 -0.769121,0 -1.364919,0.44414 -0.595798,0.433308 -0.72579,1.104935 h -2.480686 l -0.02167,-0.065 q 0.238319,-1.473246 1.679067,-2.502352 1.440748,-1.029106 3.477294,-1.029106 1.798227,0 2.838166,1.061604 1.039938,1.061604 0.660794,2.968158 l -1.039939,5.210524 q -0.16249,0.779954 -0.205821,1.419083 -0.0325,0.639129 0.05416,1.278257 z m -2.372359,-1.884888 q 0.714958,0 1.462413,-0.389977 0.747456,-0.389977 1.180764,-0.942444 l 0.411642,-2.036546 H 24.08381 q -0.931612,0 -1.635737,0.574133 -0.704124,0.574132 -0.855782,1.332421 -0.151658,0.714957 0.140825,1.094101 0.303315,0.368312 1.050771,0.368312 z" />
</svg>
