<svg viewBox="0 0 32 32" xmlns="http://www.w3.org/2000/svg" xmlns:xlink="http://www.w3.org/1999/xlink"><linearGradient id="a" gradientTransform="translate(-29.694915 1.220339)" gradientUnits="userSpaceOnUse" x1="14" x2="13.79661" y1="22" y2="2.135593"><stop offset="0" stop-color="#0040dd"/><stop offset="1" stop-color="#0a84ff"/></linearGradient><linearGradient id="b" gradientTransform="translate(-31.118644 6.61017)" gradientUnits="userSpaceOnUse" x1="14" x2="13.79661" y1="22" y2="2.135593"><stop offset="0" stop-color="#2a9240"/><stop offset="1" stop-color="#32d74b"/></linearGradient><linearGradient id="c" gradientUnits="userSpaceOnUse" x1="15" x2="15" xlink:href="#a" y1="25" y2="23"/><linearGradient id="d" gradientUnits="userSpaceOnUse" x1="14" x2="14" xlink:href="#a" y1="5" y2="3"/><linearGradient id="e" gradientUnits="userSpaceOnUse" x1="-38.898305" x2="-38.898305" y1="16.822928" y2=".822928"><stop offset="0" stop-color="#f5f5f5"/><stop offset=".3888889" stop-color="#fdfdfd"/><stop offset="1" stop-color="#fff"/></linearGradient><linearGradient id="f" gradientUnits="userSpaceOnUse" x1="25" x2="25" xlink:href="#b" y1="22" y2="28"/><linearGradient id="g" gradientUnits="userSpaceOnUse" x1="21" x2="21" xlink:href="#b" y1="22" y2="28"/><path d="m5 6v16h22v-16z" fill="url(#e)"/><path d="m4 5v18h24c-.153616-.323014-.897482-.657326-1-1h-22v-16h22v16.427735c.348492.162952.682958.354355 1 .572265v-18z" fill="#98989d"/><path d="m3 3h26v2h-26z" fill="url(#d)"/><path d="m7 8h18v2h-18z" fill="#ff9500"/><g fill="#98989d"><path d="m7 12h1v1h-1z"/><path d="m7 15h1v1h-1z"/><path d="m7 18h1v1h-1z"/><path d="m9 12h12v1h-12z"/><path d="m9 18h5v1h-5z"/><path d="m9 15h6v1h-6z"/></g><path d="m4 23h24v2h-24z" fill="url(#c)" stroke-width=".960769"/><g transform="translate(0 -2)"><path d="m17 30.5a1.5 1.5 0 0 1 -1.5 1.5 1.5 1.5 0 0 1 -1.5-1.5 1.5 1.5 0 0 1 1.5-1.5 1.5 1.5 0 0 1 1.5 1.5z" fill="#98989d"/><path d="m16 30.5a.5.5 0 0 1 -.5.5.5.5 0 0 1 -.5-.5.5.5 0 0 1 .5-.5.5.5 0 0 1 .5.5z" fill="#fff"/></g><path d="m15 25h1v3h-1z" fill="#98989d"/><path d="m18 20c-.554 0-1 .446-1 1v8c0 .554.446 1 1 1h10c.554 0 1-.446 1-1v-8c0-.554-.446-1-1-1zm0 1h10v8h-10z" fill="#98989d"/><path d="m18 21v8h10v-8z" fill="#fff"/><path d="m20 22h2v6h-2z" fill="url(#g)"/><path d="m24 22h2v6h-2z" fill="url(#f)"/></svg>