<svg viewBox="0 0 32 32" xmlns="http://www.w3.org/2000/svg" xmlns:xlink="http://www.w3.org/1999/xlink"><linearGradient id="a" gradientTransform="translate(-29.694915 1.220339)" gradientUnits="userSpaceOnUse" x1="14" x2="13.79661" y1="22" y2="2.135593"><stop offset="0" stop-color="#0040dd"/><stop offset="1" stop-color="#0a84ff"/></linearGradient><linearGradient id="b" gradientUnits="userSpaceOnUse" x1="15" x2="15" xlink:href="#a" y1="25" y2="23"/><linearGradient id="c" gradientUnits="userSpaceOnUse" x1="14" x2="14" xlink:href="#a" y1="5" y2="3"/><linearGradient id="d" gradientUnits="userSpaceOnUse" x1="-7.118644" x2="-7.118644" y1="27.61017" y2="33.61017"><stop offset="0" stop-color="#2a9240"/><stop offset="1" stop-color="#32d74b"/></linearGradient><linearGradient id="e" gradientUnits="userSpaceOnUse" x1="-38.898305" x2="-38.898305" y1="16.822928" y2=".822928"><stop offset="0" stop-color="#f5f5f5"/><stop offset=".3888889" stop-color="#fdfdfd"/><stop offset="1" stop-color="#fff"/></linearGradient><path d="m5 6v16h22v-16z" fill="url(#e)"/><path d="m4 5v18h24c-.153616-.323014-.897482-.657326-1-1h-22v-16h22v16.427735c.348492.162952.682958.354355 1 .572265v-18z" fill="#98989d"/><path d="m3 3h26v2h-26z" fill="url(#c)"/><path d="m7 8h18v2h-18z" fill="#ff9500"/><g fill="#98989d"><path d="m7 12h1v1h-1z"/><path d="m7 15h1v1h-1z"/><path d="m7 18h1v1h-1z"/><path d="m9 12h12v1h-12z"/><path d="m9 18h5v1h-5z"/><path d="m9 15h6v1h-6z"/></g><path d="m4 23h24v2h-24z" fill="url(#b)" stroke-width=".960769"/><path d="m24 18a6 6 0 0 0 -6 6 6 6 0 0 0 6 6 6 6 0 0 0 6-6 6 6 0 0 0 -6-6zm0 1a5 5 0 0 1 5 5 5 5 0 0 1 -5 5 5 5 0 0 1 -5-5 5 5 0 0 1 5-5z" fill="#98989d"/><circle cx="24" cy="24" fill="#fff" r="5"/><path d="m22 21 5 3-5 3z" fill="url(#d)"/><g transform="translate(0 -2)"><path d="m17 30.5a1.5 1.5 0 0 1 -1.5 1.5 1.5 1.5 0 0 1 -1.5-1.5 1.5 1.5 0 0 1 1.5-1.5 1.5 1.5 0 0 1 1.5 1.5z" fill="#98989d"/><path d="m16 30.5a.5.5 0 0 1 -.5.5.5.5 0 0 1 -.5-.5.5.5 0 0 1 .5-.5.5.5 0 0 1 .5.5z" fill="#fff"/></g><path d="m15 25h1v3h-1z" fill="#98989d"/></svg>