<svg viewBox="0 0 32 32" xmlns="http://www.w3.org/2000/svg" xmlns:xlink="http://www.w3.org/1999/xlink"><linearGradient id="a" gradientUnits="userSpaceOnUse" x1="-11.762711" x2="-11.694915" y1="9.576335" y2="5.440741"><stop offset="0" stop-color="#0040dd"/><stop offset="1" stop-color="#0a84ff"/></linearGradient><linearGradient id="b" gradientUnits="userSpaceOnUse" x1="11" x2="11" y1="12" y2="21.5"><stop offset="0" stop-color="#fff"/><stop offset=".08333334" stop-color="#fff" stop-opacity=".055147"/><stop offset="1" stop-color="#fff" stop-opacity=".247059"/><stop offset="1" stop-color="#fff" stop-opacity=".481618"/></linearGradient><path d="m8 20v7h16v-7z" fill="#fff" fill-rule="evenodd"/><path d="m7 20v7.142578c0 .474857.3825649.857422.8574219.857422h16.2851561c.474857 0 .857422-.382565.857422-.857422v-7.142578h-1v7h-16v-7z" fill="#98989d"/><path d="m3.4726661 10.5c-.6282872 0-1.0014124.457459-1 1l.0273339 10.5c.00144.553998.446 1 1 1h25c.554 0 1.001442-.446002 1-1l-.02733-10.5c-.0014-.553998-.421822-1-1-1h-1.97267v3c0 .554-.446 1-1 1h-19c-.554 0-1-.446-1-1v-3z" fill="#8e8e93" stroke="#616165"/><path d="m7 9.000125c-.554 0-1 .446-1 1v1.999875c0 .554.446 1 1 1h18c.554 0 1-.446 1-1v-1.999875c0-.554-.446-1-1-1h-5-8z" fill="url(#a)"/><path d="m7.8574219 4.000125c-.473825.0312909-.8574219.3825649-.8574219.8574219v5.1425781 1h1v-1-5h4 8 4v5 1h1v-1-5.1425781c0-.474857-.383597-.826131-.857422-.8574219h-4.142578-8z" fill="#98989d"/><path d="m8 5.000125v5 1h16v-1-5h-4-8z" fill="#fff" fill-rule="evenodd"/><path d="m26 20h2v1h-2z" fill="#fff"/><path d="m4 11.5c-.277 0-.5.223-.5.5v9.5c0 .277.223.5.5.5h24c.277 0 .5-.223.5-.5v-9.5c0-.277-.223-.5-.5-.5h-.5v3c0 .554-.446 1-1 1h-21c-.554 0-1-.446-1-1v-3z" fill="none" stroke="url(#b)" stroke-opacity=".658088"/><g fill-rule="evenodd"><path d="m20.683594 4-5.44336 6.349609a1.0001 1.0001 0 0 0 .759766 1.650391h1.197266l-4.044922 6.470703a1.0001 1.0001 0 0 0 .820312 1.529297 1.0001 1.0001 0 0 0 .626953-.199219l12-9a1.0001 1.0001 0 0 0 -.25-1.7363279l.650391-.6503906v-3.9140625c0-.277-.223-.5-.5-.5z" fill="#fff" fill-opacity=".784314"/><path d="m22 4h8l-6 6h2l-12 9 5-8h-3z" fill="#ff9500"/></g></svg>