<svg viewBox="0 0 32 32" xmlns="http://www.w3.org/2000/svg" xmlns:xlink="http://www.w3.org/1999/xlink"><linearGradient id="a" gradientUnits="userSpaceOnUse" x1="13" x2="13" y1="23" y2="5"><stop offset="0" stop-color="#f7f7f7"/><stop offset=".22222222" stop-color="#fff"/><stop offset=".83333331" stop-color="#fff"/><stop offset="1" stop-color="#f7f7f7"/></linearGradient><linearGradient id="b" gradientUnits="userSpaceOnUse" x1="19.5" x2="19.5" y1="21.500002" y2="14.5"><stop offset="0" stop-color="#cfcfcf"/><stop offset=".07142864" stop-color="#e7e7e7"/><stop offset=".07142864" stop-color="#fff"/><stop offset=".5" stop-color="#f3f3f3"/><stop offset=".93333334" stop-color="#f9f9f9"/><stop offset=".93333334" stop-color="#fcfcfc"/><stop offset="1" stop-color="#fff"/></linearGradient><linearGradient id="c" gradientUnits="userSpaceOnUse" x1="19.428572" x2="19.428572" y1="18.25" y2="21.285715"><stop offset="0" stop-color="#f8f8f8"/><stop offset="1" stop-color="#fff"/></linearGradient><linearGradient id="d" gradientUnits="userSpaceOnUse" x1="-11.762711" x2="-11.694915" y1="9.576335" y2="5.440741"><stop offset="0" stop-color="#0040dd"/><stop offset="1" stop-color="#0a84ff"/></linearGradient><linearGradient id="e" gradientUnits="userSpaceOnUse" x1="11" x2="11" y1="12" y2="21.5"><stop offset="0" stop-color="#fff"/><stop offset=".08333334" stop-color="#fff" stop-opacity=".055147"/><stop offset="1" stop-color="#fff" stop-opacity=".247059"/><stop offset="1" stop-color="#fff" stop-opacity=".481618"/></linearGradient><path d="m8 20v7h16v-7z" fill="#fff" fill-rule="evenodd"/><path d="m7 20v7.142578c0 .474857.3825649.857422.8574219.857422h16.2851561c.474857 0 .857422-.382565.857422-.857422v-7.142578h-1v7h-16v-7z" fill="#98989d"/><path d="m3.4726661 10.5c-.6282872 0-1.0014124.457459-1 1l.0273339 10.5c.00144.553998.446 1 1 1h25c.554 0 1.001442-.446002 1-1l-.02733-10.5c-.0014-.553998-.421822-1-1-1h-1.97267v3c0 .554-.446 1-1 1h-19c-.554 0-1-.446-1-1v-3z" fill="#8e8e93" stroke="#616165"/><path d="m7 9.000125c-.554 0-1 .446-1 1v1.999875c0 .554.446 1 1 1h18c.554 0 1-.446 1-1v-1.999875c0-.554-.446-1-1-1h-5-8z" fill="url(#d)"/><path d="m7.8574219 4.000125c-.473825.0312909-.8574219.3825649-.8574219.8574219v5.1425781 1h1v-1-5h4 8 4v5 1h1v-1-5.1425781c0-.474857-.383597-.826131-.857422-.8574219h-4.142578-8z" fill="#98989d"/><path d="m8 5.000125v5 1h16v-1-5h-4-8z" fill="#fff" fill-rule="evenodd"/><path d="m26 20h2v1h-2z" fill="#fff"/><path d="m4 11.5c-.277 0-.5.223-.5.5v9.5c0 .277.223.5.5.5h24c.277 0 .5-.223.5-.5v-9.5c0-.277-.223-.5-.5-.5h-.5v3c0 .554-.446 1-1 1h-21c-.554 0-1-.446-1-1v-3z" fill="none" stroke="url(#e)" stroke-opacity=".658088"/><g transform="matrix(1.33333 0 0 1.33333 -1.99992 -.99992)"><path d="m15.749979 12.749972h7.500019v10.500026h-7.500019z" fill="url(#a)"/><path d="m16 12c-.554 0-1 .446-1 1v10c0 .554.446 1 1 1h7c.554 0 1-.446 1-1v-10c0-.554-.446-1-1-1zm-.250021.749972h7.500019v10.500026h-7.500019z" fill="#848489"/><g stroke-width=".607143"><path d="m16.874982 13.499974h5.250013v9.000022h-5.250013z" fill="#626262"/><path d="m17.249983 14.249976h4.500011v7.500018h-4.500011z" fill="url(#b)"/><path d="m17.999992 14.999977h3l.000008 3.000023h-3z" fill="#dadada"/><path d="m18 18h3v3h-3z" fill="url(#c)"/></g></g></svg>