<?xml version="1.0" encoding="UTF-8" standalone="no"?>
<svg
   xmlns:dc="http://purl.org/dc/elements/1.1/"
   xmlns:cc="http://creativecommons.org/ns#"
   xmlns:rdf="http://www.w3.org/1999/02/22-rdf-syntax-ns#"
   xmlns:svg="http://www.w3.org/2000/svg"
   xmlns="http://www.w3.org/2000/svg"
   xmlns:xlink="http://www.w3.org/1999/xlink"
   xmlns:sodipodi="http://sodipodi.sourceforge.net/DTD/sodipodi-0.dtd"
   xmlns:inkscape="http://www.inkscape.org/namespaces/inkscape"
   viewBox="0 0 32 32"
   version="1.1"
   id="svg27"
   sodipodi:docname="print.svg"
   inkscape:version="0.92.3 (unknown)">
  <metadata
     id="metadata33">
    <rdf:RDF>
      <cc:Work
         rdf:about="">
        <dc:format>image/svg+xml</dc:format>
        <dc:type
           rdf:resource="http://purl.org/dc/dcmitype/StillImage" />
      </cc:Work>
    </rdf:RDF>
  </metadata>
  <defs
     id="defs31">
    <linearGradient
       gradientTransform="translate(-25.830508,-3.5932203)"
       id="a-3"
       gradientUnits="userSpaceOnUse"
       x1="14"
       x2="13.79661"
       y1="22"
       y2="2.1355929">
      <stop
         offset="0"
         stop-color="#0040dd"
         id="stop2-6" />
      <stop
         offset="1"
         stop-color="#0a84ff"
         id="stop4-7" />
    </linearGradient>
    <linearGradient
       inkscape:collect="always"
       xlink:href="#a-3"
       id="linearGradient1446"
       gradientUnits="userSpaceOnUse"
       gradientTransform="matrix(-1,0,0,1,-29.010942,26.95119)"
       x1="-31.010942"
       y1="-4.95119"
       x2="-31.010942"
       y2="-16.951191" />
    <linearGradient
       inkscape:collect="always"
       xlink:href="#a-3"
       id="linearGradient868"
       x1="14.067797"
       y1="13.169555"
       x2="14.135593"
       y2="9.0339613"
       gradientUnits="userSpaceOnUse" />
  </defs>
  <sodipodi:namedview
     pagecolor="#ffffff"
     bordercolor="#666666"
     borderopacity="1"
     objecttolerance="10"
     gridtolerance="10"
     guidetolerance="10"
     inkscape:pageopacity="0"
     inkscape:pageshadow="2"
     inkscape:window-width="1366"
     inkscape:window-height="706"
     id="namedview29"
     showgrid="false"
     inkscape:zoom="7.375"
     inkscape:cx="5.0392103"
     inkscape:cy="11.202431"
     inkscape:window-x="0"
     inkscape:window-y="0"
     inkscape:window-maximized="1"
     inkscape:current-layer="svg27" />
  <linearGradient
     id="a"
     gradientUnits="userSpaceOnUse"
     x1="11"
     x2="11"
     y1="12"
     y2="21.5">
    <stop
       offset="0"
       stop-color="#fff"
       id="stop2" />
    <stop
       offset=".08333334"
       stop-color="#fff"
       stop-opacity=".055147"
       id="stop4" />
    <stop
       offset="1"
       stop-color="#fff"
       stop-opacity=".247059"
       id="stop6" />
    <stop
       offset="1"
       stop-color="#fff"
       stop-opacity=".481618"
       id="stop8" />
  </linearGradient>
  <path
     d="m8 20v7h16v-7z"
     fill="#fff"
     fill-rule="evenodd"
     id="path11" />
  <path
     d="m7 20v7.142578c0 .474857.3825649.857422.8574219.857422h16.2851561c.474857 0 .857422-.382565.857422-.857422v-7.142578h-1v7h-16v-7z"
     fill="#98989d"
     id="path13" />
  <path
     d="m3.4726661 10.5c-.6282872 0-1.0014124.457459-1 1l.0273339 10.5c.00144.553998.446 1 1 1h25c.554 0 1.001442-.446002 1-1l-.02733-10.5c-.0014-.553998-.421822-1-1-1h-1.97267v3c0 .554-.446 1-1 1h-19c-.554 0-1-.446-1-1v-3z"
     fill="#8e8e93"
     stroke="#616165"
     id="path15" />
  <path
     d="m7 9.000125c-.554 0-1 .446-1 1v1.999875c0 .554.446 1 1 1h18c.554 0 1-.446 1-1v-1.999875c0-.554-.446-1-1-1h-5-8z"
     fill="#0a84ff"
     id="path17"
     style="fill-opacity:1;fill:url(#linearGradient868)" />
  <path
     d="m7.8574219 4.000125c-.473825.0312909-.8574219.3825649-.8574219.8574219v5.1425781 1h1v-1-5h4 8 4v5 1h1v-1-5.1425781c0-.474857-.383597-.826131-.857422-.8574219h-4.142578-8z"
     fill="#98989d"
     id="path19" />
  <path
     d="m8 5.000125v5 1h16v-1-5h-4-8z"
     fill="#fff"
     fill-rule="evenodd"
     id="path21" />
  <path
     d="m26 20h2v1h-2z"
     fill="#fff"
     id="path23" />
  <path
     d="m4 11.5c-.277 0-.5.223-.5.5v9.5c0 .277.223.5.5.5h24c.277 0 .5-.223.5-.5v-9.5c0-.277-.223-.5-.5-.5h-.5v3c0 .554-.446 1-1 1h-21c-.554 0-1-.446-1-1v-3z"
     fill="none"
     stroke="url(#a)"
     stroke-opacity=".658088"
     id="path25" />
</svg>
