<?xml version="1.0" encoding="UTF-8" standalone="no"?>
<svg
   xmlns:dc="http://purl.org/dc/elements/1.1/"
   xmlns:cc="http://creativecommons.org/ns#"
   xmlns:rdf="http://www.w3.org/1999/02/22-rdf-syntax-ns#"
   xmlns:svg="http://www.w3.org/2000/svg"
   xmlns="http://www.w3.org/2000/svg"
   xmlns:xlink="http://www.w3.org/1999/xlink"
   xmlns:sodipodi="http://sodipodi.sourceforge.net/DTD/sodipodi-0.dtd"
   xmlns:inkscape="http://www.inkscape.org/namespaces/inkscape"
   viewBox="0 0 32 32"
   version="1.1"
   id="svg10"
   sodipodi:docname="quoteparastyle.svg"
   inkscape:version="0.92.3 (2405546, 2018-03-11)">
  <metadata
     id="metadata16">
    <rdf:RDF>
      <cc:Work
         rdf:about="">
        <dc:format>image/svg+xml</dc:format>
        <dc:type
           rdf:resource="http://purl.org/dc/dcmitype/StillImage" />
        <dc:title></dc:title>
      </cc:Work>
    </rdf:RDF>
  </metadata>
  <defs
     id="defs14">
    <linearGradient
       gradientTransform="translate(-29.694915,1.220339)"
       id="a-6"
       gradientUnits="userSpaceOnUse"
       x1="14"
       x2="13.79661"
       y1="22"
       y2="2.1355929">
      <stop
         offset="0"
         stop-color="#0040dd"
         id="stop2" />
      <stop
         offset="1"
         stop-color="#0a84ff"
         id="stop4" />
    </linearGradient>
    <linearGradient
       inkscape:collect="always"
       xlink:href="#a-6"
       id="linearGradient843"
       x1="25.026913"
       y1="28.889824"
       x2="26"
       y2="19"
       gradientUnits="userSpaceOnUse" />
  </defs>
  <sodipodi:namedview
     pagecolor="#ffffff"
     bordercolor="#666666"
     borderopacity="1"
     objecttolerance="10"
     gridtolerance="10"
     guidetolerance="10"
     inkscape:pageopacity="0"
     inkscape:pageshadow="2"
     inkscape:window-width="1366"
     inkscape:window-height="716"
     id="namedview12"
     showgrid="false"
     inkscape:zoom="10.429825"
     inkscape:cx="6.0061513"
     inkscape:cy="12.45907"
     inkscape:window-x="-8"
     inkscape:window-y="-8"
     inkscape:window-maximized="1"
     inkscape:current-layer="svg10" />
  <path
     d="m13.140625 3c-1.355421 0-2.594252.2708333-3.71875.8125-1.1244981.5308333-2.0893653 1.2828125-2.8925781 2.2578125-.803213.9641667-1.4254205 2.1195573-1.8671875 3.4628906-.4417671 1.3324999-.6621094 2.7942189-.6621094 4.3867189 0 1.603333.2203423 3.071797.6621094 4.404297.441767 1.3325 1.0639745 2.481146 1.8671875 3.445312.8032128.964168 1.76808 1.716146 2.8925781 2.257813 1.124498.530832 2.363329.796875 3.71875.796875 1.305221 0 2.505232-.249714 3.599609-.748047l3.259766 4.080078v-.822266a1.0001 1.0001 0 0 1 1-1c .144765 0 .427748-.097688.644531-.240234l-2.765625-3.414062c.411069-.376594.782396-.796917 1.121094-1.251954v-2.427734a1.0001 1.0001 0 0 1 1-1h .697266c.36625-1.241101.55664-2.597951.55664-4.080078 0-1.5925-.222296-3.054219-.664062-4.3867189-.431728-1.3433333-1.04835-2.4987239-1.851563-3.4628906-.793173-.975-1.752455-1.7269792-2.876953-2.2578125-1.114458-.5416667-2.355241-.8125-3.720703-.8125zm0 2.5507812c.963856 0 1.832376.1959376 2.605469.5859376.783132.3791666 1.446112.9304166 1.988281 1.65625.552208.7149999.97446 1.5928128 1.265625 2.6328122.301204 1.029167.451172 2.194141.451172 3.494141s-.149968 2.469764-.451172 3.509766c-.291165 1.029166-.713417 1.906978-1.265625 2.632812-.542169.715-1.205149 1.261459-1.988281 1.640625-.773093.379167-1.641613.570313-2.605469.570313-.963855-.000001-1.836008-.191146-2.619141-.570313-.7730912-.379166-1.4360721-.925625-1.9882809-1.640625-.5522091-.725834-.9780922-1.603646-1.2792969-2.632812-.2911648-1.040002-.4375-2.209766-.4375-3.509766.0000001-1.3.1463352-2.464974.4375-3.494141.3012046-1.0399995.7270878-1.9178124 1.2792969-2.6328122.5522088-.7258334 1.2151897-1.2770834 1.9882809-1.65625.783133-.39 1.655286-.5859376 2.619141-.5859376zm10.65625 23.1972658c-.083473.090747-.178584.169377-.269531.251953h.472656z"
     fill="#696969"
     id="path6"
     style="fill:#4b4b4f;fill-opacity:1" />
  <path
     d="m21 19v3h2v3.666667c0 .920475-1.116352 1.666666-2 1.666666v1.666667c1.767312 0 2.962774-1.492761 3-3.333333v-3.666667-1.333333-1.666667zm5 0v3h1.400001v3.666667c0 .920475-.516352 1.666666-1.400001 1.666666v1.666667c1.767312 0 3-1.492385 3-3.333333v-3.666667-1.333333-1.666667z"
     fill="#4d82b8"
     id="path8"
     style="fill-opacity:1;fill:url(#linearGradient843)" />
</svg>
