<?xml version="1.0" encoding="UTF-8" standalone="no"?>
<svg
   xmlns:dc="http://purl.org/dc/elements/1.1/"
   xmlns:cc="http://creativecommons.org/ns#"
   xmlns:rdf="http://www.w3.org/1999/02/22-rdf-syntax-ns#"
   xmlns:svg="http://www.w3.org/2000/svg"
   xmlns="http://www.w3.org/2000/svg"
   xmlns:xlink="http://www.w3.org/1999/xlink"
   xmlns:sodipodi="http://sodipodi.sourceforge.net/DTD/sodipodi-0.dtd"
   xmlns:inkscape="http://www.inkscape.org/namespaces/inkscape"
   viewBox="0 0 32 32"
   version="1.1"
   id="svg6"
   sodipodi:docname="redo.svg"
   inkscape:version="0.92.3 (2405546, 2018-03-11)"
   inkscape:export-filename="/home/rizmut/Documents/Rizmut/Github/libreoffice-style-sukapura/images_sukapura/cmd/32/undo.png"
   inkscape:export-xdpi="96"
   inkscape:export-ydpi="96">
  <metadata
     id="metadata12">
    <rdf:RDF>
      <cc:Work
         rdf:about="">
        <dc:format>image/svg+xml</dc:format>
        <dc:type
           rdf:resource="http://purl.org/dc/dcmitype/StillImage" />
        <dc:title></dc:title>
      </cc:Work>
    </rdf:RDF>
  </metadata>
  <defs
     id="defs10">
    <linearGradient
       gradientTransform="matrix(1.7896926,0,0,1.7896926,-5.4856132,-5.3927076)"
       inkscape:collect="always"
       xlink:href="#linearGradient1391"
       id="linearGradient1393"
       x1="7"
       y1="2"
       x2="11"
       y2="15"
       gradientUnits="userSpaceOnUse" />
    <linearGradient
       inkscape:collect="always"
       id="linearGradient1391">
      <stop
         style="stop-color:#ffffff;stop-opacity:1;"
         offset="0"
         id="stop1387" />
      <stop
         style="stop-color:#ffffff;stop-opacity:0;"
         offset="1"
         id="stop1389" />
    </linearGradient>
  </defs>
  <sodipodi:namedview
     pagecolor="#ffffff"
     bordercolor="#666666"
     borderopacity="1"
     objecttolerance="10"
     gridtolerance="10"
     guidetolerance="10"
     inkscape:pageopacity="0"
     inkscape:pageshadow="2"
     inkscape:window-width="1366"
     inkscape:window-height="692"
     id="namedview8"
     showgrid="true"
     inkscape:snap-global="true"
     inkscape:zoom="16"
     inkscape:cx="9.7977493"
     inkscape:cy="6.4503968"
     inkscape:window-x="0"
     inkscape:window-y="0"
     inkscape:window-maximized="1"
     inkscape:current-layer="svg6">
    <inkscape:grid
       type="xygrid"
       id="grid822" />
  </sodipodi:namedview>
  <g
     id="g867"
     transform="matrix(-1,0,0,1,32.000078,0)">
    <path
       style="fill:#0a84ff;fill-opacity:1;stroke:none;stroke-width:2;stroke-linecap:round;stroke-linejoin:round"
       d="m 2.2727279,11.00181 a 0.99918039,0.99918039 0 0 0 -0.2734513,0.68501 l -5e-7,9.913305 5e-7,1.400403 a 0.99918039,0.99918039 0 0 0 0.9998928,0.999893 l 1.4280245,1e-6 9.8856841,-1e-6 a 0.99918039,0.99918039 0 0 0 0.707107,-1.706999 l -4.242641,-4.242641 5.656854,-5.656854 0.64634,-0.64634 c 2.628731,-2.0703941 5.087333,-1.495625 6.732706,0.05939 1.650646,1.559993 2.315342,4.079413 0.854882,6.268667 a 0.99943045,0.99943045 0 0 0 -0.02624,0.04281 c -0.199152,0.333859 -0.279831,0.447461 -0.498565,0.716774 l 0.06905,-0.07734 c -0.770989,0.770989 -0.770989,2.057438 0,2.828427 0.770989,0.770989 2.057438,0.770989 2.828427,0 3.500005,-3.500005 3.500005,-9.227918 0,-12.7279221 -3.500005,-3.5000046 -9.227917,-3.5000046 -12.727922,0 L 13.605771,9.5654997 7.9489171,15.222354 3.7062764,10.979713 a 0.99918039,0.99918039 0 0 0 -1.4335485,0.0221 z"
       id="path843"
       inkscape:connector-curvature="0" />
    <path
       id="path1371"
       d="m 20.677734,6.2324219 c -2.306979,0 -4.615231,0.8749977 -6.365234,2.625 L 13.605469,9.5664062 7.9492188,15.222656 3.7070312,10.980469 A 0.99918039,0.99918039 0 0 0 2.2734375,11.001953 0.99918039,0.99918039 0 0 0 2,11.6875 V 21.599609 23 a 0.99918039,0.99918039 0 0 0 0.9375,0.998047 C 10.914212,16.38574 17.607326,4.180283 27,9 26.795349,8.9407743 26.616737,8.6680011 26.447266,8.3222656 24.785541,6.9323923 22.733682,6.2324219 20.677734,6.2324219 Z"
       style="fill:url(#linearGradient1393);fill-opacity:1;stroke:none;stroke-width:1.78969252px;stroke-linecap:round;stroke-linejoin:round;stroke-opacity:0.5625"
       inkscape:connector-curvature="0" />
  </g>
</svg>
