<svg viewBox="0 0 32 32" xmlns="http://www.w3.org/2000/svg" xmlns:xlink="http://www.w3.org/1999/xlink"><linearGradient id="a" gradientUnits="userSpaceOnUse" x1="-15.118644" x2="-15.118644" y1="36.61017" y2="8.61017"><stop offset="0" stop-color="#2a9240"/><stop offset="1" stop-color="#32d74b"/></linearGradient><path d="m16 3a13 13 0 0 0 -6.9375 2.0253906l1.455078 1.4550782a11 11 0 0 1 .205078-.1054688 11 11 0 0 0 -.199218.1113281l3.476562 3.4765625v-4.7597656a11 11 0 0 1 2-.203125 11 11 0 0 1 11 11 11 11 0 0 1 -1.476562 5.486328l1.460937 1.460938a13 13 0 0 0 2.015625-6.947266 13 13 0 0 0 -13-13zm-2.201172 2.2382812a11 11 0 0 0 -.570312.1367188 11 11 0 0 1 .570312-.1367188zm-1.044922.2714844a11 11 0 0 0 -.630859.2226563 11 11 0 0 1 .630859-.2226563zm-.986328.3613282a11 11 0 0 0 -.701172.328125 11 11 0 0 1 .701172-.328125zm-6.3398436 2.59375a13 13 0 0 0 -2.4277344 7.5351562 13 13 0 0 0 13 13 13 13 0 0 0 7.539062-2.423828l-1.435546-1.435547a11 11 0 0 1 -.046875.029297 11 11 0 0 0 .044921-.03125l-3.101562-3.101563v4.535157a11 11 0 0 1 -3 .427734 11 11 0 0 1 -11-11 11 11 0 0 1 1.7929688-6h.1699218l-.1015625-.1015625a11 11 0 0 0 -.0644531.09375 11 11 0 0 1 .0605469-.0976563zm16.2421876 16.9355472a11 11 0 0 1 -.572266.333984 11 11 0 0 0 .572266-.333984zm-1.066406.566406a11 11 0 0 1 -.5.228515 11 11 0 0 0 .5-.228515zm-1.080078.435547a11 11 0 0 1 -.445313.15039 11 11 0 0 0 .445313-.15039z" fill="url(#a)"/></svg>