<?xml version="1.0" encoding="UTF-8" standalone="no"?>
<svg
   xmlns:dc="http://purl.org/dc/elements/1.1/"
   xmlns:cc="http://creativecommons.org/ns#"
   xmlns:rdf="http://www.w3.org/1999/02/22-rdf-syntax-ns#"
   xmlns:svg="http://www.w3.org/2000/svg"
   xmlns="http://www.w3.org/2000/svg"
   xmlns:sodipodi="http://sodipodi.sourceforge.net/DTD/sodipodi-0.dtd"
   xmlns:inkscape="http://www.inkscape.org/namespaces/inkscape"
   viewBox="0 0 32 32"
   version="1.1"
   id="svg8"
   sodipodi:docname="removefiltersort.svg"
   inkscape:version="0.92.3 (unknown)"
   width="32"
   height="32"
   inkscape:export-filename="/home/rizmut/Dokumen/Rizmut/Github/libreoffice-style-sukapura/images_sukapura/cmd/32/removefiltersort.png"
   inkscape:export-xdpi="96"
   inkscape:export-ydpi="96">
  <metadata
     id="metadata14">
    <rdf:RDF>
      <cc:Work
         rdf:about="">
        <dc:format>image/svg+xml</dc:format>
        <dc:type
           rdf:resource="http://purl.org/dc/dcmitype/StillImage" />
        <dc:title></dc:title>
      </cc:Work>
    </rdf:RDF>
  </metadata>
  <defs
     id="defs12" />
  <sodipodi:namedview
     pagecolor="#ffffff"
     bordercolor="#666666"
     borderopacity="1"
     objecttolerance="10"
     gridtolerance="10"
     guidetolerance="10"
     inkscape:pageopacity="0"
     inkscape:pageshadow="2"
     inkscape:window-width="1366"
     inkscape:window-height="706"
     id="namedview10"
     showgrid="true"
     inkscape:zoom="6.9532167"
     inkscape:cx="43.691835"
     inkscape:cy="23.373684"
     inkscape:window-x="0"
     inkscape:window-y="0"
     inkscape:window-maximized="1"
     inkscape:current-layer="svg8">
    <inkscape:grid
       type="xygrid"
       id="grid834"
       spacingx="0.5"
       spacingy="0.5"
       empspacing="2" />
  </sodipodi:namedview>
  <g
     id="g1634"
     transform="translate(-1)">
    <g
       id="g829">
      <path
         style="fill:#848489;fill-opacity:1;fill-rule:evenodd"
         d="M 6.2929688,5.5 4.5,6 v 1.5 l 8,10.5 v 2.085938 7.171874 L 13.072266,27.666015 16,29 18.927734,28.052734 19.5,27.257812 V 20.085938 18 l 8,-10.5 V 6 L 25.707031,5.5 H 25.292969 6.7070312 Z"
         id="path2-3"
         inkscape:connector-curvature="0"
         sodipodi:nodetypes="cccccccccccccccccc" />
      <path
         style="fill:#69696e;fill-opacity:1;fill-rule:evenodd"
         d="m 6.2929688,5 c -0.1326,2.54e-5 -0.2597597,0.052716 -0.3535157,0.1464844 l -1.7929687,0.5 C 4.0527163,5.7402403 4.0000255,5.8674005 4,6 V 7.5 C 3.999859,7.6092992 4.035533,7.7156344 4.1015625,7.8027344 L 12,18.167969 v 1.417969 7.671874 c 1.16e-4,0.161184 0.07792,0.699148 0.208984,0.792969 L 15.140625,29 h 1.71875 l 2.931641,-0.949219 C 19.92208,27.95696 19.999884,27.418996 20,27.257812 V 19.585938 18.167969 L 27.898438,7.8027344 C 27.964468,7.7156343 28.000141,7.6092991 28,7.5 V 6 C 27.999975,5.8674005 27.94728,5.7402403 27.853516,5.6464844 l -1.792969,-0.5 C 25.966791,5.0527162 25.839631,5.0000254 25.707031,5 H 25.292969 6.7070312 Z M 6.9140625,6 H 25.085938 L 27,6.2070312 v 1.125 L 19.101562,17.697266 C 19.035531,17.784366 18.999859,17.890701 19,18 V 20.585938 27 l -3,1 -3,-1 V 20.585938 18 c 1.41e-4,-0.109299 -0.03553,-0.215634 -0.101562,-0.302734 L 5,7.3320312 v -1.125 z"
         id="path6-7"
         inkscape:connector-curvature="0"
         sodipodi:nodetypes="ccccccccccccccccccccccccccccccccccccccccc" />
      <ellipse
         style="opacity:1;fill:#cdcdd0;fill-opacity:1;stroke:#69696e;stroke-width:1.00230575;stroke-linecap:round;stroke-linejoin:round;stroke-miterlimit:4;stroke-dasharray:none;stroke-opacity:1"
         id="path832"
         cy="5.8150325"
         cx="16"
         ry="2.3150325"
         rx="11.5" />
    </g>
    <g
       id="g1041"
       transform="matrix(1.1653014,0,0,1.1661584,3.1816844,3.1783572)"
       style="fill:#e68497">
      <path
         id="path1031"
         d="M 16.518661,20.388672 23.01406,13.74659 20.272997,10.99477 13.682724,17.556641 Z"
         inkscape:connector-curvature="0" />
      <path
         id="path1033"
         d="m 15.772982,22.159365 c 0.189562,0 0.429608,-0.133383 0.44116,-0.329846 l 0.316238,-1.423269 -2.847656,-2.849609 -0.435626,1.659226 c -0.0821,0.318377 -0.208228,0.48954 0.08228,0.779668 l 1.835938,1.833984 c 0.145254,0.145064 0.418106,0.329846 0.607668,0.329846 z"
         inkscape:connector-curvature="0"
         style="fill:#e7acbc" />
      <path
         id="path1035"
         d="m 20.355929,10.602262 c -0.09431,0.0013 -0.184424,0.03917 -0.251411,0.105515 l -6.590301,6.56201 c -0.04606,0.04577 -0.07905,0.10302 -0.09554,0.165809 l -0.435778,1.659763 c -5.69e-4,5.65e-4 -0.0011,0.0011 -0.0017,0.0017 -0.0337,0.130688 -0.09902,0.260727 -0.108945,0.473979 -0.0099,0.213251 0.09746,0.464282 0.286608,0.653186 l 1.835295,1.833947 c 0.0988,0.09867 0.22144,0.194286 0.362031,0.276347 0.140591,0.08207 0.291132,0.15911 0.504497,0.15911 0.180396,0 0.343642,-0.05253 0.492764,-0.154085 0.149161,-0.101592 0.297638,-0.276905 0.311789,-0.517565 l -0.107269,0.236152 6.105605,-6.103388 c 0.06701,-0.06667 0.105475,-0.156751 0.107269,-0.251226 l 0.694204,-1.979373 c 0.0018,-0.0983 -0.03633,-0.19313 -0.105592,-0.26295 l -2.740372,-2.751757 c -0.06959,-0.06983 -0.16453,-0.1085 -0.263143,-0.107189 z"
         inkscape:connector-curvature="0"
         style="fill:none;stroke:#b6496c" />
      <path
         id="path1037"
         d="m 16.518661,20.388672 6.495399,-6.642082 -0.725247,2.222352 -6.352791,6.173541 z"
         inkscape:connector-curvature="0"
         style="fill:#ab4263" />
      <path
         id="path1039"
         d="m 14.170359,17.919585 6.151557,-6.038122 2.362527,2.149586"
         inkscape:connector-curvature="0"
         style="fill:none;stroke:#f398b3;stroke-width:0.85783201" />
    </g>
  </g>
</svg>
