<svg viewBox="0 0 32 32" xmlns="http://www.w3.org/2000/svg" xmlns:xlink="http://www.w3.org/1999/xlink"><linearGradient id="a" gradientTransform="translate(-25.830508 -3.59322)" gradientUnits="userSpaceOnUse" x1="14" x2="13.79661" y1="22" y2="2.135593"><stop offset="0" stop-color="#0040dd"/><stop offset="1" stop-color="#0a84ff"/></linearGradient><linearGradient id="b" gradientUnits="userSpaceOnUse" x1="6.644068" x2="6.423729" xlink:href="#a" y1="9.144068" y2="3.991525"/><linearGradient id="c" gradientUnits="userSpaceOnUse" x1="6.711865" x2="6.423729" xlink:href="#a" y1="18.940678" y2="14.059322"/><path d="m9 6.5a2.5 2.5 0 0 1 -2.5 2.5 2.5 2.5 0 0 1 -2.5-2.5 2.5 2.5 0 0 1 2.5-2.5 2.5 2.5 0 0 1 2.5 2.5z" fill="url(#b)"/><path d="m9 16.5a2.5 2.5 0 0 1 -2.5 2.5 2.5 2.5 0 0 1 -2.5-2.5 2.5 2.5 0 0 1 2.5-2.5 2.5 2.5 0 0 1 2.5 2.5z" fill="url(#c)"/><g fill="#69696e" transform="scale(-1 1)"><rect height="1" ry=".5" width="14.999998" x="-28" y="4"/><rect height="1" ry=".392136" width="15.000005" x="-28" y="14"/><rect height="1" ry=".436441" width="15.000001" x="-28" y="24"/><rect height="1" ry=".5" width="8.999999" x="-22" y="27"/><rect height="1" ry=".5" width="8.999999" x="-22" y="17"/><rect height="1" ry=".5" width="9.000002" x="-22" y="7"/></g><g fill="#eaeaea" fill-opacity=".992157" transform="matrix(-1 0 0 1 0 1)"><rect height="1" ry=".5" width="14.999998" x="-28" y="4"/><rect height="1" ry=".392136" width="15.000005" x="-28" y="14"/><rect height="1" ry=".436441" width="15.000001" x="-28" y="24"/><rect height="1" ry=".5" width="8.999999" x="-22" y="27"/><rect height="1" ry=".5" width="8.999999" x="-22" y="17"/><rect height="1" ry=".5" width="9.000002" x="-22" y="7"/></g><path d="m17.630859 17-1.322265 1.253906a1.0041282 1.0041282 0 0 0 -.308594.650391v.095703h6v-.503906l-1.492188-1.496094zm2.865235 7-1.988282 2h9.492188v-1.513672l-.480469-.486328zm-2.982422 3-1.226563 1.234375a1.0041282 1.0041282 0 0 0 -.287109.625v.140625h6v-2z" fill="#fff" fill-opacity=".784314"/><path d="m31 28.944338-4.895447-4.946153 4.7861-5.086414-2.008392-1.911762-4.867282 4.941173-4.925406-4.941173-2.089573 1.98208 4.925403 5.003525-4.925403 4.955562 2.089573 2.058824 4.922011-5.088233 4.928799 5.088233z" fill="#c20618"/></svg>