<?xml version="1.0" encoding="UTF-8" standalone="no"?>
<svg
   xmlns:dc="http://purl.org/dc/elements/1.1/"
   xmlns:cc="http://creativecommons.org/ns#"
   xmlns:rdf="http://www.w3.org/1999/02/22-rdf-syntax-ns#"
   xmlns:svg="http://www.w3.org/2000/svg"
   xmlns="http://www.w3.org/2000/svg"
   xmlns:sodipodi="http://sodipodi.sourceforge.net/DTD/sodipodi-0.dtd"
   xmlns:inkscape="http://www.inkscape.org/namespaces/inkscape"
   viewBox="0 0 32 32"
   version="1.1"
   id="svg16"
   sodipodi:docname="resetattributes.svg"
   inkscape:export-filename="/home/rizmut/Dokumen/Rizmut/Github/libreoffice-style-sukapura/images_sukapura/cmd/32/resetattributes.png"
   inkscape:export-xdpi="96"
   inkscape:export-ydpi="96"
   inkscape:version="0.92.3 (unknown)">
  <metadata
     id="metadata22">
    <rdf:RDF>
      <cc:Work
         rdf:about="">
        <dc:format>image/svg+xml</dc:format>
        <dc:type
           rdf:resource="http://purl.org/dc/dcmitype/StillImage" />
      </cc:Work>
    </rdf:RDF>
  </metadata>
  <defs
     id="defs20" />
  <sodipodi:namedview
     pagecolor="#ffffff"
     bordercolor="#666666"
     borderopacity="1"
     objecttolerance="10"
     gridtolerance="10"
     guidetolerance="10"
     inkscape:pageopacity="0"
     inkscape:pageshadow="2"
     inkscape:window-width="1366"
     inkscape:window-height="706"
     id="namedview18"
     showgrid="false"
     inkscape:zoom="3.6875"
     inkscape:cx="-19.282909"
     inkscape:cy="-9.5936664"
     inkscape:window-x="0"
     inkscape:window-y="0"
     inkscape:window-maximized="1"
     inkscape:current-layer="svg16" />
  <path
     d="m 4,26 c -1.0907028,0 -2,0.909297 -2,2 0,1.090703 0.9092972,2 2,2 h 7.230469 3.539062 2.460938 3.539062 H 28 c 0.136338,0 0.26919,-0.01402 0.398438,-0.04102 C 29.303168,29.770027 30,28.954365 30,28 30,26.909297 29.090703,26 28,26 H 24.701172 7.2988281 Z"
     id="path2"
     inkscape:connector-curvature="0"
     sodipodi:nodetypes="sssccccssssccs"
     style="fill:#e8e8e8;fill-opacity:0.99215686" />
  <path
     style="fill:#69696e;fill-opacity:1"
     d="m 4,27 c -0.554,0 -1,0.446 -1,1 0,0.554 0.446,1 1,1 h 6.248047 5.521484 0.460938 5.521484 H 28 c 0.1385,0 0.270906,-0.02766 0.390625,-0.07813 C 28.749781,28.770469 29,28.4155 29,28 29,27.446 28.554,27 28,27 H 23.71875 16.992188 15.007812 8.28125 Z"
     id="path4"
     inkscape:connector-curvature="0"
     sodipodi:nodetypes="sssccccscssccccs" />
  <path
     d="m15.947266 2.0175781a1.0001 1.0001 0 0 0 -.878907.5234375l-11.9472652 21.9843754a1.0001 1.0001 0 0 0  .875 1.476562l3.5351562.015625c.5522317.0026 1.1176486-.176469 1.5429688-.527344a1.0001 1.0001 0 0 0  .0039062-.003906c.3141586-.261673.5789317-.585202.7480469-.96875l2.6601561-4.433594h7.064453l.167969.871094a1.0001 1.0001 0 0 0  .259766.5c1.522561-1.457986 3.034762-2.949657 4.53125-4.5l-3.185547-14.1562499a1.0001 1.0001 0 0 0 -.976563-.78125zm.59375 2h3.005859l3.035156 13.4843749c-.419902.423029-.843273.83417-1.265625 1.25a1.0001 1.0001 0 0 0 -.941406-.667969h-8.455078a1.0001 1.0001 0 0 0 -.857422.486328l-2.9726562 4.957032a1.0001 1.0001 0 0 0 -.0839844.173828c-.013804.03828-.05947.123262-.2050782.246094-.055835.04606-.090151.071252-.2597656.070312a1.0001 1.0001 0 0 0 -.0019531 0l-1.8613281-.007812zm1.615234 2.0058594a1.0001 1.0001 0 0 0 -.896484.5097656l-5.365235 9.5234379a1.0001 1.0001 0 0 0  .871094 1.490234h6.763672a1.0001 1.0001 0 0 0  .990234-1.144531l-1.398437-9.5234378a1.0001 1.0001 0 0 0 -.964844-.8554687zm-.589844 4.0390625.804688 5.484375h-3.894532z"
     fill="#e7e7e7"
     fill-opacity=".992157"
     id="path6" />
  <path
     d="m15.947266 3.0175781-11.947266 21.9843749 3.5351562.015625c.361222.002.6615254-.100161.9023438-.298828.2517646-.209703.4221953-.43492.5097656-.677734l2.9726564-4.957032h8.455078l.326172 1.681641c.998014-.962652 1.9915-1.94142 2.978516-2.943359l-3.332032-14.8046879zm2.183593 4.0058594 1.398438 9.5234375h-6.763672z"
     fill="#696969"
     id="path8"
     style="fill:#69696e;fill-opacity:1" />
  <g
     transform="matrix(1.1653014 0 0 1.1661584 3.181684 3.178357)"
     id="g14"
     fill="#e68497">
    <path
       d="m16.518661 20.388672 6.495399-6.642082-2.741063-2.75182-6.590273 6.561871z"
       id="path10" />
    <path
       d="m 15.772982,22.159365 c 0.189562,0 0.429608,-0.133383 0.44116,-0.329846 l 0.316238,-1.423269 -2.847656,-2.849609 -0.435626,1.659226 c -0.0821,0.318377 -0.208228,0.48954 0.08228,0.779668 l 1.835938,1.833984 c 0.145254,0.145064 0.418106,0.329846 0.607668,0.329846 z"
       id="path12"
       inkscape:connector-curvature="0"
       sodipodi:nodetypes="sccccccs"
       style="fill:#e7acbc;fill-opacity:1" />
    <path
       style="fill:none;stroke:#b6496c;stroke-width:1;stroke-opacity:1"
       d="m 20.355929,10.602262 c -0.09431,0.0013 -0.184424,0.03917 -0.251411,0.105515 l -6.590301,6.56201 c -0.04606,0.04577 -0.07905,0.10302 -0.09554,0.165809 l -0.435778,1.659763 c -5.69e-4,5.65e-4 -0.0011,0.0011 -0.0017,0.0017 -0.0337,0.130688 -0.09902,0.260727 -0.108945,0.473979 -0.0099,0.213251 0.09746,0.464282 0.286608,0.653186 l 1.835295,1.833947 c 0.0988,0.09867 0.22144,0.194286 0.362031,0.276347 0.140591,0.08207 0.291132,0.15911 0.504497,0.15911 0.180396,0 0.343642,-0.05253 0.492764,-0.154085 0.149161,-0.101592 0.297638,-0.276905 0.311789,-0.517565 l -0.107269,0.236152 6.105605,-6.103388 c 0.06701,-0.06667 0.105475,-0.156751 0.107269,-0.251226 l 0.694204,-1.979373 c 0.0018,-0.0983 -0.03633,-0.19313 -0.105592,-0.26295 l -2.740372,-2.751757 c -0.06959,-0.06983 -0.16453,-0.1085 -0.263143,-0.107189 z"
       id="path843"
       inkscape:connector-curvature="0"
       sodipodi:nodetypes="ccccccccccscccccccccc" />
    <path
       id="path855"
       d="m 16.518661,20.388672 6.495399,-6.642082 -0.725247,2.222352 -6.352791,6.173541 z"
       inkscape:connector-curvature="0"
       sodipodi:nodetypes="ccccc"
       style="fill:#ab4263;fill-opacity:1" />
    <path
       style="fill:none;fill-opacity:1;stroke:#f398b3;stroke-width:0.85783172px;stroke-linecap:butt;stroke-linejoin:miter;stroke-opacity:1"
       d="m 14.170359,17.919585 6.151557,-6.038122 2.362527,2.149586"
       id="path862"
       inkscape:connector-curvature="0"
       sodipodi:nodetypes="ccc" />
  </g>
</svg>
