<?xml version="1.0" encoding="UTF-8" standalone="no"?>
<svg
   xmlns:dc="http://purl.org/dc/elements/1.1/"
   xmlns:cc="http://creativecommons.org/ns#"
   xmlns:rdf="http://www.w3.org/1999/02/22-rdf-syntax-ns#"
   xmlns:svg="http://www.w3.org/2000/svg"
   xmlns="http://www.w3.org/2000/svg"
   xmlns:sodipodi="http://sodipodi.sourceforge.net/DTD/sodipodi-0.dtd"
   xmlns:inkscape="http://www.inkscape.org/namespaces/inkscape"
   viewBox="0 0 32 32"
   version="1.1"
   id="svg1043"
   sodipodi:docname="resetattributes.svg"
   inkscape:version="0.92.3 (unknown)"
   inkscape:export-filename="/home/rizmut/Dokumen/Rizmut/Github/libreoffice-style-sukapura/images_sukapura/cmd/32/resetattributes.png"
   inkscape:export-xdpi="96"
   inkscape:export-ydpi="96">
  <metadata
     id="metadata1049">
    <rdf:RDF>
      <cc:Work
         rdf:about="">
        <dc:format>image/svg+xml</dc:format>
        <dc:type
           rdf:resource="http://purl.org/dc/dcmitype/StillImage" />
      </cc:Work>
    </rdf:RDF>
  </metadata>
  <defs
     id="defs1047" />
  <sodipodi:namedview
     pagecolor="#ffffff"
     bordercolor="#666666"
     borderopacity="1"
     objecttolerance="10"
     gridtolerance="10"
     guidetolerance="10"
     inkscape:pageopacity="0"
     inkscape:pageshadow="2"
     inkscape:window-width="1366"
     inkscape:window-height="706"
     id="namedview1045"
     showgrid="false"
     inkscape:zoom="7.375"
     inkscape:cx="16"
     inkscape:cy="16"
     inkscape:window-x="0"
     inkscape:window-y="0"
     inkscape:window-maximized="1"
     inkscape:current-layer="svg1043" />
  <path
     d="m4 27c-.554 0-1 .446-1 1s.446 1 1 1h6.248047 5.521484.460938 5.521484 6.248047c.1385 0 .270906-.02766.390625-.07813.359156-.151401.609375-.50637.609375-.92187 0-.554-.446-1-1-1h-4.28125-6.726562-1.984376-6.726562z"
     fill="#69696e"
     id="path1025" />
  <path
     d="m15.947266 3.0175781-11.947266 21.9843749 3.5351562.015625c.361222.002.6615254-.100161.9023438-.298828.2517646-.209703.4221953-.43492.5097656-.677734l2.9726564-4.957032h8.455078l.326172 1.681641c.998014-.962652 1.9915-1.94142 2.978516-2.943359l-3.332032-14.8046879zm2.183593 4.0058594 1.398438 9.5234375h-6.763672z"
     fill="#69696e"
     id="path1029" />
  <g
     fill="#e68497"
     transform="matrix(1.1653014 0 0 1.1661584 3.181684 3.178357)"
     id="g1041">
    <path
       d="m16.518661 20.388672 6.495399-6.642082-2.741063-2.75182-6.590273 6.561871z"
       id="path1031" />
    <path
       d="m15.772982 22.159365c.189562 0 .429608-.133383.44116-.329846l.316238-1.423269-2.847656-2.849609-.435626 1.659226c-.0821.318377-.208228.48954.08228.779668l1.835938 1.833984c.145254.145064.418106.329846.607668.329846z"
       fill="#e7acbc"
       id="path1033" />
    <path
       d="m20.355929 10.602262c-.09431.0013-.184424.03917-.251411.105515l-6.590301 6.56201c-.04606.04577-.07905.10302-.09554.165809l-.435778 1.659763c-.000569.000565-.0011.0011-.0017.0017-.0337.130688-.09902.260727-.108945.473979-.0099.213251.09746.464282.286608.653186l1.835295 1.833947c.0988.09867.22144.194286.362031.276347.140591.08207.291132.15911.504497.15911.180396 0 .343642-.05253.492764-.154085.149161-.101592.297638-.276905.311789-.517565l-.107269.236152 6.105605-6.103388c.06701-.06667.105475-.156751.107269-.251226l.694204-1.979373c.0018-.0983-.03633-.19313-.105592-.26295l-2.740372-2.751757c-.06959-.06983-.16453-.1085-.263143-.107189z"
       fill="none"
       stroke="#b6496c"
       id="path1035" />
    <path
       d="m16.518661 20.388672 6.495399-6.642082-.725247 2.222352-6.352791 6.173541z"
       fill="#ab4263"
       id="path1037" />
    <path
       d="m14.170359 17.919585 6.151557-6.038122 2.362527 2.149586"
       fill="none"
       stroke="#f398b3"
       stroke-width=".857832"
       id="path1039" />
  </g>
</svg>
