<?xml version="1.0" encoding="UTF-8" standalone="no"?>
<svg
   xmlns:dc="http://purl.org/dc/elements/1.1/"
   xmlns:cc="http://creativecommons.org/ns#"
   xmlns:rdf="http://www.w3.org/1999/02/22-rdf-syntax-ns#"
   xmlns:svg="http://www.w3.org/2000/svg"
   xmlns="http://www.w3.org/2000/svg"
   xmlns:sodipodi="http://sodipodi.sourceforge.net/DTD/sodipodi-0.dtd"
   xmlns:inkscape="http://www.inkscape.org/namespaces/inkscape"
   viewBox="0 0 32 32"
   version="1.1"
   id="svg56"
   sodipodi:docname="saveas.svg"
   inkscape:version="0.92.3 (2405546, 2018-03-11)">
  <metadata
     id="metadata62">
    <rdf:RDF>
      <cc:Work
         rdf:about="">
        <dc:format>image/svg+xml</dc:format>
        <dc:type
           rdf:resource="http://purl.org/dc/dcmitype/StillImage" />
        <dc:title></dc:title>
      </cc:Work>
    </rdf:RDF>
  </metadata>
  <defs
     id="defs60" />
  <sodipodi:namedview
     pagecolor="#ffffff"
     bordercolor="#666666"
     borderopacity="1"
     objecttolerance="10"
     gridtolerance="10"
     guidetolerance="10"
     inkscape:pageopacity="0"
     inkscape:pageshadow="2"
     inkscape:window-width="1366"
     inkscape:window-height="685"
     id="namedview58"
     showgrid="false"
     inkscape:zoom="14.75"
     inkscape:cx="12.402558"
     inkscape:cy="12.343943"
     inkscape:window-x="0"
     inkscape:window-y="0"
     inkscape:window-maximized="1"
     inkscape:current-layer="svg56" />
  <linearGradient
     id="a"
     gradientUnits="userSpaceOnUse"
     x1="4"
     x2="4"
     y1="18.5"
     y2="3.5">
    <stop
       offset="0"
       stop-color="#4f4f4f"
       id="stop2" />
    <stop
       offset=".80000001"
       stop-color="#4f4f4f"
       stop-opacity=".498039"
       id="stop4" />
    <stop
       offset="1"
       stop-color="#b7b7b7"
       id="stop6" />
  </linearGradient>
  <filter
     id="b"
     color-interpolation-filters="sRGB"
     height="1.082452"
     width="2.278"
     x="-.639"
     y="-.041226">
    <feGaussianBlur
       stdDeviation=".26625"
       id="feGaussianBlur9" />
  </filter>
  <linearGradient
     id="c"
     gradientUnits="userSpaceOnUse"
     x1="28"
     x2="28"
     y1="21"
     y2="4">
    <stop
       offset="0"
       stop-color="#4f4f4f"
       id="stop12" />
    <stop
       offset=".88235295"
       stop-color="#4f4f4f"
       stop-opacity=".498039"
       id="stop14" />
    <stop
       offset="1"
       stop-color="#b7b7b7"
       id="stop16" />
  </linearGradient>
  <filter
     id="d"
     color-interpolation-filters="sRGB"
     height="1.071"
     width="2.278"
     x="-.639"
     y="-.0355">
    <feGaussianBlur
       stdDeviation=".26625"
       id="feGaussianBlur19" />
  </filter>
  <filter
     id="e"
     color-interpolation-filters="sRGB"
     height="1.168"
     width="1.126"
     x="-.063"
     y="-.084">
    <feGaussianBlur
       stdDeviation=".1575"
       id="feGaussianBlur22" />
  </filter>
  <linearGradient
     id="f"
     gradientUnits="userSpaceOnUse"
     x1="17"
     x2="17"
     y1="27"
     y2="17">
    <stop
       offset="0"
       stop-color="#dadada"
       id="stop25" />
    <stop
       offset=".30000001"
       stop-color="#fff"
       id="stop27" />
    <stop
       offset="1"
       stop-color="#fff"
       id="stop29" />
  </linearGradient>
  <g
     id="g897">
    <path
       id="path32"
       fill="#3e3e3e"
       d="m4 3c-.554 0-1 .446-1 1v19.5l4.5 5.5h20.5c.554 0 1-.446 1-1v-24c0-.554-.446-1-1-1z" />
    <path
       id="path34"
       fill="url(#f)"
       d="m9 18c-.554 0-1 .446-1 1v7c0 .554.446 1 1 1h4v-7h3v7h8c.554 0 1-.446 1-1v-7c0-.554-.446-1-1-1z" />
    <rect
       id="rect36"
       y="4"
       x="7"
       width="18"
       rx=".5"
       height="11"
       fill="#fff" />
    <path
       id="path38"
       fill="#2a2a2a"
       d="m13 20h3v1h-3z" />
    <path
       id="path40"
       fill="#bababa"
       d="m8 6h16v1h-16z" />
    <path
       id="path42"
       fill="#bababa"
       d="m8 8h16v1h-16z" />
    <rect
       id="rect44"
       y="3.5"
       x="4"
       width="1.5"
       rx=".351695"
       height="20.5"
       filter="url(#b)"
       fill="url(#a)" />
    <path
       id="path46"
       filter="url(#d)"
       fill="url(#c)"
       d="m26.5 3.5h1.5v23.5h-1.5z" />
    <path
       id="path48"
       filter="url(#e)"
       fill="#3b3b3b"
       d="m6 15h20.5v4c-.332428-1.585337-1.430373-1.690577-3-2.5h-17.5z" />
    <path
       id="path50"
       fill="#bababa"
       d="m8 10h16v1h-16z" />
    <path
       id="path52"
       fill="#0a84ff"
       d="m9 4h14v1h-14z" />
    <path
       id="path54"
       fill="#bababa"
       d="m8 12h16v1h-16z" />
  </g>
  <g
     transform="matrix(1.1667513,0,0,1.1666667,3.6640987,2.6706512)"
     id="g12"
     style="fill:#eac282">
    <path
       d="m 11.437572,19.627857 -1.09644,4.02504 3.951909,-1.171525 c 1.653046,-0.339535 -2.065034,-3.99245 -2.855469,-2.853515 z"
       id="path8"
       style="fill:#a2a2a7;fill-opacity:1;stroke:#848489;stroke-width:0.85711175;stroke-miterlimit:4;stroke-dasharray:none;stroke-opacity:1"
       inkscape:connector-curvature="0"
       sodipodi:nodetypes="cccc" />
    <path
       d="m 20.419922,11 c -0.189562,0 -0.378184,0.07172 -0.523438,0.216797 l -1.673828,1.669922 2.847656,2.849609 1.710938,-1.638672 c 0.290506,-0.290127 0.290506,-0.756747 0,-1.046875 L 20.945312,11.216797 C 20.800058,11.071733 20.609484,11 20.419922,11 Z"
       id="path10"
       style="fill:#e68497;fill-opacity:1;stroke:#b6496c;stroke-width:0.85711175;stroke-miterlimit:4;stroke-dasharray:none;stroke-opacity:1"
       inkscape:connector-curvature="0" />
    <path
       inkscape:connector-curvature="0"
       style="fill:none;stroke:#f398b3;stroke-width:0.85711175"
       d="m 19.288937,13.155429 1.143664,-1.12071 1.850278,1.787531"
       id="path32-1"
       sodipodi:nodetypes="ccc" />
    <path
       style="fill:#ffcc00;fill-opacity:1;stroke:#c89e00;stroke-width:0.85711175;stroke-miterlimit:4;stroke-dasharray:none;stroke-opacity:1"
       id="path874"
       d="m 17.603733,13.488055 -5.652561,5.646711 2.855469,2.853515 5.633029,-5.668195 z"
       inkscape:connector-curvature="0"
       sodipodi:nodetypes="ccccc" />
    <path
       inkscape:connector-curvature="0"
       style="fill:#ffe014;stroke-width:0.85711175"
       d="m 19.761836,15.247137 -1.100691,-1.177408 -6.1837,6.223955 1.082595,1.146887 z"
       id="path14"
       sodipodi:nodetypes="ccccc" />
  </g>
</svg>
