<svg viewBox="0 0 32 32" xmlns="http://www.w3.org/2000/svg" xmlns:xlink="http://www.w3.org/1999/xlink"><linearGradient id="a" gradientUnits="userSpaceOnUse" x1="-.833197" x2="-.833197" y1="25.406162" y2="10.406162"><stop offset="0" stop-color="#0040dd"/><stop offset="1" stop-color="#0a84ff"/></linearGradient><path d="m19 12-15 14" fill="none" stroke="#616165" stroke-linecap="round" stroke-width="4"/><path d="m19 3c-.087731 0-.172638.0111783-.259766.0136719-.213548.0059097-.426515.0104315-.636718.03125-.071224.0070477-.140212.0225514-.210938.03125-.225536.0277986-.451183.0571484-.671875.1015625-.105323.0211194-.206588.0514104-.310547.0761718-.17823.0425771-.356939.083596-.53125.1367188-.138502.0421251-.27262.0940426-.408203.1425781-.136667.0489865-.27448.0950108-.408203.1503907-.141272.0584527-.276524.1260741-.414062.1914062-.126192.0599411-.253915.1160271-.376954.1816406-.119555.0637924-.233348.1361235-.349609.2050782-.135156.0800745-.271686.157234-.402344.2441406-.103817.069144-.202014.1454681-.302734.21875-.132291.0961042-.265707.1898631-.392578.2929687-.088433.0719794-.170261.1513377-.25586.2265625-.136257.1195491-.273404.2376055-.402343.3652344-.059881.0593532-.113673.1245416-.171875.1855469-.139109.1456203-.278878.2903696-.408203.4453125-.059455.0712824-.112657.1475788-.169922.2207031-.123553.1576771-.246245.3162325-.359375.4824219-.039811.0584772-.074824.1202345-.113282.1796875-.118442.1831473-.234534.3681323-.339843.5605469-.03889.0709749-.072359.1446755-.109375.2167968-.0942.1837901-.187745.3672909-.269532.5585938-.044525.1039289-.080413.212459-.121093.3183594-.063595.1659173-.129587.3310995-.183594.5019531-.039556.1248182-.067369.2537508-.101563.3808593-.043413.1617201-.090364.3207746-.125.4863278-.026847.128235-.043128.260448-.064453.390625-.025206.153444-.056714.304637-.074218.460938-.001766.015757-.000288.031132-.001954.046875-.033161.314105-.052734.632183-.052734.955078 0 4.766746 3.708735 8.656827 8.396484 8.96875.031913-.094759.081347-.177424.117188-.269531.025388.095593.064755.183455.085937.28125.283491.012792.565123.011473.84375-.001953.224066-.688936.542777-1.318515.972657-1.869141.93264-1.201368 2.311657-1.880859 3.828125-1.880859.641498 0 1.243839.137568 1.808593.349609.041335-.052062.078931-.107133.119141-.160156v-3.417969a1.0178898 1.0178898 0 0 1 1.017578-1.017578h.753906c.034218-.312105.05057-.622366.052735-.929688.000122-.017832.003906-.03487.003906-.052734 0-.1451-.014694-.286268-.021484-.429688-.006915-.147515-.009379-.295531-.023438-.441406-.014138-.147049-.039418-.290651-.060547-.435547-.021757-.148628-.039331-.298855-.068359-.445312-.036253-.183709-.085564-.3615083-.132813-.5410158-.026236-.0993718-.04662-.2007161-.076171-.2988281-.062802-.209021-.137558-.4129174-.214844-.6152343-.025737-.0672794-.046911-.1365822-.074219-.203125-.083532-.2037888-.179614-.3997248-.277344-.5957032-.031993-.0641608-.060266-.1300384-.09375-.1933594-.09486-.1793323-.200273-.351544-.30664-.5234374-.046895-.0758634-.089584-.1541159-.138672-.2285157-.108687-.1645343-.226739-.3217788-.345703-.4785156-.05513-.0727431-.106763-.1477107-.164063-.21875-.111429-.1379426-.232325-.267387-.351562-.3984375-.079401-.0874033-.15547-.1774395-.238282-.2617188-.098555-.1001635-.203517-.1935811-.30664-.2890624-.110458-.1024131-.21834-.2077734-.333985-.3046876-.107121-.0896781-.220759-.1711604-.332031-.2558593-.117753-.0896934-.233091-.1816376-.355469-.265625-.118265-.0811599-.242989-.1529518-.365234-.2285157-.124464-.0769122-.246407-.1575326-.375-.2285156-.138807-.0766928-.282615-.1434403-.425781-.2128906-.116505-.0564377-.230191-.1164181-.34961-.1679688-.176259-.0762298-.359131-.1400097-.541015-.2050781-.094129-.0336068-.185584-.0729423-.28125-.1035156-.196298-.062869-.397703-.1106551-.59961-.1601563-.090555-.0221743-.177808-.0508535-.269531-.0703124-.208112-.0441621-.421611-.074011-.634765-.1035157-.081351-.0113386-.16006-.0298641-.242188-.0390625-.009182-.0010284-.018165-.0009531-.027344-.0019531-.167208-.0179865-.337989-.0225504-.507812-.03125-.143329-.007548-.28749-.0207309-.429688-.0214844-.011864-.0000459-.023281-.0019531-.035156-.0019531z" fill="#646464"/><path d="m19 5a7 7 0 0 0 -.599609.0292969 7 7 0 0 0 -.345703.0429687 7 7 0 0 0 -.335938.0507813 7 7 0 0 0 -.378906.0839843 7 7 0 0 0 -.298828.078125 7 7 0 0 0 -.363282.1191407 7 7 0 0 0 -.300781.1113281 7 7 0 0 0 -.324219.1445312 7 7 0 0 0 -.324218.15625 7 7 0 0 0 -.28711.1640626 7 7 0 0 0 -.300781.1855468 7 7 0 0 0 -.306641.21875 7 7 0 0 0 -.257812.1972656 7 7 0 0 0 -.269531.234375 7 7 0 0 0 -.253907.2363282 7 7 0 0 0 -.236328.2539062 7 7 0 0 0 -.234375.2695313 7 7 0 0 0 -.197265.2578125 7 7 0 0 0 -.21875.3066406 7 7 0 0 0 -.185547.3007812 7 7 0 0 0 -.164063.2871094 7 7 0 0 0 -.15625.3242188 7 7 0 0 0 -.144531.3242187 7 7 0 0 0 -.111328.3007813 7 7 0 0 0 -.119141.3632816 7 7 0 0 0 -.078125.298828 7 7 0 0 0 -.083984.378906 7 7 0 0 0 -.050781.335938 7 7 0 0 0 -.042969.345703 7 7 0 0 0 -.029297.599609 7 7 0 0 0 .021484.410156 7 7 0 0 0 .03125.402344 7 7 0 0 0 .039063.263672 7 7 0 0 0 .082031.449219 7 7 0 0 0 .048828.193359 7 7 0 0 0 .140625.486328 7 7 0 0 0 .060547.166016 7 7 0 0 0 .199219.5 7 7 0 0 0 .058594.121094 7 7 0 0 0 .263671.507812 7 7 0 0 0 .048829.080078 7 7 0 0 0 .339843.519531 7 7 0 0 0 .03125.041016 7 7 0 0 0 .40625.501953 7 7 0 0 0 .039063.042969 7 7 0 0 0 .457031.462891 7 7 0 0 0 .023438.019531 7 7 0 0 0 .521484.43164 7 7 0 0 0 3.605469 1.373047 7 7 0 0 0 .007812 0 7 7 0 0 0 .574219.027344 7 7 0 0 0 .574219-.027344 7 7 0 0 0 .007812 0 7 7 0 0 0 1.123047-.195312c.765885-.826944 1.764989-1.349957 2.871094-1.5a7 7 0 0 0 .132812-.109375 7 7 0 0 0 .023438-.019531 7 7 0 0 0 .457031-.462891 7 7 0 0 0 .039063-.042969 7 7 0 0 0 .40625-.501953 7 7 0 0 0 .03125-.041016 7 7 0 0 0 .339843-.519531 7 7 0 0 0 .048829-.080078 7 7 0 0 0 .263671-.507812 7 7 0 0 0 .058594-.121094 7 7 0 0 0 .199219-.5 7 7 0 0 0 .060547-.166016 7 7 0 0 0 .140625-.486328 7 7 0 0 0 .048828-.193359 7 7 0 0 0 .082031-.449219 7 7 0 0 0 .039063-.263672 7 7 0 0 0 .03125-.402344 7 7 0 0 0 .021484-.410156 7 7 0 0 0 -.029297-.599609 7 7 0 0 0 -.042969-.345703 7 7 0 0 0 -.050781-.335938 7 7 0 0 0 -.083984-.378906 7 7 0 0 0 -.078125-.298828 7 7 0 0 0 -.119141-.3632816 7 7 0 0 0 -.111328-.3007813 7 7 0 0 0 -.144531-.3242187 7 7 0 0 0 -.15625-.3242188 7 7 0 0 0 -.164063-.2871094 7 7 0 0 0 -.185547-.3007812 7 7 0 0 0 -.21875-.3066406 7 7 0 0 0 -.197265-.2578125 7 7 0 0 0 -.234375-.2695313 7 7 0 0 0 -.236328-.2539062 7 7 0 0 0 -.253907-.2363282 7 7 0 0 0 -.269531-.234375 7 7 0 0 0 -.257812-.1972656 7 7 0 0 0 -.306641-.21875 7 7 0 0 0 -.300781-.1855468 7 7 0 0 0 -.28711-.1640626 7 7 0 0 0 -.324218-.15625 7 7 0 0 0 -.324219-.1445312 7 7 0 0 0 -.300781-.1113281 7 7 0 0 0 -.363282-.1191407 7 7 0 0 0 -.298828-.078125 7 7 0 0 0 -.378906-.0839843 7 7 0 0 0 -.335938-.0507813 7 7 0 0 0 -.345703-.0429687 7 7 0 0 0 -.599609-.0292969z" fill="#fff"/><path d="m21.356641 16.781919q-.156559-.313118-.254409-1.115484-1.262258 1.311184-3.013765 1.311184-1.565592 0-2.573443-.880646-.998065-.890431-.998065-2.250539 0-1.653657 1.252474-2.563658 1.262259-.919786 3.542153-.919786h1.761292v-.8317205q0-.9491404-.567528-1.5068827-.567527-.5675273-1.673227-.5675273-.96871 0-1.624302.4892477-.655592.4892476-.655592 1.1839792h-1.820001q0-.7925811.557743-1.5264526.567527-.7436564 1.526452-1.1741943.96871-.4305379 2.123335-.4305379 1.829786 0 2.866991.9197855 1.037205.9100006 1.076345 2.5147329v4.872906q0 1.457958.371828 2.319034v.156559zm-3.00398-1.379678q.851291 0 1.614517-.440323.763226-.440323 1.1057-1.144839v-2.17226h-1.418819q-3.326883 0-3.326883 1.947206 0 .851291.567527 1.330753.567527.479463 1.457958.479463z" fill="#616165"/><path d="m20.063649 23.647346q0-2.436453 1.154625-3.913981 1.154624-1.487313 3.02355-1.487313 1.859141 0 2.945271 1.272044v-5.518714h1.810216v15.029688h-1.663442l-.08806-1.135055q-1.08613 1.330754-3.023551 1.330754-1.839571 0-3.00398-1.506883-1.154625-1.506882-1.154625-3.933551zm1.810217.205484q0 1.800431.743656 2.818066.743657 1.017635 2.05484 1.017635 1.722152 0 2.514733-1.546022v-4.863122q-.812151-1.497097-2.495163-1.497097-1.330753 0-2.07441 1.02742-.743656 1.02742-.743656 3.04312z" fill="url(#a)" transform="translate(.002689 .000618)"/></svg>