<svg viewBox="0 0 32 32" xmlns="http://www.w3.org/2000/svg" xmlns:xlink="http://www.w3.org/1999/xlink"><filter id="a" color-interpolation-filters="sRGB" height="1.06092" width="1.088006" x="-.044003" y="-.03046"><feGaussianBlur stdDeviation=".32993606"/></filter><g fill-rule="evenodd"><path d="m7.5 3.1375463a.49643477.49643477 0 0 0 -.4980469.4960938v23.5332029a.49643477.49643477 0 0 0 .8613281.335938l4.9472658-5.376954 2.625 5.615235-.01953-.04687c.239155.682161.804342 1.126271 1.421875 1.314453.617532.188182 1.297882.157213 1.923828-.04687.625946-.204088 1.209076-.58787 1.572265-1.167969.36319-.580098.46811-1.356713.181641-2.173828a.49643477.49643477 0 0 0 -.015626-.037119l-3.091797-6.972657h7.09375a.49643477.49643477 0 0 0 .322266-.873047l-17.0039065-14.480468a.49643477.49643477 0 0 0 -.3203125-.1191407z" fill="#141414" filter="url(#a)" transform="matrix(1.0317475 0 0 1.0395556 -.821826 -.095883)"/><path d="m7.5 3.0019531a.49643477.49643477 0 0 0 -.4980469.4960938v23.5332031a.49643477.49643477 0 0 0 .8613281.335938l4.9472658-5.376954 2.625 5.615235-.01953-.04687c.239155.682161.804342 1.126271 1.421875 1.314453.617532.188182 1.297882.157213 1.923828-.04687.625946-.204088 1.209076-.58787 1.572265-1.167969.36319-.580098.46811-1.356713.181641-2.173828a.49643477.49643477 0 0 0 -.015626-.037119l-3.091797-6.972657h7.09375a.49643477.49643477 0 0 0 .322266-.873047l-17.0039065-14.4804682a.49643477.49643477 0 0 0 -.3203125-.1191407z" fill="#fff"/><path d="m7.9921875 4.5683594v21.1972656l4.5917965-4.990234a.49392495.49392495 0 0 1 .810547.125l2.9375 6.285156a.49392495.49392495 0 0 1 .01953.04492c.128332.366048.390085.577897.775391.695312s.882486.104284 1.328125-.04102c.445639-.1453.828025-.414876 1.039063-.751954.211038-.337077.289288-.740281.08594-1.320312l-3.384766-7.634766a.49392495.49392495 0 0 1 .451172-.693359h6.511719z" fill="#050505"/></g></svg>