<?xml version="1.0" encoding="UTF-8" standalone="no"?>
<svg
   xmlns:dc="http://purl.org/dc/elements/1.1/"
   xmlns:cc="http://creativecommons.org/ns#"
   xmlns:rdf="http://www.w3.org/1999/02/22-rdf-syntax-ns#"
   xmlns:svg="http://www.w3.org/2000/svg"
   xmlns="http://www.w3.org/2000/svg"
   xmlns:xlink="http://www.w3.org/1999/xlink"
   xmlns:sodipodi="http://sodipodi.sourceforge.net/DTD/sodipodi-0.dtd"
   xmlns:inkscape="http://www.inkscape.org/namespaces/inkscape"
   viewBox="0 0 32 32"
   version="1.1"
   id="svg12"
   sodipodi:docname="sendtoback.svg"
   inkscape:version="0.92.3 (unknown)"
   inkscape:export-filename="/home/rizmut/Dokumen/Rizmut/Github/libreoffice-style-sukapura/images_sukapura/cmd/32/sendtoback.png"
   inkscape:export-xdpi="96"
   inkscape:export-ydpi="96"
   width="32"
   height="32"><metadata
   id="metadata18">
  <rdf:RDF>
    <cc:Work
       rdf:about="">
      <dc:format>image/svg+xml</dc:format>
      <dc:type
         rdf:resource="http://purl.org/dc/dcmitype/StillImage" />
      <dc:title></dc:title>
    </cc:Work>
  </rdf:RDF>
</metadata>
<defs
   id="defs16">
  <linearGradient
     gradientTransform="translate(-12,28)"
     y2="2"
     y1="16"
     x2="10"
     x1="10"
     gradientUnits="userSpaceOnUse"
     id="linearGradient1639">
    <stop
       id="stop1633"
       stop-color="#f5f5f5"
       offset="0" />
    <stop
       id="stop1637"
       stop-color="#fff"
       offset="1" />
  </linearGradient>
  <linearGradient
     inkscape:collect="always"
     xlink:href="#linearGradient1639"
     id="linearGradient1117"
     x1="23.982679"
     y1="10.770369"
     x2="24.022524"
     y2="4.141243"
     gradientUnits="userSpaceOnUse" />
  <linearGradient
     inkscape:collect="always"
     xlink:href="#linearGradient1639"
     id="linearGradient1129"
     gradientUnits="userSpaceOnUse"
     x1="23.982679"
     y1="10.770369"
     x2="24.022524"
     y2="4.141243" />
</defs>
<sodipodi:namedview
   pagecolor="#ffffff"
   bordercolor="#666666"
   borderopacity="1"
   objecttolerance="10"
   gridtolerance="10"
   guidetolerance="10"
   inkscape:pageopacity="0"
   inkscape:pageshadow="2"
   inkscape:window-width="1366"
   inkscape:window-height="706"
   id="namedview14"
   showgrid="true"
   inkscape:zoom="8"
   inkscape:cx="20.351162"
   inkscape:cy="15.466078"
   inkscape:window-x="0"
   inkscape:window-y="0"
   inkscape:window-maximized="1"
   inkscape:current-layer="g1103"
   inkscape:snap-global="true">
  <inkscape:grid
     type="xygrid"
     id="grid828"
     spacingx="0.5"
     spacingy="0.5"
     empspacing="2" />
</sodipodi:namedview>


     /&amp;gt;
 <g
   id="g1103">
  <g
     id="g1138">
    <path
       id="path10"
       d="M 8.2539062 8 C 7.559059 8 7 8.5590592 7 9.2539062 L 7 22.746094 C 7 23.440941 7.559059 24 8.2539062 24 L 23.746094 24 C 24.440941 24 25 23.440941 25 22.746094 L 25 9.2539062 C 25 8.5590592 24.440941 8 23.746094 8 L 8.2539062 8 z M 8 9 L 24 9 L 24 23 L 8 23 L 8 9 z "
       style="fill:#e4b500;fill-opacity:1" />
    <rect
       y="9"
       x="8"
       height="14"
       width="16"
       id="rect1131"
       style="fill:#ffcc00;fill-opacity:1;stroke:none;stroke-opacity:1" />
  </g>
  <g
     id="g1127"
     transform="translate(-12.949219,16)">
    <path
       style="fill:#98989d;fill-opacity:1"
       d="M 16.949219,3 C 16.422919,3 16,3.4229187 16,3.9492188 V 7 11.050781 C 16,11.577081 16.422919,12 16.949219,12 H 26 28.050781 c 0.131575,0 0.257434,-0.02635 0.371094,-0.07422 C 28.762854,11.782165 29,11.445506 29,11.050781 V 8 3.9492188 C 29,3.4229188 28.577081,3 28.050781,3 H 19 Z M 17,4 h 2 9 v 4 3 H 26 17 V 7 Z"
       id="path1123"
       inkscape:connector-curvature="0" />
    <path
       style="fill:url(#linearGradient1129);fill-opacity:1"
       d="m 17,4 v 3 4 h 9 2 V 8 4 h -9 z"
       id="path1125"
       inkscape:connector-curvature="0"
       sodipodi:nodetypes="ccccccccc" />
  </g>
  <g
     id="g1121">
    <path
       id="path6-3"
       d="M 16.949219 3 C 16.422919 3 16 3.4229187 16 3.9492188 L 16 7 L 16 11.050781 C 16 11.577081 16.422919 12 16.949219 12 L 26 12 L 28.050781 12 C 28.182356 12 28.308215 11.973653 28.421875 11.925781 C 28.762854 11.782165 29 11.445506 29 11.050781 L 29 8 L 29 3.9492188 C 29 3.4229188 28.577081 3 28.050781 3 L 19 3 L 16.949219 3 z M 17 4 L 19 4 L 28 4 L 28 8 L 28 11 L 26 11 L 17 11 L 17 7 L 17 4 z "
       style="fill:#98989d;fill-opacity:1" />
    <path
       id="path8"
       d="m 17,4 v 3 4 h 9 2 V 8 4 h -9 z"
       style="fill:url(#linearGradient1117);fill-opacity:1"
       inkscape:connector-curvature="0"
       sodipodi:nodetypes="ccccccccc" />
  </g>
</g>
</svg>
