<?xml version="1.0" encoding="UTF-8" standalone="no"?>
<svg
   xmlns:dc="http://purl.org/dc/elements/1.1/"
   xmlns:cc="http://creativecommons.org/ns#"
   xmlns:rdf="http://www.w3.org/1999/02/22-rdf-syntax-ns#"
   xmlns:svg="http://www.w3.org/2000/svg"
   xmlns="http://www.w3.org/2000/svg"
   xmlns:xlink="http://www.w3.org/1999/xlink"
   xmlns:sodipodi="http://sodipodi.sourceforge.net/DTD/sodipodi-0.dtd"
   xmlns:inkscape="http://www.inkscape.org/namespaces/inkscape"
   viewBox="0 0 32 32"
   version="1.1"
   id="svg41"
   sodipodi:docname="setoutline.svg"
   inkscape:version="0.92.3 (2405546, 2018-03-11)"
   inkscape:export-filename="D:\Rizmut\libreoffice-style-sukapura-master\images_sukapura\cmd\32\setoutline.png"
   inkscape:export-xdpi="96"
   inkscape:export-ydpi="96">
  <metadata
     id="metadata47">
    <rdf:RDF>
      <cc:Work
         rdf:about="">
        <dc:format>image/svg+xml</dc:format>
        <dc:type
           rdf:resource="http://purl.org/dc/dcmitype/StillImage" />
        <dc:title></dc:title>
      </cc:Work>
    </rdf:RDF>
  </metadata>
  <defs
     id="defs45">
    <linearGradient
       id="a-3"
       gradientUnits="userSpaceOnUse"
       x1="6.7118649"
       x2="6.4237289"
       xlink:href="#c-0"
       y1="18.940678"
       y2="14.059322" />
    <linearGradient
       id="c-0"
       gradientTransform="translate(-25.830508,-3.59322)"
       gradientUnits="userSpaceOnUse"
       x1="14"
       x2="13.79661"
       y1="22"
       y2="2.1355929">
      <stop
         offset="0"
         stop-color="#0040dd"
         id="stop1095" />
      <stop
         offset="1"
         stop-color="#0a84ff"
         id="stop1097" />
    </linearGradient>
  </defs>
  <sodipodi:namedview
     pagecolor="#ffffff"
     bordercolor="#666666"
     borderopacity="1"
     objecttolerance="10"
     gridtolerance="10"
     guidetolerance="10"
     inkscape:pageopacity="0"
     inkscape:pageshadow="2"
     inkscape:window-width="1366"
     inkscape:window-height="716"
     id="namedview43"
     showgrid="false"
     inkscape:zoom="10.429825"
     inkscape:cx="-11.829728"
     inkscape:cy="19.214782"
     inkscape:window-x="-8"
     inkscape:window-y="-8"
     inkscape:window-maximized="1"
     inkscape:current-layer="svg41" />
  <linearGradient
     id="a"
     gradientTransform="translate(-25.830508 -3.59322)"
     gradientUnits="userSpaceOnUse"
     x1="14"
     x2="13.79661"
     y1="22"
     y2="2.135593">
    <stop
       offset="0"
       stop-color="#0040dd"
       id="stop2" />
    <stop
       offset="1"
       stop-color="#0a84ff"
       id="stop4" />
  </linearGradient>
  <linearGradient
     id="b"
     gradientUnits="userSpaceOnUse"
     x1="6.050848"
     x2="6.13363"
     xlink:href="#a"
     y1="20.86441"
     y2="13.000006" />
  <linearGradient
     id="c"
     gradientUnits="userSpaceOnUse"
     x1="5.762712"
     x2="5.762712"
     xlink:href="#a"
     y1="10.864407"
     y2="3.20339" />
  <path
     d="m6.90625 3-2.90625 2.341797.552734.703125c.02913.03609.0716.07329.125.109375.05825.03158.122493.05288.195313.06641s.151845.01353.234375 0c.08252-.01354.163574-.05208.246094-.115234l1.259765-1.007813c-.01455.225564-.02148.442872-.02148.650391l-.000004 5.251949h1.408203v-8z"
     fill="url(#c)"
     id="path11" />
  <g
     fill="#69696e"
     transform="scale(-1 1)"
     id="g25"
     style="fill:#4b4b4f;fill-opacity:1">
    <rect
       height="1"
       ry=".5"
       width="14.999998"
       x="-28"
       y="4"
       id="rect13"
       style="fill:#4b4b4f;fill-opacity:1" />
    <rect
       height="1"
       ry=".392136"
       width="15.000005"
       x="-28"
       y="14"
       id="rect15"
       style="fill:#4b4b4f;fill-opacity:1" />
    <rect
       height="1"
       ry=".436441"
       width="15.000001"
       x="-28"
       y="24"
       id="rect17"
       style="fill:#4b4b4f;fill-opacity:1" />
    <rect
       height="1"
       ry=".5"
       width="8.999999"
       x="-22"
       y="27"
       id="rect19"
       style="fill:#4b4b4f;fill-opacity:1" />
    <rect
       height="1"
       ry=".5"
       width="8.999999"
       x="-22"
       y="17"
       id="rect21"
       style="fill:#4b4b4f;fill-opacity:1" />
    <rect
       height="1"
       ry=".5"
       width="9.000002"
       x="-22"
       y="7"
       id="rect23"
       style="fill:#4b4b4f;fill-opacity:1" />
  </g>
  <g
     fill="#eaeaea"
     fill-opacity=".992157"
     transform="matrix(-1 0 0 1 0 1)"
     id="g39">
    <rect
       height="1"
       ry=".5"
       width="14.999998"
       x="-28"
       y="4"
       id="rect27" />
    <rect
       height="1"
       ry=".392136"
       width="15.000005"
       x="-28"
       y="14"
       id="rect29" />
    <rect
       height="1"
       ry=".436441"
       width="15.000001"
       x="-28"
       y="24"
       id="rect31" />
    <rect
       height="1"
       ry=".5"
       width="8.999999"
       x="-22"
       y="27"
       id="rect33" />
    <rect
       height="1"
       ry=".5"
       width="8.999999"
       x="-22"
       y="17"
       id="rect35" />
    <rect
       height="1"
       ry=".5"
       width="9.000002"
       x="-22"
       y="7"
       id="rect37" />
  </g>
  <path
     inkscape:connector-curvature="0"
     style="fill:url(#a-3)"
     d="M 9,16.5 A 2.5,2.5 0 0 1 6.5,19 2.5,2.5 0 0 1 4,16.5 2.5,2.5 0 0 1 6.5,14 2.5,2.5 0 0 1 9,16.5 Z"
     id="path1175" />
</svg>
