<?xml version="1.0" encoding="UTF-8" standalone="no"?>
<svg
   xmlns:dc="http://purl.org/dc/elements/1.1/"
   xmlns:cc="http://creativecommons.org/ns#"
   xmlns:rdf="http://www.w3.org/1999/02/22-rdf-syntax-ns#"
   xmlns:svg="http://www.w3.org/2000/svg"
   xmlns="http://www.w3.org/2000/svg"
   xmlns:sodipodi="http://sodipodi.sourceforge.net/DTD/sodipodi-0.dtd"
   xmlns:inkscape="http://www.inkscape.org/namespaces/inkscape"
   viewBox="0 0 32 32"
   version="1.1"
   id="svg6"
   sodipodi:docname="shadowed.svg"
   inkscape:version="0.92.3 (2405546, 2018-03-11)">
  <metadata
     id="metadata12">
    <rdf:RDF>
      <cc:Work
         rdf:about="">
        <dc:format>image/svg+xml</dc:format>
        <dc:type
           rdf:resource="http://purl.org/dc/dcmitype/StillImage" />
        <dc:title></dc:title>
      </cc:Work>
    </rdf:RDF>
  </metadata>
  <defs
     id="defs10" />
  <sodipodi:namedview
     pagecolor="#ffffff"
     bordercolor="#666666"
     borderopacity="1"
     objecttolerance="10"
     gridtolerance="10"
     guidetolerance="10"
     inkscape:pageopacity="0"
     inkscape:pageshadow="2"
     inkscape:window-width="1366"
     inkscape:window-height="692"
     id="namedview8"
     showgrid="false"
     inkscape:zoom="14.75"
     inkscape:cx="13.048451"
     inkscape:cy="13.102164"
     inkscape:window-x="0"
     inkscape:window-y="0"
     inkscape:window-maximized="1"
     inkscape:current-layer="svg6" />
  <path
     style="fill:#98989d;fill-opacity:1"
     id="path822"
     d="m 15.837272,5.9867038 -7.8372716,21.9989182 2.5006056,0.01434 c 0.356219,0.002 0.652868,-0.09983 0.890352,-0.298617 0.248278,-0.20983 0.41528,-0.435913 0.501637,-0.678874 l 1.944641,-4.959636 h 8.338909 l 1.934815,4.976822 c 0.10795,0.276091 0.27495,0.508317 0.501637,0.69606 0.226688,0.176697 0.529916,0.266418 0.907724,0.264244 l 2.49306,-0.01434 -7.83727,-21.9989182 z m 2.154217,4.0087868 c 0.140332,0.5411384 0.278786,1.0442954 0.419117,1.5081284 0.140333,0.45279 0.276552,0.849972 0.406089,1.192325 l 2.525559,6.828556 h -6.671127 l 2.52556,-6.81137 c 0.118743,-0.342353 0.248384,-0.745677 0.388716,-1.209511 0.14033,-0.463833 0.27655,-0.96699 0.406086,-1.5081284 z"
     inkscape:connector-curvature="0" />
  <path
     d="m12.830582 3.9933554-7.8372716 21.9989186 2.5006051.01434c.3562195.002.6528688-.09983.8903522-.298617.2482782-.20983.4152798-.435913.5016375-.678874l1.9446408-4.959636h8.338909l1.934815 4.976822c.10795.276091.27495.508317.501637.69606.226688.176697.529916.266418.907724.264244l2.49306-.01434-7.83727-21.9989186zm2.154217 4.0087868c.140332.5411379.278786 1.0442954.419117 1.5081284.140333.45279.276552.8499724.406089 1.1923254l2.525559 6.828556h-6.671127l2.52556-6.81137c.118743-.342353.248384-.7456774.388716-1.2095114.14033-.463833.27655-.9669905.406086-1.5081284z"
     fill="#696969"
     id="path4"
     style="fill:#69696e;fill-opacity:1" />
</svg>
