<svg viewBox="0 0 32 32" xmlns="http://www.w3.org/2000/svg"><path d="m15.837272 5.9867038-7.8372716 21.9989182 2.5006056.01434c.356219.002.652868-.09983.890352-.298617.248278-.20983.41528-.435913.501637-.678874l1.944641-4.959636h8.338909l1.934815 4.976822c.10795.276091.27495.508317.501637.69606.226688.176697.529916.266418.907724.264244l2.49306-.01434-7.83727-21.9989182zm2.154217 4.0087868c.140332.5411384.278786 1.0442954.419117 1.5081284.140333.45279.276552.849972.406089 1.192325l2.525559 6.828556h-6.671127l2.52556-6.81137c.118743-.342353.248384-.745677.388716-1.209511.14033-.463833.27655-.96699.406086-1.5081284z" fill="#98989d"/><path d="m12.830582 3.9933554-7.8372716 21.9989186 2.5006051.01434c.3562195.002.6528688-.09983.8903522-.298617.2482782-.20983.4152798-.435913.5016375-.678874l1.9446408-4.959636h8.338909l1.934815 4.976822c.10795.276091.27495.508317.501637.69606.226688.176697.529916.266418.907724.264244l2.49306-.01434-7.83727-21.9989186zm2.154217 4.0087868c.140332.5411379.278786 1.0442954.419117 1.5081284.140333.45279.276552.8499724.406089 1.1923254l2.525559 6.828556h-6.671127l2.52556-6.81137c.118743-.342353.248384-.7456774.388716-1.2095114.14033-.463833.27655-.9669905.406086-1.5081284z" fill="#69696e"/></svg>