<svg viewBox="0 0 32 32" xmlns="http://www.w3.org/2000/svg" xmlns:xlink="http://www.w3.org/1999/xlink"><linearGradient id="a" gradientTransform="matrix(1 0 0 -1 0 12.999883)" gradientUnits="userSpaceOnUse" x1="24" x2="24" y1="2.999883" y2="9.999883"><stop offset="0" stop-color="#0040dd"/><stop offset="1" stop-color="#0a84ff"/></linearGradient><path d="m14.925764 18.94188h-6.8760703l-1.4386104 4.132957h-3.2063942l6.7053869-17.7509891h2.767497l6.717578 17.7509891h-3.218585zm-6.0104658-2.487089h5.1448608l-2.57243-7.3637346z" fill="#4b4b4f" stroke-width=".624211" transform="scale(.88749372 1.1267685)"/><path d="m23.984375 9.9998827a1.0001 1.0001 0 0 1 -.691406-.2929688l-5-5a1.0001 1.0001 0 0 1 .707031-1.7070312h10a1.0001 1.0001 0 0 1 .707031 1.7070312l-5 5a1.0001 1.0001 0 0 1 -.722656.2929688z" fill="url(#a)"/><path d="m17.280097 27.084489v-14.58456l4.893856.0028c1.649444.00093 2.904892.330557 3.766343.99167s1.292176 1.646105 1.292176 2.954976c0 .667791-.180304 1.268803-.540911 1.803036s-.888162.948264-1.582665 1.242092c.787993.213693 1.395683.617707 1.82307 1.212041.434064.587656.651096 1.295515.651096 2.123576 0 1.368972-.440742 2.420743-1.322226 3.155313-.874807.734571-2.130254 1.101856-3.766343 1.101856zm1.920011-6.541201v4.557675l3.324436-.03712c.794629-.0089 1.415717-.196999 1.863137-.590996s.67113-.941585.67113-1.642766c0-1.515886-.774638-2.290524-2.323913-2.323913zm0-1.863138 2.993879-.03712c.787943-.0098 1.402362-.176965 1.843104-.530894.44742-.360607.67113-.868129.67113-1.522564 0-.721214-.207015-1.242091-.621046-1.562631-.407353-.32054-1.045093-.48081-1.913222-.48081l-2.973845.03712z" fill="#4b4b4f" stroke-width=".512864" transform="scale(1.0416608 .96000544)"/></svg>