<?xml version="1.0" encoding="UTF-8" standalone="no"?>
<svg
   xmlns:dc="http://purl.org/dc/elements/1.1/"
   xmlns:cc="http://creativecommons.org/ns#"
   xmlns:rdf="http://www.w3.org/1999/02/22-rdf-syntax-ns#"
   xmlns:svg="http://www.w3.org/2000/svg"
   xmlns="http://www.w3.org/2000/svg"
   xmlns:xlink="http://www.w3.org/1999/xlink"
   xmlns:sodipodi="http://sodipodi.sourceforge.net/DTD/sodipodi-0.dtd"
   xmlns:inkscape="http://www.inkscape.org/namespaces/inkscape"
   viewBox="0 0 32 32"
   version="1.1"
   id="svg12"
   sodipodi:docname="sortdescending.svg"
   inkscape:export-filename="/home/rizmut/Dokumen/Rizmut/Github/libreoffice-style-sukapura/images_sukapura/cmd/32/sortdescending.png"
   inkscape:export-xdpi="96"
   inkscape:export-ydpi="96"
   inkscape:version="0.92.3 (unknown)">
  <metadata
     id="metadata18">
    <rdf:RDF>
      <cc:Work
         rdf:about="">
        <dc:format>image/svg+xml</dc:format>
        <dc:type
           rdf:resource="http://purl.org/dc/dcmitype/StillImage" />
        <dc:title></dc:title>
      </cc:Work>
    </rdf:RDF>
  </metadata>
  <defs
     id="defs16">
    <linearGradient
       gradientTransform="translate(-25,9)"
       id="a"
       gradientUnits="userSpaceOnUse"
       x1="14"
       x2="13.79661"
       y1="22"
       y2="2.1355929">
      <stop
         offset="0"
         stop-color="#0040dd"
         id="stop2799" />
      <stop
         offset="1"
         stop-color="#0a84ff"
         id="stop2801" />
    </linearGradient>
    <linearGradient
       inkscape:collect="always"
       xlink:href="#a"
       id="linearGradient1527"
       x1="6"
       y1="12"
       x2="6"
       y2="3"
       gradientUnits="userSpaceOnUse"
       gradientTransform="matrix(1.0116585,0,0,1.0116585,1.3778072,0.04673107)" />
    <linearGradient
       inkscape:collect="always"
       xlink:href="#a"
       id="linearGradient1579"
       x1="9"
       y1="15"
       x2="9"
       y2="3"
       gradientUnits="userSpaceOnUse"
       gradientTransform="matrix(1.0383704,0,0,1.0383704,-0.21488706,-0.35190741)" />
  </defs>
  <sodipodi:namedview
     pagecolor="#ffffff"
     bordercolor="#666666"
     borderopacity="1"
     objecttolerance="10"
     gridtolerance="10"
     guidetolerance="10"
     inkscape:pageopacity="0"
     inkscape:pageshadow="2"
     inkscape:window-width="1366"
     inkscape:window-height="699"
     id="namedview14"
     showgrid="true"
     inkscape:zoom="11.313709"
     inkscape:cx="20.71815"
     inkscape:cy="18.251369"
     inkscape:window-x="0"
     inkscape:window-y="0"
     inkscape:window-maximized="1"
     inkscape:current-layer="svg12">
    <inkscape:grid
       type="xygrid"
       id="grid828"
       spacingx="0.5"
       spacingy="0.5"
       empspacing="2" />
  </sodipodi:namedview>
  <g
     aria-label="a"
     style="font-style:normal;font-weight:normal;font-size:18.2510376px;line-height:1.25;font-family:sans-serif;letter-spacing:0px;word-spacing:0px;fill:#69696e;fill-opacity:1;stroke:none;stroke-width:0.45627588"
     id="text842">
    <path
       d="m 10.72186,28.820011 q -0.142586,-0.285172 -0.231703,-1.015927 -1.1496012,1.19416 -2.7447846,1.19416 -1.4258624,0 -2.3437612,-0.802048 -0.9089872,-0.810959 -0.9089872,-2.049677 0,-1.506067 1.1406898,-2.334849 1.1496015,-0.837694 3.2260135,-0.837694 h 1.6040947 v -0.75749 q 0,-0.864429 -0.5168747,-1.372392 -0.5168751,-0.516875 -1.5238903,-0.516875 -0.8822524,0 -1.4793322,0.445582 Q 6.346245,21.218383 6.346245,21.851109 H 4.68868 q 0,-0.721843 0.5079635,-1.390216 0.5168751,-0.677284 1.3902157,-1.069396 0.8822523,-0.392113 1.9338258,-0.392113 1.666477,0 2.61111,0.837695 0.944634,0.828782 0.980281,2.290291 v 4.437996 q 0,1.327835 0.338642,2.112059 v 0.142586 z M 7.9859866,27.56347 q 0.7753127,0 1.4704205,-0.401024 0.6951079,-0.401024 1.0070149,-1.042662 V 24.1414 H 9.1712347 q -3.0299574,0 -3.0299574,1.773417 0,0.775312 0.516875,1.211983 0.5168751,0.43667 1.3278343,0.43667 z"
       style="font-style:normal;font-variant:normal;font-weight:normal;font-stretch:normal;font-family:Roboto;-inkscape-font-specification:Roboto;fill:#69696e;fill-opacity:1;stroke-width:0.45627588"
       id="path1619" />
  </g>
  <path
     style="opacity:1;fill:#69696e;fill-opacity:1;stroke:none;stroke-width:1;stroke-linecap:round;stroke-linejoin:round;stroke-miterlimit:4;stroke-dasharray:none;stroke-opacity:0"
     d="M 21 5 C 20.446 5 20 5.446 20 6 L 20 20 L 17 20 A 1.0001 1.0001 0 0 0 16.292969 21.707031 L 21.292969 26.707031 A 1.0001 1.0001 0 0 0 22.707031 26.707031 L 27.707031 21.707031 A 1.0001 1.0001 0 0 0 27 20 L 24 20 L 24 6 C 24 5.446 23.554 5 23 5 L 21 5 z "
     id="rect834" />
  <g
     aria-label="z"
     style="font-style:normal;font-weight:normal;font-size:22.72365189px;line-height:1.25;font-family:sans-serif;letter-spacing:0px;word-spacing:0px;fill:url(#linearGradient1579);fill-opacity:1;stroke:none;stroke-width:0.56809127"
     id="text838">
    <path
       d="m 6.0152522,13.326311 h 7.0234728 v 1.675426 H 3.5076617 V 13.492744 L 10.131695,4.6939863 H 3.6075215 V 2.9963698 h 9.0983375 v 1.4535148 z"
       style="font-style:normal;font-variant:normal;font-weight:normal;font-stretch:normal;font-family:Roboto;-inkscape-font-specification:Roboto;fill:url(#linearGradient1579);fill-opacity:1;stroke-width:0.56809127"
       id="path1622" />
  </g>
</svg>
