<?xml version="1.0" encoding="UTF-8" standalone="no"?>
<svg
   xmlns:dc="http://purl.org/dc/elements/1.1/"
   xmlns:cc="http://creativecommons.org/ns#"
   xmlns:rdf="http://www.w3.org/1999/02/22-rdf-syntax-ns#"
   xmlns:svg="http://www.w3.org/2000/svg"
   xmlns="http://www.w3.org/2000/svg"
   xmlns:sodipodi="http://sodipodi.sourceforge.net/DTD/sodipodi-0.dtd"
   xmlns:inkscape="http://www.inkscape.org/namespaces/inkscape"
   viewBox="0 0 32 32"
   version="1.1"
   id="svg18"
   sodipodi:docname="spacepara15.svg"
   inkscape:version="0.92.3 (2405546, 2018-03-11)">
  <metadata
     id="metadata24">
    <rdf:RDF>
      <cc:Work
         rdf:about="">
        <dc:format>image/svg+xml</dc:format>
        <dc:type
           rdf:resource="http://purl.org/dc/dcmitype/StillImage" />
        <dc:title></dc:title>
      </cc:Work>
    </rdf:RDF>
  </metadata>
  <defs
     id="defs22" />
  <sodipodi:namedview
     pagecolor="#ffffff"
     bordercolor="#666666"
     borderopacity="1"
     objecttolerance="10"
     gridtolerance="10"
     guidetolerance="10"
     inkscape:pageopacity="0"
     inkscape:pageshadow="2"
     inkscape:window-width="1366"
     inkscape:window-height="692"
     id="namedview20"
     showgrid="true"
     inkscape:zoom="10.429825"
     inkscape:cx="-0.97883654"
     inkscape:cy="20.235283"
     inkscape:window-x="0"
     inkscape:window-y="0"
     inkscape:window-maximized="1"
     inkscape:current-layer="svg18">
    <inkscape:grid
       type="xygrid"
       id="grid834"
       spacingx="0.5"
       spacingy="0.5"
       empspacing="2" />
  </sodipodi:namedview>
  <g
     id="g845"
     transform="matrix(0,1,1,0,-7.9899,15.000042)">
    <rect
       ry="0"
       rx="0.5000006"
       transform="rotate(90)"
       y="-14"
       x="15.9899"
       height="9"
       width="2.0000005"
       id="rect841"
       style="opacity:1;fill:#0a84ff;fill-opacity:1;stroke:#0070f5;stroke-width:2;stroke-linecap:round;stroke-linejoin:round;stroke-miterlimit:4;stroke-dasharray:none;stroke-opacity:1" />
    <path
       style="fill:#0a84ff;fill-opacity:1;stroke:#0070f5;stroke-width:2;stroke-linecap:round;stroke-linejoin:round;stroke-miterlimit:4;stroke-dasharray:none;stroke-opacity:1"
       id="path843"
       transform="rotate(90,5.50505,13.49495)"
       d="m 9.0097656,4 -5,5 H 14 14.0098 Z"
       inkscape:connector-curvature="0" />
  </g>
  <g
     transform="matrix(0 -1 1 0 -7.9899 19)"
     id="g6">
    <rect
       style="opacity:1;fill:#0a84ff;fill-opacity:1;stroke:#0070f5;stroke-width:2;stroke-linecap:round;stroke-linejoin:round;stroke-miterlimit:4;stroke-dasharray:none;stroke-opacity:1"
       id="rect839"
       width="2.0000005"
       height="9"
       x="15.9899"
       y="-14"
       transform="rotate(90)"
       rx="0.5000006"
       ry="0" />
    <path
       d="M 9.0097656 4 L 4.0097656 9 L 14 9 L 14.009766 9 L 9.0097656 4 z "
       transform="rotate(90,5.50505,13.49495)"
       id="path4"
       style="stroke:#0070f5;stroke-opacity:1;stroke-width:2;stroke-miterlimit:4;stroke-dasharray:none;stroke-linecap:round;stroke-linejoin:round;fill:#0a84ff;fill-opacity:1" />
  </g>
  <path
     d="m28.5202 7.0000012c.277 0 .5.223.5.5 0 .2770001-.223.5-.5.5h-11c-.277 0-.5-.2229999-.5-.5 0-.277.223-.5.5-.5zm0 3.9999998c.277 0 .5.223.5.5s-.223.5-.5.5h-11c-.277 0-.5-.223-.5-.5s.223-.5.5-.5zm0 8.999999c.277 0 .5.223.5.5s-.223.5-.5.5h-11c-.277 0-.5-.223-.5-.5s.223-.5.5-.5zm0 4c .277 0 .5.223.5.5s-.223.5-.5.5h-11c-.277 0-.5-.223-.5-.5s.223-.5.5-.5z"
     fill="#808080"
     id="path14"
     style="fill:#69696e;fill-opacity:1" />
  <path
     d="m28.5202 8.0000012c.277 0 .5.223.5.5 0 .2770001-.223.4999996-.5.4999996h-11c-.277 0-.5-.2229995-.5-.4999996 0-.277.223-.5.5-.5zm0 3.9999998c.277 0 .5.223.5.5s-.223.499999-.5.499999h-11c-.277 0-.5-.222999-.5-.499999s.223-.5.5-.5zm0 8.999999c.277 0 .5.223.5.5s-.223.5-.5.5h-11c-.277 0-.5-.223-.5-.5s.223-.5.5-.5zm0 4c .277 0 .5.223.5.5s-.223.5-.5.5h-11c-.277 0-.5-.223-.5-.5s.223-.5.5-.5z"
     fill="#eaeaea"
     fill-opacity=".992157"
     id="path16" />
</svg>
