<?xml version="1.0" encoding="UTF-8" standalone="no"?>
<svg
   xmlns:dc="http://purl.org/dc/elements/1.1/"
   xmlns:cc="http://creativecommons.org/ns#"
   xmlns:rdf="http://www.w3.org/1999/02/22-rdf-syntax-ns#"
   xmlns:svg="http://www.w3.org/2000/svg"
   xmlns="http://www.w3.org/2000/svg"
   xmlns:xlink="http://www.w3.org/1999/xlink"
   xmlns:sodipodi="http://sodipodi.sourceforge.net/DTD/sodipodi-0.dtd"
   xmlns:inkscape="http://www.inkscape.org/namespaces/inkscape"
   viewBox="0 0 32 32"
   version="1.1"
   id="svg24697"
   sodipodi:docname="spacing.svg"
   inkscape:version="0.92.3 (2405546, 2018-03-11)">
  <metadata
     id="metadata24703">
    <rdf:RDF>
      <cc:Work
         rdf:about="">
        <dc:format>image/svg+xml</dc:format>
        <dc:type
           rdf:resource="http://purl.org/dc/dcmitype/StillImage" />
      </cc:Work>
    </rdf:RDF>
  </metadata>
  <defs
     id="defs24701">
    <linearGradient
       inkscape:collect="always"
       xlink:href="#a"
       id="linearGradient25255"
       gradientUnits="userSpaceOnUse"
       gradientTransform="translate(-0.02803444,-0.0101)"
       x1="25.028484"
       y1="29.010099"
       x2="25.028484"
       y2="17.010099" />
    <linearGradient
       inkscape:collect="always"
       xlink:href="#a"
       id="linearGradient25268"
       x1="15"
       y1="29"
       x2="15"
       y2="17"
       gradientUnits="userSpaceOnUse" />
  </defs>
  <sodipodi:namedview
     pagecolor="#ffffff"
     bordercolor="#666666"
     borderopacity="1"
     objecttolerance="10"
     gridtolerance="10"
     guidetolerance="10"
     inkscape:pageopacity="0"
     inkscape:pageshadow="2"
     inkscape:window-width="1366"
     inkscape:window-height="716"
     id="namedview24699"
     showgrid="true"
     inkscape:zoom="16"
     inkscape:cx="17.745507"
     inkscape:cy="5.7821773"
     inkscape:window-x="-8"
     inkscape:window-y="-8"
     inkscape:window-maximized="1"
     inkscape:current-layer="svg24697">
    <inkscape:grid
       type="xygrid"
       id="grid25248" />
  </sodipodi:namedview>
  <linearGradient
     id="a"
     gradientTransform="translate(-26.983051 -6.983051)"
     gradientUnits="userSpaceOnUse"
     x1="14"
     x2="13.79661"
     y1="22"
     y2="2.135593">
    <stop
       offset="0"
       stop-color="#0040dd"
       id="stop24675" />
    <stop
       offset="1"
       stop-color="#0a84ff"
       id="stop24677" />
  </linearGradient>
  <linearGradient
     id="b"
     gradientTransform="matrix(-1,0,0,1,32.028484,-0.0101)"
     gradientUnits="userSpaceOnUse"
     x1="25.028484"
     x2="25.028484"
     xlink:href="#a"
     y1="29.010099"
     y2="17.010099" />
  <linearGradient
     id="c"
     gradientTransform="translate(1e-6,-0.0101)"
     gradientUnits="userSpaceOnUse"
     x1="24.999998"
     x2="24.999998"
     xlink:href="#a"
     y1="29.010099"
     y2="17.010099" />
  <linearGradient
     id="d"
     gradientUnits="userSpaceOnUse"
     x1="15"
     x2="15"
     xlink:href="#a"
     y1="29"
     y2="17" />
  <path
     d="m14.384208 14.27424h-6.1975588l-1.2966524 3.725129h-2.8899966l6.0437188-15.9993729h2.494408l6.054708 15.9993729h-2.900986zm-5.4173696-2.24167h4.6371806l-2.31859-6.6371027z"
     fill="#69696e"
     id="path24683"
     style="fill:#4b4b4f;fill-opacity:1" />
  <path
     d="m22.879399 14.515989 4.065775-12.5159929h3.054825l-5.758016 15.9993729h-2.692202l-5.736039-15.9993729h3.043837z"
     fill="#69696e"
     id="path24685"
     style="fill:#4b4b4f;fill-opacity:1" />
  <g
     stroke-linecap="round"
     stroke-width="2"
     id="g24695">
    <path
       inkscape:connector-curvature="0"
       style="fill:url(#linearGradient25255);stroke:none;stroke-linejoin:round"
       d="m 24.029746,17 a 1.0008187,1.0008187 0 0 1 0.677735,0.292969 l 5,5 a 1.0008187,1.0008187 0 0 1 0,1.414062 l -5,5 A 1.0008187,1.0008187 0 0 1 23.000449,28 V 18 a 1.0008187,1.0008187 0 0 1 1.029297,-1 z"
       id="path25253" />
    <path
       d="m29 23-25.985758-.0101"
       fill="none"
       stroke="url(#d)"
       id="path24687" />
    <path
       inkscape:connector-curvature="0"
       id="path24689"
       d="m 7.9707031,17 a 1.0008187,1.0008187 0 0 0 -0.6777343,0.292969 l -5,5 a 1.0008187,1.0008187 0 0 0 0,1.414062 l 5,5 A 1.0008187,1.0008187 0 0 0 9,28 V 18 A 1.0008187,1.0008187 0 0 0 7.9707031,17 Z"
       style="fill:url(#b);stroke:none;stroke-linejoin:round" />
    <rect
       style="fill:url(#linearGradient25268);fill-opacity:1;stroke:none"
       id="rect25260"
       width="18"
       height="2"
       x="7"
       y="22" />
  </g>
</svg>
