<svg viewBox="0 0 32 32" xmlns="http://www.w3.org/2000/svg" xmlns:xlink="http://www.w3.org/1999/xlink"><linearGradient id="a" gradientUnits="userSpaceOnUse" x1="3.009907" x2="15.009659" xlink:href="#b" y1="17.000021" y2="17.000021"/><linearGradient id="b" gradientTransform="translate(-25.830508 -3.59322)" gradientUnits="userSpaceOnUse" x1="14" x2="13.79661" y1="22" y2="2.135593"><stop offset="0" stop-color="#0040dd"/><stop offset="1" stop-color="#0a84ff"/></linearGradient><linearGradient id="c" gradientUnits="userSpaceOnUse" x1="3.009907" x2="15.009659" y1="17.000021" y2="17.000021"><stop offset="0" stop-color="#0070f5"/><stop offset="1" stop-color="#0070f5" stop-opacity="0"/></linearGradient><linearGradient id="d" gradientTransform="matrix(1 0 0 -1 -7.9899 15.000042)" gradientUnits="userSpaceOnUse" x1="17.008224" x2="16.831358" xlink:href="#b" y1="-16.365831" y2="14.603049"/><linearGradient id="e" gradientUnits="userSpaceOnUse" x1="3.687873" x2="3.145252" xlink:href="#b" y1="31.847479" y2=".254258"/><g fill="url(#a)" stroke="url(#c)" stroke-linecap="round" stroke-linejoin="round" stroke-width="2"><path d="m8.5 20c-.2770006 0-.5.222999-.5.5v4.5h-3.9902344l5 5 5.0000004-5h-.009766-4v-4.5c0-.277001-.2229994-.5-.5-.5z" fill="url(#d)" stroke="url(#d)"/><path d="m9.0097656 4-5 5h3.9902344v4.5c0 .277001.2229994.5.5.5h1c.2770006 0 .5-.222999.5-.5v-4.5h4 .0098z" fill="url(#e)" stroke="url(#e)"/></g><path d="m28.5202 9.0000012c.277 0 .5.223.5.5 0 .2770001-.223.4999998-.5.4999998h-11c-.277 0-.5-.2229997-.5-.4999998 0-.277.223-.5.5-.5zm0 3.9999998c.277 0 .5.223.5.5s-.223.5-.5.5h-11c-.277 0-.5-.223-.5-.5s.223-.5.5-.5zm0 4.999999c.277 0 .5.223.5.5s-.223.5-.5.5h-11c-.277 0-.5-.223-.5-.5s.223-.5.5-.5zm0 4c.277 0 .5.223.5.5s-.223.5-.5.5h-11c-.277 0-.5-.223-.5-.5s.223-.5.5-.5z" fill="#69696e"/><path d="m28.5202 10.000001c.277 0 .5.223.5.5s-.223.5-.5.5h-11c-.277 0-.5-.223-.5-.5s.223-.5.5-.5zm0 4c.277 0 .5.223.5.5s-.223.499999-.5.499999h-11c-.277 0-.5-.222999-.5-.499999s.223-.5.5-.5zm0 4.999999c.277 0 .5.223.5.5s-.223.5-.5.5h-11c-.277 0-.5-.223-.5-.5s.223-.5.5-.5zm0 4c.277 0 .5.223.5.5s-.223.5-.5.5h-11c-.277 0-.5-.223-.5-.5s.223-.5.5-.5z" fill="#eaeaea" fill-opacity=".992157"/></svg>