<svg viewBox="0 0 32 32" xmlns="http://www.w3.org/2000/svg" xmlns:xlink="http://www.w3.org/1999/xlink"><linearGradient id="a" gradientTransform="translate(-26.983051 -6.983051)" gradientUnits="userSpaceOnUse" x1="14" x2="13.79661" y1="22" y2="2.135593"><stop offset="0" stop-color="#0040dd"/><stop offset="1" stop-color="#0a84ff"/></linearGradient><linearGradient id="b" gradientTransform="matrix(-1 0 0 1 32.028484 -.0101)" gradientUnits="userSpaceOnUse" x1="25.028484" x2="25.028484" xlink:href="#a" y1="29.010099" y2="17.010099"/><linearGradient id="c" gradientTransform="translate(.000001 -.0101)" gradientUnits="userSpaceOnUse" x1="24.999998" x2="24.999998" xlink:href="#a" y1="29.010099" y2="17.010099"/><linearGradient id="d" gradientUnits="userSpaceOnUse" x1="15" x2="15" xlink:href="#a" y1="29" y2="17"/><path d="m14.384208 14.27424h-6.1975588l-1.2966524 3.725129h-2.8899966l6.0437188-15.9993729h2.494408l6.054708 15.9993729h-2.900986zm-5.4173696-2.24167h4.6371806l-2.31859-6.6371027z" fill="#69696e"/><path d="m22.879399 14.515989 4.065775-12.5159929h3.054825l-5.758016 15.9993729h-2.692202l-5.736039-15.9993729h3.043837z" fill="#69696e"/><g stroke-linecap="round" stroke-width="2"><path d="m29 23-25.985758-.0101" fill="none" stroke="url(#d)"/><g stroke-linejoin="round"><path d="m8.028484 17.9899-5 5 5 5z" fill="url(#b)" stroke="url(#b)"/><path d="m24.000001 17.9899 5 5-5 5z" fill="url(#c)" stroke="url(#c)"/></g></g></svg>