<svg viewBox="0 0 32 32" xmlns="http://www.w3.org/2000/svg"><g fill="#0a84ff" stroke="#0070f5" stroke-linecap="round" stroke-linejoin="round" stroke-width="2"><rect height="9" rx=".500001" ry="0" transform="matrix(1 0 0 -1 -7.9899 15.000042)" width="2.000001" x="15.9899" y="-14"/><path d="m9.0097656 4-5 5h9.9902344.0098z" transform="matrix(1 0 0 -1 0 34.000042)"/><rect height="9" rx=".500001" ry="0" width="2.000001" x="8" y="5"/><path d="m9.0097656 4-5 5h9.9902344.009766z"/></g><path d="m28.5202 7.0000012c.277 0 .5.223.5.5 0 .2770001-.223.5-.5.5h-11c-.277 0-.5-.2229999-.5-.5 0-.277.223-.5.5-.5zm0 3.9999998c.277 0 .5.223.5.5s-.223.5-.5.5h-11c-.277 0-.5-.223-.5-.5s.223-.5.5-.5zm0 8.999999c.277 0 .5.223.5.5s-.223.5-.5.5h-11c-.277 0-.5-.223-.5-.5s.223-.5.5-.5zm0 4c.277 0 .5.223.5.5s-.223.5-.5.5h-11c-.277 0-.5-.223-.5-.5s.223-.5.5-.5z" fill="#69696e"/><path d="m28.5202 8.0000012c.277 0 .5.223.5.5 0 .2770001-.223.4999996-.5.4999996h-11c-.277 0-.5-.2229995-.5-.4999996 0-.277.223-.5.5-.5zm0 3.9999998c.277 0 .5.223.5.5s-.223.499999-.5.499999h-11c-.277 0-.5-.222999-.5-.499999s.223-.5.5-.5zm0 8.999999c.277 0 .5.223.5.5s-.223.5-.5.5h-11c-.277 0-.5-.223-.5-.5s.223-.5.5-.5zm0 4c.277 0 .5.223.5.5s-.223.5-.5.5h-11c-.277 0-.5-.223-.5-.5s.223-.5.5-.5z" fill="#eaeaea" fill-opacity=".992157"/></svg>