<svg viewBox="0 0 32 32" xmlns="http://www.w3.org/2000/svg"><g fill="#69696e" stroke-width=".413587"><path d="m9.6888522 14.000335h-4.5559188l-.9531887 2.738398h-2.1244798l4.4428286-11.7613786h1.8336765l4.450906 11.7613786h-2.132557zm-3.98239-1.647885h3.4088612l-1.7044306-4.8790337z"/><path d="m21.603711 12.457462q0 2.035623-.912799 3.239226-.904722 1.203603-2.496062 1.203603-1.534796 0-2.39105-1.106669l-.09693.945111h-1.777136v-12.4076082h1.962923v4.5074515q.848176-1.0016559 2.286037-1.0016559 1.599418 0 2.512218 1.1874469.912799 1.1874467.912799 3.3200047zm-1.962923-.169635q0-1.421705-.500827-2.132558-.500828-.7108524-1.454017-.7108524-1.276304 0-1.793287 1.1147464v3.60273q.525061 1.138979 1.809443 1.138979.920877 0 1.421705-.686619.500828-.686619.516983-2.076012z"/><path d="m26.830093 15.333184q.735086 0 1.219758-.428127.484672-.428127.516984-1.058201h1.849832q-.03231.815865-.508906 1.526717-.476594.702775-1.292459 1.114746-.815865.411972-1.760976.411972-1.833676 0-2.908033-1.187447-1.074357-1.187447-1.074357-3.279615v-.201947q0-1.995234 1.066279-3.1907589 1.066279-1.2036027 2.908033-1.2036027 1.559029 0 2.536451.9127993.985501.9047215 1.033968 2.3829713h-1.849832q-.032312-.751241-.516984-1.2359137-.476594-.4846722-1.219758-.4846722-.953189 0-1.470173.6946969-.516984.686619-.525061 2.092168v.315037q0 1.421705.508905 2.12448.516984.694697 1.486329.694697z"/></g><path d="m30.091797 18.558594c-.164931-.0303-.34487-.03226-.525391.0039a.46440423.46440423 0 0 0 -.0039 0c-.359762.07602-.681249.269599-.916016.548828-.000589.000701-.0014.0013-.002.002l-7.01949 7.855428-2.287109-2.238281c-.642077-.627867-1.689903-.627751-2.332032 0-.641661.627393-.641689 1.681155 0 2.308593l3.511719 3.433594a.46440423.46440423 0 0 0 .0059.0059l.916015.859375a.46440423.46440423 0 0 0 .669922-.0332l.800781-.927735 8.183594-9.144531c.436846-.464993.442737-1.122793.228516-1.626953-.214222-.504161-.642829-.938924-1.230469-1.046875z" fill="#32d74b"/></svg>