<svg viewBox="0 0 32 32" xmlns="http://www.w3.org/2000/svg"><g fill="#69696e" stroke-width=".424351"><path d="m9.8660783 13.585046h-5.0557469l-1.1354711 3.149482h-1.6410457l4.608189-12.0674881h1.3924024l4.616477 12.0674881h-1.632757zm-4.5750366-1.309521h4.1026143l-2.0554512-5.6442031z"/><path d="m21.626906 12.350118q0 2.055451-.944845 3.306955-.944845 1.243217-2.536162 1.243217-1.699062 0-2.62733-1.201776l-.07459 1.036014h-1.408982v-12.7305369h1.5333v4.7490869q.928269-1.1520473 2.561026-1.1520473 1.632758 0 2.561026 1.2349284.936557 1.2349279.936557 3.3815489zm-1.533301-.174051q0-1.566452-.605032-2.4201278-.605032-.8536753-1.740503-.8536753-1.516724 0-2.179773 1.4089791v3.878835q.70449 1.408979 2.196349 1.408979 1.102319 0 1.715639-.853676.61332-.853675.61332-2.569314z"/><path d="m27.146786 15.648785q.820523 0 1.433843-.497286.61332-.497287.679625-1.243217h1.450419q-.04144.770794-.530439 1.466996-.488998.696201-1.309521 1.110606-.812235.414406-1.723927.414406-1.831672 0-2.917414-1.218352-1.077455-1.226641-1.077455-3.348397v-.256931q0-1.309521.480711-2.3289589.48071-1.0194375 1.375826-1.5830289.903404-.5635915 2.130044-.5635915 1.508436 0 2.503009.903404 1.002861.9034039 1.069166 2.3455353h-1.450419q-.066305-.8702518-.663049-1.4255551-.588455-.5635915-1.458707-.5635915-1.168623 0-1.815096.8453872-.638184.8370994-.638184 2.4284164v.290084q0 1.549876.638184 2.386975.638184.837099 1.823384.837099z"/></g><path d="m30.091797 18.558594c-.164931-.0303-.34487-.03226-.525391.0039a.46440423.46440423 0 0 0 -.0039 0c-.359762.07602-.681249.269599-.916016.548828-.000589.000701-.0014.0013-.002.002l-7.01949 7.855428-2.287109-2.238281c-.642077-.627867-1.689903-.627751-2.332032 0-.641661.627393-.641689 1.681155 0 2.308593l3.511719 3.433594a.46440423.46440423 0 0 0 .0059.0059l.916015.859375a.46440423.46440423 0 0 0 .669922-.0332l.800781-.927735 8.183594-9.144531c.436846-.464993.442737-1.122793.228516-1.626953-.214222-.504161-.642829-.938924-1.230469-1.046875z" fill="#32d74b"/></svg>