<svg viewBox="0 0 32 32" xmlns="http://www.w3.org/2000/svg" xmlns:xlink="http://www.w3.org/1999/xlink"><filter id="a" color-interpolation-filters="sRGB" height="1.048" width="1.048" x="-.024" y="-.024"><feGaussianBlur stdDeviation=".26"/></filter><linearGradient id="b" gradientUnits="userSpaceOnUse" x1="12" x2="29.323109" y1="31" y2="16"><stop offset="0" stop-color="#004792"/><stop offset="1" stop-color="#004792" stop-opacity="0"/></linearGradient><clipPath id="c"><circle cx="16" cy="16" r="13"/></clipPath><radialGradient id="d" cx="19.9" cy="10.8" gradientUnits="userSpaceOnUse" r="13"><stop offset="0" stop-color="#51cdfb"/><stop offset="1" stop-color="#0078f6"/></radialGradient><circle cx="16" cy="16" fill="none" r="13" stroke="#e7e7e7" stroke-width="2"/><circle cx="16" cy="16" fill="url(#d)" r="13"/><circle cx="16" cy="16" fill="url(#d)" r="13"/><path clip-path="url(#c)" d="m16 3.2871094c-3.328051 0-6.6349936 1.3713217-8.9882812 3.7246094-2.3532877 2.3532876-3.7246094 5.6602302-3.7246094 8.9882812s1.3713217 6.634994 3.7246094 8.988281c2.3532876 2.353288 5.6602302 3.72461 8.9882812 3.72461s6.634994-1.371322 8.988281-3.72461c2.353288-2.353287 3.72461-5.66023 3.72461-8.988281s-1.371322-6.6349936-3.72461-8.9882812c-2.353287-2.3532877-5.66023-3.7246094-8.988281-3.7246094z" fill="none" filter="url(#a)" stroke="url(#b)"/></svg>