<?xml version="1.0" encoding="UTF-8" standalone="no"?>
<svg
   xmlns:dc="http://purl.org/dc/elements/1.1/"
   xmlns:cc="http://creativecommons.org/ns#"
   xmlns:rdf="http://www.w3.org/1999/02/22-rdf-syntax-ns#"
   xmlns:svg="http://www.w3.org/2000/svg"
   xmlns="http://www.w3.org/2000/svg"
   xmlns:xlink="http://www.w3.org/1999/xlink"
   xmlns:sodipodi="http://sodipodi.sourceforge.net/DTD/sodipodi-0.dtd"
   xmlns:inkscape="http://www.inkscape.org/namespaces/inkscape"
   viewBox="0 0 32 32"
   version="1.1"
   id="svg14"
   sodipodi:docname="splittable.svg"
   inkscape:export-filename="/home/rizmut/Documents/Rizmut/Github/libreoffice-style-sukapura/images_sukapura/cmd/32/splittable.png"
   inkscape:export-xdpi="96"
   inkscape:export-ydpi="96"
   inkscape:version="0.92.3 (2405546, 2018-03-11)"
   width="32"
   height="32">
  <metadata
     id="metadata20">
    <rdf:RDF>
      <cc:Work
         rdf:about="">
        <dc:format>image/svg+xml</dc:format>
        <dc:type
           rdf:resource="http://purl.org/dc/dcmitype/StillImage" />
        <dc:title></dc:title>
      </cc:Work>
    </rdf:RDF>
  </metadata>
  <defs
     id="defs18">
    <filter
       style="color-interpolation-filters:sRGB"
       id="b"
       height="1.094553"
       width="1.097492"
       x="-0.048746001"
       y="-0.047277">
      <feGaussianBlur
         stdDeviation=".36559322"
         id="feGaussianBlur957" />
    </filter>
    <linearGradient
       gradientTransform="translate(-41,-2)"
       id="a"
       gradientUnits="userSpaceOnUse"
       x1="12"
       x2="12"
       y1="3"
       y2="21">
      <stop
         offset="0"
         stop-color="#efefef"
         id="stop948" />
      <stop
         offset=".33333334"
         stop-color="#fff"
         id="stop950" />
      <stop
         offset=".8888889"
         stop-color="#fff"
         id="stop952" />
      <stop
         offset="1"
         stop-color="#f5f5f5"
         id="stop954" />
    </linearGradient>
    <linearGradient
       gradientTransform="translate(32,-5)"
       id="a-3"
       gradientUnits="userSpaceOnUse"
       x1="14"
       x2="13.79661"
       y1="22"
       y2="2.1355929">
      <stop
         offset="0"
         stop-color="#0040dd"
         id="stop1604" />
      <stop
         offset="1"
         stop-color="#0a84ff"
         id="stop1606" />
    </linearGradient>
    <filter
       style="color-interpolation-filters:sRGB"
       id="b-6"
       height="1.094553"
       width="1.097492"
       x="-0.048746001"
       y="-0.047277">
      <feGaussianBlur
         stdDeviation=".36559322"
         id="feGaussianBlur957-7" />
    </filter>
    <linearGradient
       inkscape:collect="always"
       xlink:href="#linearGradient1846"
       id="linearGradient896"
       x1="15.006337"
       y1="13.999521"
       x2="4.5063372"
       y2="13.999521"
       gradientUnits="userSpaceOnUse"
       gradientTransform="translate(-1)" />
    <linearGradient
       inkscape:collect="always"
       xlink:href="#linearGradient1846"
       id="linearGradient959"
       x1="16"
       y1="22"
       x2="16"
       y2="13"
       gradientUnits="userSpaceOnUse" />
    <linearGradient
       inkscape:collect="always"
       xlink:href="#linearGradient1846"
       id="linearGradient1035"
       gradientUnits="userSpaceOnUse"
       gradientTransform="translate(-1)"
       x1="4.4995222"
       y1="21.499521"
       x2="13.999522"
       y2="21.499521" />
    <linearGradient
       inkscape:collect="always"
       id="linearGradient1846">
      <stop
         style="stop-color:#c20618;stop-opacity:1"
         offset="0"
         id="stop1842" />
      <stop
         style="stop-color:#ff6961;stop-opacity:0.96680498"
         offset="1"
         id="stop1844" />
    </linearGradient>
  </defs>
  <sodipodi:namedview
     pagecolor="#ffffff"
     bordercolor="#666666"
     borderopacity="1"
     objecttolerance="10"
     gridtolerance="10"
     guidetolerance="10"
     inkscape:pageopacity="0"
     inkscape:pageshadow="2"
     inkscape:window-width="1366"
     inkscape:window-height="685"
     id="namedview16"
     showgrid="true"
     inkscape:zoom="8"
     inkscape:cx="3.5844818"
     inkscape:cy="17.908925"
     inkscape:window-x="0"
     inkscape:window-y="0"
     inkscape:window-maximized="1"
     inkscape:current-layer="g990"
     inkscape:pagecheckerboard="true"
     inkscape:snap-smooth-nodes="true"
     inkscape:snap-global="true">
    <inkscape:grid
       type="xygrid"
       id="grid827"
       spacingx="0.5"
       spacingy="0.5"
       empspacing="2" />
  </sodipodi:namedview>
  <g
     id="g990">
    <path
       style="opacity:0.15;stroke-width:1.3471508;filter:url(#b-6)"
       d="M 4 5 L 4 14.5 L 28 14.5 L 28 5 L 4 5 z M 4 19 L 4 29.5 L 28 29.5 L 28 19 L 4 19 z "
       id="path960" />
    <path
       style="opacity:1;fill:#fafafa;fill-opacity:1;stroke:none;stroke-width:2.37635422;stroke-linecap:round;stroke-linejoin:round;stroke-miterlimit:4;stroke-dasharray:none;stroke-opacity:1"
       d="M 4 4 L 4 14 L 28 14 L 28 4 L 4 4 z M 4 16.9375 L 4 28 L 28 28 L 28 16.9375 L 4 16.9375 z "
       id="rect945" />
    <path
       style="fill:#bababa;fill-opacity:1"
       d="M 9 4 L 9 8 L 4 8 L 4 9 L 9 9 L 9 11.251953 L 9 13 L 5.1894531 13 L 4 13 L 4 14 L 4 23 L 4.2089844 23 L 5.2089844 23 L 9 23 L 9 25 L 9 28 L 10 28 L 10 23.363281 L 10 23 L 10.037109 23 L 15 23 L 15 28 L 16 28 L 16 23 L 21 23 L 21 28 L 22 28 L 22 23 L 22.013672 23 L 26.841797 23 L 28 23 L 28 22 L 27.841797 22 L 22.291016 22 L 22 22 L 22 18 L 21 18 L 21 22 L 10 22 L 10 18 L 9 18 L 9 22 L 4.2089844 22 L 4.1757812 22 L 4.1757812 14 L 4.1894531 14 L 9.75 14 L 10 14 L 15 14 L 16 14 L 21 14 L 22 14 L 22.300781 14 L 27.861328 14 L 28 14 L 28 13 L 26.861328 13 L 22.037109 13 L 22 13 L 22 9 L 28 9 L 28 8 L 22 8 L 22 4 L 21 4 L 21 8 L 16 8 L 16 4 L 15 4 L 15 8 L 10 8 L 10 4 L 9 4 z M 10 9 L 15 9 L 15 13 L 10.013672 13 C 10.013159 13.036707 10.002185 13.07267 10 13.109375 L 10 13 L 10 12.662109 L 10 9 z M 16 9 L 21 9 L 21 13 L 16 13 L 16 9 z "
       id="path4-8" />
    <path
       style="fill:#69696e;fill-opacity:1"
       d="M 3 3 L 3 4 L 3 9 L 3 14 L 4 14 L 4 13 L 4 9 L 4 8 L 4 4 L 9 4 L 10 4 L 15 4 L 16 4 L 21 4 L 22 4 L 28 4 L 28 8 L 28 9 L 28 13 L 28 14 L 29 14 L 29 9 L 29 4 L 29 3 L 28 3 L 4 3 L 3 3 z M 3 16.9375 L 3 22.033203 L 3 28 C 3 28.554 3.446 29 4 29 L 28 29 C 28.554 29 29 28.554 29 28 L 29 22 L 29 20.839844 L 29 16.9375 L 28 16.9375 L 28 21.839844 L 28 22 L 28 23 L 28 28 L 22 28 L 21 28 L 16 28 L 15 28 L 10 28 L 9 28 L 4 28 L 4 23 L 4 16.9375 L 3 16.9375 z "
       id="path916" />
    <path
       id="rect947"
       d="m 4,13 v 1 h 24 v -1 z m 0,4 v 1 h 24 v -1 z"
       style="opacity:1;fill:url(#linearGradient959);fill-opacity:1.0;stroke:none;stroke-width:2;stroke-linecap:round;stroke-linejoin:round;stroke-miterlimit:4;stroke-dasharray:none;stroke-opacity:1"
       inkscape:connector-curvature="0"
       sodipodi:nodetypes="cccccccccc" />
    <g
       id="g845"
       transform="rotate(90,17.002929,16.996592)">
      <g
         id="g1027">
        <path
           style="fill:#fafafa;fill-opacity:0.78431373;stroke:none;stroke-width:1.99996591;stroke-linecap:round;stroke-linejoin:round"
           d="m 7.4511719,12.996094 c -0.3776891,0.01229 -0.7484723,0.17219 -1.015625,0.439453 L 3,16.871094 v 2.257812 l 3.4355469,3.435547 a 1.0047099,1.0047099 0 0 0 0.00391,0.002 c 0.4182456,0.415027 1.0923483,0.547738 1.6367188,0.322266 0.5443705,-0.225472 0.9254329,-0.795553 0.9277343,-1.384766 a 1.0047099,1.0047099 0 0 0 0,-0.0039 v -1.496094 h 3.498047 c 0.816177,0 1.503906,-0.687729 1.503906,-1.503906 v -1 c 0,-0.816177 -0.687729,-1.503906 -1.503906,-1.503906 H 9.0039062 V 14.5 a 1.0047099,1.0047099 0 0 0 0,-0.002 C 9.0030044,13.695562 8.2572579,12.972308 7.4550781,12.996094 a 1.0047099,1.0047099 0 0 0 -0.00391,0 z"
           id="path1017"
           inkscape:connector-curvature="0" />
        <path
           inkscape:connector-curvature="0"
           id="path8"
           d="m 7.484375,14 a 0.50078285,0.50078285 0 0 0 -0.3378906,0.146484 l -3.5,3.5 a 0.50078285,0.50078285 0 0 0 0,0.707032 l 3.5,3.5 A 0.50078285,0.50078285 0 0 0 8,21.5 V 19 h 4.501953 c 0.277,0 0.5,-0.223 0.5,-0.5 v -1 c 0,-0.277 -0.223,-0.5 -0.5,-0.5 H 8 V 14.5 A 0.50078285,0.50078285 0 0 0 7.484375,14 Z"
           style="fill:url(#linearGradient896);fill-opacity:1;stroke:none;stroke-width:1.99996591;stroke-linecap:round;stroke-linejoin:round" />
      </g>
      <g
         transform="matrix(-1,0,0,1,32.005859,0)"
         id="g1033">
        <path
           inkscape:connector-curvature="0"
           id="path1029"
           d="m 7.4511719,12.996094 c -0.3776891,0.01229 -0.7484723,0.17219 -1.015625,0.439453 L 3,16.871094 v 2.257812 l 3.4355469,3.435547 a 1.0047099,1.0047099 0 0 0 0.00391,0.002 c 0.4182456,0.415027 1.0923483,0.547738 1.6367188,0.322266 0.5443705,-0.225472 0.9254329,-0.795553 0.9277343,-1.384766 a 1.0047099,1.0047099 0 0 0 0,-0.0039 v -1.496094 h 3.498047 c 0.816177,0 1.503906,-0.687729 1.503906,-1.503906 v -1 c 0,-0.816177 -0.687729,-1.503906 -1.503906,-1.503906 H 9.0039062 V 14.5 a 1.0047099,1.0047099 0 0 0 0,-0.002 C 9.0030044,13.695562 8.2572579,12.972308 7.4550781,12.996094 a 1.0047099,1.0047099 0 0 0 -0.00391,0 z"
           style="fill:#fafafa;fill-opacity:0.78431373;stroke:none;stroke-width:1.99996591;stroke-linecap:round;stroke-linejoin:round" />
        <path
           style="fill:url(#linearGradient1035);fill-opacity:1;stroke:none;stroke-width:1.99996591;stroke-linecap:round;stroke-linejoin:round"
           d="m 7.484375,14 a 0.50078285,0.50078285 0 0 0 -0.3378906,0.146484 l -3.5,3.5 a 0.50078285,0.50078285 0 0 0 0,0.707032 l 3.5,3.5 A 0.50078285,0.50078285 0 0 0 8,21.5 V 19 h 4.501953 c 0.277,0 0.5,-0.223 0.5,-0.5 v -1 c 0,-0.277 -0.223,-0.5 -0.5,-0.5 H 8 V 14.5 A 0.50078285,0.50078285 0 0 0 7.484375,14 Z"
           id="path1031"
           inkscape:connector-curvature="0" />
      </g>
    </g>
  </g>
</svg>
