<?xml version="1.0" encoding="UTF-8" standalone="no"?>
<svg
   xmlns:dc="http://purl.org/dc/elements/1.1/"
   xmlns:cc="http://creativecommons.org/ns#"
   xmlns:rdf="http://www.w3.org/1999/02/22-rdf-syntax-ns#"
   xmlns:svg="http://www.w3.org/2000/svg"
   xmlns="http://www.w3.org/2000/svg"
   xmlns:xlink="http://www.w3.org/1999/xlink"
   xmlns:sodipodi="http://sodipodi.sourceforge.net/DTD/sodipodi-0.dtd"
   xmlns:inkscape="http://www.inkscape.org/namespaces/inkscape"
   viewBox="0 0 32 32"
   version="1.1"
   id="svg4"
   sodipodi:docname="starshapes.signet.svg"
   inkscape:version="0.92.3 (2405546, 2018-03-11)">
  <metadata
     id="metadata10">
    <rdf:RDF>
      <cc:Work
         rdf:about="">
        <dc:format>image/svg+xml</dc:format>
        <dc:type
           rdf:resource="http://purl.org/dc/dcmitype/StillImage" />
        <dc:title></dc:title>
      </cc:Work>
    </rdf:RDF>
  </metadata>
  <defs
     id="defs8">
    <linearGradient
       gradientTransform="translate(-31.79661,5.3559324)"
       id="a"
       gradientUnits="userSpaceOnUse"
       x1="12"
       x2="12"
       y1="21.5"
       y2="2.5">
      <stop
         offset="0"
         stop-color="#e5eefc"
         id="stop1020" />
      <stop
         offset="1"
         stop-color="#fcfdff"
         id="stop1022" />
    </linearGradient>
    <linearGradient
       inkscape:collect="always"
       xlink:href="#a"
       id="linearGradient835"
       x1="17.779661"
       y1="28.939753"
       x2="17.610172"
       y2="3.8550074"
       gradientUnits="userSpaceOnUse" />
  </defs>
  <sodipodi:namedview
     pagecolor="#ffffff"
     bordercolor="#666666"
     borderopacity="1"
     objecttolerance="10"
     gridtolerance="10"
     guidetolerance="10"
     inkscape:pageopacity="0"
     inkscape:pageshadow="2"
     inkscape:window-width="1366"
     inkscape:window-height="716"
     id="namedview6"
     showgrid="false"
     inkscape:zoom="7.375"
     inkscape:cx="-3.3220339"
     inkscape:cy="16"
     inkscape:window-x="-8"
     inkscape:window-y="-8"
     inkscape:window-maximized="1"
     inkscape:current-layer="svg4" />
  <path
     d="m15.218249 3.6170144c-1.618426 0-1.939012 2.7617967-3.434242 3.3700264-1.494299.6077692-3.7084299-1.1231689-4.8521179 0-1.1436883 1.1231684.6189588 3.2973022 0 4.7647862-.6193459 1.468098-3.4316734 1.783127-3.4316733 3.372594 0 1.589468 2.8123274 1.901622 3.4316733 3.370027.6189588 1.467177-1.1436883 3.641617 0 4.764786 1.1436879 1.123016 3.3578189-.607923 4.8521179 0 1.49523.608076 1.815816 3.372594 3.434242 3.372594s1.939012-2.764518 3.434242-3.372594c.02864-.02813.09764-.07023.138706-.02312l5.021647 4.929177 1.56172-3.066929 3.126008-1.536034c.02003-.04241-2.979115-2.18163-5.039628-3.711653-.08681-.479202-.128012-.94901.04367-1.35623.619473-1.468405 3.431674-1.780559 3.431674-3.370027 0-1.589467-2.81233-1.904497-3.431674-3.372594-.618959-1.467485 1.143686-3.6416178 0-4.7647862-1.143688-1.1231689-3.357818.6077692-4.852119 0-1.495229-.6082297-1.815817-3.3700264-3.434242-3.3700264zm0 6.1364275c3.020284 0 5.468588 2.4050221 5.468588 5.3709791 0 2.965959-2.448304 5.37098-5.468588 5.37098-3.020283 0-5.4685863-2.405021-5.4685863-5.37098 0-2.965957 2.4483033-5.3709791 5.4685863-5.3709791z"
     fill="#fff"
     stroke="#808080"
     stroke-width="1.000432"
     id="path2"
     style="fill-opacity:1;fill:url(#linearGradient835);stroke:#0a84ff;stroke-opacity:1" />
</svg>
