<?xml version="1.0" encoding="UTF-8" standalone="no"?>
<svg
   xmlns:dc="http://purl.org/dc/elements/1.1/"
   xmlns:cc="http://creativecommons.org/ns#"
   xmlns:rdf="http://www.w3.org/1999/02/22-rdf-syntax-ns#"
   xmlns:svg="http://www.w3.org/2000/svg"
   xmlns="http://www.w3.org/2000/svg"
   xmlns:xlink="http://www.w3.org/1999/xlink"
   xmlns:sodipodi="http://sodipodi.sourceforge.net/DTD/sodipodi-0.dtd"
   xmlns:inkscape="http://www.inkscape.org/namespaces/inkscape"
   viewBox="0 0 32 32"
   version="1.1"
   id="svg4"
   sodipodi:docname="starshapes.bang.svg"
   inkscape:version="0.92.3 (2405546, 2018-03-11)">
  <metadata
     id="metadata10">
    <rdf:RDF>
      <cc:Work
         rdf:about="">
        <dc:format>image/svg+xml</dc:format>
        <dc:type
           rdf:resource="http://purl.org/dc/dcmitype/StillImage" />
        <dc:title></dc:title>
      </cc:Work>
    </rdf:RDF>
  </metadata>
  <defs
     id="defs8">
    <linearGradient
       gradientTransform="translate(-36.949152,10.237288)"
       id="a"
       gradientUnits="userSpaceOnUse"
       x1="12"
       x2="12"
       y1="21.5"
       y2="2.5">
      <stop
         offset="0"
         stop-color="#e5eefc"
         id="stop1020" />
      <stop
         offset="1"
         stop-color="#fcfdff"
         id="stop1022" />
    </linearGradient>
    <linearGradient
       inkscape:collect="always"
       xlink:href="#a"
       id="linearGradient835"
       x1="18.090376"
       y1="28.499947"
       x2="17.203388"
       y2="3.2542772"
       gradientUnits="userSpaceOnUse" />
  </defs>
  <sodipodi:namedview
     pagecolor="#ffffff"
     bordercolor="#666666"
     borderopacity="1"
     objecttolerance="10"
     gridtolerance="10"
     guidetolerance="10"
     inkscape:pageopacity="0"
     inkscape:pageshadow="2"
     inkscape:window-width="1366"
     inkscape:window-height="716"
     id="namedview6"
     showgrid="false"
     inkscape:zoom="7.375"
     inkscape:cx="-3.3220339"
     inkscape:cy="16"
     inkscape:window-x="-8"
     inkscape:window-y="-8"
     inkscape:window-maximized="1"
     inkscape:current-layer="svg4" />
  <path
     d="m19.155436 3.4999518-2.682494 6.210326-1.80664-5.0567618-1.556397 5.2154532-3.5064682-4.238891 3.8452152 6.8756088-6.4758302-4.3670642 4.9865712 5.8929422-6.3079818-2.371214 3.7597649 2.893067-5.8288563 1.843259 6.7230212.97046-6.8054187 3.054808 7.5317357-1.132202-2.8320296 5.6427 5.3161596-4.446411-3.8543678 6.323242 5.2795408-4.397582-1.339722 4.916378 2.685545-6.008908 1.803591 7.180785 1.559448-7.342528 3.503416 4.040527-1.303099-4.348754 5.331418 3.10974-6.381224-4.63562 7.699583 1.431275-5.151367-4.022216 4.684448-1.031493-5.581664.286864 5.664062-4.312132-6.387327 2.389526 4.223632-4.7760008-6.707764 1.2542718 3.85437-4.0008533-5.282593 4.7119133 1.339722-7.7545152z"
     fill="#fff"
     stroke="#808080"
     stroke-linecap="round"
     stroke-linejoin="round"
     stroke-width="1.000449"
     id="path2"
     style="fill-opacity:1;fill:url(#linearGradient835);stroke:#0a84ff;stroke-opacity:1" />
</svg>
