<?xml version="1.0" encoding="UTF-8" standalone="no"?>
<svg
   xmlns:dc="http://purl.org/dc/elements/1.1/"
   xmlns:cc="http://creativecommons.org/ns#"
   xmlns:rdf="http://www.w3.org/1999/02/22-rdf-syntax-ns#"
   xmlns:svg="http://www.w3.org/2000/svg"
   xmlns="http://www.w3.org/2000/svg"
   xmlns:xlink="http://www.w3.org/1999/xlink"
   xmlns:sodipodi="http://sodipodi.sourceforge.net/DTD/sodipodi-0.dtd"
   xmlns:inkscape="http://www.inkscape.org/namespaces/inkscape"
   viewBox="0 0 32 32"
   version="1.1"
   id="svg10"
   sodipodi:docname="starshapes.star12.svg"
   inkscape:version="0.92.3 (2405546, 2018-03-11)">
  <metadata
     id="metadata16">
    <rdf:RDF>
      <cc:Work
         rdf:about="">
        <dc:format>image/svg+xml</dc:format>
        <dc:type
           rdf:resource="http://purl.org/dc/dcmitype/StillImage" />
        <dc:title></dc:title>
      </cc:Work>
    </rdf:RDF>
  </metadata>
  <defs
     id="defs14">
    <linearGradient
       gradientTransform="matrix(0.26458333,0,0,0.26458333,101.6,307.58333)"
       id="b"
       gradientUnits="userSpaceOnUse"
       x1="18.5"
       x2="18.5"
       y1="23"
       y2="14.5">
      <stop
         offset="0"
         stop-color="#d70015"
         id="stop956" />
      <stop
         offset="1"
         stop-color="#ff453a"
         id="stop958" />
    </linearGradient>
    <linearGradient
       inkscape:collect="always"
       xlink:href="#b"
       id="linearGradient843"
       x1="16.418446"
       y1="22.045599"
       x2="17.393782"
       y2="11.954406"
       gradientUnits="userSpaceOnUse" />
    <linearGradient
       gradientTransform="translate(-54.576271,14.305085)"
       id="a"
       gradientUnits="userSpaceOnUse"
       x1="12"
       x2="12"
       y1="21.5"
       y2="2.5">
      <stop
         offset="0"
         stop-color="#e5eefc"
         id="stop1020" />
      <stop
         offset="1"
         stop-color="#fcfdff"
         id="stop1022" />
    </linearGradient>
    <linearGradient
       inkscape:collect="always"
       xlink:href="#a"
       id="linearGradient863"
       x1="15.656013"
       y1="23.726164"
       x2="12.428781"
       y2="3.0163248"
       gradientUnits="userSpaceOnUse" />
  </defs>
  <sodipodi:namedview
     pagecolor="#ffffff"
     bordercolor="#666666"
     borderopacity="1"
     objecttolerance="10"
     gridtolerance="10"
     guidetolerance="10"
     inkscape:pageopacity="0"
     inkscape:pageshadow="2"
     inkscape:window-width="1366"
     inkscape:window-height="716"
     id="namedview12"
     showgrid="false"
     inkscape:zoom="5.2149125"
     inkscape:cx="2.546878"
     inkscape:cy="13.900017"
     inkscape:window-x="-8"
     inkscape:window-y="-8"
     inkscape:window-maximized="1"
     inkscape:current-layer="svg10" />
  <path
     d="m15.092921 3.6044666-1.480933 5.9237342-4.263294-4.3979239 1.660441 5.8788571-5.8788577-1.6604403 4.3979238 4.2632943-5.9237342 1.480933 5.6851788 1.421885 3.0728783-2.78236a1.2094924 1.2094924 0 0 1  .812505-.314138h2.047799a1.2094924 1.2094924 0 0 1 1.209311 1.209311v.465302h1.478571.909345.581037.248003c.140912-.156339.273797-.321182.432234-.458215.40382-.350235.86964-.613086 1.360475-.826678l-.784163-.19604 4.397924-4.2632943-5.878857 1.6604403 1.66044-5.8788571-4.263294 4.3979239zm-1.45259 12.2324634-1.041614.944775a1.2094924 1.2094924 0 0 1 1.058147.389719v-.642446l.356653-.356652v-.335396zm-5.793828 2.369023-2.7162257 2.631195 3.479131-.982565-.5550549-.79361a1.2094924 1.2094924 0 0 1 -.2078504-.85502zm2.957143.566864.0189.02598-.0071-.01417c-.0077-.01071-.0052-.0035-.01181-.01181zm.718029 1.851758c-.202567.138302-.403715.286361-.6826.337756-.109308.02013-.225828.02828-.34248.03071l-1.147901 4.062524 2.172981-2.241476z"
     fill="#fff"
     stroke="#808080"
     stroke-linecap="round"
     stroke-linejoin="round"
     stroke-width="1.209311"
     id="path2"
     style="fill-opacity:1;fill:url(#linearGradient863);stroke:#0a84ff;stroke-opacity:1" />
  <g
     fill="#4d82b8"
     transform="matrix(1.209311 0 0 1.209311 .581189 1.185845)"
     id="g8"
     style="fill-opacity:1;fill:url(#linearGradient843)">
    <path
       d="m7.8470583 21.39166h2.1989307v-6.647803q0-.41102.02567-.857781l-1.4802141 1.331348q-.1454546.125093-.2909092.151898-.1454545.02681-.2737967 0-.1283423-.0268-.2310161-.08935-.094117-.07148-.1454546-.142963l-.6502683-.929263 3.413904-3.091586h1.694117v10.275502h1.942247v1.60834h-6.2032092v-1.60834z"
       id="path4"
       style="fill-opacity:1.0;fill:url(#linearGradient843)" />
    <path
       d="m19.329412 11q .787165 0 1.428877.250186.650267.241251 1.103743.688012.462032.446761.71016 1.081162.256685.625465.256685 1.384959 0 .652271-.179679 1.21519-.179679.553983-.479144 1.063291-.299466.500372-.701605.982874-.402139.473567-.847059.956068l-2.412834 2.63589q.385027-.125093.770054-.187639.385026-.07148.718716-.07148h2.575401q.325134 0 .521926.196575.205347.196574.205347.518242v1.286672h-7.683423v-.723753q0-.20551.07701-.437826.08556-.24125.290908-.446761l3.302673-3.547282q.419252-.455696.735829-.866716.325134-.41102.539038-.813105.22246-.41102.333689-.82204.11123-.419956.11123-.875652 0-.82204-.393582-1.241995-.393583-.419956-1.112299-.419956-.308022 0-.564707.09829-.256684.09829-.462032.268056-.205347.16977-.350802.402085-.145454.232316-.222459.500373-.136899.41102-.376471.536113-.231016.125093-.641712.05361l-1.095187-.196575q.128343-.866716.462032-1.510052.33369-.652271.829946-1.081161.504813-.437826 1.155081-.652271.650265-.223384 1.39465-.223384z"
       id="path6"
       style="fill-opacity:1.0;fill:url(#linearGradient843)" />
  </g>
</svg>
