<?xml version="1.0" encoding="UTF-8" standalone="no"?>
<svg
   xmlns:dc="http://purl.org/dc/elements/1.1/"
   xmlns:cc="http://creativecommons.org/ns#"
   xmlns:rdf="http://www.w3.org/1999/02/22-rdf-syntax-ns#"
   xmlns:svg="http://www.w3.org/2000/svg"
   xmlns="http://www.w3.org/2000/svg"
   xmlns:xlink="http://www.w3.org/1999/xlink"
   xmlns:sodipodi="http://sodipodi.sourceforge.net/DTD/sodipodi-0.dtd"
   xmlns:inkscape="http://www.inkscape.org/namespaces/inkscape"
   viewBox="0 0 32 32"
   version="1.1"
   id="svg10"
   sodipodi:docname="starshapes.star24.svg"
   inkscape:version="0.92.3 (2405546, 2018-03-11)">
  <metadata
     id="metadata16">
    <rdf:RDF>
      <cc:Work
         rdf:about="">
        <dc:format>image/svg+xml</dc:format>
        <dc:type
           rdf:resource="http://purl.org/dc/dcmitype/StillImage" />
        <dc:title></dc:title>
      </cc:Work>
    </rdf:RDF>
  </metadata>
  <defs
     id="defs14">
    <linearGradient
       gradientTransform="translate(-29.762712,2.7796612)"
       id="a"
       gradientUnits="userSpaceOnUse"
       x1="12"
       x2="12"
       y1="21.5"
       y2="2.5">
      <stop
         offset="0"
         stop-color="#e5eefc"
         id="stop1020" />
      <stop
         offset="1"
         stop-color="#fcfdff"
         id="stop1022" />
    </linearGradient>
    <linearGradient
       inkscape:collect="always"
       xlink:href="#a"
       id="linearGradient841"
       x1="15.067797"
       y1="23.69174"
       x2="17.178484"
       y2="6.0646224"
       gradientUnits="userSpaceOnUse" />
    <pattern
       y="0"
       x="0"
       height="6"
       width="6"
       patternUnits="userSpaceOnUse"
       id="EMFhbasepattern" />
    <linearGradient
       gradientTransform="matrix(0.26458333,0,0,0.26458333,101.6,307.58333)"
       id="b"
       gradientUnits="userSpaceOnUse"
       x1="18.5"
       x2="18.5"
       y1="23"
       y2="14.5">
      <stop
         offset="0"
         stop-color="#d70015"
         id="stop956" />
      <stop
         offset="1"
         stop-color="#ff453a"
         id="stop958" />
    </linearGradient>
    <linearGradient
       inkscape:collect="always"
       xlink:href="#b"
       id="linearGradient884"
       x1="5"
       y1="17"
       x2="22.999998"
       y2="17"
       gradientUnits="userSpaceOnUse" />
    <linearGradient
       inkscape:collect="always"
       xlink:href="#b"
       id="linearGradient886"
       gradientUnits="userSpaceOnUse"
       x1="15.841517"
       y1="22.575638"
       x2="16.712891"
       y2="11.369141" />
    <linearGradient
       inkscape:collect="always"
       xlink:href="#b"
       id="linearGradient888"
       gradientUnits="userSpaceOnUse"
       x1="15.841517"
       y1="22.575638"
       x2="16.712891"
       y2="11.369141" />
  </defs>
  <sodipodi:namedview
     pagecolor="#ffffff"
     bordercolor="#666666"
     borderopacity="1"
     objecttolerance="10"
     gridtolerance="10"
     guidetolerance="10"
     inkscape:pageopacity="0"
     inkscape:pageshadow="2"
     inkscape:window-width="1366"
     inkscape:window-height="716"
     id="namedview12"
     showgrid="false"
     inkscape:zoom="5.2149125"
     inkscape:cx="9.0645046"
     inkscape:cy="34.204045"
     inkscape:window-x="-8"
     inkscape:window-y="-8"
     inkscape:window-maximized="1"
     inkscape:current-layer="svg10" />
  <path
     d="m15.380738 3.6186407-.781076 5.9269913-2.251339-5.5134802.781077 5.9269913-3.6297079-4.7783496 2.2972839 5.5134805-4.7324044-3.6297081 3.6297084 4.7324041-5.5134807-2.2972837 4.7783496 3.6297087-5.9269914-.781077 4.1592922 1.697571c.4878316-.341665 1.0174035-.624932 1.5960074-.805258.7003719-.225379 1.4427619-.336129 2.2102279-.336129.809254 0 1.581589.122618 2.294866.382075.706933.247313 1.345567.616813 1.876518 1.107532.316805.288673.578837.626708.810095.986623h2.812358 2.548776l.42802-.57553-1.55248-.205546 2.442375-.996296.03144-.04353a1.2382387 1.2382387 0 0 1  .996295-.500566h.302274l1.741099-.710949-5.926992.781077 4.77835-3.6297085-5.51348 2.2972835 3.629708-4.7324039-4.732405 3.6297079 2.297284-5.5134803-3.629708 4.7783496.781077-5.9269913-2.251338 5.5134802zm-8.161402 11.2881263-3.6006895.473965 2.9743776.391747c.1849445-.310492.3928787-.599604.6263119-.865712zm1.6685533 1.941808c-.079071.112266-.1798436.177847-.2514921.309529a1.2382387 1.2382387 0 0 1 -.00484.0048c-.041577.07537-.054203.204737-.091891.287765l.043527.0073c.027887.0041-.0083.0059.012091.0073.074863-.215774.1783693-.41885.2926015-.61664zm-.2079647.652913c-.028706.01411.000863-.0088-.019346.0048-.00692.0033.012723-.0015.00484.0024a1.2382387 1.2382387 0 0 1  .014509-.0073zm-.1184914.03144c.00297-.0077-.010622.01195-.00725.0024l-.016927.05078c.00571-.0187.018165-.0346.024182-.0532zm-2.7132127.137837-1.816063.742386 1.6951534-.222474c.029514-.180219.080626-.346402.1209096-.519912zm5.1217325.502984c-.02018.04487-.04767.08567-.06287.135419a1.2382387 1.2382387 0 0 1 -.01693.0532c-.07932.223925-.193102.450563-.338547.662584l.142674-.06045-3.6297081 4.732404 3.9053821-2.996141zm-3.777217 1.559735-2.0119367 1.528298 3.2355423-1.349352c-.077326-.0084-.1585956.000341-.2345647-.01209a1.2382387 1.2382387 0 0 1 -.00725 0z"
     fill="#fff"
     stroke="#808080"
     stroke-linecap="round"
     stroke-linejoin="round"
     stroke-width="1.238115"
     id="path2"
     style="fill-opacity:1;fill:url(#linearGradient841);stroke:#0a84ff;stroke-opacity:1" />
  <g
     fill="#4d82b8"
     transform="matrix(1.2381149 0 0 1.2381149 .523359 .523354)"
     id="g8"
     style="stroke:none;fill-opacity:1.0;fill:url(#linearGradient884)">
    <path
       d="m9.2679473 11.000001q.8372087 0 1.5197167.250186.691608.24125 1.173913.688011.491405.446762.755309 1.081162.273002.625465.273002 1.384959 0 .652271-.191102 1.21519-.191102.553984-.509606 1.063291-.318503.500373-.746208.982874-.427704.473567-.90091.956068l-2.5662279 2.63589q.4095046-.125093.819009-.187639.4095045-.07148.7644085-.07148h2.7391304q.345803 0 .555106.196576.218403.196575.218403.518242v1.286672h-8.1718909v-.723753q0-.20551.081901-.437826.091001-.241251.3094034-.44676l3.5126385-3.547281q.4459049-.455697.7826086-.866717.3458044-.41102.5733064-.813105.236603-.41102.354904-.82204.118302-.419955.118302-.875651 0-.822041-.418605-1.241996-.4186051-.419955-1.1830135-.419955-.3276036 0-.6006067.09829-.273003.09829-.4914054.268056-.2184024.16977-.3731041.402085-.1547017.232317-.2366027.500373-.1456015.41102-.4004043.536113-.2457028.125093-.6825076.05361l-1.1648126-.196584q.1365015-.866717.4914055-1.510052.3549039-.652272.8827097-1.081163.5369059-.437824 1.2285136-.65227.6916076-.22338 1.4833164-.22338z"
       id="path4"
       style="stroke:none;fill-opacity:1;fill:url(#linearGradient886)" />
    <path
       d="m21.607683 18.487714h1.392316v1.23306q0 .178705-.118301.303798-.118302.125093-.327604.125093h-.946411v2.850335h-1.91102v-2.850335h-4.904955q-.209302 0-.382204-.125093-.163802-.134029-.209302-.339538l-.227502-1.081162 5.54196-7.478778h2.093023zm-1.91102-3.672375q0-.259122.0091-.562919.0182-.312732.0637-.643336l-3.485338 4.87863h3.412538z"
       id="path6"
       style="stroke:none;fill-opacity:1;fill:url(#linearGradient888)" />
  </g>
</svg>
