<?xml version="1.0" encoding="UTF-8" standalone="no"?>
<svg
   xmlns:dc="http://purl.org/dc/elements/1.1/"
   xmlns:cc="http://creativecommons.org/ns#"
   xmlns:rdf="http://www.w3.org/1999/02/22-rdf-syntax-ns#"
   xmlns:svg="http://www.w3.org/2000/svg"
   xmlns="http://www.w3.org/2000/svg"
   xmlns:sodipodi="http://sodipodi.sourceforge.net/DTD/sodipodi-0.dtd"
   xmlns:inkscape="http://www.inkscape.org/namespaces/inkscape"
   viewBox="0 0 32 32"
   version="1.1"
   id="svg6"
   sodipodi:docname="strongemphasischarstyle.svg"
   inkscape:version="0.92.3 (2405546, 2018-03-11)">
  <metadata
     id="metadata12">
    <rdf:RDF>
      <cc:Work
         rdf:about="">
        <dc:format>image/svg+xml</dc:format>
        <dc:type
           rdf:resource="http://purl.org/dc/dcmitype/StillImage" />
        <dc:title></dc:title>
      </cc:Work>
    </rdf:RDF>
  </metadata>
  <defs
     id="defs10" />
  <sodipodi:namedview
     pagecolor="#ffffff"
     bordercolor="#666666"
     borderopacity="1"
     objecttolerance="10"
     gridtolerance="10"
     guidetolerance="10"
     inkscape:pageopacity="0"
     inkscape:pageshadow="2"
     inkscape:window-width="1366"
     inkscape:window-height="716"
     id="namedview8"
     showgrid="true"
     inkscape:zoom="11.313709"
     inkscape:cx="27.074707"
     inkscape:cy="27.83406"
     inkscape:window-x="-8"
     inkscape:window-y="-8"
     inkscape:window-maximized="1"
     inkscape:current-layer="svg6">
    <inkscape:grid
       type="xygrid"
       id="grid822" />
  </sodipodi:namedview>
  <g
     aria-label="S"
     style="font-style:normal;font-weight:normal;font-size:35.54669952px;line-height:1.25;font-family:sans-serif;letter-spacing:0px;word-spacing:0px;fill:#4b4b4f;fill-opacity:1;stroke:none;stroke-width:0.88866735"
     id="text826"
     transform="translate(-1.9899998)">
    <path
       d="m 22.113401,21.935788 q 0,-1.336473 -0.885196,-2.065458 -0.885196,-0.728985 -3.176292,-1.544754 -4.790473,-1.51004 -7.098926,-3.228362 -2.3084524,-1.735679 -2.3084524,-4.998755 0,-3.1762918 2.7423724,-5.1376087 2.759729,-1.9613169 6.994785,-1.9613169 4.200342,0 6.873288,2.1695983 2.690302,2.1522416 2.603518,5.5541723 l -0.03471,0.10414 h -5.693026 q 0,-1.5100402 -1.02405,-2.4473067 -1.024051,-0.9546233 -2.829157,-0.9546233 -1.770392,0 -2.777086,0.7810554 -1.006693,0.7810554 -1.006693,1.9266036 0,1.110834 1.006693,1.787749 1.024051,0.659558 3.818494,1.666251 4.304483,1.284403 6.474081,3.158936 2.186955,1.874533 2.186955,5.154965 0,3.332503 -2.603518,5.224393 Q 22.790316,29 18.50319,29 14.198706,29 11.057128,26.847759 7.9155496,24.67816 8.0023335,20.616672 l 0.034714,-0.104141 H 13.74743 q 0,2.186955 1.180261,3.124222 1.180262,0.937266 3.575499,0.937266 1.822462,0 2.707658,-0.728985 0.902553,-0.728985 0.902553,-1.909246 z"
       style="font-style:normal;font-variant:normal;font-weight:900;font-stretch:normal;font-family:Roboto;-inkscape-font-specification:'Roboto Heavy';fill:#4b4b4f;fill-opacity:1;stroke-width:0.88866735"
       id="path828"
       inkscape:connector-curvature="0" />
  </g>
</svg>
