<?xml version="1.0" encoding="UTF-8" standalone="no"?>
<svg
   xmlns:dc="http://purl.org/dc/elements/1.1/"
   xmlns:cc="http://creativecommons.org/ns#"
   xmlns:rdf="http://www.w3.org/1999/02/22-rdf-syntax-ns#"
   xmlns:svg="http://www.w3.org/2000/svg"
   xmlns="http://www.w3.org/2000/svg"
   xmlns:sodipodi="http://sodipodi.sourceforge.net/DTD/sodipodi-0.dtd"
   xmlns:inkscape="http://www.inkscape.org/namespaces/inkscape"
   viewBox="0 0 32 32"
   version="1.1"
   id="svg8"
   sodipodi:docname="superscript.svg"
   inkscape:version="0.92.3 (unknown)"
   inkscape:export-filename="/home/rizmut/Dokumen/Rizmut/Github/libreoffice-style-colibrex/images_colibrex_svg/cmd/32/superscript.png"
   inkscape:export-xdpi="96"
   inkscape:export-ydpi="96">
  <metadata
     id="metadata14">
    <rdf:RDF>
      <cc:Work
         rdf:about="">
        <dc:format>image/svg+xml</dc:format>
        <dc:type
           rdf:resource="http://purl.org/dc/dcmitype/StillImage" />
        <dc:title></dc:title>
      </cc:Work>
    </rdf:RDF>
  </metadata>
  <defs
     id="defs12" />
  <sodipodi:namedview
     pagecolor="#ffffff"
     bordercolor="#666666"
     borderopacity="1"
     objecttolerance="10"
     gridtolerance="10"
     guidetolerance="10"
     inkscape:pageopacity="0"
     inkscape:pageshadow="2"
     inkscape:window-width="1366"
     inkscape:window-height="706"
     id="namedview10"
     showgrid="false"
     inkscape:zoom="7.375"
     inkscape:cx="-6.5762712"
     inkscape:cy="16"
     inkscape:window-x="0"
     inkscape:window-y="0"
     inkscape:window-maximized="1"
     inkscape:current-layer="svg8" />
  <path
     d="m25.222717 1.999988c.682999 0 1.302895.097295 1.859688.2918841.564217.1876398 1.043059.4552003 1.436526.8026816.400891.3474811.708983.7679333.924276 1.2613566.222717.4864737.334076 1.0250695.334076 1.6157874 0 .5073225-.07795.9798969-.233853 1.4177232-.155902.4308767-.363772.8443793-.623609 1.2405079-.259836.3891789-.564216.7714081-.91314 1.1466877-.348923.3683305-.716407.7401355-1.102451 1.1154145l-3.140311 3.107969 5.289532-.0046c.282109 0 .508538.07645.679287.229338.178175.152916.267262.354455.267262.604641v1.170609h-10v-.844379c0-.159841.03341-.330106.100224-.510796.07424-.187641.200445-.361382.37862-.521222l4.29844-4.1385017c.363771-.3544307.682999-.6914875.957683-1.0111702.282111-.3196827.515965-.6358906.701562-.9486238.193021-.3196825.337786-.6393652.434296-.9590479.09651-.3266323.144766-.6671638.144766-1.0215945 0-.6393654-.17075-1.1223643-.51225-1.4489966-.341501-.3266322-.824055-.4899483-1.447662-.4899483-.267261 0-.512251.038223-.734968.1146685-.222717.0764485-.423161.1806943-.601334.3127375-.178176.1320475-.330367.2884163-.456573.4691066-.126207.1806902-.222717.3752796-.289532.5837682-.118783.3196827-.282109.5281714-.489979.6254662-.200445.0972947-.478841.1181441-.835189.062548l-1.425391-.229334c.111359-.6741134.311805-1.2613566.601337-1.7617295.289531-.5073225.649591-.9277747 1.080178-1.2613565.43801-.3405316.939123-.5941929 1.503339-.760984.564217-.1737405 1.169266-.2606107 1.81515-.260611z"
     fill="#4d82b8"
     id="path2"
     style="fill:#0a84ff;fill-opacity:1" />
  <path
     d="m8.4221163 19.760736-5.1902496-8.760736h2.9964327q.3567182 0 .5172415.128834.1783591.128835.3210462.349694l3.6385259 6.533741q.07135-.202453.142687-.386501.08918-.202455.231867-.40491l3.04994-5.66871q.160522-.257669.338882-.404909.178359-.147239.428063-.147239h2.87158l-5.208085 8.595093 5.439953 9.404907h-3.014269q-.356718 0-.588585-.202455-.214031-.220859-.356719-.460123l-3.692033-6.809814q-.142686.42331-.321046.717789l-3.3353148 6.092025q-.1426874.257669-.3567182.460123-.196195.202455-.5350773.202455h-2.8002377z"
     style="fill:none;stroke:#e8e8e8;stroke-width:2;stroke-linecap:round;stroke-linejoin:round;stroke-opacity:.992157"
     id="path4" />
  <path
     d="m8.4221163 19.760736-5.1902496-8.760736h2.9964327q.3567182 0 .5172415.128834.1783591.128835.3210462.349694l3.6385259 6.533741q.07135-.202453.142687-.386501.08918-.202455.231867-.40491l3.04994-5.66871q.160522-.257669.338882-.404909.178359-.147239.428063-.147239h2.87158l-5.208085 8.595093 5.439953 9.404907h-3.014269q-.356718 0-.588585-.202455-.214031-.220859-.356719-.460123l-3.692033-6.809814q-.142686.42331-.321046.717789l-3.3353148 6.092025q-.1426874.257669-.3567182.460123-.196195.202455-.5350773.202455h-2.8002377z"
     fill="#696969"
     id="path6"
     style="fill:#69696e;fill-opacity:1" />
</svg>
