<?xml version="1.0" encoding="UTF-8" standalone="no"?>
<svg
   xmlns:dc="http://purl.org/dc/elements/1.1/"
   xmlns:cc="http://creativecommons.org/ns#"
   xmlns:rdf="http://www.w3.org/1999/02/22-rdf-syntax-ns#"
   xmlns:svg="http://www.w3.org/2000/svg"
   xmlns="http://www.w3.org/2000/svg"
   xmlns:sodipodi="http://sodipodi.sourceforge.net/DTD/sodipodi-0.dtd"
   xmlns:inkscape="http://www.inkscape.org/namespaces/inkscape"
   viewBox="0 0 32 32"
   version="1.1"
   id="svg21617"
   sodipodi:docname="superscript.svg"
   inkscape:version="0.92.3 (2405546, 2018-03-11)">
  <metadata
     id="metadata21623">
    <rdf:RDF>
      <cc:Work
         rdf:about="">
        <dc:format>image/svg+xml</dc:format>
        <dc:type
           rdf:resource="http://purl.org/dc/dcmitype/StillImage" />
      </cc:Work>
    </rdf:RDF>
  </metadata>
  <defs
     id="defs21621" />
  <sodipodi:namedview
     pagecolor="#ffffff"
     bordercolor="#666666"
     borderopacity="1"
     objecttolerance="10"
     gridtolerance="10"
     guidetolerance="10"
     inkscape:pageopacity="0"
     inkscape:pageshadow="2"
     inkscape:window-width="1366"
     inkscape:window-height="716"
     id="namedview21619"
     showgrid="true"
     inkscape:zoom="7.375"
     inkscape:cx="30.688473"
     inkscape:cy="13.910186"
     inkscape:window-x="-8"
     inkscape:window-y="-8"
     inkscape:window-maximized="1"
     inkscape:current-layer="svg21617">
    <inkscape:grid
       type="xygrid"
       id="grid22168" />
  </sodipodi:namedview>
  <linearGradient
     id="a"
     gradientUnits="userSpaceOnUse"
     x1="30"
     x2="30"
     y1="16"
     y2="2">
    <stop
       offset="0"
       stop-color="#0040dd"
       id="stop21608" />
    <stop
       offset="1"
       stop-color="#0a84ff"
       id="stop21610" />
  </linearGradient>
  <path
     d="m10.620238 17.313934 3.932031-6.471467h3.538828l-5.799746 8.765152 5.979964 8.961753h-3.506061l-4.095866-6.635302-4.095865 6.635302h-3.5224442l5.9799635-8.961753-5.7997454-8.765152h3.5060608z"
     fill="#69696e"
     transform="scale(.98515075 1.0150731)"
     id="path21613"
     style="fill:#4b4b4f;fill-opacity:1" />
  <path
     d="m29.304877 15.999988h-9.292179v-1.585081l4.603378-5.0210037q.996607-1.1105056 1.414233-1.8508426.427118-.7498285.427118-1.4996571 0-.987116-.559999-1.594572-.550507-.6074561-1.490165-.6074561-1.119997 0-1.736945.6833881-.616947.683388-.616947 1.8698256h-2.306435q0-1.2623696.56949-2.2684687.578982-1.0155905 1.64203-1.575589 1.072539-.5599986 2.46779-.5599986 2.012198 0 3.170161 1.0155906 1.167455 1.006099 1.167455 2.7905011 0 1.0345736-.588473 2.1735536-.578982 1.1294886-1.907792 2.5721968l-3.378974 3.616262h6.416254z"
     fill="url(#a)"
     id="path21615"
     style="fill:url(#a)" />
</svg>
