<?xml version="1.0" encoding="UTF-8" standalone="no"?>
<svg
   xmlns:dc="http://purl.org/dc/elements/1.1/"
   xmlns:cc="http://creativecommons.org/ns#"
   xmlns:rdf="http://www.w3.org/1999/02/22-rdf-syntax-ns#"
   xmlns:svg="http://www.w3.org/2000/svg"
   xmlns="http://www.w3.org/2000/svg"
   xmlns:xlink="http://www.w3.org/1999/xlink"
   xmlns:sodipodi="http://sodipodi.sourceforge.net/DTD/sodipodi-0.dtd"
   xmlns:inkscape="http://www.inkscape.org/namespaces/inkscape"
   viewBox="0 0 32 32"
   version="1.1"
   id="svg4"
   sodipodi:docname="symbolshapes.cloud.svg"
   inkscape:version="0.92.3 (2405546, 2018-03-11)">
  <metadata
     id="metadata10">
    <rdf:RDF>
      <cc:Work
         rdf:about="">
        <dc:format>image/svg+xml</dc:format>
        <dc:type
           rdf:resource="http://purl.org/dc/dcmitype/StillImage" />
        <dc:title></dc:title>
      </cc:Work>
    </rdf:RDF>
  </metadata>
  <defs
     id="defs8">
    <linearGradient
       gradientTransform="translate(-49.423729,-11.864407)"
       id="a"
       gradientUnits="userSpaceOnUse"
       x1="12"
       x2="12"
       y1="21.5"
       y2="2.5">
      <stop
         offset="0"
         stop-color="#e5eefc"
         id="stop2" />
      <stop
         offset="1"
         stop-color="#fcfdff"
         id="stop4" />
    </linearGradient>
    <linearGradient
       inkscape:collect="always"
       xlink:href="#a"
       id="linearGradient835"
       x1="17.644068"
       y1="28.474577"
       x2="18.152542"
       y2="4.4745765"
       gradientUnits="userSpaceOnUse" />
  </defs>
  <sodipodi:namedview
     pagecolor="#ffffff"
     bordercolor="#666666"
     borderopacity="1"
     objecttolerance="10"
     gridtolerance="10"
     guidetolerance="10"
     inkscape:pageopacity="0"
     inkscape:pageshadow="2"
     inkscape:window-width="1366"
     inkscape:window-height="716"
     id="namedview6"
     showgrid="false"
     inkscape:zoom="7.375"
     inkscape:cx="-9.0169492"
     inkscape:cy="16"
     inkscape:window-x="-8"
     inkscape:window-y="-8"
     inkscape:window-maximized="1"
     inkscape:current-layer="svg4" />
  <path
     d="m15.999999 4.506979c-2.247794 0-4.133013 1.6788911-4.58728 3.899418-.731725-.382282-1.5675244-.6156976-2.4400436-.6156976-3.0186209 0-5.4656969 2.5728006-5.4656969 5.7465106 0 1.983568.9373575 3.738966 2.3912424 4.771656-1.4191389.846424-2.3912424 2.420623-2.3912424 4.258575 0 2.720323 2.0974936 4.92558 4.6848832 4.92558 1.2061802 0 2.2928693-.495441 3.1232563-1.282702.830383.78726 1.917078 1.282702 3.123255 1.282702 2.247787 0 4.133013-1.678898 4.58728-3.899418.731724.382284 1.567525.6157 2.440045.6157 3.01862 0 5.465695-2.572802 5.465695-5.746513 0-1.132485-.340459-2.188624-.878416-3.078487 1.449906-.837343 2.440044-2.44785 2.440044-4.309884 0-2.7203222-2.097492-4.9255798-4.684883-4.9255798-1.367892 0-2.608366.6075686-3.464862 1.5905521-.664598-1.870207-2.332657-3.2324122-4.343277-3.2324122z"
     fill="#fff"
     stroke="#808080"
     stroke-linecap="round"
     stroke-linejoin="round"
     stroke-width="1.013957"
     id="path2"
     style="fill-opacity:1;fill:url(#linearGradient835);stroke:#0a84ff;stroke-opacity:1" />
</svg>
