<?xml version="1.0" encoding="UTF-8" standalone="no"?>
<svg
   xmlns:dc="http://purl.org/dc/elements/1.1/"
   xmlns:cc="http://creativecommons.org/ns#"
   xmlns:rdf="http://www.w3.org/1999/02/22-rdf-syntax-ns#"
   xmlns:svg="http://www.w3.org/2000/svg"
   xmlns="http://www.w3.org/2000/svg"
   xmlns:xlink="http://www.w3.org/1999/xlink"
   xmlns:sodipodi="http://sodipodi.sourceforge.net/DTD/sodipodi-0.dtd"
   xmlns:inkscape="http://www.inkscape.org/namespaces/inkscape"
   viewBox="0 0 32 32"
   version="1.1"
   id="svg4"
   sodipodi:docname="symbolshapes.flower.svg"
   inkscape:version="0.92.3 (2405546, 2018-03-11)">
  <metadata
     id="metadata10">
    <rdf:RDF>
      <cc:Work
         rdf:about="">
        <dc:format>image/svg+xml</dc:format>
        <dc:type
           rdf:resource="http://purl.org/dc/dcmitype/StillImage" />
        <dc:title></dc:title>
      </cc:Work>
    </rdf:RDF>
  </metadata>
  <defs
     id="defs8">
    <linearGradient
       gradientTransform="translate(-22.576271,-10.644068)"
       id="a"
       gradientUnits="userSpaceOnUse"
       x1="12"
       x2="12"
       y1="21.5"
       y2="2.5">
      <stop
         offset="0"
         stop-color="#e5eefc"
         id="stop2" />
      <stop
         offset="1"
         stop-color="#fcfdff"
         id="stop4" />
    </linearGradient>
    <linearGradient
       inkscape:collect="always"
       xlink:href="#a"
       id="linearGradient835"
       x1="16.039528"
       y1="28.08074"
       x2="16"
       y2="3.5002248"
       gradientUnits="userSpaceOnUse" />
  </defs>
  <sodipodi:namedview
     pagecolor="#ffffff"
     bordercolor="#666666"
     borderopacity="1"
     objecttolerance="10"
     gridtolerance="10"
     guidetolerance="10"
     inkscape:pageopacity="0"
     inkscape:pageshadow="2"
     inkscape:window-width="1366"
     inkscape:window-height="716"
     id="namedview6"
     showgrid="false"
     inkscape:zoom="5.2149125"
     inkscape:cx="-2.3412088"
     inkscape:cy="32.133275"
     inkscape:window-x="-8"
     inkscape:window-y="-8"
     inkscape:window-maximized="1"
     inkscape:current-layer="svg4" />
  <path
     d="m16 3.5002248c-1.726303 0-3.662043 3.6620436-3.662043 3.6620436s-3.9557675-1.2199214-5.1756888 0c-1.2199213 1.2199213 0 5.1756886 0 5.1756886s-3.6620436 1.93574-3.6620436 3.662043 3.6620436 3.662043 3.6620436 3.662043-1.2199213 3.955767 0 5.175689 5.1756888 0 5.1756888 0 1.93574 3.662043 3.662043 3.662043 3.662043-3.662043 3.662043-3.662043 3.955767 1.219922 5.175689 0 0-5.175689 0-5.175689 3.662043-1.93574 3.662043-3.662043-3.662043-3.662043-3.662043-3.662043 1.219922-3.9557673 0-5.1756886c-1.219922-1.2199214-5.175689 0-5.175689 0s-1.93574-3.6620436-3.662043-3.6620436zm0 6.5788292c3.451719 0 5.920946 2.469229 5.920946 5.920946 0 3.451719-2.469227 5.920947-5.920946 5.920947s-5.920946-2.469228-5.920946-5.920947c0-3.451717 2.469227-5.920946 5.920946-5.920946z"
     fill="#fff"
     stroke="#808080"
     stroke-linecap="round"
     stroke-linejoin="round"
     stroke-width="1.000449"
     id="path2"
     style="fill-opacity:1;fill:url(#linearGradient835);stroke:#0a84ff;stroke-opacity:1" />
</svg>
