<?xml version="1.0" encoding="UTF-8" standalone="no"?>
<svg
   xmlns:dc="http://purl.org/dc/elements/1.1/"
   xmlns:cc="http://creativecommons.org/ns#"
   xmlns:rdf="http://www.w3.org/1999/02/22-rdf-syntax-ns#"
   xmlns:svg="http://www.w3.org/2000/svg"
   xmlns="http://www.w3.org/2000/svg"
   xmlns:xlink="http://www.w3.org/1999/xlink"
   xmlns:sodipodi="http://sodipodi.sourceforge.net/DTD/sodipodi-0.dtd"
   xmlns:inkscape="http://www.inkscape.org/namespaces/inkscape"
   viewBox="0 0 32 32"
   version="1.1"
   id="svg6"
   sodipodi:docname="symbolshapes.sun.svg"
   inkscape:version="0.92.3 (2405546, 2018-03-11)">
  <metadata
     id="metadata12">
    <rdf:RDF>
      <cc:Work
         rdf:about="">
        <dc:format>image/svg+xml</dc:format>
        <dc:type
           rdf:resource="http://purl.org/dc/dcmitype/StillImage" />
        <dc:title></dc:title>
      </cc:Work>
    </rdf:RDF>
  </metadata>
  <defs
     id="defs10">
    <linearGradient
       gradientTransform="translate(-20.542373,-10.372881)"
       id="a"
       gradientUnits="userSpaceOnUse"
       x1="12"
       x2="12"
       y1="21.5"
       y2="2.5">
      <stop
         offset="0"
         stop-color="#e5eefc"
         id="stop2" />
      <stop
         offset="1"
         stop-color="#fcfdff"
         id="stop4" />
    </linearGradient>
    <linearGradient
       inkscape:collect="always"
       xlink:href="#a"
       id="linearGradient840"
       x1="3"
       y1="16"
       x2="28.999998"
       y2="16"
       gradientUnits="userSpaceOnUse" />
    <linearGradient
       inkscape:collect="always"
       xlink:href="#a"
       id="linearGradient848"
       x1="12.847458"
       y1="20.20339"
       x2="16.033897"
       y2="10.033898"
       gradientUnits="userSpaceOnUse" />
  </defs>
  <sodipodi:namedview
     pagecolor="#ffffff"
     bordercolor="#666666"
     borderopacity="1"
     objecttolerance="10"
     gridtolerance="10"
     guidetolerance="10"
     inkscape:pageopacity="0"
     inkscape:pageshadow="2"
     inkscape:window-width="1366"
     inkscape:window-height="716"
     id="namedview8"
     showgrid="false"
     inkscape:zoom="7.375"
     inkscape:cx="-3.3220339"
     inkscape:cy="16"
     inkscape:window-x="-8"
     inkscape:window-y="-8"
     inkscape:window-maximized="1"
     inkscape:current-layer="svg6" />
  <path
     d="m16 3.5001635-2.109862 4.217153a8.5525199 8.5525199 0 0 1 2.109862-.2698361 8.5525199 8.5525199 0 0 1 2.112431.2749759zm-8.8377757 3.6620616 1.4828137 4.4895589a8.5525199 8.5525199 0 0 1 3.009315-3.0067452zm17.6755507 0-4.489558 1.4828137a8.5525199 8.5525199 0 0 1 3.006745 3.0093152zm-17.1153195 6.7253439-4.2222927 2.112431 4.2171529 2.109862a8.5525199 8.5525199 0 0 1 -.269836-2.109862 8.5525199 8.5525199 0 0 1  .2749758-2.112431zm16.5602285.002631a8.5525199 8.5525199 0 0 1  .269836 2.1098 8.5525199 8.5525199 0 0 1 -.274976 2.112432l4.222292-2.112432zm-15.637646 6.455508-1.4828137 4.49213 4.4895587-1.482814a8.5525199 8.5525199 0 0 1 -3.006745-3.009316zm14.709924.0026a8.5525199 8.5525199 0 0 1 -3.009316 3.006745l4.492129 1.482813zm-9.467394 3.929237 2.112432 4.222292 2.109862-4.217153a8.5525199 8.5525199 0 0 1 -2.109862.269836 8.5525199 8.5525199 0 0 1 -2.112432-.274975z"
     fill="#fff"
     stroke="#808080"
     stroke-linecap="round"
     stroke-linejoin="round"
     stroke-width="1.000449"
     id="path2"
     style="fill-opacity:1;fill:url(#linearGradient840);stroke:#0a84ff;stroke-opacity:1" />
  <path
     id="ellipse4"
     style="stroke:#0a84ff;stroke-opacity:1;fill-opacity:1;fill:url(#linearGradient848)"
     stroke-linejoin="round"
     stroke-linecap="square"
     stroke-width=".993628"
     stroke="#808080"
     fill="#fff"
     ry="5.503186"
     rx="5.503186"
     cy="16"
     cx="16" />
</svg>
