<?xml version="1.0" encoding="UTF-8" standalone="no"?>
<svg
   xmlns:dc="http://purl.org/dc/elements/1.1/"
   xmlns:cc="http://creativecommons.org/ns#"
   xmlns:rdf="http://www.w3.org/1999/02/22-rdf-syntax-ns#"
   xmlns:svg="http://www.w3.org/2000/svg"
   xmlns="http://www.w3.org/2000/svg"
   xmlns:sodipodi="http://sodipodi.sourceforge.net/DTD/sodipodi-0.dtd"
   xmlns:inkscape="http://www.inkscape.org/namespaces/inkscape"
   viewBox="0 0 32 32"
   version="1.1"
   id="svg6"
   sodipodi:docname="symbolshapes.brace-pair.svg"
   inkscape:version="0.92.3 (2405546, 2018-03-11)">
  <metadata
     id="metadata12">
    <rdf:RDF>
      <cc:Work
         rdf:about="">
        <dc:format>image/svg+xml</dc:format>
        <dc:type
           rdf:resource="http://purl.org/dc/dcmitype/StillImage" />
        <dc:title></dc:title>
      </cc:Work>
    </rdf:RDF>
  </metadata>
  <defs
     id="defs10">
    <pattern
       y="0"
       x="0"
       height="6"
       width="6"
       patternUnits="userSpaceOnUse"
       id="EMFhbasepattern" />
  </defs>
  <sodipodi:namedview
     pagecolor="#ffffff"
     bordercolor="#666666"
     borderopacity="1"
     objecttolerance="10"
     gridtolerance="10"
     guidetolerance="10"
     inkscape:pageopacity="0"
     inkscape:pageshadow="2"
     inkscape:window-width="1366"
     inkscape:window-height="716"
     id="namedview8"
     showgrid="false"
     inkscape:zoom="7.375"
     inkscape:cx="-3.8932813"
     inkscape:cy="17.344408"
     inkscape:window-x="-8"
     inkscape:window-y="-8"
     inkscape:window-maximized="1"
     inkscape:current-layer="svg6" />
  <path
     d="m18 2.999875v1.000125c1.1846 0 2 .3739035 2 2.406125v7.593875c0 .831.611749 1.639842 2 2-1.377564.302662-2 1.047561-2 2v7.593875c0 1.948327-.8155 2.406125-2 2.406125v1.000125c1.77683 0 2.989137-.696633 3-2.5l.04687-7.781375c.010484-1.739491 1.452598-1.71875 2.95313-1.71875v-2c-1.128954 0-2.942935.0024-2.953125-1.694386l-.046875-7.805739c-.01083-1.8033675-1.22317-2.5-3-2.5z"
     fill="#4d82b8"
     id="path2"
     style="fill:#0a84ff;fill-opacity:1" />
  <path
     d="m14 2.999875v1.000125c-1.1846 0-2 .3739035-2 2.406125v7.593875c0 .831-.611749 1.639842-2 2 1.377564.302662 2 1.047561 2 2v7.593875c0 1.948327.8155 2.406125 2 2.406125v1.000125c-1.77683 0-2.989137-.696633-3-2.5l-.04687-7.781375c-.010484-1.739491-1.452598-1.71875-2.95313-1.71875v-2c1.128954 0 2.942935.0024 2.953125-1.694386l.046875-7.805739c.01083-1.8033675 1.22317-2.5 3-2.5z"
     fill="#4d82b8"
     id="path4"
     style="fill:#0a84ff;fill-opacity:1" />
</svg>
