<?xml version="1.0" encoding="UTF-8" standalone="no"?>
<svg
   xmlns:dc="http://purl.org/dc/elements/1.1/"
   xmlns:cc="http://creativecommons.org/ns#"
   xmlns:rdf="http://www.w3.org/1999/02/22-rdf-syntax-ns#"
   xmlns:svg="http://www.w3.org/2000/svg"
   xmlns="http://www.w3.org/2000/svg"
   xmlns:xlink="http://www.w3.org/1999/xlink"
   xmlns:sodipodi="http://sodipodi.sourceforge.net/DTD/sodipodi-0.dtd"
   xmlns:inkscape="http://www.inkscape.org/namespaces/inkscape"
   viewBox="0 0 32 32"
   version="1.1"
   id="svg4"
   sodipodi:docname="symbolshapes.heart.svg"
   inkscape:version="0.92.3 (2405546, 2018-03-11)">
  <metadata
     id="metadata10">
    <rdf:RDF>
      <cc:Work
         rdf:about="">
        <dc:format>image/svg+xml</dc:format>
        <dc:type
           rdf:resource="http://purl.org/dc/dcmitype/StillImage" />
        <dc:title></dc:title>
      </cc:Work>
    </rdf:RDF>
  </metadata>
  <defs
     id="defs8">
    <linearGradient
       gradientTransform="translate(-64.338983,-11.050847)"
       id="a"
       gradientUnits="userSpaceOnUse"
       x1="12"
       x2="12"
       y1="21.5"
       y2="2.5">
      <stop
         offset="0"
         stop-color="#e5eefc"
         id="stop2" />
      <stop
         offset="1"
         stop-color="#fcfdff"
         id="stop4" />
    </linearGradient>
    <linearGradient
       inkscape:collect="always"
       xlink:href="#a"
       id="linearGradient835"
       x1="15.951178"
       y1="28.402166"
       x2="16.152225"
       y2="3.7275026"
       gradientUnits="userSpaceOnUse" />
  </defs>
  <sodipodi:namedview
     pagecolor="#ffffff"
     bordercolor="#666666"
     borderopacity="1"
     objecttolerance="10"
     gridtolerance="10"
     guidetolerance="10"
     inkscape:pageopacity="0"
     inkscape:pageshadow="2"
     inkscape:window-width="1366"
     inkscape:window-height="716"
     id="namedview6"
     showgrid="false"
     inkscape:zoom="5.2149125"
     inkscape:cx="-47.502018"
     inkscape:cy="34.426884"
     inkscape:window-x="-8"
     inkscape:window-y="-8"
     inkscape:window-maximized="1"
     inkscape:current-layer="svg4" />
  <path
     d="m10.531352 3.5002652c-3.8831833 0-7.0311253 3.1479131-7.0311253 7.0311258 0 .828735.089793 1.674345.4394453 2.343708 3.5646224 6.653367 7.871999 7.260228 12.011506 15.527068v.04882c.01039.02071.03848.02802.04882.04882.01708-.03438.03175-.06355.04882-.09766 4.13951-8.26683 8.446886-8.873691 12.01151-15.527058.34965-.669363.439445-1.514973.439445-2.343708 0-3.8832127-3.147941-7.0311258-7.031126-7.0311258-2.19808 0-4.130998 1.0082061-5.419825 2.5878448-.01413.017326-.03484.031364-.04882.048827-.01398-.017463-.0347-.031502-.04882-.048827-1.288831-1.5796387-3.221747-2.5878448-5.41983-2.5878448z"
     fill="#fff"
     stroke="#808080"
     stroke-linecap="round"
     stroke-linejoin="round"
     stroke-width="1.000449"
     id="path2"
     style="fill-opacity:1;fill:url(#linearGradient835);stroke:#0a84ff;stroke-opacity:1" />
</svg>
