<?xml version="1.0" encoding="UTF-8" standalone="no"?>
<svg
   xmlns:dc="http://purl.org/dc/elements/1.1/"
   xmlns:cc="http://creativecommons.org/ns#"
   xmlns:rdf="http://www.w3.org/1999/02/22-rdf-syntax-ns#"
   xmlns:svg="http://www.w3.org/2000/svg"
   xmlns="http://www.w3.org/2000/svg"
   xmlns:xlink="http://www.w3.org/1999/xlink"
   xmlns:sodipodi="http://sodipodi.sourceforge.net/DTD/sodipodi-0.dtd"
   xmlns:inkscape="http://www.inkscape.org/namespaces/inkscape"
   viewBox="0 0 32 32"
   version="1.1"
   id="svg12"
   sodipodi:docname="symbolshapes.svg"
   inkscape:version="0.92.3 (2405546, 2018-03-11)">
  <metadata
     id="metadata18">
    <rdf:RDF>
      <cc:Work
         rdf:about="">
        <dc:format>image/svg+xml</dc:format>
        <dc:type
           rdf:resource="http://purl.org/dc/dcmitype/StillImage" />
        <dc:title></dc:title>
      </cc:Work>
    </rdf:RDF>
  </metadata>
  <defs
     id="defs16">
    <linearGradient
       gradientTransform="translate(-35.457627,-14.711864)"
       id="a"
       gradientUnits="userSpaceOnUse"
       x1="12"
       x2="12"
       y1="21.5"
       y2="2.5">
      <stop
         offset="0"
         stop-color="#e5eefc"
         id="stop2" />
      <stop
         offset="1"
         stop-color="#fcfdff"
         id="stop4" />
    </linearGradient>
    <linearGradient
       inkscape:collect="always"
       xlink:href="#a"
       id="linearGradient846"
       x1="14.118644"
       y1="24.40678"
       x2="17.338982"
       y2="6.5084743"
       gradientUnits="userSpaceOnUse" />
  </defs>
  <sodipodi:namedview
     pagecolor="#ffffff"
     bordercolor="#666666"
     borderopacity="1"
     objecttolerance="10"
     gridtolerance="10"
     guidetolerance="10"
     inkscape:pageopacity="0"
     inkscape:pageshadow="2"
     inkscape:window-width="1366"
     inkscape:window-height="716"
     id="namedview14"
     showgrid="false"
     inkscape:zoom="3.6875"
     inkscape:cx="21.432798"
     inkscape:cy="-4.9028694"
     inkscape:window-x="-8"
     inkscape:window-y="-8"
     inkscape:window-maximized="1"
     inkscape:current-layer="svg12" />
  <path
     d="m16 3.5002252c-6.9034354 0-12.4997754 5.59634-12.4997754 12.4997748 0 6.903435 5.59634 12.499775 12.4997754 12.499775 6.903435 0 12.499775-5.59634 12.499775-12.499775 0-6.9034348-5.59634-12.4997748-12.499775-12.4997748z"
     fill="#fff"
     stroke="#808080"
     stroke-linecap="round"
     stroke-linejoin="round"
     stroke-width="1.000449"
     id="path2"
     style="fill-opacity:1;fill:url(#linearGradient846);stroke:#0a84ff;stroke-opacity:1" />
  <g
     fill="#808080"
     id="g10">
    <path
       d="m8 18a8 6 0 0 0 8 6 8 6 0 0 0 8-6h-1a7 5 0 0 1 -7 5 7 5 0 0 1 -7-5z"
       id="path4"
       style="fill:#0a84ff;fill-opacity:1" />
    <path
       d="m12 9a2 2 0 0 0 -2 2 2 2 0 0 0 2 2 2 2 0 0 0 2-2 2 2 0 0 0 -2-2zm0 1a1 1 0 0 1 1 1 1 1 0 0 1 -1 1 1 1 0 0 1 -1-1 1 1 0 0 1 1-1z"
       id="path6"
       style="fill:#0a84ff;fill-opacity:1" />
    <path
       d="m20 9a2 2 0 0 0 -2 2 2 2 0 0 0 2 2 2 2 0 0 0 2-2 2 2 0 0 0 -2-2zm0 1a1 1 0 0 1 1 1 1 1 0 0 1 -1 1 1 1 0 0 1 -1-1 1 1 0 0 1 1-1z"
       id="path8"
       style="fill:#0a84ff;fill-opacity:1" />
  </g>
</svg>
