<svg viewBox="0 0 32 32" xmlns="http://www.w3.org/2000/svg" xmlns:xlink="http://www.w3.org/1999/xlink"><linearGradient id="a" gradientUnits="userSpaceOnUse" x1="17.864407" x2="17.576271" y1="4.754237" y2="2.008475"><stop offset="0" stop-color="#0040dd"/><stop offset="1" stop-color="#0a84ff"/></linearGradient><g transform="matrix(0 1 -1 0 32 0)"><path d="m4.5 28.5v-25h23v25z" fill="#fff" fill-rule="evenodd" stroke="#69696e" stroke-linecap="round" stroke-linejoin="round"/><path d="m21.000001 11.999998v1.272728c0 .264294-.05623.504123-.168675.662698-.119483.158577-.267067.275622-.442771.351133l-3.388555 1.531624v6.363637l3.378013 1.58988c.15462.06042.298696.177456.432229.351132.126506.166128.189759.373786.189759.622978v1.254191l-14-5.499999v-3zm-6.000001 9.500002v-5l-6 2.5z" fill="#828282"/><g fill="#98989d"><rect height="8" opacity=".99" ry=".5" width="1" x="8" y="6"/><rect height="6" opacity=".99" ry=".5" width="1" x="12" y="6"/><rect height="4" opacity=".99" ry=".5" width="1" x="16" y="6"/><rect height="20" opacity=".99" ry=".472666" width="1" x="23" y="6"/><rect height="2" opacity=".99" ry=".472666" width="1" x="19" y="6"/></g></g><circle cx="28.5" cy="4.5" fill="url(#a)" r="1.5"/></svg>