<svg viewBox="0 0 32 32" xmlns="http://www.w3.org/2000/svg"><g transform="matrix(0 1 -1 0 32 0)"><path d="m4.5 28.5v-25h23v25z" fill="#fff" fill-rule="evenodd" stroke="#69696e" stroke-linecap="round" stroke-linejoin="round"/><path d="m-7.7968731 14.359377h-11.1328129l-2.265625 6.640625h-4.804687l10.449219-28.4375001h4.492187l10.33203141 28.4375001h-4.82421871zm-9.7656249-3.964844h8.4179687l-4.1210937-12.1484373h-.117188z" fill="#828282" transform="matrix(0 -.55318265 .49230776 0 10.661538 11.617251)"/><g fill="#98989d"><rect height="8" opacity=".99" ry=".5" width="1" x="8" y="6"/><rect height="6" opacity=".99" ry=".5" width="1" x="12" y="6"/><rect height="4" opacity=".99" ry=".5" width="1" x="16" y="6"/><rect height="20" opacity=".99" ry=".472666" width="1" x="23" y="6"/><rect height="2" opacity=".99" ry=".472666" width="1" x="19" y="6"/></g></g></svg>