<?xml version="1.0" encoding="UTF-8" standalone="no"?>
<svg
   xmlns:dc="http://purl.org/dc/elements/1.1/"
   xmlns:cc="http://creativecommons.org/ns#"
   xmlns:rdf="http://www.w3.org/1999/02/22-rdf-syntax-ns#"
   xmlns:svg="http://www.w3.org/2000/svg"
   xmlns="http://www.w3.org/2000/svg"
   xmlns:xlink="http://www.w3.org/1999/xlink"
   xmlns:sodipodi="http://sodipodi.sourceforge.net/DTD/sodipodi-0.dtd"
   xmlns:inkscape="http://www.inkscape.org/namespaces/inkscape"
   viewBox="0 0 32 32"
   version="1.1"
   id="svg10"
   sodipodi:docname="thesaurus.svg"
   inkscape:export-filename="/home/rizmut/Dokumen/Rizmut/Github/libreoffice-style-sukapura/images_sukapura/cmd/32/thesaurus.png"
   inkscape:export-xdpi="96"
   inkscape:export-ydpi="96"
   width="32"
   height="32"
   inkscape:version="0.92.3 (unknown)">
  <metadata
     id="metadata16">
    <rdf:RDF>
      <cc:Work
         rdf:about="">
        <dc:format>image/svg+xml</dc:format>
        <dc:type
           rdf:resource="http://purl.org/dc/dcmitype/StillImage" />
        <dc:title></dc:title>
      </cc:Work>
    </rdf:RDF>
  </metadata>
  <defs
     id="defs14">
    <linearGradient
       gradientTransform="translate(-26.983051,-6.9830508)"
       id="a"
       gradientUnits="userSpaceOnUse"
       x1="14"
       x2="13.79661"
       y1="22"
       y2="2.1355929">
      <stop
         offset="0"
         stop-color="#0040dd"
         id="stop2" />
      <stop
         offset="1"
         stop-color="#0a84ff"
         id="stop4" />
    </linearGradient>
    <linearGradient
       inkscape:collect="always"
       xlink:href="#a"
       id="linearGradient880"
       x1="7"
       y1="16"
       x2="7"
       y2="1"
       gradientUnits="userSpaceOnUse"
       gradientTransform="matrix(1.875,0,0,1.7333333,1,2.2666665)" />
  </defs>
  <sodipodi:namedview
     pagecolor="#ffffff"
     bordercolor="#666666"
     borderopacity="1"
     objecttolerance="10"
     gridtolerance="10"
     guidetolerance="10"
     inkscape:pageopacity="0"
     inkscape:pageshadow="2"
     inkscape:window-width="1366"
     inkscape:window-height="706"
     id="namedview12"
     showgrid="true"
     inkscape:zoom="5.2149125"
     inkscape:cx="1.0354882"
     inkscape:cy="0.56755216"
     inkscape:window-x="0"
     inkscape:window-y="0"
     inkscape:window-maximized="1"
     inkscape:current-layer="g1035"
     inkscape:snap-global="true">
    <inkscape:grid
       type="xygrid"
       id="grid823" />
  </sodipodi:namedview>
  <g
     id="g1035">
    <rect
       y="4"
       x="1"
       height="26"
       width="30"
       id="rect872"
       style="fill:url(#linearGradient880);fill-opacity:1;stroke:none;stroke-width:1.80277574;stroke-opacity:1" />
    <path
       id="path2-6"
       d="M 3,2 V 27 H 29 V 2 C 24.51366,2.4203966 19.786931,2.1396615 16,4.6 12.445696,2.626291 7.7068397,2.3358945 3,2 Z"
       style="fill:#69696e;fill-opacity:1"
       inkscape:connector-curvature="0"
       sodipodi:nodetypes="cccccc" />
    <path
       id="path4"
       d="M 4.3,25.7 C 8.4946464,25.61261 12.289141,25.079978 16,27 19.500067,24.816783 23.728274,25.7 27.7,25.7 V 3.3 C 21.2,3.3 17.3,4.6 16,5.9 14.7,4.6 10.8,3.3 4.3,3.3 Z"
       style="fill:#ffffff;fill-rule:evenodd"
       inkscape:connector-curvature="0"
       sodipodi:nodetypes="ccccccc" />
    <g
       transform="translate(0,-2)"
       id="g990">
      <path
         style="fill:#ff4035;fill-opacity:1;stroke:none;stroke-width:1px;stroke-linecap:butt;stroke-linejoin:miter;stroke-opacity:1"
         d="m 17,9 v 1 C 19.405167,8.3419446 22.900468,8.5007795 26,8 V 7 c -3.271862,0.5260486 -7.418469,0.5996424 -9,2 z"
         id="path961"
         inkscape:connector-curvature="0"
         sodipodi:nodetypes="ccccc" />
      <path
         style="fill:#af52de;fill-opacity:1;stroke:none;stroke-width:1px;stroke-linecap:butt;stroke-linejoin:miter;stroke-opacity:1"
         d="m 17,13 v 1 c 2.405167,-1.658055 5.900468,-1.49922 9,-2 v -1 c -3.271862,0.526049 -7.418469,0.599642 -9,2 z"
         id="path965"
         inkscape:connector-curvature="0"
         sodipodi:nodetypes="ccccc" />
      <path
         style="fill:#98989d;fill-opacity:1;stroke:none;stroke-width:1px;stroke-linecap:butt;stroke-linejoin:miter;stroke-opacity:1"
         d="m 17,17 v 1 c 2.405167,-1.658055 5.917417,-1.261932 9.016949,-1.762712 v -1 C 22.745087,15.763337 18.581531,15.599642 17,17 Z"
         id="path969"
         inkscape:connector-curvature="0"
         sodipodi:nodetypes="ccccc" />
      <path
         style="fill:#98989d;fill-opacity:1;stroke:none;stroke-width:1px;stroke-linecap:butt;stroke-linejoin:miter;stroke-opacity:1"
         d="m 17,21 v 1 c 2.405167,-1.658055 5.900468,-1.126339 9,-1.627119 v -1 C 22.728138,19.89893 18.581531,19.599642 17,21 Z"
         id="path973"
         inkscape:connector-curvature="0"
         sodipodi:nodetypes="ccccc" />
      <path
         style="fill:#98989d;fill-opacity:1;stroke:none;stroke-width:1px;stroke-linecap:butt;stroke-linejoin:miter;stroke-opacity:1"
         d="m 17,25 v 1 c 2.405167,-1.658055 5.934366,-0.889051 9.033898,-1.389831 v -1 C 22.762036,24.136218 18.581531,23.599642 17,25 Z"
         id="path977"
         inkscape:connector-curvature="0"
         sodipodi:nodetypes="ccccc" />
    </g>
    <g
       transform="matrix(-1,0,0,1,32.033898,-2)"
       id="g1010">
      <path
         sodipodi:nodetypes="ccccc"
         inkscape:connector-curvature="0"
         id="path992"
         d="m 17,9 v 1 C 19.405167,8.3419446 22.900468,8.5007795 26,8 V 7 c -3.271862,0.5260486 -7.418469,0.5996424 -9,2 z"
         style="fill:#98989d;fill-opacity:1;stroke:none;stroke-width:1px;stroke-linecap:butt;stroke-linejoin:miter;stroke-opacity:1" />
      <path
         sodipodi:nodetypes="ccccc"
         inkscape:connector-curvature="0"
         id="path996"
         d="m 17,13 v 1 c 2.405167,-1.658055 5.900468,-1.49922 9,-2 v -1 c -3.271862,0.526049 -7.418469,0.599642 -9,2 z"
         style="fill:#98989d;fill-opacity:1;stroke:none;stroke-width:1px;stroke-linecap:butt;stroke-linejoin:miter;stroke-opacity:1" />
      <path
         sodipodi:nodetypes="ccccc"
         inkscape:connector-curvature="0"
         id="path1000"
         d="m 17,17 v 1 c 2.405167,-1.658055 5.917417,-1.261932 9.016949,-1.762712 v -1 C 22.745087,15.763337 18.581531,15.599642 17,17 Z"
         style="fill:#98989d;fill-opacity:1;stroke:none;stroke-width:1px;stroke-linecap:butt;stroke-linejoin:miter;stroke-opacity:1" />
      <path
         sodipodi:nodetypes="ccccc"
         inkscape:connector-curvature="0"
         id="path1004"
         d="m 17,21 v 1 c 2.405167,-1.658055 5.900468,-1.126339 9,-1.627119 v -1 C 22.728138,19.89893 18.581531,19.599642 17,21 Z"
         style="fill:#98989d;fill-opacity:1;stroke:none;stroke-width:1px;stroke-linecap:butt;stroke-linejoin:miter;stroke-opacity:1" />
      <path
         sodipodi:nodetypes="ccccc"
         inkscape:connector-curvature="0"
         id="path1008"
         d="m 17,25 v 1 c 2.405167,-1.658055 5.934366,-0.889051 9.033898,-1.389831 v -1 C 22.762036,24.136218 18.581531,23.599642 17,25 Z"
         style="fill:#98989d;fill-opacity:1;stroke:none;stroke-width:1px;stroke-linecap:butt;stroke-linejoin:miter;stroke-opacity:1" />
    </g>
  </g>
</svg>
