<?xml version="1.0" encoding="UTF-8" standalone="no"?>
<svg
   xmlns:dc="http://purl.org/dc/elements/1.1/"
   xmlns:cc="http://creativecommons.org/ns#"
   xmlns:rdf="http://www.w3.org/1999/02/22-rdf-syntax-ns#"
   xmlns:svg="http://www.w3.org/2000/svg"
   xmlns="http://www.w3.org/2000/svg"
   xmlns:xlink="http://www.w3.org/1999/xlink"
   xmlns:sodipodi="http://sodipodi.sourceforge.net/DTD/sodipodi-0.dtd"
   xmlns:inkscape="http://www.inkscape.org/namespaces/inkscape"
   viewBox="0 0 32 32"
   version="1.1"
   id="svg22"
   sodipodi:docname="toggleobjectrotatemode.svg"
   inkscape:version="0.92.3 (unknown)"
   inkscape:export-filename="/home/rizmut/Dokumen/Rizmut/Github/libreoffice-style-sukapura/images_sukapura/cmd/32/toggleobjectrotatemode.png"
   inkscape:export-xdpi="96"
   inkscape:export-ydpi="96"
   width="32"
   height="32">
  <metadata
     id="metadata28">
    <rdf:RDF>
      <cc:Work
         rdf:about="">
        <dc:format>image/svg+xml</dc:format>
        <dc:type
           rdf:resource="http://purl.org/dc/dcmitype/StillImage" />
        <dc:title></dc:title>
      </cc:Work>
    </rdf:RDF>
  </metadata>
  <defs
     id="defs26">
    <linearGradient
       gradientTransform="translate(36.035322,-5.662838)"
       id="a"
       gradientUnits="userSpaceOnUse"
       x1="7"
       x2="7"
       y1="20"
       y2="3">
      <stop
         offset="0"
         stop-color="#f5f5f5"
         id="stop1005" />
      <stop
         offset="0.25"
         stop-color="#fdfdfd"
         id="stop1007" />
      <stop
         offset="1"
         stop-color="#fff"
         id="stop1009" />
    </linearGradient>
    <linearGradient
       gradientTransform="translate(75,-7)"
       id="a-367"
       gradientUnits="userSpaceOnUse"
       x1="14"
       x2="13.79661"
       y1="22"
       y2="2.1355929">
      <stop
         offset="0"
         stop-color="#0040dd"
         id="stop2206" />
      <stop
         offset="1"
         stop-color="#0a84ff"
         id="stop2208" />
    </linearGradient>
    <linearGradient
       inkscape:collect="always"
       xlink:href="#a"
       id="linearGradient3123"
       x1="11"
       y1="27"
       x2="11"
       y2="5"
       gradientUnits="userSpaceOnUse" />
    <linearGradient
       inkscape:collect="always"
       xlink:href="#a-367"
       id="linearGradient3131"
       x1="5"
       y1="29"
       x2="5"
       y2="25"
       gradientUnits="userSpaceOnUse" />
    <linearGradient
       inkscape:collect="always"
       xlink:href="#a-367"
       id="linearGradient3133"
       x1="5"
       y1="7"
       x2="5"
       y2="3"
       gradientUnits="userSpaceOnUse" />
    <linearGradient
       inkscape:collect="always"
       xlink:href="#a-367"
       id="linearGradient3135"
       x1="27"
       y1="7"
       x2="27"
       y2="3"
       gradientUnits="userSpaceOnUse" />
    <linearGradient
       inkscape:collect="always"
       xlink:href="#a-367"
       id="linearGradient3143"
       x1="25"
       y1="30"
       x2="25"
       y2="18"
       gradientUnits="userSpaceOnUse" />
  </defs>
  <sodipodi:namedview
     pagecolor="#ffffff"
     bordercolor="#666666"
     borderopacity="1"
     objecttolerance="10"
     gridtolerance="10"
     guidetolerance="10"
     inkscape:pageopacity="0"
     inkscape:pageshadow="2"
     inkscape:window-width="1366"
     inkscape:window-height="706"
     id="namedview24"
     showgrid="true"
     inkscape:zoom="5.6568543"
     inkscape:cx="24.506902"
     inkscape:cy="3.2228197"
     inkscape:window-x="0"
     inkscape:window-y="0"
     inkscape:window-maximized="1"
     inkscape:current-layer="svg22">
    <inkscape:grid
       type="xygrid"
       id="grid1602" />
  </sodipodi:namedview>
  <path
     inkscape:connector-curvature="0"
     style="fill:#69696e;fill-opacity:1"
     d="M 5,4 C 4.446,4 4,4.446 4,5 v 22 c 0,0.554 0.446,1 1,1 h 14.859375 c -0.207293,-0.353821 -0.369825,-0.735325 -0.505859,-1.128906 0.0144,0.04187 0.01995,0.08742 0.03516,0.128906 H 5 V 5 h 22 v 14.193359 c 0,0 0.357571,0.145731 1,0.46875 V 5 C 28,4.446 27.554,4 27,4 Z"
     id="path2-5" />
  <path
     inkscape:connector-curvature="0"
     style="fill:url(#linearGradient3123);fill-opacity:1"
     d="m 5,5 v 22 h 14.388672 c -0.234424,-0.63944 -0.373281,-1.324628 -0.384766,-2.041016 v -0.002 C 19.002206,24.922919 19,24.886759 19,24.855469 v -0.002 C 19.001889,23.857713 19.815308,23.002625 20.828125,23 h 0.002 c 1.016039,-0.0022 1.836002,0.854577 1.837891,1.853516 v 0.002 c 0,0.950796 0.51086,1.743229 1.25,2.144531 h 2.164062 C 26.464146,26.792538 26.780239,26.482596 27,26.095703 v -2.34375 c -0.243114,-0.377845 -0.592944,-0.679844 -1,-0.898437 v 0.291015 c -4.69e-4,0.830346 -0.954108,1.298496 -1.611328,0.791016 l -3.332031,-2.574219 c -0.517521,-0.400374 -0.517521,-1.181657 0,-1.582031 l 3.332031,-2.570313 C 24.569514,17.06902 24.792858,16.9953 25.021484,17 25.565338,17.01174 26.000072,17.456019 26,18 v 0.923828 c 0.34373,0.06189 0.678089,0.153277 1,0.269531 V 5 Z"
     id="path4" />
  <path
     style="fill:#ffffff;fill-opacity:0.78431374;stroke:none;stroke-opacity:1"
     d="M 25.021484 17 C 24.792858 16.9953 24.569514 17.06902 24.388672 17.208984 L 21.056641 19.779297 C 20.53912 20.179671 20.53912 20.960954 21.056641 21.361328 L 24.388672 23.935547 C 25.045892 24.443027 25.999531 23.974877 26 23.144531 L 26 22.853516 C 26.407056 23.072109 26.756886 23.374108 27 23.751953 L 27 26.095703 C 26.780239 26.482596 26.464099 26.792491 26.082031 27 L 23.917969 27 C 23.178829 26.598698 22.667969 25.806265 22.667969 24.855469 L 22.667969 24.853516 C 22.66608 23.854577 21.846117 22.9978 20.830078 23 L 20.828125 23 C 19.815308 23.002625 19.001889 23.85776 19 24.853516 L 19 24.855469 C 19 24.886759 19.002206 24.922966 19.003906 24.957031 L 19.003906 24.958984 C 19.014646 25.628893 19.146022 26.267647 19.353516 26.871094 C 19.48955 27.264675 19.652082 27.646179 19.859375 28 L 28 28 L 28 19.662109 C 27.357571 19.33909 27 19.193359 27 19.193359 C 26.678089 19.077105 26.34373 18.985718 26 18.923828 L 26 18 C 26.000072 17.456019 25.565338 17.01174 25.021484 17 z "
     id="rect3150" />
  <g
     style="fill:#4d82b8"
     id="g14">
    <path
       inkscape:connector-curvature="0"
       d="m 25.000047,18.000002 v 1.714844 C 27.762021,19.714846 30,22.015469 30,24.855469 30,27.695468 27.762021,30 25.000047,30 22.266072,30 20.048,27.741406 20.004,24.941407 20.0012,24.912847 20,24.884167 20,24.855467 c 8.96e-4,-0.47224 0.372945,-0.854772 0.832024,-0.855468 0.460603,-0.0015 0.835032,0.38166 0.835928,0.855468 0,1.894 1.492018,3.429687 3.332001,3.429687 1.839983,0 3.332,-1.535687 3.332,-3.429687 0,-1.894 -1.492017,-3.42578 -3.332,-3.42578 v 1.714844 L 21.667952,20.570312 24.999953,18 Z"
       id="path6"
       style="fill-opacity:1;fill:url(#linearGradient3143)" />
    <path
       inkscape:connector-curvature="0"
       d="m 4,25 c -0.554,0 -1,0.446 -1,1 v 2 c 0,0.554 0.446,1 1,1 h 2 c 0.554,0 1,-0.446 1,-1 V 26 C 7,25.446 6.554,25 6,25 Z m 0,1 h 2 v 2 H 4 Z"
       id="path8-6"
       style="fill-opacity:1;fill:url(#linearGradient3131)" />
    <path
       inkscape:connector-curvature="0"
       d="M 4,3 C 3.446,3 3,3.446 3,4 V 6 C 3,6.554 3.446,7 4,7 H 6 C 6.554,7 7,6.554 7,6 V 4 C 7,3.446 6.554,3 6,3 Z M 4,4 H 6 V 6 H 4 Z"
       id="path10-2"
       style="fill-opacity:1;fill:url(#linearGradient3133)" />
    <path
       inkscape:connector-curvature="0"
       d="m 26,3 c -0.554,0 -1,0.446 -1,1 v 2 c 0,0.554 0.446,1 1,1 h 2 c 0.554,0 1,-0.446 1,-1 V 4 C 29,3.446 28.554,3 28,3 Z m 0,1 h 2 v 2 h -2 z"
       id="path12"
       style="fill-opacity:1;fill:url(#linearGradient3135)" />
  </g>
  <path
     inkscape:connector-curvature="0"
     style="fill:#ffffff"
     d="M 4,4 H 6 V 6 H 4 Z"
     id="path16" />
  <path
     inkscape:connector-curvature="0"
     style="fill:#ffffff"
     d="m 26,4 h 2 v 2 h -2 z"
     id="path18" />
  <path
     inkscape:connector-curvature="0"
     style="fill:#ffffff"
     d="m 4,26 h 2 v 2 H 4 Z"
     id="path20" />
</svg>
