<?xml version="1.0" encoding="UTF-8" standalone="no"?>
<svg
   xmlns:dc="http://purl.org/dc/elements/1.1/"
   xmlns:cc="http://creativecommons.org/ns#"
   xmlns:rdf="http://www.w3.org/1999/02/22-rdf-syntax-ns#"
   xmlns:svg="http://www.w3.org/2000/svg"
   xmlns="http://www.w3.org/2000/svg"
   xmlns:xlink="http://www.w3.org/1999/xlink"
   xmlns:sodipodi="http://sodipodi.sourceforge.net/DTD/sodipodi-0.dtd"
   xmlns:inkscape="http://www.inkscape.org/namespaces/inkscape"
   viewBox="0 0 32 32"
   version="1.1"
   id="svg4"
   sodipodi:docname="toggleanchortype.svg"
   inkscape:version="0.92.3 (unknown)">
  <metadata
     id="metadata10">
    <rdf:RDF>
      <cc:Work
         rdf:about="">
        <dc:format>image/svg+xml</dc:format>
        <dc:type
           rdf:resource="http://purl.org/dc/dcmitype/StillImage" />
        <dc:title></dc:title>
      </cc:Work>
    </rdf:RDF>
  </metadata>
  <defs
     id="defs8">
    <linearGradient
       gradientTransform="translate(75,-7)"
       id="a-367"
       gradientUnits="userSpaceOnUse"
       x1="14"
       x2="13.79661"
       y1="22"
       y2="2.1355929">
      <stop
         offset="0"
         stop-color="#0040dd"
         id="stop2206" />
      <stop
         offset="1"
         stop-color="#0a84ff"
         id="stop2208" />
    </linearGradient>
    <linearGradient
       inkscape:collect="always"
       xlink:href="#a-367"
       id="linearGradient837"
       x1="16"
       y1="29"
       x2="16"
       y2="3"
       gradientUnits="userSpaceOnUse" />
  </defs>
  <sodipodi:namedview
     pagecolor="#ffffff"
     bordercolor="#666666"
     borderopacity="1"
     objecttolerance="10"
     gridtolerance="10"
     guidetolerance="10"
     inkscape:pageopacity="0"
     inkscape:pageshadow="2"
     inkscape:window-width="1366"
     inkscape:window-height="706"
     id="namedview6"
     showgrid="false"
     inkscape:zoom="7.375"
     inkscape:cx="-2.9830508"
     inkscape:cy="16"
     inkscape:window-x="0"
     inkscape:window-y="0"
     inkscape:window-maximized="1"
     inkscape:current-layer="svg4" />
  <path
     d="m16 3c-1.656854 0-3 1.3431458-3 3 .000955 1.2705212.802141 2.4026652 2 2.826172v3.173828h-4c-.554 0-1 .446-1 1s .446 1 1 1h4v12.929688c-1.366223.344142-6.1559144-1.734505-7.538086-3.164266l1.0625001-.744141c.851-.576362.4777859-2.02853-.519531-2.021484-.1888001.0016-.3732141.06325-.5312501.177734l-3.998047 2.792969c-1.1103059.776334-.059525 2.622037 1.0507812 1.845703l1.2773437-.892578c1.7874928 1.949387 5.3430871 4.074261 10.1962891 4.076375 2.993606.46181 8.715149-2.439898 10.198242-5.076172l1.275391.892578c1.110306.776333 2.161087-1.06937 1.050781-1.845703l-3.998047-2.792969c-.158036-.114486-.34245-.176184-.53125-.177734-.997317-.007-1.370531 1.445122-.519531 2.021484l1.068359.748047c-1.22102 1.193441-4.519409 4.04082-7.543945 4.16211v-12.931641h4c .554 0 1-.446 1-1s-.446-1-1-1h-4v-3.175781c1.197185-.4232673 1.998218-1.5544147 2-2.824219 0-1.6568542-1.343146-3-3-3zm0 2c .552285 0 1 .4477153 1 1s-.447715 1-1 1-1-.4477153-1-1 .447715-1 1-1z"
     fill="#4d82b8"
     id="path2"
     style="fill-opacity:1;fill:url(#linearGradient837)" />
</svg>
