<?xml version="1.0" encoding="UTF-8" standalone="no"?>
<svg
   xmlns:dc="http://purl.org/dc/elements/1.1/"
   xmlns:cc="http://creativecommons.org/ns#"
   xmlns:rdf="http://www.w3.org/1999/02/22-rdf-syntax-ns#"
   xmlns:svg="http://www.w3.org/2000/svg"
   xmlns="http://www.w3.org/2000/svg"
   xmlns:sodipodi="http://sodipodi.sourceforge.net/DTD/sodipodi-0.dtd"
   xmlns:inkscape="http://www.inkscape.org/namespaces/inkscape"
   viewBox="0 0 32 32"
   version="1.1"
   id="svg36"
   sodipodi:docname="trackchangesbar.svg"
   inkscape:version="0.92.3 (2405546, 2018-03-11)"
   inkscape:export-filename="/home/rizmut/Documents/Rizmut/Github/libreoffice-style-sukapura/images_sukapura/cmd/32/trackchangesbar.png"
   inkscape:export-xdpi="96"
   inkscape:export-ydpi="96">
  <metadata
     id="metadata42">
    <rdf:RDF>
      <cc:Work
         rdf:about="">
        <dc:format>image/svg+xml</dc:format>
        <dc:type
           rdf:resource="http://purl.org/dc/dcmitype/StillImage" />
        <dc:title></dc:title>
      </cc:Work>
    </rdf:RDF>
  </metadata>
  <defs
     id="defs40">
    <linearGradient
       id="b"
       gradientUnits="userSpaceOnUse"
       x1="20"
       x2="23"
       y1="9"
       y2="6">
      <stop
         offset="0"
         stop-color="#fff"
         id="stop1004" />
      <stop
         offset=".77967989"
         stop-color="#f1f1f1"
         id="stop1006" />
      <stop
         offset="1"
         stop-color="#d5d5d5"
         id="stop1008" />
    </linearGradient>
    <radialGradient
       id="a"
       cx="22"
       cy="9.0769234"
       gradientTransform="matrix(1.3,1e-8,-2e-8,1.5,-6.6,-6.615385)"
       gradientUnits="userSpaceOnUse"
       r="10">
      <stop
         offset="0"
         stop-color="#d7d7d7"
         id="stop997" />
      <stop
         offset=".29999998"
         stop-color="#f7f7f7"
         id="stop999" />
      <stop
         offset="1"
         stop-color="#fff"
         id="stop1001" />
    </radialGradient>
  </defs>
  <sodipodi:namedview
     pagecolor="#ffffff"
     bordercolor="#666666"
     borderopacity="1"
     objecttolerance="10"
     gridtolerance="10"
     guidetolerance="10"
     inkscape:pageopacity="0"
     inkscape:pageshadow="2"
     inkscape:window-width="1366"
     inkscape:window-height="685"
     id="namedview38"
     showgrid="true"
     inkscape:zoom="10.429825"
     inkscape:cx="14.958091"
     inkscape:cy="10.397448"
     inkscape:window-x="0"
     inkscape:window-y="0"
     inkscape:window-maximized="1"
     inkscape:current-layer="svg36">
    <inkscape:grid
       type="xygrid"
       id="grid1653" />
  </sodipodi:namedview>
  <path
     style="fill:url(#a)"
     d="M 6 3 L 6 29 L 13.728516 29 L 14.568359 25.587891 A 2.0002238 2.0002238 0 0 1 15.123047 24.625 L 15.708984 24.060547 L 22.146484 17.630859 A 2.0002238 2.0002238 0 0 1 22.164062 17.615234 L 23.023438 16.777344 L 24.966797 14.837891 C 25.261281 14.543787 25.619399 14.330713 26 14.189453 L 26 10 L 19 3 L 6 3 z M 25.998047 26.066406 L 23.082031 29 L 25.998047 29 L 25.998047 26.066406 z "
     id="path1011" />
  <path
     style="fill:#98989d;fill-opacity:1"
     d="M 5.9980469 2 C 5.4440469 2 4.9980469 2.446 4.9980469 3 L 4.9980469 29 C 4.9980469 29.554 5.4440469 30 5.9980469 30 L 13.482422 30 L 13.728516 29 L 5.9980469 29 L 5.9980469 3 L 18.998047 3 L 18.998047 9 C 18.998047 9.6726441 19.489425 10 19.998047 10 L 25.998047 10 L 25.998047 14.189453 C 26.318934 14.070122 26.655306 14 26.990234 14 C 26.992823 14 26.995458 13.999993 26.998047 14 L 26.998047 8.3847656 L 20.490234 2 L 5.9980469 2 z M 26.998047 25.060547 L 25.998047 26.066406 L 25.998047 29 L 23.082031 29 L 22.087891 30 L 25.998047 30 C 26.552047 30 26.89053 29.543467 26.998047 29 L 26.998047 25.060547 z "
     id="path4" />
  <g
     transform="matrix(1.1667513 0 0 1.1666667 3.165736 3.166667)"
     id="g12"
     fill="#eac282">
    <path
       d="m 11.437572,19.627857 -0.951172,3.865234 3.806641,-1.011719 c 1.653046,-0.339535 -2.065034,-3.99245 -2.855469,-2.853515 z"
       id="path8"
       style="fill:#a2a2a7;fill-opacity:1;stroke:#848489;stroke-opacity:1"
       inkscape:connector-curvature="0"
       sodipodi:nodetypes="cccc" />
    <path
       d="m20.419922 11c-.189562 0-.378184.07172-.523438.216797l-1.673828 1.669922 2.847656 2.849609 1.710938-1.638672c.290506-.290127.290506-.756747 0-1.046875l-1.835938-1.833984c-.145254-.145064-.335828-.216797-.52539-.216797z"
       id="path10"
       style="fill:#e68497;fill-opacity:1;stroke:#b6496c;stroke-opacity:1" />
    <path
       inkscape:connector-curvature="0"
       style="fill:none;stroke:#f398b3;stroke-width:0.85711175"
       d="m 19.288937,13.155429 1.143664,-1.12071 1.850278,1.787531"
       id="path32"
       sodipodi:nodetypes="ccc" />
    <path
       style="fill:#ffcc00;fill-opacity:1;stroke:#c89e00;stroke-opacity:1"
       id="path874"
       d="m 17.480469,13.611328 -5.529297,5.523438 2.855469,2.853515 5.509765,-5.544922 z"
       inkscape:connector-curvature="0"
       sodipodi:nodetypes="ccccc" />
    <path
       inkscape:connector-curvature="0"
       style="fill:#ffe014;stroke-width:0.85711175"
       d="m 19.761836,15.247137 -1.100691,-1.177408 -6.1837,6.223955 1.082595,1.146887 z"
       id="path14"
       sodipodi:nodetypes="ccccc" />
  </g>
  <rect
     fill="#808080"
     height="1"
     ry=".5"
     width="5"
     x="8"
     y="10"
     id="rect14"
     style="fill:#98989d;fill-opacity:1" />
  <rect
     fill="#808080"
     height="1"
     ry=".5"
     width="9"
     x="8"
     y="14"
     id="rect16"
     style="fill:#98989d;fill-opacity:1" />
  <g
     fill="#d65532"
     id="g24">
    <rect
       height="1"
       ry=".5"
       width="5"
       x="19"
       y="14"
       id="rect18"
       style="fill:#ff9f0a;fill-opacity:1" />
    <rect
       height="1"
       ry=".5"
       width="7"
       x="8"
       y="18"
       id="rect20"
       style="fill:#98989d;fill-opacity:1" />
    <path
       style="fill:#ff9f0a;fill-opacity:1"
       d="M 8.5 26 C 8.223 26 8 26.223 8 26.5 C 8 26.777 8.223 27 8.5 27 L 14.220703 27 L 14.466797 26 L 8.5 26 z "
       id="rect22" />
  </g>
  <g
     fill="#808080"
     id="g34">
    <rect
       height="1"
       ry=".474576"
       width="4"
       x="8"
       y="22"
       id="rect26"
       style="fill:#98989d;fill-opacity:1" />
    <path
       style="fill:#98989d;fill-opacity:1"
       d="M 14.474609 22 C 14.211694 22 14 22.211694 14 22.474609 L 14 22.525391 C 14 22.788306 14.211694 23 14.474609 23 L 16.771484 23 L 17.724609 22.046875 C 17.663714 22.018562 17.597203 22 17.525391 22 L 14.474609 22 z "
       id="rect28" />
    <rect
       height="1"
       ry=".474576"
       width="4"
       x="17"
       y="18"
       id="rect30"
       style="fill:#98989d;fill-opacity:1" />
    <rect
       height="1"
       ry=".5"
       width="2"
       x="15"
       y="10"
       id="rect32"
       style="fill:#98989d;fill-opacity:1" />
  </g>
  <path
     inkscape:connector-curvature="0"
     style="fill:url(#b);fill-rule:evenodd"
     d="m 20,9 h 6 L 20,3 Z"
     id="path1015" />
</svg>
