<svg viewBox="0 0 32 32" xmlns="http://www.w3.org/2000/svg"><g fill="#4b4b4f"><rect height="2" ry="1" transform="scale(1 -1)" width="26" x="3" y="-30"/><rect height="2" ry="1" transform="scale(1 -1)" width="26" x="3" y="-27"/><path d="m24.915681 1.9999997v14.0433493c0 2.579073-.839824 4.551305-2.519472 5.916696-1.668812 1.365391-3.852355 2.048087-6.550628 2.048087-2.600745 0-4.713851-.682696-6.3393174-2.048087-1.6146295-1.376228-2.4219443-3.34846-2.4219443-5.916696v-14.0433493h3.2021677v14.0433493c0 1.788013.509313 3.147986 1.527938 4.079919 1.018625.921098 2.362344 1.381647 4.031156 1.381647 1.755503 0 3.169659-.460549 4.242466-1.381647 1.083644-.931933 1.625466-2.291906 1.625466-4.079919v-14.0433493z"/></g></svg>