<svg viewBox="0 0 32 32" xmlns="http://www.w3.org/2000/svg" xmlns:xlink="http://www.w3.org/1999/xlink"><linearGradient id="a" gradientUnits="userSpaceOnUse" x1="7.0422352" x2="14.2010056" y1="-1.8133228" y2="21.452681"><stop offset="0" stop-color="#fff"/><stop offset="1" stop-color="#fff" stop-opacity="0"/></linearGradient><path d="m2.2727279 11.00181a.99918039.99918039 0 0 0 -.2734513.68501l-.0000005 9.913305.0000005 1.400403a.99918039.99918039 0 0 0 .9998928.999893l1.4280245.000001 9.8856841-.000001a.99918039.99918039 0 0 0 .707107-1.706999l-4.242641-4.242641 5.656854-5.656854.64634-.64634c2.628731-2.0703941 5.087333-1.495625 6.732706.05939 1.650646 1.559993 2.315342 4.079413.854882 6.268667a.99943045.99943045 0 0 0 -.02624.04281c-.199152.333859-.279831.447461-.498565.716774l.06905-.07734c-.770989.770989-.770989 2.057438 0 2.828427s2.057438.770989 2.828427 0c3.500005-3.500005 3.500005-9.227918 0-12.7279221-3.500005-3.5000046-9.227917-3.5000046-12.727922 0l-.707105.7071068-5.6568539 5.6568543-4.2426407-4.242641a.99918039.99918039 0 0 0 -1.4335485.0221z" fill="#0a84ff"/><path d="m20.677734 6.2324219c-2.306979 0-4.615231.8749977-6.365234 2.625l-.707031.7089843-5.6562502 5.6562498-4.2421876-4.242187a.99918039.99918039 0 0 0 -1.4335937.021484.99918039.99918039 0 0 0 -.2734375.685547v9.912109 1.400391a.99918039.99918039 0 0 0 .9375.998047c7.976712-7.612307 14.669826-19.817764 24.0625-14.998047-.204651-.0592257-.383263-.3319989-.552734-.6777344-1.661725-1.3898733-3.713584-2.0898437-5.769532-2.0898437z" fill="url(#a)"/></svg>