<svg viewBox="0 0 32 32" xmlns="http://www.w3.org/2000/svg" xmlns:xlink="http://www.w3.org/1999/xlink"><linearGradient id="a" gradientUnits="userSpaceOnUse" x1="17" x2="17" y1="29" y2="18"><stop offset="0" stop-color="#0040dd"/><stop offset="1" stop-color="#0a84ff"/></linearGradient><g fill="#808080"><path d="m4 18c-.5577284 0-1.0058594.448131-1.0058594 1.005858v8.988212c0 .557728.448131 1.005859 1.0058594 1.005859h23.988282c.557728 0 1.005859-.448131 1.005859-1.005859v-8.988212c0-.557727-.448131-1.005858-1.005859-1.005858z" fill="url(#a)"/><g fill="#69696e" stroke-width=".422505"><path d="m13.615159 11.8792h-5.0337477l-1.1305302 3.135777h-1.6339049l4.5881368-12.0149773h1.386344l4.596389 12.0149773h-1.625653zm-4.5551291-1.303823h4.0847621l-2.046507-5.6196426z"/><path d="m18.005247 15.014977v-12.0149773h3.927974q1.955734 0 2.937728.8087005.990245.8087004.990245 2.393093 0 .8417087-.478619 1.4936202-.478618.6436595-1.303823.9984975.973742.2723175 1.534881 1.0397577.569391.7591884.569391 1.8154494 0 1.617401-1.04801 2.54163-1.04801.924229-2.962484.924229zm1.584393-5.6196423v4.3240713h2.615898q1.105774 0 1.741182-.569391.643659-.577643.643659-1.584392 0-2.1702883-2.360085-2.1702883zm0-1.2708149h2.393093q1.039758 0 1.658661-.5198789.627155-.5198788.627155-1.4110997 0-.9902454-.577643-1.4358559-.577643-.4538624-1.757685-.4538624h-2.343581z"/></g></g><g fill="#fff"><path d="m8.5606797 25.833333h1.4555023v-3.696491c0-.161404.0057-.329825.01699-.505263l-.9797738.784211c-.064185.04912-.1283709.07895-.1925567.08947-.064185.0105-.1245952.0105-.1812296 0-.056634-.0105-.1076052-.02806-.1529126-.05263-.041532-.02807-.073625-.05614-.096278-.08421l-.4304213-.547367 2.259709-1.821053h1.240291v5.833333h1.166667v1.166667h-4.1059873z"/><path d="m21.437269 20q.478098 0 .867853.145942.394952.140729.670379.40134.280624.260611.431328.630678.155903.364854.155903.807892 0 .380492-.10913.708861-.10913.323158-.291017.620254-.181885.291884-.426132.573343-.244247.276248-.514477.557707l-1.465479 1.537602q.233853-.07297.467707-.109457.233852-.0417.436525-.0417h1.564217q.197476 0 .317.114672.124721.114666.124721.302305v.750559h-4.666667v-.422189q0-.119881.04677-.255399.05196-.140729.176689-.26061l2.005939-2.069248q.25464-.265823.44692-.505585.197475-.239761.327394-.474311.135114-.239761.202673-.479524.06756-.244973.06756-.510796 0-.479524-.23905-.724498-.23905-.244974-.675576-.244974-.187082 0-.342984.05734-.155902.05734-.280623.156366-.124722.09903-.213066.234551-.08834.135518-.135116.291884-.08315.23976-.228656.312732-.140311.07296-.389754.03127l-.665187-.11466q.07795-.505585.280623-.880865.202673-.380491.504084-.630677.306607-.255398.701558-.380492.394955-.130313.847071-.130313z"/></g></svg>