<?xml version="1.0" encoding="UTF-8" standalone="no"?>
<svg
   xmlns:dc="http://purl.org/dc/elements/1.1/"
   xmlns:cc="http://creativecommons.org/ns#"
   xmlns:rdf="http://www.w3.org/1999/02/22-rdf-syntax-ns#"
   xmlns:svg="http://www.w3.org/2000/svg"
   xmlns="http://www.w3.org/2000/svg"
   xmlns:xlink="http://www.w3.org/1999/xlink"
   xmlns:sodipodi="http://sodipodi.sourceforge.net/DTD/sodipodi-0.dtd"
   xmlns:inkscape="http://www.inkscape.org/namespaces/inkscape"
   viewBox="0 0 32 32"
   version="1.1"
   id="svg16"
   sodipodi:docname="wordcountdialog.svg"
   inkscape:version="0.92.3 (unknown)"
   inkscape:export-filename="/home/rizmut/Dokumen/Rizmut/Github/libreoffice-style-sukapura/images_sukapura/cmd/32/wordcountdialog.png"
   inkscape:export-xdpi="96"
   inkscape:export-ydpi="96">
  <metadata
     id="metadata22">
    <rdf:RDF>
      <cc:Work
         rdf:about="">
        <dc:format>image/svg+xml</dc:format>
        <dc:type
           rdf:resource="http://purl.org/dc/dcmitype/StillImage" />
        <dc:title></dc:title>
      </cc:Work>
    </rdf:RDF>
  </metadata>
  <defs
     id="defs20">
    <linearGradient
       gradientTransform="translate(75,-7)"
       id="a-367"
       gradientUnits="userSpaceOnUse"
       x1="14"
       x2="13.79661"
       y1="22"
       y2="2.1355929">
      <stop
         offset="0"
         stop-color="#0040dd"
         id="stop2206" />
      <stop
         offset="1"
         stop-color="#0a84ff"
         id="stop2208" />
    </linearGradient>
    <linearGradient
       inkscape:collect="always"
       xlink:href="#a-367"
       id="linearGradient878"
       x1="17.005859"
       y1="29.000071"
       x2="17.005859"
       y2="18.000071"
       gradientUnits="userSpaceOnUse"
       gradientTransform="translate(-0.0058594,-7.1e-5)" />
  </defs>
  <sodipodi:namedview
     pagecolor="#ffffff"
     bordercolor="#666666"
     borderopacity="1"
     objecttolerance="10"
     gridtolerance="10"
     guidetolerance="10"
     inkscape:pageopacity="0"
     inkscape:pageshadow="2"
     inkscape:window-width="1366"
     inkscape:window-height="706"
     id="namedview18"
     showgrid="true"
     inkscape:zoom="10.429825"
     inkscape:cx="10.444969"
     inkscape:cy="9.1789392"
     inkscape:window-x="0"
     inkscape:window-y="0"
     inkscape:window-maximized="1"
     inkscape:current-layer="g14">
    <inkscape:grid
       type="xygrid"
       id="grid829"
       spacingx="0.5"
       spacingy="0.5"
       empspacing="2" />
  </sodipodi:namedview>
  <g
     fill="#808080"
     id="g14">
    <path
       d="m 4,18 c -0.5577284,0 -1.0058594,0.448131 -1.0058594,1.005858 v 8.988212 c 0,0.557728 0.448131,1.005859 1.0058594,1.005859 h 23.988282 c 0.557728,0 1.005859,-0.448131 1.005859,-1.005859 V 19.005858 C 28.994141,18.448131 28.54601,18 27.988282,18 Z"
       id="path12"
       inkscape:connector-curvature="0"
       sodipodi:nodetypes="sssssssss"
       style="fill:url(#linearGradient878);fill-opacity:1" />
    <g
       aria-label="AB"
       style="font-style:normal;font-weight:normal;font-size:16.90018845px;line-height:1.25;font-family:sans-serif;letter-spacing:0px;word-spacing:0px;fill:#69696e;fill-opacity:1;stroke:none;stroke-width:0.42250472"
       id="text833">
      <path
         d="M 13.615159,11.8792 H 8.5814113 L 7.4508811,15.014977 H 5.8169762 L 10.405113,2.9999997 h 1.386344 L 16.387846,15.014977 H 14.762193 Z M 9.0600299,10.575377 H 13.144792 L 11.098285,4.9557344 Z"
         style="font-style:normal;font-variant:normal;font-weight:normal;font-stretch:normal;font-family:Roboto;-inkscape-font-specification:Roboto;stroke-width:0.42250472;fill:#69696e;fill-opacity:1"
         id="path853" />
      <path
         d="M 18.005247,15.014977 V 2.9999997 h 3.927974 q 1.955734,0 2.937728,0.8087005 0.990245,0.8087004 0.990245,2.393093 0,0.8417087 -0.478619,1.4936202 -0.478618,0.6436595 -1.303823,0.9984975 0.973742,0.2723175 1.534881,1.0397577 0.569391,0.7591884 0.569391,1.8154494 0,1.617401 -1.04801,2.54163 -1.04801,0.924229 -2.962484,0.924229 z M 19.58964,9.3953347 v 4.3240713 h 2.615898 q 1.105774,0 1.741182,-0.569391 0.643659,-0.577643 0.643659,-1.584392 0,-2.1702883 -2.360085,-2.1702883 z m 0,-1.2708149 h 2.393093 q 1.039758,0 1.658661,-0.5198789 0.627155,-0.5198788 0.627155,-1.4110997 0,-0.9902454 -0.577643,-1.4358559 Q 23.113263,4.3038229 21.933221,4.3038229 H 19.58964 Z"
         style="font-style:normal;font-variant:normal;font-weight:normal;font-stretch:normal;font-family:Roboto;-inkscape-font-specification:Roboto;stroke-width:0.42250472;fill:#69696e;fill-opacity:1"
         id="path855" />
    </g>
  </g>
  <path
     d="m8.5606797 25.833333h1.4555023v-3.696491c0-.161404.0057-.329825.01699-.505263l-.9797738.784211c-.064185.04912-.1283709.07895-.1925567.08947-.064185.0105-.1245952.0105-.1812296 0-.056634-.0105-.1076052-.02806-.1529126-.05263-.041532-.02807-.073625-.05614-.096278-.08421l-.4304213-.547367 2.259709-1.821053h1.240291v5.833333h1.166667v1.166667h-4.1059873z"
     fill="#4d82b8"
     id="path4"
     style="fill:#ffffff" />
  <path
     d="m21.437269 20q .478098 0 .867853.145942.394952.140729.670379.40134.280624.260611.431328.630678.155903.364854.155903.807892 0 .380492-.10913.708861-.10913.323158-.291017.620254-.181885.291884-.426132.573343-.244247.276248-.514477.557707l-1.465479 1.537602q.233853-.07297.467707-.109457.233852-.0417.436525-.0417h1.564217q.197476 0 .317.114672.124721.114666.124721.302305v.750559h-4.666667v-.422189q0-.119881.04677-.255399.05196-.140729.176689-.26061l2.005939-2.069248q.25464-.265823.44692-.505585.197475-.239761.327394-.474311.135114-.239761.202673-.479524.06756-.244973.06756-.510796 0-.479524-.23905-.724498-.23905-.244974-.675576-.244974-.187082 0-.342984.05734-.155902.05734-.280623.156366-.124722.09903-.213066.234551-.08834.135518-.135116.291884-.08315.23976-.228656.312732-.140311.07296-.389754.03127l-.665187-.11466q.07795-.505585.280623-.880865.202673-.380491.504084-.630677.306607-.255398.701558-.380492.394955-.130313.847071-.130313z"
     fill="#4d82b8"
     id="path6"
     style="fill:#ffffff" />
</svg>
