<svg viewBox="0 0 32 32" xmlns="http://www.w3.org/2000/svg" xmlns:xlink="http://www.w3.org/1999/xlink"><linearGradient id="a" gradientUnits="userSpaceOnUse" x1="17" x2="17" y1="29" y2="18"><stop offset="0" stop-color="#0040dd"/><stop offset="1" stop-color="#0a84ff"/></linearGradient><g fill="#808080"><g fill="#4b4b4f" stroke-width=".421877" transform="translate(3)"><path d="m10.679488 12.195611h-4.6966827l-.955816 2.80153h-2.0269893l4.4082896-11.9971396h1.8951525l4.3588509 11.9971396h-2.035229zm-4.1198971-1.672678h3.5513511l-1.7385965-5.1251516h-.049439z"/><path d="m15.054818 14.997141v-11.9971396h3.98806q1.99403 0 3.114642.8239794 1.120612.8157395 1.120612 2.4472187 0 .8157395-.469668 1.4584434-.469668.6427039-1.301887.9558161 1.071173.238954 1.647958 1.0299742.576786.7910198.576786 1.8374738 0 1.689158-1.104132 2.570816-1.104133.873418-3.048724.873418zm2.00227-5.4547435v3.8562235h2.521377q1.038214 0 1.59852-.469668.560306-.477908.560306-1.376046 0-.955816-.469668-1.483163-.469669-.5273465-1.466684-.5273465zm0-1.4914026h2.208265q.931097 0 1.466683-.4367091.543826-.4449488.543826-1.2524486 0-.8898977-.568545-1.318367-.568546-.436709-1.664439-.436709h-1.98579z"/></g><path d="m4 18c-.5577284 0-1.0058594.448131-1.0058594 1.005858v8.988212c0 .557728.448131 1.005859 1.0058594 1.005859h23.988282c.557728 0 1.005859-.448131 1.005859-1.005859v-8.988212c0-.557727-.448131-1.005858-1.005859-1.005858z" fill="url(#a)"/></g><g fill="#fff"><path d="m8.5606797 25.833333h1.4555023v-3.696491c0-.161404.0057-.329825.01699-.505263l-.9797738.784211c-.064185.04912-.1283709.07895-.1925567.08947-.064185.0105-.1245952.0105-.1812296 0-.056634-.0105-.1076052-.02806-.1529126-.05263-.041532-.02807-.073625-.05614-.096278-.08421l-.4304213-.547367 2.259709-1.821053h1.240291v5.833333h1.166667v1.166667h-4.1059873z"/><path d="m21.437269 20q.478098 0 .867853.145942.394952.140729.670379.40134.280624.260611.431328.630678.155903.364854.155903.807892 0 .380492-.10913.708861-.10913.323158-.291017.620254-.181885.291884-.426132.573343-.244247.276248-.514477.557707l-1.465479 1.537602q.233853-.07297.467707-.109457.233852-.0417.436525-.0417h1.564217q.197476 0 .317.114672.124721.114666.124721.302305v.750559h-4.666667v-.422189q0-.119881.04677-.255399.05196-.140729.176689-.26061l2.005939-2.069248q.25464-.265823.44692-.505585.197475-.239761.327394-.474311.135114-.239761.202673-.479524.06756-.244973.06756-.510796 0-.479524-.23905-.724498-.23905-.244974-.675576-.244974-.187082 0-.342984.05734-.155902.05734-.280623.156366-.124722.09903-.213066.234551-.08834.135518-.135116.291884-.08315.23976-.228656.312732-.140311.07296-.389754.03127l-.665187-.11466q.07795-.505585.280623-.880865.202673-.380491.504084-.630677.306607-.255398.701558-.380492.394955-.130313.847071-.130313z"/></g></svg>