<?xml version="1.0" encoding="UTF-8" standalone="no"?>
<svg
   xmlns:dc="http://purl.org/dc/elements/1.1/"
   xmlns:cc="http://creativecommons.org/ns#"
   xmlns:rdf="http://www.w3.org/1999/02/22-rdf-syntax-ns#"
   xmlns:svg="http://www.w3.org/2000/svg"
   xmlns="http://www.w3.org/2000/svg"
   xmlns:xlink="http://www.w3.org/1999/xlink"
   xmlns:sodipodi="http://sodipodi.sourceforge.net/DTD/sodipodi-0.dtd"
   xmlns:inkscape="http://www.inkscape.org/namespaces/inkscape"
   viewBox="0 0 32 32"
   version="1.1"
   id="svg14"
   sodipodi:docname="wraptext.svg"
   inkscape:version="0.92.3 (unknown)"
   inkscape:export-filename="/home/rizmut/Dokumen/Rizmut/Github/libreoffice-style-sukapura/images_sukapura/cmd/sc_wraptext.png"
   inkscape:export-xdpi="96"
   inkscape:export-ydpi="96"
   width="32"
   height="32">
  <metadata
     id="metadata20">
    <rdf:RDF>
      <cc:Work
         rdf:about="">
        <dc:format>image/svg+xml</dc:format>
        <dc:type
           rdf:resource="http://purl.org/dc/dcmitype/StillImage" />
        <dc:title></dc:title>
      </cc:Work>
    </rdf:RDF>
  </metadata>
  <defs
     id="defs18">
    <linearGradient
       gradientTransform="translate(-11,-1)"
       id="a"
       gradientUnits="userSpaceOnUse"
       x1="14"
       x2="13.79661"
       y1="22"
       y2="2.1355929">
      <stop
         offset="0"
         stop-color="#0040dd"
         id="stop1492" />
      <stop
         offset="1"
         stop-color="#0a84ff"
         id="stop1494" />
    </linearGradient>
    <linearGradient
       inkscape:collect="always"
       xlink:href="#a"
       id="linearGradient873"
       x1="24"
       y1="24"
       x2="24"
       y2="18"
       gradientUnits="userSpaceOnUse" />
    <linearGradient
       inkscape:collect="always"
       xlink:href="#a"
       id="linearGradient887"
       x1="14"
       y1="23"
       x2="14"
       y2="17"
       gradientUnits="userSpaceOnUse" />
  </defs>
  <sodipodi:namedview
     pagecolor="#ffffff"
     bordercolor="#666666"
     borderopacity="1"
     objecttolerance="10"
     gridtolerance="10"
     guidetolerance="10"
     inkscape:pageopacity="0"
     inkscape:pageshadow="2"
     inkscape:window-width="1366"
     inkscape:window-height="699"
     id="namedview16"
     showgrid="true"
     inkscape:zoom="8"
     inkscape:cx="-6.2114768"
     inkscape:cy="1.1115442"
     inkscape:window-x="0"
     inkscape:window-y="0"
     inkscape:window-maximized="1"
     inkscape:current-layer="svg14"
     inkscape:snap-smooth-nodes="true"
     inkscape:snap-global="true">
    <inkscape:grid
       type="xygrid"
       id="grid1522"
       spacingx="0.5"
       spacingy="0.5"
       empspacing="2" />
  </sodipodi:namedview>
  <g
     style="fill:#69696e;fill-opacity:1"
     transform="matrix(-1,0,0,1,3.000001,4)"
     id="g16">
    <rect
       height="1"
       ry="0.5"
       width="18"
       x="-21"
       y="2"
       id="rect6-3"
       style="fill:#69696e;fill-opacity:1" />
    <rect
       height="1"
       ry="0.487288"
       width="12.999997"
       x="-16"
       y="10"
       id="rect8"
       style="fill:#69696e;fill-opacity:1" />
    <rect
       height="1"
       ry="0.411017"
       width="19"
       x="-22"
       y="21"
       id="rect10"
       style="fill:#69696e;fill-opacity:1" />
    <rect
       height="1"
       ry="0.46404499"
       width="6.000001"
       x="-9"
       y="13"
       id="rect12"
       style="fill:#69696e;fill-opacity:1" />
    <rect
       height="1"
       ry="0.5"
       width="11"
       x="-14"
       y="5"
       id="rect14"
       style="fill:#69696e;fill-opacity:1" />
  </g>
  <path
     style="fill:url(#linearGradient887);fill-rule:evenodd;fill-opacity:1;stroke:none"
     d="m 15,17 c -0.550937,0 -1.007812,0.456876 -1.007812,1.007812 0,0.550937 0.456876,1.007813 1.007812,1.007813 h 3.5 c 1.105918,0 1.992188,0.886271 1.992188,1.992187 5.4e-5,0.0255 0.002,0.05096 0.0059,0.07617 v 0.347659 h 2.015584 v -0.5 c 1e-6,-6.67e-4 1e-6,-0.0013 0,-0.002 -0.0034,-1.224704 -0.553678,-2.221835 -1.322266,-2.884719 C 20.422819,17.382038 19.448002,17.028751 18.515625,17 c -0.0052,-8e-5 -0.01042,-8e-5 -0.01563,0 z"
     id="path20"
     inkscape:connector-curvature="0"
     sodipodi:nodetypes="ssssccccccsccs" />
  <path
     style="fill:url(#linearGradient873);fill-opacity:1;stroke:none;stroke-linecap:round;stroke-linejoin:round"
     d="m 18.5,19.994141 a 0.50552893,0.50552893 0 0 0 -0.357422,0.863281 l 3.00586,2.992187 a 0.50552893,0.50552893 0 0 0 0.714843,0 l 2.994141,-2.992187 A 0.50552893,0.50552893 0 0 0 24.5,19.994141 Z"
     id="path18" />
  <g
     id="g865"
     transform="matrix(-1,0,0,1,3.000001,5)"
     style="fill:#eaeaea;fill-opacity:0.99215686">
    <rect
       style="fill:#eaeaea;fill-opacity:0.99215686"
       id="rect855"
       y="2"
       x="-21"
       width="18"
       ry="0.5"
       height="1" />
    <rect
       style="fill:#eaeaea;fill-opacity:0.99215686"
       id="rect857"
       y="10"
       x="-16"
       width="12.999997"
       ry="0.487288"
       height="1" />
    <rect
       style="fill:#eaeaea;fill-opacity:0.99215686"
       id="rect859"
       y="21"
       x="-22"
       width="19"
       ry="0.411017"
       height="1" />
    <rect
       style="fill:#eaeaea;fill-opacity:0.99215686"
       id="rect861"
       y="13"
       x="-9"
       width="6.000001"
       ry="0.46404499"
       height="1" />
    <rect
       style="fill:#eaeaea;fill-opacity:0.99215686"
       id="rect863"
       y="5"
       x="-14"
       width="11"
       ry="0.5"
       height="1" />
  </g>
</svg>
