<?xml version="1.0" encoding="UTF-8" standalone="no"?>
<svg
   xmlns:dc="http://purl.org/dc/elements/1.1/"
   xmlns:cc="http://creativecommons.org/ns#"
   xmlns:rdf="http://www.w3.org/1999/02/22-rdf-syntax-ns#"
   xmlns:svg="http://www.w3.org/2000/svg"
   xmlns="http://www.w3.org/2000/svg"
   xmlns:xlink="http://www.w3.org/1999/xlink"
   xmlns:sodipodi="http://sodipodi.sourceforge.net/DTD/sodipodi-0.dtd"
   xmlns:inkscape="http://www.inkscape.org/namespaces/inkscape"
   viewBox="0 0 32 32"
   version="1.1"
   id="svg12"
   sodipodi:docname="zoomin.svg"
   inkscape:version="0.92.3 (unknown)"
   inkscape:export-filename="/home/rizmut/Dokumen/Rizmut/Github/libreoffice-style-sukapura/images_sukapura/cmd/32/zoomin.png"
   inkscape:export-xdpi="96"
   inkscape:export-ydpi="96">
  <metadata
     id="metadata18">
    <rdf:RDF>
      <cc:Work
         rdf:about="">
        <dc:format>image/svg+xml</dc:format>
        <dc:type
           rdf:resource="http://purl.org/dc/dcmitype/StillImage" />
        <dc:title></dc:title>
      </cc:Work>
    </rdf:RDF>
  </metadata>
  <defs
     id="defs16">
    <linearGradient
       gradientTransform="translate(75,-7)"
       id="a-367"
       gradientUnits="userSpaceOnUse"
       x1="14"
       x2="13.79661"
       y1="22"
       y2="2.1355929">
      <stop
         offset="0"
         stop-color="#0040dd"
         id="stop2206" />
      <stop
         offset="1"
         stop-color="#0a84ff"
         id="stop2208" />
    </linearGradient>
    <linearGradient
       inkscape:collect="always"
       xlink:href="#a-367"
       id="linearGradient836"
       x1="12.5"
       y1="19"
       x2="12.5"
       y2="7"
       gradientUnits="userSpaceOnUse" />
    <linearGradient
       inkscape:collect="always"
       xlink:href="#a-367"
       id="linearGradient838"
       x1="12.5"
       y1="19"
       x2="12.5"
       y2="7"
       gradientUnits="userSpaceOnUse" />
  </defs>
  <sodipodi:namedview
     pagecolor="#ffffff"
     bordercolor="#666666"
     borderopacity="1"
     objecttolerance="10"
     gridtolerance="10"
     guidetolerance="10"
     inkscape:pageopacity="0"
     inkscape:pageshadow="2"
     inkscape:window-width="1350"
     inkscape:window-height="691"
     id="namedview14"
     showgrid="true"
     inkscape:snap-global="true"
     inkscape:zoom="8.0000004"
     inkscape:cx="11.316749"
     inkscape:cy="11.789069"
     inkscape:window-x="0"
     inkscape:window-y="0"
     inkscape:window-maximized="0"
     inkscape:current-layer="svg12"
     inkscape:snap-smooth-nodes="true">
    <inkscape:grid
       type="xygrid"
       id="grid828"
       spacingx="0.5"
       spacingy="0.5"
       empspacing="2" />
  </sodipodi:namedview>
  <path
     style="opacity:1;fill:#69696e;fill-opacity:1;stroke:none;stroke-width:1;stroke-linecap:round;stroke-linejoin:round;stroke-miterlimit:4;stroke-dasharray:none;stroke-opacity:0"
     d="M 13 3 A 10 10 0 0 0 3 13 A 10 10 0 0 0 13 23 A 10 10 0 0 0 19.296875 20.757812 L 26.619141 28.078125 C 27.010878 28.469862 27.641466 28.469862 28.033203 28.078125 L 28.740234 27.371094 C 29.131972 26.979357 29.131972 26.348768 28.740234 25.957031 L 21.318359 18.537109 A 10 10 0 0 0 23 13 A 10 10 0 0 0 13 3 z M 13.003906 5.0039062 A 8 8 0 0 1 21.003906 13.003906 A 8 8 0 0 1 13.003906 21.003906 A 8 8 0 0 1 5.0039062 13.003906 A 8 8 0 0 1 13.003906 5.0039062 z M 20.474609 19.625 C 20.434838 19.66985 20.39604 19.715639 20.355469 19.759766 A 10 10 0 0 0 20.474609 19.625 z M 19.929688 20.193359 C 19.872539 20.248394 19.814329 20.301785 19.755859 20.355469 A 10 10 0 0 0 19.929688 20.193359 z "
     id="path856" />
  <rect
     style="fill:url(#linearGradient836);fill-opacity:1"
     height="2"
     ry="1"
     width="12"
     x="7"
     y="12"
     id="rect8-3" />
  <rect
     style="fill:url(#linearGradient838);fill-opacity:1"
     height="12"
     ry="1"
     width="2"
     x="12"
     y="7"
     id="rect10" />
</svg>
