<?xml version="1.0" encoding="UTF-8" standalone="no"?>
<svg
   xmlns:dc="http://purl.org/dc/elements/1.1/"
   xmlns:cc="http://creativecommons.org/ns#"
   xmlns:rdf="http://www.w3.org/1999/02/22-rdf-syntax-ns#"
   xmlns:svg="http://www.w3.org/2000/svg"
   xmlns="http://www.w3.org/2000/svg"
   xmlns:xlink="http://www.w3.org/1999/xlink"
   xmlns:sodipodi="http://sodipodi.sourceforge.net/DTD/sodipodi-0.dtd"
   xmlns:inkscape="http://www.inkscape.org/namespaces/inkscape"
   viewBox="0 0 32 32"
   version="1.1"
   id="svg16"
   sodipodi:docname="forms_32.svg"
   inkscape:version="0.92.3 (2405546, 2018-03-11)">
  <metadata
     id="metadata22">
    <rdf:RDF>
      <cc:Work
         rdf:about="">
        <dc:format>image/svg+xml</dc:format>
        <dc:type
           rdf:resource="http://purl.org/dc/dcmitype/StillImage" />
        <dc:title></dc:title>
      </cc:Work>
    </rdf:RDF>
  </metadata>
  <defs
     id="defs20">
    <linearGradient
       inkscape:collect="always"
       id="linearGradient2434">
      <stop
         style="stop-color:#848489;stop-opacity:1"
         offset="0"
         id="stop2430" />
      <stop
         style="stop-color:#616165;stop-opacity:1"
         offset="1"
         id="stop2432" />
    </linearGradient>
    <linearGradient
       inkscape:collect="always"
       xlink:href="#a"
       id="linearGradient2436"
       x1="16"
       y1="28"
       x2="16"
       y2="10"
       gradientUnits="userSpaceOnUse" />
    <linearGradient
       gradientTransform="translate(54,14)"
       id="a"
       gradientUnits="userSpaceOnUse"
       x1="8"
       x2="8"
       y1="15"
       y2="1">
      <stop
         offset="0"
         stop-color="#e9e9e9"
         id="stop2645" />
      <stop
         offset=".2857143"
         stop-color="#f2f2f2"
         id="stop2647" />
      <stop
         offset="1"
         stop-color="#fbfbfb"
         id="stop2649" />
    </linearGradient>
    <linearGradient
       inkscape:collect="always"
       xlink:href="#linearGradient2434"
       id="linearGradient3259"
       x1="16"
       y1="3"
       x2="16"
       y2="29"
       gradientUnits="userSpaceOnUse" />
    <linearGradient
       gradientTransform="translate(3,8)"
       id="b"
       gradientUnits="userSpaceOnUse"
       x1="8"
       x2="8"
       y1="1"
       y2="19">
      <stop
         offset="0"
         stop-color="#fff"
         id="stop2652" />
      <stop
         offset="1"
         stop-color="#fff"
         stop-opacity="0"
         id="stop2654" />
    </linearGradient>
  </defs>
  <sodipodi:namedview
     pagecolor="#ffffff"
     bordercolor="#666666"
     borderopacity="1"
     objecttolerance="10"
     gridtolerance="10"
     guidetolerance="10"
     inkscape:pageopacity="0"
     inkscape:pageshadow="2"
     inkscape:window-width="1366"
     inkscape:window-height="716"
     id="namedview18"
     showgrid="true"
     inkscape:zoom="5.2149125"
     inkscape:cx="-6.2661879"
     inkscape:cy="11.549534"
     inkscape:window-x="-8"
     inkscape:window-y="-8"
     inkscape:window-maximized="1"
     inkscape:current-layer="svg16">
    <inkscape:grid
       type="xygrid"
       id="grid829" />
  </sodipodi:namedview>
  <path
     d="M 4,9 H 28 V 28 H 4 Z"
     id="path2"
     style="fill:url(#linearGradient2436);fill-opacity:1"
     inkscape:connector-curvature="0"
     sodipodi:nodetypes="ccccc" />
  <path
     style="fill:url(#linearGradient3259);fill-opacity:1"
     inkscape:connector-curvature="0"
     id="path4"
     d="M 4,3 C 3.446,3 3,3.446 3,4 v 24 c 0,0.554 0.446,1 1,1 h 24 c 0.554,0 1,-0.446 1,-1 V 4 C 29,3.446 28.554,3 28,3 Z M 4,9 H 28 V 28 H 4 Z"
     sodipodi:nodetypes="sssssssssccccc" />
  <g
     style="fill:#808080"
     id="g16">
    <path
       inkscape:connector-curvature="0"
       d="m 15,14 c -0.554,0 -1,0.446 -1,1 v 2 c 0,0.554 0.446,1 1,1 h 8 c 0.554,0 1,-0.446 1,-1 v -2 c 0,-0.554 -0.446,-1 -1,-1 z m 0,1 h 8 v 2 h -8 z"
       id="path8"
       style="fill:#616165;fill-opacity:1" />
    <path
       inkscape:connector-curvature="0"
       d="m 9,14 c -0.554,0 -1,0.446 -1,1 v 2 c 0,0.554 0.446,1 1,1 h 2 c 0.554,0 1,-0.446 1,-1 v -2 c 0,-0.554 -0.446,-1 -1,-1 z m 0,1 h 2 v 2 H 9 Z"
       id="path10"
       style="fill:#616165;fill-opacity:1" />
    <path
       inkscape:connector-curvature="0"
       d="m 15,21 c -0.554,0 -1,0.446 -1,1 v 2 c 0,0.554 0.446,1 1,1 h 8 c 0.554,0 1,-0.446 1,-1 v -2 c 0,-0.554 -0.446,-1 -1,-1 z m 0,1 h 8 v 2 h -8 z"
       id="path12"
       style="fill:#616165;fill-opacity:1" />
    <path
       inkscape:connector-curvature="0"
       d="m 9,21 c -0.554,0 -1,0.446 -1,1 v 2 c 0,0.554 0.446,1 1,1 h 2 c 0.554,0 1,-0.446 1,-1 v -2 c 0,-0.554 -0.446,-1 -1,-1 z m 0,1 h 2 v 2 H 9 Z"
       id="path14"
       style="fill:#616165;fill-opacity:1" />
  </g>
  <rect
     style="fill:none;stroke:url(#b)"
     height="18"
     rx="1.5"
     ry="1.414397"
     width="23"
     x="4.5"
     y="9.5"
     id="rect2663" />
</svg>
