<svg height="20" width="20" xmlns="http://www.w3.org/2000/svg"><path d="m3 0c-1.0907028 0-2 .9092972-2 2v7.5c0 .626302.3157888 1.173684.7246094 1.517578l-.1132813-.107422.017578.02149c.0001666.000182.00351.0035.00391.0039-.0000581-.000054.00198.002.00195.002.011122.01085.059021.05356.089844.08203.00106.000892.0008898.003.00195.0039l-.013672-.0098c-.061546-.05313-.079161-.07677-.078125-.07617l6.6054688 7.712891a1.0001 1.0001 0 0 0 .7597681.349603h1 1a1.0001 1.0001 0 0 0 .759766-.349609l6.603515-7.710938-.02344.02344-.06641.06055c.411014-.343648.726569-.894872.726569-1.523443v-7.5c0-1.0907028-.909297-2-2-2z" fill="#98989d"/><path d="m3 1c-.554 0-1 .446-1 1v7.5c0 .309169.1481301.572707.3671875.755859.00139.0012.00251.0028.00391.0039l6.6289025 7.740241h1 1l6.628906-7.740234.0039-.0039c.219064-.183159.367194-.446697.367194-.755866v-7.5c0-.554-.446-1-1-1z" fill="#fff"/></svg>