<?xml version="1.0" encoding="UTF-8" standalone="no"?>
<svg
   xmlns:dc="http://purl.org/dc/elements/1.1/"
   xmlns:cc="http://creativecommons.org/ns#"
   xmlns:rdf="http://www.w3.org/1999/02/22-rdf-syntax-ns#"
   xmlns:svg="http://www.w3.org/2000/svg"
   xmlns="http://www.w3.org/2000/svg"
   xmlns:sodipodi="http://sodipodi.sourceforge.net/DTD/sodipodi-0.dtd"
   xmlns:inkscape="http://www.inkscape.org/namespaces/inkscape"
   viewBox="0 0 24 24"
   version="1.1"
   id="svg9"
   sodipodi:docname="lc_starshapes.svg"
   inkscape:version="0.92.4 (unknown)">
  <metadata
     id="metadata15">
    <rdf:RDF>
      <cc:Work
         rdf:about="">
        <dc:format>image/svg+xml</dc:format>
        <dc:type
           rdf:resource="http://purl.org/dc/dcmitype/StillImage" />
        <dc:title></dc:title>
      </cc:Work>
    </rdf:RDF>
  </metadata>
  <defs
     id="defs13">
    <filter
       inkscape:collect="always"
       style="color-interpolation-filters:sRGB"
       id="filter837"
       x="-0.077997576"
       width="1.1559952"
       y="-0.078002424"
       height="1.1560048">
      <feGaussianBlur
         inkscape:collect="always"
         stdDeviation="0.64997295"
         id="feGaussianBlur839" />
    </filter>
  </defs>
  <sodipodi:namedview
     pagecolor="#ffffff"
     bordercolor="#666666"
     borderopacity="1"
     objecttolerance="10"
     gridtolerance="10"
     guidetolerance="10"
     inkscape:pageopacity="0"
     inkscape:pageshadow="2"
     inkscape:window-width="1366"
     inkscape:window-height="694"
     id="namedview11"
     showgrid="true"
     inkscape:zoom="6.9532167"
     inkscape:cx="-10.826704"
     inkscape:cy="4.919811"
     inkscape:window-x="0"
     inkscape:window-y="0"
     inkscape:window-maximized="1"
     inkscape:current-layer="svg9">
    <inkscape:grid
       type="xygrid"
       id="grid825" />
  </sodipodi:namedview>
  <linearGradient
     id="a"
     gradientUnits="userSpaceOnUse"
     x1="11.86448"
     x2="12"
     y1="22.169495"
     y2="2.499993">
    <stop
       offset="0"
       stop-color="#e5eefc"
       id="stop2" />
    <stop
       offset="1"
       stop-color="#fcfdff"
       id="stop4" />
  </linearGradient>
  <path
     sodipodi:type="inkscape:offset"
     inkscape:radius="0.5"
     inkscape:original="M 12 2.5 L 8.4375 9.5 L 2.5 9.5 L 7.5 14.375 L 6.0625 21.5 L 12 18.5 L 17.9375 21.5 L 16.5 14.375 L 21.5 9.5 L 15.5625 9.5 L 12 2.5 z "
     style="fill:#000000;stroke:none;stroke-linecap:round;stroke-linejoin:round;filter:url(#filter837);opacity:0.15"
     id="path827"
     d="M 12,2 A 0.50005,0.50005 0 0 0 11.554688,2.2734375 L 8.1308594,9 H 2.5 A 0.50005,0.50005 0 0 0 2.1503906,9.8574219 l 4.8046875,4.6855471 -1.3828125,6.857422 a 0.50005,0.50005 0 0 0 0.7148438,0.544921 L 12,19.060547 l 5.712891,2.884765 a 0.50005,0.50005 0 0 0 0.714843,-0.544921 L 17.044922,14.542969 21.849609,9.8574219 A 0.50005,0.50005 0 0 0 21.5,9 H 15.869141 L 12.445312,2.2734375 A 0.50005,0.50005 0 0 0 12,2 Z"
     transform="translate(0,0.5)" />
  <path
     d="m12 2.4999934-3.5625 7.0000066h-5.9375l5 4.874993-1.4375 7.125 5.9375-2.999993 5.9375 2.999993-1.4375-7.125 5-4.874993h-5.9375z"
     fill="url(#a)"
     stroke="#0a84ff"
     stroke-linecap="round"
     stroke-linejoin="round"
     id="path7" />
</svg>
