<svg height="16" viewBox="0 0 16 16" width="16" xmlns="http://www.w3.org/2000/svg"><path d="m10 3h-4.0078l-.000012 4h4zm-5 0h-4l-.007812 4h4.007812z" fill="#fff"/><path d="m5 3v4h1v-4z" fill="#bababa"/><g transform="matrix(0 1 -1 0 20 3)"><path d="m6 5 4.001953.00781v4l-4.001953-.00781z" fill="#32d74b"/><path d="m10 8v6h6v-6zm1 1h4l-.007812 4.001953h-4z" fill="#007018" transform="matrix(0 -1 1 0 -3 20)"/></g><path d="m0 2-.007812 5.5c-.00038442.276301.22369855.500384.5.5h5.5v-.998047h-5.00195312l.00976512-4.001953h5v-1zm6 0v1h4l-.0058 4.001953h-4.002v.998047h4.5c.276301.000384.500384-.223699.5-.5l.0078-5.5z" fill="#69696e"/></svg>