<?xml version="1.0" encoding="UTF-8" standalone="no"?>
<svg
   xmlns:dc="http://purl.org/dc/elements/1.1/"
   xmlns:cc="http://creativecommons.org/ns#"
   xmlns:rdf="http://www.w3.org/1999/02/22-rdf-syntax-ns#"
   xmlns:svg="http://www.w3.org/2000/svg"
   xmlns="http://www.w3.org/2000/svg"
   xmlns:xlink="http://www.w3.org/1999/xlink"
   xmlns:sodipodi="http://sodipodi.sourceforge.net/DTD/sodipodi-0.dtd"
   xmlns:inkscape="http://www.inkscape.org/namespaces/inkscape"
   viewBox="0 0 16 16"
   version="1.1"
   id="svg4"
   sodipodi:docname="sc_addwatch.svg"
   inkscape:version="0.92.4 (unknown)">
  <metadata
     id="metadata10">
    <rdf:RDF>
      <cc:Work
         rdf:about="">
        <dc:format>image/svg+xml</dc:format>
        <dc:type
           rdf:resource="http://purl.org/dc/dcmitype/StillImage" />
        <dc:title></dc:title>
      </cc:Work>
    </rdf:RDF>
  </metadata>
  <defs
     id="defs8">
    <linearGradient
       inkscape:collect="always"
       xlink:href="#a-4"
       id="linearGradient849"
       x1="10.204602"
       y1="16.46316"
       x2="10.690536"
       y2="5.1447377"
       gradientUnits="userSpaceOnUse" />
    <linearGradient
       id="a-4"
       gradientTransform="translate(-50.237288,-0.305085)"
       gradientUnits="userSpaceOnUse"
       x1="14"
       x2="13.79661"
       y1="22"
       y2="2.1355929">
      <stop
         offset="0"
         stop-color="#0040dd"
         id="stop2" />
      <stop
         offset="1"
         stop-color="#0a84ff"
         id="stop4" />
    </linearGradient>
    <linearGradient
       inkscape:collect="always"
       xlink:href="#a-4"
       id="linearGradient848"
       x1="8"
       y1="10"
       x2="8"
       y2="6"
       gradientUnits="userSpaceOnUse" />
  </defs>
  <sodipodi:namedview
     pagecolor="#ffffff"
     bordercolor="#666666"
     borderopacity="1"
     objecttolerance="10"
     gridtolerance="10"
     guidetolerance="10"
     inkscape:pageopacity="0"
     inkscape:pageshadow="2"
     inkscape:window-width="1360"
     inkscape:window-height="714"
     id="namedview6"
     showgrid="true"
     inkscape:zoom="14.75"
     inkscape:cx="1.9281116"
     inkscape:cy="8.3036442"
     inkscape:window-x="0"
     inkscape:window-y="28"
     inkscape:window-maximized="1"
     inkscape:current-layer="svg4">
    <inkscape:grid
       type="xygrid"
       id="grid850" />
  </sodipodi:namedview>
  <path
     d="M 8,3 C 4.719891,3.0043271 1.7018826,4.792832 0.12304688,7.6679688 0.25199191,8.0317035 0.48048562,8.3445563 0.77929688,8.5761719 2.1010856,5.7848625 4.9115506,4.0037103 8,4 5.790861,4 4,5.790861 4,8 c 0,2.209139 1.790861,4 4,4 2.209139,0 4,-1.790861 4,-4 C 12.007957,5.9204889 10.421179,4.1817403 8.3496094,4 11.310922,4.1345513 13.955073,5.8955649 15.220703,8.5761719 15.522218,8.3424607 15.752612,8.0261216 15.880859,7.6582031 14.298785,4.7856128 11.279441,3.0009446 8,3 Z m 0,2 c 1.6568542,0 3,1.3431457 3,3 0,1.6568542 -1.3431458,3 -3,3 C 6.3431458,11 5,9.6568542 5,8 5,6.3431458 6.3431458,5 8,5 Z"
     id="path2"
     style="fill:#98989d;fill-opacity:1"
     inkscape:connector-curvature="0"
     sodipodi:nodetypes="ccccsscccccsssss" />
  <path
     style="fill:url(#linearGradient848);fill-opacity:1"
     id="path817"
     d="M 8,6 C 6.8954305,6 6,6.8954305 6,8 6,9.1045695 6.8954305,10 8,10 9.1045694,10 9.9999999,9.1045696 10,8 10.028959,7.8051063 10.028959,7.6070031 10,7.4121094 9.8259922,7.8011388 9.4245504,8.0371426 9,8 8.4477153,8 8,7.5522847 8,7 7.9631762,6.5749731 8.2000485,6.1733883 8.5898438,6 8.3943098,5.9708477 8.195534,5.9708477 8,6 Z"
     inkscape:connector-curvature="0"
     sodipodi:nodetypes="csscccccc" />
  <g
     aria-label="%"
     transform="matrix(1.0289475,0,0,0.97186686,-22.338066,-2.6703098)"
     style="font-style:normal;font-weight:normal;font-size:16.79194069px;line-height:1.25;font-family:sans-serif;letter-spacing:0px;word-spacing:0px;fill:url(#linearGradient849);fill-opacity:1;stroke:none;stroke-width:0.41979852"
     id="text841" />
</svg>
