<svg viewBox="0 0 24 24" xmlns="http://www.w3.org/2000/svg" xmlns:xlink="http://www.w3.org/1999/xlink"><linearGradient id="a" gradientUnits="userSpaceOnUse" x1="86" x2="86" y1="16" y2="5"><stop offset="0" stop-color="#0040dd"/><stop offset="1" stop-color="#0a84ff"/></linearGradient><path d="m18.543148 3h-4.543148v3h2.439697c.940367.012373 1.674513.2536515 2.202437.7238345.527925.4701831.791887 1.1094672.791887 1.9178522 0 .8125094-.269931 1.1376436-.80198 1.6202003-.532049.482556-1.257946.732083-2.17769.748581h-3.452134v-9.007719h5.537025zm-4.543148 4v3h2.371644c.589792 0 1.047602-.1567276 1.37343-.4701829.329954-.3134554.49493-.3725788.49493-.9005037 0-.5073028-.15879-.8848568-.47637-1.1776901-.313455-.2928333-.760954-.4433744-1.342497-.4516233z" fill="#4b4b4f"/><path d="m2.0058594 12.000071c-.5577284 0-1.0058594.448131-1.0058594 1.005858v8.988212c0 .557728.448131 1.005859 1.0058594 1.005859h19.9882816c.557728 0 1.005859-.448131 1.005859-1.005859v-8.988212c0-.557727-.448131-1.005858-1.005859-1.005858z" fill="url(#a)"/><path d="m7.3066406 2-3.3066406 8.998047h1.5195312l.6855469-1.998047h3.5878907l.6777342 1.998047h1.527344l-3.2695314-8.998047zm.6855469 1.7988281h.037109l1.4238285 4.2011719h-2.9042969z" fill="#4b4b4f"/><g fill="#fff"><path d="m5.300971 19.833333h1.4555016v-3.696491c0-.161404.00566-.329825.01699-.505263l-.9797731.784211c-.064185.04912-.1283709.07895-.1925567.08947-.064185.0105-.1245952.0105-.1812296 0-.056634-.0105-.1076052-.02806-.1529126-.05263-.041532-.02807-.073625-.05614-.096278-.08421l-.4304213-.547367 2.2597087-1.821053h1.2402913v5.833333h1.1666667v1.166667h-4.105987z"/><path d="m17 14q.478098 0 .867853.145942.394952.140729.670379.40134.280624.260611.431328.630678.155903.364854.155903.807892 0 .380492-.10913.708861-.10913.323158-.291017.620254-.181885.291884-.426132.573343-.244247.276248-.514477.557707l-1.465479 1.537602q.233853-.07297.467707-.109457.233852-.0417.436525-.0417h1.564217q.197476 0 .317.114672.124721.114666.124721.302305v.750559h-4.666667v-.422189q0-.119881.04677-.255399.05196-.140729.176689-.26061l2.005939-2.069248q.25464-.265823.44692-.505585.197475-.239761.327394-.474311.135114-.239761.202673-.479524.06756-.244973.06756-.510796 0-.479524-.23905-.724498-.23905-.244974-.675576-.244974-.187082 0-.342984.05734-.155902.05734-.280623.156366-.124722.09903-.213066.234551-.08834.135518-.135116.291884-.08315.23976-.228656.312732-.140311.07296-.389754.03127l-.665187-.11466q.07795-.505585.280623-.880865.202673-.380491.504084-.630677.306607-.255398.701558-.380492.394955-.130313.847071-.130313z"/></g></svg>