<svg viewBox="0 0 16 16" xmlns="http://www.w3.org/2000/svg" xmlns:xlink="http://www.w3.org/1999/xlink"><linearGradient id="a" gradientUnits="userSpaceOnUse" x1="83" x2="83" y1="9" y2="1"><stop offset="0" stop-color="#0040dd"/><stop offset="1" stop-color="#0a84ff"/></linearGradient>




     /&amp;amp;amp;gt;
 <path d="m3.9003906 0-2.9394531 8h1.3515625l.6875-2h3.0371094l.6777344 2h1.3574218l-2.9082031-8zm.6113282 1.5996094h.0332031l1.1523437 3.4003906h-2.3535156z" fill="#4b4b4f" stroke-width=".281312"/><rect fill="url(#a)" height="8" ry="1" width="16" y="8"/><g fill="#fff"><path d="m2.4805826 14h1.2475728v-3.168421c0-.138346.00485-.282707.014563-.433083l-.8398058.672181c-.055016.0421-.1100322.06767-.1650486.07669-.055016.009-.1067959.009-.1553397 0-.048543-.009-.092233-.02406-.1310679-.04511-.035599-.02406-.063107-.04812-.082524-.07218l-.3689324-.469175 1.9368932-1.560902h1.0631068v5h1v1h-3.5194174z"/><path d="m12.089087 9q.409799 0 .743875.125093.33853.120625.57461.344006.240535.223381.36971.540581.133631.312732.133631.692479 0 .326136-.09354.607595-.09354.276992-.249443.531646-.155902.250186-.365256.491437-.209355.236784-.44098.478035l-1.256125 1.317944q.200445-.06254.400891-.09382.200445-.03574.374165-.03574h1.340757q.169265 0 .271714.09829.106904.098283.106904.259116v.643336h-4v-.361876q0-.102755.04009-.218913.04454-.120625.151448-.22338l1.719376-1.773642q.218263-.227848.383074-.433358.169265-.20551.280623-.406552.115813-.20551.17372-.411021.05791-.209977.05791-.437825 0-.411021-.2049-.620998-.2049-.209978-.579065-.209978-.160356 0-.293986.04915-.133631.04915-.240535.134028-.106904.08488-.182628.201043-.07572.116158-.115813.250186-.07127.205509-.195991.268056-.120267.06254-.334075.0268l-.57016-.09828q.06682-.433358.240534-.755027.17372-.326134.432072-.54058.262806-.218913.601336-.326136.338529-.111695.726057-.111695z"/></g><path d="m13.99619 1.0185692-3.99619-.0185692v2h2.032226c.835268.010991 1.487364.2253029 1.956286.6429367.468922.4176341.707194 1.231041.707194 1.9490785 0 .7217011-.236293 1.2968638-.708879 1.7254883s-1.117354.6502636-1.934305.6649174h-3.0663137v-8.00099006l5.0137917.01856916zm-3.99619 2.9814308v3h1.971779c.523874 0 .930518-.1392114 1.219931-.4176341.293076-.2784227.443425-.5324185.443425-1.001341 0-.4506053-.144853-.9197709-.426939-1.1798763-.278423-.2601055-.675908-.3938217-1.192455-.4011486z" fill="#4b4b4f"/></svg>