<?xml version="1.0" encoding="UTF-8" standalone="no"?>
<svg
   xmlns:dc="http://purl.org/dc/elements/1.1/"
   xmlns:cc="http://creativecommons.org/ns#"
   xmlns:rdf="http://www.w3.org/1999/02/22-rdf-syntax-ns#"
   xmlns:svg="http://www.w3.org/2000/svg"
   xmlns="http://www.w3.org/2000/svg"
   xmlns:xlink="http://www.w3.org/1999/xlink"
   xmlns:sodipodi="http://sodipodi.sourceforge.net/DTD/sodipodi-0.dtd"
   xmlns:inkscape="http://www.inkscape.org/namespaces/inkscape"
   viewBox="0 0 32 32"
   version="1.1"
   id="svg34"
   sodipodi:docname="copy.svg"
   inkscape:version="0.92.3 (unknown)"
   inkscape:export-filename="/home/rizmut/Dokumen/Rizmut/Github/libreoffice-style-colementary/images_colementary/cmd/32/copy.png"
   inkscape:export-xdpi="96"
   inkscape:export-ydpi="96">
  <metadata
     id="metadata40">
    <rdf:RDF>
      <cc:Work
         rdf:about="">
        <dc:format>image/svg+xml</dc:format>
        <dc:type
           rdf:resource="http://purl.org/dc/dcmitype/StillImage" />
      </cc:Work>
    </rdf:RDF>
  </metadata>
  <defs
     id="defs38">
    <linearGradient
       inkscape:collect="always"
       id="linearGradient882">
      <stop
         style="stop-color:#ffffff;stop-opacity:1;"
         offset="0"
         id="stop878" />
      <stop
         id="stop886"
         offset="0.63984942"
         style="stop-color:#f1f1f1;stop-opacity:1" />
      <stop
         style="stop-color:#d5d5d5;stop-opacity:1"
         offset="1"
         id="stop880" />
    </linearGradient>
    <linearGradient
       inkscape:collect="always"
       id="linearGradient870">
      <stop
         style="stop-color:#d7d7d7;stop-opacity:1"
         offset="0"
         id="stop866" />
      <stop
         id="stop874"
         offset="0.5"
         style="stop-color:#f7f7f7;stop-opacity:1" />
      <stop
         style="stop-color:#ffffff;stop-opacity:1"
         offset="1"
         id="stop868" />
    </linearGradient>
    <radialGradient
       inkscape:collect="always"
       xlink:href="#linearGradient870"
       id="radialGradient883"
       cx="16"
       cy="7.333333"
       fx="16"
       fy="7.333333"
       r="7"
       gradientTransform="matrix(1.1428572,1.4313304e-7,-1.252414e-7,0.99999996,-2.2857154,-1.3333352)"
       gradientUnits="userSpaceOnUse" />
    <linearGradient
       inkscape:collect="always"
       xlink:href="#linearGradient882"
       id="linearGradient891"
       x1="15"
       y1="7"
       x2="17"
       y2="5"
       gradientUnits="userSpaceOnUse" />
    <radialGradient
       inkscape:collect="always"
       xlink:href="#linearGradient870"
       id="radialGradient901"
       gradientUnits="userSpaceOnUse"
       gradientTransform="translate(-5.5823248e-6,-1.3333349)"
       cx="16"
       cy="7.333333"
       fx="16"
       fy="7.333333"
       r="7" />
    <linearGradient
       inkscape:collect="always"
       xlink:href="#linearGradient882"
       id="linearGradient903"
       gradientUnits="userSpaceOnUse"
       x1="15"
       y1="7"
       x2="17"
       y2="5" />
  </defs>
  <sodipodi:namedview
     pagecolor="#ffffff"
     bordercolor="#666666"
     borderopacity="1"
     objecttolerance="10"
     gridtolerance="10"
     guidetolerance="10"
     inkscape:pageopacity="0"
     inkscape:pageshadow="2"
     inkscape:window-width="1366"
     inkscape:window-height="707"
     id="namedview36"
     showgrid="true"
     inkscape:zoom="10.429825"
     inkscape:cx="17.023679"
     inkscape:cy="15.319721"
     inkscape:window-x="0"
     inkscape:window-y="0"
     inkscape:window-maximized="1"
     inkscape:current-layer="svg34">
    <inkscape:grid
       type="xygrid"
       id="grid847" />
  </sodipodi:namedview>
  <g
     id="g899"
     transform="translate(-1)">
    <path
       style="fill:url(#radialGradient901);fill-opacity:1"
       id="path893"
       d="M 5,3 V 21 H 19 V 6.7294095 L 15,3 Z"
       inkscape:connector-curvature="0" />
    <path
       style="fill:#bababa;fill-opacity:1"
       id="path895"
       d="M 5,2 C 4.446,2 4,2.446 4,3 v 18 c 0,0.554 0.446,1 1,1 h 14 c 0.554,0 1,-0.446 1,-1 V 10.890625 7.2494041 7.0414802 C 20,6.5908003 20.09887,6.6148851 19.395363,5.973891 L 16.087974,2.7368575 C 15.378449,2 15.376751,2 14.99317,2 H 14.661613 14 Z m 0,1 h 9 v 4 c 0,0.554 0.446,1 1,1 h 4 V 21 H 5 Z"
       inkscape:connector-curvature="0" />
    <path
       style="fill:url(#linearGradient903);fill-opacity:1;fill-rule:evenodd"
       id="path897"
       d="m 15,7 h 4 L 15,3 Z"
       inkscape:connector-curvature="0" />
  </g>
  <g
     transform="translate(9 8)"
     id="g24">
    <path
       d="m5 3v18h14v-14.2705905l-4-3.7294095z"
       fill="#fff"
       id="path18"
       style="fill-opacity:1;fill:url(#radialGradient883)" />
    <path
       d="m5 2c-.554 0-1 .446-1 1v18c0 .554.446 1 1 1h14c .554 0 1-.446 1-1v-10.109375-3.6412209-.2079239c0-.4506799.09887-.4265951-.604637-1.0675892l-3.307389-3.2370335c-.709525-.7368575-.711223-.7368575-1.094804-.7368575h-.331557-.661613zm0 1h9v4c0 .554.446 1 1 1h4v13h-14z"
       fill="#808080"
       id="path20"
       style="fill:#bababa;fill-opacity:1" />
    <path
       d="m15 7h4l-4-4z"
       fill="#fff"
       fill-rule="evenodd"
       id="path22"
       style="fill-opacity:1;fill:url(#linearGradient891)" />
  </g>
</svg>
