<?xml version="1.0" encoding="UTF-8" standalone="no"?>
<svg
   xmlns:dc="http://purl.org/dc/elements/1.1/"
   xmlns:cc="http://creativecommons.org/ns#"
   xmlns:rdf="http://www.w3.org/1999/02/22-rdf-syntax-ns#"
   xmlns:svg="http://www.w3.org/2000/svg"
   xmlns="http://www.w3.org/2000/svg"
   xmlns:xlink="http://www.w3.org/1999/xlink"
   xmlns:sodipodi="http://sodipodi.sourceforge.net/DTD/sodipodi-0.dtd"
   xmlns:inkscape="http://www.inkscape.org/namespaces/inkscape"
   viewBox="0 0 32 32"
   version="1.1"
   id="svg8"
   sodipodi:docname="inserttable.svg"
   inkscape:version="0.92.3 (unknown)">
  <metadata
     id="metadata14">
    <rdf:RDF>
      <cc:Work
         rdf:about="">
        <dc:format>image/svg+xml</dc:format>
        <dc:type
           rdf:resource="http://purl.org/dc/dcmitype/StillImage" />
        <dc:title></dc:title>
      </cc:Work>
    </rdf:RDF>
  </metadata>
  <defs
     id="defs12">
    <linearGradient
       id="linearGradient883"
       inkscape:collect="always">
      <stop
         id="stop875"
         offset="0"
         style="stop-color:#efefef;stop-opacity:1;" />
      <stop
         style="stop-color:#ffffff;stop-opacity:1"
         offset="0.33333334"
         id="stop877" />
      <stop
         id="stop879"
         offset="0.8888889"
         style="stop-color:#ffffff;stop-opacity:1" />
      <stop
         id="stop881"
         offset="1"
         style="stop-color:#f5f5f5;stop-opacity:1" />
    </linearGradient>
    <clipPath
       clipPathUnits="userSpaceOnUse"
       id="clipPath830">
      <rect
         style="opacity:1;fill:#0a84ff;fill-opacity:1;stroke:none;stroke-width:1;stroke-linecap:round;stroke-linejoin:round;stroke-miterlimit:4;stroke-dasharray:none;stroke-opacity:1"
         id="rect832"
         width="70"
         height="70"
         x="-985"
         y="-646" />
    </clipPath>
    <linearGradient
       inkscape:collect="always"
       xlink:href="#linearGradient883"
       id="linearGradient873"
       x1="15"
       y1="4"
       x2="15"
       y2="28"
       gradientUnits="userSpaceOnUse" />
    <filter
       inkscape:collect="always"
       style="color-interpolation-filters:sRGB"
       id="filter909"
       x="-0.061991525"
       width="1.1239831"
       y="-0.058132451"
       height="1.1162649">
      <feGaussianBlur
         inkscape:collect="always"
         stdDeviation="0.61991525"
         id="feGaussianBlur911" />
    </filter>
  </defs>
  <sodipodi:namedview
     pagecolor="#ffffff"
     bordercolor="#666666"
     borderopacity="1"
     objecttolerance="10"
     gridtolerance="10"
     guidetolerance="10"
     inkscape:pageopacity="0"
     inkscape:pageshadow="2"
     inkscape:window-width="1366"
     inkscape:window-height="706"
     id="namedview10"
     showgrid="true"
     inkscape:measure-start="0,0"
     inkscape:measure-end="0,0"
     inkscape:snap-global="false"
     inkscape:zoom="10.429825"
     inkscape:cx="29.817471"
     inkscape:cy="14.861296"
     inkscape:window-x="0"
     inkscape:window-y="0"
     inkscape:window-maximized="1"
     inkscape:current-layer="svg8">
    <inkscape:grid
       type="xygrid"
       id="grid821" />
  </sodipodi:namedview>
  <path
     style="fill:#000000;fill-opacity:1;stroke-width:1.03265882;opacity:0.15;filter:url(#filter909)"
     id="path885"
     d="M 4,4 H 28 V 29.59322 H 4 Z"
     inkscape:connector-curvature="0" />
  <path
     d="M 4 3 C 3.446 3 3 3.446 3 4 L 3 28 C 3 28.554 3.446 29 4 29 L 28 29 C 28.554 29 29 28.554 29 28 L 29 4 C 29 3.446 28.554 3 28 3 L 4 3 z M 4 4 L 28 4 L 28 13 L 28 14 L 28 18 L 28 19 L 28 23 L 28 24 L 28 28 L 22 28 L 21 28 L 16 28 L 15 28 L 10 28 L 9 28 L 4 28 L 4 24 L 4 23 L 4 19 L 4 18 L 4 14 L 4 13 L 4 4 z "
     id="path823"
     style="fill:#69696e;fill-opacity:1" />
  <path
     d="m4 4h24v24h-24z"
     fill="#fff"
     id="path2"
     style="fill-opacity:1;fill:url(#linearGradient873)" />
  <path
     d="m3 3h26v6h-26z"
     fill="#4d82b8"
     id="path6"
     style="fill:#0a84ff;fill-opacity:1" />
  <path
     style="opacity:1;fill:#bababa;fill-opacity:1;stroke:none;stroke-width:1;stroke-linecap:round;stroke-linejoin:round;stroke-miterlimit:4;stroke-dasharray:none;stroke-opacity:1"
     d="M 9 9 L 9 13 L 4 13 L 4 14 L 9 14 L 9 18 L 4 18 L 4 19 L 9 19 L 9 23 L 4 23 L 4 24 L 9 24 L 9 28 L 10 28 L 10 24 L 15 24 L 15 28 L 16 28 L 16 24 L 21 24 L 21 28 L 22 28 L 22 24 L 28 24 L 28 23 L 22 23 L 22 19 L 28 19 L 28 18 L 22 18 L 22 14 L 28 14 L 28 13 L 22 13 L 22 9 L 21 9 L 21 13 L 16 13 L 16 9 L 15 9 L 15 13 L 10 13 L 10 9 L 9 9 z M 10 14 L 15 14 L 15 18 L 10 18 L 10 14 z M 16 14 L 21 14 L 21 18 L 16 18 L 16 14 z M 10 19 L 15 19 L 15 23 L 10 23 L 10 19 z M 16 19 L 21 19 L 21 23 L 16 23 L 16 19 z "
     id="rect825" />
  <path
     style="fill:#0040dd;fill-opacity:1"
     d="M 4 3 C 3.446 3 3 3.446 3 4 L 3 9 L 4 9 L 9 9 L 10 9 L 15 9 L 16 9 L 21 9 L 22 9 L 28 9 L 29 9 L 29 4 C 29 3.446 28.554 3 28 3 L 4 3 z M 4 4 L 9 4 L 9 8 L 4 8 L 4 4 z M 10 4 L 15 4 L 15 8 L 10 8 L 10 4 z M 16 4 L 21 4 L 21 8 L 16 8 L 16 4 z M 22 4 L 28 4 L 28 8 L 22 8 L 22 4 z "
     id="path831" />
</svg>
