<?xml version="1.0" encoding="UTF-8" standalone="no"?>
<svg
   xmlns:dc="http://purl.org/dc/elements/1.1/"
   xmlns:cc="http://creativecommons.org/ns#"
   xmlns:rdf="http://www.w3.org/1999/02/22-rdf-syntax-ns#"
   xmlns:svg="http://www.w3.org/2000/svg"
   xmlns="http://www.w3.org/2000/svg"
   xmlns:xlink="http://www.w3.org/1999/xlink"
   xmlns:sodipodi="http://sodipodi.sourceforge.net/DTD/sodipodi-0.dtd"
   xmlns:inkscape="http://www.inkscape.org/namespaces/inkscape"
   viewBox="0 0 32 32"
   version="1.1"
   id="svg12"
   sodipodi:docname="insertdraw.svg"
   inkscape:version="0.92.3 (unknown)"
   inkscape:export-filename="/home/rizmut/Dokumen/Rizmut/Github/libreoffice-style-colibrex/images_colibrex/cmd/32/insertdraw.png"
   inkscape:export-xdpi="96"
   inkscape:export-ydpi="96">
  <metadata
     id="metadata18">
    <rdf:RDF>
      <cc:Work
         rdf:about="">
        <dc:format>image/svg+xml</dc:format>
        <dc:type
           rdf:resource="http://purl.org/dc/dcmitype/StillImage" />
      </cc:Work>
    </rdf:RDF>
  </metadata>
  <defs
     id="defs16">
    <linearGradient
       inkscape:collect="always"
       id="linearGradient834">
      <stop
         style="stop-color:#e5eefc;stop-opacity:1;"
         offset="0"
         id="stop830" />
      <stop
         style="stop-color:#fcfdff;stop-opacity:1"
         offset="1"
         id="stop832" />
    </linearGradient>
    <linearGradient
       inkscape:collect="always"
       xlink:href="#linearGradient834"
       id="linearGradient866"
       x1="20"
       y1="28"
       x2="20"
       y2="13"
       gradientUnits="userSpaceOnUse" />
    <linearGradient
       inkscape:collect="always"
       xlink:href="#linearGradient834"
       id="linearGradient868"
       x1="21"
       y1="18"
       x2="21"
       y2="4"
       gradientUnits="userSpaceOnUse" />
    <linearGradient
       inkscape:collect="always"
       xlink:href="#linearGradient834"
       id="linearGradient870"
       x1="10"
       y1="25"
       x2="10"
       y2="12"
       gradientUnits="userSpaceOnUse" />
  </defs>
  <sodipodi:namedview
     pagecolor="#ffffff"
     bordercolor="#666666"
     borderopacity="1"
     objecttolerance="10"
     gridtolerance="10"
     guidetolerance="10"
     inkscape:pageopacity="0"
     inkscape:pageshadow="2"
     inkscape:window-width="1366"
     inkscape:window-height="706"
     id="namedview14"
     showgrid="true"
     inkscape:zoom="3.6875"
     inkscape:cx="-9.1254143"
     inkscape:cy="4.5297035"
     inkscape:window-x="0"
     inkscape:window-y="0"
     inkscape:window-maximized="1"
     inkscape:current-layer="svg12">
    <inkscape:grid
       type="xygrid"
       id="grid872" />
  </sodipodi:namedview>
  <path
     d="m4 11c-.554 0-1 .446-1 1v13c0 .554.446 1 1 1h14c .554 0 1-.446 1-1v-13c0-.554-.446-1-1-1zm0 1h14v13h-14z"
     fill="#808080"
     id="path2"
     style="fill:#658ae2;fill-opacity:1;stroke:none" />
  <path
     id="circle4"
     style="fill-opacity:1;fill:url(#linearGradient868)"
     fill="#fff"
     r="7"
     cy="11"
     cx="21" />
  <path
     d="m4 12h14v13h-14z"
     fill="#fff"
     id="path6"
     style="fill-opacity:1;fill:url(#linearGradient870)" />
  <path
     d="m21 3a8 8.0000003 0 0 0 -8 8 8 8.0000003 0 0 0 8 8 8 8.0000003 0 0 0 8-8 8 8.0000003 0 0 0 -8-8zm0 1a7 7 0 0 1 7 7 7 7 0 0 1 -7 7 7 7 0 0 1 -7-7 7 7 0 0 1 7-7z"
     fill="#808080"
     id="path8"
     style="fill:#658ae2;fill-opacity:1;stroke:none" />
  <path
     d="m19.9 28.393355 8.493356-8.493355-8.493356-8.493351-8.493357 8.493351z"
     fill="#fff"
     fill-rule="evenodd"
     stroke="#808080"
     stroke-linecap="round"
     stroke-linejoin="round"
     id="path10"
     style="fill-opacity:1;fill:url(#linearGradient866);stroke:#658ae2;stroke-opacity:1" />
</svg>
