<svg height="52" viewBox="0 0 60 52" width="60" xmlns="http://www.w3.org/2000/svg" xmlns:xlink="http://www.w3.org/1999/xlink"><linearGradient id="a" gradientTransform="translate(55.973924 .788479)" gradientUnits="userSpaceOnUse" x1="21" x2="21" y1="22" y2="10"><stop offset="0" stop-color="#f16813"/><stop offset="1" stop-color="#ffb232"/></linearGradient><linearGradient id="b" gradientUnits="userSpaceOnUse" x1="26" x2="25.875948" xlink:href="#a" y1="34" y2="20.035746"/><linearGradient id="c" gradientUnits="userSpaceOnUse" x1="50" x2="50" xlink:href="#a" y1="36" y2="26"/><linearGradient id="d" gradientUnits="userSpaceOnUse" x1="1.969204" x2="5.155643" y1="40.924842" y2="24.619757"><stop offset="0" stop-color="#0078f6"/><stop offset="1" stop-color="#51cdfb"/></linearGradient><linearGradient id="e" gradientTransform="translate(36 -26)" gradientUnits="userSpaceOnUse" x1="14" x2="14" y1="22" y2="2"><stop offset="0" stop-color="#01bc23"/><stop offset="1" stop-color="#4ee581"/></linearGradient><linearGradient id="f" gradientUnits="userSpaceOnUse" x1="26" x2="28" xlink:href="#e" y1="46" y2="32"/><linearGradient id="g" gradientUnits="userSpaceOnUse" x1="48" x2="51" xlink:href="#e" y1="41.299805" y2="40"/><path d="m0 0h60v52h-60z" fill="#fff"/><path d="m12 40-9 9" fill="none" stroke="#808080"/><path d="m11 40.0062h46v.9874h-46z" fill="#808080"/><path d="m11 3h1v38h-1z" fill="#808080"/><path d="m10 22v3l19.875-6 18.125 12v-9l-19-12z" fill="url(#d)"/><path d="m10 25 19.875261-6 18.124739 12v15h-38z" fill="url(#b)"/><g fill-rule="evenodd"><path d="m29 10-19 12 4-3 19-12z" fill="#0078f6" opacity=".7"/><path d="m48 22v9l3-3v-9z" fill="#0078f6" opacity=".8"/><path d="m48 31v15l3-3v-15z" fill="url(#c)"/><path d="m48 22-19-12 4-3 18 12z" fill="#0078f6" opacity=".9"/><path d="m51 36.599609-3 2.400391v7l3-3z" fill="url(#g)"/></g><path d="m29 31-19 5v10h38v-7z" fill="url(#f)"/></svg>