<?xml version="1.0" encoding="UTF-8" standalone="no"?>
<svg
   xmlns:dc="http://purl.org/dc/elements/1.1/"
   xmlns:cc="http://creativecommons.org/ns#"
   xmlns:rdf="http://www.w3.org/1999/02/22-rdf-syntax-ns#"
   xmlns:svg="http://www.w3.org/2000/svg"
   xmlns="http://www.w3.org/2000/svg"
   xmlns:xlink="http://www.w3.org/1999/xlink"
   xmlns:sodipodi="http://sodipodi.sourceforge.net/DTD/sodipodi-0.dtd"
   xmlns:inkscape="http://www.inkscape.org/namespaces/inkscape"
   height="32"
   viewBox="0 0 32 32"
   width="32"
   version="1.1"
   id="svg12"
   sodipodi:docname="remote-documents.svg"
   inkscape:export-filename="/home/rizmut/Dokumen/Rizmut/Github/libreoffice-style-colibrex/images_colibrex/framework/res/folder_32.png"
   inkscape:export-xdpi="96"
   inkscape:export-ydpi="96"
   inkscape:version="0.92.3 (unknown)">
  <metadata
     id="metadata18">
    <rdf:RDF>
      <cc:Work
         rdf:about="">
        <dc:format>image/svg+xml</dc:format>
        <dc:type
           rdf:resource="http://purl.org/dc/dcmitype/StillImage" />
        <dc:title></dc:title>
      </cc:Work>
    </rdf:RDF>
  </metadata>
  <defs
     id="defs16">
    <linearGradient
       inkscape:collect="always"
       id="linearGradient886">
      <stop
         style="stop-color:#ffffff;stop-opacity:1;"
         offset="0"
         id="stop882" />
      <stop
         id="stop890"
         offset="0.05588652"
         style="stop-color:#ffffff;stop-opacity:0.27205881" />
      <stop
         style="stop-color:#ffffff;stop-opacity:0.04044118"
         offset="0.75"
         id="stop892" />
      <stop
         style="stop-color:#ffffff;stop-opacity:0.97794116"
         offset="1"
         id="stop884" />
    </linearGradient>
    <linearGradient
       inkscape:collect="always"
       id="linearGradient874">
      <stop
         style="stop-color:#a7a7a7;stop-opacity:1"
         offset="0"
         id="stop870" />
      <stop
         style="stop-color:#c5c5c5;stop-opacity:1"
         offset="1"
         id="stop872" />
    </linearGradient>
    <linearGradient
       id="linearGradient866"
       inkscape:collect="always">
      <stop
         id="stop862"
         offset="0"
         style="stop-color:#e1e1e1;stop-opacity:1;" />
      <stop
         style="stop-color:#f8f8f8;stop-opacity:1"
         offset="0.35714287"
         id="stop868" />
      <stop
         id="stop864"
         offset="1"
         style="stop-color:#fefefe;stop-opacity:1" />
    </linearGradient>
    <linearGradient
       inkscape:collect="always"
       id="linearGradient846">
      <stop
         style="stop-color:#bdbdbd;stop-opacity:1;"
         offset="0"
         id="stop842" />
      <stop
         id="stop850"
         offset="0.33333334"
         style="stop-color:#f8f8f8;stop-opacity:1" />
      <stop
         style="stop-color:#f7fcf9;stop-opacity:1"
         offset="1"
         id="stop844" />
    </linearGradient>
    <clipPath
       clipPathUnits="userSpaceOnUse"
       id="clipPath818">
      <circle
         style="opacity:1;fill:#0a84ff;fill-opacity:1;stroke:none;stroke-width:9.40416336;stroke-miterlimit:4;stroke-dasharray:none;stroke-opacity:1"
         id="circle820"
         cx="340.65686"
         cy="399.84625"
         r="47.020817" />
    </clipPath>
    <linearGradient
       inkscape:collect="always"
       xlink:href="#linearGradient846"
       id="linearGradient848"
       x1="11"
       y1="12"
       x2="11"
       y2="6"
       gradientUnits="userSpaceOnUse" />
    <linearGradient
       inkscape:collect="always"
       xlink:href="#linearGradient866"
       id="linearGradient849"
       x1="15"
       y1="27"
       x2="15"
       y2="13"
       gradientUnits="userSpaceOnUse" />
    <linearGradient
       inkscape:collect="always"
       xlink:href="#linearGradient874"
       id="linearGradient876"
       x1="6"
       y1="28"
       x2="6"
       y2="12"
       gradientUnits="userSpaceOnUse" />
    <linearGradient
       inkscape:collect="always"
       xlink:href="#linearGradient886"
       id="linearGradient888"
       x1="13"
       y1="10"
       x2="13"
       y2="13"
       gradientUnits="userSpaceOnUse" />
    <linearGradient
       id="linearGradient4829">
      <stop
         style="stop-color:#f4fbfc;stop-opacity:1;"
         offset="0"
         id="stop4831" />
      <stop
         style="stop-color:#d6d6d6;stop-opacity:1;"
         offset="1"
         id="stop4833" />
    </linearGradient>
    <linearGradient
       inkscape:collect="always"
       xlink:href="#linearGradient874"
       id="linearGradient860"
       x1="21.914949"
       y1="27.142857"
       x2="21.493931"
       y2="20.513731"
       gradientUnits="userSpaceOnUse" />
  </defs>
  <sodipodi:namedview
     pagecolor="#ffffff"
     bordercolor="#666666"
     borderopacity="1"
     objecttolerance="10"
     gridtolerance="10"
     guidetolerance="10"
     inkscape:pageopacity="0"
     inkscape:pageshadow="2"
     inkscape:window-width="1366"
     inkscape:window-height="706"
     id="namedview14"
     showgrid="true"
     inkscape:snap-global="false"
     inkscape:zoom="11.313709"
     inkscape:cx="15.647047"
     inkscape:cy="6.8892575"
     inkscape:window-x="0"
     inkscape:window-y="0"
     inkscape:window-maximized="1"
     inkscape:current-layer="svg12"
     inkscape:snap-smooth-nodes="true">
    <inkscape:grid
       type="xygrid"
       id="grid828"
       spacingx="0.5"
       spacingy="0.5"
       empspacing="2" />
  </sodipodi:namedview>
  <path
     style="opacity:1;fill:url(#linearGradient848);fill-opacity:1;stroke:#c5c5c5;stroke-width:1;stroke-miterlimit:4;stroke-dasharray:none;stroke-opacity:1"
     d="m 7.5,6.5 c -1.108,0 -1,0.6510253 -1,1.4589844 V 8.5 h -1 c -0.554,0 -1,0.473875 -1,1.0625 v 2.875 c 0,0.588625 0.446,1.0625 1,1.0625 h 21 c 0.554,0 1,-0.473875 1,-1.0625 V 9.5625 C 27.5,8.973875 27.054,8.5 26.5,8.5 h -2 -9.419922 C 14.403003,7.6225336 13.472373,6.5 12.5,6.5 Z"
     id="rect825"
     inkscape:connector-curvature="0"
     sodipodi:nodetypes="sscssssssssccss" />
  <path
     sodipodi:nodetypes="sscssssssssccss"
     inkscape:connector-curvature="0"
     id="path878"
     d="m 8.5,7.5 c -1.108,0 -1,0.6510253 -1,1.4589844 V 9.5 h -1 c -0.554,0 -1,-0.088625 -1,0.5 v 1.4375 c 0,0.588625 -0.554,1.0625 0,1.0625 h 21 c 0.554,0 0,-0.473875 0,-1.0625 V 10 C 26.5,9.411375 26.554,9.5 26,9.5 H 23.5 14.580078 C 13.903003,8.6225336 12.972373,7.5 12,7.5 Z"
     style="opacity:1;fill:none;fill-opacity:1;stroke:url(#linearGradient888);stroke-width:1;stroke-miterlimit:4;stroke-dasharray:none;stroke-opacity:1" />
  <path
     style="opacity:1;fill:url(#linearGradient849);fill-opacity:1;stroke:url(#linearGradient876);stroke-width:1;stroke-miterlimit:4;stroke-dasharray:none;stroke-opacity:1"
     d="m 3.5,12.5 h 25 c 0.554,0 1.045581,0.475642 1,1.0625 l -1,12.875 c -0.04558,0.586858 -0.446,1.0625 -1,1.0625 h -23 c -0.554,0 -0.9544188,-0.475642 -1,-1.0625 l -1,-12.875 C 2.4544188,12.975642 2.946,12.5 3.5,12.5 Z"
     id="rect836"
     inkscape:connector-curvature="0"
     sodipodi:nodetypes="sssssssss" />
  <path
     id="path4492"
     d="m 16.004356,15.022226 a 5.4915033,5.4915033 0 0 0 -2.497252,0.601063 c -0.204988,0.564416 -0.567192,1.711916 -0.568137,2.802469 a 0.56929167,0.58628546 0 0 1 0.204759,0.09829 c 0.161697,-0.337576 0.409954,-0.798506 0.801737,-1.419621 0.496203,-0.786669 0.964898,-1.243766 1.642644,-1.555164 0.342567,-0.157395 0.737769,-0.278175 1.216541,-0.38861 -0.04325,-0.02975 -0.094,-0.06329 -0.139149,-0.09396 a 5.4915033,5.4915033 0 0 0 -0.661143,-0.04446 z m 0.941366,0.08676 c 0.0072,0.0049 0.01616,0.01088 0.0233,0.01586 0.01088,-0.0024 0.02433,-0.0046 0.03533,-0.007 a 5.4915033,5.4915033 0 0 0 -0.05863,-0.0089 z m 0.354724,0.07499 c -0.06231,0.01252 -0.132711,0.02515 -0.192502,0.03772 0.15404,0.10883 0.291331,0.209207 0.415286,0.302816 0.07268,-0.07505 0.151803,-0.144393 0.236724,-0.208366 a 5.4915033,5.4915033 0 0 0 -0.459508,-0.132181 z m -0.357128,0.07355 c -0.523339,0.116152 -0.947455,0.240273 -1.303781,0.403992 -0.656077,0.301444 -1.100629,0.733548 -1.589772,1.509021 -0.405038,0.642126 -0.653754,1.108649 -0.812069,1.443654 a 0.56929167,0.58628546 0 0 1 0.137467,0.380921 0.56929167,0.58628546 0 0 1 -0.0084,0.09661 c 0.92678,0.06383 2.059576,-0.0046 3.118503,-0.501567 a 0.32288184,0.3823601 0 0 1 -0.01731,-0.121846 0.32288184,0.3823601 0 0 1 0.276138,-0.378036 c -0.0046,-0.196623 -8.84e-4,-0.398376 0.01609,-0.602263 0.05682,-0.680653 0.250217,-1.373933 0.678448,-1.872399 -0.144057,-0.108627 -0.309423,-0.228143 -0.495318,-0.358088 z m 0.955787,0.109345 c -0.10107,0.06915 -0.193511,0.147047 -0.27758,0.232639 0.340865,0.262918 0.569545,0.469107 0.726272,0.639034 0.113816,0.1234 0.191092,0.228483 0.250424,0.323721 a 0.28039739,0.39935385 0 0 1 0.121364,-0.03966 0.28039739,0.39935385 0 0 1 0.116079,0.03605 c 0.02291,-0.138868 0.03428,-0.309962 0.03629,-0.464796 0.0013,-0.09958 -7.49e-4,-0.184653 -0.0029,-0.257151 a 5.4915033,5.4915033 0 0 0 -0.969926,-0.469843 z m -0.362416,0.323483 c -0.408845,0.472876 -0.598175,1.140022 -0.653934,1.80799 -0.01686,0.202025 -0.01979,0.403132 -0.01443,0.599137 a 0.32288184,0.3823601 0 0 1 0.200434,0.177123 c 0.745117,-0.438347 1.182674,-0.812833 1.434279,-1.099743 a 0.28039739,0.39935385 0 0 1 -0.06369,-0.253066 0.28039739,0.39935385 0 0 1 0.07114,-0.265322 c -0.05774,-0.09696 -0.132791,-0.202914 -0.253307,-0.333575 -0.15163,-0.1644 -0.37826,-0.368957 -0.720503,-0.632544 z m -4.194691,0.02763 a 5.4915033,5.4915033 0 0 0 -2.156466,2.161993 c 0.183602,0.333765 0.529923,0.827806 1.056723,1.036537 a 0.56929167,0.58628546 0 0 1 0.563571,-0.507574 0.56929167,0.58628546 0 0 1 0.01054,4.75e-4 c 0.003,-1.029649 0.314423,-2.08797 0.525597,-2.691424 z m 5.650841,0.194424 c 9.97e-4,0.05926 0.0028,0.112046 0.0019,0.18289 -0.0026,0.193176 -0.0136,0.410693 -0.05503,0.579192 a 0.28039739,0.39935385 0 0 1 0.06033,0.247298 0.28039739,0.39935385 0 0 1 -0.06537,0.25643 c 0.05138,0.0888 0.112868,0.197662 0.179045,0.320599 a 0.2888943,0.33987562 0 0 1 0.107191,-0.02475 0.2888943,0.33987562 0 0 1 0.197791,0.09277 c 0.321457,-0.119645 0.676649,-0.195912 1.069243,-0.208363 v -2.51e-4 c 8.67e-4,-2.7e-5 0.0018,2.7e-5 0.0027,0 a 5.4915033,5.4915033 0 0 0 -1.49779,-1.445811 z m -0.408559,1.359058 c -0.267522,0.301361 -0.721056,0.681924 -1.476818,1.123536 a 0.32288184,0.3823601 0 0 1 0.0063,0.0733 0.32288184,0.3823601 0 0 1 -0.182408,0.34391 c 0.03432,0.225109 0.07945,0.423616 0.129295,0.588085 a 0.47582587,0.50131652 0 0 1 0.07017,-0.0057 0.47582587,0.50131652 0 0 1 0.16967,0.0334 c 0.233853,-0.361315 0.543603,-0.77781 0.951942,-1.143964 0.201964,-0.181103 0.428756,-0.348898 0.68061,-0.49099 a 0.2888943,0.33987562 0 0 1 0.08243,-0.217256 c -0.06148,-0.114751 -0.117394,-0.212393 -0.167269,-0.299003 a 0.28039739,0.39935385 0 0 1 -0.128576,0.04446 0.28039739,0.39935385 0 0 1 -0.135304,-0.04975 z m 1.994004,0.209326 c -0.404329,0.0025 -0.76861,0.07226 -1.095176,0.191302 a 0.2888943,0.33987562 0 0 1 0.02667,0.142033 0.2888943,0.33987562 0 0 1 -0.109827,0.266525 c 0.05955,0.132652 0.119177,0.271669 0.176641,0.421775 0.275653,0.720081 0.504584,1.635066 0.457825,2.657313 a 0.35686941,0.36536631 0 0 1 0.249463,0.276377 c 0.04752,-0.01364 0.09499,-0.0273 0.140351,-0.04205 0.477217,-0.15525 0.822829,-0.37356 0.943048,-0.652251 0.04525,-0.104893 0.08556,-0.192456 0.126652,-0.282867 A 5.4915033,5.4915033 0 0 0 20.57828,17.4808 Z m -1.630146,0.443886 c -0.225066,0.132124 -0.429187,0.285532 -0.613559,0.450857 -0.395376,0.354533 -0.69662,0.758927 -0.926466,1.113442 a 0.47582587,0.50131652 0 0 1 0.198512,0.406875 0.47582587,0.50131652 0 0 1 -0.291518,0.461429 c 0.106912,0.196999 0.269562,0.491037 0.506852,0.883209 0.09597,0.158614 0.198411,0.321671 0.302812,0.481136 0.201055,-0.0066 0.40358,-0.01576 0.605629,-0.03148 0.292455,-0.02277 0.581241,-0.05681 0.856049,-0.101899 a 0.35686941,0.36536631 0 0 1 -0.0087,-0.07811 0.35686941,0.36536631 0 0 1 0.333817,-0.364337 c 0.04402,-0.997148 -0.179341,-1.891918 -0.449895,-2.598673 -0.05505,-0.143803 -0.112035,-0.276954 -0.168952,-0.404231 a 0.2888943,0.33987562 0 0 1 -0.07186,0.0111 0.2888943,0.33987562 0 0 1 -0.272771,-0.229274 z m -7.829179,0.09349 a 5.4915033,5.4915033 0 0 0 -0.314589,0.746459 c 0.433677,0.747244 0.987128,1.196805 1.469129,1.477059 a 0.27190052,0.32288184 0 0 1 0.251863,-0.201394 0.27190052,0.32288184 0 0 1 0.04903,0.0055 c 0.04877,-0.209728 0.09417,-0.364989 0.129296,-0.474411 A 0.56929167,0.58628546 0 0 1 12.239374,19.047695 C 11.688788,18.850497 11.324676,18.37326 11.118962,18.018129 Z m 5.416762,0.684455 c -1.094027,0.513242 -2.257624,0.578293 -3.201895,0.510217 a 0.56929167,0.58628546 0 0 1 -0.302334,0.319877 c 0.04723,0.216664 0.132013,0.553075 0.285031,0.989191 a 0.30588805,0.30588805 0 0 1 0.05863,-0.0057 0.30588805,0.30588805 0 0 1 0.305939,0.305698 0.30588805,0.30588805 0 0 1 -0.0024,0.03605 c 0.603233,0.241463 1.33425,0.521821 1.915175,0.683734 a 0.6372668,0.57354015 0 0 1 0.602264,-0.388372 0.6372668,0.57354015 0 0 1 0.202597,0.03028 c 0.148467,-0.394756 0.291614,-0.709112 0.406877,-0.922621 a 0.47582587,0.50131652 0 0 1 -0.150686,-0.36506 0.47582587,0.50131652 0 0 1 0.288152,-0.459988 c -0.05147,-0.166813 -0.0967,-0.364775 -0.131458,-0.58616 a 0.32288184,0.3823601 0 0 1 -0.02067,9.86e-4 0.32288184,0.3823601 0 0 1 -0.255228,-0.148043 z m -5.783983,0.213645 a 5.4915033,5.4915033 0 0 0 -0.238886,1.597464 5.4915033,5.4915033 0 0 0 3.042798,4.908225 C 12.314135,23.71736 12.287738,21.867304 12.458311,20.675478 a 0.27190052,0.32288184 0 0 1 -0.20452,-0.304257 c -0.486085,-0.276035 -1.051612,-0.719989 -1.502053,-1.454948 z m 2.162234,0.653934 a 0.56929167,0.58628546 0 0 1 -0.08387,0.01031 c -0.03668,0.110925 -0.0867,0.279588 -0.142514,0.523917 a 0.27190052,0.32288184 0 0 1 0.109827,0.258594 0.27190052,0.32288184 0 0 1 -0.0226,0.128095 c 0.03865,0.01645 0.08031,0.03544 0.11608,0.04975 0.06197,0.02479 0.162332,0.06576 0.240088,0.09733 a 0.30588805,0.30588805 0 0 1 0.07186,-0.06873 C 13.048905,20.132199 12.96375,19.795931 12.913967,19.570182 Z m 3.990653,0.766407 c -0.109804,0.206605 -0.248045,0.512538 -0.391253,0.893302 a 0.6372668,0.57354015 0 0 1 0.319396,0.480416 c 0.345034,0.01804 0.736877,0.02488 1.147087,0.01539 -0.09029,-0.140401 -0.179137,-0.282664 -0.26316,-0.421536 -0.248161,-0.410144 -0.417354,-0.716829 -0.523195,-0.912045 a 0.47582587,0.50131652 0 0 1 -0.06273,0.0051 0.47582587,0.50131652 0 0 1 -0.226151,-0.06057 z m -4.192768,0.261238 a 0.27190052,0.32288184 0 0 1 -0.130258,0.08076 c -0.176404,1.214817 -0.146335,3.131921 1.218224,4.861122 a 5.4915033,5.4915033 0 0 0 1.795254,0.445089 c -0.01603,-0.486713 -9e-6,-0.961106 0.03989,-1.416496 a 0.516706,0.50168549 0 0 1 -0.495798,-0.500604 0.516706,0.50168549 0 0 1 0.05527,-0.224466 c -0.86741,-0.887723 -1.42301,-1.883193 -1.775537,-2.718849 a 0.30588805,0.30588805 0 0 1 -0.04374,0.0034 0.30588805,0.30588805 0 0 1 -0.305938,-0.305939 0.30588805,0.30588805 0 0 1 0.0091,-0.07233 c -0.07507,-0.0305 -0.173122,-0.07044 -0.233118,-0.09444 -0.041,-0.0164 -0.08858,-0.03793 -0.133382,-0.0572 z m 8.770304,0.188176 c -7.49e-4,0.0017 -0.0012,0.0029 -0.0019,0.0046 -0.144142,0.334148 -0.525432,0.56032 -1.017791,0.720503 -0.05673,0.01846 -0.115273,0.03592 -0.174958,0.05264 a 0.35686941,0.36536631 0 0 1 -0.313373,0.309062 c -0.0038,0.04002 -0.008,0.08734 -0.01177,0.12545 a 0.25490673,0.22091915 0 0 1 0.210288,0.217256 0.25490673,0.22091915 0 0 1 -0.254748,0.220863 0.25490673,0.22091915 0 0 1 -0.0027,-2.52e-4 c -0.0278,0.242467 -0.05401,0.449142 -0.07691,0.597698 a 0.34837253,0.33987562 0 0 1 0.232399,0.320119 0.34837253,0.33987562 0 0 1 -0.348477,0.340063 0.34837253,0.33987562 0 0 1 -0.0697,-0.007 c -0.06309,0.301158 -0.225968,0.772753 -0.646483,1.218705 a 0.31438495,0.25490673 0 0 1 0.04494,0.130739 0.31438495,0.25490673 0 0 1 -0.0051,0.04518 5.4915033,5.4915033 0 0 0 2.43621,-4.295629 z m -7.842397,0.188899 a 0.30588805,0.30588805 0 0 1 -0.105745,0.108144 c 0.34487,0.815788 0.88703,1.787582 1.731086,2.656831 a 0.516706,0.50168549 0 0 1 0.390773,-0.173999 0.516706,0.50168549 0 0 1 0.105746,0.01076 c 0.06142,-0.366414 0.1344,-0.716156 0.216056,-1.041101 0.02184,-0.08688 0.04502,-0.168619 0.06778,-0.252105 a 0.6372668,0.57354015 0 0 1 -0.486666,-0.556551 0.6372668,0.57354015 0 0 1 0.0048,-0.06609 C 14.973536,21.496876 14.24242,21.21641 13.639739,20.974917 Z m 5.993791,0.731079 c -0.287039,0.04806 -0.589008,0.08321 -0.893782,0.106945 -0.178434,0.0139 -0.356956,0.02308 -0.53425,0.03003 0.172723,0.257363 0.347213,0.495619 0.506371,0.677484 a 0.3738632,0.3738632 0 0 1 0.186255,-0.05023 0.3738632,0.3738632 0 0 1 0.272533,0.118481 l 0.503246,-0.310022 a 0.25490673,0.22091915 0 0 1 -0.0111,-0.06321 0.25490673,0.22091915 0 0 1 0.1752,-0.209565 c 0.0043,-0.04246 0.0089,-0.09598 0.01322,-0.140833 a 0.35686941,0.36536631 0 0 1 -0.217739,-0.159098 z m -2.811844,0.128815 a 0.6372668,0.57354015 0 0 1 -0.625575,0.465517 0.6372668,0.57354015 0 0 1 -0.0274,-0.0012 c -0.02412,0.08798 -0.04855,0.174525 -0.07162,0.266285 -0.08232,0.327599 -0.155593,0.680961 -0.217015,1.050955 a 0.516706,0.50168549 0 0 1 0.292482,0.451336 0.516706,0.50168549 0 0 1 -0.08435,0.273735 c 0.276135,0.147315 0.484275,0.259989 0.613556,0.332855 a 0.46864027,0.30341457 0 0 1 0.317956,-0.08099 0.46864027,0.30341457 0 0 1 0.468641,0.303535 0.46864027,0.30341457 0 0 1 -0.01658,0.07835 c 0.254371,0.04897 0.588863,0.09209 0.95122,0.07666 a 0.31438495,0.25490673 0 0 1 -7.5e-4,-0.01539 0.31438495,0.25490673 0 0 1 0.314351,-0.254989 0.31438495,0.25490673 0 0 1 0.17664,0.04398 c 0.418847,-0.44075 0.569568,-0.901928 0.624373,-1.183857 a 0.34837253,0.33987562 0 0 1 -0.163664,-0.287672 0.34837253,0.33987562 0 0 1 0.01031,-0.08075 L 19.17137,23.098742 a 0.3738632,0.3738632 0 0 1 -0.273254,0.119442 0.3738632,0.3738632 0 0 1 -0.373951,-0.373952 0.3738632,0.3738632 0 0 1 0.09156,-0.244653 c -0.180029,-0.204462 -0.370882,-0.4701 -0.556603,-0.752234 -0.442798,0.01305 -0.866387,0.0071 -1.237452,-0.0125 z m 2.924316,0.543624 -0.507331,0.312667 a 0.3738632,0.3738632 0 0 1 0.03341,0.153089 0.3738632,0.3738632 0 0 1 -0.03245,0.151406 l 0.198272,0.162463 a 0.34837253,0.33987562 0 0 1 0.278781,-0.143717 c 0.02294,-0.149053 0.04961,-0.35835 0.07786,-0.605627 a 0.25490673,0.22091915 0 0 1 -0.04854,-0.03028 z m -3.740229,2.057691 a 0.516706,0.50168549 0 0 1 -0.246577,0.122567 c -0.04109,0.460234 -0.05737,0.940185 -0.04062,1.432358 a 5.4915033,5.4915033 0 0 0 0.285752,0.01418 5.4915033,5.4915033 0 0 0 2.696964,-0.715699 0.31438495,0.25490673 0 0 1 -0.230715,-0.11752 c -0.417891,0.02276 -0.803821,-0.03072 -1.082919,-0.08796 a 0.46864027,0.30341457 0 0 1 -0.367943,0.116079 0.46864027,0.30341457 0 0 1 -0.468642,-0.303294 0.46864027,0.30341457 0 0 1 0.05142,-0.137708 c -0.129902,-0.07276 -0.333887,-0.18287 -0.596736,-0.323003 z"
     style="opacity:1;fill:url(#linearGradient860);fill-opacity:1;stroke:none;stroke-width:1.10743308;stroke-miterlimit:4;stroke-dasharray:none;stroke-opacity:1"
     inkscape:connector-curvature="0" />
</svg>
