<svg viewBox="0 0 24 24" xmlns="http://www.w3.org/2000/svg" xmlns:xlink="http://www.w3.org/1999/xlink"><linearGradient id="a" gradientUnits="userSpaceOnUse" x1="7" x2="7" y1="20" y2="16"><stop offset="0" stop-color="#0040dd"/><stop offset="1" stop-color="#0a84ff"/></linearGradient><g transform="translate(1 1)"><path d="m2 16h9v4h-9z" fill="url(#a)"/><path d="m5 6v4l-2 1v5h1v-5h.5l1.5-1v-3h4v3l-1 1v5h1v-5l1-1v-4h-5z" fill="#4b4b4f"/><path d="m6 7v3l-1.5 1h-.5v5h5v-5l1-1v-3z" fill="#fff"/><path d="m6 2h4v4h-4z" fill="#4b4b4f"/></g><g transform="matrix(-1 0 0 1 24 1)"><path d="m2 16h9v4h-9z" fill="url(#a)"/><path d="m5 6v4l-2 1v5h1v-5h.5l1.5-1v-3h4v3l-1 1v5h1v-5l1-1v-4h-5z" fill="#4b4b4f"/><path d="m6 7v3l-1.5 1h-.5v5h5v-5l1-1v-3z" fill="#fff"/><path d="m6 2h4v4h-4z" fill="#4b4b4f"/></g><g fill="#4b4b4f"><path d="m11 8h3v3h-3z"/><path d="m4 12h7v1h-7z"/><path d="m14 12h7v1h-7z"/></g></svg>