<svg viewBox="0 0 16 16" xmlns="http://www.w3.org/2000/svg" xmlns:xlink="http://www.w3.org/1999/xlink"><linearGradient id="a" gradientUnits="userSpaceOnUse" x1="8" x2="8" y1="15" y2="1"><stop offset="0" stop-color="#1c1c1e"/><stop offset=".2857143" stop-color="#2c2c2e"/><stop offset="1" stop-color="#3a3a3c"/></linearGradient><linearGradient id="b" gradientUnits="userSpaceOnUse" x1="8" x2="8" y1="1" y2="15"><stop offset="0" stop-color="#1c1c1e"/><stop offset="1" stop-color="#1c1c1e" stop-opacity="0"/></linearGradient><linearGradient id="c" gradientUnits="userSpaceOnUse" x1="4" x2="4" xlink:href="#a" y1="7" y2="1"/>
/&amp;amp;gt;<g transform="matrix(0 1 -1 0 17.5 -1)"><rect fill="#f2f2f7" height="8" rx="1.5" width="16" x="1" y="1.5"/><path d="m2 2.5v6h14v-6z" fill="#1c1c1e" stroke-width="1.309307"/><path d="m3.5-10h4v1h-4z" fill="#bababa" transform="rotate(90)"/><g fill="#d1d1d6"><path d="m13 3.5v4l2-2z"/><path d="m5 3.5v4l-2-2z"/></g></g><rect fill="#f2f2f7" height="8" rx="0" ry="1.4144" width="8" y="8"/><rect fill="url(#a)" height="6" rx="1.5" ry="1.414397" width="6" x="1" y="9"/><g fill="none" stroke-linecap="round" stroke-linejoin="round"><rect height="5" rx="1.5" ry="1.414397" stroke="url(#b)" width="5" x="1.5" y="9.5"/><path d="m2 10.5 2.5 3 4-4.5" stroke="#d1d1d6" stroke-width="1.629"/></g><path d="m8 4a4 4 0 0 1 -4 4 4 4 0 0 1 -4-4 4 4 0 0 1 4-4 4 4 0 0 1 4 4z" fill="#f2f2f7"/><path d="m7 4a3 3 0 0 1 -3 3 3 3 0 0 1 -3-3 3 3 0 0 1 3-3 3 3 0 0 1 3 3z" fill="url(#c)"/><circle cx="4" cy="4" fill="#d1d1d6" r="2"/></svg>